<?xml version="1.0" standalone="no"?>
<!DOCTYPE svg PUBLIC "-//W3C//DTD SVG 1.1//EN" "http://www.w3.org/Graphics/SVG/1.1/DTD/svg11.dtd">
<svg xmlns="http://www.w3.org/2000/svg">
<metadata>Copyright (C) 2014 by original authors @ fontello.com</metadata>
<defs>
<font id="fontello" horiz-adv-x="1000" >
<font-face font-family="fontello" font-weight="400" font-stretch="normal" units-per-em="1000" ascent="850" descent="-150" />
<missing-glyph horiz-adv-x="1000" />
<glyph glyph-name="Speaker" unicode="&#xe800;" d="m764-52q-16 0-26 12-10 11-9 25t12 24q74 66 114 156t40 189q0 100-40 190t-114 156q-11 10-12 24t9 25 24 12 25-9q85-76 131-179t46-219q0-114-46-217t-131-180q-11-9-23-9z m-73 122q-14 0-24 10-11 11-11 25t11 24q45 46 69 105t23 122-23 123-69 103q-11 11-11 25t11 25q11 10 25 10t24-11q55-56 84-126t29-149-29-149-84-126q-11-11-25-11z m-119 651q-23 8-38-8-1-1-18-17t-48-41-74-52-95-53-113-40-124-16q-15 0-25-10t-10-25v-221q0-14 10-24t25-11q64 0 124-16t113-40 95-52 74-52 48-41 18-17q9-11 25-11 5 0 13 3 10 4 16 12t5 20v679q0 23-21 33z" horiz-adv-x="1000" />
<glyph glyph-name="Wheelchair" unicode="&#xe819;" d="m676 191q17-4 26-17t5-30q-5-21-12-38-17-47-48-86t-72-67-89-42-100-15q-68 0-127 25t-104 68-71 101-26 123q0 49 15 95t43 85 67 69 86 48q16 5 32-1t21-22-1-30-23-20q-36-14-65-36t-50-52-32-64-12-72q0-50 20-93t53-76 78-51 96-19q39 0 76 11t67 33 54 50 36 64q6 14 9 29 4 16 18 25t30 5z m252-153q5-10 5-21 0-20-14-34t-35-14q-16 0-28 8t-18 21l-132 230h-227q-4-1-11-1-24 0-42 15t-22 37l-55 265h1q-1 3-1 8 0 30 22 52t54 21q26 0 46-15t26-38l1-3q0-2 1-2t0-3l9-46h156q10 0 18-5 15-8 20-24t-4-30q-6-11-17-16t-23-4h-133l20-98h170q20 0 36-10t24-27l153-266v0z m-529 608q-20 0-37 8t-29 20-20 29-8 37q0 19 8 36t20 30 29 20 37 7q19 0 36-7t30-20 20-30 7-36q0-39-27-66t-66-28z" horiz-adv-x="1000" />
<glyph glyph-name="Eject" unicode="&#xe802;" d="m188 301q-18 0-24 16-8 16 5 29l312 336q8 8 19 8t19-8l310-333q10-8 10-21 0-11-7-19t-19-8h-1-624v0z m630-52q11 0 19-7t7-19v-132q0-11-7-18t-19-8h-635q-11 0-18 8t-8 18v132q0 11 8 19t18 7h635v0z" horiz-adv-x="1000" />
<glyph glyph-name="ViewModes" unicode="&#xe803;" d="m857 735q15 13 33 13 19 0 32-13 14-14 14-33 0-18-14-32l-728-727q-14-14-33-14t-32 14-13 32q0 20 13 32z m-338-211q14 0 19-12 5-11-4-22l-169-169q-8-6-14-6h-1q-8 0-14 6t-6 14v169q0 8 6 14t14 6h169v0z m-247 0q8 0 14-6t6-14v-169q0-8-6-14t-14-6h-169q-8 0-14 6t-6 14v169q0 8 6 14t14 6h169v0z m247 248q8 0 14-6t6-14v-169q0-8-6-14t-14-6h-169q-8 0-14 6t-6 14v169q0 8 6 14t14 6h169v0z m-247 0q8 0 14-6t6-14v-169q0-8-6-14t-14-6h-169q-8 0-14 6t-6 14v169q0 8 6 14t14 6h169v0z m664-445q6 0 11-4t4-11v-93q0-6-4-10t-11-5h-377q-11 0-14 10-2 4-1 9t4 7l95 93q6 4 11 4h282v0z m0-320q6 0 11-4t4-11v-96q0-6-4-11t-11-4h-405q-7 0-11 4t-4 11v96q0 6 4 11t11 4h405v0z m3 160q4 0 8-4t4-11v-93q0-6-4-10t-11-5h-405q-7 0-11 5t-4 10v93q0 6 5 11t12 4h406v0z" horiz-adv-x="1000" />
<glyph glyph-name="Eyeball" unicode="&#xe804;" d="m500 485q29 0 55-10t45-29 30-43 11-53-11-52-30-43-45-29-55-11-55 11-45 29-30 43-11 52 11 53 30 43 45 29 55 10z m0-346q46 0 86 17t70 45 48 67 17 82-17 83-48 67-70 45-86 16-86-16-70-45-47-67-18-83 18-82 47-67 70-45 86-17z m0 492q68 0 130-16t113-41 94-58 72-63 45-58 15-45-15-44-45-59-72-63-94-57-113-42-130-16q-69 0-130 16t-113 42-94 57-71 63-45 59-16 44 16 45 45 58 71 63 94 58 113 41 130 16z" horiz-adv-x="1000" />
<glyph glyph-name="ASL" unicode="&#xe805;" d="m528 432l-3 110q-1 26 18 43t43 17h2q25-1 43-19t16-44l-3-105-3-135q0-12-3-26t-9-25-16-19-26-8q-32 1-43 25t-12 55v10l-2 50z m-157 0l-10 106q-2 26 16 44t43 19q1 1 2 1 25 0 43-17t18-42l4-111 3-74 1-48q0-2 1-4t0-4q0-12-1-26t-7-25-15-20-26-9q-2 0-2 0t-3-1q-31 0-42 23t-13 52q0 2-1 4v1z m-159 51q-2 12 1 24t10 20 17 15 21 8h6q21 0 37-15t18-40l6-63 14-134v-2-1-2q3-26-4-46t-36-25q-2 0-3 0t-4-1q-14 0-23 7t-15 17-9 22-5 23l-29 181z m677 4q29 5 48-7t26-32-1-41-29-34q-51-29-87-72t-66-92-54-95-49-84q-11-23-32-39t-63-16h-331q-42 0-66 33t-33 77q-6 32-12 70t-12 79-14 83-14 79l-56 297q-2 8-1 18t3 18 11 16 19 9q26 5 39-10t18-32l50-173q-7-13-10-28t-2-32v-1-2l32-191q8-48 31-76t61-28h12q11 2 29 9t30 25q16-21 36-27t36-7h7q19 1 37 10t31 29q22-39 73-39 17 0 34 6t30 20 22 37 10 54l2 78q11-5 25 0t32 22q42 40 81 62t67 27z" horiz-adv-x="1000" />
<glyph glyph-name="Person" unicode="&#xe806;" d="m598 725q0-20-7-37t-20-29-30-20-37-8q-20 0-37 8t-29 20-20 29-8 37q0 19 8 37t20 30 29 20 37 7q39 0 67-27t27-67z m1-122q22 0 41-8t31-23 20-33 7-37v-269q0-14-9-21t-19-8-20 8-9 21v243 11q0 6-6 8t-11 1-10-2-6-7v-583q0-18-12-30t-31-11q-17 0-30 12t-13 30v227 130q0 9-7 12t-10 2q-4 0-12-2t-9-13l1-129v-227q0-17-13-30t-30-12q-18 0-30 11t-13 30l-1 583q0 5-5 7t-10 2-10-1-6-8v-11-243q0-14-9-21t-19-8-20 8-9 21v269q0 19 5 37t16 33 26 23 39 8h96 2 1 104v0z" horiz-adv-x="1000" />
<glyph glyph-name="QuestionMark" unicode="&#xe807;" d="m562-14q0 19-7 36t-20 30-30 20-36 7-36-7-29-20-20-30-7-36 7-36 20-30 29-20 36-7 36 7 30 20 20 30 7 36z m-86 134h-8q-32 4-52 29t-18 57q6 55 28 107t55 91q11 14 24 26t26 22q33 28 51 50t17 54q0 28-11 46t-28 29-35 15-32 4h-2q-28 0-46-7t-30-21-21-33-18-41q-12-31-29-43t-34-15q-19-4-39 3-20 8-32 23-11 13-17 34t4 50q6 19 21 55t46 69 78 59 120 24q48-1 95-17t83-49 60-78 23-107q0-44-12-78t-30-61-40-47-40-36q-10-9-19-16t-14-15q-18-22-30-51t-16-62q-3-31-25-50t-53-20z" horiz-adv-x="1000" />
<glyph glyph-name="Adult" unicode="&#xe808;" d="m500 446q-39 0-73 15t-60 40-40 60-15 73 15 73 40 60 60 40 73 15 73-15 60-40 40-60 15-73-15-73-40-60-60-40-73-15z m152-39q52 0 91-20t63-54 36-75 12-87v-273q0-16-16-16h-99q-16 0-16 16v238q0 7-5 15t-18 8-17-8-6-15v-238q0-7-5-12t-12-4h-331q-16 0-16 16v238q0 7-4 15t-19 8-18-8-5-15v-238q0-7-5-12t-12-4h-95q-17 0-17 16v273q0 44 12 87t37 75 63 54 91 20h159 152v0z" horiz-adv-x="1000" />
<glyph glyph-name="Child" unicode="&#xe809;" d="m393 606q0-2 0-3t-1-3q0-23 9-43t24-36 36-23 43-9 43 9 35 23 24 36 9 43v6h-222v0z m111-164q-41 0-76 16t-62 42-42 62-16 76 16 77 42 62 62 42 76 15q40 0 76-15t63-42 42-62 15-77-15-76-42-62-63-42-76-16z m148-32q88-1 126-44t38-144v-330q0-6-4-11t-9-4h-86q-5 0-9 4t-5 11v295q0 11-6 18t-17 7q-9 0-16-7t-7-18v-295q0-6-4-11t-10-4h-280q-6 0-10 4t-4 11v295q0 11-6 18t-17 7q-9 0-16-7t-7-18v-295q0-6-4-11t-10-4h-89q-5 0-9 4t-5 11v330q0 101 38 144t127 44h148 5 148v0z" horiz-adv-x="1000" />
<glyph glyph-name="Glasses" unicode="&#xe80a;" d="m905 323h-302l39-178h244z m-510 0h-302l19-178h244z m565 52q10-11 8-24l-26-240q-2-12-10-20t-20-8h-294q-11 0-19 7t-10 18l-47 209q-5 4-16 8t-29 3q-14 0-24-3t-17-6l-47-211q-2-11-10-18t-19-7h-294q-11 0-19 8t-10 20l-26 240q-2 14 7 24 1 1 7 5l12 7t12 6 6 3l301 153q11 6 23 2t16-16q5-12 2-24t-15-18l-214-97h619l-214 97q-11 5-15 18t1 24q5 11 17 15t23-1l310-156q2-1 15-7t16-11z" horiz-adv-x="1000" />
<glyph glyph-name="ClosedCaption" unicode="&#xe80b;" d="m850 234q4 7 1 17-3 6-12 12l-48 20q-8 5-17 0-9-4-12-12t-13-22-30-14q-27 0-44 29t-17 76q0 48 17 77t44 29q17 0 28-11t16-22q4-8 12-11t16 0l48 21q7 3 11 12 3 9 0 17-42 88-131 88-37 0-67-14t-51-41-34-63-12-82 12-81 34-63 51-40 67-15q89 0 131 93z m-407 0q3 8 0 17-3 7-11 12l-48 20q-9 5-17 0-9-3-12-12-3-8-13-22t-30-14q-27 0-44 29t-18 76q0 48 18 77t44 29q17 0 28-11t15-22q4-8 13-11t16 0l47 21q8 3 12 12 3 10-1 17-42 88-130 88-37 0-67-14t-51-41-34-63-12-82 12-81 34-63 51-40 67-15q89 0 131 93z m471 383q11-2 17-9t6-19v-241-15-241q0-11-6-18t-17-10l-408-82q-6-2-12 0l-408 82q-11 2-17 10t-6 18v241 15 241q0 11 6 19t17 9l408 82q6 1 12 0l408-82v0z" horiz-adv-x="1000" />
<glyph glyph-name="BlindWalking" unicode="&#xe80c;" d="m968-89q3-3 2-8t-5-6q-7-6-15 2l-367 483-99 19q-14 4-21 13l-42 53v-45-107l108-123q4-3 6-7t2-10l51-233q4-18-7-34t-30-19q-4-1-10-1-17 0-30 10t-17 26l-48 224-88 99-39-138q-2-5-3-9t-5-8l-130-167q-15-18-38-18-16 0-29 9-16 11-18 29t8 34l125 159 48 173q0 1 1 2t0 1l-1 145-26-35-10-103q-2-13-12-22t-24-9q-2 0-3 1-15 1-25 12t-8 25l12 111q0 9 6 17l100 135q11 18 32 28t44 5q15-3 26-11 10-5 14-10l109-137 106-21q15-3 23-14t6-26q-4-17-21-24l342-470v0z m-622 731q-19 4-34 15t-25 25-15 32 0 37 15 34 25 25 33 13 37 1q19-4 35-14t25-25 14-33 0-37-14-34-26-25-33-14-37 0z" horiz-adv-x="1000" />
<glyph glyph-name="FontSize" unicode="&#xe801;" d="m845 188q-14 23-35 30t-35 6q-29 0-46-19t-17-49 17-48 46-19q48 0 70 34v65 0z m-55 302q85 0 132-43t47-122v-304q0-6-4-10t-11-5h-94q-6 0-10 5t-5 10v9q-21-17-48-26t-56-9-56 11-49 31-35 50-13 70q0 41 14 72t35 50 49 29 55 9q62 0 104-33v29q0 69-72 69-56 0-102-47-6-6-13-4-8 2-11 8l-37 64q-5 10 3 18 34 34 79 52t98 17z m-483 7l-66-236h133z m275-465q2-6 2-8 0-7-4-11t-11-4h-1-117q-11 0-14 11l-33 116h-193l-33-116q-3-11-15-11h-116q-9 0-13 6-4 4-2 13l196 644q4 11 15 11h129q11 0 15-11l195-640v0z" horiz-adv-x="1000" />
<glyph glyph-name="iPhoneHomeKey" unicode="&#xe80e;" d="m685 502q0 14-10 25t-26 10h-303q-15 0-25-10t-11-25v-304q0-15 11-25t25-11h303q15 0 26 11t10 25v304z m-188 285q91 0 171-34t139-94 94-138 34-171-34-170-94-139-139-95-171-34q-90 0-170 34t-139 95-93 139-35 170 35 171 93 138 139 94 170 34z m101-319q8 0 13-5t5-13v-200q0-8-5-13t-13-5h-201q-8 0-13 5t-5 13v200q0 8 5 13t13 5h201v0z" horiz-adv-x="1000" />
<glyph glyph-name="W3CApproved" unicode="&#xe80f;" d="m846 325q2 8 0 12-2 6-8 8l-33 15q-6 3-12 0-7-3-8-9-2-5-9-15t-21-10q-19 0-31 21t-12 53 12 54 31 21q12 0 19-8t11-16q2-6 8-8t12 0l33 15q5 2 8 9 2 7-1 12-29 62-90 62-51 0-82-39t-32-102 32-101 82-39q61 0 91 65z m-318-65q42 0 68 24t26 61q0 20-8 35t-21 25q11 10 18 24t7 31q0 37-24 59t-66 21q-57 0-88-45-7-10 2-20l24-22q5-5 12-5 7 2 11 6 15 21 36 21 17 0 20-8t3-13q0-3-3-10t-22-8h-18q-8 0-12-4-5-5-5-11v-36q0-7 5-12 4-5 12-3h19q21 0 25-8t3-13q0-23-25-23-24 0-40 22-4 6-11 6-6 2-12-4l-25-25q-9-9-2-19 14-22 38-34t53-12z m-99 258q2 8-3 13-5 6-11 6h-44q-12 0-14-12l-21-107-22 107q-3 12-15 12h-32q-13 0-15-12l-22-107-21 107q-2 12-15 12h-43q-8 0-12-6t-3-13l55-242q3-12 15-12h42q12 0 15 12l20 100 20-100q2-12 15-12h42q12 0 15 12z m479 250q13 0 22-8t8-22v-628q0-9-5-17t-14-11l-406-155q-4-2-11-2t-11 2l-408 155q-9 3-14 11t-6 17v628q0 13 9 22t22 8h814v0z" horiz-adv-x="1000" />
<glyph glyph-name="CSSValidated" unicode="&#xe810;" d="m701 260q24 0 42 8t29 19 17 28 5 31q0 21-7 36t-18 26-25 17l-25 12q-16 7-24 12t-9 11q0 10 8 13t10 2q25 0 40-17 7-5 13-4 7 0 11 7l19 30q7 10-2 19-31 31-80 31-40 0-65-23t-26-60q0-21 7-35t18-24 24-16 25-12q18-8 27-14t8-14q0-17-23-17-27 0-46 21-4 5-12 5-9 0-12-7l-20-31q-6-10 1-19 35-35 90-35z m-201 0q24 0 42 8t30 19 17 28 5 31q0 21-7 36t-19 26-24 17-26 12q-15 7-24 12t-9 11q0 10 8 13t11 2q25 0 40-17 5-6 13-4 6 0 11 7l19 30q7 10-2 19-31 31-80 31-40 0-65-23t-26-60q0-21 7-35t18-24 24-16 24-12q19-8 28-14t8-14q0-17-23-17-28 0-46 21-4 5-13 5-8 0-11-7l-21-31q-6-11 2-19 33-35 89-35z m-113 65q3 6 0 12-2 6-8 8l-33 15q-6 3-12 0-7-3-8-9-2-5-9-15t-21-10q-19 0-31 21t-12 53 12 54 31 21q12 0 19-8t11-16q3-6 9-8t11 0l33 15q7 3 8 9 2 7-1 12-29 62-90 62-51 0-82-39t-32-102 32-101 82-39q61 0 91 65z m516 443q13 0 22-8t8-22v-628q0-9-5-17t-14-11l-406-155q-4-2-11-2t-11 2l-408 155q-9 3-14 11t-6 17v628q0 13 9 22t21 8h815v0z" horiz-adv-x="1000" />
<glyph glyph-name="Key" unicode="&#xe811;" d="m296 221q28 0 53 11t42 29 29 43 10 52-10 53-29 42-42 29-53 10-52-10-43-29-29-42-11-53 11-52 29-43 43-29 52-11z m611 198q21 0 36-15t15-38-15-37-36-16h-7v-165q0-21-15-36t-38-15-37 15-16 36v165h-50v-103q0-21-15-36t-38-15-37 15-16 36v103h-96q-8-44-30-82t-54-65-74-44-88-16q-52 0-97 20t-80 53-53 80-20 97 20 98 53 79 80 54 97 19q43 0 83-14t71-39 54-59 34-75h369v0z" horiz-adv-x="1000" />
<glyph glyph-name="HearingImpaired" unicode="&#xe812;" d="m942 788q15-15 15-36t-15-36l-124-125q-15-15-35-15-21 0-36 15t-15 36q0 22 15 36l124 125q14 14 36 14t35-14z m-619-552q14 14 36 14t35-14q15-15 15-36 0-23-15-36l-226-228q-15-15-35-15-21 0-36 15t-15 36q0 22 15 36l226 228v0z m218 166q0 26-18 45t-46 19q-26 0-45-19t-19-45q0-17-11-28t-27-11-27 11-11 28q0 29 11 55t30 45 45 30 54 11 55-11 44-30 30-45 11-55q0-17-11-28t-27-11-27 11-11 28z m-64 289q58 0 109-22t89-60 60-90 22-110q0-50-17-98-2-5-4-7-11-21-22-39-10-16-21-33t-22-30q-2-3-5-6t-6-7q-14-16-20-27t-6-38q2-54 1-79t-4-41q-9-52-45-80t-102-28h-2q-18 0-31 13t-14 32q-1 9 3 17t9 15q13 15 32 15 21 1 33 4t17 7 8 9 2 9l1 5q2 11 2 39t-1 61q-1 26 4 46t11 34 16 27 18 21q3 3 9 11 6 7 14 19t15 24 15 24 11 19q5 14 8 30t2 32q0 39-15 74t-40 61-60 40-74 15-73-15-60-40-41-61-15-74q0-19-13-32t-32-14-32 14-14 32q0 58 22 110t60 90 89 60 109 22z" horiz-adv-x="1000" />
<glyph glyph-name="Male" unicode="&#xe813;" d="m379 85q34 0 64 13t51 35 35 52 12 63q0 33-12 63t-35 51-51 35-64 13q-33 0-62-13t-52-35-35-51-13-63q0-34 13-63t35-52 52-35 62-13z m479 517l-1 1v-139q0-21-15-36t-37-15q-21 0-38 15-15 15-15 36v87l-149-149q23-33 36-72t12-82q0-56-21-105t-59-87-86-59-106-21-105 21-87 59-58 87-21 105 21 106 58 86 87 58 105 21q42 0 79-11t69-33l-1 1 152 151h-88q-22 0-36 16-8 7-11 17t-4 20q0 22 15 37 13 15 36 15h128 33 107v-130z" horiz-adv-x="1000" />
<glyph glyph-name="Female" unicode="&#xe814;" d="m335 496q0-33 13-62t34-50 50-34 61-13 62 13 51 34 34 50 12 62-12 62-34 51-51 34-62 12-61-12-50-34-34-51-13-62z m424 0q0-48-16-91t-46-78-68-59-85-33v-82h69q22 0 37-15t15-38-15-38-37-15h-69v-73q0-22-15-37-17-15-38-15t-38 15q-15 15-15 37v73h-65q-21 0-36 16t-16 37 15 38q15 15 37 15h65v83q-45 10-83 34t-67 58-44 77-16 91q0 55 21 104t57 84 84 57 103 21 104-21 84-57 57-84 21-104z" horiz-adv-x="1000" />
<glyph glyph-name="Globe" unicode="&#xe815;" d="m450 120q-78 7-139 27t-109 47-81 59-57 61q-1 5-1 11v10 2q26 2 68 8t88 18 97 32 92 51q9-4 19-6t20-3 22 3 20 8q30-31 70-61 26-20 54-33t56-22q11-28 35-43-29-72-81-127-11 8-25 13t-29 5q-31 0-54-17t-34-44h-15t-16 1z m-6-62q9-1 18-1t18-1q-77-41-142-52t-114-8q-50 41-86 94t-56 115q29-26 66-50t81-43 98-34 117-20z m125-66q34 0 60 22t32 54q85 17 146 48t102 66q-23-62-63-114t-94-91-118-58-134-21q-49 0-94 10t-87 29q45 6 96 22t104 47q23-14 50-14z m264 320q29 2 55 5t49 6q0-6 0-12t-1-14q-12-16-33-37t-52-44-72-44-93-35q26 31 46 66t33 71q21 2 39 12t29 26z m16 64q-2 22-13 40t-29 29q6 52 7 103t-4 95q51-51 83-116t41-140q-38-8-85-11z m-496 155q0-11 3-21t6-19q-36-24-77-40t-80-27-76-16-61-8q9 60 33 114t61 99 84 78 102 54q2-26 9-63t26-82q-14-13-22-31t-8-38z m187 0q0 17-6 34 48 57 73 106t33 78q56-19 101-49 7-51 9-113t-5-128q-26-3-47-19t-30-41q-19 7-36 16t-35 22q-19 14-35 28t-30 28q8 19 8 38z m-93 94q-4 0-6-1-20 47-25 83t-6 56q22 5 45 8t45 2q39 0 79-8-8-24-28-64t-58-88q-11 5-22 9t-24 3z" horiz-adv-x="1000" />
<glyph glyph-name="GuideDog" unicode="&#xe816;" d="m541 477q6 0 12 3 8 5 10 15t-3 18l-106 167q-5 8-14 10t-18-3-10-15 3-18l106-166q6-11 20-11z m425-20q6-9 4-20-2-9-12-21t-37-26q-26 2-49 6t-42 6q-21 4-39 8-2-10-5-21t-9-23q-46 9-79 27t-56 35-35 34-16 20l128 131 23 83 49-60q23-5 38-9t24-7q11-4 16-7 11-7 17-22t10-31 7-31 8-20q11-11 24-20t31-32z m-477-170q-4-77-3-108-13 1-28 3t-28 4-23 3-13 1q-26 3-19-23l42-169q4-17-5-32t-27-19q-2 0-5-1t-5 0q-15 0-26 9t-16 23l-54 212q-2 11-12 11t-14-11l-50-211q-4-15-16-24t-26-9q-7 0-10 1-18 5-27 19t-6 32l61 250 5 151q-38 9-65 25t-45 33-26 28-10 14q-6 11-2 23t14 17 23 3 19-14q0-1 5-7t14-16 23-19 34-19q5-2 12-3 12-3 34-3h298q-10-43-15-89t-8-85z m70 157q9-12 25-29t41-35 58-34 77-25q-4-11-7-21t-9-20q-3-8-7-21t2-40q3-13 11-41 6-24 18-67t30-112q5-17-4-32t-27-19q-3-1-5-2t-6 0q-14 0-26 9t-16 23l-43 164q-5 9-10 12t-13 4q-8 2-15-1t-10-15l-39-163q-4-15-16-24t-26-9q-2 0-5 0t-5 1q-17 5-27 19t-5 32l37 152q1 8-1 16 0 15 1 47t2 70 7 82 13 79z" horiz-adv-x="1000" />
<glyph glyph-name="UniversalAccess" unicode="&#xe817;" d="m500-119q-97 0-182 37t-149 101-101 149-37 182 37 182 101 149 149 101 182 37 182-37 149-101 101-149 37-182-37-182-101-149-149-101-182-37z m0 875q-84 0-158-32t-129-87-87-129-32-158 32-158 87-129 129-87 158-32 158 32 129 87 87 129 32 158-32 158-87 129-129 87-158 32z m69-123q0 29-20 49t-49 20-48-20-20-49 20-49 48-20 49 20 20 49z m183-237l-99 86q-5 5-11 11t-14 12q-10 9-18 17t-14 11q-11 8-20 11t-24 2h-104q-14 0-23-2t-21-10q-5-4-13-12t-19-17q-7-6-13-12t-12-11l-99-86q-9-8-11-21 0-13 8-23 8-9 22-10t22 7q4 3 18 16t32 28 37 31 32 27q9 8 15 8t5-15v-58q0-37-2-57t-3-23l-45-257q-3-17 6-29 8-13 25-16 16-3 29 7t16 24l3 15t6 36 8 48 8 48 8 41l4 22q1 4 1 7t1 5q2 11 7 11t7-11q1-3 1-5t1-7l5-22t7-41 9-48 8-48 6-36l2-15q2-14 13-23t25-9q5 0 7 1 17 3 25 16 9 12 6 29l-45 256q0 3-2 24t-3 57l-1 59q0 14 6 14t15-8v1q13-12 32-28t37-31 32-28 18-16q9-8 23-7t21 10 8 23-11 21z" horiz-adv-x="1000" />
<glyph glyph-name="Elevator" unicode="&#xe818;" d="m882 639q-7 7-20 7-11 0-19-8t-8-19 7-19l60-58q10-8 20-8 11 0 20 9 8 8 8 19t-8 19z m-42-38q8 8 8 19t-8 19-20 8-20-8l-61-58q-8-8-8-19 2-12 9-19 8-8 20-8t19 7z m30-200h-57v222h57v-222z m-82 226l53 51 49-47z m12-566q7-7 19-7t20 8 9 19-8 19l-61 58q-8 8-19 8-14-2-20-9-7-7-9-19 0-11 8-19z m42 38q-8-7-8-19 0-11 8-19t20-8 19 8l61 58q8 8 8 19t-8 19-20 8-19-7z m-30 200h57v-222h-57v222z m82-226l-53-51-50 47z m-253 555v-556h-533v556h533v0z m19 50h-571q-13 0-22-8t-9-22v-596q0-13 9-21t22-9h571q13 0 22 9t9 21v596q0 13-9 22t-22 8z m-352-196h-54-1-50q-23 0-33-16t-11-36v-138q0-8 5-11t10-4 11 4 4 11v124 6q0 3 3 4t5 1 5-1 3-4v-299q0-9 7-15t15-6 16 6 6 15v117 66q0 5 4 7t6 1 6-1 3-7v-66-117q0-9 7-15t15-6q10 0 16 6t6 15l1 299q0 3 3 4t5 1 5-1 3-4v-6-124q0-8 5-11t10-4 10 4 4 11v138q0 20-13 36t-37 16z m-1 62q0 20-14 34t-34 14-34-14-14-34 14-34 34-14 34 14 14 34z m231-62h-53-1-1-49q-23 0-34-16t-11-36v-138q0-8 5-11t10-4 11 4 4 11v124 6q0 3 3 4t5 1 5-1 3-4v-299q0-9 7-15t15-6 16 6 6 15v117 66q0 5 4 7t6 1 6-1 4-7v-66-117q0-9 6-15t16-6q9 0 16 6t6 15v299q0 3 3 4t5 1 5-1 3-4v-6-124q0-8 5-11t10-4 11 4 4 11v138q0 20-14 36t-37 16z m-1 62q0 20-14 34t-34 14-34-14-14-34 14-34 34-14 34 14 14 34z" horiz-adv-x="1000" />
<glyph glyph-name="Braille" unicode="&#xe80d;" d="m771 675q0-22-8-41t-23-35-33-23-42-9-41 9-34 23-23 35-9 41 9 42 23 35 34 24 41 8 42-8 33-24 23-35 8-42z m0-329q0-23-8-42t-23-34-33-23-42-9-41 9-34 23-23 34-9 42q0 22 9 42t23 35 34 23 41 8 42-8 33-23 23-35 8-42z m-3-329q0-22-8-41t-22-33-33-22-40-8-40 8-33 22-22 33-8 41q0 21 8 40t22 34 33 22 40 8 40-8 33-22 22-34 8-40z m-346 658q0-22-8-41t-23-35-33-23-42-9-41 9-34 23-23 35-9 41 9 42 23 35 34 24 41 8 42-8 33-24 23-35 8-42z m0-329q0-23-8-42t-23-34-33-23-42-9-41 9-34 23-23 34-9 42q0 22 9 42t23 35 34 23 41 8 42-8 33-23 23-35 8-42z m0-329q0-23-8-43t-23-34-33-23-42-8-41 8-34 23-23 34-9 43q0 22 9 42t23 35 34 23 41 8 42-8 33-23 23-35 8-42z" horiz-adv-x="1000" />
</font>
</defs>
</svg>
