<?xml version="1.0" standalone="no"?>
<!DOCTYPE svg PUBLIC "-//W3C//DTD SVG 1.1//EN" "http://www.w3.org/Graphics/SVG/1.1/DTD/svg11.dtd">
<svg xmlns="http://www.w3.org/2000/svg">
<metadata>Copyright (C) 2014 by original authors @ fontello.com</metadata>
<defs>
<font id="fontello" horiz-adv-x="1000" >
<font-face font-family="fontello" font-weight="400" font-stretch="normal" units-per-em="1000" ascent="850" descent="-150" />
<missing-glyph horiz-adv-x="1000" />
<glyph glyph-name="approve3" unicode="&#xe800;" d="m1270 782l-37 37c-42 41-109 41-151 0l-637-638-226 227c-42 41-109 41-151-1l-37-37c-41-41-41-109 0-150l339-339c41-41 108-41 150 0l750 750c41 42 41 109 0 151z" horiz-adv-x="1300.8" />
<glyph glyph-name="world8" unicode="&#xe83b;" d="m500 850c-276 0-500-224-500-500s224-500 500-500 500 224 500 500-224 500-500 500z m142-315c3-10 9-20 18-32l4-5c2-2 4-5 6-7-6 1-13 3-22 5l-13 38c3 1 5 1 7 1z m-47-9l13-21-1 0-6-5c-4-3-36-2-47 3 0 1-1 4-1 6l6-4 8 1c14 3 23 12 28 20z m-95-622c-104 0-203 36-282 102 4 2 7 5 9 6l10 9-9 28 13 42 2 7c0 16-7 35-24 39-2 0-7 8-10 11-9 6-15 15-24 15 0 0 0 0 0 0-1 0-6-2-8-1-3 2-6 1-9 3-2 1-5 1-5 1-3 4-7 11-11 21-3 9-6 13-20 29-10 11-12 13-21 18l-4 1c-3 2-6 4-8 6-4 2-9 6-16 9-5 2-7 3-13 8-2 2-4 4-7 6-6 28-8 57-8 86l0 6c4 11 8 30 6 40 0 3 2 11 3 15 1 8 3 16 2 20 1 4 7 13 10 18 5 6 8 12 10 16 2 4 11 18 16 27l10 15c2 3 8 12 6 22 10 8 24 17 26 19 2 2 20 22 1 56 0 1 7 2 6 3 2 3 11 7 11 14v1c0 12 5 22 16 22h7c2 0 4 7 7 7l16-3 34 14 3 7c0 0 4 7 12 13 11 8 14 13 19 21l-16 12 19-8c2 2 7 17 18 29 14 15 22 28 21 28h8l6-3c2 2 9 5 15 13 77 28 162 31 243 15-11 0-21-5-36-12-4-2-7-4-9-5-3-1-9-3-14-6-3-1-10-4-10-4-14 0-26-11-35-24-12-21-9-34-5-40l7-14h6c-7 0-14-11-18-14l-21 25-19 40-33-29v-15l-21 7-20-43 29-41 12 10v-2l19 4c-1-4-2-9 0-13l-55-13 5-20c1-4 1-10 1-14-8-30-1-39 2-43l5-5c-7-7-12-15-14-19-3-3-9-10-10-19-2-3-6-6-9-8l-3-2c-13-8-26-17-32-27-8-13-13-24-14-34-2-11-2-19-2-31 0-4-1-7-1-11 0-6-1-13 1-22 3-19 29-54 30-54 8-11 18-22 29-29 6-3 14-10 17-12 7-9 25-17 42-10 5 2 10 3 14 4 9 2 19 4 28 9 3 1 5 3 7 3 7-12 22-18 38-13l0 0c1-3 1-6 2-9 0-3 1-5 1-10 0-6-1-19 9-30 2-2 5-4 9-7 1-1 3-3 5-4 0-9 2-23 7-32 2-4 3-7 3-6-4-7-11-28-12-30-4-21-2-29-1-32 3-10 9-19 19-28 1-1 1-3 2-7 2-5 3-11 8-17 2-2 6-13 8-19l2-14 0-39 23 4c0 0 38 5 45 7 9 2 37 15 48 26 5 5 8 10 9 13 2 3 2 3 3 4 9 7 24 19 24 19l9 7-2 29 14 19 13 13c-3-7-7-16-8-21-3-10-1-21 7-31l8-6h10l7-2c8 2 14 6 20 11 1 2 3 3 4 4 11 7 22 25 24 35l7 26c2 8 4 23 4 31 0 7-2 15-2 16l-13 51-35-66c-5-2-9-5-12-7 0 3 0 5-1 7 0 3-2 19-4 33 3 5 6 11 8 14 3 4 5 8 6 12 2 4 3 6 6 9 11 8 18 18 23 26l5 5c5 8 14 20 17 24 5 8 9 21 10 28l6 29-24-4c3 1 6 3 8 4 1 1 4 2 6 4 11 6 19 11 25 16l10 8c10 6 21 14 23 27 2-1 4-3 7-4 2-1 6-6 9-10 2-6 9-21 10-26 1-3 3-10 6-17 3-5 5-10 5-11 0-4 3-18 10-26-30-217-216-385-441-385z m6 640c0 0 0 0 0 0-2 0-8 2-13 4l-4 2-5-1c-2 0-4 0-7-1 0 1 1 1 1 1 1 2 3 4 8 6 10 3 15 8 17 10 3 1 10 3 15 4l9-6c2-3 6-6 11-9l-32-10 0 0z" horiz-adv-x="1000" />
<glyph glyph-name="arrow128" unicode="&#xe802;" d="m1563 752l-54 54c-58 59-155 59-214 0l-491-491-492 491c-58 59-155 59-214 0l-54-54c-59-59-59-156 0-215l644-643c32-32 74-46 116-44 41-2 84 12 115 44l644 643c59 59 59 156 0 215z" horiz-adv-x="1607.4" />
<glyph glyph-name="arrow132" unicode="&#xe803;" d="m1392 741l-41 42c-43 43-100 67-161 67s-119-24-162-67l-298-298-299 298c-43 43-100 67-161 67s-119-24-162-67l-41-41c-89-89-89-234 0-323l494-499c43-43 101-70 162-70 2 0 4 0 7 0s4 0 6 0c62 0 119 27 162 70l494 497c90 89 90 235 0 324z m-79-243l-494-495c-23-22-53-33-83-33-2 0-4 0-6 0-3 0-5 0-7 0-30 0-60 11-82 33l-495 495c-45 45-45 120 0 165l41 41c23 23 53 34 83 34 30 0 59-11 82-34l378-377 377 377c23 23 53 34 83 34 29 0 59-11 82-34l41-41c46-46 46-120 0-165z" horiz-adv-x="1459" />
<glyph glyph-name="arrow133" unicode="&#xe804;" d="m289 350l306 306c36 36 36 96 0 133l-34 34c-37 36-97 36-133 0l-401-401c-19-20-28-46-27-72-1-26 8-52 27-72l401-400c36-37 96-37 133 0l34 33c36 37 36 97 0 133l-306 306z" horiz-adv-x="623" />
<glyph glyph-name="arrow137" unicode="&#xe805;" d="m1392 281l-483 497c-43 43-95 68-151 68v4c0 0-26 0-28 0-3 0-5 0-7 0-61 0-119-27-162-70l-494-497c-89-89-89-235 0-324l41-42c43-43 100-67 162-67s118 24 161 67l299 298 298-298c43-43 100-67 162-67s118 24 161 67l41 41c90 89 90 234 0 323z m-79-244l-41-41c-23-23-53-34-82-34s-60 11-83 34l-377 377-378-377c-22-23-52-34-82-34-30 0-60 11-83 34l-41 41c-45 46-45 120 0 165l495 495c22 22 52 33 82 33 2 0 4 0 7 0 2 0 4 0 6 0 30 0 60-11 83-33l494-495c46-45 46-119 0-165z" horiz-adv-x="1459" />
<glyph glyph-name="arrow138" unicode="&#xe806;" d="m635 465l-339 339c-30 30-69 46-111 46-42 0-81-16-111-46l-28-28c-30-29-46-69-46-111s16-81 46-111l204-204-204-204c-30-30-46-69-46-111s16-82 46-111l28-28c30-30 69-46 111-46s81 16 111 46l339 339c30 30 46 72 45 115 1 43-15 85-45 115z m-55-176l-339-339c-15-16-36-23-56-23s-41 7-57 23l-28 28c-31 31-31 82 0 113l259 259-259 259c-31 31-31 82 0 113l28 28c16 16 36 23 57 23 20 0 41-7 56-23l339-339c17-17 24-39 23-61 1-22-6-44-23-61z" horiz-adv-x="679.7" />
<glyph glyph-name="black87" unicode="&#xe807;" d="m113 791l515-408c23-18 55-26 86-25 31-1 64 7 87 25l515 408c41 32 31 59-21 59h-581-580c-53 0-62-27-21-59z m1240-108l-563-426c-21-16-48-24-76-24-27 0-55 8-76 24l-562 426c-42 32-76 15-76-37v-701c0-52 43-95 95-95h619 619c53 0 96 43 96 95v701c0 52-35 69-76 37z" horiz-adv-x="1427.7" />
<glyph glyph-name="cart4" unicode="&#xe808;" d="m1085 197l146 437c7 21 2 33-4 42-15 21-46 21-52 21l-825 0-22 105c-6 25-24 48-59 48h-232c-24 0-37-11-37-34v-60c0-22 13-27 38-27h196l149-636c-23-25-36-62-36-97 0-75 60-144 136-144 73 0 127 67 136 108h292c9-41 53-110 135-110 76 0 137 65 137 141 0 75-46 141-136 141-38 0-82-20-103-51h-358c-26 41-62 53-98 55l-5 26h546c41 0 49 15 56 35z m-38-153c29 0 52-23 52-52 0-28-23-51-52-51s-51 23-51 51c0 29 23 52 51 52z m-513-52c0-28-23-52-52-52-28 0-52 24-52 52s24 52 52 52c29 0 52-23 52-52z" horiz-adv-x="1234.4" />
<glyph glyph-name="chains" unicode="&#xe809;" d="m941 787l-3 4c-39 38-89 59-143 59s-105-21-143-59l-191-191c-41-41-61-96-58-152-4 0-7 0-11 0-54 0-104-21-142-59l-191-191c-38-38-59-89-59-143 0-54 21-104 59-142l4-4c38-38 88-59 142-59 54 0 105 21 143 59l191 191c41 41 61 96 59 153 3-1 6-1 10-1 54 0 104 21 142 59l191 191c38 38 59 89 59 143 0 54-21 104-59 142z m-45-240l-191-191c-27-26-62-40-97-40-16 0-33 3-48 9l-35-35c18-49 8-105-31-145l-191-191c-27-26-62-40-98-40-35 0-70 14-97 40l-4 4c-53 54-53 141 0 195l191 191c27 26 62 40 97 40 16 0 33-3 48-9l35 35c-18 49-8 106 31 145l191 191c27 26 62 40 98 40s70-14 97-40l4-4c53-54 53-141 0-195z m-577-378c-18 19-22 46-12 68l-134-134c-20-21-20-55 0-76l4-4c10-10 24-15 38-15 14 0 27 5 38 15l134 134c-8-3-17-5-25-5-16 0-31 6-43 17z m504 508c-10 10-24 15-38 15s-27-5-38-15l-132-133c8 4 16 5 25 5 15 0 30-5 42-17 18-18 22-45 12-67l133 132c20 21 20 55 0 76l-4 4z" horiz-adv-x="1000" />
<glyph glyph-name="checked10" unicode="&#xe80a;" d="m1208 770l-32 32c-31 31-72 48-116 48-44 0-86-17-117-48l-490-490-140 140c-31 31-72 48-116 48-45 0-86-17-117-48l-32-32c-64-65-64-169 0-233l288-289c31-31 73-48 117-48 44 0 85 17 116 48l639 639c64 64 64 169 0 233z m-52-180l-639-639c-18-18-41-27-64-27-23 0-46 9-64 27l-288 288c-35 35-35 93 0 128l32 32c17 17 40 26 64 26s46-9 63-26l193-193 543 543c17 18 41 27 64 27 23 0 46-9 64-27l32-32c35-35 35-92 0-127z" horiz-adv-x="1255.9" />
<glyph glyph-name="chevron12" unicode="&#xe80b;" d="m430 350l204 204c30 30 46 69 46 111s-16 82-46 111l-28 28c-29 30-69 46-111 46s-81-16-110-46l-339-339c-31-30-47-72-46-115-1-43 15-85 46-115l339-339c29-30 68-46 110-46s82 16 111 46l28 28c30 29 46 69 46 111s-16 81-46 111l-204 204z m150-372l-28-28c-16-15-36-23-57-23s-41 8-56 23l-339 339c-17 17-24 39-23 61-1 22 6 44 23 61l339 339c15 16 36 23 56 23s41-7 57-23l28-28c31-31 31-82 0-113l-259-259 259-259c31-31 31-82 0-113z" horiz-adv-x="679.7" />
<glyph glyph-name="close15" unicode="&#xe80c;" d="m688 350l281 281c41 42 41 109 0 151l-37 37c-42 41-109 41-151 0l-281-281-281 281c-42 41-109 41-150 0l-38-37c-41-42-41-109 0-151l281-281-281-281c-41-42-41-109 0-151l38-37c41-41 108-41 150 0l281 281 281-281c42-41 109-41 151 0l37 37c41 42 41 109 0 151l-281 281z" horiz-adv-x="1000" />
<glyph glyph-name="close16" unicode="&#xe80d;" d="m764 350l188 189c64 63 64 167 0 231l-32 32c-31 31-72 48-116 48-43 0-85-17-115-48l-189-188-188 188c-31 31-72 48-116 48-44 0-85-17-116-48l-32-32c-64-64-64-168 0-231l188-189-188-188c-64-64-64-168 0-232l32-32c31-31 72-48 116-48 44 0 85 17 116 48l188 188 189-188c30-31 72-48 115-48s85 17 116 48l32 32c64 64 64 168 0 232l-188 188z m136-368l-32-32c-17-18-40-27-64-27-23 0-46 9-64 27l-240 240-240-240c-18-18-41-27-64-27-23 0-47 9-64 27l-32 32c-36 35-36 93 0 128l240 240-240 240c-36 36-36 93 0 128l32 32c17 18 41 27 64 27 23 0 46-9 64-27l240-240 240 240c18 18 41 27 64 27 24 0 47-9 64-27l32-32c36-35 36-92 0-128l-240-240 240-240c36-35 36-93 0-128z" horiz-adv-x="1000" />
<glyph glyph-name="cloud43" unicode="&#xe80e;" d="m1395 406c-3 44-12 88-28 131-89 246-361 374-607 285-149-54-254-174-295-315-28 6-58 9-89 9-208 0-376-149-376-334 0-171 141-312 335-331v1h1037v-2c168 15 283 134 283 280 0 137-112 252-260 276z" horiz-adv-x="1654.3" />
<glyph glyph-name="comment21" unicode="&#xe80f;" d="m1032 14l-61 167c19 54 29 111 29 169 0 276-224 500-500 500-276 0-500-224-500-500s224-500 500-500c100 0 198 30 280 86l123-48c16-6 32-9 46-9 31 0 58 13 75 37 11 16 26 49 8 98z m-83-67c-6 0-13 1-21 4l-158 62c-74-59-168-95-270-95-239 0-432 193-432 432 0 239 193 432 432 432 239 0 432-193 432-432 0-60-12-116-34-168l70-192c10-27 2-43-19-43z m-302 403c0 42 15 57 47 57 6 0 21-15 21-57 0 5-15-11-21-11-32 0-47 16-47 11z m-204 0c0 42 15 57 46 57 6 0 22-15 22-57 0 5-16-11-22-11-31 0-46 16-46 11z m-205 0c0 42 16 57 47 57 6 0 21-15 21-57 0 5-15-11-21-11-31 0-47 16-47 11z" horiz-adv-x="1041" />
<glyph glyph-name="contacts3" unicode="&#xe810;" d="m698 371c-44-100-140-184-233-184-114 0-196 83-240 183-256-132-224-468-224-468 0-45 36-52 79-52h385 384c42 0 79 7 79 52 0 0 25 337-230 469z m-233-130c128 0 230 183 230 335s-104 274-232 274-232-123-232-274c0-152 106-335 234-335z" horiz-adv-x="927.7" />
<glyph glyph-name="eye24" unicode="&#xe811;" d="m1625 528c-96 77-385 322-763 322 0 0-1 0-2 0h-1c0 0-2 0-3 0-378 0-667-245-762-322-76-62-93-127-94-170-1-60 23-113 71-157 132-128 411-346 782-350 2 0 4-1 5-1 2 0 4 0 5 0 372 0 652 221 787 351 46 42 70 97 68 157-1 61-34 122-93 170z m-49-250c-119-115-402-319-718-321-315 2-597 206-716 321-22 20-37 44-37 77 1 47 49 86 56 91 145 119 390 299 697 299 1 0 1 0 1 0 1 0 1 0 1 0 308 0 553-180 698-299 7-5 54-43 55-90 0-32-15-58-37-78z m-717 373c-166-1-301-136-301-302 0-167 135-302 301-303 167 1 301 136 301 303 0 166-134 301-301 302z m-1-487c-80 2-176 82-176 180 0 99 96 190 176 193 81-3 177-88 177-187 0-98-96-184-177-186z" horiz-adv-x="1718.8" />
<glyph glyph-name="flat1" unicode="&#xe812;" d="m1063 850h-1024c-22 0-39-19-39-41v-815c0-22 17-41 39-41h326v-33c0-39 30-70 68-70h243c38 0 69 31 69 70v33h318c23 0 40 19 40 41v815c0 22-17 41-40 41z m-506-837c-27 0-49 22-49 49 0 27 22 49 49 49 27 0 49-22 49-49 0-27-22-49-49-49z m448 193h-907v556h907v-556z" horiz-adv-x="1103.5" />
<glyph glyph-name="flat2" unicode="&#xe813;" d="m1025 850h-955c-38 0-70-32-70-72v-759c0-40 32-73 70-73h270c1-53 45-96 98-96h226c53 0 97 43 98 96h263c40 0 71 33 71 73v759c0 40-31 72-71 72z m4-832c0-2-2-4-4-4h-330v-65c0-17-14-32-31-32h-226c-17 0-31 14-31 32v65h-337c-1 0-2 2-2 4v760c0 2 1 5 2 5h955c2 0 4-3 4-5v-760z m-476 143c-43 0-79-36-79-79s36-80 79-80c44 0 80 36 80 80s-36 79-80 79z m0-124c-24 0-44 20-44 45 0 24 20 45 44 45 25 0 45-21 45-45 0-26-19-45-45-45z m-438 174h867v528h-867v-528z m44 489h778v-451h-778v451z" horiz-adv-x="1095.7" />
<glyph glyph-name="folder39" unicode="&#xe814;" d="m1317 730c-9 67-67 120-137 120h-472c-90 0-133-58-179-120h-378c-83 0-151-68-151-151v-578c0-83 68-151 151-151h1156c83 0 150 68 150 151v578c0 80-62 146-140 151z m49-729c0-33-27-59-59-59h-1156c-33 0-59 26-59 59v578c0 32 27 59 59 59h424l28 37c43 59 63 83 105 83h472c26 0 46-20 46-45v-75h81c32 0 59-26 59-59v-578z" horiz-adv-x="1457" />
<glyph glyph-name="folder40" unicode="&#xe815;" d="m1388 718h-38v32c0 55-46 100-101 100h-520c-81 0-115-56-172-132h-441c-64 0-116-53-116-116v-636c0-64 52-116 116-116h1272c64 0 116 52 116 116v636c0 63-52 116-116 116z" horiz-adv-x="1503.9" />
<glyph glyph-name="heart33" unicode="&#xe816;" d="m758 850c-100 0-190-52-232-134-42 82-133 134-232 134-156 0-365-126-270-468 109-335 502-532 502-532 0 0 393 197 502 532 95 342-114 468-270 468z" horiz-adv-x="1052.7" />
<glyph glyph-name="heart34" unicode="&#xe817;" d="m978 726c-59 78-155 124-258 124-74 0-145-27-198-72-53 45-124 72-198 72-103 0-199-46-258-124-48-64-95-180-43-368l0-2 1-1c43-133 135-256 273-369 1-1 173-136 225-136 53 0 224 135 226 136 138 113 230 237 272 369l1 1 0 2c53 188 6 304-43 368z m-27-349c-93-286-428-454-429-454s-336 168-429 454c-81 293 98 400 231 400 85 0 163-45 198-114 36 69 113 114 198 114 133 0 312-107 231-400z" horiz-adv-x="1044.9" />
<glyph glyph-name="image33" unicode="&#xe818;" d="m975 850h-937c-21 0-38-17-38-38v-924c0-21 17-38 38-38h937c21 0 38 17 38 38v924c0 21-17 38-38 38z m-70-757h-808v654h808v-654z m-794 487c0 73 49 123 141 123 30 0 79-50 79-123 0-49-49-98-79-98-92 0-141 49-141 98z m163-266l-105-124c-26-31-15-56 26-56h603c40 0 57 28 38 64l-182 325c-20 35-54 36-75 2l-106-169c-21-34-64-45-95-24-31 21-78 13-104-18z" horiz-adv-x="1013.7" />
<glyph glyph-name="internet8" unicode="&#xe819;" d="m1343 444c-4 32-12 62-23 93-68 187-247 313-447 313-55 0-109-10-161-28-128-47-230-147-280-272-15 1-30 2-45 2-213 0-387-157-387-349 0-181 145-328 346-347l56-5v5h822v-6l56 5c174 15 300 142 300 301 0 134-97 250-237 288z m-56-485h-936l-5 0c-142 18-243 119-243 244 0 136 127 246 284 246 23 0 46-2 69-7l47-10 13 46c33 114 119 206 231 247 41 15 83 22 126 22 156 0 297-98 350-245 12-34 20-69 22-103l3-41 40-6c110-19 189-101 189-196 0-102-77-181-190-197z" horiz-adv-x="1580.1" />
<glyph glyph-name="key22" unicode="&#xe81a;" d="m1563 163l-643 643c-32 32-75 46-116 44-42 2-84-12-116-44l-644-643c-59-59-59-156 0-215l54-54c59-59 156-59 215 0l491 492 491-492c59-59 156-59 214 0l54 54c59 59 59 156 0 215z" horiz-adv-x="1607.4" />
<glyph glyph-name="links3" unicode="&#xe81b;" d="m954 800l-4 4c-62 61-162 61-224 0l-219-219c-45-45-56-110-36-166l-40-40c-56 20-121 9-166-36l-219-219c-61-62-61-162 0-224l4-4c62-61 162-61 224 0l219 219c45 45 56 110 36 166l40 40c56-20 121-9 166 36l219 219c61 62 61 162 0 224z m-738-825c-24-24-63-24-87 0l-4 4c-24 24-24 64 0 87l154 154c-11-25-7-56 14-77 21-21 52-25 77-14l-154-154z m659 659l-152-152c11 25 7 56-14 77s-52 25-77 14l152 152c24 24 63 24 87 0l4-4c24-24 24-63 0-87z" horiz-adv-x="1000" />
<glyph glyph-name="list20" unicode="&#xe81c;" d="m817 753c0 54-43 97-97 97h-623c-53 0-97-43-97-97v-92c0-54 44-97 97-97h623c54 0 97 43 97 97l0 92 0 0z m-81-95l0 0c0-9-7-16-16-16h-623c-9 0-16 7-16 16v93c0 9 7 16 16 16h623c9 0 16-7 16-16v-93z m-16-522h-623c-53 0-97-43-97-97v-92c0-54 44-97 97-97h623c54 0 97 43 97 97v92h0c0 54-43 97-97 97z m16-189l0 0c0-9-7-16-16-16h-623c-9 0-16 7-16 16v92c0 9 7 17 16 17h623c9 0 16-8 16-17v-92z m-16 538h-623c-53 0-97-44-97-97v-92c0-54 44-97 97-97h623c54 0 97 43 97 97v92h0c0 53-43 97-97 97z m16-189l0 0c0-9-7-17-16-17h-623c-9 0-16 8-16 17v92c0 9 7 16 16 16h623c9 0 16-7 16-16v-92z" horiz-adv-x="816.4" />
<glyph glyph-name="magnification2" unicode="&#xe81d;" d="m521 433c61 107 46 244-45 335-109 109-285 109-394 0-109-109-109-285 0-394 89-90 224-105 330-48l157-157 108 108-156 156z m-108 4c-74-74-194-74-268 0-74 74-74 194 0 268 74 74 194 74 268 0 74-74 74-194 0-268z m568-404l-201 201c-16 17-43 17-60 0l-111-111c-17-17-17-43 0-60l201-201c16-16 43-16 59 0l112 112c16 16 16 43 0 59z" horiz-adv-x="992.2" />
<glyph glyph-name="arrow123" unicode="&#xe801;" d="m989 379l-4 60-43-1c5 11 7 22 7 35v277c1 27-9 52-27 71-17 19-41 29-66 29-18 0-45-5-71-31l-44-44c-75 43-159 66-247 66-132 0-256-52-349-145-193-193-193-508 0-701 93-93 218-145 350-145 133 0 257 51 351 145 100 101 153 241 143 384z m-189-339c-84-84-194-126-305-126-110 0-221 42-305 126-169 169-169 442 0 611 84 84 194 126 304 126 90 0 180-28 255-83 33 33 81 80 81 80 9 9 18 12 26 12 17 0 31-17 30-35v-278c0-11-9-20-20-20h-281c-21 1-53 23-22 57 0 0 45 44 82 81-46 28-98 42-150 42-74 0-147-28-203-84-113-112-113-295 0-407 56-56 130-84 203-84s148 28 204 84c63 63 90 149 82 231 48 1 96 1 144 2 9-120-33-243-125-335z m-307 408c18-40 59-58 92-58h131l2-23c7-67-17-133-64-180-43-42-99-66-159-66-60 0-116 24-158 66s-66 99-66 158c0 60 23 117 66 159 42 42 98 65 158 65 12 0 24 0 35-2-7-8-12-12-12-12l0-1-1-1c-30-31-38-70-24-105z" horiz-adv-x="990.2" />
<glyph glyph-name="mail18" unicode="&#xe81f;" d="m1279 719c8 26 3 48-1 60-7 22-34 71-118 71h-482-482c-84 0-111-49-118-71-4-12-9-34-2-60-21-8-39-22-52-40-16-23-24-51-24-83v-581c0-91 73-165 164-165h514 514c91 0 163 74 163 165v581c0 66-34 107-76 123z m-1083 48h482 482c44 0 51-23 17-50l-173-137-286-218c-12-7-22-18-40-18-20 0-24 8-40 18l-285 217-174 138c-34 27-27 50 17 50z m996-831h-514-514c-44 0-78 35-78 79v581c0 29 12 45 30 45 9 0 20-4 32-13l153-116 314-239c25-21 63-20 63-20 0 0 38-1 63 20l315 239 152 116c12 9 23 13 33 13 18 0 31-16 31-45v-581h0c0-44-36-79-80-79z" horiz-adv-x="1355.5" />
<glyph glyph-name="map3" unicode="&#xe820;" d="m799 451c0 220-179 399-400 399-220 0-399-179-399-399 0-40 6-78 17-114 56-230 384-487 384-487s370 290 392 530l-1 0c4 23 7 47 7 71z m-394-89c-90 0-164 73-164 163 0 90 74 164 164 164 90 0 163-74 163-164 0-90-73-163-163-163z" horiz-adv-x="798.8" />
<glyph glyph-name="mechanic2" unicode="&#xe821;" d="m904 213c-22 12-33 56-25 96 0 0 0 0 0 39 0 41 0 43 0 43-9 41 2 85 24 98 22 13 23 53 2 90l-22 39c-21 37-57 57-80 44-22-13-68-2-101 24l-71 42c-40 16-72 50-72 75s-34 47-76 47h-45c-42 0-77-21-77-46 0-25-32-59-71-74l-75-41c-33-27-78-38-99-26-22 12-56-8-77-45l-23-39c-21-37-21-77 0-89 21-12 30-55 21-96 0 0-1-4-1-46 0-40 0-40 0-40 9-41 0-85-21-96-21-12-20-52 1-88l23-40c21-37 55-57 75-46 20 12 64 0 97-27l79-44c39-16 71-49 71-73 0-24 35-44 77-44h44c43 0 77 20 77 45 0 24 32 57 71 74l76 44c33 27 78 38 99 26 22-12 56 8 77 45l23 39c21 37 20 77-1 90z m-448-134c-150 0-273 123-273 273s123 273 273 273c151 0 273-122 273-273 0-150-122-273-273-273z m-117 276c0 77 46 122 120 122 38 0 83-45 83-122 0-36-45-81-83-81-74 0-120 45-120 81z" horiz-adv-x="919.9" />
<glyph glyph-name="menu6" unicode="&#xe822;" d="m68 602h753c37 0 68 31 68 69h0v111c0 37-31 68-68 68h-753c-37 0-68-31-68-68v-111c0-38 31-69 68-69z m821-572c0 37-31 68-68 68h-753c-37 0-68-31-68-68v-112c0-37 31-68 68-68h753c37 0 68 31 68 68h0v112z m0 376c0 37-31 68-68 68h-753c-37 0-68-31-68-68v-112c0-37 31-68 68-68h753c37 0 68 31 68 68h0v112z" horiz-adv-x="888.7" />
<glyph glyph-name="microsoft4" unicode="&#xe823;" d="m414 850h-332c-45 0-82-37-82-82v-291c0-45 37-81 82-81h332c45 0 82 36 82 81v291c0 45-37 82-82 82z m587 0h-332c-46 0-82-37-82-82v-291c0-45 36-81 82-81h332c45 0 82 36 82 81v291c0 45-37 82-82 82z m-587-545h-332c-45 0-82-37-82-82v-291c0-45 37-82 82-82h332c45 0 82 37 82 82v291c0 45-37 82-82 82z m587 0h-332c-46 0-82-37-82-82v-291c0-45 36-82 82-82h332c45 0 82 37 82 82v291c0 45-37 82-82 82z" horiz-adv-x="1082" />
<glyph glyph-name="nine1" unicode="&#xe824;" d="m1014 748l0 0c0 56-45 102-101 102h-181c-27 0-51-10-69-27-18 17-42 27-69 27h-181c-25 0-47-9-65-24-18 15-40 24-65 24h-181c-56 0-102-46-102-102v-181c0-23 8-45 21-62-13-17-21-38-21-62v-180c0-25 9-48 24-66-15-17-24-40-24-65v-181c0-56 46-101 102-101h181c25 0 47 9 65 24 18-15 41-24 65-24h181c27 0 51 10 69 27 18-17 42-27 69-27h181c56 0 101 45 101 101v181c0 25-9 48-24 65 15 18 24 41 24 66v180c0 24-8 45-21 62 13 18 21 39 21 62v181z m-701-811c-5-11-17-19-30-19h-181c-19 0-34 15-34 33v181c0 14 8 25 20 30 4-1 9-1 14-1h181c4 0 9 1 13 1 8-3 14-9 17-16 0-5 0-9 0-14v-181c0-5 0-9 0-14z m0 312c-3-8-9-14-16-17-5 0-10 0-14 0h-181c-5 0-10 0-14 0-12 5-20 17-20 31v180c0 10 4 19 11 25 7-1 15-2 23-2h181c7 0 15 1 22 2 3-3 6-7 8-11 0-4 0-9 0-14v-180c0-5 0-10 0-14z m0 304c-2-4-4-7-8-11-7 2-15 3-22 3h-181c-8 0-16-1-23-3-7 7-11 15-11 25v181c0 18 15 34 34 34h181c13 0 25-8 30-20 0-4 0-9 0-14v-181c0-5 0-9 0-14z m315-602c0-18-15-33-34-33h-181c-13 0-24 8-30 19 1 5 2 9 2 14v181c0 5-1 9-2 14 4 7 9 13 17 16 4-1 9-1 13-1h181c5 0 9 1 14 1 11-5 20-16 20-30v-181z m0 312c0-14-8-26-20-31-5 0-9 0-14 0h-181c-4 0-9 0-13 0-8 3-13 9-17 17 1 4 1 9 1 14v180c0 5 0 10-1 14 2 5 5 8 8 11 7-1 15-2 22-2h181c8 0 15 1 22 2 7-6 11-14 11-24v-181z m0 304c0-10-5-18-12-25-7 2-14 3-22 3h-181c-7 0-15-1-22-2-3 3-6 6-8 11 1 4 1 9 1 13v181c0 5 0 10-1 14 5 12 17 20 30 20h181c19 0 33-16 33-34v-181z m318-616c0-18-15-33-33-33h-181c-19 0-33 15-33 33v181c0 14 8 25 20 30 4-1 8-1 13-1h181c4 0 9 1 14 1 11-5 19-16 19-30v-181z m0 312c0-14-8-26-19-31-5 0-10 0-14 0h-181c-5 0-9 0-13 0-12 5-20 17-20 31v180c0 10 4 19 11 25 7-1 14-2 22-2h181c7 0 15 1 22 2 7-6 11-15 11-25v-180z m0 304c0-10-4-18-11-25-7 2-15 3-22 3h-181c-8 0-15-1-22-3-7 7-11 15-11 25v181c0 18 14 34 33 34h181c18 0 33-16 33-34v-181z" horiz-adv-x="1013.7" />
<glyph glyph-name="phone23" unicode="&#xe825;" d="m554 850h-485c-38 0-69-31-69-69v-862c0-38 31-69 69-69h485c38 0 69 31 69 69v862c0 38-31 69-69 69z m4-931c0-2-2-4-4-4h-485c-2 0-4 2-4 4v862c0 2 2 4 4 4h485c2 0 4-2 4-4v-862z m-82 784h-329c-15 0-28-14-28-30v-544c0-16 13-30 28-30h329c15 0 28 14 28 30v544c0 16-13 30-28 30z m-7-565h-315v526h315v-526z" horiz-adv-x="623" />
<glyph glyph-name="picture3" unicode="&#xe826;" d="m965 850h-919c-26 0-46-21-46-47v-906c0-26 20-47 46-47h919c25 0 46 21 46 47v906c0 26-21 47-46 47z m-7-946h-905v892h905v-892z m-839 161h760c24 0 44 19 44 43v616h0c0 24-20 43-44 43h-760c-24 0-43-19-43-43v-616c0-24 19-43 43-43z m10 649h743v-596h-743v596z m137-253c58 0 106 47 106 105 0 59-48 106-106 106-58 0-106-47-106-106 0-58 48-105 106-105z m0 176c39 0 71-31 71-71 0-39-32-70-71-70-39 0-71 31-71 70 0 40 32 71 71 71z m378-124c-10 17-23 25-36 25-12 0-25-8-35-23l-99-159c-14-22-36-33-57-33-12 0-23 3-33 10-11 7-24 11-37 11-22 0-45-10-61-28l-99-117c-24-29-13-53 25-53h567c38 0 54 27 36 61l-171 306z m135-332h-562l96 113c8 9 21 15 34 15 7 0 13-2 18-5 15-10 33-16 52-16 35 0 67 18 86 49l100 159c2 4 4 6 5 7 1-1 3-3 6-7l171-306c2-4 2-6 3-8-2 0-4-1-9-1z" horiz-adv-x="1009.8" />
<glyph glyph-name="planet5" unicode="&#xe827;" d="m500 850c-276 0-500-224-500-500s224-500 500-500c276 0 500 224 500 500 0 276-224 500-500 500z m-96-179l23-7v31l9 9 10-19 19-23-8-10-30-7v18l-23-18-7 11 7 15z m-360-310c2 97 35 186 88 259 2 0 4-1 4-1 0-6-10-8 0-25 12-23 1-33 1-33s-29-21-34-24c-5-4-19-23-11-17 9 5 19 10 11-4-9-14-24-36-28-45-3-8-20-29-20-39s-7-31-6-40c2-6-2-24-5-31z m178-287l-7-26 7-21c0 0-11-8-18-8-6 0-8-4-15-3-66 62-113 142-134 232 2 0 5-2 10-6 6-5 10-8 19-12 8-3 12-8 22-13 11-6 7-2 21-18 14-15 12-15 15-24 4-8 9-17 12-22s14-9 19-12c5-4 14-7 19-7 5 0 21-16 30-17 8-2 8-19 8-19l-8-24z m68 664c-22-24-17-17-22-24-5-7-3-9-15-17-12-9-18-19-18-19l-19-7-15 7c0 0-14-5-12 2 0 1 1 3 2 5 42 39 91 70 146 91-6-7-12-14-12-14s-12 0-35-24z m526-618c-2-7-6-19-7-26s-11-20-16-24c-5-3-14-14-19-15-5-2-8 12-7 19 2 7 11 25 11 25s1 11 3 18c2 7 23 15 23 15l13 26c0 0 2-7 2-12 0-5-2-19-3-26z m5 162c-4-5-14-19-19-26s-12-17-23-26-10-17-15-24c-5-7-12-22-12-22s3-35 5-41c2-7-12-26-12-26l-16-16-20-27 1-26c0 0-15-12-24-19-8-7-7-12-14-19-7-7-25-19-32-21-7-1-36-7-36-7v16l-10 17c0 0-9 21-14 28-6 7-5 17-14 26-9 8-13 15-15 20-1 5 2 21 2 21s6 19 10 26c3 7 0 17-4 24-3 7-5 24-5 29s-14 14-19 19c-5 5-4 12-4 19 0 7-5 22-3 34 2 12-15 4-26 0-10-3-17 4-17 14 0 10-19 2-31-5-12-7-26-7-40-12-13-5-20 5-20 5s-12 11-21 16c-8 5-17 15-24 24-7 8-24 34-26 44-2 11 0 18 0 30 0 12 0 19 2 27 2 9 7 19 12 28 5 9 24 19 29 22 5 4 17 14 17 21 0 7 7 10 11 17 3 7 15 24 31 17 0 0 13 2 19 4 5 2 19 7 25 10 7 4 24 5 24 5s14-5 19-5 22 3 22 3 8-25 8-30 5-11 14-14c8-4 48-12 65 2 4 3 17-6 17-6s43-8 50-13c7-6 19-9 23-14 3-5 15-21 17-26 2-5 10-24 12-31 2-7 7-24 12-33 5-8 34-46 45-63l31 5c0 0-4-16-7-21z m125 65c-1 7-12 31-12 31s-10 14-17 18c-7 3-12 12-24 18-12 7-17 11-27 11-11 0-21 14-33 21-12 6-14 3-14 3s14-21 14-26 15-14 31-10c0 0 10-19 15-24 5-5-1-11-12-18-10-6-8-5-14-10-5-5-22-14-27-17-5-3-26-14-36-3-5 5-4 15-7 22-4 7-40 60-57 84-3 4-10 18-15 21-6 3 12 3 12 3s0 12-2 21c-2 9 2 21 2 21s-18-11-23-14c-5-4-10 7-17 15-7 9-14 19-15 28-2 9 8 12 8 12l16 9c0 0 19 3 31 1 12-1 31-3 31-3s5 12-2 17c-7 5-22 14-29 12-7-2 3 9 12 16l-19 3c0 0-18-9-23-10-5-2-14-5-21-14-7-9 3-21-4-24-7-4-12-5-17-7-5-2-21 0-21 0-18 0-7-16-2-22l-14 17-10 24c0 0-15 10-22 14-7 3-28 15-28 15l2-15 20-21 1 0 13-14-21-1v13c-36 5-18 11-21 12-5 4-18 12-18 12s-20-3-26-5c-5-1-6-7-17-10-10-4-15-9-18-14-4-5-15-20-22-27-7-7-20-5-25-5-5 0-30 6-30 6v30c0 0 4 16 2 21l15 3 25 5 8 5 10 14c0 0-12 8-3 20 4 6 19 7 26 12 7 6 17 9 17 9s12 10 24 22c0 0 9 6 19 9 0 0 29-26 34-26 6 0 25 12 25 12s5 16 3 21c-2 5-10 22-10 22s-5-8-11-15c-5-7-8-16-8-16s-24 2-26 7c-2 5-5 14-7 19-2 5-15 5-26 2-10-4 2 18 2 18s10 13 17 13c7 0 23 9 29 11 7 1 28 15 37 15 8 0 19 1 24 1 5 0 26 0 26 0l36-2c0 0 31-14 20-21 0 0 12-9 18-14 4-5 17 4 24 8 129-81 215-225 215-388 0-8-1-17-1-26-4 8-8 19-10 23z m-532 317l0-1 0 1z" horiz-adv-x="1000" />
<glyph glyph-name="pointer8" unicode="&#xe828;" d="m403 850c-222 0-403-181-403-403 0-38 6-77 16-113 55-220 354-457 367-467l21-17 22 17c14 11 353 279 374 512l1 8c3 20 4 40 4 60 0 222-180 403-402 403z m327-461l-5-34 0 0c-38-166-251-357-321-415-68 58-279 246-320 413-9 31-14 63-14 94 0 184 149 333 333 333 183 0 332-149 332-332 0-20-2-40-5-59z m-322 312c-103 0-186-83-186-185s83-185 186-185c102 0 185 83 185 185s-83 185-185 185z m0-300c-64 0-116 51-116 115 0 64 52 115 116 115 63 0 115-51 115-115 0-64-52-115-115-115z" horiz-adv-x="804.7" />
<glyph glyph-name="refresh20" unicode="&#xe829;" d="m941 432c7 12 12 26 12 41v281c0 25-9 50-27 68-17 18-40 28-64 28-17 0-43-5-69-30 0 0-22-22-47-46-76 44-161 67-250 67-133 0-257-52-351-145-98-98-151-234-145-373 1-26 19-47 42-55-7-12-11-26-11-41v-281c-2-25 8-50 26-68 17-18 39-28 63-28 18 0 44 5 69 30 0 0 23 22 48 46 75-44 161-67 250-67 132 0 257 52 350 145 98 98 151 234 145 373-1 26-18 47-41 55z m-753 221c85 85 196 127 308 127 91 0 181-28 258-83 33 33 82 80 82 80 9 9 18 13 26 13 18 0 30-18 30-35v-282c0-11-9-20-20-20h-40c-11 0-19 0-19 0s-9 0-20 0l-205 0c0 0 0 0-1 0-17 0-51 21-20 58 0 0 44 44 82 81-47 29-100 43-153 43-74 0-148-28-205-85-62-62-89-144-84-225h-146c-5 119 37 238 127 328z m461-460c-43-44-101-68-163-68-15 0-30 2-44 5 10 10 17 17 17 17 1 1 2 2 3 4 39 46 26 87 18 102-17 37-56 54-85 54 0 0 0 0-1 0l-130 0c2 7 3 15 3 22-4 67 20 132 66 178 44 44 102 68 163 68 15 0 30-2 45-5-11-10-17-17-17-17-1-1-3-2-4-4-38-46-25-87-18-102 17-37 56-54 85-54 1 0 1 0 1 0l130 0c-2-7-3-15-2-22 4-67-20-132-67-178z m146-146c-86-85-197-128-308-128-91 0-182 28-258 84-34-33-82-80-82-80-9-9-18-13-26-13-18 0-32 18-30 35v282c0 11 8 19 19 19h40c11 0 20 0 20 0s9 0 20 0l204 0c1 0 1 0 1 0 18 0 51-21 21-57 0 0-44-44-82-81 47-29 99-43 152-43 75 0 149 28 206 85 61 62 89 144 84 225h146c5-118-37-238-127-328z" horiz-adv-x="982.4" />
<glyph glyph-name="refresh22" unicode="&#xe82a;" d="m988 378c-55 0-110-1-165-1 9-95-22-193-95-265-129-129-338-129-466 0-129 128-129 337 0 466 109 110 278 126 405 48-44-43-94-93-94-93-37-39 0-64 25-65h322c12 0 22 10 22 23v319c2 30-31 58-64 26 0 0-54-54-92-92-194 141-466 125-641-49-193-194-193-507 0-700 193-193 506-193 700 0 105 105 152 246 143 383z" horiz-adv-x="988.3" />
<glyph glyph-name="refresh27" unicode="&#xe82b;" d="m262 577c110 111 279 127 407 49-43-43-93-93-93-93-35-42 4-66 24-66l233 1c12 0 22-1 22-1s11 0 23 0h45c12 0 22 11 23 23v320c1 30-31 58-64 25 0 0-55-53-93-91-195 142-469 126-644-49-102-103-150-239-144-373h165c-5 92 26 185 96 255z m552-199c6-92-26-185-96-255-110-111-279-127-407-49 43 43 93 93 93 93 35 42-4 66-24 66l-233 0c-12 0-22 0-22 0s-11 0-23 0h-45c-12 0-23-10-23-23v-320c-1-30 31-58 64-25 0 0 55 53 93 91 195-142 469-126 644 49 102 103 150 239 145 373h-166z" horiz-adv-x="980.5" />
<glyph glyph-name="right20" unicode="&#xe82c;" d="m595 422l-400 401c-37 36-97 36-134 0l-33-34c-37-37-37-97 0-133l305-306-305-305c-37-37-37-97 0-134l33-33c37-37 97-37 133 0l401 400c20 20 28 46 27 72 1 26-7 52-27 72z" horiz-adv-x="623" />
<glyph glyph-name="shopping22" unicode="&#xe82d;" d="m1240 698c-27 38-73 51-104 51l-668 2-5 20c-19 78-95 78-120 78h-203c-3 0-6 1-9 1-5 0-10 0-15 0-20 0-36-1-49-5-49-13-67-52-67-81v-78c0-14 6-85 109-85 7 0 14 1 21 1 4 1 7 2 10 2h116l110-453c-18-28-26-59-26-92 0-113 83-201 190-201 66 0 126 26 161 71h169c31-45 86-79 163-79 52 0 102 22 138 61 37 40 56 94 53 147-5 66-37 118-88 147l127 389c12 35 7 76-13 104z m-55-82l-128-391c-6-17-13-47-49-47h-478l2-11c45 0 85-25 107-61l272-2c21 37 61 62 108 62 24 0 47-7 67-19 0 0 0-1 0-1 0 0 0 1 0 1 34-18 53-50 57-92 0 1-1 2-1 2 0-1 1-1 1-2 0-5 1-9 1-14 0-69-56-124-125-124-54 0-100 36-118 84h-252c-2-12-7-19-13-28-23-33-61-56-105-56-68 0-124 56-124 125 0 13 2 26 6 39 4 19 14 36 30 52l-131 539h-172c-8 0-19 0-31 0-19 0-37 2-37 14v78c0 13 23 16 44 16 9 0 17 1 24 1h203c31 0 46-5 51-26l20-75 722-1c5 0 32-3 46-21 5-8 10-23 3-42z m-43-559c-4 41-22 72-56 89 30-19 52-51 56-89z m-645-4c-1-4-2-8-2-12 0-20 17-36 37-36 12 0 23 7 30 16 4 6 6 13 6 20 0 7-2 14-5 19-6 11-18 18-31 18 0 0 0 0 0 0-16 0-30-11-35-25z m522-52c22 0 40 18 40 41 0 1 0 2 0 4-1 12-8 23-19 30-6 4-13 6-21 6-15 0-28-8-35-20-4-6-5-13-5-20 0-5 0-10 2-14 5-16 20-27 38-27z" horiz-adv-x="1259.8" />
<glyph glyph-name="smartphone6" unicode="&#xe82e;" d="m557 850h-518c-21 0-39-18-39-39v-922c0-21 18-39 39-39h518c22 0 40 18 40 39v922h0c0 21-18 39-40 39z m-259-959c-25 0-46 21-46 47 0 25 21 46 46 46 26 0 46-21 46-46 0-26-20-47-46-47z m203 197h-406v633h406v-633z" horiz-adv-x="597.7" />
<glyph glyph-name="speech9" unicode="&#xe82f;" d="m1042-66l-81 222c25 59 39 125 39 194 0 276-224 500-500 500s-500-224-500-500c0-276 224-500 500-500 119 0 227 41 313 110l183-71c40-16 61 4 46 45z m-791 352c-35 0-64 29-64 64s29 64 64 64c36 0 64-29 64-64s-28-64-64-64z m237 0c-36 0-64 29-64 64s28 64 64 64c35 0 64-29 64-64s-29-64-64-64z m236 0c-35 0-64 29-64 64s29 64 64 64c36 0 64-29 64-64s-28-64-64-64z" horiz-adv-x="1046.9" />
<glyph glyph-name="tablet11" unicode="&#xe830;" d="m759 850h-207-302-207c-21 0-43-25-43-47v-905c0-22 22-48 43-48h207 302 207c21 0 45 26 45 48v905c0 22-24 47-45 47z m-352-951c-25 0-44 20-44 44s19 44 44 44c24 0 44-20 44-44 0-24-20-44-44-44z m286 176h-589l3 659h586v-659z" horiz-adv-x="804.7" />
<glyph glyph-name="tablet25" unicode="&#xe831;" d="m743 850h-671c-36 0-72-37-72-75v-849c0-34 32-76 72-76h671c36 0 74 38 74 76v849c0 37-38 75-74 75z m-1-938l-669 0c-4 2-10 10-10 14v849c0 4 6 12 9 13l670 0c4-1 11-9 12-13l0-849c0-4-8-12-12-14z m-617 802l-3-625h566v625h-563z m525-590h-490l2 555h488v-555z" horiz-adv-x="816.4" />
<glyph glyph-name="thumb3" unicode="&#xe832;" d="m894 419c-18 3-34 6-48 8-22 4-38 6-43 7-3 0-7 0-9 0-17 0-33-5-46-15-9 8-19 15-31 20l-1 1c-21 9-34 15-43 19-13 27-37 71-59 98-66 79-120 122-140 137-4 3-8 5-13 8-8 6-23 15-51 44-8 8-14 22-20 33-12 21-37 71-93 71-1 0-2 0-2 0-13 0-22-7-28-9-30-9-69-42-87-90-13-34-19-90 21-155 3-5 24-38 61-74-7-1-14-2-21-2-2 0-3 0-5 0-16 1-45 6-54 8l-1 0c-9 2-27 6-48 6-27 0-52-7-74-20-35-21-54-62-58-125-8-112 33-313 148-406 61-50 186-54 223-54 33 0 83 2 127 15 1 0 2 1 4 1 14 5 34 10 42 10 10-1 19-1 29-1 5 0 9 0 14 0 6-43 42-71 75-83 1-1 1-1 2-1 6-2 63-20 121-20 22 0 42 3 60 8 27 7 119 44 174 207 14 44 25 90 30 130 2 18 3 36 4 51 2 90-57 155-160 173z m-287-388c0 0-12-4-33-4-7 0-14 0-23 1-1 1-3 1-5 1-26 0-67-15-67-15-30-8-68-12-107-12-73 0-148 13-177 37-120 98-149 381-97 413 11 7 24 9 35 9 16 0 29-4 35-5 10-2 43-8 64-9 3 0 6 0 9 0 47 0 85 19 85 19 65 39 6 91 6 91-44 37-69 77-69 77-50 80 11 133 24 137 5 1 6 6 8 6 0 0 0 0 1 0 25 0 27-42 61-77 43-45 64-56 73-62 15-11 65-51 127-126 28-33 61-106 61-106 6-6 61-30 71-34 29-12 28-51 28-51 1-115-64-241-76-264-12-22-34-26-34-26z m370 173c-4-35-13-76-27-116-47-143-124-160-124-160-12-3-26-5-40-5-48 0-98 17-98 17s-27 9-29 27c30 3 47 1 70 39 99 164 84 283 84 302-3 25-13 45-20 49-6 3-5 18 1 18 0 0 0 0 1 0 8 0 45-14 86-20 52-9 102-39 100-103-1-13-2-32-4-48z" horiz-adv-x="1054.7" />
<glyph glyph-name="thumbs15" unicode="&#xe833;" d="m694-18c14 27 94 181 92 321 0 0 1 48-35 63-11 5-78 34-86 41 0 0-41 88-74 128-76 92-137 140-155 153-11 8-37 18-89 73-41 43-44 89-75 89-3 0-4 0-11-2-16-5-90-64-29-163 0 0 31-48 84-93 0 0 72-64-8-111 0 0-51-27-114-23-26 1-66 8-78 11-12 2-53 15-86-5-63-39-27-385 119-504 55-45 243-60 346-31 0 0 59 21 89 17 42-4 67 3 67 3s28 6 43 33z m233 386c-50 8-96 16-106 17-9 1-9-11-2-14 8-5 21-20 24-51 0-23 18-168-102-369-28-46-49-44-85-47 1-22 34-34 34-34s105-34 169-13c0 0 94 19 152 194 16 49 28 99 33 141 2 21 4 39 4 55 3 78-58 110-121 121z" horiz-adv-x="1048.8" />
<glyph glyph-name="tiles" unicode="&#xe834;" d="m248 850h-209c-22 0-39-17-39-39v-209c0-21 17-39 39-39h209c22 0 39 18 39 39v209c0 22-17 39-39 39z m361 0h-210c-21 0-38-17-38-39v-209c0-21 17-39 38-39h210c21 0 39 18 39 39v209c0 22-18 39-39 39z m369 0h-210c-21 0-38-17-38-39v-209c0-21 17-39 38-39h210c21 0 38 18 38 39v209c0 22-17 39-38 39z m-730-352h-209c-22 0-39-18-39-39v-209c0-22 17-39 39-39h209c22 0 39 17 39 39v209c0 21-17 39-39 39z m361 0h-210c-21 0-38-18-38-39v-209c0-22 17-39 38-39h210c21 0 39 17 39 39v209c0 21-18 39-39 39z m369 0h-210c-21 0-38-18-38-39v-209c0-22 17-39 38-39h210c21 0 38 17 38 39v209c0 21-17 39-38 39z m-730-361h-209c-22 0-39-17-39-39v-209c0-22 17-39 39-39h209c22 0 39 17 39 39v209c0 22-17 39-39 39z m361 0h-210c-21 0-38-17-38-39v-209c0-22 17-39 38-39h210c21 0 39 17 39 39v209c0 22-18 39-39 39z m369 0h-210c-21 0-38-17-38-39v-209c0-22 17-39 38-39h210c21 0 38 17 38 39v209c0 22-17 39-38 39z" horiz-adv-x="1015.6" />
<glyph glyph-name="user21" unicode="&#xe835;" d="m698 371c-44-100-140-184-233-184-114 0-196 83-240 183-256-132-224-468-224-468 0-45 36-52 79-52h385 384c42 0 79 7 79 52 0 0 25 337-230 469z m151-448h-384-385c-3 0-5 0-7 0-2 50 1 235 126 343 66-96 161-152 266-152 94 0 192 60 257 154 126-108 134-292 134-345-2 0-5 0-7 0z m-384 318c128 0 230 183 230 335 0 151-104 274-232 274-128 0-232-123-232-274 0-152 106-335 234-335z m-2 536c87 0 159-90 159-201 0-125-82-262-157-262-76 0-161 139-161 262 0 111 71 201 159 201z" horiz-adv-x="927.7" />
<glyph glyph-name="view6" unicode="&#xe836;" d="m936 412c-94 76-251 186-450 190 0 0 0 0 0 0s-1 0-1 0c-198-4-356-114-449-190-5-4-35-28-36-58 0-21 10-36 24-50 76-74 243-205 461-206v0c1 0 1 0 1 0 0 0 0 0 1 0v0c218 1 385 132 461 206 14 14 24 29 24 50-1 30-31 54-36 58z m-450-257c-107 1-194 88-194 195 0 108 87 195 194 195 107 0 194-88 194-195 0-107-87-194-194-195z m1 271c-1 0-1 0-1 0s0 0-1 0v0c-41-1-74-35-74-76 0-41 33-75 74-76v0c1 0 1 0 1 0 0 0 0 0 1 0v0c41 1 74 35 74 76 0 41-33 75-74 76z" horiz-adv-x="970.7" />
<glyph glyph-name="walk1" unicode="&#xe837;" d="m1008 816c-17 22-43 34-71 34-19 0-38-5-57-15l-819-429c-58-31-62-77-61-95 1-19 10-64 71-88l105-42c19-7 42-11 66-11 3 0 7 0 11 0-2-2-3-3-5-5-19-29-20-69-3-111 1-1 1-2 1-2 31-69 66-146 70-157 10-27 36-45 65-45 44 0 57 21 129 139 6 8 18 29 20 54 9-3 17-7 24-9l116-48c23-9 43-17 54-22 3-2 7-4 10-5 8-3 17-5 26-5 53 0 65 46 72 70 3 12 8 29 13 48l177 649c13 49-3 80-14 95z m-556-790c0 0-66-107-71-107 0 0-1 0-1 0-6 18-71 161-71 161-12 29-10 54 11 54 4 0 10-2 16-4l50-26c9-6 18-11 28-15l3-1 4-2c39-21 52-28 31-60z m503 713l-177-649c-10-37-18-67-18-67 0 0 0 1 0 1 0 0-29 12-64 26l-116 48c-36 14-93 37-129 51l-6 2-21 11c-22 17-24 44-2 67l359 384c14 15 20 23 16 23-2 0-10-5-23-15l-454-358c-20-16-50-24-78-24-15 0-29 2-41 7l-104 41c-36 14-37 40-4 58l819 429c9 5 18 7 25 7 17 0 25-15 18-42z" horiz-adv-x="1027.3" />
<glyph glyph-name="walk7" unicode="&#xe838;" d="m978 842l-950-498c-39-21-37-51 4-67l121-48c41-16 103-7 138 20l526 415c35 27 39 23 9-9l-417-446c-30-32-21-71 20-87l14-6c41-16 109-42 149-59l135-55c41-16 74-30 74-30 0-1 0-1 1-1 0 0 9 34 21 77l205 753c12 43-11 61-50 41z m-564-771l-93 38c-41 17-61-2-44-43 0 0 87-208 84-216-2-7 83 124 83 124 24 37 11 81-30 97z" horiz-adv-x="1031.3" />
<glyph glyph-name="wheel4" unicode="&#xe839;" d="m926 227c-6 20-17 37-33 49-2 5-3 15-1 26l1 6v6 34c0 43 0 44-1 50-3 12-1 22 0 27 16 12 28 30 34 51 9 32 2 70-17 105l-20 35c-26 44-67 72-108 72-13 0-26-3-37-8-7 1-19 5-29 13l-4 3-3 2-63 36-4 2-3 2c-13 5-22 14-26 18-5 54-58 94-127 94h-40c-69 0-122-39-127-92-3-5-13-13-25-18l-4-1-3-2-66-36-4-3-4-3c-11-8-22-13-28-14-11 5-23 7-35 7-40 0-81-27-107-72l-20-35c-14-24-22-52-22-77 0-32 13-59 35-76 1-5 2-15-1-27-1-5-2-9-2-53 0-39 0-39 0-42l1-3 0-2c3-12 2-22 1-28-22-17-34-44-34-76 0-25 8-52 22-76l20-35c26-45 67-73 107-73 11 0 22 2 32 6 5-1 16-5 27-14l4-3 4-2 69-40 4-2 3-1c13-5 22-13 26-18 6-51 59-89 127-89h40c69 0 121 38 127 91 4 5 13 13 26 18l4 2 3 2 67 39 3 2 3 3c11 8 22 13 29 14 10-5 22-8 34-8 41 0 82 28 107 73l20 35c20 35 27 73 18 106z m-69-76l-20-35c-15-26-38-43-56-43-4 0-9 1-12 3-5 3-12 5-19 5-21 0-47-10-69-27l-66-40c-34-14-63-43-63-65s-30-39-67-39h-40c-37 0-67 17-67 38s-29 50-63 64l-69 40c-22 17-49 27-68 27-7 0-13-1-18-4-3-2-7-2-11-2-18 0-40 16-55 43l-20 35c-19 32-19 67-1 77 18 10 26 49 19 85 0 0 0 0 0 35 0 37 0 40 0 40 8 37 0 75-18 86-19 10-19 45 0 77l20 35c15 26 37 43 55 43 5 0 9-1 13-3 5-3 11-5 19-5 20 0 47 10 68 27l66 36c34 14 63 44 63 66 0 22 30 40 67 40h40v0c37 0 67-18 67-41 0-22 29-52 63-67l63-36c21-16 48-26 68-26 8 0 16 1 21 5 4 2 9 3 14 3 19 0 41-16 56-42l20-35c18-32 17-68-2-79-20-11-29-50-21-86 0 0 0-2 0-38 0-34 0-34 0-34-7-36 2-74 21-85 20-11 20-46 2-78z m-396 441c-132 0-240-108-240-240 0-133 108-240 240-240s241 107 241 240c0 132-108 240-241 240z m0-421c-99 0-180 81-180 181 0 99 81 180 180 180s181-81 181-180c0-100-81-181-181-181z m3 343c-88 0-160-72-160-160 0-88 72-160 160-160 88 0 160 72 160 160 0 88-72 160-160 160z m0-260c-56 0-100 45-100 100s44 100 100 100c55 0 100-44 100-100s-45-100-100-100z" horiz-adv-x="929.7" />
<glyph glyph-name="window16" unicode="&#xe83a;" d="m1069 701c0 82-67 149-149 149h-278c-42 0-80-17-107-45-27 28-65 45-107 45h-279c-82 0-149-67-149-149v-244c0-42 18-80 46-107-28-27-46-65-46-107v-244c0-82 67-149 149-149h279c42 0 80 17 107 45 27-28 65-45 107-45h278c82 0 149 67 149 149v244c0 42-17 80-45 107 28 27 45 65 45 107v244z m-574-721c-8-29-35-51-67-51h-279c-38 0-70 32-70 70v244c0 32 22 59 52 67 6-1 12-1 18-1h279c6 0 12 0 18 1 23-7 42-25 49-48-1-6-1-13-1-19v-244c0-6 0-13 1-19z m0 459c-7-24-25-42-49-49-6 1-12 1-18 1h-279c-6 0-12 0-18-1-30 8-52 35-52 67v244c0 38 32 70 70 70h279c31 0 59-22 67-51-1-6-1-13-1-19v-244c0-6 0-12 1-18z m495-440c0-38-32-70-70-70h-278c-32 0-59 22-67 51 1 6 1 13 1 19v244c0 6 0 12-1 18 6 24 25 42 48 49 6-1 13-1 19-1h278c6 0 13 0 19 1 29-8 51-35 51-67v-244z m0 458c0-32-22-59-51-67-6 1-13 1-19 1h-278c-6 0-12 0-18-1-24 7-43 25-49 48 1 6 1 13 1 19v244c0 6 0 13-1 19 8 29 35 51 67 51h278c38 0 70-32 70-70v-244z" horiz-adv-x="1070.3" />
<glyph glyph-name="magnifier" unicode="&#xe81e;" d="m965 115l-176 177c-18 18-43 28-69 28-5 0-9 0-13-1-2 4-5 7-8 10l-107 107c42 111 16 239-70 324-57 58-134 90-216 90-82 0-158-32-216-90-58-57-90-134-90-216s32-158 90-216c57-58 134-90 216-90 35 0 70 6 103 18l109-108c2-2 5-4 7-6-5-31 4-63 27-87l177-176c18-19 43-29 69-29s51 10 69 29l98 98c39 38 39 100 0 138z m-542 214c-36-20-77-30-117-30-63 0-125 24-173 72-96 96-96 251 0 346 48 48 110 72 173 72 63 0 125-24 173-72 80-79 93-201 40-294l131-132-95-94-132 132z m499-309l-98-98c-7-7-16-11-26-11s-19 4-26 11l-176 176c-11 10-13 25-9 38 6 3 12 7 17 12l95 95c4 4 8 9 10 14 4 1 7 2 11 2 9 0 19-3 26-10l176-177c15-14 15-38 0-52z m-616 690c-43 0-85-16-118-48-65-65-65-171 0-236 33-32 75-48 118-48 43 0 85 16 118 48 65 65 65 171 0 236-33 32-75 48-118 48z m74-240c-19-20-46-31-74-31-28 0-54 11-74 31-20 20-31 46-31 74s11 55 31 75c20 19 46 30 74 30 28 0 55-11 75-30 19-20 30-47 30-75 0-28-11-54-31-74z" horiz-adv-x="994.1" />
</font>
</defs>
</svg>
