<?xml version="1.0" standalone="no"?>
<!DOCTYPE svg PUBLIC "-//W3C//DTD SVG 1.1//EN" "http://www.w3.org/Graphics/SVG/1.1/DTD/svg11.dtd">
<svg xmlns="http://www.w3.org/2000/svg">
<metadata>Copyright (C) 2014 by original authors @ fontello.com</metadata>
<defs>
<font id="fontello" horiz-adv-x="1000" >
<font-face font-family="fontello" font-weight="400" font-stretch="normal" units-per-em="1000" ascent="850" descent="-150" />
<missing-glyph horiz-adv-x="1000" />
<glyph glyph-name="finger" unicode="&#xe800;" d="m794 303c-6 20-18 27-21 28 1 1 1 2 1 3 0 2 1 4 1 6 1 5 2 11 3 17 0 1 0 1 0 1s0 0 0 0c2 16 4 36-1 50-10 27-37 29-38 29 1 6 1 11 1 13 0 11 0 26-1 44-2 17-25 30-48 38-42 11-76-19-76-19s40 60 57 90l1 1 0-1 59 52 82 71-142 121-10-67c0 0-141 3-246-22-125-29-230-69-229-72 0-2 121 26 265 23 65-1 127-12 168-22l-1-1c0 0 1-1 4 1 0 0 0 0 0-1-8-10-16-20-23-30-22-31-103-135-121-152-25-24-30-40-51-80-18-33-37-58-49-74-6-8-12-19-12-19s-5 8-10 11c-5 2-19 0-19 0 2 7 8 3 12 19 5 16-4 22-2 28-1-1 16 4 28 24 9 15 21 29 24 44 2 13 2 26 1 33-5 22-15 31-27 31-22-1-41-39-44-40-3-1-11-8-11-8s-24-4-51-25c-8-7-16-42-25-75-10-38-29-74-26-99 3-16 21-91 45-145 28-63 62-106 71-123 17-34 21-76 34-103 36-81 320-32 324-19 4 13 10 12 5 18-4 5 1 11 4 27 1 7-3 19-1 27 4 22 68 143 96 209 10 22 9 39 9 43 1 14 1 1-2 21-2 10-1 51-8 74z m-79 474c29-1 52-25 51-54-1-14-6-26-15-35-2-1-7-5-12-9-4-2-9-4-15-5 11 13 17 20 23 36 4 13 6 21 2 28-14 25-32 35-64 16-4-3-13-11-23-22 0 1 0 1 0 2 1 2 1 4 2 6 6 22 27 38 51 37z m-52-38c0-2-1-4-1-4l0 0c1 1 1 3 1 4z" horiz-adv-x="1000" />
<glyph glyph-name="two37" unicode="&#xe817;" d="m250 521l-86 90h100l54 239 69-239h101l-63-72c2 8 3 16 1 24-7 24-32 39-58 32-20-6-34-24-36-44-11 12-29 17-46 13-20-6-34-24-36-43z m533-576c-29-74-182-105-233-83-27 12-36 39-60 47-9 4-38 13-66 29-27 16-53 39-77 57-16 12-31 23-39 34-10 17-7 36-13 54-11 32-24 61-30 76-3 9 6 59 6 59s-21 53 10 57c20 3 46-19 60-46 14-26 10-46 10-46s8-7 10-20c3-16 5-18 4-18l15 4c0 4 6 24 1 63-2 17-9 23-12 69-1 6-14 25-29 69-4 9-12 26-11 31-8 1-24 37-32 53-14 29-26 58-30 78-5 28 18 41 25 41 14 0 23-3 29-20 6-15 12-22 20-31 0 0 0 0 0 0l4 15 22-13c0 0 1 0 1 0-13 29-11 36-13 52-1 13 11 27 19 29 11 2 27-6 35-23 4-8 9-16 16-24l0 1c0 0 0-1 0-1 4-6 9-11 14-16 33-33 36-43 44-54 33-48 42-68 43-73 0 0 0 0 0 0 0 0 0 1 0 1s1 0 2 1c6 7 31 33 55 24 36-11 43-59 43-59 0 0 21 20 38 14 33-11 28-42 56-87 13-22 16-38 18-57 5-51 22-92 30-157 4-33 1-63 11-79 8-13 14-26 4-51z m-342 389c-3 9-4 39-20 68-21 36-35 62-44 82l-11-13c2-4 5-8 9-13 15-17 16-26 23-36 14-24 18-27 22-40 9-28 19-42 21-48z" horiz-adv-x="1000" />
<glyph glyph-name="finger3" unicode="&#xe802;" d="m772 28c-32 60-25 44-31 73-5 27-2 58-4 90-2 48-6 98-6 141 0 37-16 49-24 73-13 35-22 67-39 84-20 20-42 7-42 7-15 38-18 47-34 66-14 18-37 15-37 15s-10 54-35 81c-13 15-41 15-51 10-7-4-17-15-28-23-20-15-44-42-44-42s-4 12-15 35c-9 16-24 38-36 59 11 15 18 34 18 54 0 50-41 91-91 91-50 0-91-41-91-91 0-43 30-79 70-88 2-9 5-17 8-26 6-24 18-55 27-79 13-33 24-60 30-94 5-25 2-54 1-78-1-21-3-40-5-57-3-22-10-37-14-47-3-8-2-14-2-14s-5 0-12-2c-6-2-10-7-10-7l-10 7c0 0 2 4 0 10-2 7-6 18-11 31-2 6-4 17-5 22-5 14-10 19-10 19s6 19-2 39c-9 22-27 51-47 70-17 16-30 20-45 18-18-3-25-24-21-46 2-13 8-31 9-40 3-22-9-48-8-63 0-19 10-30 20-72 3-14 13-30 17-47 7-25 11-49 14-55 15-32 76-72 133-124 32-29 69-29 95-56 16-16 25-43 42-68 68-101 268-2 321 73 12 18 10 42 5 51z m-555 723c0 31 25 56 56 56 31 0 56-25 56-56 0-6-1-12-2-17-17 35-33 64-66 55-11-4-23-15-25-34-1-14 1-31 5-50-14 10-24 27-24 46z" horiz-adv-x="1000" />
<glyph glyph-name="fingers" unicode="&#xe803;" d="m171 576c-3 6-5 12-7 18l33-21c-9-1-18 0-26 3z m675-680c-58-29-168-58-174-36-6 20-39 39-39 39s-50-8-102 12c-37 14-101 13-141 37-33 19-56 42-74 69-27 41-59 68-61 73-12 26 5 58-1 72-6 12-30 65 9 78 20 6 59-22 78-49 12-16 10-39 10-39 0 1 14 0 21-14 14-28 37-35 37-35s-22 61-40 120c-11 39-30 76-37 94-7 17-46 52-67 89-36 64-74 125-94 170 8-3 17-4 26-3 2 0 3 1 5 1 26 7 43 31 42 57 2 1 4 1 7 2 24 6 41 29 41 53 0 0 0 0 0 0 0-24-17-47-41-53-3-1-5-1-7-2 1-26-16-50-42-57-2 0-3-1-5-1l-33 21-2 6c-16 52 8 64 27 67 0 0 0 0 0 0 9 1 16 0 16 0 0 0-1 7-2 15-1 7-1 17 2 24 6 17 24 27 39 20 16-8 32-22 48-40 0 5 0 9-1 14-6 29-35 47-64 40-25-7-42-31-41-57-2-1-5-1-7-2-29-7-47-37-41-67 1-1 1-3 2-5l-61 39 184 204v-97c1 0 159 3 284-14 148-21 274-58 274-61 0-3-142 16-304-5-68-8-133-22-180-33 19-15 38-22 58-37 27-20 61-63 63-64 1 0 39 60 79 58 32-2 57-68 57-68s46 36 66 11c25-33 62-83 99-142 23-37 46-78 70-115 21-30 28-62 44-88 39-64 72-110 81-113 37-14 8-128-108-188z m-623 737c-7 2-14 6-20 12 6-6 13-10 20-12z m79-92c0 0-2 10-9 20-10 12-24 24-28 28l0-1-2 2 0 0 2-2c2-5 11-18 18-26 10-13 19-21 19-21z m35 101l0 0c-44-11-72-19-72-19s28 8 72 19z m82-227c0 0-10 18-25 31-18 16-33 37-33 37-1-1 9-23 24-39 15-17 34-30 34-29z" horiz-adv-x="1000" />
<glyph glyph-name="fingers1" unicode="&#xe804;" d="m328 776c5-3 10-7 15-11-7-6-13-12-18-19 0 0 0 0 0 0-4-5-7-11-9-17-5 5-10 9-15 12-7 4-15 8-24 10 0 0 0 0 0 0-5 1-11 1-16 1l-5 0c3 6 5 12 9 18 7 0 14-1 21-3l0 0c8-2 16-6 24-10 0 0 0 0 0 0 5 7 11 14 18 19z m11-156c4 5 7 10 9 16-5 3-10 7-15 12-2-6-5-12-8-17 4-4 9-8 14-11z m467-664c-35-87-215-124-276-98-32 14-43 45-71 56-11 3-44 14-78 34-31 18-62 46-90 67-20 15-38 27-46 40-13 20-9 43-16 64-12 38-29 72-35 89-4 11 7 70 7 70s-25 63 11 68c24 3 55-23 72-54 16-31 11-55 11-55s10-9 13-24c3-18 4-21 4-21l5-1c0 0 8 79-10 174-6 34-24 76-35 108-7 20-12 40-17 61-75 3-135 65-135 141 0 78 63 141 141 141 13 0 25-2 37-5 8-2 15-5 22-8-6-4-12-9-17-14-7 2-14 4-21 6-7 1-14 1-21 1-67 0-122-54-122-121 0-64 50-117 112-122-1 5-2 10-2 15-1 4-2 8-3 12-46 7-81 47-81 95 0 53 43 95 96 95l4 0c-4-6-6-12-9-18-40-2-73-36-73-77 0-37 26-68 61-76-4 24-6 46-6 64 0 28 17 40 26 40 8 0 26-3 36-21 7-12 14-27 19-44 1-4 2-7 3-10 1 1 2 2 3 3 4-4 9-8 14-11-3-4-6-8-9-12 2-4 4-10 7-16 3-1 6-3 9-4 7-3 14-4 21-6 0 0 0 0 0 0 5-1 10-1 14-1-4 10-8 19-11 27-2 1-4 1-6 2 0 0 0 0 0 0-9 2-17 6-25 10 4 5 7 10 9 16 4-3 9-5 13-6-15 39-16 52-12 76 2 16 21 19 31 19 21-1 43-40 64-76 14 14 22 32 22 53 0 43-35 78-78 78-9 0-18-2-27-6-6-2-13-5-18-9-5 4-10 8-15 11 5 5 11 8 18 12 0 0 0 0 0 0 13 6 27 10 42 10 53 0 96-43 96-96 0-27-11-51-29-69 5-7 11-13 16-20 24 22 39 54 39 89 0 67-54 122-122 122-25 0-48-8-68-21-7 3-14 6-22 8 25 20 56 33 90 33 78 0 142-64 142-142 0-42-19-80-48-105 21-46 39-91 40-91 0 0 22 21 48 13 42-13 51-71 50-71 0 0 25 24 45 17 40-13 33-49 66-103 16-25 19-45 21-67 7-60 27-109 36-185 5-40 1-75 13-94 9-15 17-31 5-60z m-393 548c-9 22-16 41-23 57-1 0-1 0-2 0-13 0-25 2-37 5 0 0 0 0 0 0-1 0-1-1-2-1 6-14 7-22 10-33 7-20 18-42 26-55 17-28 23-44 29-50 8-7 31 1-1 77z" horiz-adv-x="1000" />
<glyph glyph-name="fingers2" unicode="&#xe805;" d="m194 191l-21-44-78 164 170 36-25-62c-10 12-25 20-42 20-31 0-57-26-57-57 0-30 23-54 53-57z m514 435c0 31 26 57 57 57 32 0 57-26 57-57 0-2 0-4 0-6l23 7-88 110-75-113 27-4c0 2-1 4-1 6z m95-727c-77-44-153-60-175-39-12 11-29 23-52 37-18 11-58 21-106 36-56 18-126 51-156 78-9 7-6 18-24 37-20 21-44 56-65 87-8 13-7 42-15 54-16 24-54 58-35 77 15 16 47 10 78-5 0 0 0 0 0 0 0 0 0 0 0 0v2c-2 7-5 13-9 18l138-95v0l19-13c1 37 1 108-9 140-5 18-17 50-31 68-24 30-47 63-71 110-13 25-23 50-32 72l0 0 0 0-15 17 0 0-7 8-47-28 28 179 161-66-48-31 0 3c0 31-25 57-56 57-32 0-57-26-57-57 0-19 9-35 23-45l7-5c0 0 0 0 0 0-1 2-1 5-2 8-21 66 4 80 26 79 21-1 45-43 76-87 13-19 29-31 43-49 12-15 22-37 31-51 24-41 43-59 43-58l19 6-84 252c2-1 4-3 6-4l4-2c2-1 4-2 6-3-3 9-5 16-7 23-16 66 28 70 39 68 8-2 21-25 40-57 3 6 4 13 4 20 0 31-25 56-57 56-31 0-56-25-56-56 0-15 5-29 15-39l-53-9 76 151 106-97 50 80 91-107-32-11c1 4 2 8 2 13 0 31-26 56-57 56-23 0-43-14-52-34-2-5-4-11-4-17 0-2-1-4-1-5 0-5 1-9 2-12l-21 2 8 13-17-3v-7c8-14 17-28 27-43 8-13 25-27 37-40l-10 42 0 0v0l19-8c0 0 0 0 0 0-7 22-13 43-14 60-2 25 15 32 32 32 19-1 42-31 55-85 9-32 43-60 58-91 30-63 27-133 26-133l20 9-1 1 0 0-17 130 7-6c0 0 0-1 1-1-1 22 2 43 7 59 8 26 25 35 44 12 14-16 13-40 25-102 3-16 14-32 18-50 6-26-1-56 4-84 3-22 14-44 18-65 5-23 4-55 10-76 28-97 35-156 38-163 8-19 37-40 41-59 1-9-17-88-133-154z m-421 241c8 1 15 6 17 8l-43 11c8-12 12-21 12-20 0 0 7 1 14 1z m111 347c-1 2-1 4-2 5v0-46 0l5 2c0 0 1 16-3 39z" horiz-adv-x="1000" />
<glyph glyph-name="hand10" unicode="&#xe806;" d="m951 57c-78 99-64 340-105 408-12 20-45 48-64 75-55 77-103 158-142 143-22-8-77-38-77-38s-18 14-39 12c-14-1-34-13-53-16-27-5-57-10-84-16 3 20 8 54 16 92 15 65 37 127 37 127s-47-59-91-118c-37-49-55-82-55-82l-64 18 64-164 73 39c32 0 63 6 63 6s47-2 47-3l4-27c0 0-9-35-2-55 9-23 19-25 34-26 19-2 44 18 44 18s7-7 7-17c1-14-3-32-4-35-12-74-60-84-60-84s-34 7-55 35c-29 37-38 63-103 104-8 6-20 11-33 14l-14 31-174-82 82-18c0 0-11-79-15-132-7-78-6-174-6-174s24 93 56 163c15 34 39 70 53 90 10-14 19-29 27-39 16-23 36-40 55-66 13-17 23-49 38-68 41-53 71-104 105-150 32-42 73-62 103-86 35-28 59-55 65-65 29-48 138-7 203 45 37 30 100 96 64 141z m-621 469c-30 0-54 24-54 54 0 31 24 55 54 55 14 0 27-5 37-14-40-10-71-23-73-41-2-19 15-37 45-41 8-2 16-2 24-2-9-7-20-11-33-11z m-107-135c-17 24-11 58 13 76 18 13 42 13 60 2-18 1-37-3-51-18-19-21-6-54 23-77 2-2 4-4 6-6-19-2-39 6-51 23z" horiz-adv-x="1000" />
<glyph glyph-name="hand11" unicode="&#xe807;" d="m942 539c-125 270-386 242-528 199-121-37-191-108-191-108s36 19 92 39c8 19 28 33 51 34 13 0 24-4 34-11 99 22 222 24 319-50 8 21 28 36 52 37 32 0 57-24 58-56 0-5-1-10-2-15-1-4-4-11-8-17-5-9-13-15-22-20 0 0 0 0 0 0-3-1-6-2-9-3 0 0 0 0 0 0l14-23 0 0c9-14 16-29 21-43l5-15c1-3 2-5 3-8 0 0 0 0 0 0l0 0c0 0 1 4 4 11 1 1 2 3 3 5l9 10c9 10 23 16 37 16 32 1 58-24 58-55 1-21-10-39-26-49l1 1c0 0-1-1-1-1-7-4-14-7-21-8-1 0-2 0-3-1-6 0-10 0-14 1-3 0-6 1-9 2l0 0c28 20 48 34 49 41 1 12-8 55-72 33-4-2-10-4-15-6 0 0 0 0 0 0 0 0 0 0 0 0-58-25-159-86-198-97-23-7-39-7-39-7l-14 31c0 0 16 20 54 48 14 10 35 22 48 34 17 16 28 33 46 48 40 34 81 62 80 83-2 21-18 45-82 19-30-13-68-31-107-55-45-28-75-54-103-80-17-16-48-30-65-37-43-18-162-23-163-22 0 0-9 7-10 17-2 7-3 14-3 14-1 0 35 18 56 56 18 2 32 23 43 41 23 39 37 90 11 106-22 13-51-24-74-42-11-9-40-11-52-20-30-23-62-51-82-73-16-19-27-17-34-27-24-31-57-102-64-161-6-53-28-78-25-122 3-39-26-75-27-99-4-93 28-140 70-180 37-34 101-47 133-39 18 4 47 25 65 34 6 3 65 16 159 52 20 8 52 10 74 17 21 6 42 18 64 24 27 7 57 3 83 11 17 5 33 18 48 22 5 1 9 3 13 4l9-56 191 82-65 46c1 1 171 172 71 388z m-172-335l-4 2c5 4 9 8 13 12-5-6-9-14-9-14l0 0z m-44 97c13 5 29 9 43 20 16 11 33 39 50 52 7 6 14 12 21 17 0-1 0-1 0-2l-2-23 0 0c0 0 0 0 0 0 0 0 0 0 0 0l16 9c9 3 17 3 19 3 31 1 56-24 57-55 0-18-8-35-22-46-3-1-16-10-28-11-2 0-5 0-7 0-5 0-9 0-14 1 33 17 51 36 50 51-1 17-9 33-34 29-42-7-114-48-156-62-19-7-41-9-41-9-1 1 17 16 48 26z m-30-159c-25-9-68-11-70-11l-12 20c0 0 54 2 107 27l0 0 0 0 4-26 1-2c-10-2-20-4-30-8z m123-63c-1 0-22-4-34-1 0 0 0 0-1 0-1 0-1 1-2 1-1 0-1 0-2 1-1 0-2 0-3 1-1 0-2 1-3 1 0 0 0 0 0 0-3 2-5 3-8 5 31 8 46 11 56 22 22 21 11 37-15 43-17 4-38 4-60 2 0 1 1 1 1 2 2 3 7 13 16 20 0 0 0 1 1 1 1 1 2 2 3 3 1 0 2 1 3 1 2 2 4 3 6 3 1 1 1 1 2 1 6 2 11 3 15 4 1 0 3 0 5 0 31 1 57-24 57-55 1-25-15-47-37-55z" horiz-adv-x="1000" />
<glyph glyph-name="hand13" unicode="&#xe808;" d="m949 630l-96-65c-6 12-17 21-30 26-5 1-11 2-16 2 5 6 8 12 10 19 9 29-6 59-34 69-23 7-48-2-60-22 0 23-15 45-38 52-24 8-49-2-62-23l-6-13c0 0 0 0 0 0 23 12 43 18 55 19 24 0 44-25 29-50-15-25-65-51-95-85-9-10-20-26-28-35-10-10-19-19-27-27 0 0 0 0 0 0s0 0 0 0c-9-9-17-16-24-23-2-2-3-4-5-6-1-1-2-2-3-3 0-1-1-1-1-2l-15-22c0-1 27 10 57 47 21 26 41 54 63 79 16 19 44 30 65 50 31 32 59 46 76 45 6 0 42-10 36-36-5-25-38-50-65-85-12-14-17-30-29-46-22-29-63-57-78-82-19-34-18-45-19-47 0 1 2 2 4 4 4 5 12 13 23 24 0 0 0 0 0 0 1 0 1 1 1 1 0 0 0-1-1-1 1 1 2 2 3 2 6 6 12 12 18 18 12 10 24 19 34 32 38 52 81 107 106 120 22 12 49-13 40-46-5-15-25-39-47-70-12-17-18-38-31-57-18-26-39-52-58-72-28-27-41-47-47-53-9-11-8-20-9-20 0 0 3 2 9 6l0 0 0 0c13 8 36 20 54 18 24-3 37-36 34-45-5-17-23-34-40-59-8-12-15-28-24-41-13-20-38-39-52-60-11-17-24-47-32-63-9-17-24-37-34-43-38-22-29-35-24-57 19-87-427-63-393 26 18 43 2 57-5 80-6 24-39 38-43 63-4 24-53 178-42 203 26 57 38 112 53 131 14 19 51 24 51 24 0 0 23 29 41 38 10 5 41-6 31-62-6-30-29-47-29-44 0 0-1-13-4-21-4-11-15-17-15-16l18 0c0 0 9 20 32 43 18 17 41 37 68 59 16 13 30 31 47 45 16 14 35 23 51 37 34 29 70 65 105 91 22 16 43 31 63 43-3 1-5 1-7 1l-15 2c-7 1-14 1-22 2-142 10-351-11-352-9-2 4 156 56 303 77 131 19 276 13 277 13v90l200-190z" horiz-adv-x="1000" />
<glyph glyph-name="hand14" unicode="&#xe809;" d="m918 125c-29 41-36 84-73 142-13 21-29 40-43 60-56 82-110 125-125 154-1 3-14 26-50 64 165 7 286 12 286 14 0 4-144 56-313 93-142 31-325 44-332 45l-1 148-226-257 236-252-3 58c2-3 4-6 5-9 5-6 13-19 18-26 15-21 30-36 40-54 14-26 28-46 45-72 41-59 50-118 52-133l-10 19c0 0 1-2 3-7-17 34-60 107-95 77-12-9 5-36 0-65-5-24-26-57 0-82 31-30 57-90 103-115 72-39 172-45 232-53 33-4 42-17 56-18 91-7 265 130 261 176-5 46-32 46-66 93z m-335 479l0 0 21-38 0 0c0 0 0 0 0 0-12 8-28 16-34 21-36 28-60 0-53-18 1-1 1-3 2-4l0 0 0 0c3-9 4-12 5-14l0 0c0 0 0 0 0 0 0 0 0 0 0 0-4 2-14 9-30 23 1 3 1 5 2 8 1 2 3 5 5 9l15 15c9 7 20 11 32 11 13 0 26-5 35-13z m-168 49c17 0 32-7 42-19l0 0c0 0 11-15 12-23 2-8 2-13 2-14 0 0 0 0 0-1-23 23-43 38-55 38-15 0-39-7-38-28 1-5 2-11 4-15l0 0c0 0 0-2 5-9 0 0 0 0 0-1 3-5 7-9 12-14 0 0 1 0 1-1 3-3 6-8 9-11 4-6 6-11 6-13 0 0 0 0 0 0-4 3-23 19-48 38-2 2-4 4-6 6-1 3-2 7-2 11 0 2 1 4 1 6 0 0 0 0 0 1 0 1 0 3 1 4 0 0 0 1 0 1 5 25 27 44 54 44z m-186-38l0 1c0 31 25 55 55 55 20 0 37-10 47-25l0 0c0 0 0 0 0 0 6-9 9-19 9-30 0-3 0-5 0-8-17 20-32 38-61 43-23 3-27-14-26-33 0 0 0 0 0 0s0 0 0-1c0 0 0 0 0 0 0-6 2-28 8-39 0 0-17 18-35 18-21-1-43-23-34-57 2-9 5-18 9-27 0 0 0 0-1 0l-17 16c-6 9-10 20-10 32 0 30 25 55 56 55z" horiz-adv-x="1000" />
<glyph glyph-name="hand4" unicode="&#xe80a;" d="m560 753l-4 1c3 0 4 0 4-1z m-542-437l0-2c0 2 0 2 0 2z m904-148c-34-21-68-10-82-15-36-15-58-32-106-48-37-13-70-14-104-22-52-13-113-34-133-34-36-1-66-8-92-17l3-7 5-10h0l4-9-176-55 24 66c0 0-62 21-114 59-133 100-131 222-133 238 8-16 77-143 177-181 59-22 114-24 114-24l33 64 17-37 1-4h0l0 0c7 4 13 6 18 7 51 7 85 39 102 69 44 76-63 176-81 196-24 26-26 54-51 74-12 9-37 25-59 41-21 16-42 27-62 35h0-76c0 0 1 0 2 1l-76 0 22 182 50-48c1-2 67 72 164 86 118 17 222-15 243-21-26 4-176 9-254-42-24-16-45-39-60-59l-12-16c0-1 0-1 0-1 27-2 55-6 76-16 33-15 65-14 65-14v0h0c0 0-1 14 6 26 7 17 19 36 42 33 18-1 40-11 63-24 23 26 56 7 87-16l0 0 0 0 0 0c26 15 73-24 88-31 63-31 116-57 199-94 58-26 110-69 123-95 53-108-4-204-57-237z m-757 389c1 1 2 1 2 1 2 0 3 1 4 1l16 9c0 0 0 0 0 0-16 6-31 11-44 18-26 15-32 39-24 52 9 17 38 5 76 1 2 0 4 0 6-1 0 0 0 0 0 0l-15 19c-2 2-5 4-8 6-28 15-63 4-78-24-15-27-4-62 24-77 13-7 28-8 41-5z m212-544c5 5 7 10 8 12 0 0 0 0 0 0-43-16-70-29-84 3-12 29 4 57 24 78 0 0 0 0 0 0l-7-2c0 0 1 0 1 1-23-6-40-26-42-51-2-32 21-59 53-61 19-1 36 7 47 20z" horiz-adv-x="1000" />
<glyph glyph-name="hand5" unicode="&#xe80b;" d="m974 168c-4 19-17 42-22 63-4 17-29 74-54 86-33 17-35 65-98 137-15 16-30 44-45 62-14 17-34 31-47 49-18 22-26 51-43 72-12 14-29 23-40 35-40 49-51 71-70 78-28 11-38-5-33-31 5-31 25-68 52-98 19-19 38-58 38-60l-14-19c1 0-30 63-86 105-28 20-71 28-94 53-37 41-71 57-88 48-16-8-27-22-13-43 23-36 88-86 118-119 13-15 25-34 25-34-1-1-22 9-44 34-9 10-19 23-34 32-18 10-50 15-68 25-58 31-101 62-112 59-11-3-48-28-2-78 38-41 151-121 179-156 15-18 22-33 22-33l-23-24c0-1-25 6-66 30-14 9-34 23-50 31-22 9-41 12-62 23-14 7-27 14-39 20 0 1 0 2 0 2l3 7 0 1c6 21 15 42 27 64 4 8 8 15 13 22l0 0h0c0 0 0 0 0 0 0 0 0 0 0 0l-12 2c-17 3-32 15-40 32-13 28 0 62 28 75 28 12 60 0 74-27 0-1 1-2 2-4 0-2 1-3 2-5 0 0 0-1 0-1l2-8 1 0c8 8 17 14 26 20-10 27 3 58 30 70 27 12 59 1 73-26 35 9 71 13 106 13 5 8 13 15 23 20 28 12 60 0 74-27 79-11 136-32 136-32s-80 61-206 81c-148 24-411 14-491-279-64-233 132-382 133-383l-57-57 164-44 0 0 39-11 0 13c0 0 0 0 0 0l0 0c0 0 0 0 0 0 34-19 72-38 99-47 24-8 27-19 39-21 38-10 117-14 173 5 48 16 54 23 107 10 24-6 35-19 56-36 24-18 66-40 128 17 39 36 86 98 61 207z m-922 310c-13 29-1 63 28 75 27 13 59 1 73-25l5-11c0 0 0 0 0 0-29 15-53 25-65 19-20-10-35-35 14-83 2-2 5-4 7-7 0 0 0 0 0 0l0 0-24 1 0 0c-16 4-31 15-38 31z m137-382c-13 29 0 62 28 75 15 7 30 7 44 2 0 0 0 0 0 0 1-1 3-2 4-2 1 0 1-1 1-1 5-2 9-5 13-8 0-1 1-1 1-2 1-1 2-2 3-3 0 0 0 0 0 0 0 0 0 0 0 0-38 1-75-8-78-33-4-26 42-38 67-51 0 0 0 0 0 0 0 0-1-1-2-2-2-1-4-2-6-3-4-2-9-3-13-4h-20c-18 3-34 15-42 32z m258 15c-6-4-12-8-12-8 0-1-31 25-74 29-8 15-32 20-52 23v0l0 0v23l0 0-1 60-52-37c-6 7-76 74-99 176l-5 36c0 0 0 0 0 0 14-12 30-24 48-37 43-30 79-48 114-63 21-9 47-32 60-45 33-32 84-140 84-141 0 0-3-11-11-16z" horiz-adv-x="1000" />
<glyph glyph-name="finger2" unicode="&#xe801;" d="m870 31c-31 59-25 43-30 72-5 26-3 56-4 87-2 48-7 97-7 139 0 36-15 48-23 72-12 34-22 65-38 82-20 20-41 7-41 7-15 37-18 46-33 64-15 18-36 16-36 16s-11 52-35 79c-13 14-40 14-50 9-8-3-17-15-27-22-20-14-44-41-44-41s-4 12-15 34c-8 15-21 33-32 52 13 16 21 37 21 59 0 53-44 96-97 96-53 0-96-43-96-96 0-47 34-87 79-95 2-5 4-11 5-17 7-23 18-53 28-77 12-32 23-59 29-92 4-25 1-54 0-77 0-20-2-40-4-55-3-22-10-37-14-47-3-7-2-14-2-14s-5 0-11-1c-6-2-10-8-10-8l-10 7c0 0 2 4 0 10-2 7-6 17-11 31-2 5-4 16-5 21-5 14-10 19-10 19s6 18-2 38c-8 21-26 50-46 68-16 16-30 20-44 18-18-3-24-23-21-45 2-13 8-30 9-39 3-22-8-47-8-62 1-19 11-30 20-70 3-14 12-30 17-47 6-24 10-48 13-53 15-32 75-71 130-122 32-29 69-29 94-55 16-16 25-42 41-66 67-100 263-3 315 71 12 18 10 41 5 50z m-567 709c0 42 34 77 76 77s77-35 77-77c0-15-4-28-12-40-21 43-35 89-75 77-11-4-23-15-24-33-2-20 3-47 11-77-31 10-53 39-53 73z" horiz-adv-x="1000" />
<glyph glyph-name="hand8" unicode="&#xe80d;" d="m374 727c-4-25-24-44-50-44-11 0-22 4-30 11-3 15-4 29-3 40 2 19 13 30 24 34 29 8 44-13 59-41z m446-710c-32 59-25 43-31 72-5 26-2 57-4 88-2 48-6 98-6 140 0 36-16 48-24 72-12 35-22 66-38 83-20 20-42 7-42 7-14 37-18 47-33 65-14 18-36 15-36 15s-11 53-35 80c-13 15-40 14-50 10-8-4-18-15-28-23-20-14-44-41-44-41s-4 12-15 34c-9 19-28 43-40 67-5 9-10 19-14 28h-7l-20-206c8-19 13-38 17-61 5-25 2-53 1-77-1-20-2-40-5-56-3-21-10-37-13-47-3-7-3-13-3-13s-5 0-11-2c-6-2-10-7-10-7l-10 7c0 0 2 3 0 10-2 7-5 17-10 30-3 6-5 17-6 22-4 14-10 19-10 19s6 18-2 39c-8 21-26 49-46 68-17 16-30 20-44 18-18-3-25-23-22-45 2-13 8-31 10-40 3-21-9-47-9-62 1-19 11-30 20-71 4-14 13-30 17-47 7-24 11-48 14-54 15-31 75-71 131-122 32-29 69-29 95-55 16-16 24-43 41-67 67-101 265-3 317 72 12 17 9 41 5 50z m-506 601c-8 28-16 53-20 76-12 9-20 23-20 40 0 27 23 50 50 50 28 0 50-23 50-50 0-3 0-5 0-7 2-5 4-9 6-13h56l-111 129-110-129h57l66-367 15 161c-3 11-7 21-12 32-9 24-21 55-27 78z" horiz-adv-x="1000" />
<glyph glyph-name="hand9" unicode="&#xe80e;" d="m838 83c-10 7-39 55-59 116-17 54-24 118-47 173-6 16-17 32-28 47l0 0 0 0 2 1 44 30-49 23 64 214-130-184-10 4 0 0-19 9 10 8 0 0 31 28-54 18 27 226-91-208-34 11c-2 2-5 5-7 7l0 0 0 0 5 9h-45l-37 227-36-227h-36l0 0 12-53 1-1 0-1c1 6 2 12 5 17l0 0c7 17 23 29 43 32 8 0 16 0 23-3l10-4c0 0 0 0 0 0-2-1-3-1-5-2-18-5-35-6-48-15-14-9-20-19-23-26 0 0 0 0 0 0s-1-5-1-10c0 0 0 0 0 0-1-5 0-8 0-9 0 0 0 0 0 0 0 0-37 38-67 24-23-10-22-44-13-81-2 2-5 4-6 6-1 1-2 2-2 3-4 5-8 15-9 17-6 20-1 43 16 57 10 9 23 13 36 13 5 0 10-1 15-2 6-2 11-4 16-8 1 0 1 0 1-1 2-1 4-3 6-4 1-2 2-3 2-3l0 1c0 0 0 0 0 0l-3 11 0 1 0 0-9 41-32-31-159 140 104-188-48-42 58-14v0l16-4v0l0 0c5-18 11-36 17-52l0 1v0l-28 17v0l-46 28v-54l-145-28 145-45v-63l28 19 0 0 11 8 0 0 0 0c1-4 1-9 2-14 2-18 12-52 17-79 5-22 1-44 11-62 14-28 56-76 105-122 26-25 64-50 91-75 34-33 61-67 71-80 53-73 346 157 281 208z m-144 371l1-21c0 0 0 0 0-1-8 11-14 20-18 28-15 30-36 29-49 25v0l0 0c-7-3-12-6-12-6l0 0c0 0-1 3-4 9 5 2 10 5 15 6 0 0 0 0 0 0 8 1 16 2 16 2 7 0 14-2 21-5 15-7 26-21 30-37z m-142 115c16-1 29-9 38-21l-2 2c0 0 6-6 9-14 1-2 2-5 3-7 0-1 0-3 0-4 1-2 1-5 1-7l1 0v0l-11 5v0l0 0c-5 7-11 13-17 18-9 7-20 10-28 10v0c0 0-1 0-1 0-3 0-6 0-8-1 0 0 0 0-1 0l0 0c-5 0-9-2-9-2s-3 6-7 14c0 0 0 0 0 0l20 7c4 1 8 1 12 0z m-293-260l-14 8 0-1c-15 10-24 26-24 45 0 28 21 51 48 54 2 0 11 1 17-1 1 0 3 0 4 0 6-3 12-6 12-6l0 1c0 0 0 0 0 0 9-23 17-38 17-38s0 0 0 0c-3 4-8 6-20 11-7 4-15 7-24 9 0 0 0 0 0 0s0 0 0 0c-14 4-27 3-35-7-7-9 20-42 19-55-1-4 0-10 1-20 0 0-1 0-1 0z m129 199h0c0 0 6-1 13-2 2 0 3 0 5 0 0 0 0 0 0 0 9 1 18 6 18 6 0 0 1-3 3-8-4-2-9-3-15-4-1 0-3 0-5 0l-15 2 19-40c-13 21-23 46-23 46z m23-47l9 17 0 0 10 19c6-13 14-33 16-45 1-5 1-8 0-10 0-1 0-1 0-1-8-15-22 0-35 20z" horiz-adv-x="1000" />
<glyph glyph-name="mobiletuxedo2" unicode="&#xe80f;" d="m488 591c2-2 4-5 6-8-5-21-24-37-47-37-8 0-15 2-22 6-6 22-9 52 4 66 16 17 32 11 59-27z m393-593c-28 53-23 39-28 65-4 23-2 51-3 79-2 42-6 87-6 125 0 33-14 43-21 64-11 31-20 60-34 75-18 18-38 6-38 6-12 33-8 31-21 47-13 16-35 4-35 4s-5 16-12 26c-8 11-14 15-19 21-12 14-42 10-51 5-7-3-16-13-25-20-18-13-23-29-23-29s-17 37-27 57c-7 12-24 33-37 51l-55-64-7 8c3-5 7-9 11-11 0 0-2-13 3-25 4-12 8-32 13-43 6-15 7-14 9-20 2-7-3-10 2-30 6-22 3-53 2-74-1-19-3-36-5-50-2-20-9-34-12-43-2-6-2-12-2-12s-5 0-10-1c-5-2-9-7-9-7l-9 6c0 0 2 4 0 10-2 6 0 3-5 15-2 5-6 18-8 22-3 12-11 16-11 16s0 24-4 43c-4 19-14 30-32 47-14 14-26 18-39 16-16-2-24-21-21-40 1-12 4-21 6-29 8-34-5-56-4-70 0-17 7-21 11-40 4-13 12-27 16-42 6-22 9-43 12-48 13-29 67-64 118-110 28-26 61-26 84-50 15-14 22-38 37-60 60-90 238-2 284 65 11 16 9 37 5 45z m-456 554c-15 8-25 23-25 41 0 26 21 47 47 47 26 0 48-21 48-47 0-3-1-6-1-10 2-2 4-5 7-9l49 58h-54l-50 216-45-216h-60l98-114c-4 6-7 13-10 20-1 4-3 8-4 14z" horiz-adv-x="1000" />
<glyph glyph-name="moving" unicode="&#xe810;" d="m943 43c5-50-181-197-278-189-15 1-25 15-60 20-64 8-171 15-248 56-48 27-77 92-110 123-28 27-5 64 0 89 6 32-12 60 0 70 49 41 109-99 109-99 0-1-7 71-55 146-87 135-164 240-190 327-14 48 17 60 34 63 0 0 0 0 0 0l1 0c6 1 11 1 11 1s-16 65 33 58c26-4 42-18 56-35 0 2 1 5 1 7 0 33-27 60-60 60-33 0-60-27-60-60 0-4 1-7 1-11-26-4-46-24-50-50l-66 49 197 179v-85c7 0 171 1 298-17 152-22 281-59 281-62 0-3-146 17-312-5-27-4-55-8-80-12-3 30-29 54-60 54-33 0-59-27-59-60 0-1 0-2 0-3l2-13c0 0 0 0 0 0-2-1-4-1-6-2 4-3 8-7 12-10 28-22 51-42 51-42 0 1 0 3-1 5-1 2-2 5-4 8-3 4-5 6-5 7-2 3-5 5-7 8-13 13-21 26-22 42-2 23 24 30 39 30 15 0 42-23 73-53 27-27 69-51 94-75 25-23 42-41 42-41s5 2 12 3c16 5 45 12 58 7 25-12 74-82 134-171 15-22 32-42 47-65 39-62 46-107 77-152 37-50 65-50 70-100z" horiz-adv-x="1000" />
<glyph glyph-name="navigation" unicode="&#xe811;" d="m461 803l2 1c-1-1-2-1-2-1z m-364-650l-1 4c0-3 1-4 1-4z m791 456l0 1 0 0c-10-35-20-79-39-105-23-31-28-65-28-65s1 0 2 0c0 0 0 0 0 0s15-2 26-13c16-10 31-26 24-48-5-19-19-39-37-60 22-29-4-60-34-87 0 0 0 0 0-1 0 1 0 1 0 1s0 0 0-1c10-30-39-70-49-84-44-59-96-101-136-188-18-39 19-53-21-76-89-51-288 5-312 60-17 39-20 85-23 101-7 40-21 66-28 119-6 41-1 74-3 112-2 55-13 123-9 143 5 31 5 59 2 84 0 0 0 0 0 0l0 0-5-3c-24-16-57-42-78-75-54-81-48-240-44-267-6 22-40 131-22 255 15 102 93 172 90 174l-51 52 192 23 0-52 1-14c20-24 32-57 31-71-2-55 24-95 51-118 71-61 195 30 219 45 32 20 61 16 87 38 11 10 32 33 53 52 21 19 35 37 47 55l-25-3 39 66c-5 7-36 51-85 88-89 68-241 59-260 57 16 7 124 77 287 13 63-24 116-68 116-68l45 57 49-187-48-6-24-4z m-696-54c0-1 1-2 2-3 0 0 0 1 1 0 8-15 24-22 25-22-9 53-20 86 18 95 26 5 48-7 64-26l0 1-4 10c0 1 0 2-1 2-15 29-52 40-81 24-29-15-40-52-24-81z m623 116c0-1 1-9 2-17 1-4 2-8 4-11 8 13 15 26 24 36 21 24 47 26 59 16 15-13-3-41-14-79-1-2-1-4-2-5l17 7c2 1 4 1 5 3 27 19 33 56 14 83-20 27-57 33-84 14-16-11-24-29-25-47z" horiz-adv-x="1000" />
<glyph glyph-name="ring2" unicode="&#xe812;" d="m824 11c-29 56-23 41-28 69-5 25-3 53-4 83-2 45-6 93-6 133 0 35-15 46-23 68-11 33-21 63-36 79-19 19-40 7-40 7-13 35-17 44-31 62-14 16-35 14-35 14s-10 51-33 76c-13 14-38 14-48 9-7-3-16-14-26-21-19-14-41-40-41-40s-4 12-15 33c-8 15-22 35-34 55 11 14 17 32 17 51 0 7 0 13-2 19 2 0 4-1 5-1 40 0 72 32 72 72 0 39-32 71-72 71-39 0-71-32-71-71 0-2 0-4 0-6-5 1-11 1-17 1-47 0-85-38-85-85 0-40 28-74 66-83 2-8 4-16 7-24 6-22 17-51 26-74 12-31 22-56 28-88 4-24 1-51 0-74-1-19-2-37-4-52-3-21-10-36-13-45-3-7-2-13-2-13s-5 0-11-2c-6-2-9-6-9-6l-10 6c0 0 2 3 0 10-2 6-5 16-10 29-2 5-4 15-6 20-4 13-9 18-9 18s6 18-2 37c-8 20-25 47-44 65-15 15-28 19-42 17-17-3-23-22-20-43 2-12 8-29 9-38 3-20-8-44-8-59 1-18 10-28 19-67 3-14 12-29 16-45 6-23 10-45 13-51 14-30 72-67 125-116 30-28 65-28 90-53 15-15 23-40 38-63 64-96 252-3 302 68 11 17 9 39 4 48z m-380 825c32 0 58-26 58-57 0-32-26-58-58-58-31 0-57 26-57 58 0 31 26 57 57 57z m-140-147c0 29 23 53 52 53s53-24 53-53c0-5-1-11-3-16-15 33-30 60-61 51-10-3-21-14-23-32-1-12 1-28 5-46-14 9-23 25-23 43z m142 71l-48 48 49-24 32 6-33-30z m-2 55l-5 17h10l-5-17z m0-72l5-16h-10l5 16z m-37 36l-16-5v10l16-5z m89-5l-16 5 16 5v-10z" horiz-adv-x="1000" />
<glyph glyph-name="solid9" unicode="&#xe813;" d="m721 845v-146c1 2-157-2-308-40-162-40-349-118-347-122 0-2 131-1 264-2l84-1 0 0c0 0 0 0 0 0-16-13-31-27-45-40-16-14-35-23-50-36-17-14-31-31-46-44-26-22-49-41-66-58-23-22-31-42-31-42l-19 0c1 0 12 6 16 16 2 7 3 21 3 20 0-2 23 14 28 43 10 55-20 66-30 61-18-9-40-37-40-37 0 0-35-5-49-23-15-19-27-72-52-128-11-25 37-175 41-199 4-24 36-38 42-61 6-23 22-36 5-78-34-87 401-110 383-25-5 21-13 34 23 56 10 6 24 25 33 42 9 15 21 45 32 61 13 20 38 39 51 59 8 12 16 28 23 39 16 25 29 44 39 57 6 8 47 90 61 117 41 76 7 87-6 84-1 0-2-1-3-1 0 0 0 0 0 0-1 0-2-1-3-1-1 0-1-1-2-1-2-1-4-2-5-3-1-1-2-2-3-3-2-1-3-2-4-3-1-1-1-1-2-1-2-3-4-5-5-7-1 0-1-1-2-2l13 26c2 5 5 9 8 13 0 0 0 1 0 1 1 0 1 0 2 0 2 1 6 2 10 2 6 1 13 0 20-2 16-6 28-19 33-34l168 161-264 282z m-194-372c-29-37-55-47-55-46 0 0 8 16 23 31 14 14 31 29 50 49 4 5 9 11 14 18 3 0 6-1 8-1-13-17-26-35-40-51z m48-119c1 2 1 13 19 45 14 25 55 52 76 81 5 6 9 13 13 20 0 0 1 0 1 0l18-6c1 0 1 0 1 0-16-19-32-41-48-62-10-13-22-22-33-32-25-23-45-45-47-46z m213 119l-9-2c0 0-1 0-1 0 10 13 17 24 19 33 10 32-17 56-38 45-11-6-25-20-41-37 0 2-1 3-1 5 0 1 0 1 0 2 0 3 0 6 0 9 0 0 0 1 0 2 1 2 1 4 2 6 2 8 7 16 9 20 1 0 1 1 1 1 0 0-1 0-2 1 17 18 31 34 35 49 5 26-30 35-35 35-17 1-45-13-75-43-4-4-8-8-13-11 0 0-1 0-1 0l-12 0c0 0 0 0 0 0 17 13 32 25 39 37 14 24-5 48-29 48-11 0-30-7-53-18 0 0 0 0 0 0l17 26c14 11 32 15 49 9 23-7 37-28 37-51 12 20 36 29 59 21 27-9 42-39 34-66-3-7-6-14-11-19 6 0 11-1 16-3 27-9 42-38 34-66-5-16-17-27-30-33z" horiz-adv-x="1000" />
<glyph glyph-name="three16" unicode="&#xe814;" d="m880 63c-2 19-3 56-18 108-18 61-50 135-71 173-30 55-71 26-71 26 1-1-4 20-8 56-3 22-6 27-20 53-6 10-14 27-24 43l0 0 0 0 20 17 0 0 62 50h-182l-83 265-68-265h-174l123-98c7 18 23 30 43 30 25 0 46-20 46-45 0-2 0-3-1-5l-1-9c0 0 0 0 0 0-15 27-28 46-41 45-18-2-24-15-25-24-5-24 22-77 45-144 15-43 41-96 54-142 15-56 6-123 7-123l-8-8c0 0-1 13-5 20-5 8-11 11-10 11 1-1 3 30-17 58-12 16-32 33-51 25-8-3-6-27-5-52 2-19-16-29-10-52 5-21 25-47 37-70 9-17 10-33 23-46 12-11 49-24 76-38 53-26 59-18 106-51 32-23 54-20 94-21 70-3 188 87 184 124-5 61-25 69-27 89z m-259 519c22 0 40-16 45-36 0-1 0-1 0-2 0-2 1-4 1-7 0 0 0-1 0-1 0-3-1-6-1-9v0c0 0 0 0 0 0-14 21-29 40-45 40-36-1-38-25-23-50 4-6 9-15 14-25 0 0 0 0 0 0l-1 0c-5 1-10 3-14 6-3 2-5 4-5 4l0-1c-10 9-16 21-16 35 0 25 20 46 45 46z m-106 0c25 0 46-21 46-46l-3-14c0 0 0 0 0 0-9 18-15 31-25 38-11 7-24 3-33-1-16-7-14-35-5-63-1 0-2 1-3 2l-9 7c-8 8-13 19-13 31 0 25 20 46 45 46z m46-273l-15-8c-1 0-12 12-20 35-8 23-13 27-26 49l13 10 0 0 0 0 0 0 18 15v0l0 0c0-2 1-3 1-5 8-31 20-43 21-58 2-23 9-38 8-38z m91 38c-1 0-6-2-10 2-5 3-10 17-14 31-6 20-12 48-26 71-3 5-5 8-7 11l12 10 0 0 0 0v0l11 9c9-18 18-38 21-49 8-30 15-87 13-85z" horiz-adv-x="1000" />
<glyph glyph-name="two33" unicode="&#xe815;" d="m247 694l-72 0 173 151 184-151h-81v0c0 29-24 53-53 53-24 0-44-15-51-37-9 17-27 28-47 28-27 0-49-19-53-44z m574-735c-35-85-211-122-271-96-31 14-42 45-69 54-11 4-44 15-77 34-30 18-60 45-88 66-19 14-37 27-45 39-12 20-9 42-16 63-12 37-28 70-34 87-4 10 7 68 7 68s-24 62 11 67c24 3 54-23 70-53 16-30 11-54 11-54s10-8 12-23c3-18 5-21 5-21l5-1c0 0 7 77-10 170-6 33-23 75-34 106-11 30-18 88-23 120-7 36-11 71-10 95 3 32 31 42 39 41 15-3 23-9 26-29 3-17 11-27 15-43 6-23 9-35 22-58 12-22 12-28 16-41 6-20 17-68 25-81 16-27 23-43 28-49-1 1-2 4-3 6-5 10-13 29-25 63-7 19-13 36-18 52-6 17-10 30-12 38 0 0 0 0 0 0-21 75-14 99-8 125 4 20 17 26 32 27 23 1 35-38 44-75 11-50 34-73 41-101 17-65 34-69 36-75 0 0 33 41 66 30 37-12 48-59 49-68 0 1 4 4 10 6 9 7 22 14 34 10 39-13 32-49 65-102 15-24 18-44 20-65 7-59 26-107 35-181 5-39 2-74 14-92 8-15 16-31 5-59z m-183 482c0 0 0 0 0 0 0 0 0 0 0 0 0 0 0 0 0 0z" horiz-adv-x="1000" />
<glyph glyph-name="two36" unicode="&#xe816;" d="m787 27c-13 20-9 58-14 99-10 80-31 132-38 195-2 23-5 44-22 70-35 57-28 95-69 108-22 8-48-18-48-18 1 1-8 62-52 75-28 8-50-14-50-14-1 0-21 48-43 96-7 16-21 28-31 42 15 17 25 40 25 64 0 53-43 96-96 96-32 0-61-16-78-40 11-7 21-15 29-26 11 16 28 27 49 27 31 0 57-26 57-58 0-10-3-20-8-28-18 30-36 56-54 57-10 1-30-3-32-20-4-19-4-32 4-56-15 10-25 28-25 47 0 12 3 22 9 31-8 11-18 19-29 26 0 0 0 0 0 0-14 7-29 11-46 11-53 0-96-42-96-95 0-46 32-84 75-94 1-5 1-10 2-15 6-34 14-67 25-100 12-33 30-78 37-113 19-100 11-182 11-182l-6 0c0 0-2 3-5 22-2 17-13 25-13 25s5 26-12 58c-17 33-50 60-75 57-38-5-12-71-12-71s-11-62-7-73c7-18 24-55 37-94 7-22 3-46 17-67 8-14 27-27 48-43 30-22 62-50 94-70 36-21 71-32 83-36 29-11 41-44 74-58 64-28 253 11 290 102 12 31 4 48-5 63z m-620 688c0 31 25 57 57 57 12 0 22-3 31-9 0 0 0 0 0 0 16-10 27-28 27-48 0-9-2-17-6-24-4 14-10 26-15 36-11 19-30 22-39 22-9 0-27-12-27-43 0-12 1-26 3-43-19 10-31 29-31 52z m213-256c-7 6-13 23-31 52-8 14-19 38-26 59-5 14-6 23-17 47-6 13-10 23-14 31 4 4 8 8 11 13-8 4-16 10-22 17v0c6-7 14-13 22-17 7 9 11 20 14 31 0 0 0 0 0 0-3-11-7-22-14-31 9-5 20-9 30-11 11-26 26-61 46-109 34-81 10-90 1-82z" horiz-adv-x="1000" />
<glyph glyph-name="hand6" unicode="&#xe80c;" d="m952 53c-22 28-40 68-50 95-44 126-45 134-67 193-6 15-8 72-34 84-1 1-2 1-2 1s0 0 0 0c0 0-1 0-1 0-4 38-13 75-47 75-6 25-14 48-25 63-25 33-76-6-76-6s6 11-4 45c-7 21-20 52-32 79 1 5 3 10 5 15l2 3v0c23 60 52 137 49 143-5 10-249-33-249-33l57-60c0 0-37-33-70-77-50-65-102-150-102-150s72 68 140 112c24 16 48 27 67 34l0 0 14 5c0 0 0 0 0 0 3-32 7-68 7-103 0-27 6-68 7-83 2-32-17-52-20-87-3-27-12-173-98-195-49-13-96 14-144 27-11 3-30 5-50 5 0 0 0 0 0 0h0l5 22c0 0 0 0 0 0 4 23 12 61 22 100 19 75 43 153 43 153s-48-60-91-125c-35-53-67-112-67-112l-66 17c0 0 30-227 41-229 5 0 33 22 65 49v0l21 15-1 1c49-17 110-30 136-50 15-12 62-36 105-65 30-20 52-44 87-62 46-24 84-32 116-43 15-6 49-23 71-44 47-46 282 128 236 188z m-839 126c0 32 26 57 57 57 0 0 0 0 0 0l20-3c0 0 0 0 0 0-25-7-48-20-56-44-9-27 22-45 64-59l-19-7c-3 0-6-1-9-1-31 0-57 26-57 57z m446 627c32 0 57-26 57-57 0-12-3-23-10-32l0 0-4-6c0 0 0 0 0 0-2 4-3 7-4 11-13 35-16 66-35 68-14 0-28-16-35-45-3-12-4-26-3-41 0 0 0 0 0 0l-4 3c-12 11-19 25-19 42 0 31 26 57 57 57z" horiz-adv-x="1000" />
</font>
</defs>
</svg>
