<?xml version="1.0" standalone="no"?>
<!DOCTYPE svg PUBLIC "-//W3C//DTD SVG 1.1//EN" "http://www.w3.org/Graphics/SVG/1.1/DTD/svg11.dtd" >
<svg xmlns="http://www.w3.org/2000/svg">
<metadata>
This is a custom SVG font generated by IcoMoon.
<iconset grid="16"></iconset>
</metadata>
<defs>
<font id="im" horiz-adv-x="512" >
<font-face units-per-em="512" ascent="480" descent="-32" />
<missing-glyph horiz-adv-x="512" />
<glyph class="hidden" unicode="&#xf000;" d="M0,480L 512 -32L0 -32 z" horiz-adv-x="0" />
<glyph unicode="&#xe000;" d="M 437.856,143.68L 512,218.576L 256,480L0,218.576l 74.144-74.88l 27.632,28.224l0-158.192 
	C 101.776-9.136, 124.64-32, 147.488-32c 22.848,0, 45.712,22.864, 45.712,45.712l0,124.784 l 123.776,0 l0-124.784 c0-22.864, 22.864-45.712, 45.696-45.712
	c 22.88,0, 45.712,22.864, 45.712,45.712L 408.384,173.744 L 437.856,143.68z"  />
<glyph unicode="&#xe001;" d="M 96,384l 320,0 l0-32 L 96,352 L 96,384 z M 96,288l 320,0 l0-32 L 96,256 L 96,288 z M 96,192l 160,0 l0-32 L 96,160 L 96,192 z M 320,192l 96,0 l0-32 l-96,0 L 320,192 z M 96,96l 96,0 l0-32 L 96,64 
	L 96,96 z M 256,96l 160,0 l0-32 L 256,64 L 256,96 z M0,416l0-384 c0-32, 32-64, 64-64l 384,0 c 32,0, 64,32, 64,64L 512,416 c0,32-32,64-64,64L 64,480 C 32,480,0,448,0,416z"  />
<glyph unicode="&#xe002;" d="M 128,48c0-8, 8.336-16, 16.688-16L 480,32 l0,32 L 144.688,64 C 136.336,64, 128,56, 128,48z M 32,416l0-384 
	c0-32, 32-64, 64-64l 384,0 l0,32 L 146.080,0 C 121.040,0, 96,24, 96,48s 25.040,48, 50.080,48L 480,96 L 480,480 L 96,480 C 64,480, 32,448, 32,416z"  />
<glyph unicode="&#xe003;" d="M 32,96l0-96 l 96,0 L 32,96z M 397.712,448L 384,434.288L 466.288,352L 480,365.712L 397.712,448z M 365.712,416
	L 64,114.288L 146.288,32L 448,333.712L 365.712,416z"  />
<glyph unicode="&#xe004;" d="M 160,444.464c-32,0-64-32-64-64l0-372.816 c0-32, 19.264-38.432, 38.512-12.896l 118.992,157.856
	l 124.496-168.656C 396.992-41.776, 416-35.536, 416-3.536l0,384 c0,32-32,64-64,64L 160,444.464 z"  />
<glyph unicode="&#xe005;" d="M 401.712,11.808c 15.664-15.744, 47.024-15.744, 62.72,0l 3.808,3.824
	c 15.664,15.76, 15.664,47.28,0,63.040l-146.048,146.784l 64.912,54.368c 34.080,28.544, 25.664,69.888-16.832,82.688L 96.72,445.040
	C 54.24,457.84, 23.040,427.552, 34.336,384.432l 65.728-251.056c 11.296-43.088, 56.64-57.664, 90.704-29.12l 64.928,54.352L 401.712,11.808z"  />
<glyph unicode="&#xe006;" d="M 419.552,251.296c 0.048,1.312, 0.064,2.608, 0.064,3.92
	c0,71.12-56.88,128.784-127.040,128.784c-53.104,0-98.608-33.040-117.584-79.968c-11.104,8.528-25.072,13.616-40.256,13.616
	c-36.144,0-65.44-28.832-65.44-64.384c0-1.76, 0.064-3.504, 0.208-5.232C 29.456,237.216,0,200.864,0,157.664C0,105.92, 42.224,64, 94.32,64l 1.936,0 
	l 319.504,0 l 1.936,0 C 469.776,64, 512,105.92, 512,157.664C 512,208.768, 470.784,250.32, 419.552,251.296z"  />
<glyph unicode="&#xe007;" d="M 239.52,114.368l0,111.664 L 170.176,224l 97.664,91.856L 365.504,224l-69.344,2.048l0-61.488 l0-50.192 
	L 239.52,114.368 z M 419.552,251.296c 0.048,1.312, 0.064,2.608, 0.064,3.92c0,71.12-56.88,128.784-127.040,128.784c-53.104,0-98.608-33.040-117.584-79.968
	c-11.104,8.528-25.072,13.616-40.256,13.616c-36.144,0-65.44-28.832-65.44-64.384c0-1.76, 0.064-3.504, 0.208-5.232
	C 29.456,237.216,0,200.864,0,157.664C0,105.92, 42.224,64, 94.32,64l 1.92,0 l 319.52,0 l 1.936,0 C 469.776,64, 512,105.92, 512,157.664
	C 512,208.768, 470.784,250.32, 419.552,251.296z"  />
<glyph unicode="&#xe008;" d="M 239.52,315.856l 56.64,0 l0-50.208 l0-61.472 l 69.344,2.048l-97.664-91.84l-97.664,91.84l 69.344-2.048
	L 239.52,315.856 z M 419.552,251.296c 0.048,1.312, 0.064,2.608, 0.064,3.92c0,71.12-56.88,128.784-127.040,128.784c-53.104,0-98.608-33.040-117.584-79.968
	c-11.104,8.528-25.072,13.616-40.256,13.616c-36.144,0-65.44-28.832-65.44-64.384c0-1.76, 0.064-3.504, 0.208-5.232
	C 29.456,237.216,0,200.864,0,157.664C0,105.92, 42.224,64, 94.32,64l 1.936,0 l 319.504,0 l 1.936,0 C 469.776,64, 512,105.92, 512,157.664
	C 512,208.768, 470.784,250.32, 419.552,251.296z"  />
<glyph unicode="&#xe009;" d="M 64.48,273.712c0,79.104, 65.6,143.248, 146.528,143.248c 80.928,0, 146.528-64.144, 146.528-143.248
	c0-79.12-65.616-143.264-146.528-143.264C 130.064,130.448, 64.48,194.592, 64.48,273.712z M0,273.712c0-113.936, 94.464-206.304, 211.008-206.304
	c 33.392,0, 64.976,7.584, 93.040,21.088l 105.664-110.576c 12-12.56, 36.832-13.36, 49.664-1.6l 42.464,38.912c 12.832,11.76, 13.664,36.096, 1.664,48.656
	l-106.8,111.76c 16.144,29.152, 25.296,62.56, 25.296,98.048C 422,387.648, 327.536,480, 211.008,480C 94.464,480,0,387.648,0,273.712z"  />
<glyph unicode="&#xe00a;" d="M 248.48,384C 242.32,400.384, 233.12,416, 224,416L 64,416 C 54.88,416, 45.664,400.384, 39.52,384L 248.48,384 z M 32,352
	c-16,0-32-16-32-32l0-256 c0-32, 32-64, 64-64l 384,0 c 32,0, 64,32, 64,64L 512,288 c0,32-32,64-64,64L 256,352 L 32,352 z"  />
<glyph unicode="&#xe00b;" d="M 128,320l 64,0 l0-288 L 128,32 L 128,320 z M 224,320l 64,0 l0-288 l-64,0 L 224,320 z M 320,320l 64,0 l0-288 l-64,0 L 320,320 z M 32,416l0-64 l 32,0 l0-320 c0-32, 32-64, 64-64
	l 256,0 c 32,0, 64,32, 64,64L 448,352 l 32,0 L 480,416 l-128,0 L 352,480 L 160,480 l0-64 L 32,416 z"  />
<glyph unicode="&#xe00c;" d="M 64,172.8C 64,285.904, 256,480, 256,480s 192-194.096, 192-307.2S 362.032-32, 256-32
	C 149.968-32, 64,59.68, 64,172.8z"  />
<glyph unicode="&#xe00d;" d="M 319.168,340.352c0,29.376, 23.808,53.2, 53.184,53.2c 29.392,0, 53.2-23.824, 53.2-53.2
	s-23.808-53.184-53.2-53.184C 342.992,287.168, 319.168,310.992, 319.168,340.352z M0,145.312L 177.312-32l 301.44,301.44
	c 44.336,44.336, 44.336,132.992,0,177.312s-132.992,44.336-177.312,0L0,145.312z"  />
<glyph unicode="&#xe00e;" d="M0,116.432C 44.624,28.368, 135.984-32, 241.456-32C 390.88-32, 512,89.12, 512,238.544
	C 512,344.016, 451.632,435.376, 363.568,480c 18.592-36.688, 29.072-78.16, 29.072-122.096c0-149.408-121.104-270.56-270.544-270.56
	C 78.16,87.344, 36.688,97.84,0,116.432z"  />
<glyph unicode="&#xe00f;" d="M 146.288,224c0,58.912, 49.12,106.672, 109.712,106.672s 109.712-47.76, 109.712-106.672
	s-49.12-106.672-109.712-106.672S 146.288,165.088, 146.288,224z M0,220.16C 47.408,127.424, 143.392,64, 254.112,64C 367.84,64, 466.064,130.96, 512,227.84
	C 464.592,320.576, 368.592,384, 257.888,384C 144.16,384, 45.952,317.040,0,220.16z M 201.136,224c0-29.456, 24.56-53.328, 54.864-53.328s 54.864,23.872, 54.864,53.328
	S 286.304,277.328, 256,277.328S 201.136,253.456, 201.136,224z"  />
<glyph unicode="&#xe010;" d="M 66.72,256C 80.208,336.4, 143.616,399.792, 224,413.28L 224,320 l 64,0 L 288,413.28 
	c 80.384-13.488, 143.792-76.88, 157.28-157.28L 352,256 l0-64 l 93.28,0 c-13.488-80.4-76.896-143.792-157.28-157.28L 288,128 l-64,0 l0-93.28 C 143.616,48.208, 80.208,111.6, 66.72,192L 160,192 
	l0,64 L 66.72,256 z M0,224c0-141.392, 114.608-256, 256-256s 256,114.608, 256,256S 397.392,480, 256,480S0,365.392,0,224z"  />
<glyph unicode="&#xe011;" d="M 416.656,351.024C 444.32,316.112, 460.8,271.984, 460.8,224c0-113.104-91.68-204.8-204.8-204.8
	c-46.864,0-90.048,15.728-124.576,42.208L 416.656,351.024z M 51.2,224C 51.2,337.104, 142.896,428.8, 256,428.8c 46.864,0, 90.032-15.728, 124.544-42.208L 95.328,96.976
	C 67.696,131.872, 51.2,176.016, 51.2,224z M0,224c0-141.392, 114.608-256, 256-256s 256,114.608, 256,256S 397.392,480, 256,480S0,365.392,0,224z"  />
<glyph unicode="&#xe012;" d="M 224,448l0-224 l 64,0 L 288,448 L 224,448 z M 32,192c0-123.712, 100.288-224, 224-224c 123.712,0, 224,100.288, 224,224
	c0,101.472-67.472,187.184-160,214.72l0-68 c 56.496-24.688, 96-81.104, 96-146.72c0-88.368-71.632-160-160-160c-88.368,0-160,71.632-160,160
	c0,65.616, 39.488,122.032, 96,146.72L 192,406.72 C 99.472,379.184, 32,293.472, 32,192z"  />
<glyph unicode="&#xe013;" d="M 64,224C 64,330.032, 149.968,416, 256,416c 106.032,0, 192-85.968, 192-192c0-106.032-85.968-192-192-192
	C 149.968,32, 64,117.968, 64,224z M0,224c0-141.392, 114.608-256, 256-256s 256,114.608, 256,256S 397.392,480, 256,480S0,365.392,0,224z M 192,224c0,35.344, 28.656,64, 64,64
	c 35.344,0, 64-28.656, 64-64s-28.656-64-64-64C 220.656,160, 192,188.656, 192,224z M 128,224c0-70.688, 57.312-128, 128-128c 70.688,0, 128,57.312, 128,128s-57.312,128-128,128
	C 185.312,352, 128,294.688, 128,224z"  />
<glyph unicode="&#xe014;" d="M 158.784,296.8c0,51.888, 43.52,93.952, 97.216,93.952s 97.216-42.064, 97.216-93.952
	c0-51.872-43.536-93.936-97.216-93.936S 158.784,244.928, 158.784,296.8z M 64,294.464C 64,191.984, 256-32, 256-32s 192,223.984, 192,326.464
	C 448,396.928, 362.032,480, 256,480C 149.968,480, 64,396.928, 64,294.464z"  />
<glyph unicode="&#xe015;" d="M 80,400c-22-22-22-66,0-88l 88-88L 80,136
	c-22-22-22-66,0-88s 66-22, 88,0l 88,88l 88-88c 22-22, 66-22, 88,0s 22,66,0,88L 344,224
	l 88,88c 22,22, 22,66,0,88s-66,22-88,0L 256,312L 168,400C 146,422, 102,422, 80,400z"  />
<glyph unicode="&#xe016;" d="M 448,432L 196.64,203.36L 96,304L0,208L 192,16L 512,368 z"  />
<glyph unicode="&#xe017;" d="M 128,224c0,16, 16,32, 32,32l 192,0 c 16,0, 32-16, 32-32s-16-32-32-32L 160,192 C 144,192, 128,208, 128,224z M0,224
	c0-141.392, 114.608-256, 256-256s 256,114.608, 256,256S 397.392,480, 256,480S0,365.392,0,224z"  />
<glyph unicode="&#xe018;" d="M 256,96c-16,0-32,16-32,32l0,64 l-64,0 c-16,0-32,16-32,32s 16,32, 32,32l 64,0 l0,64 c0,16, 16,32, 32,32s 32-16, 32-32l0-64 l 64,0 
	c 16,0, 32-16, 32-32s-16-32-32-32l-64,0 l0-64 C 288,112, 272,96, 256,96z M0,224c0-141.392, 114.624-256, 256-256c 141.376,0, 256,114.608, 256,256S 397.376,480, 256,480
	C 114.624,480,0,365.392,0,224z"  />
<glyph unicode="&#xe019;" d="M 344,136c-11.008-11.008-32.992-11.008-44,0L 256,180l-44-44
	c-11.008-11.008-33.008-11.008-44.016,0c-10.992,11.008-10.992,32.992,0,44L 212,224l-44.016,44c-10.992,11.008-10.992,32.992,0,44
	c 11.008,11.008, 33.008,11.008, 44.016,0L 256,268l 44,44c 11.008,11.008, 32.992,11.008, 44,0s 11.008-32.992,0-44L 300,224l 44-44
	C 355.008,168.992, 355.008,147.008, 344,136z M 80,48c 97.2-97.2, 254.8-97.2, 352,0s 97.2,254.8,0,352S 177.2,497.2, 80,400
	S-17.2,145.2, 80,48z"  />
<glyph unicode="&#xe01a;" d="M 192,32c0-35.344, 28.656-64, 64-64c 35.344,0, 64,28.656, 64,64s-28.656,64-64,64
	C 220.656,96, 192,67.344, 192,32z M 192,416c0-35.344, 28.656-64, 64-64c 35.344,0, 64,28.656, 64,64c0,35.344-28.656,64-64,64C 220.656,480, 192,451.344, 192,416z M0,224
	c0-32, 32-64, 64-64l 384,0 c 32,0, 64,32, 64,64s-32,64-64,64L 64,288 C 32,288,0,256,0,224z"  />
<glyph unicode="&#xe01b;" d="M0,224c0,32, 32,64, 64,64l 384,0 c 32,0, 64-32, 64-64s-32-64-64-64L 64,160 C 32,160,0,192,0,224z"  />
<glyph unicode="&#xe01c;" d="M 256,480c-32,0-64-32-64-64l0-128 L 64,288 c-32,0-64-32-64-64s 32-64, 64-64l 128,0 l0-128 c0-32, 32-64, 64-64s 64,32, 64,64l0,128 l 128,0 
	c 32,0, 64,32, 64,64s-32,64-64,64l-128,0 L 320,416 C 320,448, 288,480, 256,480z"  />
<glyph unicode="&#xe01d;" d="M0,96c0-32, 32-64, 64-64l 384,0 c 32,0, 64,32, 64,64s-32,64-64,64L 64,160 C 32,160,0,128,0,96z M0,352c0-32, 32-64, 64-64l 384,0 
	c 32,0, 64,32, 64,64s-32,64-64,64L 64,416 C 32,416,0,384,0,352z"  />
<glyph unicode="&#xe01e;" d="M 134.992,326.4L 153.6,345.008c 9.328,9.312, 27.936,9.312, 37.248,0L 256,279.856l 65.152,65.152
	c 9.312,9.312, 27.936,9.312, 37.248,0L 377.008,326.4c 9.312-9.312, 9.312-27.936,0-37.248L 311.84,224l 65.168-65.152
	c 9.312-9.312, 9.312-27.936,0-37.248L 358.4,102.992c-9.312-9.312-27.936-9.312-37.248,0L 256,168.144l-65.168-65.152
	c-9.312-9.312-27.92-9.312-37.248,0L 134.992,121.6c-9.312,9.312-9.312,27.936,0,37.248L 200.144,224l-65.152,65.152
	C 125.664,298.464, 125.664,317.088, 134.992,326.4z M0,224c0-141.392, 114.608-256, 256-256c 141.376,0, 256,114.608, 256,256S 397.376,480, 256,480C 114.608,480,0,365.392,0,224z"  />
<glyph unicode="&#xe01f;" d="M 128,224c0,16, 16,32, 32,32l 192,0 c 16,0, 32-16, 32-32s-16-32-32-32L 160,192 C 144,192, 128,208, 128,224z M0,224
	c0-141.392, 114.608-256, 256-256s 256,114.608, 256,256c0,141.376-114.608,256-256,256S0,365.376,0,224z"  />
<glyph unicode="&#xe020;" d="M 156,155.072L 96,214.16l 60,59.072l 62.896-61.936L 376,352l 40-39.392L 216,96L 176,135.376
	L 156,155.072z M0,224c0-141.392, 114.608-256, 256-256c 141.376,0, 256,114.608, 256,256c0,141.376-114.624,256-256,256C 114.608,480,0,365.376,0,224z"  />
<glyph unicode="&#xe021;" d="M 128,160c0,16, 16,32, 32,32l 192,0 c 16,0, 32-16, 32-32s-16-32-32-32L 160,128 C 144,128, 128,144, 128,160z M 128,288c0,16, 16,32, 32,32
	l 192,0 c 16,0, 32-16, 32-32s-16-32-32-32L 160,256 C 144,256, 128,272, 128,288z M0,224c0-141.392, 114.608-256, 256-256s 256,114.608, 256,256c0,141.376-114.608,256-256,256S0,365.376,0,224z"  />
<glyph unicode="&#xe022;" d="M 195.296,464l 21.664-195.504L 18.512,323.776L0,212.72l 188.992-14.784l-121.92-159.152L 175.248-16
	l 78.656,172.944L 341.536-16l 105.024,54.784l-124.56,159.152L 512,212.72l-14.752,111.056l-203.248-55.28L 315.68,464L 195.296,464 L 195.296,464z"  />
<glyph unicode="&#xe023;" d="M 192,448l 96,0 l0-32 l-96,0 L 192,448 z M 128,384l 224,0 l0-320 L 128,64 L 128,384 z M 224,32l 32,0 l0-32 l-32,0 L 224,32 z M 128,480C 112,480, 96,464, 96,448l0-448 
	c0-16, 16-32, 32-32l 224,0 c 16,0, 32,16, 32,32L 384,448 c0,16-16,32-32,32L 128,480 z"  />
<glyph unicode="&#xe024;" d="M 32,448l 416,0 l0-384 L 32,64 L 32,448 z M 224,32l 32,0 l0-32 l-32,0 L 224,32 z M0,32c0-32, 32-64, 64-64l 352,0 c 32,0, 64,32, 64,64L 480,416 
	c0,32-32,64-64,64L 64,480 C 32,480,0,448,0,416L0,32 z"  />
<glyph unicode="&#xe025;" d="M 352,416L 160,416 L 160,448 c0,16-16,32-32,32S 96,464, 96,448l0-416 c0-32, 32-64, 64-64l 192,0 c 32,0, 64,32, 64,64L 416,352 C 416,384, 384,416, 352,416z
	 M 192,0L 128,0 l0,64 l 64,0 L 192,0 z M 192,96L 128,96 l0,64 l 64,0 L 192,96 z M 192,192L 128,192 l0,64 l 64,0 L 192,192 z M 288,0l-64,0 l0,64 l 64,0 L 288,0 z M 288,96l-64,0 l0,64 l 64,0 L 288,96 z M 288,192l-64,0 l0,64 l 64,0 L 288,192 z M 384,0l-64,0 l0,64 l 64,0 
	L 384,0 z M 384,96l-64,0 l0,64 l 64,0 L 384,96 z M 384,192l-64,0 l0,64 l 64,0 L 384,192 z M 384,288L 128,288 L 128,384 l 32,0 l 224,0 L 384,288 z"  />
<glyph unicode="&#xe026;" d="M 416,480l0-512 l 64,0 L 480,480 L 416,480 z M 320,384l0-416 l 64,0 L 384,384 L 320,384 z M 224,288l0-320 l 64,0 L 288,288 L 224,288 z M 128,192l0-224 l 64,0 L 192,192 L 128,192 z M 32,96l0-128 l 64,0 
	l0,128 L 32,96 z"  />
<glyph unicode="&#xe027;" d="M 128,224l0-64 l 256,0 l0,64 L 128,224 z M 64,352l0-64 l 384,0 L 448,352 L 64,352 z M0,480l0-64 l 512,0 L 512,480 L0,480 z M 192,32c0-35.344, 28.656-64, 64-64
	c 35.344,0, 64,28.656, 64,64s-28.656,64-64,64C 220.656,96, 192,67.344, 192,32z"  />
<glyph unicode="&#xe028;" d="M 32,352l 416,0 l0-64 l0-128 l0-64 L 32,96 L 32,352 z M 64,384c-32,0-64-32-64-64l0-192 c0-32, 32-64, 64-64l 352,0 c 32,0, 64,32, 64,64l0,32 l 32,0 l0,128 l-32,0 
	l0,32 c0,32-32,64-64,64L 64,384 z M 64,320l0-192 l 352,0 L 64,320z"  />
<glyph unicode="&#xe029;" d="M 192,128c 16,0, 32,16, 32,32l0,128 c0,16-16,32-32,32s-32-16-32-32l0-128 C 160,144, 176,128, 192,128zM 96,128c 16,0, 32,16, 32,32l0,128 c0,16-16,32-32,32s-32-16-32-32l0-128 C 64,144, 80,128, 96,128zM 480,288l0,32 c0,32-32,64-64,64L 64,384 c-32,0-64-32-64-64l0-192 c0-32, 32-64, 64-64l 352,0 c 32,0, 64,32, 64,64l0,32 l 32,0 l0,128 L 480,288 z M 448,96L 32,96 L 32,352 l 416,0 L 448,96 z"  />
<glyph unicode="&#xe02a;" d="M 32,352l 416,0 l0-256 L 32,96 L 32,352 z M 64,384c-32,0-64-32-64-64l0-192 c0-32, 32-64, 64-64l 352,0 c 32,0, 64,32, 64,64l0,32 l 32,0 l0,128 l-32,0 l0,32 
	c0,32-32,64-64,64L 64,384 z M 64,320l0-192 l 352,0 L 416,320 L 64,320 z"  />
<glyph unicode="&#xe02b;" d="M 96,352c0,32, 32,64, 64,64l 192,0 c 32,0, 64-32, 64-64s-32-64-64-64L 160,288 C 128,288, 96,320, 96,352z M 96,224l 64,0 l0-64 L 96,160 L 96,224 z
	 M 224,224l 64,0 l0-64 l-64,0 L 224,224 z M 352,224l 64,0 l0-64 l-64,0 L 352,224 z M 352,96l 64,0 l0-64 l-64,0 L 352,96 z M 224,96l 64,0 l0-64 l-64,0 L 224,96 z M 96,96l 64,0 l0-64 L 96,32 L 96,96 z M 32,416l0-384 c0-32, 32-64, 64-64l 320,0 c 32,0, 64,32, 64,64L 480,416 
	c0,32-32,64-64,64L 96,480 C 64,480, 32,448, 32,416z"  />
<glyph unicode="&#xe02c;" d="M 384,480L 128,257.6l 138.656-74.144L 128-32l 256,222.4l-106.656,74.144L 384,480z"  />
<glyph unicode="&#xe02d;" d="M 256,32l0-64 l 352,0 l0,64 L 256,32 z M 256,160l0-64 l 352,0 l0,64 L 256,160 z M 256,352l0-64 l 352,0 L 608,352 L 256,352 z M 256,480l0-64 l 352,0 L 608,480 L 256,480 z M0,160
	l0-192 l 192,0 L 192,160 L0,160 z M0,480l0-192 l 192,0 L 192,480 L0,480 z" horiz-adv-x="608"  />
<glyph unicode="&#xe02e;" d="M 384,64l0-96 l 96,0 l0,96 L 384,64 z M 192,64l0-96 l 96,0 l0,96 L 192,64 z M0,64l0-96 l 96,0 l0,96 L0,64 z M 384,256l0-96 l 96,0 l0,96 L 384,256 z M 192,256l0-96 
	l 96,0 l0,96 L 192,256 z M0,256l0-96 l 96,0 l0,96 L0,256 z M 384,448l0-96 l 96,0 L 480,448 L 384,448 z M 192,448l0-96 l 96,0 L 288,448 L 192,448 z M0,448l0-96 l 96,0 L 96,448 L0,448 z"  />
<glyph unicode="&#xe02f;" d="M0,256l0-96 l 512,0 l0,96 L0,256 z M0,64l0-96 l 512,0 l0,96 L0,64 z M0,448l0-96 l 512,0 L 512,448 L0,448 z"  />
<glyph unicode="&#xe030;" d="M0,64l0-96 l 96,0 l0,96 L0,64 z M0,256l0-96 l 96,0 l0,96 L0,256 z M0,448l0-96 l 96,0 L 96,448 L0,448 z M 160,256l0-96 l 352,0 l0,96 L 160,256 z M 160,64l0-96 l 352,0 l0,96 
	L 160,64 z M 160,448l0-96 l 352,0 L 512,448 L 160,448 z"  />
<glyph unicode="&#xe031;" d="M 192,288l0-320 l 320,0 L 512,288 L 192,288 z M 192,480l0-128 l 320,0 L 512,480 L 192,480 z M0,480l0-512 l 128,0 L 128,480 L0,480 z"  />
<glyph unicode="&#xe032;" d="M 64,448l 64,0 l0-224 l 32,0 l0-128 L 128,96 l0-64 L 64,32 l0,64 L 32,96 l0,128 l 32,0 L 64,448 z M 384,448l 64,0 l0-224 l 32,0 l0-128 l-32,0 l0-64 l-64,0 l0,64 l-32,0 l0,128 l 32,0 L 384,448 z M 224,448l 64,0 l0-64 
	l 32,0 l0-128 l-32,0 l0-224 l-64,0 L 224,256 l-32,0 L 192,384 l 32,0 L 224,448 z M 64,480C 32,480,0,448,0,416l0-384 c0-32, 32-64, 64-64l 384,0 c 32,0, 64,32, 64,64L 512,416 c0,32-32,64-64,64L 64,480 z"  />
<glyph unicode="&#xe033;" d="M 416,256l 64,0 l0-32 l-64,0 L 416,256 z M 416,480l0-192 l-32,0 l0-96 l 32,0 l0-224 l 64,0 L 480,192 l 32,0 l0,96 l-32,0 L 480,480 L 416,480 z M 224,128l 64,0 l0-32 l-64,0 L 224,128 z M 224,480
	l0-320 l-32,0 l0-96 l 32,0 l0-96 l 64,0 l0,96 l 32,0 l0,96 l-32,0 L 288,480 L 224,480 z M 32,320l 64,0 l0-32 L 32,288 L 32,320 z M 32,480l0-128 L0,352 l0-96 l 32,0 l0-288 l 64,0 L 96,256 l 32,0 L 128,352 L 96,352 L 96,480 L 32,480 z"  />
<glyph unicode="&#xe034;" d="M 182.864,224c0,40.384, 32.736,73.136, 73.136,73.136c 40.4,0, 73.136-32.752, 73.136-73.136
	c0-40.4-32.736-73.136-73.136-73.136C 215.6,150.864, 182.864,183.6, 182.864,224z M 310.864,443.424C 310.864,461.712, 292.56,480, 274.288,480l-36.56,0 
	c-18.288,0-36.576-18.288-36.576-36.576l0-51.2 c0-18.288-12.928-23.648-25.856-10.704L 139.232,417.568c-12.928,12.944-38.8,12.944-51.712,0L 62.432,392.48
	c-12.928-12.928-12.928-38.784,0-51.712l 36.048-36.048c 12.928-12.928, 7.568-25.856-10.704-25.856l-51.2,0 C 18.288,278.864,0,260.576,0,242.288l0-36.56 
	c0-18.288, 18.288-36.576, 36.576-36.576l 51.2,0 c 18.288,0, 23.648-12.928, 10.704-25.856l-36.048-36.048c-12.928-12.944-12.928-38.8,0-51.728l 25.088-25.056
	c 12.928-12.944, 38.784-12.944, 51.712,0l 36.048,36.048c 12.928,12.928, 25.856,7.584, 25.856-10.704l0-51.216 c0-18.288, 18.288-36.56, 36.576-36.56l 36.56,0 
	c 18.288,0, 36.576,18.288, 36.576,36.56l0,51.216 c0,18.288, 12.928,23.632, 25.856,10.704l 36.048-36.048c 12.928-12.944, 38.8-12.944, 51.712,0l 25.072,25.056
	c 12.944,12.944, 12.944,38.8,0,51.728l-36.048,36.048c-12.928,12.944-7.584,25.856, 10.704,25.856l 51.216,0 c 18.288,0, 36.56,18.304, 36.56,36.576l0,36.56 
	c0,18.288-18.288,36.576-36.56,36.576l-51.216,0 c-18.288,0-23.632,12.928-10.704,25.856l 36.048,36.048c 12.944,12.928, 12.944,38.784,0,51.712
	L 424.48,417.568c-12.928,12.944-38.8,12.944-51.712,0l-36.048-36.048c-12.944-12.928-25.856-7.584-25.856,10.704L 310.864,443.424 z"  />
<glyph unicode="&#xe035;" d="M 64,448l 32,0 l0-32 L 64,416 L 64,448 z M 128,448l 32,0 l0-32 L 128,416 L 128,448 z M 192,448l 256,0 l0-32 L 192,416 L 192,448 z M 480,384l0-328 c0-28-28-56-56-56
	l-336,0 C 60,0, 32,28, 32,56L 32,384 L 480,384 z M0,416l0-384 c0-32, 32-64, 64-64l 384,0 c 32,0, 64,32, 64,64L 512,416 c0,32-32,64-64,64L 64,480 C 32,480,0,448,0,416z M 64,352l0-256 c0-32, 32-64, 64-64l 256,0 
	c 32,0, 64,32, 64,64L 448,352 L 64,352 z"  />
<glyph unicode="&#xe036;" d="M 64,448l 32,0 l0-32 L 64,416 L 64,448 z M 128,448l 32,0 l0-32 L 128,416 L 128,448 z M 192,448l 256,0 l0-32 L 192,416 L 192,448 z M 480,384l0-328 c0-28-28-56-56-56
	l-336,0 C 60,0, 32,28, 32,56L 32,384 L 480,384 z M0,416l0-384 c0-32, 32-64, 64-64l 384,0 c 32,0, 64,32, 64,64L 512,416 c0,32-32,64-64,64L 64,480 C 32,480,0,448,0,416z M 136,264L 208,192l-72-72l 48-48
	L 256,144l 72-72l 48,48L 304,192l 72,72l-48,48L 256,240l-72,72L 136,264z"  />
<glyph unicode="&#xe037;" d="M 64,448l 32,0 l0-32 L 64,416 L 64,448 z M 128,448l 32,0 l0-32 L 128,416 L 128,448 z M 192,448l 256,0 l0-32 L 192,416 L 192,448 z M 36.48,36.16
	C 33.616,42.528, 32,49.248, 32,56L 32,384 l 384,0 L 36.48,36.16z M 480,354.256L 480,56 c0-28-28-56-56-56L 98.4,0 L 480,354.256z M0,416l0-384 c0-32, 32-64, 64-64l 384,0 
	c 32,0, 64,32, 64,64L 512,384 L 512,416 c0,32-32,64-64,64L 64,480 C 32,480,0,448,0,416z"  />
<glyph unicode="&#xe038;" d="M 64,448l 32,0 l0-32 L 64,416 L 64,448 z M 128,448l 32,0 l0-32 L 128,416 L 128,448 z M 192,448l 256,0 l0-32 L 192,416 L 192,448 z M 480,384l0-328 c0-28-28-56-56-56
	l-336,0 C 60,0, 32,28, 32,56L 32,384 L 480,384 z M0,416l0-384 c0-32, 32-64, 64-64l 384,0 c 32,0, 64,32, 64,64L 512,416 c0,32-32,64-64,64L 64,480 C 32,480,0,448,0,416z"  />
<glyph unicode="&#xe039;" d="M 224,160c0,16, 16,32, 32,32s 32-16, 32-32l0-64 c0-16-16-32-32-32s-32,16-32,32L 224,160 z M 384,288L 128,288 L 128,362.656 
	C 128,405.328, 170.672,416, 213.328,416l 85.328,0 C 341.328,416, 384,405.328, 384,362.656L 384,288 z M 32,224l0-192 c0-32, 32-64, 64-64l 320,0 c 32,0, 64,32, 64,64L 480,224 
	c0,20.896-13.632,41.776-32,53.744L 448,352 c0,64-64,128-128,128l-128,0 C 128,480, 64,416, 64,352l0-74.256 C 45.632,265.776, 32,244.896, 32,224z"  />
<glyph unicode="&#xe03a;" d="M 448,277.744L 448,352 c0,64-64,128-128,128l-128,0 C 138.768,480, 85.52,435.712, 69.12,384l 63.36,0 
	c 12.032,25.056, 46.448,32, 80.864,32l 85.328,0 C 341.344,416, 384,405.328, 384,362.656L 384,288 L 64,288 l0-10.256 C 45.632,265.776, 32,244.896, 32,224l0-192 c0-32, 32-64, 64-64l 320,0 
	c 32,0, 64,32, 64,64L 480,224 C 480,244.896, 466.368,265.776, 448,277.744z M 288,96c0-16-16-32-32-32s-32,16-32,32l0,64 c0,16, 16,32, 32,32s 32-16, 32-32L 288,96 z"  />
<glyph unicode="&#xe03b;" d="M0,480l0-192 c0-128, 128-320, 256-320s 256,192, 256,320L 512,480 l-37.44,0 C 461.376,442.72, 425.808,416, 384,416
	c-41.792,0-77.376,26.72-90.56,64l-74.88,0 C 205.376,442.72, 169.808,416, 128,416S 50.624,442.72, 37.44,480L0,480 z"  />
<glyph unicode="&#xe03c;" d="M 384,80c0-26.496, 21.504-48, 48-48s 48,21.504, 48,48s-21.504,48-48,48S 384,106.496, 384,80z M 160,80
	c0-26.496, 21.488-48, 48-48c 26.496,0, 48,21.504, 48,48s-21.504,48-48,48C 181.488,128, 160,106.496, 160,80z M 143.2,312.976L 176,160l 288,0 l 48,224L 128,384 L0,416l0-32 L 143.2,312.976
	z"  />
<glyph unicode="&#xe03d;" d="M 384,96c0,17.664, 14.336,32, 32,32s 32-14.336, 32-32s-14.336-32-32-32S 384,78.336, 384,96z M 288,96
	c0,17.664, 14.336,32, 32,32s 32-14.336, 32-32s-14.336-32-32-32S 288,78.336, 288,96z M 192,96c0,17.664, 14.336,32, 32,32s 32-14.336, 32-32s-14.336-32-32-32
	S 192,78.336, 192,96z M 32,384l 448,0 l0-96 L 32,288 L 32,384 z M0,352l0-288 c0-32, 32-64, 64-64l 384,0 c 32,0, 64,32, 64,64L 512,352 c0,32-32,64-64,64L 64,416 C 32,416,0,384,0,352z"  />
<glyph unicode="&#xe03e;" d="M 128,416l 64,0 l0-64 L 128,352 L 128,416 z M 224,416l 64,0 l0-64 l-64,0 L 224,416 z M 320,416l 64,0 l0-64 l-64,0 L 320,416 z M 128,320l 64,0 l0-64 L 128,256 L 128,320 z M 224,320l 64,0 l0-64 l-64,0 L 224,320 z
	 M 128,224l 64,0 l0-64 L 128,160 L 128,224 z M 320,320l 64,0 l0-64 l-64,0 L 320,320 z M 224,224l 64,0 l0-64 l-64,0 L 224,224 z M 320,224l 64,0 l0-64 l-64,0 L 320,224 z M 64,480l0-512 l 128,0 l0,128 l 128,0 l0-128 l 128,0 L 448,480 L 64,480 z"  />
<glyph unicode="&#xe03f;" d="M 416,320c0,88.352-71.632,160-160,160C 167.632,480, 96,408.352, 96,320l 32,0 c0,70.704, 57.312,128, 128,128
	c 70.688,0, 128-57.296, 128-128L 416,320 z M 96,288L 32-32l 448,0 l-64,320L 96,288 z"  />
<glyph unicode="&#xe040;" d="M 320,384l-128,0 L 192,416 l 128,0 L 320,384 z M 96-32l 320,0 L 416,384 l-64,0 L 352,448 L 160,448 l0-64 L 96,384 L 96-32 z M 448-32c 32,0, 64,32, 64,64L 512,320 c0,32-32,64-64,64L 448-32 
	z M0,320l0-288 c0-32, 32-64, 64-64L 64,384 C 32,384,0,352,0,320z"  />
<glyph unicode="&#xe041;" d="M 169.52,173.744L 136.48,140.352L 47.424,140.352 c-6.656,0-9.168-5.216-5.024-10.432l 119.936-151.488
	c 4.128-5.216, 10.272-4.080, 12.256,2.288l 26.576,84.8l 20.4,22.928l 85.536,86.4l 28.688-173.952C 338.496-15.568, 357.84-32, 374.464-32l 34.976,0 
	L 409.44,278.272 l 102.336,103.6L 512,414.752c 0.112,16.656-16.4,33.28-33.024,33.248l-39.024-0.096L 307.088,347.2L0,347.2 l0-35.6 c0-16.672, 16.464-35.712, 32.928-38.112
	l 205.92-29.696L 169.52,173.744"  />
<glyph unicode="&#xe042;" d="M 281.6,480l-208,0 C 52.8,480, 32,458.672, 32,437.328l0-426.656 C 32-10.672, 52.8-32, 73.6-32l 332.8,0 
	c 20.784,0, 41.6,21.328, 41.6,42.672L 448,309.328 L 281.6,480z M 176,224L 176,384 l 128,0 l0-160 l 96,0 L 240,64L 80,224L 176,224 z"  />
<glyph unicode="&#xe043;" d="M 281.6,480l-208,0 C 52.8,480, 32,458.672, 32,437.328l0-426.656 C 32-10.672, 52.8-32, 73.6-32l 332.8,0 
	c 20.784,0, 41.6,21.328, 41.6,42.672L 448,309.328 L 281.6,480z M 304,224l0-160 l-128,0 L 176,224 L 80,224 L 240,384l 160-160L 304,224 z"  />
<glyph unicode="&#xe044;" d="M 73.6,480C 52.8,480, 32,458.656, 32,437.344l0-426.688 C 32-10.656, 52.8-32, 73.6-32l 332.8,0 
	c 20.784,0, 41.6,21.344, 41.6,42.656L 448,309.344 L 281.6,480L 73.6,480 z"  />
<glyph unicode="&#xe045;" d="M 96,256l 96,0 L 192,352 l 64,0 l0-96 l 96,0 l0-64 l-96,0 l0-96 l-64,0 l0,96 L 96,192 L 96,256 z M 73.6,480C 52.8,480, 32,458.672, 32,437.328l0-426.656 
	C 32-10.672, 52.8-32, 73.6-32l 332.8,0 c 20.8,0, 41.6,21.328, 41.6,42.672L 448,309.328 L 281.6,480L 73.6,480 z"  />
<glyph unicode="&#xe046;" d="M 128,256l 224,0 l0-64 L 128,192 L 128,256 z M 73.6,480C 52.8,480, 32,458.672, 32,437.328l0-426.656 C 32-10.672, 52.8-32, 73.6-32
	l 332.8,0 c 20.8,0, 41.6,21.328, 41.6,42.672L 448,309.328 L 281.6,480L 73.6,480 z"  />
<glyph unicode="&#xe047;" d="M 32,32l0-32 l 448,0 l0,32 L 32,32 z M 192,448c-16,0-32-16-32-32l0-320 l 64,0 L 224,416 C 224,432, 208,448, 192,448z M 448,384c-16,0-32-16-32-32
	l0-256 l 64,0 L 480,352 C 480,368, 464,384, 448,384z M 320,256c-16,0-32-16-32-32l0-128 l 64,0 l0,128 C 352,240, 336,256, 320,256z M 64,320c-16,0-32-16-32-32l0-192 l 64,0 L 96,288 C 96,304, 80,320, 64,320z"  />
<glyph unicode="&#xe048;" d="M 256,224l 201.136,0 c0-111.088-90.048-201.136-201.136-201.136S 54.864,112.912, 54.864,224
	S 144.912,425.136, 256,425.136L 256,224 z M0,224c0-141.392, 114.624-256, 256-256c 141.376,0, 256,114.608, 256,256S 397.376,480, 256,480C 114.624,480,0,365.392,0,224z"  />
<glyph unicode="&#xe049;" d="M 64,384l 384,0 l0-256 L 64,128 L 64,384 z M 64,448C 32,448,0,416,0,384l0-256 c0-32, 32-64, 64-64l 96,0 l0-64 c0-16, 16-32, 32-32s 32,16, 32,32l0,64 l 64,0 l0-64 
	c0-16, 16-32, 32-32s 32,16, 32,32l0,64 l 96,0 c 32,0, 64,32, 64,64L 512,384 c0,32-32,64-64,64L 64,448 z M 352,224l0-64 l 64,0 l0,64 L 352,224 z M 224,288l0-128 l 64,0 l0,128 L 224,288 z M 96,352l0-192 l 64,0 L 160,352 L 96,352 z"  />
<glyph unicode="&#xe04a;" d="M 82.432,152.688l0,142.624 l 173.040,0 L 255.472,397.568 L 429.568,224l-174.080-173.568l0,102.256  M0,224
	c0-141.392, 114.608-256, 256-256s 256,114.608, 256,256S 397.392,480, 256,480S0,365.392,0,224z"  />
<glyph unicode="&#xe04b;" d="M 429.568,295.312l0-142.624 L 256.512,152.688 l0-102.256 L 82.432,224l 174.080,173.568l0-102.256  M 512,224
	c0,141.392-114.608,256-256,256S0,365.392,0,224s 114.608-256, 256-256S 512,82.608, 512,224z"  />
<glyph unicode="&#xe04c;" d="M 184.688,397.568l 142.624,0 l0-173.040 l 102.256,0 L 256,50.432L 82.432,224.512l 102.256,0  M 256,480
	C 114.608,480,0,365.392,0,224s 114.608-256, 256-256s 256,114.608, 256,256S 397.392,480, 256,480z"  />
<glyph unicode="&#xe04d;" d="M 327.344,50.416l-142.624,0 L 184.72,223.472 L 82.464,223.472 l 173.568,174.080l 173.568-174.080l-102.256,0 
	 M 256.016-32.016c 141.392,0, 256,114.608, 256,256s-114.608,256-256,256s-256-114.608-256-256S 114.64-32.016, 256.016-32.016z"  />
<glyph unicode="&#xe04e;" d="M 32,288L 256,288L 256,448L 480,224L 256,0L 256,160L 32,160 z"  />
<glyph unicode="&#xe04f;" d="M 480,160L 256,160L 256,0L 32,224L 256,448L 256,288L 480,288 z"  />
<glyph unicode="&#xe050;" d="M 192,0L 192,224L 32,224L 256,448L 480,224L 320,224L 320,0 z"  />
<glyph unicode="&#xe051;" d="M 320,448L 320,224L 480,224L 256,0L 32,224L 192,224L 192,448 z"  />
<glyph unicode="&#xe052;" d="M 458.032,335.536L 367.536,426.032L 209.136,267.664L 96,380.784L 96,64L 412.784,64L 299.648,177.136 z"  />
<glyph unicode="&#xe053;" d="M 144.464,426.032L 53.968,335.536L 212.336,177.136L 99.216,64L 416,64L 416,380.784L 302.864,267.648 z"  />
<glyph unicode="&#xe054;" d="M 367.536,21.968L 458.032,112.464L 299.664,270.864L 412.784,384L 96,384L 96,67.216L 209.136,180.352 z"  />
<glyph unicode="&#xe055;" d="M 53.968,112.464L 144.464,21.968L 302.864,180.336L 416,67.216L 416,384L 99.216,384L 212.352,270.864 z"  />
<glyph unicode="&#xe056;" d="M 416,64l-96-96L 64,224L 320,480l 96-96L 256,224L 416,64z"  />
<glyph unicode="&#xe057;" d="M 64,64l 96-96l 256,256L 160,480L 64,384l 160-160L 64,64z"  />
<glyph unicode="&#xe058;" d="M 96,384l-96-96l 256-256l 256,256l-96,96L 256,224L 96,384z"  />
<glyph unicode="&#xe059;" d="M 96,32l-96,96L 256,384l 256-256l-96-96L 256,192L 96,32z"  />
<glyph unicode="&#xe05a;" d="M 176,352l 160,0 l-80,128L 176,352z M 176,96l 80-128l 80,128L 176,96 z M 128,144L 128,304 l-128-80L 128,144z M 384,144l 128,80l-128,80L 384,144 z"  />
<glyph unicode="&#xe05b;" d="M 196,320L 256,416l 60-96L 196,320 z M 196,128l 120,0 L 256,32L 196,128z M 160,164L 64,224
	l 96,60L 160,164 z M 352,164l0,120 L 448,224L 352,164z M0,224c0-141.392, 114.608-256, 256-256s 256,114.608, 256,256S 397.392,480, 256,480S0,365.392,0,224z"  />
<glyph unicode="&#xe05c;" d="M 420.528,228.144c-0.064-70.032-40.112-129.36-105.088-155.696
	c-64.272-26.032-133.552-11.936-182.368,36.928l 53.424,53.36L 32,162.736 l0-154.304 l 59.008,58.944c 66.064-66.144, 159.808-85.184, 246.8-49.952
	c 87.92,35.648, 142.112,115.904, 142.192,210.688L 420.528,228.144z M 91.472,219.856c 0.064,70.032, 40.096,129.36, 105.088,155.68
	c 64.272,26.048, 133.552,11.968, 182.352-36.928l-53.408-53.344L 480,285.264 L 480,439.568 L 420.992,380.64c-66.064,66.128-159.824,85.184-246.8,49.952
	C 86.256,394.96, 32.080,314.672, 32,219.904L 91.472,219.856z"  />
<glyph unicode="&#xe05d;" d="M 32,416l 448,0 l0-384 L 32,32 L 32,416 z M 64,448C 32,448,0,416,0,384l0-320 c0-32, 32-64, 64-64l 384,0 c 32,0, 64,32, 64,64L 512,384 c0,32-32,64-64,64L 64,448 z
	 M 64,336c0-26.512, 21.488-48, 48-48c 26.496,0, 48,21.488, 48,48S 138.496,384, 112,384C 85.488,384, 64,362.512, 64,336z M 448,352c-0.176,1.488-0.368,0.592-0.48-2.4
	C 447.856,350.64, 448.064,351.408, 448,352z M 448,64c0,0-1.744,252.416-0.48,285.6c-7.632-23.408-113.952-125.424-164.8-188.64L 192,256c0,0-128-168-128-160l0-32 
	l 160,0 l 128,0 L 448,64 z"  />
<glyph unicode="&#xe05e;" d="M 480,373.504L 472.576,480L 124.432,371.296L 128,279.92l0-157.824 
	c-9.312,1.376-18.56,1.568-27.12,0.496C 59.024,117.408,0,76.88,0,33.104c0-47.088, 67.136-73.232, 114.336-62.864
	c 44.544,9.808, 94.208,56.656, 87.424,96.88L 192,92.768L 192,279.92 l 224,75.968l0-172.816 c-12.72,3.024-25.76,4.064-37.504,2.592
	c-41.84-5.168-100.88-45.712-100.88-89.456c0-47.088, 67.136-73.248, 114.336-62.88c 44.56,9.792, 94.208,56.656, 87.424,96.88L 480,155.152L 480,373.504 z"  />
<glyph unicode="&#xe05f;" d="M 131.664,224c0,68.672, 55.664,124.336, 124.336,124.336s 124.336-55.664, 124.336-124.336
	S 324.672,99.664, 256,99.664S 131.664,155.328, 131.664,224z M0,224c0-141.392, 114.608-256, 256-256s 256,114.608, 256,256S 397.392,480, 256,480S0,365.392,0,224z
	 M 197.488,224c0-32.32, 26.208-58.512, 58.512-58.512S 314.512,191.68, 314.512,224S 288.32,282.512, 256,282.512S 197.488,256.32, 197.488,224z"  />
<glyph unicode="&#xe060;" d="M 128,192c0,70.688, 57.312,128, 128,128s 128-57.312, 128-128c0-70.688-57.312-128-128-128S 128,121.312, 128,192z M0,320
	l0-256 c0-32, 32-64, 64-64l 384,0 c 32,0, 64,32, 64,64L 512,320 c0,32-32,64-64,64l-99.36,0 C 350.816,389.152, 352,394.576, 352,400c0,24-24,48-48,48l-96,0 c-24,0-48-24-48-48
	c0-5.424, 1.184-10.848, 3.36-16L 64,384 C 32,384,0,352,0,320z M 192,192c0-35.344, 28.656-64, 64-64s 64,28.656, 64,64s-28.656,64-64,64S 192,227.344, 192,192z"  />
<glyph unicode="&#xe061;" d="M 416,160l 32,0 l0-64 l-32,0 L 416,160 z M 416,64l 32,0 l0-64 l-32,0 L 416,64 z M 416,256l 32,0 l0-64 l-32,0 L 416,256 z M 416,352l 32,0 l0-64 l-32,0 L 416,352 z M 416,448l 32,0 l0-64 
	l-32,0 L 416,448 z M 64,160l 32,0 l0-64 L 64,96 L 64,160 z M 64,64l 32,0 l0-64 L 64,0 L 64,64 z M 64,256l 32,0 l0-64 L 64,192 L 64,256 z M 64,352l 32,0 l0-64 L 64,288 L 64,352 z M 64,448l 32,0 l0-64 L 64,384 L 64,448 z M 384,192l0-192 L 128,0 L 128,192 L 384,192 z M 128,448l 256,0 l0-192 L 128,256 L 128,448 z M 32,480l0-512 
	l 448,0 L 480,480 L 32,480 z"  />
<glyph unicode="&#xe062;" d="M 64,448l 384,0 l0-320 L 64,128 L 64,448 z M 96,480C 64,480, 32,448, 32,416l0-384 c0-32, 32-64, 64-64l 320,0 c 32,0, 64,32, 64,64L 480,416 c0,32-32,64-64,64L 96,480 z
	"  />
<glyph unicode="&#xe063;" d="M 96,448l 320,0 l0-160 L 96,288 L 96,448 z M 160,128c0,53.008, 42.992,96, 96,96s 96-42.992, 96-96c0-53.024-42.992-96-96-96
	S 160,74.976, 160,128z M 64,416l0-384 c0-32, 32-64, 64-64l 256,0 c 32,0, 64,32, 64,64L 448,416 c0,32-32,64-64,64L 128,480 C 96,480, 64,448, 64,416z M 224,128c0-17.664, 14.336-32, 32-32s 32,14.336, 32,32
	s-14.336,32-32,32S 224,145.664, 224,128z"  />
<glyph unicode="&#xe064;" d="M 128,224c0,70.688, 57.312,128, 128,128s 128-57.312, 128-128c0-70.688-57.312-128-128-128S 128,153.312, 128,224z M 96,384
	c-32,0-64-32-64-64l0-192 c0-32, 32-64, 64-64l 320,0 c 32,0, 64,32, 64,64L 480,320 c0,32-32,64-64,64L 96,384 z M 192,224c0-35.344, 28.656-64, 64-64s 64,28.656, 64,64s-28.656,64-64,64
	S 192,259.344, 192,224z"  />
<glyph unicode="&#xe065;" d="M 224,480l0-128 l 64,0 L 288,480 L 224,480 z M 64,416l0-320 c0-64, 64-128, 128-128l 128,0 c 64,0, 128,64, 128,128L 448,416 c0,32-32,64-64,64l-64,0 l0-160 l-128,0 L 192,480 L 128,480 
	C 96,480, 64,448, 64,416z"  />
<glyph unicode="&#xe066;" d="M 224,96l 138.752-92.496C 389.376-14.256, 416,0, 416,32L 416,416 c0,32-26.624,46.256-53.248,28.496L 224,352
	l-64,0 c-32,0-64-32-64-64l0-128 c0-32, 32-64, 64-64L 224,96 z"  />
<glyph unicode="&#xe067;" d="M 64,416l 384,0 l0-256 L 64,160 L 64,416 z M 64,480C 32,480,0,448,0,416l0-256 c0-32, 32-64, 64-64l 160,0 l0-64 L 128,32 l0-64 l 256,0 l0,64 l-96,0 l0,64 l 160,0 
	c 32,0, 64,32, 64,64L 512,416 c0,32-32,64-64,64L 64,480 z"  />
<glyph unicode="&#xe068;" d="M0,284.976L0-32 l 89.824,0 L 89.824,284.976 L0,284.976 z M 134.736,284.976L 134.736-32 l 332.352,0 
	C 489.552-32, 512-9.36, 512,13.28L 512,64 l-128,0 l0,32 l 128,0 l0,64 l-128,0 l0,32 l 128,0 l0,47.696 c0,22.64-22.448,45.28-44.912,45.28L 260.496,284.976 L 260.496,402.72 
	c0,22.64-22.464,45.28-44.928,45.28s-44.912-22.64-44.912-45.28l0-117.744 L 134.736,284.976 z"  />
<glyph unicode="&#xe069;" d="M0,131.008L0,448 l 89.824,0 l0-316.992 L0,131.008 z M 134.736,131.008L 134.736,448 l 332.352,0 C 489.552,448, 512,425.36, 512,402.72L 512,352 
	l-128,0 l0-32 l 128,0 l0-64 l-128,0 l0-32 l 128,0 l0-47.696 c0-22.64-22.448-45.28-44.912-45.28L 260.48,131.024 l0-117.728 c0-22.64-22.448-45.28-44.912-45.28s-44.928,22.64-44.928,45.28l0,117.728 
	L 134.736,131.024 z"  />
<glyph unicode="&#xe06a;" d="M 96,128c0,16, 16,32, 32,32l 256,0 c 16,0, 32-16, 32-32s-16-32-32-32L 128,96 C 112,96, 96,112, 96,128z M 96,288
	c0,35.344, 28.656,64, 64,64s 64-28.656, 64-64s-28.656-64-64-64S 96,252.656, 96,288z M 288,288c0,35.344, 28.656,64, 64,64s 64-28.656, 64-64s-28.656-64-64-64
	S 288,252.656, 288,288z M0,224c0-141.392, 114.608-256, 256-256s 256,114.608, 256,256c0,141.376-114.608,256-256,256S0,365.376,0,224z"  />
<glyph unicode="&#xe06b;" d="M 96,288c0,35.344, 28.656,64, 64,64s 64-28.656, 64-64s-28.656-64-64-64S 96,252.656, 96,288z M 288,288
	c0,35.344, 28.656,64, 64,64s 64-28.656, 64-64s-28.656-64-64-64S 288,252.656, 288,288z M 96,145.136c 13.504,26.624, 308.88,28.864, 320,0
	C 438.464,86.832, 326.688,32, 256,32S 96,82.656, 96,145.136z M0,224c0-141.392, 114.608-256, 256-256s 256,114.608, 256,256c0,141.376-114.608,256-256,256
	S0,365.376,0,224z"  />
<glyph unicode="&#xe06c;" d="M 372.352,448C 323.792,448, 281.008,391.456, 256,354.208C 230.992,391.456, 188.208,448, 139.648,448C 62.512,448,0,386.112,0,309.776
		c0-43.984, 20.752-83.152, 53.088-108.464C 87.152,169.856, 243.36,25.024, 255.952,2.88l0-0.128 c0,0.016, 0.032,0.048, 0.048,0.064
		c0-0.016, 0.032-0.048, 0.048-0.064L 256.048,2.88 c 12.576,22.16, 168.8,166.992, 202.864,198.432C 491.248,226.624, 512,265.808, 512,309.776
		C 512,386.112, 449.488,448, 372.352,448z"  />
<glyph unicode="&#xe06d;" d="M 219.744,363.456c0,27.248, 21.616,49.328, 48.288,49.328c 26.656,0, 48.288-22.080, 48.288-49.328
	c0-27.264-21.632-49.344-48.288-49.344C 241.36,314.112, 219.744,336.208, 219.744,363.456z M 260.432,224.4L 512,289.184
	C 481.568,403.36, 380.848,479.856, 260.752,480C 140.672,480.144, 39.744,403.904, 9.024,289.792c-30.736-114.096, 18.592-229.424, 123.024-287.664
	c 104.432-58.272, 230.48-40.752, 314.384,43.664L 260.432,224.4z"  />
<glyph unicode="&#xe06e;" d="M 213.952,446.672c 21.024,44.432, 63.056,44.432, 84.096,0l 52.176-110.32l 116.672-17.68
	c 47.008-7.136, 59.984-48.848, 25.984-83.44l-84.416-85.872l 19.92-121.248c 8.032-48.848-25.968-74.64-68.016-51.568L 256,33.776l-104.352-57.232
	c-42.048-23.072-76.048,2.72-68.016,51.568l 19.92,121.248l-84.416,85.872c-34.016,34.592-21.008,76.304, 25.984,83.44l 116.672,17.68L 213.952,446.672z"  />
<glyph unicode="&#xe06f;" d="M 229.712,363.168c 13.136,27.776, 39.424,27.776, 52.544,0l 32.624-68.96l 72.928-11.056
	c 29.376-4.448, 37.488-30.512, 16.24-52.144l-52.768-53.664l 12.448-75.776c 5.008-30.528-16.24-46.64-42.512-32.224L 256,105.12l-65.216-35.776
	c-26.288-14.416-47.536,1.68-42.512,32.224l 12.448,75.776l-52.768,53.664c-21.264,21.632-13.136,47.696, 16.24,52.144l 72.928,11.056L 229.712,363.168z
	 M 213.968,446.672l-52.192-110.32l-116.672-17.68c-47.008-7.136-60-48.848-25.984-83.44l 84.416-85.872l-19.92-121.248
	c-8.032-48.848, 25.968-74.64, 68.016-51.568L 256,33.776l 104.352-57.232c 42.048-23.072, 76.048,2.72, 68.016,51.568l-19.92,121.248l 84.416,85.872
	c 34.016,34.592, 21.008,76.304-25.984,83.44l-116.672,17.68l-52.192,110.32C 277.008,491.104, 234.992,491.104, 213.968,446.672z"  />
<glyph unicode="&#xe070;" d="M 512,416L 9.568,416 l 226.64-190.4L 512,416z M0,364.48L0,32 l 510.72,0 L 510.72,368.48 L 236.208,128L0,364.48z"  />
<glyph unicode="&#xe071;" d="M0,256c0-40.496, 23.456-78.144, 58.4-109.12L 32,0l 144.48,80.464
	C 208.112,69.872, 239.968,64, 268.192,64C 375.904,64, 512,149.952, 512,256c0,106.032-136.096,192-243.808,192S0,362.032,0,256z"  />
<glyph unicode="&#xe072;" d="M0,282.672c0-62.288, 57.584-156.56, 118.96-164.48L 163.632,32l 100.448,85.328l 115.952,0 
	C 446.016,117.328, 512,216, 512,282.672C 512,349.328, 446.016,416, 380.032,416L 131.968,416 C 65.984,416,0,349.328,0,282.672z"  />
<glyph unicode="&#xe073;" d="M 128,384c0-48.624, 28.592-121.184, 66.4-161.76C 71.168,207.344, 32,99.184, 32-32l 448,0 
	c0,131.184-39.184,239.344-162.4,254.24C 355.408,262.816, 384,335.376, 384,384c0,70.688-57.312,96-128,96S 128,454.688, 128,384z"  />
<glyph unicode="&#xe074;" d="M 298.208,291.248L 298.208,448L 213.792,448L 213.792,291.248L 96,291.248L 256,128L 416,291.248 	zM 448,192L 448,64L 64,64L 64,192L0,192L0,0L 512,0L 512,192 	z"  />
<glyph unicode="&#xe075;" d="M 213.792,128L 298.208,128L 298.208,284.752L 416,284.752L 256,448L 96,284.752L 213.792,284.752 	zM 448,192L 448,64L 64,64L 64,192L0,192L0,0L 512,0L 512,192 	z"  />
<glyph unicode="&#xe076;" d="M 40,192L 158.544,352l 194.912,0 L 472,192L 384,192 l-64-64l-128,0 l-64,64L 40,192 z M 140.496,384L0,192l0-160 l 512,0 L 512,192 
	L 371.504,384L 140.496,384 z"  />
<glyph unicode="&#xe077;" d="M 64,320c0,48, 48,96, 96,96l 192,0 c 48,0, 96-48, 96-96l0-192 c0-48-48-96-96-96L 160,32 c-48,0-96,48-96,96L 64,320 z M0,352l0-256 
	c0-64, 64-128, 128-128l 256,0 c 64,0, 128,64, 128,128L 512,352 c0,64-64,128-128,128L 128,480 C 64,480,0,416,0,352z M 160,224c0-53.008, 42.992-96, 96-96s 96,42.992, 96,96s-42.992,96-96,96S 160,277.008, 160,224z"  />
<glyph unicode="&#xe078;" d="M 64,320c0,48, 48,96, 96,96l 192,0 c 48,0, 96-48, 96-96l0-192 c0-48-48-96-96-96L 160,32 c-48,0-96,48-96,96L 64,320 z M0,352l0-256 
	c0-64, 64-128, 128-128l 256,0 c 64,0, 128,64, 128,128L 512,352 c0,64-64,128-128,128L 128,480 C 64,480,0,416,0,352z"  />
<glyph unicode="&#xe079;" d="M 226.32,212.896L 176,267.072L 128,215.376L 224,112L 384,301.536L 352,336 	zM 384,480L 128,480 C 64,480,0,416,0,352l0-256 c0-64, 64-128, 128-128l 256,0 c 64,0, 128,64, 128,128L 512,352 C 512,416, 448,480, 384,480z M 448,128c0-48-48-96-96-96L 160,32 c-48,0-96,48-96,96L 64,320 c0,48, 48,96, 96,96
		l 192,0 c 48,0, 96-48, 96-96L 448,128 z"  />
<glyph unicode="&#xe07a;" d="M 64,224c0,35.344, 28.656,64, 64,64s 64-28.656, 64-64s-28.656-64-64-64S 64,188.656, 64,224z M 128,96
	c 70.688,0, 128,57.312, 128,128s-57.312,128-128,128s-128-57.312-128-128S 57.312,96, 128,96z M 320,224c0,35.344, 28.656,64, 64,64s 64-28.656, 64-64s-28.656-64-64-64
	S 320,188.656, 320,224z M 384,352c-70.688,0-128-57.312-128-128s 57.312-128, 128-128s 128,57.312, 128,128S 454.688,352, 384,352z"  />
<glyph unicode="&#xe07b;" d="M 192,224l-32.176-77.44L 256,160L 192,224z M 224,250.176L 282.192,192L 512,421.808L 453.808,480
	L 224,250.176z M 64,480C 32,480,0,448,0,416l0-384 c0-32, 32-64, 64-64l 384,0 c 32,0, 64,32, 64,64L 512,345.6 L 448,307.2L 448,96 c0-32-32-64-64-64L 128,32 c-32,0-64,32-64,64L 64,352 c0,32, 32,64, 64,64l 192,0 l 64,64L 64,480 z"  />
<glyph unicode="&#xe07c;" d="M 160,160l 266.256,131.376c 28.992,14.32, 28.992,42.944,0,57.248L 160,480L 160,160 z M 96,480C 80,480, 64,464, 64,448
	l0-448 c0-16, 16-32, 32-32s 32,16, 32,32L 128,448 C 128,464, 112,480, 96,480z"  />
<glyph unicode="&#xe07d;" d="M 192,208c0-11.2, 16-22.4, 32-22.4l 64,0 c 16,0, 32,11.2, 32,22.4c0,11.184-16,22.4-32,22.4l-64,0 
	C 208,230.4, 192,219.184, 192,208z M 368,320c-23.008,0-46.048-18.624-61.44-45.008c 10.672-1.056, 21.216-8.56, 29.44-19.504
	c 8.88,11.856, 20.416,19.712, 32,19.712l 64,0 c 24,0, 48-33.616, 48-67.2s-24-67.2-48-67.2l-64,0 c-11.584,0-23.12,7.856-32,19.712
	c-8.224-10.928-18.768-18.432-29.44-19.488C 321.952,114.624, 344.992,96, 368,96l 64,0 c 40,0, 80,56, 80,112s-40,112-80,112L 368,320 z M 144,96
	c 23.008,0, 46.048,18.624, 61.44,45.024c-10.688,1.040-21.216,8.56-29.44,19.488C 167.104,148.656, 155.568,140.8, 144,140.8L 80,140.8 c-24,0-48,33.616-48,67.2
	s 24,67.2, 48,67.2l 64,0 c 11.568,0, 23.104-7.856, 32-19.712c 8.224,10.944, 18.752,18.432, 29.44,19.504C 190.048,301.376, 167.008,320, 144,320L 80,320 c-40,0-80-56-80-112
	s 40-112, 80-112L 144,96 z"  />
<glyph unicode="&#xe07e;" d="M 256,480C 114.608,480,0,365.376,0,224c0-141.392, 114.608-256, 256-256s 256,114.608, 256,256
	C 512,365.376, 397.392,480, 256,480z M 391.312,96L 120.688,96 L 120.688,352 l 270.624,0 L 391.312,96 z"  />
<glyph unicode="&#xe07f;" d="M 241.888,101.344C 216.944,81.312, 192,93.248, 192,125.248L 192,322.736 
	c0,32.016, 24.816,43.792, 49.632,23.6l 101.888-82.992c 24.816-20.208, 24.688-60.464-0.272-80.512L 241.888,101.344z M0,224c0-141.392, 114.608-256, 256-256
	s 256,114.608, 256,256c0,141.376-114.608,256-256,256S0,365.376,0,224z"  />
<glyph unicode="&#xe080;" d="M 120.688,320c0,16, 16,32, 32,32L 198.4,352 c 16,0, 32-16, 32-32l0-192 c0-16-16-32-32-32L 152.688,96 c-16,0-32,16-32,32L 120.688,320 z
	 M 281.6,320c0,16, 16,32, 32,32l 45.712,0 c 16,0, 32-16, 32-32l0-192 c0-16-16-32-32-32L 313.6,96 c-16,0-32,16-32,32L 281.6,320 z M0,224c0-141.392, 114.608-256, 256-256s 256,114.608, 256,256
	c0,141.376-114.608,256-256,256S0,365.376,0,224z"  />
<glyph unicode="&#xe081;" d="M 168.752,101.344c-24.96-20.032-49.888-8.096-49.888,23.904L 118.864,322.736 
	c0,32.016, 24.816,43.792, 49.632,23.6l 101.888-82.992c 24.816-20.208, 24.688-60.464-0.272-80.512L 168.752,101.344z M 343.76,320c0,16, 16,32, 32,32l 9.136,0 
	c 16,0, 32-16, 32-32l0-192 c0-16-16-32-32-32l-9.136,0 c-16,0-32,16-32,32L 343.76,320 z M0,224c0-141.392, 114.608-256, 256-256s 256,114.608, 256,256c0,141.376-114.608,256-256,256
	S0,365.376,0,224z"  />
<glyph unicode="&#xe082;" d="M 393.136,125.248c0-32-24.944-43.936-49.888-23.904l-101.36,81.488
	c-24.96,20.048-25.072,60.32-0.272,80.512l 101.888,82.992c 24.816,20.208, 49.632,8.416, 49.632-23.6L 393.136,125.248 z M 136.24,352c 16,0, 32-16, 32-32l0-192 c0-16-16-32-32-32
	L 127.088,96 c-16,0-32,16-32,32L 95.088,320 c0,16, 16,32, 32,32L 136.24,352 z M 512,224c0,141.376-114.608,256-256,256S0,365.376,0,224c0-141.392, 114.608-256, 256-256S 512,82.608, 512,224z"  />
<glyph unicode="&#xe083;" d="M 448,448L 64,448 c0-95.136, 69.184-161.68, 160-187.52l0-197.536 C 168.832,59.392, 128,46.912, 128,32
	c0-17.664, 57.312-32, 128-32s 128,14.336, 128,32c0,14.912-40.832,27.392-96,30.96L 288,260.48 C 378.816,286.32, 448,352.864, 448,448z M 128,416l 256,0 c0-70.688-57.312-128-128-128
	S 128,345.312, 128,416z"  />
<glyph unicode="&#xe084;" d="M 448,448L 64,448 c0-95.136, 69.184-161.68, 160-187.52l0-197.536 C 168.832,59.392, 128,46.912, 128,32
	c0-17.664, 57.312-32, 128-32s 128,14.336, 128,32c0,14.912-40.832,27.392-96,30.96L 288,260.48 C 378.816,286.32, 448,352.864, 448,448z"  />
<glyph unicode="&#xe085;" d="M0,128l0-64 c0-64, 64-96, 128-96l 256,0 c 64,0, 128,32, 128,96l0,64 L0,128 z M0,224c0-16, 16-32, 32-32l 448,0 c 16,0, 32,16, 32,32
	s-16,32-32,32L 32,256 C 16,256,0,240,0,224z M0,320l 512,0 c0,96-96,160-192,160l-128,0 C 96,480,0,416,0,320z"  />
<glyph unicode="&#xe086;" d="M 320,320c0,16, 48,32, 64,32s 32-16, 32-32l0-128 c0-16-16-32-32-32s-64,16-64,32L 320,320 z M0,448l0-384 c0-32, 32-64, 64-64l 192,0 
	c 32,0, 64,32, 64,64l0,32 l 96,0 c 32,0, 64,32, 64,64L 480,352 c0,32-32,64-64,64l-96,0 L 320,448 L0,448 z"  />
<glyph unicode="&#xe087;" d="M 64,480C 32,480,0,448,0,416l0-384 c0-32, 32-64, 64-64l 384,0 c 32,0, 64,32, 64,64L 512,416 c0,32-32,64-64,64L 64,480 z M 416,64l 64,0 l0-64 l-64,0 
	L 416,64 z M 320,64l 64,0 l0-64 l-64,0 L 320,64 z M 128,64l 64,0 l0-64 L 128,0 L 128,64 z M 32,64l 64,0 l0-64 L 32,0 L 32,64 z M 416,160l 64,0 l0-64 l-64,0 L 416,160 z M 320,160l 64,0 l0-64 l-64,0 L 320,160 z M 224,160l 64,0 l0-64 l-64,0 L 224,160 z M 32,160l 64,0 l0-64 L 32,96 L 32,160 z
	 M 96,288L 32,288 L 32,352 l 64,0 L 96,288 z M 192,288L 128,288 L 128,352 l 64,0 L 192,288 z M 288,288l-64,0 L 224,352 l 64,0 L 288,288 z M 384,288l-64,0 L 320,352 l 64,0 L 384,288 z M 416,256l 64,0 l0-64 l-64,0 L 416,256 z M 320,256l 64,0 l0-64 l-64,0 L 320,256 z M 128,256l 64,0 l0-64 L 128,192 L 128,256 z M 32,256
	l 64,0 l0-64 L 32,192 L 32,256 z"  />
<glyph unicode="&#xe088;" d="M 256,224L 256,320L 224,320L 224,192L 320,192L 320,224 	zM 240,448C 107.456,448,0,340.544,0,208s 107.456-240, 240-240s 240,107.456, 240,240S 372.544,448, 240,448z M 240,28C 140.592,28, 60,108.576, 60,208
		C 60,307.408, 140.592,388, 240,388S 420,307.408, 420,208C 420,108.576, 339.408,28, 240,28z"  />
<glyph unicode="&#xe089;" d="M 480,416l-64,0 c0,16-16,32-32,32s-32-16-32-32l-64,0 c0,16-16,32-32,32s-32-16-32-32l-64,0 c0,16-16,32-32,32S 96,432, 96,416L 32,416 C 16,416,0,400,0,384l0-352 c0-32, 32-64, 64-64l 384,0 
		c 32,0, 64,32, 64,64L 512,384 C 512,400, 496,416, 480,416z M 480,61.856c0-32-32-63.984-64-63.984L 96-2.128 c-32,0-64,31.984-64,63.984L 32,352 l 448,0 L 480,61.856 zM 278,64L 328.496,64L 421.504,264L 421.504,288L 248.992,288L 248.992,256L 370.496,256 	zM 152.496,221.504c 3.008,2.496, 8.496,7.504, 16.496,15.504L 168,64l 48,0 L 216,288 l-39.504,0 l-73.504-58l 23.008-28.992L 152.496,221.504z"  />
<glyph unicode="&#xe08a;" d="M 64,224C 64,330.048, 149.968,416, 256,416s 192-85.952, 192-192c0-106.032-85.968-192-192-192S 64,117.968, 64,224z
	 M0,224c0-141.392, 114.608-256, 256-256s 256,114.608, 256,256S 397.392,480, 256,480S0,365.392,0,224z M 237.536,238.288c 7.936,8.464, 20.8,8.88, 28.72,0.912
	c 7.936-7.968, 7.936-21.264,0-29.728c-7.92-8.448-20.784-8.864-28.72-0.912C 229.616,216.512, 229.616,229.824, 237.536,238.288z M 280.608,199.28
	l 50.064,106.496l-103.392-52.96l-45.952-110.608L 280.608,199.28z"  />
<glyph unicode="&#x20;" horiz-adv-x="256" />
</font>
</defs>
</svg>
