<?xml version="1.0" standalone="no"?>
<!DOCTYPE svg PUBLIC "-//W3C//DTD SVG 1.1//EN" "http://www.w3.org/Graphics/SVG/1.1/DTD/svg11.dtd">
<svg xmlns="http://www.w3.org/2000/svg">
<metadata>Copyright (C) 2014 by original authors @ fontello.com</metadata>
<defs>
<font id="fontello" horiz-adv-x="1000" >
<font-face font-family="fontello" font-weight="400" font-stretch="normal" units-per-em="1000" ascent="850" descent="-150" />
<missing-glyph horiz-adv-x="1000" />
<glyph glyph-name="ascendant5" unicode="&#xe800;" d="m1000-88v-62h-1000v1000h63 62v-62h-62v-125h62v-63h-62v-125h62v-62h-62v-125h62v-63h-62v-125h62v-62h-62v-126h937z m-719 126c52 0 94 42 94 93 0 21-7 39-17 54l119 120c15-11 34-17 54-17 26 0 49 10 66 26l103-75c-8-13-12-29-12-45 0-52 42-94 93-94s94 42 94 94c0 35-20 66-49 82l94 377 60-15-42 150-109-112 61-16-94-374c-5 1-10 2-15 2-24 0-45-10-62-24l-104 76c6 12 10 26 10 41 0 52-42 94-94 94-51 0-93-42-93-94 0-20 6-39 17-54l-120-119c-15 10-33 17-54 17-51 0-93-42-93-94s42-93 93-93z" horiz-adv-x="1000" />
<glyph glyph-name="wristwatch5" unicode="&#xe87a;" d="m531 663c-151 0-277-108-306-250h-37c-18 0-32-14-32-32v-62c0-17 14-31 32-31h37c29-143 155-250 306-250 173 0 313 139 313 312s-140 313-313 313z m0-563c-138 0-250 112-250 250 0 138 112 250 250 250 138 0 250-112 250-250 0-138-112-250-250-250z m0-94c65 0 125 18 177 50l-52-206h-250l-51 206c52-32 112-50 176-50z m0 688c-64 0-124-18-176-49l51 205h250l52-205c-52 31-112 49-177 49z m188-313v-62h-219v219h63v-157h156z" horiz-adv-x="1000" />
<glyph glyph-name="bars10" unicode="&#xe802;" d="m63-88h937v-62h-937-63v1000h63v-938z m937 797h-380c3-4 5-9 5-15v-94c29 0 52-20 59-47h316v-31h-67c3-5 5-10 5-16v-93c29 0 52-21 59-47h3v-16-16-109c0-19-9-35-22-47h22v-31h-62v-78c0-17-14-31-32-31s-31 14-31 31v78h-503c-7-27-30-47-59-47v-94c0-5-2-11-5-15h692v-32h-875v32h130c-3 4-5 10-5 15v94c-29 0-52 20-59 47h-66v31h63v110c0 19 8 35 22 46h-85v32h125v78c0 17 14 31 31 31s32-14 32-31v-78h209c-13 11-22 28-22 47v109h-375v31h378c7 27 31 47 60 47v94c0 6 2 11 4 15h-442v32h875v-32z m-335-343h151c7 26 30 47 59 47v93c0 6 2 11 5 16h-192v-109c0-19-9-36-23-47z m-71-141c-17 0-31 14-31 31v78h-210c13-11 22-27 22-46v-110h460c-14 12-22 28-22 47v109h-188v-78c0-17-14-31-31-31z" horiz-adv-x="1000" />
<glyph glyph-name="bars11" unicode="&#xe803;" d="m1000-88v-62h-937-63v62 938h63v-938h937z m-125 938l-246-40 59-72-520-426 39-49 521 426 59-72 88 233z m-68-357l-57 70v-588h125v698l-68-180z m-432-173v-345h125v447l-125-102z m-176-145l-11 14v-214h125v294l-114-94z m364 298v-498h125v601l-125-103z" horiz-adv-x="1000" />
<glyph glyph-name="bars12" unicode="&#xe804;" d="m1000-119c0-17-14-31-31-31h-938c-17 0-31 14-31 31v938c0 17 14 31 31 31s32-14 32-31v-156h31c17 0 31-14 31-32s-14-31-31-31h-31v-125h31c17 0 31-14 31-31s-14-31-31-31h-31v-125h31c17 0 31-14 31-32s-14-31-31-31h-31v-125h31c17 0 31-14 31-31s-14-31-31-31h-31v-126h906c17 0 31-14 31-31z m-750 94c35 0 63 28 63 63v187c0 35-28 63-63 63s-62-28-62-63v-187c0-35 28-63 62-63z m188 0c34 0 62 28 62 63v375c0 34-28 62-62 62s-63-28-63-62v-375c0-35 28-63 63-63z m187 0c35 0 63 28 63 63v500c0 34-28 62-63 62s-62-28-62-62v-500c0-35 28-63 62-63z m188 0c34 0 62 28 62 63v625c0 34-28 62-62 62s-63-28-63-62v-625c0-35 28-63 63-63z" horiz-adv-x="1000" />
<glyph glyph-name="bars13" unicode="&#xe805;" d="m63-88h937v-62h-1000v1000h63v-938z m718 344v-125h188v125h-188m-31 32h250v-250h-250v250l0 0z m-281 218v-187h187v187h-187m-31 32h250v-500h-250v500l0 0z m-282 281v-250h188v250h-188m-31 31h250v-812h-250v812l0 0z" horiz-adv-x="1000" />
<glyph glyph-name="bars14" unicode="&#xe806;" d="m875-25l125-63-125-62v31h-844v844h-31l63 125 62-125h-31v-781h781v31z m-500 313h-62v187h-63v-187h-62v-188h187v188z m188-250h62v187h63v250h-63v63h-62v-63h-63v-250h63v-187z m375 625v187h-63v-187h-62v-375h62v-125h63v125h62v375h-62z" horiz-adv-x="1000" />
<glyph glyph-name="bars15" unicode="&#xe807;" d="m63-88h937v-62h-1000v1000h63v-938z m312 126h-250v250h250v-250z m-31 218h-188v-125h188v125z m344-218h-250v500h250v-500z m-32 468h-187v-187h187v187z m344 344v-812h-250v812h250z m-31-31h-188v-250h188v250z" horiz-adv-x="1000" />
<glyph glyph-name="bars16" unicode="&#xe808;" d="m344-25h-188v375h188v-375z m250 563h-188v-563h188v563z m250 187h-188v-750h188v750z m156 125v-1000h-1000v1000h1000z m-62-62h-875v-110h562v-31h-562v-94h312v-31h-312v-94h312v-31h-312v-94h62v-31h-62v-94h62v-31h-62v-94h62v-31h-62v-110h875v110h-63v31h63v94h-63v31h63v94h-63v31h63v94h-63v31h63v94h-63v31h63v94h-63v31h63v110z" horiz-adv-x="1000" />
<glyph glyph-name="bars17" unicode="&#xe809;" d="m1000-88v-62h-937-63v62 938h63v-187h62v-63h-62v-125h62v-62h-62v-125h62v-63h-62v-125h62v-62h-62v-126h937z m-687 938h-125v-875h125v875z m187-187h-125v-688h125v688z m188-188h-125v-500h125v500z m187-187h-125v-313h125v313z" horiz-adv-x="1000" />
<glyph glyph-name="bars18" unicode="&#xe80a;" d="m182 800c6 30 33 51 62 50 4 0 8 0 12-1 175-36 352-124 540-269l72 84 116-330-343 65 74 86c-169 129-332 211-484 241-34 7-56 40-49 74z m21-325c0 35-28 63-62 63h-63c-34 0-62-28-62-63v-563c0-34 28-62 62-62h63c34 0 62 28 62 62v563z m750-375c0 35-28 63-62 63h-63c-34 0-62-28-62-63v-188c0-34 28-62 62-62h63c34 0 62 28 62 62v188z m-500 250c0 35-28 63-62 63h-63c-34 0-62-28-62-63v-438c0-34 28-62 62-62h63c34 0 62 28 62 62v438z m250-125c0 35-28 63-62 63h-63c-34 0-62-28-62-63v-313c0-34 28-62 62-62h63c34 0 62 28 62 62v313z" horiz-adv-x="1000" />
<glyph glyph-name="bars19" unicode="&#xe80b;" d="m1000-88v-62h-937-63v62 938h63v-187h62v-63h-62v-125h62v-62h-62v-125h62v-63h-62v-125h62v-62h-62v-126h937z m-687 376h-125v-313h125v313z m187 187h-125v-500h125v500z m188-375h-125v-125h125v125z m187 563h-125v-688h125v688z" horiz-adv-x="1000" />
<glyph glyph-name="bars20" unicode="&#xe80c;" d="m1000-88v-62h-937-63v62 938h63v-187h62v-63h-62v-125h62v-62h-62v-125h62v-63h-62v-125h62v-62h-62v-126h937z m-687 376h-125v-313h125v313z m187 187h-125v-500h125v500z m188 188h-125v-688h125v688z m187 187h-125v-875h125v875z" horiz-adv-x="1000" />
<glyph glyph-name="bars21" unicode="&#xe80d;" d="m750 663h-187v125h187v-125z m63-63h-250v-125h250v125z m62-187h-312v-125h312v125z m63-188h-375v-125h375v125z m-375-187v-126h437v126h-437z m-313 625h188v125h-188v-125z m-62-188h250v125h-250v-125z m-63-187h313v125h-313v-125z m-62-188h375v125h-375v-125z m-63-188h438v126h-438v-126z m469-62h62v1000h-62v-1000z" horiz-adv-x="1000" />
<glyph glyph-name="bird30" unicode="&#xe80e;" d="m563 356c72 71 127 96 254 66 14 13 28 26 40 38 145 145 128 296 143 390-94-16-418-2-563-147-128-128-251-465-281-603l-156-250h94l125 219c110 29 353 143 507 273-27 16-130 26-163 14z m-319-195c57 85 240 437 600 598-42-47-508-477-600-598-9-13-13-21-13-21 2 5 7 12 13 21z" horiz-adv-x="1000" />
<glyph glyph-name="black208" unicode="&#xe80f;" d="m938 616h-125v62h-94c0 4-1 8-3 12-36 88-121 144-216 144-95 0-180-56-216-144-2-4-3-8-3-12h-93v-62h-125c-35 0-63-28-63-63v-125c0-34 28-62 63-62h375c-1 22 11 43 31 54 19 12 43 12 63 0 19-11 31-32 31-54h375c34 0 62 28 62 62v125c0 35-28 63-62 63z m-625 0v31c12 0 23 7 28 19 27 64 89 106 159 106s132-42 159-106c5-12 16-19 29-19v-31h-375z m281-313h344v-437h-875v437h343c-11-40 4-83 37-107 34-24 80-24 114 0 34 24 48 67 37 107z" horiz-adv-x="1000" />
<glyph glyph-name="briefcase14" unicode="&#xe810;" d="m938 600h-188v-62h-62v312h-375v-312h-63v62h-187c-35 0-63-28-63-62v-626c0-34 28-62 63-62h187v62h500v-62h188c34 0 62 28 62 62v626c0 34-28 62-62 62z m-719-625h-125c-17 0-31 14-31 31v125c0 18 14 32 31 32s31-14 31-32v-93h94c17 0 31-14 31-32s-14-31-31-31z m0 438h-94v-94c0-17-14-31-31-31s-31 14-31 31v125c0 17 14 31 31 31h125c17 0 31-14 31-31s-14-31-31-31z m406 125h-250v250h250v-250z m313-532c0-17-14-31-32-31h-125c-17 0-31 14-31 31s14 32 31 32h94v93c0 18 14 32 31 32s32-14 32-32v-125z m0 313c0-17-14-31-32-31s-31 14-31 31v94h-94c-17 0-31 14-31 31s14 31 31 31h125c18 0 32-14 32-31v-125z" horiz-adv-x="1000" />
<glyph glyph-name="briefcase15" unicode="&#xe811;" d="m1000 600v-187c-312-167-687-167-1000 0v187h1000z m-406-370v-67c0-35-28-63-63-63h-62c-35 0-63 28-63 63v67c-117 10-233 37-343 84v-402c0-34 28-62 62-62h750c35 0 63 28 63 62v402c-111-47-227-74-344-84z m-219 433v62c0 34 28 63 63 63h125c34 0 62-29 62-63v-62h63v62c0 69-56 125-125 125h-125c-69 0-125-56-125-125v-62h62z" horiz-adv-x="1000" />
<glyph glyph-name="briefcase16" unicode="&#xe812;" d="m438 413h125v-125h-125v125z m187-94v-63c0-17-14-31-31-31h-188c-17 0-31 14-31 31v63h-375v-344c0-69 56-125 125-125h750c69 0 125 56 125 125v344h-375z m-312 344v62c0 34 28 63 62 63h250c35 0 63-29 63-63v-62h62v62c0 69-56 125-125 125h-250c-69 0-125-56-125-125v-62h63z m562-63h-125-62-375-63-125c-69 0-125-56-125-125v-94h375v63c0 17 14 31 31 31h188c17 0 31-14 31-31v-63h375v94c0 69-56 125-125 125z" horiz-adv-x="1000" />
<glyph glyph-name="briefcase17" unicode="&#xe813;" d="m250 663v62c0 69 56 125 125 125h250c69 0 125-56 125-125v-62h-62v62c0 34-28 63-63 63h-250c-34 0-62-29-62-63v-62h-63z m625-563h-281v-62h-188v62h-281c-22 0-43 5-62 12v-137c0-69 56-125 125-125h625c69 0 125 56 125 125v137c-20-7-41-12-63-12z m0 500h-750c-69 0-125-56-125-125v-187c0-69 56-125 125-125h281v62h188v-62h281c69 0 125 56 125 125v187c0 69-56 125-125 125z" horiz-adv-x="1000" />
<glyph glyph-name="briefcase18" unicode="&#xe814;" d="m875 538c35 0 63-28 63-63v-500c0-35-28-63-63-63h-750c-34 0-62 28-62 63v500c0 35 28 63 62 63h750m0 62h-750c-69 0-125-56-125-125v-500c0-69 56-125 125-125h750c69 0 125 56 125 125v500c0 69-56 125-125 125l0 0z m-562 63v62c0 34 28 63 62 63h250c35 0 63-29 63-63v-62h62v62c0 69-56 125-125 125h-250c-69 0-125-56-125-125v-62h63z m500-313c0 17-14 31-32 31h-562c-17 0-31-14-31-31l0 0c0-17 14-31 31-31h562c18 0 32 14 32 31l0 0z m0-125c0 17-14 31-32 31h-562c-17 0-31-14-31-31l0 0c0-17 14-31 31-31h562c18 0 32 14 32 31l0 0z m0-125c0 17-14 31-32 31h-562c-17 0-31-14-31-31l0 0c0-17 14-31 31-31h562c18 0 32 14 32 31l0 0z" horiz-adv-x="1000" />
<glyph glyph-name="briefcase19" unicode="&#xe815;" d="m938 538h-63v62h-27l-8 15c-36 67-89 120-153 155-2 23-17 45-40 53-94 36-200 36-294 0-23-8-38-30-40-53-64-35-117-88-153-155l-8-15h-27v-62h-62c-35 0-63-29-63-63v-500c0-34 28-62 63-62v-32c0-17 14-31 31-31h62c18 0 32 14 32 31v32h625v-32c0-17 14-31 31-31h62c18 0 32 14 32 31v32c34 0 62 28 62 62v500c0 34-28 63-62 63z m-688 0v62h-26c29 48 69 87 116 113 10-7 22-11 35-11 7 0 15 2 22 4 66 25 140 25 206 0 20-7 40-3 56 8 48-27 88-66 117-114h-26v-62h-500z" horiz-adv-x="1000" />
<glyph glyph-name="briefcase20" unicode="&#xe816;" d="m563 350h437v-375c0-69-56-125-125-125h-750c-69 0-125 56-125 125v375h438v-62c0-35 28-63 62-63s63 28 63 63v62z m437 125v-62h-1000v62c0 69 56 125 125 125h63v31c0 18 14 32 31 32h31v62c0 69 56 125 125 125h250c69 0 125-56 125-125v-62h31c18 0 32-14 32-32v-31h62c69 0 125-56 125-125z m-625 156v-31h250v31c0 18 14 32 31 32h32v62c0 34-28 63-63 63h-250c-34 0-62-29-62-63v-62h31c17 0 31-14 31-32z" horiz-adv-x="1000" />
<glyph glyph-name="briefcase21" unicode="&#xe817;" d="m594 225h406v-250c0-69-56-125-125-125h-750c-69 0-125 56-125 125v250h406v-63h188v63z m406 250v-188h-406v63h-188v-63h-406v188c0 69 56 125 125 125h156v71c0-1-1-1-2-1-30-16-68-5-84 26-16 30-5 68 26 84 175 93 383 93 558 0 31-16 42-54 26-84-11-22-33-34-55-34-10 0-20 3-29 8-1 0-2 0-2 1v-71h156c69 0 125-56 125-125z m-344 125v98c-101 35-211 35-312 0v-98h312z m-187-313v-62h62v62h-62z" horiz-adv-x="1000" />
<glyph glyph-name="briefcase22" unicode="&#xe818;" d="m0 600v-750h1000v750h-1000z m875-594h-750v63h750v-63z m0 188h-750v62h750v-62z m0 187h-750v63h750v-63z m-687 282v187h625v-187h-63v125h-500v-125h-62z" horiz-adv-x="1000" />
<glyph glyph-name="briefcase23" unicode="&#xe819;" d="m125-150c-69 0-125 56-125 125v500c0 69 56 125 125 125v-750z m63 0h625v750h-625v-750z m687 750v-750c69 0 125 56 125 125v500c0 69-56 125-125 125z m-437 188h125c69 0 125-56 125-125h62c0 103-84 187-187 187h-125c-104 0-188-84-188-187h63c0 69 56 125 125 125z" horiz-adv-x="1000" />
<glyph glyph-name="briefcase24" unicode="&#xe81a;" d="m1000 373v-398c0-69-56-125-125-125h-750c-69 0-125 56-125 125v398c119-98 261-155 406-172v-38c16-38 53-63 94-63s78 25 94 63v38c145 17 287 74 406 172z m0 102v-21l-21-18c-111-97-246-154-385-172v24h-188v-24c-139 18-274 75-385 172l-21 18v21c0 69 56 125 125 125h63v125c0 69 56 125 125 125h375c69 0 125-56 125-125v-125h62c69 0 125-56 125-125z m-750 125h500v125c0 34-28 63-62 63h-375c-35 0-63-29-63-63v-125z" horiz-adv-x="1000" />
<glyph glyph-name="briefcase25" unicode="&#xe81b;" d="m0 600v-750h1000v750h-1000z m938-688h-875v626h875v-626z m-63 469h-750v63h750v-63z m0-187h-750v62h750v-62z m0-188h-750v63h750v-63z m-625 657h-62v187h625v-187h-63v125h-500v-125z" horiz-adv-x="1000" />
<glyph glyph-name="briefcase26" unicode="&#xe81c;" d="m875 600v63c0 103-84 187-187 187h-375c-104 0-188-84-188-187v-63c-69 0-125-56-125-125v-375c0-69 56-125 125-125v-63c0-34 28-62 63-62s62 28 62 62v63h500v-63c0-34 28-62 63-62s62 28 62 62v63c69 0 125 56 125 125v375c0 69-56 125-125 125z m-625-437c0-35-28-63-62-63s-63 28-63 63v250c0 34 28 62 63 62s62-28 62-62v-250z m0 437v63c0 34 28 62 63 62h375c34 0 62-28 62-62v-63h-500z m625-437c0-35-28-63-62-63s-63 28-63 63v250c0 34 28 62 63 62s62-28 62-62v-250z" horiz-adv-x="1000" />
<glyph glyph-name="business58" unicode="&#xe81d;" d="m1000-88v-62h-937-63v62 938h63v-938h937z m-105 351l-88 234-59-73-521 426-39-48 520-426-59-72 246-41z m-707 458v-746h125v644l-125 102z m187-154v-592h125v490l-125 102z m188-313v-279h125v259l-125 20z m187-30v-249h125v228l-125 21z" horiz-adv-x="1000" />
<glyph glyph-name="business62" unicode="&#xe81e;" d="m346 155l89 89c48-28 111-22 152 19 41 41 47 103 18 151l90 90c76-98 70-240-20-330-90-90-231-96-329-19z m89 304c39 22 87 22 126 0l90 89c-90 70-215 70-305 0l89-89z m-133 45c-70-90-70-215 0-305l89 89c-23 39-23 87 0 126l-89 90z m167 156v189c-251-15-452-216-467-467h189c15 147 131 263 278 278z m31-622c-162 0-293 124-309 282h-189c16-262 232-469 498-469s482 207 498 469h-189c-16-158-147-282-309-282z m309 344h189c-15 251-216 452-467 467v-189c147-15 263-131 278-278z" horiz-adv-x="1000" />
<glyph glyph-name="business63" unicode="&#xe81f;" d="m1000 350c0-276-224-500-500-500s-500 224-500 500h125c0-207 168-375 375-375s375 168 375 375-168 375-375 375v125c276 0 500-224 500-500z m-500 313c-173 0-312-140-312-313s139-312 312-312c173 0 313 139 313 312h-313v313z" horiz-adv-x="1000" />
<glyph glyph-name="calendar62" unicode="&#xe820;" d="m125 694v125c0 17 14 31 31 31s32-14 32-31v-125c0-17-14-31-32-31s-31 14-31 31z m531-31c18 0 32 14 32 31v125c0 17-14 31-32 31s-31-14-31-31v-125c0-17 14-31 31-31z m344-563c0-138-112-250-250-250s-250 112-250 250 112 250 250 250 250-112 250-250z m-62 0c0 103-85 188-188 188s-187-85-187-188 84-188 187-188 188 85 188 188z m-688 375h-125v-125h125v125z m-125-312h125v125h-125v-125z m188 187h125v125h-125v-125z m0-187h125v125h-125v-125z m-250-57v432h687v-125h63v243c0 38-31 69-68 69h-26v-31c0-35-28-63-63-63s-62 28-62 63v31h-375v-31c0-35-28-63-63-63s-62 28-62 63v31h-26c-38 0-68-31-68-69v-550c0-38 30-68 68-68h370v62h-370c-3 0-5 3-5 6z m562 244v125h-125v-125h125z m125-94h-31v-187h187v31c0 86-70 156-156 156z" horiz-adv-x="1000" />
<glyph glyph-name="calendar63" unicode="&#xe821;" d="m625 725h-250v63h250v-63z m375-62v-688c0-69-56-125-125-125h-750c-69 0-125 56-125 125v688c0 69 56 125 125 125v-63c-34 0-62-28-62-62v-125h875v125c0 34-28 62-63 62v63c69 0 125-56 125-125z m-750-594h-187v-94c0-35 28-63 62-63h125v157z m0 187h-187v-125h187v125z m0 219h-187v-156h187v156z m219-406h-156v-157h156v157z m0 187h-156v-125h156v125z m0 219h-156v-156h156v156z m219-406h-157v-157h157v157z m0 187h-157v-125h157v125z m0 219h-157v-156h157v156z m250-406h-188v-157h125c35 0 63 28 63 63v94z m0 187h-188v-125h188v125z m0 219h-188v-156h188v156z m-719 188h62c18 0 32 14 32 31v125c0 17-14 31-32 31h-62c-17 0-31-14-31-31v-125c0-17 14-31 31-31z m500 0h62c18 0 32 14 32 31v125c0 17-14 31-32 31h-62c-17 0-31-14-31-31v-125c0-17 14-31 31-31z" horiz-adv-x="1000" />
<glyph glyph-name="calendar64" unicode="&#xe822;" d="m313 381v-62c0-17-14-31-32-31h-62c-17 0-31 14-31 31v62c0 18 14 32 31 32h62c18 0 32-14 32-32z m-32-218h-62c-17 0-31-14-31-32v-62c0-17 14-31 31-31h62c18 0 32 14 32 31v62c0 18-14 32-32 32z m250 250h-62c-17 0-31-14-31-32v-62c0-17 14-31 31-31h62c18 0 32 14 32 31v62c0 18-14 32-32 32z m0-250h-62c-17 0-31-14-31-32v-62c0-17 14-31 31-31h62c18 0 32 14 32 31v62c0 18-14 32-32 32z m250 250h-62c-17 0-31-14-31-32v-62c0-17 14-31 31-31h62c18 0 32 14 32 31v62c0 18-14 32-32 32z m0-250h-62c-17 0-31-14-31-32v-62c0-17 14-31 31-31h62c18 0 32 14 32 31v62c0 18-14 32-32 32z m-562 500h62c18 0 32 14 32 31v125c0 17-14 31-32 31h-62c-17 0-31-14-31-31v-125c0-17 14-31 31-31z m781-63v-625c0-69-56-125-125-125h-750c-69 0-125 56-125 125v625c0 69 56 125 125 125h31v-31c0-35 28-63 63-63h62c35 0 63 28 63 63v31h312v-31c0-35 28-63 63-63h62c35 0 63 28 63 63v31h31c69 0 125-56 125-125z m-62-125c0 34-28 63-63 63h-750c-34 0-62-29-62-63v-500c0-35 28-63 62-63h750c35 0 63 28 63 63v500z m-219 188h62c18 0 32 14 32 31v125c0 17-14 31-32 31h-62c-17 0-31-14-31-31v-125c0-17 14-31 31-31z" horiz-adv-x="1000" />
<glyph glyph-name="calendar65" unicode="&#xe823;" d="m125 694v125c0 17 14 31 31 31s32-14 32-31v-125c0-17-14-31-32-31s-31 14-31 31z m531-31c18 0 32 14 32 31v125c0 17-14 31-32 31s-31-14-31-31v-125c0-17 14-31 31-31z m344-563c0-138-112-250-250-250s-250 112-250 250 112 250 250 250 250-112 250-250z m-62 0c0 103-85 188-188 188s-187-85-187-188 84-188 187-188 188 85 188 188z m-688 375h-125v-125h125v125z m-125-312h125v125h-125v-125z m188 187h125v125h-125v-125z m0-187h125v125h-125v-125z m-250-57v432h687v-125h63v243c0 38-31 69-68 69h-26v-31c0-35-28-63-63-63s-62 28-62 63v31h-375v-31c0-35-28-63-63-63s-62 28-62 63v31h-26c-38 0-68-31-68-69v-550c0-38 30-68 68-68h370v62h-370c-3 0-5 3-5 6z m562 244v125h-125v-125h125z m219-219h-188c-17 0-31-14-31-31 0-17 14-31 31-31h188c17 0 31 14 31 31 0 17-14 31-31 31z" horiz-adv-x="1000" />
<glyph glyph-name="calendar66" unicode="&#xe824;" d="m188 694c0-17-14-31-32-31l0 0c-17 0-31 14-31 31v125c0 17 14 31 31 31l0 0c18 0 32-14 32-31v-125z m500 125c0 17-14 31-32 31l0 0c-17 0-31-14-31-31v-125c0-17 14-31 31-31l0 0c18 0 32 14 32 31v125z m62-531c-103 0-187-85-187-188s84-188 187-188 188 85 188 188-85 188-188 188m0 62c138 0 250-112 250-250s-112-250-250-250-250 112-250 250 112 250 250 250l0 0z m-500 125h-125v-125h125v125z m0-187h-125v-125h125v125z m188 187h-125v-125h125v125z m0-187h-125v-125h125v125z m0-188h-370c-3 0-5 3-5 6v432h687v-125h63v243c0 38-31 69-68 69h-26v-31c0-35-28-63-63-63s-62 28-62 63v31h-375v-31c0-35-28-63-63-63s-62 28-62 63v31h-26c-38 0-68-31-68-69v-550c0-38 30-68 68-68h370v62z m187 375h-125v-125h125v125z m219-344h-63v63c0 17-14 31-31 31s-31-14-31-31v-63h-63c-17 0-31-14-31-31s14-31 31-31h63v-63c0-17 14-31 31-31s31 14 31 31v63h63c17 0 31 14 31 31s-14 31-31 31z" horiz-adv-x="1000" />
<glyph glyph-name="calendar67" unicode="&#xe825;" d="m500 350v125h125v-125h-125z m-250 125h-125v-125h125v125z m-187-369v432h687v-125h63v243c0 38-31 69-68 69h-26v-31c0-35-28-63-63-63s-62 28-62 63v31h-375v-31c0-35-28-63-63-63s-62 28-62 63v31h-26c-38 0-68-31-68-69v-550c0-38 30-68 68-68h370v62h-370c-3 0-5 3-5 6z m93 557c18 0 32 14 32 31v125c0 17-14 31-32 31s-31-14-31-31v-125c0-17 14-31 31-31z m500 0c18 0 32 14 32 31v125c0 17-14 31-32 31s-31-14-31-31v-125c0-17 14-31 31-31z m182-475c-12 13-32 13-44 0l-44-44-44 44c-12 13-32 13-44 0s-13-32 0-44l44-44-44-44c-13-12-13-32 0-44s32-13 44 0l44 44 44-44c12-13 32-13 44 0s13 32 0 44l-44 44 44 44c13 12 13 32 0 44z m162-88c0-138-112-250-250-250s-250 112-250 250 112 250 250 250 250-112 250-250z m-62 0c0 103-85 188-188 188s-187-85-187-188 84-188 187-188 188 85 188 188z m-625 63h125v125h-125v-125z m0 187h125v125h-125v-125z m-188-187h125v125h-125v-125z" horiz-adv-x="1000" />
<glyph glyph-name="calendar68" unicode="&#xe826;" d="m125 694v125c0 17 14 31 31 31s32-14 32-31v-125c0-17-14-31-32-31s-31 14-31 31z m531-31c18 0 32 14 32 31v125c0 17-14 31-32 31s-31-14-31-31v-125c0-17 14-31 31-31z m344-563c0-138-112-250-250-250s-250 112-250 250 112 250 250 250 250-112 250-250z m-62 0c0 103-85 188-188 188s-187-85-187-188 84-188 187-188 188 85 188 188z m-688 375h-125v-125h125v125z m-125-312h125v125h-125v-125z m188 187h125v125h-125v-125z m0-187h125v125h-125v-125z m-250-57v432h687v-125h63v243c0 38-31 69-68 69h-26v-31c0-35-28-63-63-63s-62 28-62 63v31h-375v-31c0-35-28-63-63-63s-62 28-62 63v31h-26c-38 0-68-31-68-69v-550c0-38 30-68 68-68h370v62h-370c-3 0-5 3-5 6z m562 244v125h-125v-125h125z m219-250h-94v94c0 17-14 31-31 31s-31-14-31-31v-125c0-17 14-31 31-31h125c17 0 31 14 31 31s-14 31-31 31z" horiz-adv-x="1000" />
<glyph glyph-name="calendar69" unicode="&#xe827;" d="m125 694v125c0 17 14 31 31 31s32-14 32-31v-125c0-17-14-31-32-31s-31 14-31 31z m531-31c18 0 32 14 32 31v125c0 17-14 31-32 31s-31-14-31-31v-125c0-17 14-31 31-31z m344-563c0-138-112-250-250-250s-250 112-250 250 112 250 250 250 250-112 250-250z m-62 0c0 103-85 188-188 188s-187-85-187-188 84-188 187-188 188 85 188 188z m-688 375h-125v-125h125v125z m-125-312h125v125h-125v-125z m188 187h125v125h-125v-125z m0-187h125v125h-125v-125z m-250-57v432h687v-125h63v243c0 38-31 69-68 69h-26v-31c0-35-28-63-63-63s-62 28-62 63v31h-375v-31c0-35-28-63-63-63s-62 28-62 63v31h-26c-38 0-68-31-68-69v-550c0-38 30-68 68-68h370v62h-370c-3 0-5 3-5 6z m562 244v125h-125v-125h125z m258-189c-13 12-32 12-45 0l-110-111-66 67c-13 12-32 12-45 0s-12-32 0-44l89-89c6-6 14-9 22-9s16 3 22 9l133 133c12 12 12 32 0 44z" horiz-adv-x="1000" />
<glyph glyph-name="circle54" unicode="&#xe828;" d="m349 153l-126-219c-134 90-223 243-223 417 0 265 207 482 469 498v-251c-123-16-219-120-219-247 0-81 39-153 99-198z m349 348l218 126c-84 127-224 212-385 222v-251c68-9 128-45 167-97z m249 72l-217-125c13-30 20-63 20-97 0-138-112-250-250-250-34 0-67 7-97 19l-125-217c67-33 142-52 222-52 276 0 500 224 500 500 0 80-19 155-53 222z" horiz-adv-x="1000" />
<glyph glyph-name="circular85" unicode="&#xe829;" d="m500 850c-276 0-500-224-500-500s224-500 500-500c276 0 500 224 500 500s-224 500-500 500z m0-875c-207 0-375 168-375 375s168 375 375 375 375-168 375-375-168-375-375-375z m313 375c0-34-28-62-63-62h-250c-34 0-62 28-62 62v250c0 35 28 63 62 63s63-28 63-63v-187h187c35 0 63-28 63-63z" horiz-adv-x="1000" />
<glyph glyph-name="clock43" unicode="&#xe82a;" d="m1000 350c0 276-224 500-500 500s-500-224-500-500 224-500 500-500 500 224 500 500z m-937 0c0 241 196 438 437 438s438-197 438-438c0-241-197-438-438-438s-437 197-437 438z m437 0v375c207 0 375-168 375-375h-375z m-255 183l-31-54-54 32 31 54 54-32z m510-366l31 54 54-31-31-54-54 31z m-384 469l-54-31-32 54 55 31 31-54z m258-572l54 31 32-54-54-31-32 54z m-98-26v-63l-62 0v63h62z m-160 26l-31-54-55 31 32 54 54-31z m-126 103l-54-32-31 55 54 31 31-54z m-57 152l-63 0 0 62h63v-62z" horiz-adv-x="1000" />
<glyph glyph-name="clock44" unicode="&#xe82b;" d="m874 850h-750c-69 0-125-56-125-125v-750c0-69 56-125 125-125h750c69 0 125 56 125 125v750c0 69-56 125-125 125z m63-437h-63v-125h63v-313c0-35-28-63-63-63h-312v63h-125v-63h-313c-34 0-62 28-62 63v313h62v125h-62v312c0 34 28 63 62 63h313v-63h125v63h312c35 0 63-29 63-63v-312z m-113 125c17-30 7-69-23-86l-271-156c-9-6-20-8-31-8s-22 2-31 8l-271 156c-30 17-40 56-23 86s56 40 86 22l239-138 239 138c30 18 69 7 86-22z" horiz-adv-x="1000" />
<glyph glyph-name="clock45" unicode="&#xe82c;" d="m999 631c0-58-23-111-61-150-53 143-174 253-323 292 40 47 99 77 165 77 121 0 219-98 219-219z m-615 142c-41 47-99 77-166 77-121 0-219-98-219-219 0-58 23-111 61-150 53 143 174 253 324 292z m521-454c0-99-35-189-93-260v-115c0-52-42-94-94-94-48 0-87 36-93 83-40-13-82-21-126-21s-86 8-126 21c-6-47-45-83-93-83-51 0-93 42-93 94v115c-59 71-94 161-94 260 0 224 182 406 406 406s406-182 406-406z m-62 0c0 189-154 344-344 344-189 0-344-155-344-344 0-190 155-344 344-344 190 0 344 154 344 344z m-313 281h-62v-281c0-6 1-11 4-16l125-216 54 31-121 209v273z" horiz-adv-x="1000" />
<glyph glyph-name="clock46" unicode="&#xe82d;" d="m500 850c-276 0-500-224-500-500s224-500 500-500 500 224 500 500-224 500-500 500z m31-936v61h-62v-61c-216 15-389 189-405 405h61v62h-61c16 217 189 390 405 405v-61h62v61c217-15 390-188 405-405h-61v-62h61c-15-216-188-390-405-405z m199 569c4-8 2-17-6-22l-165-95c2-5 4-10 4-16 0-34-28-62-63-62s-62 28-62 62l-170 98c-15 9-20 28-12 43 9 15 28 20 43 11l171-98c9 5 19 9 30 9 18 0 33-8 45-19l164 95c7 4 17 1 21-6z" horiz-adv-x="1000" />
<glyph glyph-name="clock47" unicode="&#xe82e;" d="m438 850h125v-125h-125v125z m0-1000h125v125h-125v-125z m-313 563h-125v-125h125v125z m750 0v-125h125v125h-125z m-183-458l31-54 54 32-31 54-54-32z m-469 812l31-54 54 32-31 54-54-32z m640-663l54-31 32 54-54 31-32-54z m-812 469l55-31 31 54-54 31-32-54z m726 195l-54 31-31-54 54-32 31 55z m-554-835l54-32 31 54-54 32-31-54z m726 640l-32 54-54-31 32-54 54 31z m-898-446l32-54 54 31-31 54-55-31z m449 286c-34 0-62-28-62-63s28-62 62-62c35 0 63 28 63 62s-28 63-63 63z m-62 6c16 15 38 25 62 25s46-10 63-25v244h-125v-244z m156-69c0-24-10-46-25-62h244v125h-244c15-17 25-39 25-63z" horiz-adv-x="1000" />
<glyph glyph-name="clock48" unicode="&#xe82f;" d="m575 738c0-52-42-94-94-94s-93 42-93 94 42 93 93 93 94-42 94-93z m-94-757c-31 0-56-25-56-56s25-56 56-56 57 25 57 56-26 56-57 56z m-190 681c12 6 16 22 9 34-7 12-22 16-34 9-12-7-16-22-9-34 6-12 22-16 34-9z m362-628c-30-18-40-56-23-86 18-30 56-40 86-23 30 18 40 56 23 86-18 30-56 40-86 23z m-539 473c15-8 34-3 43 12 8 15 3 34-12 43-15 8-34 3-43-12-8-15-3-34 12-43z m753-319c-32 19-74 7-93-25-19-33-8-75 25-94 33-19 75-8 94 25s7 75-26 94z m-754 143c0 21-17 38-38 38s-37-17-37-38 16-37 37-37c21 0 38 17 38 37z m775 75c-42 0-75-33-75-75s33-75 75-75 75 34 75 75c-1 42-34 75-75 75z m-780-240c-21-12-29-39-16-60 12-21 38-28 59-16 21 12 28 39 16 60-12 21-39 28-59 16z m766 298c39 23 52 72 29 111-22 39-72 52-111 30-38-23-52-72-29-111s72-52 111-30z m-571-441c-24 14-54 5-68-19-14-23-6-54 18-68 24-14 55-5 68 18 14 24 6 55-18 69z m425 736c-42 24-95 10-119-32-24-42-10-96 32-120 41-24 95-9 119 32 24 42 10 96-32 120z m-215-446v268h-63v-232l-201-116 31-54 233 134z" horiz-adv-x="1000" />
<glyph glyph-name="clock49" unicode="&#xe830;" d="m188 319l-63 0 0 62h63v-62z m3 246l-31-55 54-31 31 54-54 32z m684-215c0 207-168 375-375 375v-750c207 0 375 168 375 375z m-535 340l-55-31 32-54 54 31-31 54z m-126-469l-54-31 31-55 54 32-31 54z m286-371c-276 0-500 224-500 500s224 500 500 500 500-224 500-500-224-500-500-500z m0 62c241 0 438 197 438 438s-197 438-438 438-437-197-437-438 196-438 437-438z m-183 183l-32-54 55-31 31 54-54 31z" horiz-adv-x="1000" />
<glyph glyph-name="crayon4" unicode="&#xe831;" d="m867 585l-574-575-133 133 575 575 132-133z m0 265l-88-88 133-133 88 89-133 132z m-738-764l-129-236 236 129-107 107z" horiz-adv-x="1000" />
<glyph glyph-name="feather10" unicode="&#xe832;" d="m469 319c62 0 140 24 192 42 7 11 14 22 21 34-37 11-70 29-88 49 41 0 90 11 133 23 11 19 22 38 33 56-33 11-62 28-78 46 36 0 77 8 116 18 45 79 202 263 202 263-384-128-872-616-1000-1000l125 62c0 0 63 155 125 219 47 49 170 10 250 32 20 5 54 43 93 98-50 9-101 32-124 58z" horiz-adv-x="1000" />
<glyph glyph-name="feather9" unicode="&#xe833;" d="m733 386c-39-55-73-93-93-98-80-22-186 47-234 0-70-71-93-188-93-188l-110-62c127 383 413 684 797 812 0 0-17-59-62-138-39-10-80-18-116-18 16-18 45-35 78-46-11-18-22-37-33-56-43-12-92-23-133-23 18-20 51-38 88-49-7-12-14-23-21-34-52-18-130-42-192-42 23-26 74-49 124-58z m17-98v-313h-625v625h344l125 125h-594v-875h875v594l-125-156z" horiz-adv-x="1000" />
<glyph glyph-name="first21" unicode="&#xe834;" d="m875 538c35 0 63-28 63-63v-500c0-35-28-63-63-63h-750c-34 0-62 28-62 63v500c0 35 28 63 62 63h750m0 62h-750c-69 0-125-56-125-125v-500c0-69 56-125 125-125h750c69 0 125 56 125 125v500c0 69-56 125-125 125l0 0z m-562 63v62c0 34 28 63 62 63h250c35 0 63-29 63-63v-62h62v62c0 69-56 125-125 125h-250c-69 0-125-56-125-125v-62h63z m375-375h-125v125h-125v-125h-125v-125h125v-125h125v125h125v125z" horiz-adv-x="1000" />
<glyph glyph-name="graphic12" unicode="&#xe835;" d="m1000-88v-62h-1000v1000h63v-938h937z m-62 313v250 313l-188-375-125 187-125-312-125 187-125-250-125 188v-188-250h813v250z" horiz-adv-x="1000" />
<glyph glyph-name="horizontal11" unicode="&#xe836;" d="m63 850h-63v-938-62h63 937v62h-187v63h-63v-63h-125v63h-62v-63h-125v63h-63v-63h-125v63h-62v-63h-125v938z m937-687v-125h-875v125h875z m-187 187v-125h-688v125h688z m-188 188v-125h-500v125h500z m-187 187v-125h-313v125h313z" horiz-adv-x="1000" />
<glyph glyph-name="horizontal13" unicode="&#xe837;" d="m63 850h-63v-938-62h63 937v62h-187v63h-63v-63h-125v63h-62v-63h-125v63h-63v-63h-125v63h-62v-63h-125v938z m375-687v-125h-313v125h313z m187 187v-125h-500v125h500z m188 188v-125h-688v125h688z m187 187v-125h-875v125h875z" horiz-adv-x="1000" />
<glyph glyph-name="increasing9" unicode="&#xe838;" d="m63-88h937v-62h-1000v1000h63 62v-62h-62v-125h62v-63h-62v-125h62v-62h-62v-125h62v-63h-62v-125h62v-62h-62v-126z m187 126c35 0 63 28 63 62 0 21-11 38-26 49l80 203c3-1 5-2 8-2 7 0 14 2 20 4l59-88c-10-11-16-25-16-41 0-34 28-62 62-62s63 28 63 62c0 22-12 40-29 51l87 262c1 0 3 0 4 0 12 0 22 4 31 9l103-103c-5-10-9-20-9-31 0-35 28-63 63-63s62 28 62 63c0 21-12 40-29 51l87 262c2 0 3-1 5-1 34 0 62 28 62 63s-28 62-62 62-63-28-63-62c0-22 12-41 29-52l-87-262c-2 0-3 1-4 1-12 0-22-4-31-9l-104 103c6 9 10 20 10 31 0 35-28 63-63 63s-62-28-62-63c0-22 11-40 28-51l-87-262c-1 0-3 1-4 1-7 0-14-2-20-5l-59 88c10 11 17 26 17 42 0 34-28 62-63 62s-62-28-62-62c0-21 10-38 25-50l-80-202c-3 0-5 2-8 2-34 0-62-28-62-63s28-62 62-62z" horiz-adv-x="1000" />
<glyph glyph-name="ink6" unicode="&#xe839;" d="m622 470c-52-42-94-70-115-70-83 0-176 75-242 63-66-13-109-163-109-163l-137-28c223 337 577 554 981 578 0 0-32-52-96-117-40 0-82 3-117 13 11-22 35-46 64-65-15-15-31-30-47-46-44 0-94 2-134 13 12-24 40-50 73-71-10-9-20-18-30-27-54-4-136-7-196 9 16-31 59-67 105-89z m-184-370h-125v63h31c17 0 31 14 31 31s-14 31-31 31h-188c-17 0-31-14-31-31s14-31 31-31h32v-63h-125c-35 0-63-28-63-62v-126c0-34 28-62 63-62h375c34 0 62 28 62 62v126c0 34-28 62-62 62z" horiz-adv-x="1000" />
<glyph glyph-name="line23" unicode="&#xe83a;" d="m63-88h937v-62h-1000v1000h63v-187h62v-63h-62v-125h62v-62h-62v-125h62v-63h-62v-125h62v-62h-62v-126z m125 282c0 52 42 94 93 94 10 0 19-2 28-5l82 109c-10 15-16 33-16 52 0 52 42 94 94 94s94-42 94-94c0-10-2-19-5-28l109-82c15 10 33 16 52 16 4 0 7-1 11-1l109 217c-16 17-26 40-26 65 0 52 42 94 93 94s94-42 94-94-42-93-94-93c-4 0-7 0-11 1l-109-218c16-17 27-39 27-65 0-51-42-93-94-93s-94 42-94 93c0 10 2 19 5 28l-109 82c-15-10-33-16-52-16-10 0-19 2-28 5l-82-109c10-15 16-33 16-52 0-52-42-94-94-94s-93 42-93 94z m687 437c0-17 14-31 31-31s32 14 32 31-14 32-32 32-31-14-31-32z m-187-375c0-17 14-31 31-31s31 14 31 31-14 32-31 32-31-14-31-32z m-250 188c0-17 14-31 31-31s31 14 31 31-14 31-31 31-31-14-31-31z m-188-250c0-17 14-31 31-31s32 14 32 31-14 31-32 31-31-14-31-31z" horiz-adv-x="1000" />
<glyph glyph-name="line24" unicode="&#xe83b;" d="m63-88h937v-62h-1000v1000h63 62v-62h-62v-125h62v-63h-62v-125h62v-62h-62v-125h62v-63h-62v-125h62v-62h-62v-126z m716 531c-4-56-8-124-29-124-37 0-47 20-64 72-16 49-38 115-123 115-89 0-108-113-125-213-12-72-27-162-63-162-64 0-94 168-94 282h-62c0-36 4-344 156-344 89 0 108 113 125 213 12 72 27 162 63 162 36 0 46-20 64-73 16-48 38-115 123-115 79 0 85 93 91 182 10 150 27 256 159 256v62c-201 0-213-189-221-313z" horiz-adv-x="1000" />
<glyph glyph-name="line25" unicode="&#xe83c;" d="m938 600c-29 0-53-20-60-47h-97l133 177c7-3 15-5 24-5 34 0 62 28 62 63s-28 62-62 62-63-28-63-62c0-15 6-28 14-39l-147-196h-120c-7 27-30 47-59 47-35 0-63-28-63-62 0-16 6-29 15-40l-116-162-87 18c-2 32-29 59-62 59-34 0-62-28-62-63s28-62 62-62c25 0 46 14 56 35l74-15-108-150c-7 3-14 5-22 5-34 0-62-28-62-63s28-62 62-62 63 28 63 62c0 15-7 29-16 39l116 162 88-17c2-33 28-59 62-59 34 0 62 28 62 63 0 14-6 27-14 38l147 196h120c7-27 31-47 60-47 34 0 62 28 62 63s-28 62-62 62z m-352-255c-7 3-15 5-23 5-25 0-46-15-56-35l-74 14 107 151c7-3 15-5 23-5 29 0 52 20 59 47h97l-133-177z m414-433v-62h-1000v1000h63v-938h937z" horiz-adv-x="1000" />
<glyph glyph-name="ascendant6" unicode="&#xe801;" d="m1000-88v-62h-1000v1000h63v-938h937z m-553 591l255-64 89 147 80-48 4 250-218-121 80-49-64-107-245 61-263-262 45-45 237 238z m-72-528h125v450l-34 9-91-92v-367z m-187 224v-224h125v305l-103-103-22 22z m562 198v-422h125v488l-63 38-62-104z m-62-422v403l-125 32v-435h125z" horiz-adv-x="1000" />
<glyph glyph-name="line27" unicode="&#xe83e;" d="m300 819h-52v31h52v-31z m-103 31h-52v-31h52v31z m617 0h-51v-31h51v31z m-103 0h-51v-31h51v31z m206 0h-51v-31h51v31z m-308 0h-52v-31h52v31z m-206 0h-52v-31h52v31z m566-938h-453v32h-32v-32h-421v422h31v32h-31v453h31v31h-31-63v-1000h1000v62 32h-31v-32z m0 83h31v52h-31v-52z m0 103h31v52h-31v-52z m0 618h31v51h-31v-51z m0-103h31v51h-31v-51z m0-206h31v52h-31v-52z m0-206h31v52h-31v-52z m0 309h31v51h-31v-51z m0 340v-31h31v31h-31z m-485-855h32v52h-32v-52z m32 155h-32v-52h32v52z m-32 463h32v51h-32v-51z m32-257h-10v10h-52v-32h30v-30h32v52z m0 411h-32v-51h32v51z m0-514h-32v-52h32v52z m-10 566h10v31h-10-22-30v-31h30 22z m-309-453h-52v-32h52v32z m720-32v32h-51v-32h51z m52 22v-22-30h31v30 22 10h-31v-10z m-510 84l25-20v-13h17l56-45v-28h34l193-154 151 528-120 34-99-347-200 160v6h-8l-92 74-134-269h-34v-32h18l-134-268 111-56 216 430z" horiz-adv-x="1000" />
<glyph glyph-name="line28" unicode="&#xe83f;" d="m1000-88v-62h-1000v1000h63v-938h937z m-545 395l130-131 116 291 130-195 166 496-119 39-84-253-120 180-134-335-120 119-125-250-63 64-89-89 187-186 125 250z" horiz-adv-x="1000" />
<glyph glyph-name="note16" unicode="&#xe840;" d="m688 850h-625v-1000h875v750l-250 250z m0-88l161-162h-161v162z m187-850h-750v876h500v-250h250v-626z m-312 688h-375v63h375v-63z m-375-125h625v-62h-625v62z m0-187h625v-63h-625v63z m0-188h625v-62h-625v62z" horiz-adv-x="1000" />
<glyph glyph-name="note17" unicode="&#xe841;" d="m938 788v-188h-875v188c0 34 28 62 62 62h750c35 0 63-28 63-62z m-875-250h875v-626c0-34-28-62-63-62h-750c-34 0-62 28-62 62v626z m125-188h625v63h-625v-63z m0-187h625v62h-625v-62z m0-188h625v63h-625v-63z" horiz-adv-x="1000" />
<glyph glyph-name="note18" unicode="&#xe842;" d="m875 850h-750c-34 0-62-28-62-62v-876c0-34 28-62 62-62h563l250 250v688c0 34-28 62-63 62z m-187-912v162h161l-161-162z m187 225h-187c-35 0-63-28-63-63v-188h-500v876h750v-625z m-687 468c0 18 14 32 31 32h562c18 0 32-14 32-32s-14-31-32-31h-562c-17 0-31 14-31 31z m0-187c0 17 14 31 31 31h562c18 0 32-14 32-31s-14-31-32-31h-562c-17 0-31 14-31 31z m0-188c0 18 14 32 31 32h562c18 0 32-14 32-32s-14-31-32-31h-562c-17 0-31 14-31 31z" horiz-adv-x="1000" />
<glyph glyph-name="note19" unicode="&#xe843;" d="m875 850h-750c-34 0-62-28-62-62v-876c0-34 28-62 62-62h750c35 0 63 28 63 62v876c0 34-28 62-63 62z m-750-938v688h156v-125h-93v-31h93v-94h-93v-31h93v-94h-93v-31h93v-94h-93v-31h93v-157h-156z m750 0h-562v157h500v31h-500v94h500v31h-500v94h500v31h-500v94h500v31h-500v125h562v-688z" horiz-adv-x="1000" />
<glyph glyph-name="note20" unicode="&#xe844;" d="m875 663h-187v187l187-187z m63-63v-750h-875v1000h562v-250h313z m-750 0h375v63h-375v-63z m625-500h-625v-62h625v62z m0 188h-625v-63h625v63z m0 187h-625v-62h625v62z" horiz-adv-x="1000" />
<glyph glyph-name="note21" unicode="&#xe845;" d="m188 756v63c0 17 14 31 31 31s31-14 31-31v-63c0-17-14-31-31-31s-31 14-31 31z m750-27v-820c0-33-28-59-63-59h-750c-34 0-62 26-62 59v820c0 32 28 59 62 59h31v-32c0-34 28-62 63-62s62 28 62 62v32h438v-32c0-34 28-62 62-62s63 28 63 62v32h31c35 0 63-27 63-59z m-63-129h-750v-687l750-1v688z m-94 125c18 0 32 14 32 31v63c0 17-14 31-32 31s-31-14-31-31v-63c0-17 14-31 31-31z m-562-312h562c18 0 32 14 32 31s-14 31-32 31h-562c-17 0-31-14-31-31s14-31 31-31z m0-188h562c18 0 32 14 32 31s-14 32-32 32h-562c-17 0-31-14-31-32s14-31 31-31z m0-187h562c18 0 32 14 32 31s-14 31-32 31h-562c-17 0-31-14-31-31s14-31 31-31z" horiz-adv-x="1000" />
<glyph glyph-name="note22" unicode="&#xe846;" d="m688 850h-500v-875h750v625l-250 250z m0-88l161-162h-161v162z m187-724h-625v750h375v-250h250v-500z m-312 562h-250v63h250v-63z m-250-125h500v-62h-500v62z m0-187h500v-63h-500v63z m625-376v-62h-875v1000h62v-938h813z" horiz-adv-x="1000" />
<glyph glyph-name="note23" unicode="&#xe847;" d="m188 756v63c0 17 14 31 31 31s31-14 31-31v-63c0-17-14-31-31-31s-31 14-31 31z m812-93v-688c0-69-56-125-125-125h-750c-69 0-125 56-125 125v688c0 69 56 125 125 125v-32c0-51 42-93 94-93s94 42 94 93v32h375v-32c0-51 42-93 93-93s94 42 94 93v32c69 0 125-56 125-125z m-62-125h-875v-563c0-35 28-63 62-63h750c35 0 63 28 63 63v563z m-157 187c18 0 32 14 32 31v63c0 17-14 31-32 31s-31-14-31-31v-63c0-17 14-31 31-31z m-562-312h562c18 0 32 14 32 31s-14 31-32 31h-562c-17 0-31-14-31-31s14-31 31-31z m0-125h562c18 0 32 14 32 31s-14 31-32 31h-562c-17 0-31-14-31-31s14-31 31-31z m0-125h562c18 0 32 14 32 31s-14 31-32 31h-562c-17 0-31-14-31-31s14-31 31-31z m0-125h312c18 0 32 14 32 31s-14 31-32 31h-312c-17 0-31-14-31-31s14-31 31-31z" horiz-adv-x="1000" />
<glyph glyph-name="note24" unicode="&#xe848;" d="m874 850h-750c-34 0-62-28-62-62v-876c0-34 28-62 62-62h750c35 0 63 28 63 62v876c0 34-28 62-63 62z m-687-62c34 0 62-28 62-63s-28-62-62-62-63 28-63 62 28 63 63 63z m687-876h-750v688h750v-688z m-62 751c-35 0-63 28-63 62s28 63 63 63 62-28 62-63-28-62-62-62z m-625-219c0 17 14 31 31 31h562c18 0 32-14 32-31s-14-31-32-31h-562c-17 0-31 14-31 31z m0-188c0 18 14 32 31 32h562c18 0 32-14 32-32s-14-31-32-31h-562c-17 0-31 14-31 31z m0-187c0 17 14 31 31 31h562c18 0 32-14 32-31s-14-31-32-31h-562c-17 0-31 14-31 31z" horiz-adv-x="1000" />
<glyph glyph-name="note25" unicode="&#xe849;" d="m688 100h250l-250-250v250z m-63 31v-281h-500c-34 0-62 28-62 62v876c0 34 28 62 62 62h750c35 0 63-28 63-62v-625h-282c-17 0-31-14-31-32z m-437 500c0-17 14-31 31-31h562c18 0 32 14 32 31s-14 32-32 32h-562c-17 0-31-14-31-32z m0-187c0-17 14-31 31-31h562c18 0 32 14 32 31s-14 31-32 31h-562c-17 0-31-14-31-31z m593-219c18 0 32 14 32 31s-14 32-32 32h-562c-17 0-31-14-31-32s14-31 31-31h562z" horiz-adv-x="1000" />
<glyph glyph-name="notebook26" unicode="&#xe84a;" d="m94 38h-63c-17 0-31 14-31 31s14 31 31 31h63c17 0 31-14 31-31s-14-31-31-31z m906 687v-750c0-69-56-125-125-125h-687c-69 0-125 56-125 125h31c51 0 94 42 94 94s-43 94-94 94h-31v375h31c51 0 94 42 94 93s-43 94-94 94h-31c0 69 56 125 125 125h687c69 0 125-56 125-125z m-62 0c0 35-28 63-63 63h-562v-876h562c35 0 63 29 63 63v750z m-907-125h63c17 0 31 14 31 31s-14 32-31 32h-63c-17 0-31-14-31-32s14-31 31-31z m813 125h-438c-17 0-31-14-31-31s14-31 31-31h438c17 0 31 14 31 31s-14 31-31 31z m0-125h-438c-17 0-31-14-31-31s14-31 31-31h438c17 0 31 14 31 31s-14 31-31 31z m0-125h-438c-17 0-31-14-31-31s14-31 31-31h438c17 0 31 14 31 31s-14 31-31 31z m0-125h-438c-17 0-31-14-31-31s14-31 31-31h438c17 0 31 14 31 31s-14 31-31 31z m0-125h-438c-17 0-31-14-31-31s14-31 31-31h438c17 0 31 14 31 31s-14 31-31 31z m-188-125h-250c-17 0-31-14-31-31s14-31 31-31h250c18 0 32 14 32 31s-14 31-32 31z" horiz-adv-x="1000" />
<glyph glyph-name="paper79" unicode="&#xe84b;" d="m500 741c-60 0-109-49-109-110s49-109 109-109 109 49 109 109-49 110-109 110z m0-172c-34 0-62 28-62 62s28 63 62 63 63-28 63-63-28-62-63-62z m375-438h-187c-35 0-63 28-63 63v298c38 35 63 84 63 139 0 104-84 188-188 188s-187-84-187-188c0-55 24-104 62-139v-298c0-35-28-63-62-63h-188c-69 0-125-56-125-125 0-23 7-44 17-62v-63h966v63c10 18 17 39 17 62 0 69-56 125-125 125z m-516 500c0 78 64 141 141 141 78 0 141-63 141-141s-63-140-141-140c-77 0-141 63-141 140z m516-687h-750c-17 0-31 14-31 31s14 31 31 31h750c17 0 31-14 31-31s-14-31-31-31z" horiz-adv-x="1000" />
<glyph glyph-name="paper81" unicode="&#xe84c;" d="m898 262l-133-133c-79-79-208-79-287 0-79 79-79 208 0 287l133 133 88-89-133-132c-30-31-30-80 0-111s80-30 111 0l132 133c73 73 73 192 0 265l-44 44c-73 73-192 73-265 0l-309-309c-73-73-73-192 0-265l44-44c55-56 136-69 204-41 44-30 94-46 145-52-123-117-317-116-437 4l-45 44c-122 122-122 320 0 442l310 310c121 121 320 121 442 0l44-45c122-121 122-320 0-441z" horiz-adv-x="1000" />
<glyph glyph-name="paper82" unicode="&#xe84d;" d="m876 372l-265-265c-55-55-145-55-199 0-55 55-55 144 0 199l265 265 44-44-265-265c-31-31-31-80 0-111 30-30 80-30 110 0l266 265c73 73 73 192 0 265-74 74-193 74-266 0l-397-397c-74-73-74-192 0-265 73-74 192-74 265 0l0 0c23-10 48-15 73-15l-29-30c-98-97-256-97-354 0-97 98-97 256 0 354l398 398c98 97 256 97 354 0 97-98 97-256 0-354z" horiz-adv-x="1000" />
<glyph glyph-name="paper83" unicode="&#xe84e;" d="m813 350h-95v-369l-122 640 51 51c6 6 9 14 9 22 0 86-70 156-156 156-86 0-156-70-156-156 0-8 3-16 9-22l51-51-122-640-1 369h-93c-69 0-125-56-125-125v-375h250c0 34 28 62 62 62s63-28 63-62h125c0 34 28 62 62 62s63-28 63-62h250v375c0 69-56 125-125 125z m-229 0h-168l52 275c2 11-1 21-8 28l-53 53c6 46 45 82 93 82s87-36 93-82l-53-53c-7-7-10-17-8-28" horiz-adv-x="1000" />
<glyph glyph-name="paper84" unicode="&#xe84f;" d="m875 288h-125-40l-112 335 49 49c6 6 9 14 9 22 0 86-70 156-156 156-86 0-156-70-156-156 0-8 3-16 9-22l49-49-112-335h-40-125c-34 0-62-28-62-63v-375h875v375c0 35-28 63-63 63z m-250-63c-34 0-62 28-62 63h-125c0-35-28-63-63-63h-62c13 0 25 9 29 21l125 375c4 12 1 24-7 32l-53 53c6 46 45 82 93 82s87-36 93-82l-53-53c-8-8-11-20-7-32l125-375c4-12 16-21 30-21h-63z" horiz-adv-x="1000" />
<glyph glyph-name="paper86" unicode="&#xe850;" d="m961 381l-442-442c-110-109-288-109-398 0-109 110-109 288 0 398l442 442c86 85 224 85 310 0 85-85 85-224 0-309l-353-353c-30-30-69-46-111-47-84 0-157 73-157 157 0 42 17 81 47 111l353 353 44-45-354-353c-17-18-27-41-27-66 0-50 44-94 94-94 25 0 48 10 66 27l353 354c61 61 61 160 0 221-60 61-160 61-221 0l-441-442c-86-85-86-224 0-310 85-85 224-85 309 0l442 442 44-44z" horiz-adv-x="1000" />
<glyph glyph-name="paper87" unicode="&#xe851;" d="m93-132c-8 0-16 3-22 9-7 6-10 16-9 25l44 398c1 7 4 14 9 19l486 486c37 37 96 37 133 0l177-177c36-36 36-96 0-132l-354-354c-6-6-14-9-22-9h-177c-17 0-31 14-31 31v177c0 8 3 16 9 22l265 265c13 12 32 12 45 0s12-32 0-44l-256-256v-133h132l345 345c12 12 12 32 0 44l-177 177c-12 12-32 12-44 0l-479-479-38-348 348 39 390 390c12 12 32 12 44 0s12-32 0-44l-398-398c-5-5-12-8-19-9l-397-44c-2 0-3 0-4 0z" horiz-adv-x="1000" />
<glyph glyph-name="paper88" unicode="&#xe852;" d="m952 381l-442-442c-85-85-224-85-309 0l-89 89c-85 85-85 224 0 309l442 442c61 61 160 61 221 0l89-88c60-61 60-160 0-221l-354-354c-61-61-160-61-221 0-30 30-46 69-46 111 0 41 16 81 46 110l354 354 44-45-354-353c-18-18-27-41-27-66s9-49 27-67c37-36 96-36 133 0l353 354c37 36 37 96 0 132l-88 89c-37 36-96 36-133 0l-442-442c-61-61-61-160 0-221l89-89c61-61 160-61 221 0l442 442 44-44z" horiz-adv-x="1000" />
<glyph glyph-name="pen27" unicode="&#xe853;" d="m523 211c-214-188-482-393-519-357-36 37 169 305 357 519l162-162z m456 308l-76 76c34 49 44 84 40 111l57 57-87 87-58-58c-48 5-120-32-251-163-49-48-108-113-170-183l163-164c71 62 135 122 183 170 35 35 63 65 85 92l48-48-155-154c-12-12-12-32 0-44 13-13 32-13 45 0l176 176c13 13 13 32 0 45z" horiz-adv-x="1000" />
<glyph glyph-name="pen28" unicode="&#xe854;" d="m602 850l398-398-133-44-309 309 44 133z m194-514l-177 177-133 133-309-133-177-530 44-45 291 291c-29 48-23 110 19 151 48 49 128 49 176 0 49-48 49-128 0-176-41-41-103-48-151-19l-291-291 45-44 530 177 133 309z" horiz-adv-x="1000" />
<glyph glyph-name="pen29" unicode="&#xe855;" d="m973 823c36-37 36-96 0-133l-45-44-132 132 44 45c37 36 96 36 133 0z m-663-531l-44-177 176 45 442 442-132 132-442-442z m440 87v-404h-625v625h404l125 125h-654v-875h875v654l-125-125z" horiz-adv-x="1000" />
<glyph glyph-name="pen30" unicode="&#xe856;" d="m602 850l398-398-133-44-309 309 44 133z m194-514l-310 310-309-133-177-530 133-133 530 177 133 309z m-646-415l-17 17 273 274c35-17 78-11 106 18 37 36 37 96 0 132-36 37-96 37-132 0-29-28-35-71-18-106l-274-273-16 16 155 468 245 104 249-249-104-245-467-156z" horiz-adv-x="1000" />
<glyph glyph-name="pen31" unicode="&#xe857;" d="m0 100l250-250h-250v250z m626 729c-49-49-10-167 88-265 98-98 216-137 265-88 49 48 9 167-88 265-98 97-217 137-265 88z m142-387l-452-453 89-88 493 494c-40 4-85 20-130 47z m-98 78c-15 15-29 31-42 46l-444-444 88-88 444 444c-15 13-31 27-46 42z m-125 228l-494-493 88-89 453 452c-27 45-43 90-47 130z" horiz-adv-x="1000" />
<glyph glyph-name="pen32" unicode="&#xe858;" d="m813 225c-188-125-188-375-188-375h-62v368c19 17 31 42 31 70 0 51-42 93-94 93s-94-42-94-93c0-28 13-53 32-70v-368h-63c0 0 0 250-187 375 123 186 125 438 125 438h375c0 0 3-252 125-438z m-125 625h-375v-125h375v125z" horiz-adv-x="1000" />
<glyph glyph-name="pen33" unicode="&#xe859;" d="m63 163h-63v62h63v-62z m0 187h-63v-62h63v62z m0 125h-63v-62h63v62z m0 250h-63v-62h63v62z m0-125h-63v-62h63v62z m250-750h62v62h-62v-62z m375 0h62v62h-62v-62z m125 0h62v62h-62v-62z m125 1000h-938v-62h938v-938h62v938 62h-62z m-375-1000h62v62h-62v-62z m-125 0h62v62h-62v-62z m-13 602l-353-354 176-176 354 353-177 177z m-425-602h188l-188 188v-188z m712 712c-48 49-127 49-176 0l-45-44 177-176 44 44c49 49 49 128 0 176z" horiz-adv-x="1000" />
<glyph glyph-name="pen34" unicode="&#xe85a;" d="m948 798c46-46 63-114 44-177l-66-66-221 221 66 66c63 19 131 2 177-44z m-66-287l-486-486-396-175 175 396 486 486 221-221z m-595-466l-92 92-73-165 165 73z m713-133h-564v-62h564v62z" horiz-adv-x="1000" />
<glyph glyph-name="pencil39" unicode="&#xe85b;" d="m799 139c23 1 45 10 62 27 36 37 36 96-1 132l-508 509c0 0-7 7-11 11-42 43-112 43-154 0l-155-155c-43-42-43-112 0-154 4-4 8-8 12-11l508-508c36-37 95-37 132-1 17 17 26 39 27 62 22 1 44 10 61 27 17 17 26 39 27 61z m-203-105l-420 419 44 45 420-420c12-12 12-32 0-44-13-13-32-13-44 0z m88 88l-420 420 44 44 420-420c12-12 12-32 0-44-12-12-32-12-44 0z m88 88l-420 420 45 44 419-420c13-12 13-31 0-44s-31-12-44 0z m-89-296c17 8 32 18 45 31 15 15 27 34 35 54 20 7 38 19 54 35 15 15 27 33 34 53 20 8 39 20 54 35 13 13 23 29 31 45l64-317-317 64z" horiz-adv-x="1000" />
<glyph glyph-name="pencil40" unicode="&#xe85c;" d="m779 364l-442-442-44 44 442 442 44-44z m-177 177l-442-442 89-89 442 442-89 89z m-88 88l-442-442 44-44 442 442-44 44z m88 88l-44-44 265-265 44 44-265 265z m133 133l-88-88 265-265 88 88-265 265z m-672-886v-52h51l-51 52m-63 151l265-265h-265v265l0 0z" horiz-adv-x="1000" />
<glyph glyph-name="pencil41" unicode="&#xe85d;" d="m875 504v-529c0-69-56-125-125-125h-625c-69 0-125 56-125 125v625c0 69 56 125 125 125h529l-125-125h-404v-625h625v404l125 125z m-96 258l-44-45 132-132 45 44-133 133z m88 88l-44-44 133-133 44 44-133 133z m-574-575l133-132 397 398-132 132-398-398z m-43-175h125l-125 125v-125z" horiz-adv-x="1000" />
<glyph glyph-name="pencil43" unicode="&#xe85e;" d="m963 548l-44-44-265 265 44 44c49 49 128 49 177 0l88-88c49-49 49-128 0-177z m-618-530c-12-12-12-32 0-44 12-13 32-13 44 0l486 486-44 44-486-486z m-221 221c-13-12-13-32 0-44s32-12 44 0l486 486-44 44-486-486z m574 398l-486-486c-24-25-24-64 0-89 24-24 64-24 89 0l486 486-89 89z m-398-707c-15 15-22 34-24 53-7-1-13-2-20-2-33 0-64 13-88 37-24 24-37 55-37 88 0 6 1 12 2 18-20 3-39 12-53 27-2 1-2 3-4 4l-76-305 305 76c-2 1-3 2-5 4z" horiz-adv-x="1000" />
<glyph glyph-name="pencil44" unicode="&#xe85f;" d="m168 239l221-221 530 530-221 221-530-530z m574 398l-441-442-45 44 442 442 44-44z m177 176l44-44c49-49 49-128 0-177l-221 221c49 49 128 49 177 0z m-592-822l-327-141 141 327 186-186z" horiz-adv-x="1000" />
<glyph glyph-name="pencil45" unicode="&#xe860;" d="m533-64l-533-86 86 533 54-55-27-171c53 13 112-1 152-42 41-41 55-99 42-152l171 27 55-54z m-417 605v-133h133l309 309-132 133-310-309z m221-221v-133h133l309 309-132 133-310-309z m354-354l309 310-133 132-309-309 3-3v-132h132l-2 2z" horiz-adv-x="1000" />
<glyph glyph-name="pie24" unicode="&#xe861;" d="m500 350h500c0 276-224 500-500 500v-500z m-62-62v558c-247-31-438-241-438-496 0-276 224-500 500-500 255 0 465 191 496 438h-558z" horiz-adv-x="1000" />
<glyph glyph-name="pie25" unicode="&#xe862;" d="m141 722c79 79 188 128 309 128v-437l-309 309z m359 3v-437l-309 309c-79-79-128-189-128-309 0-242 195-438 437-438s438 196 438 438-196 437-438 437z" horiz-adv-x="1000" />
<glyph glyph-name="pie26" unicode="&#xe863;" d="m72 257h427c17 0 33 4 47 13l370 213c14-43 21-87 21-132 0-241-197-438-438-438-207 0-383 147-427 344m-71 63c16-262 233-469 498-469 276 0 500 224 500 500 0 80-19 155-52 222l-432-249c-5-3-10-4-16-4h-498l0 0z m0 62h467v467c-251-15-452-216-467-467z m71 63c37 166 168 296 334 333v-333h-334z m521 333c89-19 168-65 229-132l-229-133v265m-62 71v-444l385 222c-84 127-225 212-385 222l0 0z" horiz-adv-x="1000" />
<glyph glyph-name="pie27" unicode="&#xe864;" d="m676 694l-38 38c150-55 259-195 267-362h91l-152-151-152 151h87c-8 113-82 206-183 244l80 80z m88-440c-37-101-131-175-244-183v87l-151-152 151-152v91c167 8 307 117 362 267l-38-38-80 80z m-360-168c-101 38-175 131-183 244h87l-152 152-152-152h91c8-167 117-307 267-362l-38 38 80 80z m-168 360c38 101 131 175 244 183v-87l152 152-152 152v-91c-167-8-307-117-362-267l38 38 80-80z m77-96c0-104 83-187 187-187s188 83 188 187-84 188-188 188-187-84-187-188z" horiz-adv-x="1000" />
<glyph glyph-name="pie28" unicode="&#xe865;" d="m813 350c0-172-140-312-313-312-173 0-312 140-312 312 0 173 139 313 312 313 173 0 313-140 313-313z m-282 373c182-15 327-160 342-342h125c-15 251-216 452-467 467v-125z m-404-342c15 182 160 327 342 342v125c-251-15-452-216-467-467h125z m342-404c-182 15-327 160-342 342h-125c15-251 216-452 467-467v125z m404 342c-15-182-160-327-342-342v-125c251 15 452 216 467 467h-125z" horiz-adv-x="1000" />
<glyph glyph-name="pie29" unicode="&#xe866;" d="m1000 350c0-276-224-500-500-500 207 0 375 168 375 375s-168 375-375 375-375-168-375-375 168-375 375-375c-276 0-500 224-500 500s224 500 500 500 500-224 500-500z m-500 0c-138 0-250-112-250-250 0-130 99-235 225-247-57 11-100 62-100 122 0 69 56 125 125 125s125-56 125-125c0-60-43-111-100-122 126 12 225 117 225 247 0 138-112 250-250 250z" horiz-adv-x="1000" />
<glyph glyph-name="pie30" unicode="&#xe867;" d="m474 335l249-432c-67-33-142-52-222-52-276 0-500 224-500 500 0 265 207 482 469 498v-498c0-6 1-11 4-16z m525 47h-467v467c251-15 452-216 467-467z m-404 63h333c-37 166-167 296-333 333v-333z m182-511c127 85 212 225 222 386h-444l222-386z" horiz-adv-x="1000" />
<glyph glyph-name="pie31" unicode="&#xe868;" d="m168 561l55-31c-22-43-35-91-35-142 0-173 140-313 312-313s313 140 313 313h62c0-207-168-375-375-375-207 0-375 168-375 375 0 63 16 122 43 173z m332-611c-241 0-437 197-437 438 0 156 82 293 205 370l-31 54c-142-88-237-245-237-424 0-276 224-500 500-500s500 224 500 500h-62c0-241-197-438-438-438z m188 438c0-104-85-188-188-188s-187 84-187 188h-63c0-138 112-250 250-250s250 112 250 250h-62z" horiz-adv-x="1000" />
<glyph glyph-name="pie32" unicode="&#xe869;" d="m469 850c-259 0-469-210-469-469h469v469z m-63-406h-339c27 174 165 312 339 339v-339z m594-125c0-259-210-469-469-469s-468 210-468 469h468v469c259 0 469-210 469-469z" horiz-adv-x="1000" />
<glyph glyph-name="pyramid3" unicode="&#xe86a;" d="m250 38h188v-126h-188v126z m-62 62h250v125h-250v-125z m-63 188h313v125h-313v-125z m-62 187h375v125h-375v-125z m-63 188h438v125h-438v-125z m563-751h187v126h-187v-126z m0 188h250v125h-250v-125z m0 188h312v125h-312v-125z m0 187h375v125h-375v-125z m0 313v-125h437v125h-437z m-94-938h62v1000h-62v-1000z" horiz-adv-x="1000" />
<glyph glyph-name="pyramid4" unicode="&#xe86b;" d="m469 850h62v-1000h-62v1000z m-219-938h188v126h-188v-126z m-125 188h313v125h-313v-125z m-125 188h438v125h-438v-125z m188 187h250v125h-250v-125z m125 188h125v125h-125v-125z m250-751h187v126h-187v-126z m0 188h312v125h-312v-125z m0 313v-125h437v125h-437z m250 187h-250v-125h250v125z m-125 188h-125v-125h125v125z" horiz-adv-x="1000" />
<glyph glyph-name="rising9" unicode="&#xe86c;" d="m74 351c-4-1-8-1-12-1-29 0-55 21-61 51-6 34 17 67 51 73 153 28 317 106 488 231l-72 87 345 58-123-327-70 85c-191-140-370-225-546-257z m114-188h-63c-34 0-62-28-62-63v-188c0-34 28-62 62-62h63c34 0 62 28 62 62v188c0 35-28 63-62 63z m500 250h-63c-34 0-62-28-62-63v-438c0-34 28-62 62-62h63c34 0 62 28 62 62v438c0 35-28 63-62 63z m250 125h-63c-34 0-62-28-62-63v-563c0-34 28-62 62-62h63c34 0 62 28 62 62v563c0 35-28 63-62 63z m-500-250h-63c-34 0-62-28-62-63v-313c0-34 28-62 62-62h63c34 0 62 28 62 62v313c0 35-28 63-62 63z" horiz-adv-x="1000" />
<glyph glyph-name="sand3" unicode="&#xe86d;" d="m750-25v250c0 10-4 19-12 24l-125 101 125 101c8 6 12 15 12 24v250h63l62 125h-750l63-125h62v-250c0-9 4-18 12-24l126-101-126-101c-8-5-12-14-12-24v-250h-62l-63-125h750l-62 125h-63z m-125 0v188l-125 125-125-125v-188h-62v235l144 116c8 6 12 15 12 24s-4 18-12 24l-144 116v235h375v-235l-145-116c-7-6-12-14-12-24s5-18 12-24l145-116v-235h-63z m0 563l-125-125-125 125h250z" horiz-adv-x="1000" />
<glyph glyph-name="sand4" unicode="&#xe86e;" d="m634 350l232 407c11 19 11 43 0 62s-32 31-54 31h-625c-23 0-43-12-55-31s-11-43 0-62l233-407-233-407c-11-19-11-43 0-62s32-31 55-31h625c22 0 42 12 54 31s11 43 0 62l-232 407z m-447-438l250 438-250 438h625l-250-438 250-438h-625z m312 421l205-358h-410l205 358z m0 34l-98 171h196l-98-171z" horiz-adv-x="1000" />
<glyph glyph-name="sand5" unicode="&#xe86f;" d="m792 509l20 8v208h62v125h-750v-125h63v-208l19-8c64-27 106-89 106-159s-42-132-106-159l-19-8v-208h-63v-125h750v125h-62v208l-20 8c-64 27-105 89-105 159s41 132 105 159z m-168-159c0-88 49-167 125-207v-168h-62c-32 76-106 125-188 125s-156-49-187-125h-63v168c77 40 125 119 125 207s-48 167-125 207v168h500v-168c-76-40-125-119-125-207z m-312 313h375v-71c-78-55-125-145-125-242v-62h-125v62c0 97-47 187-125 242v71z" horiz-adv-x="1000" />
<glyph glyph-name="sand6" unicode="&#xe870;" d="m812 788h62v62h-750v-62h63v-63h29c-45-123-6-263 99-344 16-12 34-22 52-31-18-9-36-19-52-31-105-81-144-221-99-344h-29v-63h-63v-62h750v62h-62v63h-30c45 123 6 263-99 344-16 12-34 22-52 31 18 9 36 19 52 31 105 81 144 221 99 344h30v63z m-92-75c42-100 11-216-75-282-25-20-54-33-83-41v-80c29-8 58-21 83-41 86-66 117-182 75-282l-5-12h-63c10 52-6 109-48 147-21 19-47 32-74 37v256c37 6 73 21 104 46 26 21 45 48 58 77h-386c13-29 32-56 58-77 31-25 67-40 104-46v-256c-27-5-53-18-74-37-42-38-58-95-47-147h-64l-5 12c-42 100-11 216 75 282 25 20 54 33 84 41v80c-30 8-58 21-84 41-86 66-117 182-75 282l5 12h432l5-12z" horiz-adv-x="1000" />
<glyph glyph-name="stopwatch4" unicode="&#xe871;" d="m500 663c-224 0-406-182-406-407s182-406 406-406 406 182 406 406-182 407-406 407z m0-751c-190 0-344 155-344 344 0 190 154 344 344 344 190 0 344-154 344-344 0-189-154-344-344-344z m-304 746c-9 15-4 34 11 43l55 31c14 9 34 4 42-11l34-59c-39-15-76-37-108-62l-34 58z m574-58c-32 25-69 47-108 62l34 59c9 15 28 20 43 11l54-31c15-9 20-28 11-43l-34-58z m-364 156v63c0 17 14 31 32 31h125c17 0 31-14 31-31v-63c0-17-14-31-31-31v-36c-21 3-42 5-63 5s-42-2-62-5v36c-18 0-32 14-32 31z m94-218l63-282c0-34-28-62-63-62s-62 28-62 62l62 282z" horiz-adv-x="1000" />
<glyph glyph-name="stopwatch5" unicode="&#xe872;" d="m500 663c-224 0-406-182-406-407s182-406 406-406 406 182 406 406-182 407-406 407z m31-749v30c0 17-14 31-31 31s-31-14-31-31v-30c-165 15-296 146-311 311h30c17 0 31 14 31 31s-14 32-31 32h-30c15 164 146 296 311 310v-29c0-17 14-31 31-31s31 14 31 31v29c165-14 296-146 311-310h-29c-18 0-32-14-32-32s14-31 32-31h29c-15-165-146-296-311-311z m-125 842v63c0 17 14 31 32 31h125c17 0 31-14 31-31v-63c0-17-14-31-31-31v-36c-21 3-42 5-63 5s-42-2-62-5v36c-18 0-32 14-32 31z m364-156c-33 25-68 46-107 62 1 1 1 3 2 4l31 55c9 15 28 20 43 11l54-31c15-9 20-28 11-43l-31-54c-1-2-2-2-3-4z m1-187c8-15 3-35-12-43l-243-141c-5-3-11-4-16-4s-11 1-16 4l-243 141c-15 8-20 28-12 43s28 20 43 11l228-132 228 132c15 9 34 3 43-11z" horiz-adv-x="1000" />
<glyph glyph-name="vintage51" unicode="&#xe873;" d="m688 850h-375c-35 0-63-28-63-62v-375c0-35 28-63 63-63v-500h375v500c34 0 62 28 62 63v375c0 34-28 62-62 62z m-63-938h-250v438h109v-275c-26-7-46-30-46-59 0-35 28-63 62-63s63 28 63 63c0 29-21 52-47 59v275h109v-438z m-125 501c-104 0-187 83-187 187s83 188 187 188 188-84 188-188-84-187-188-187z m-16 343c0 9 7 16 16 16s16-7 16-16-7-15-16-15-16 7-16 15z m32-312c0-9-7-16-16-16s-16 7-16 16 7 15 16 15 16-7 16-15z m-81 299c5-7 2-17-5-21-8-4-17-2-22 6-4 7-1 17 6 21 8 4 17 2 21-6z m157-270c4-8 1-17-6-22-7-4-17-2-21 6-5 7-2 17 5 21 8 5 17 2 22-5z m-219 219c7-5 10-14 5-22-4-7-14-10-21-5-8 4-10 14-6 21 5 7 14 10 22 6z m270-157c8-4 10-13 6-21-4-7-14-10-21-6-8 5-10 14-6 22 4 7 14 10 21 5z m-299 49c-9 0-16 7-16 16s7 16 16 16 15-7 15-16-7-16-15-16z m312 32c9 0 16-7 16-16s-7-16-16-16c-8 0-15 7-15 16s7 16 15 16z m-278-86c5-8 2-17-5-22-8-4-17-1-22 6s-2 17 6 21c7 5 17 2 21-5z m250 162c7 4 17 1 21-6 4-7 2-17-6-21-7-5-17-2-21 5-4 8-2 17 6 22z m-198-214c7-4 10-14 5-21-4-8-13-10-21-6-7 5-10 14-6 22 5 7 14 10 22 5z m140 244c-7 4-10 14-5 21 4 8 14 10 21 6 7-4 10-14 6-21-5-8-14-10-22-6z m39-122c0-9-7-16-15-16h-78v-15c0-9-7-16-16-16s-16 7-16 16v15h-15c-9 0-16 7-16 16s7 16 16 16h15v78c0 8 7 15 16 15s16-7 16-15v-78h78c8 0 15-7 15-16z" horiz-adv-x="1000" />
<glyph glyph-name="wall17" unicode="&#xe874;" d="m214 479l-54 31 31 55 54-32-31-54z m157 157l-31 54-55-31 32-54 54 31z m629-286c0-276-224-500-500-500s-500 224-500 500 224 500 500 500 500-224 500-500z m-62 0c0 241-197 438-438 438s-437-197-437-438 196-438 437-438 438 197 438 438z m-438 375v-375h-375c0-207 168-375 375-375v0c207 0 375 168 375 375s-168 375-375 375z" horiz-adv-x="1000" />
<glyph glyph-name="watch10" unicode="&#xe875;" d="m499 358l90-155-54-31-98 170v196h62v-180z m344 55v-125h-69c-15-76-59-142-119-187v-251h-375v251c-75 58-125 147-125 249s50 192 125 249v251h375v-251c60-45 104-111 119-186h69z m-125-63c0 138-112 250-250 250-138 0-250-112-250-250 0-138 112-250 250-250 138 0 250 112 250 250z" horiz-adv-x="1000" />
<glyph glyph-name="watch11" unicode="&#xe876;" d="m905 413h-31c-17 0-31-14-31-32h-34c-7 77-35 147-80 203-10 69-23 137-42 204l-63 62h-375l-62-62c-20-67-33-135-43-204-51-64-82-145-82-234s31-170 82-234c10-69 23-137 43-204l62-62h375l63 62c19 67 32 135 42 204 45 56 73 126 80 203h34c0-17 14-31 31-31h31c18 0 32 14 32 31v62c0 18-14 32-32 32z m-468-375c-173 0-313 140-313 312s140 313 313 313c172 0 312-141 312-313s-140-312-312-312z m26 328h161v-32h-161c-4-7-11-12-19-14v-32h-15v32c-8 2-15 7-19 14h-36v32h36c4 7 11 12 19 14v158h15v-158c8-2 15-7 19-14z m-89-141h125v-62h-125v62z m31 375c0 17 14 31 32 31s31-14 31-31-14-31-31-31-32 14-32 31z m63-500c0-17-14-31-31-31s-32 14-32 31 14 31 32 31 31-14 31-31z m-250 250c0-17-14-31-31-31-18 0-32 14-32 31 0 17 14 31 32 31 17 0 31-14 31-31z m437 0c0 17 14 31 32 31 17 0 31-14 31-31 0-17-14-31-31-31-18 0-32 14-32 31z" horiz-adv-x="1000" />
<glyph glyph-name="weekly3" unicode="&#xe877;" d="m313 350h-125v125h125v-125z m250 125h-125v-125h125v125z m250 0h-125v-125h125v125z m-500-187h-125v-125h125v125z m250 0h-125v-125h125v125z m250 0h-125v-125h125v125z m-500-188h-125v-125h125v125z m250 0h-125v-125h125v125z m-313 563c35 0 63 28 63 62v63c0 34-28 62-63 62s-62-28-62-62v-63c0-34 28-62 62-62z m750 62v-875h-1000v875h156c0-52 42-94 94-94s94 42 94 94h312c0-52 42-94 94-94s94 42 94 94h156z m-62-187h-875v-626h875v626z m-188 125c35 0 63 28 63 62v63c0 34-28 62-63 62s-62-28-62-62v-63c0-34 28-62 62-62z" horiz-adv-x="1000" />
<glyph glyph-name="weekly4" unicode="&#xe878;" d="m188 725v63c0 34 28 62 62 62s63-28 63-62v-63c0-34-28-62-63-62s-62 28-62 62z m437-62c35 0 63 28 63 62v63c0 34-28 62-63 62s-62-28-62-62v-63c0-34 28-62 62-62z m250-688h-875v750h156c0-52 42-94 94-94s94 42 94 94h187c0-52 42-94 94-94s94 42 94 94h156v-750z m-62 563h-750v-500h750v500z m125 125v-751h-875v-62h875 62v62 751h-62z m-625-188h-125v-125h125v125z m187 0h-125v-125h125v125z m188 0h-125v-125h125v125z m-375-187h-125v-125h125v125z m187 0h-125v-125h125v125z m188 0h-125v-125h125v125z" horiz-adv-x="1000" />
<glyph glyph-name="wristwatch4" unicode="&#xe879;" d="m906 413h-31c-17 0-31-14-31-32h-34c-7 77-35 147-80 203-10 69-23 137-42 204l-63 62v-176c-55 32-119 51-187 51s-133-19-188-51v176l-62-62c-20-67-33-135-43-204-51-64-82-145-82-234s31-170 82-234c10-69 23-137 43-204l62-62v176c55-32 119-51 188-51s132 19 187 51v-176l63 62c19 67 32 135 42 204 45 56 73 126 80 203h34c0-17 14-31 31-31h31c18 0 32 14 32 31v62c0 18-14 32-32 32z m-468-375c-173 0-313 140-313 312s140 313 313 313c172 0 312-141 312-313s-140-312-312-312z m0 593c-156 0-282-126-282-281s126-281 282-281c155 0 281 126 281 281s-126 281-281 281z m138-489l-16 26-27-15 15-26c-29-14-61-23-95-25v29h-31v-29c-34 2-66 11-95 25l15 26-27 15-16-26c-27 18-51 42-69 70l26 15-16 27-25-15c-15 29-24 61-26 95h30v32h-30c2 34 11 66 26 95l25-15 16 27-26 15c18 28 42 52 69 70l16-26 27 15-15 26c29 15 61 23 95 25v-29h31v29c34-2 66-10 95-25l-15-26 27-15 16 26c27-18 51-42 70-70l-27-15 16-27 26 15c14-29 23-61 25-95h-30v-32h30c-2-34-11-66-25-95l-26 15-16-27 27-15c-19-28-43-52-70-70z m49 224h-161c-4 7-11 12-19 14v158h-15v-158c-8-2-15-7-19-14h-36v-32h36c4-7 11-12 19-14v-32h15v32c8 2 15 7 19 14h161v32z" horiz-adv-x="1000" />
<glyph glyph-name="line26" unicode="&#xe83d;" d="m212 330l-48 40 107 129 522-348 41 74-54 30 160 97 3-187-54 30-74-134-532 355-71-86z m294 103l192-128 186 326 54-30 0 187-162-95 54-30-153-268-183 122-69-83 52-35 29 34z m-109-131l-53 35-180-217 48-40 185 222z m-334-390v126h62v62h-62v125h62v63h-62v125h62v62h-62v125h62v63h-62v125h62v62h-62-63v-1000h1000v62h-937z" horiz-adv-x="1000" />
</font>
</defs>
</svg>
