<?xml version="1.0" standalone="no"?>
<!DOCTYPE svg PUBLIC "-//W3C//DTD SVG 1.1//EN" "http://www.w3.org/Graphics/SVG/1.1/DTD/svg11.dtd">
<svg xmlns="http://www.w3.org/2000/svg">
<metadata>Copyright (C) 2014 by original authors @ fontello.com</metadata>
<defs>
<font id="fontello" horiz-adv-x="1000" >
<font-face font-family="fontello" font-weight="400" font-stretch="normal" units-per-em="1000" ascent="850" descent="-150" />
<missing-glyph horiz-adv-x="1000" />
<glyph glyph-name="connection" unicode="&#xe800;" d="m950 350h-100v250c0 55-45 100-100 100h-250v50c0 55-45 100-100 100h-300c-55 0-100-45-100-100v-200c0-55 45-100 100-100h300c55 0 100 45 100 100v50h250v-250h-100c-55 0-100-45-100-100v-200c0-55 45-100 100-100h300c55 0 100 45 100 100v200c0 55-45 100-100 100z m-550 200h-300v200h300v-200z m550-500h-300v200h100 100 100v-200z m-800 300h200v50h-200v-50z m550-500h200v50h-200v-50z" horiz-adv-x="1050.8" />
<glyph glyph-name="volume32" unicode="&#xe863;" d="m0 350c0-150 58-279 186-338-57 80-93 201-93 338 0 137 36 258 93 338-128-59-186-188-186-338z m288 286c-2-2-3-5-4-7-9-18-17-35-24-54-2-5-4-11-6-17-6-15-11-31-15-47-2-7-4-14-5-21-4-16-7-32-9-49-1-7-3-13-3-20-3-24-5-47-5-71 0-24 2-47 5-70 0-7 2-14 3-21 2-16 5-33 9-49 1-7 3-14 5-21 5-16 9-32 15-47 2-6 4-12 6-17 7-19 15-36 24-53 1-3 2-6 4-8 44-85 107-158 183-214-80 132-129 307-129 500s49 368 129 500c-76-56-139-129-183-214z m769 52c56-80 92-201 92-338 0-137-36-258-92-338 127 59 185 188 185 338 0 150-58 279-185 338z m-40-247c-2 17-5 33-9 49-1 7-3 14-5 21-4 16-9 32-15 47-2 6-4 12-6 17-7 19-15 36-24 54-1 2-2 5-3 7-44 85-107 158-184 214 80-132 130-307 130-500s-50-368-130-500c77 56 140 129 184 214 1 2 2 5 3 8 9 17 17 34 24 53 2 5 4 11 6 17 6 15 11 31 15 47 2 7 4 14 5 21 4 16 7 33 9 49 1 7 3 14 4 21 2 23 4 46 4 70 0 24-2 47-5 71 0 7-2 13-3 20z" horiz-adv-x="1242.2" />
<glyph glyph-name="comments-1" unicode="&#xe802;" d="m556 377c46 0 84 38 84 84 0 46-38 83-84 83-46 0-83-37-83-83 0-46 37-84 83-84z m446 473h-891c-61 0-111-50-111-111v-557c0-61 50-111 111-111h167v-167c0-61 31-72 69-24l152 191h503c61 0 111 50 111 111v557c0 61-50 111-111 111z m0-668h-891v557h891v-557z m-223 195c46 0 83 38 83 84 0 46-37 83-83 83-46 0-83-37-83-83 0-46 37-84 83-84z m-445 0c46 0 83 38 83 84 0 46-37 83-83 83-46 0-84-37-84-83 0-46 38-84 84-84z" horiz-adv-x="1113.3" />
<glyph glyph-name="comments" unicode="&#xe803;" d="m527 507c-44 0-79-35-79-79 0-43 35-79 79-79 44 0 79 36 79 79 0 44-35 79-79 79z m0 343c-291 0-527-189-527-422 0-156 106-291 264-364v-163c0-58 29-68 65-23l110 135c29-4 58-6 88-6 291 0 527 189 527 421 0 233-236 422-527 422z m0-738c-233 0-422 142-422 316 0 175 189 317 422 317 233 0 422-142 422-317 0-174-189-316-422-316z m211 395c-44 0-79-35-79-79 0-43 35-79 79-79 44 0 79 36 79 79 0 44-35 79-79 79z m-422 0c-43 0-79-35-79-79 0-43 36-79 79-79 44 0 79 36 79 79 0 44-35 79-79 79z" horiz-adv-x="1054.7" />
<glyph glyph-name="magnifying-glass" unicode="&#xe804;" d="m806 745c-140 140-367 140-507 0-121-120-137-305-50-444l-219-218c-40-41-40-106 0-146h0l0 0 73-72c20-20 52-20 72 0l73 72c20 20 20 53 0 73l-37 36 145 145c140-90 328-75 450 47 140 140 140 367 0 507z m-109-399c-80-80-210-80-290 0-80 80-80 210 0 290 80 80 210 80 290 0 80-80 80-210 0-290z" horiz-adv-x="910.2" />
<glyph glyph-name="add-comment-1" unicode="&#xe805;" d="m278-94c0-62 31-73 69-25l151 191-220 0v-166z m-167 277v556h889v-349c16 10 35 16 56 16s39-6 55-16v349c0 61-50 111-111 111h-889c-61 0-111-50-111-111v-556c0-61 50-111 111-111h387 295c-9 17-15 35-15 56 0 20 6 39 15 55h-682z m1111 0h-111v112c0 30-25 55-55 55-31 0-56-25-56-55v-112h-111c-31 0-56-24-56-55s25-56 56-56h111v-111c0-31 25-55 56-55 30 0 55 24 55 55v111h111c31 0 56 25 56 56s-25 55-56 55z" horiz-adv-x="1334" />
<glyph glyph-name="add-comment" unicode="&#xe806;" d="m842 221c-1-1-2-2-3-3h3v3z m-155-83c-49-16-103-25-161-25-232 0-421 142-421 316 0 174 189 316 421 316 233 0 421-142 421-316 0-18-2-36-6-53 2 0 4 0 6 0 38 0 71-20 89-49 11 33 17 67 17 102 0 233-236 421-527 421-290 0-526-188-526-421 0-156 106-291 263-364v-162c0-59 29-69 66-23l110 134c28-4 57-6 87-6 68 0 132 10 191 29-20 19-33 46-33 76 0 9 2 17 3 25z m418 28h-105v105c0 29-24 53-53 53-29 0-52-24-52-53v-105h-106c-29 0-52-24-52-53s23-52 52-52h106v-106c0-29 23-52 52-52 29 0 53 23 53 52v106h105c29 0 53 23 53 52s-24 53-53 53z" horiz-adv-x="1210.9" />
<glyph glyph-name="download-1" unicode="&#xe807;" d="m950 400h-100c0 0 0 0 0 0h-150l229 229c39 39 26 71-29 71h-200v50c0 55-45 100-100 100h-200c-55 0-100-45-100-100v-50h-200c-55 0-68-32-29-71l229-229h-150c0 0 0 0 0 0h-100c-28 0-50-22-50-50s22-50 50-50v-350c0-55 45-100 100-100h700c55 0 100 45 100 100v350h0c28 0 50 22 50 50s-22 50-50 50z m-709 200h159v150h200v-150h159l-259-259-259 259z m609-650h-700v350h0v100h150l129-129c39-39 103-39 142 0l129 129h150v-450z" horiz-adv-x="1000" />
<glyph glyph-name="download" unicode="&#xe808;" d="m1056 461h-111c0 0 0 0-1 0h-277l127 128c22 21 14 39-16 39h-111v166c0 31-25 56-56 56h-111c-31 0-56-25-56-56v-166h-111c-30 0-38-18-16-39l127-128h-277c0 0 0 0-1 0h-110c-31 0-56-25-56-55s25-56 56-56v-389c0-61 49-111 111-111h777c62 0 112 50 112 111v389h0c30 0 55 25 55 56s-25 55-55 55z m-112-500h-777v389h0v111h277l72-72c22-21 57-21 79 0l72 72h277v-500z" horiz-adv-x="1111.3" />
<glyph glyph-name="back12" unicode="&#xe809;" d="m750 783c-239 138-545 56-683-183-138-239-56-545 183-683 239-138 545-56 683 183 138 239 56 545-183 683z m96-633c-110-191-355-257-546-146-191 110-257 355-146 546 110 191 355 257 546 146 191-110 257-355 146-546z m-214 324l-132-80 0 56c0 27-19 38-43 24l-164-99c-24-15-24-38 0-52l163-97c24-15 43-4 43 24l0 54 132-78c24-15 43-4 43 24l1 200c0 27-19 38-43 24z" horiz-adv-x="1000" />
<glyph glyph-name="cabinet4" unicode="&#xe80a;" d="m857 231h-762c-52 0-95-43-95-95v-191c0-52 43-95 95-95h762c53 0 95 43 95 95v191c0 52-42 95-95 95z m0-286h-762v191h762v-191z m-95 48c26 0 48 21 48 48 0 26-22 47-48 47s-48-21-48-47c0-27 22-48 48-48z m95 667h-762c-52 0-95-43-95-96v-190c0-53 43-95 95-95h762c53 0 95 42 95 95v190c0 53-42 96-95 96z m0-286h-762v190h762v-190z m-95 47c26 0 48 22 48 48 0 26-22 48-48 48s-48-22-48-48c0-26 22-48 48-48z m143 429h-857c-27 0-48-21-48-48v-47c0-26 21-48 48-48h857c26 0 47 22 47 48v47c0 27-21 48-47 48z" horiz-adv-x="953.1" />
<glyph glyph-name="calculator30" unicode="&#xe80b;" d="m550 300c-28 0-50-22-50-50 0-28 22-50 50-50 28 0 50 22 50 50 0 28-22 50-50 50z m0 150c-28 0-50-22-50-50 0-28 22-50 50-50 28 0 50 22 50 50 0 28-22 50-50 50z m-150-150c-28 0-50-22-50-50 0-28 22-50 50-50s50 22 50 50c0 28-22 50-50 50z m0 150c-28 0-50-22-50-50 0-28 22-50 50-50s50 22 50 50c0 28-22 50-50 50z m-150 100h300c28 0 50 22 50 50 0 28-22 50-50 50h-300c-28 0-50-22-50-50 0-28 22-50 50-50z m0-500l0 0c28 0 50 22 50 50 0 28-22 50-50 50h0c-28 0-50-22-50-50 0-28 22-50 50-50z m450 800h-600c-55 0-100-45-100-100v-800c0-55 45-100 100-100h600c55 0 100 45 100 100v800c0 55-45 100-100 100z m0-900h-600v800h600v-800z m-300 200c-28 0-50-22-50-50 0-28 22-50 50-50s50 22 50 50c0 28-22 50-50 50z m-150 50l0 0c28 0 50 22 50 50 0 28-22 50-50 50h0c-28 0-50-22-50-50 0-28 22-50 50-50z m0 150l0 0c28 0 50 22 50 50 0 28-22 50-50 50h0c-28 0-50-22-50-50 0-28 22-50 50-50z m300-200c-28 0-50-22-50-50 0-28 22-50 50-50 28 0 50 22 50 50 0 28-22 50-50 50z" horiz-adv-x="800.8" />
<glyph glyph-name="calendar53" unicode="&#xe80c;" d="m579 324l0 0c-29 0-53-24-53-53 0-29 24-53 53-53h0c29 0 53 24 53 53 0 29-24 53-53 53z m-158 52c29 0 53 24 53 53 0 29-24 53-53 53s-53-24-53-53c0-29 24-53 53-53z m158 106l0 0c-29 0-53-24-53-53 0-29 24-53 53-53h0c29 0 53 24 53 53 0 29-24 53-53 53z m53 263h-264v-105h264v105z m105-369c29 0 53 24 53 53 0 29-24 53-53 53s-53-24-53-53c0-29 24-53 53-53z m0-158c29 0 53 24 53 53 0 29-24 53-53 53s-53-24-53-53c0-29 24-53 53-53z m-316 0c29 0 53 24 53 53 0 29-24 53-53 53s-53-24-53-53c0-29 24-53 53-53z m-158-157c29 0 53 23 53 52 0 29-24 53-53 53-29 0-52-24-52-53 0-29 23-52 52-52z m632 684h-53v-105h53v-685h-790v685h53v105h-53c-58 0-105-47-105-105v-685c0-58 47-105 105-105h790c58 0 105 47 105 105v685c0 58-47 105-105 105z m-632-527c29 0 53 24 53 53 0 29-24 53-53 53-29 0-52-24-52-53 0-29 23-53 52-53z m0 158c29 0 53 24 53 53 0 29-24 53-53 53-29 0-52-24-52-53 0-29 23-53 52-53z m158-315c29 0 53 23 53 52 0 29-24 53-53 53s-53-24-53-53c0-29 24-52 53-52z m-158 579c29 0 53 23 53 52v105c0 29-24 53-53 53-29 0-52-24-52-53v-105c0-29 23-52 52-52z m474 0c29 0 53 23 53 52v105c0 29-24 53-53 53-29 0-53-24-53-53v-105c0-29 24-52 53-52z" horiz-adv-x="1000" />
<glyph glyph-name="caret7" unicode="&#xe80d;" d="m1677 60l-764 765c-34 34-89 34-123 0l-764-765c-35-34-35-89 0-123l61-62c34-34 89-34 123 0l641 642 642-642c34-34 89-34 123 0l61 62c34 34 34 89 0 123z" horiz-adv-x="1703.1" />
<glyph glyph-name="cellphone4" unicode="&#xe80e;" d="m500 850h-400c-55 0-100-45-100-100v-800c0-55 45-100 100-100h400c55 0 100 45 100 100v800c0 55-45 100-100 100z m-200-950c-28 0-50 22-50 50 0 28 22 50 50 50s50-22 50-50c0-28-22-50-50-50z m200 150h-400v700h400v-700z m450 450h-50v50c0 28-16 34-35 15l-180-180c-19-19-19-51 0-70l180-180c19-19 35-13 35 15v50h50c28 0 50 22 50 50v200c0 28-22 50-50 50z" horiz-adv-x="1000" />
<glyph glyph-name="cellphone5" unicode="&#xe80f;" d="m500 850h-400c-55 0-100-45-100-100v-800c0-55 45-100 100-100h400c55 0 100 45 100 100v800c0 55-45 100-100 100z m-200-950c-28 0-50 22-50 50s22 50 50 50 50-22 50-50-22-50-50-50z m200 150h-400v700h400v-700z" horiz-adv-x="599.6" />
<glyph glyph-name="cellphone6" unicode="&#xe810;" d="m965 385l-180 180c-19 19-35 13-35-15v-50h-50c-28 0-50-22-50-50v-200c0-28 22-50 50-50h50v-50c0-28 16-34 35-15l180 180c19 19 19 51 0 70z m-465 465h-400c-55 0-100-45-100-100v-800c0-55 45-100 100-100h400c55 0 100 45 100 100v800c0 55-45 100-100 100z m-200-950c-28 0-50 22-50 50 0 28 22 50 50 50s50-22 50-50c0-28-22-50-50-50z m200 150h-400v700h400v-700z" horiz-adv-x="978.5" />
<glyph glyph-name="cloth" unicode="&#xe811;" d="m500 450c55 0 100 45 100 100 0 55-45 100-100 100-55 0-100-45-100-100 0-55 45-100 100-100z m0-200c-55 0-100-45-100-100s45-100 100-100c55 0 100 45 100 100s-45 100-100 100z m0 600c-276 0-500-224-500-500 0-276 224-500 500-500 276 0 500 224 500 500 0 276-224 500-500 500z m0-900c-221 0-400 179-400 400 0 221 179 400 400 400 221 0 400-179 400-400 0-221-179-400-400-400z m200 500c-55 0-100-45-100-100 0-55 45-100 100-100s100 45 100 100c0 55-45 100-100 100z m-400 0c-55 0-100-45-100-100 0-55 45-100 100-100 55 0 100 45 100 100 0 55-45 100-100 100z" horiz-adv-x="1000" />
<glyph glyph-name="day7" unicode="&#xe812;" d="m567 267c-5-7-8-14-11-22-2-8-3-19-3-33s3-27 10-40c6-13 15-24 27-32 23-18 55-27 94-27 41 0 73 9 96 27 11 8 20 19 27 32 6 13 9 29 9 48 0 18-5 35-15 50-7 9-18 19-34 30v2c5 4 10 9 14 13 16 15 24 36 24 62 0 33-12 58-35 78-22 18-51 27-86 27s-63-9-85-27c-10-9-19-20-25-33-7-13-10-28-10-46 0-18 4-34 12-48 5-7 14-16 26-26v-2c-16-11-28-22-35-33z m83 110c0 10 3 19 10 26 7 7 15 11 25 11 9 0 17-4 24-11 7-7 10-16 10-26v-12c0-10-3-18-10-26-7-7-15-10-24-10-10 0-18 3-25 10-7 8-10 16-10 26v12z m0-141c0 10 3 19 10 26s15 10 25 10c9 0 17-3 24-10 7-7 10-16 10-26v-17c0-10-3-19-10-26-7-7-15-11-24-11-10 0-18 4-25 11-7 7-10 16-10 26v17z m140 404c29 0 52 23 52 52v105c0 29-23 53-52 53s-53-24-53-53v-105c0-29 23-52 53-52z m-106 105h-316v-105h316v105z m-446-388v-10h87v15c0 11 3 20 10 27 7 7 15 10 24 10h7c9 0 17-3 24-11 7-7 10-16 10-26 0-22-9-40-26-55l-98-83c-15-12-25-26-31-40-5-14-8-31-8-52v-19h263v89h-129l53 41c34 25 56 49 66 74 6 13 9 29 9 47 0 35-11 63-33 85-22 22-51 33-87 33h-15c-39 0-70-12-93-36-22-23-33-53-33-89z m709 388h-52v-105h52v-685h-842v685h53v105h-53c-58 0-105-47-105-105v-685c0-58 47-105 105-105h842c59 0 106 47 106 105v685c0 58-47 105-106 105z m-684-105c29 0 53 23 53 52v105c0 29-24 53-53 53s-52-24-52-53v-105c0-29 23-52 52-52z" horiz-adv-x="1052.7" />
<glyph glyph-name="dialogue" unicode="&#xe813;" d="m527 850c-291 0-527-189-527-422 0-158 110-297 272-368h-8v-159c0-58 29-68 65-23l107 135c30-4 60-6 91-6 291 0 527 189 527 421 0 233-236 422-527 422z m0-738c-233 0-422 142-422 316 0 175 189 317 422 317 233 0 422-142 422-317 0-174-189-316-422-316z" horiz-adv-x="1054.7" />
<glyph glyph-name="dialogue1" unicode="&#xe814;" d="m1001 850h-890c-61 0-111-50-111-111v-557c0-61 50-111 111-111h388 502c62 0 112 50 112 111v557c0 61-50 111-112 111z m0-668h-890v557h890v-557z m-723-278c0-61 31-72 69-24l152 191-221 0v-167z" horiz-adv-x="1113.3" />
<glyph glyph-name="down13" unicode="&#xe815;" d="m606 373l-56-57v209c0 28-22 50-50 50s-50-22-50-50v-209l-56 57c-20 19-51 19-71 0s-19-52 0-71l142-142h0c9-9 22-14 35-14 6 0 13 1 19 3 6 3 12 7 16 11l142 142c19 19 19 51 0 71-20 19-51 19-71 0z m144 410c-239 138-545 56-683-183-138-239-56-545 183-683 239-138 545-56 683 183 138 239 56 545-183 683z m96-633c-110-191-355-257-546-146-191 110-257 355-146 546 110 191 355 257 546 146 191-110 257-355 146-546z" horiz-adv-x="1000" />
<glyph glyph-name="down14" unicode="&#xe816;" d="m1677 753l-61 62c-34 34-89 34-123 0l-641-632-642 642c-34 34-89 34-123 0l-61-62c-35-34-35-89 0-123l764-765c34-34 89-34 123 0l764 755c34 34 34 89 0 123z" horiz-adv-x="1703.1" />
<glyph glyph-name="down15" unicode="&#xe817;" d="m750 783c-239 138-545 56-683-183-138-239-56-545 183-683 239-138 545-56 683 183 138 239 56 545-183 683z m96-633c-110-191-355-257-546-146-191 110-257 355-146 546 110 191 355 257 546 146 191-110 257-355 146-546z m-240 298l-106-107-106 107c-19 19-51 19-71 0-19-20-19-52 0-71l142-142c19-19 51-19 70 0l142 142c19 19 19 51 0 71-20 19-51 19-71 0z" horiz-adv-x="1000" />
<glyph glyph-name="empty21" unicode="&#xe818;" d="m850 750h-150v50c0 28-22 50-50 50h-400c-28 0-50-22-50-50v-50h-150c-28 0-50-22-50-50s22-50 50-50v-700c0-55 45-100 100-100h600c55 0 100 45 100 100v700c28 0 50 22 50 50s-22 50-50 50z m-100-800h-600v700h600v-700z" horiz-adv-x="900.4" />
<glyph glyph-name="family3" unicode="&#xe819;" d="m900 141v159c0 55-45 100-100 100h-250v159c58 20 100 76 100 141 0 83-67 150-150 150s-150-67-150-150c0-65 42-121 100-141v-159h-250c-55 0-100-45-100-100v-159c-58-20-100-76-100-141 0-83 67-150 150-150s150 67 150 150c0 65-42 121-100 141v159h250v-159c-58-20-100-76-100-141 0-83 67-150 150-150s150 67 150 150c0 65-42 121-100 141v159h250v-159c-58-20-100-76-100-141 0-83 67-150 150-150s150 67 150 150c0 65-42 121-100 141z m-750-191c-28 0-50 22-50 50 0 28 22 50 50 50s50-22 50-50c0-28-22-50-50-50z m350 0c-28 0-50 22-50 50 0 28 22 50 50 50s50-22 50-50c0-28-22-50-50-50z m0 700c-28 0-50 22-50 50s22 50 50 50 50-22 50-50-22-50-50-50z m350-700c-28 0-50 22-50 50 0 28 22 50 50 50s50-22 50-50c0-28-22-50-50-50z" horiz-adv-x="1000" />
<glyph glyph-name="four30" unicode="&#xe81a;" d="m950 850h-900c-28 0-50-22-50-50v-50c0-28 22-50 50-50h900c28 0 50 22 50 50v50c0 28-22 50-50 50z m-50-600h-800c-55 0-100-45-100-100v-200c0-55 45-100 100-100h800c55 0 100 45 100 100v200c0 55-45 100-100 100z m0-300h-800v200h800v-200z m50 500h-900c-28 0-50-22-50-50v-50c0-28 22-50 50-50h900c28 0 50 22 50 50v50c0 28-22 50-50 50z m0 200h-900c-28 0-50-22-50-50v-50c0-28 22-50 50-50h900c28 0 50 22 50 50v50c0 28-22 50-50 50z m-150-650c28 0 50 22 50 50 0 28-22 50-50 50s-50-22-50-50c0-28 22-50 50-50z" horiz-adv-x="1000" />
<glyph glyph-name="halffilled" unicode="&#xe81b;" d="m586 678c-229 0-414-185-414-414s185-414 414-414c229 0 414 185 414 414s-185 414-414 414z m-332-414c0 183 149 332 332 332v-663c-183 0-332 148-332 331z" horiz-adv-x="1000" />
<glyph glyph-name="help11" unicode="&#xe81c;" d="m1000 350c0 37-4 72-12 106l3 1-31 95-3-1c-71 162-224 278-407 297v2h-100v-2c-183-19-336-135-407-297l-3 1-31-95 3-1c-8-34-12-70-12-106 0-148 65-281 167-373l-1-2 81-59 1 2c74-43 160-68 252-68 92 0 178 25 252 68l1-2 81 59-1 2c102 92 167 225 167 373z m-450 397c138-18 255-106 312-227l-193-63c-27 42-69 74-119 86v204z m-50-297c55 0 100-45 100-100s-45-100-100-100c-55 0-100 45-100 100s45 100 100 100z m-50 297v-204c-50-12-92-44-119-86l-193 63c58 121 174 209 312 227z m-223-688c-78 73-127 176-127 291 0 26 3 51 7 75l194-63c-1-4-1-8-1-12 0-48 17-93 46-127l-119-164z m273-109c-70 0-136 18-193 50l120 164c22-9 47-14 73-14s51 5 73 14l120-164c-57-32-123-50-193-50z m274 109l-120 164c29 34 46 79 46 127 0 4 0 8-1 12l194 63c5-24 7-49 7-75 0-115-49-218-126-291z" horiz-adv-x="1000" />
<glyph glyph-name="help12" unicode="&#xe81d;" d="m997 400c-10 101-49 192-110 266l2 2-71 71-2-2c-74 61-165 101-266 111v2h-100v-2c-101-10-192-50-266-111l-2 2-71-71 2-2c-60-74-100-165-110-266h-3v-100h3c10-100 50-192 110-266l-2-2 71-71 2 2c74-61 165-101 266-111v-2h100v2c101 10 192 50 266 111l2-2 71 71-2 2c61 74 101 166 111 266h2v100h-3z m-447 347c73-10 140-38 195-81l-144-144c-15 10-33 17-51 22v203z m-100 0v-204c-18-4-36-11-51-21l-144 144c55 43 122 71 195 81z m-265-152l143-143c-9-16-17-34-21-52h-203c9 73 38 140 81 195z m-81-295h203c4-18 12-35 21-51l-143-144c-43 56-72 122-81 195z m346-347c-73 10-140 39-195 82l144 143c15-9 33-17 51-21v-204z m50 297c-55 0-100 45-100 100s45 100 100 100 100-45 100-100-45-100-100-100z m50-297v204c18 4 36 12 52 21l143-143c-55-43-122-72-195-82z m266 152l-144 144c10 16 17 33 21 51h204c-10-73-39-139-81-195z m-122 295c-5 18-12 36-22 51l144 144c42-55 71-122 81-195h-203z" horiz-adv-x="1000" />
<glyph glyph-name="intersecting4" unicode="&#xe81e;" d="m0 682c0 0 0 0 0 0 0 0 0 0 0 0v0z m1243-514c-10 39-41 48-70 19l-48-48-211 211 211 211 48-48c29-29 60-20 70 19l65 262c10 40-14 64-53 54l-262-65c-40-10-49-41-20-70l48-48-211-211-294 295v6h-6l0 1-1-1h-435c-41 0-74-33-74-73 0-41 33-74 74-74h374l258-258-258-258h-374c-41 0-74-33-74-73v0c0-41 33-74 74-74h442v6l294 295 211-211-48-48c-29-29-20-60 19-70l263-65c39-10 63 14 53 54l-65 262z" horiz-adv-x="1310.5" />
<glyph glyph-name="intertwined1" unicode="&#xe81f;" d="m1137 850l-263-248 362-94-99 342z m-3-1000l101 344-361-97 260-247z m-125 284l124 33c-36 71-85 132-143 183 58 51 107 113 143 183l-124 33c-32-55-74-103-123-142-139 79-307 105-473 61-54-14-103-35-149-61-61 47-109 108-141 176-44 94-169 31-104-72 35-67 83-127 141-178-59-51-107-113-142-181-64-100 61-163 103-71 32 69 81 130 143 178 46-26 95-47 149-61 166-44 335-17 473 61 49-39 91-86 123-142z m-564 199c-17 5-35 11-52 17 17 7 35 12 52 17 107 28 214 20 309-17-95-36-202-45-309-17z" horiz-adv-x="1236.3" />
<glyph glyph-name="key31" unicode="&#xe820;" d="m636 532c0 176-142 318-318 318-175 0-318-142-318-318 0-152 107-280 250-311v-280c0-50 41-91 91-91h91c25 0 45 20 45 45v91c0 26-20 46-45 46h-46v189c143 31 250 159 250 311z m-318-182c-100 0-182 81-182 182 0 100 82 182 182 182 101 0 182-82 182-182 0-101-81-182-182-182z" horiz-adv-x="636.7" />
<glyph glyph-name="left33" unicode="&#xe821;" d="m196 350l376 377c20 20 20 52 0 72l-36 36c-20 20-52 20-72 0l-449-449c-20-20-20-52 0-72l449-449c20-20 52-20 72 0l36 36c20 20 20 52 0 72l-376 377z" horiz-adv-x="587.9" />
<glyph glyph-name="left34" unicode="&#xe822;" d="m973 571h-442v222c0 61-36 75-79 32l-436-436c-21-21-21-56 0-78l436-436c43-43 79-29 79 32v222h442c61 0 111 49 111 110v222c0 61-50 110-111 110z m0-332h-553v-175l-286 286 286 286v-175h553v-222z" horiz-adv-x="1084" />
<glyph glyph-name="left35" unicode="&#xe823;" d="m819 427h-546l299 300c20 20 20 52 0 72l-36 36c-20 20-52 20-72 0l-413-413-36-36c-20-20-20-52 0-72l36-36 413-413c20-20 52-20 72 0l36 36c20 20 20 52 0 72l-299 300h546c29 0 52 23 52 51v52c0 28-23 51-52 51z" horiz-adv-x="871.1" />
<glyph glyph-name="left36" unicode="&#xe824;" d="m933 600c-138 239-444 321-683 183-239-138-321-444-183-683 138-239 444-321 683-183 239 138 321 444 183 683z m-233-596c-191-111-436-45-546 146-111 191-45 436 146 546 191 111 436 45 546-146 111-191 45-436-146-546z m-102 523c-20 19-52 19-71 0l-142-142c-19-19-19-51 0-70l142-142c19-19 51-19 71 0s19 51 0 71l-107 106 107 106c19 20 19 51 0 71z" horiz-adv-x="1000" />
<glyph glyph-name="left37" unicode="&#xe825;" d="m933 600c-138 239-444 321-683 183-239-138-321-444-183-683 138-239 444-321 683-183 239 138 321 444 183 683z m-233-596c-191-111-436-45-546 146-111 191-45 436 146 546 191 111 436 45 546-146 111-191 45-436-146-546z m-25 396h-209l57 56c19 20 19 51 0 71-20 19-52 19-71 0l-142-142c-19-19-19-51 0-70l142-142c19-19 51-19 71 0 19 20 19 51 0 71l-57 56h209c28 0 50 22 50 50v0c0 28-22 50-50 50z" horiz-adv-x="1000" />
<glyph glyph-name="left38" unicode="&#xe826;" d="m1029 405h-498v388c0 61-36 75-79 32l-436-436c-21-21-21-56 0-78l436-436c43-43 79-29 79 32v388h498c30 0 55 25 55 55s-25 55-55 55z m-609-341l-286 286 286 286v-572z" horiz-adv-x="1084" />
<glyph glyph-name="line16" unicode="&#xe827;" d="m850 150c-65 0-121-42-141-100h-159v250h159c20-58 76-100 141-100 83 0 150 67 150 150 0 83-67 150-150 150-65 0-121-42-141-100h-159v159c58 20 100 76 100 141 0 83-67 150-150 150-83 0-150-67-150-150 0-65 42-121 100-141v-159h-159c-20 58-76 100-141 100-83 0-150-67-150-150 0-83 67-150 150-150 65 0 121 42 141 100h159v-250c0-55 45-100 100-100h159c20-58 76-100 141-100 83 0 150 67 150 150 0 83-67 150-150 150z m0 250c28 0 50-22 50-50 0-28-22-50-50-50s-50 22-50 50c0 28 22 50 50 50z m-700-100c-28 0-50 22-50 50 0 28 22 50 50 50s50-22 50-50c0-28-22-50-50-50z m350 350c-28 0-50 22-50 50s22 50 50 50 50-22 50-50-22-50-50-50z m350-700c-28 0-50 22-50 50 0 28 22 50 50 50s50-22 50-50c0-28-22-50-50-50z" horiz-adv-x="1000" />
<glyph glyph-name="line17" unicode="&#xe828;" d="m850 150c-65 0-121-42-141-100h-159v250h159c20-58 76-100 141-100 83 0 150 67 150 150 0 83-67 150-150 150-65 0-121-42-141-100h-159v250c0 55-45 100-100 100h-159c-20 58-76 100-141 100-83 0-150-67-150-150 0-83 67-150 150-150 65 0 121 42 141 100h159v-600c0-55 45-100 100-100h159c20-58 76-100 141-100 83 0 150 67 150 150 0 83-67 150-150 150z m0 250c28 0 50-22 50-50 0-28-22-50-50-50s-50 22-50 50c0 28 22 50 50 50z m-700 250c-28 0-50 22-50 50s22 50 50 50 50-22 50-50-22-50-50-50z m700-700c-28 0-50 22-50 50 0 28 22 50 50 50s50-22 50-50c0-28-22-50-50-50z" horiz-adv-x="1000" />
<glyph glyph-name="line18" unicode="&#xe829;" d="m850 500c-65 0-121-42-141-100h-338l165 165c19-10 41-15 64-15 83 0 150 67 150 150 0 83-67 150-150 150s-150-67-150-150c0-23 5-45 15-64l-195-196c-28 37-71 60-120 60-83 0-150-67-150-150 0-83 67-150 150-150 49 0 92 24 120 60l195-195c-10-20-15-42-15-65 0-83 67-150 150-150s150 67 150 150c0 83-67 150-150 150-23 0-45-5-64-15l-165 165h338c20-58 76-100 141-100 83 0 150 67 150 150 0 83-67 150-150 150z m-250 250c28 0 50-22 50-50 0-28-22-50-50-50s-50 22-50 50c0 28 22 50 50 50z m-450-450c-28 0-50 22-50 50 0 28 22 50 50 50s50-22 50-50c0-28-22-50-50-50z m450-250c28 0 50-22 50-50 0-28-22-50-50-50s-50 22-50 50c0 28 22 50 50 50z m250 250c-28 0-50 22-50 50 0 28 22 50 50 50s50-22 50-50c0-28-22-50-50-50z" horiz-adv-x="1000" />
<glyph glyph-name="list31" unicode="&#xe82a;" d="m195 753l-143 89c-29 18-52 5-52-29v-185c0-34 23-47 52-29l143 89c28 18 28 47 0 65z m916 60h-741c-34 0-61-28-61-62v-62c0-34 27-61 61-61h741c34 0 62 27 62 61v62c0 34-28 62-62 62z m-1059-585l143 89c28 18 27 45-3 61l-137 68c-30 15-55 0-55-34v-155c0-34 23-47 52-29z m1059 215h-741c-34 0-61-28-61-62v-62c0-34 27-62 61-62h741c34 0 62 28 62 62v62c0 34-28 62-62 62z m-916-431l-143 89c-29 18-52 5-52-29v-185c0-34 23-47 52-29l143 89c28 18 28 47 0 65z m916 60h-741c-34 0-61-27-61-61v-62c0-34 27-62 61-62h741c34 0 62 28 62 62v62c0 34-28 61-62 61z" horiz-adv-x="1171.9" />
<glyph glyph-name="lock25" unicode="&#xe82b;" d="m350 350c0 138 112 250 250 250v150c0 55-45 100-100 100h-400c-55 0-100-45-100-100v-800c0-55 45-100 100-100h400c55 0 100 45 100 100v150c-138 0-250 112-250 250z m150-400h-400v800h400v-65c-145-43-250-176-250-335 0-158 105-292 250-335v-65z m150 847v-101c170-24 300-170 300-346 0-176-130-322-300-346v-101c225 25 400 215 400 447 0 232-175 422-400 447z m100-447c0 83-67 150-150 150s-150-67-150-150c0-83 67-150 150-150s150 67 150 150z m-150-50c-28 0-50 22-50 50 0 28 22 50 50 50s50-22 50-50c0-28-22-50-50-50z" horiz-adv-x="1050.8" />
<glyph glyph-name="lock26" unicode="&#xe82c;" d="m609 459v130c0 144-117 261-261 261-144 0-261-117-261-261v-130c-48 0-87-39-87-87v-435c0-48 39-87 87-87h522c48 0 87 39 87 87v435c0 48-39 87-87 87z m-435 130c0 96 78 174 174 174s174-78 174-174v-130h-348v130z m435-652h-522v435h522v-435z m-305 186v-56c0-24 20-43 44-43s43 19 43 43v56c26 15 44 43 44 75 0 48-39 87-87 87s-87-39-87-87c0-32 18-60 43-75z" horiz-adv-x="695.3" />
<glyph glyph-name="looping1" unicode="&#xe82d;" d="m475 40h-41v41c0 23-18 41-41 41h-166c-22 0-41-18-41-41v-41h-41c-23 0-29-13-12-30l148-148c16-16 42-16 58 0l149 148c16 17 10 30-13 30z m83 619c-21 21-25 38-54 18-8-6-17-12-25-18-24-20 30-73 18-56 25-36 40-81 40-129 0-126-101-228-227-228-125 0-227 102-227 228 0 111 80 204 186 223v84c-152-21-269-150-269-307 0-172 139-310 310-310s310 138 310 310c0 69-23 134-62 185z m-253-20l135 81c19 12 19 31 0 43l-136 82c-19 12-35 3-35-20l1-165c0-23 16-32 35-21z" horiz-adv-x="619.1" />
<glyph glyph-name="man140" unicode="&#xe82e;" d="m200 450c-110 0-200-90-200-200v-160c0-22 18-40 40-40s40 18 40 40v160c0 66 54 120 120 120 66 0 120-54 120-120v-160c0-22 18-40 40-40s40 18 40 40v160c0 110-90 200-200 200z m360 276v124h-40v-124c-23-8-40-30-40-56v-80c0-33 27-60 60-60 33 0 60 27 60 60v80c0 26-17 48-40 56z m-360 124c-110 0-200-90-200-200 0-110 90-200 200-200 110 0 200 90 200 200 0 110-90 200-200 200z m0-320c-66 0-120 54-120 120 0 66 54 120 120 120 66 0 120-54 120-120 0-66-54-120-120-120z" horiz-adv-x="599.6" />
<glyph glyph-name="microphone29" unicode="&#xe82f;" d="m455 77c0 18 2 35 5 51-9-7-18-14-28-20v15c0 25-20 45-46 45s-45-20-45-45v-45c-8 0-15-1-23-1s-15 1-22 1v45c0 25-21 45-46 45s-45-20-45-45v-15c-49 28-86 74-103 128h125c25 0 46 21 46 46s-21 45-46 45h-136v46h136c25 0 46 20 46 45s-21 46-46 46h-136v45h136c25 0 46 21 46 46s-21 45-46 45h-126c18 55 55 100 104 129v-15c0-25 20-46 45-46s46 21 46 46v44c7 1 15 1 22 1s15 0 23-1v-44c0-25 20-46 45-46s46 21 46 46v15c49-29 86-74 103-129h-126c-25 0-45-20-45-45s20-46 45-46h137v-45h-137c-25 0-45-21-45-46s20-45 45-45h137v-46h-137c-25 0-45-20-45-45s20-46 45-46h111c31 32 71 55 116 64 0 2 0 3 0 5v227c0 176-142 318-318 318-175 0-318-142-318-318v-227c0-161 119-293 273-315 0-1 0-2 0-4v-45c0-25 20-46 45-46 25 0 46 21 46 46v45c0 2-1 3-1 4 35 5 68 16 99 31-5 18-7 37-7 56z m227 182c-101 0-182-81-182-182 0-100 81-182 182-182 100 0 182 82 182 182 0 101-82 182-182 182z m0-295c-63 0-114 51-114 113 0 23 7 45 19 63l157-158c-17-11-39-18-62-18z m95 51l-158 157c18 12 40 19 63 19 63 0 114-51 114-114 0-23-7-44-19-62z" horiz-adv-x="908.2" />
<glyph glyph-name="microphone30" unicode="&#xe830;" d="m311 94c-99 0-184 66-212 156h123c25 0 45 20 45 44s-20 45-45 45h-133v44h133c25 0 45 20 45 45s-20 44-45 44h-133v45h133c25 0 45 20 45 44s-20 45-45 45h-123c28 90 113 155 212 155 100 0 184-65 212-155h-123c-24 0-44-20-44-45s20-44 44-44h133v-45h-133c-24 0-44-20-44-44s20-45 44-45h133v-44h-133c-24 0-44-20-44-45s20-44 44-44h123c-1-4-3-8-4-12 28 25 63 44 102 52 1 9 1 18 1 27v222c0 172-139 311-311 311s-311-139-311-311v-222c0-157 116-286 267-308 0-1 0-2 0-3v-45c0-24 20-44 44-44s45 20 45 44v45c0 1-1 2-1 3 33 5 64 15 92 29-1 11-3 22-3 34 0 28 6 55 15 79-39-35-91-57-148-57z m356 156c-98 0-178-80-178-178 0-98 80-178 178-178 98 0 177 80 177 178 0 98-79 178-177 178z m0-289c-62 0-111 50-111 111 0 23 6 44 18 61l154-153c-18-12-39-19-61-19z m92 50l-154 154c18 12 39 18 62 18 61 0 111-49 111-111 0-22-7-43-19-61z" horiz-adv-x="888.7" />
<glyph glyph-name="next10" unicode="&#xe831;" d="m707 375l-164 99c-24 14-43 4-43-24l1-56-133 80c-24 14-43 4-43-24l1-200c0-28 20-39 43-24l132 78 0-54c0-28 20-39 43-24l163 97c24 14 24 37 0 52z m226 225c-138 239-444 321-683 183-239-138-321-444-183-683 138-239 444-321 683-183 239 138 321 444 183 683z m-233-596c-191-111-436-45-546 146-111 191-45 436 146 546 191 111 436 45 546-146 111-191 45-436-146-546z" horiz-adv-x="1000" />
<glyph glyph-name="connection-1" unicode="&#xe801;" d="m850 200c83 0 150 67 150 150 0 83-67 150-150 150-65 0-121-42-141-100h-272l318 184c26-21 59-34 95-34 83 0 150 67 150 150 0 83-67 150-150 150-83 0-150-67-150-150 0-10 1-21 3-31l-423-244c-26 45-74 75-130 75-83 0-150-67-150-150 0-83 67-150 150-150 56 0 104 30 130 75l423-244c-2-10-3-20-3-31 0-83 67-150 150-150 83 0 150 67 150 150 0 83-67 150-150 150-36 0-69-13-95-34l-318 184h272c20-58 76-100 141-100z m0 200c28 0 50-22 50-50 0-28-22-50-50-50s-50 22-50 50c0 28 22 50 50 50z m0 350c28 0 50-22 50-50 0-28-22-50-50-50s-50 22-50 50c0 28 22 50 50 50z m-700-450c-28 0-50 22-50 50 0 28 22 50 50 50s50-22 50-50c0-28-22-50-50-50z m700-250c28 0 50-22 50-50 0-28-22-50-50-50s-50 22-50 50c0 28 22 50 50 50z" horiz-adv-x="1000" />
<glyph glyph-name="open99" unicode="&#xe833;" d="m957 459h-435v130c0 144-117 261-261 261-144 0-261-117-261-261v-174c0-24 20-43 44-43s43 19 43 43v174c0 96 78 174 174 174 96 0 174-78 174-174v-130c-48 0-87-39-87-87v-435c0-48 39-87 87-87h522c48 0 87 39 87 87v435c0 48-39 87-87 87z m0-522h-522v435h522v-435z m-305 186v-56c0-24 20-43 44-43s43 19 43 43v56c26 15 44 43 44 75 0 48-39 87-87 87s-87-39-87-87c0-32 17-60 43-75z" horiz-adv-x="1043" />
<glyph glyph-name="organizational" unicode="&#xe834;" d="m900 141v159c0 55-45 100-100 100h-250v159c58 20 100 76 100 141 0 83-67 150-150 150-83 0-150-67-150-150 0-65 42-121 100-141v-159h-250c-55 0-100-45-100-100v-159c-58-20-100-76-100-141 0-83 67-150 150-150s150 67 150 150c0 65-42 121-100 141v159h250 100 250v-159c-58-20-100-76-100-141 0-83 67-150 150-150 83 0 150 67 150 150 0 65-42 121-100 141z m-750-191c-28 0-50 22-50 50 0 28 22 50 50 50s50-22 50-50c0-28-22-50-50-50z m350 700c-28 0-50 22-50 50s22 50 50 50 50-22 50-50-22-50-50-50z m350-700c-28 0-50 22-50 50 0 28 22 50 50 50s50-22 50-50c0-28-22-50-50-50z" horiz-adv-x="1000" />
<glyph glyph-name="pause15" unicode="&#xe835;" d="m400 500c-28 0-50-22-50-50v-200c0-28 22-50 50-50s50 22 50 50v200c0 28-22 50-50 50z m533 100c-138 239-444 321-683 183-239-138-321-444-183-683 138-239 444-321 683-183 239 138 321 444 183 683z m-233-596c-191-111-436-45-546 146-111 191-45 436 146 546 191 111 436 45 546-146 111-191 45-436-146-546z m-100 496c-28 0-50-22-50-50v-200c0-28 22-50 50-50s50 22 50 50v200c0 28-22 50-50 50z" horiz-adv-x="1000" />
<glyph glyph-name="pie19" unicode="&#xe836;" d="m586 678c-229 0-414-185-414-414s185-414 414-414 414 185 414 414-185 414-414 414z m-332-414c0 183 149 332 332 332v-332l-234-234c-60 60-98 143-98 234z" horiz-adv-x="1000" />
<glyph glyph-name="pie20" unicode="&#xe837;" d="m414 678c-229 0-414-185-414-414s185-414 414-414c229 0 414 185 414 414s-185 414-414 414z m0-82v-332l-234 235c60 60 143 97 234 97z m-291-174c-26-47-40-101-40-158 0 57 14 111 40 158z" horiz-adv-x="828.1" />
<glyph glyph-name="pie21" unicode="&#xe838;" d="m500 704c-195 0-354-159-354-354s159-354 354-354c195 0 354 159 354 354s-159 354-354 354z m200-554l-200 200 200-200c-51-51-122-83-200-83-156 0-283 127-283 283 0 156 127 283 283 283v-283l200 200c51-51 83-122 83-200 0-78-32-149-83-200z" horiz-adv-x="1000" />
<glyph glyph-name="play43" unicode="&#xe839;" d="m933 600c-138 239-444 321-683 183-239-138-321-444-183-683 138-239 444-321 683-183 239 138 321 444 183 683z m-233-596c-191-111-436-45-546 146-111 191-45 436 146 546 191 111 436 45 546-146 111-191 45-436-146-546z m-20 366l-262 153c-24 14-43 3-43-25l2-303c0-27 19-39 43-25l260 150c24 14 24 36 0 50z" horiz-adv-x="1000" />
<glyph glyph-name="play44" unicode="&#xe83a;" d="m750 783c-239 138-545 56-683-183-138-239-56-545 183-683 239-138 545-56 683 183 138 239 56 545-183 683z m96-633c-110-191-355-257-546-146s-257 355-146 546c110 191 355 257 546 146 191-110 257-355 146-546z m-373 377c-19 19-51 19-70 0-20-20-20-51 0-71l106-106-106-106c-20-20-20-51 0-71 19-19 51-19 70 0l142 142c2 2 4 5 6 8 6 8 8 17 8 27 0 13-5 26-14 35l-142 142z" horiz-adv-x="1000" />
<glyph glyph-name="play45" unicode="&#xe83b;" d="m572 386l-449 449c-19 20-52 20-72 0l-36-36c-20-20-20-52 0-72l377-377-377-377c-20-20-20-52 0-72l36-36c20-20 53-20 72 0l449 449c20 20 20 52 0 72z" horiz-adv-x="587.9" />
<glyph glyph-name="rectangular25" unicode="&#xe83c;" d="m866 363v379c0 60-49 108-108 108h-650c-59 0-108-48-108-108v-379c0-60 49-108 108-108h54v-163c0-29 15-34 33-10l130 173h433c59 0 108 48 108 108z m-758 0v379h650v-379h-650z m866 108h-54v-108h54v-270h-487v108h-108v-109c0-59 48-108 108-108h311l89-119c18-24 33-19 33 11v108h54c60 0 108 49 108 108v271c0 60-48 108-108 108z" horiz-adv-x="1082" />
<glyph glyph-name="remote5" unicode="&#xe83d;" d="m500 259c-25 0-45-20-45-45 0-25 20-46 45-46s45 21 45 46c0 25-20 45-45 45z m0-136c-25 0-45-21-45-46 0-25 20-45 45-45s45 20 45 45c0 25-20 46-45 46z m-136 0c-25 0-46-21-46-46 0-25 21-45 46-45s45 20 45 45c0 25-20 46-45 46z m0 136c-25 0-46-20-46-45 0-25 21-46 46-46s45 21 45 46c0 25-20 45-45 45z m-137 91h273c25 0 45 20 45 46v136c0 25-20 45-45 45h-273c-25 0-45-20-45-45v-136c0-26 20-46 45-46z m409 409h-454v46c0 25-20 45-46 45s-45-20-45-45v-46c-50 0-91-41-91-91v-727c0-50 41-91 91-91h545c51 0 91 41 91 91v727c0 50-40 91-91 91z m0-818h-545v727h545v-727z m-409 227c25 0 46 21 46 46 0 25-21 45-46 45s-45-20-45-45c0-25 20-46 45-46z m0-136c25 0 46 20 46 45 0 25-21 46-46 46s-45-21-45-46c0-25 20-45 45-45z" horiz-adv-x="726.6" />
<glyph glyph-name="right31" unicode="&#xe83e;" d="m851 386l-449 449c-20 20-52 20-72 0l-37-36c-20-20-20-52 0-72l300-300h-542c-28 0-51-23-51-51v-52c0-28 23-51 51-51h542l-300-300c-20-20-20-52 0-72l37-36c20-20 52-20 72 0l449 449c20 20 20 52 0 72z" horiz-adv-x="865.2" />
<glyph glyph-name="right32" unicode="&#xe83f;" d="m1067 389l-436 436c-43 43-78 29-78-32v-222h-442c-61 0-111-49-111-110v-222c0-61 50-110 111-110h442v-222c0-61 35-75 78-32l436 436c22 22 22 57 0 78z m-403-325v175h-553v222h553v175l286-286-286-286z" horiz-adv-x="1084" />
<glyph glyph-name="right33" unicode="&#xe840;" d="m690 386l-142 141c-19 19-51 19-70 0h0c-20-20-20-51 0-71l56-56h-209c-28 0-50-22-50-50v0c0-28 22-50 50-50h209l-56-56c-20-20-20-51 0-71 19-19 51-19 70 0l142 142c19 19 19 51 0 70 0 0 0 0 0 1z m60 397c-239 138-545 56-683-183-138-239-56-545 183-683 239-138 545-56 683 183 138 239 56 545-183 683z m96-633c-110-191-355-257-546-146s-257 355-146 546c110 191 355 257 546 146 191-110 257-355 146-546z" horiz-adv-x="1000" />
<glyph glyph-name="right34" unicode="&#xe841;" d="m1067 389l-436 436c-43 43-78 29-78-32v-388h-498c-30 0-55-24-55-55s25-55 55-55h498v-388c0-61 35-75 78-32l436 436c22 22 22 57 0 78z m-403-325v572l286-286-286-286z" horiz-adv-x="1084" />
<glyph glyph-name="round40" unicode="&#xe842;" d="m500 704c-195 0-354-159-354-354s159-354 354-354c195 0 354 159 354 354s-159 354-354 354z m281-321c-4 36-15 71-32 102 17-31 28-66 32-102z m1-21c0 5 0 11-1 17 1-6 1-12 1-17z m-40 134c-2 4-5 8-7 12 2-4 5-8 7-12z m-21 30c-1 1-2 3-3 4 1-1 2-3 3-4z m-21-376l-200 200 200-200c-51-51-122-83-200-83-156 0-283 127-283 283 0 156 127 283 283 283v-283h283v0c0-78-32-149-83-200z" horiz-adv-x="853.5" />
<glyph glyph-name="round41" unicode="&#xe843;" d="m865 422c-8-34-22-66-40-95 88-22 151-78 151-145 0-85-104-154-231-154-105 0-193 47-222 110-28-5-57-7-86-7-7 0-13 1-19 1 18-70 72-129 147-166v-92c0-28 13-32 29-9l48 73c32-8 67-13 103-13 184 0 334 116 334 257 0 110-89 203-214 240z m-43 69c0 170-173 308-385 308-213 0-386-138-386-308 0-119 84-221 206-273v-138c0-29 14-33 31-11l88 118c20-3 40-5 61-5 212 0 385 138 385 309z m-668 0c0 113 127 205 283 205s282-92 282-205c0-114-126-206-282-206s-283 92-283 206z" horiz-adv-x="1078.1" />
<glyph glyph-name="round42" unicode="&#xe844;" d="m500 704c-195 0-354-159-354-354s159-354 354-354 354 159 354 354-159 354-354 354z m0-637c-156 0-283 127-283 283 0 156 127 283 283 283v-283l200-200c-51-51-122-83-200-83z" horiz-adv-x="853.5" />
<glyph glyph-name="round43" unicode="&#xe845;" d="m822 491c0 170-173 308-385 308-213 0-386-138-386-308 0-119 84-221 206-273v-138c0-29 14-33 31-11l88 118c20-3 40-5 61-5 212 0 385 138 385 309z m-668 0c0 113 127 205 283 205s282-92 282-205c0-114-126-206-282-206s-283 92-283 206z m711-69c-8-34-22-66-40-95 88-22 151-78 151-145 0-85-104-154-231-154-105 0-193 47-222 110-28-5-57-7-86-7-7 0-13 1-19 1 30-118 165-207 327-207 36 0 70 5 103 13l48-73c16-23 29-19 29 9v92c92 46 154 125 154 216 0 110-89 203-214 240z" horiz-adv-x="1078.1" />
<glyph glyph-name="scissor2" unicode="&#xe846;" d="m841 270c-27 0-52-5-76-14l-124 122 229 224c42 40 75 120 75 178v15c0 58-33 72-75 32l-345-336-344 336c-42 40-76 26-76-32v-15c0-58 34-137 76-178l229-224-125-122c-23 9-48 14-75 14-116 0-210-94-210-210 0-116 94-210 210-210 116 0 210 94 210 210 0 30-6 59-18 85l123 121 124-121c-12-26-19-54-19-85 0-116 94-210 211-210 116 0 210 94 210 210 0 116-94 210-210 210z m-631-315c-58 0-105 47-105 105 0 58 47 105 105 105s105-47 105-105c0-58-47-105-105-105z m631 0c-58 0-106 47-106 105 0 58 48 105 106 105s105-47 105-105c0-58-47-105-105-105z" horiz-adv-x="1050.8" />
<glyph glyph-name="scissor3" unicode="&#xe847;" d="m931 488c-64 65-170 64-235-1-16-17-28-35-36-55l-141-1 2 252c0 46-26 110-59 142l-6 6c-33 33-59 22-59-24l0-377-354-2c-46 0-57-26-24-58l5-4c33-32 97-58 143-58l230 2 0-141c-20-8-38-20-55-36-65-65-65-171-1-235 65-65 170-64 235 1 65 66 66 171 1 235-17 18-37 30-59 38l1 138 138 1c8-22 20-42 38-59 64-65 169-64 235 1 65 65 66 171 1 235z m-414-531c-32-32-85-33-117 0s-32 85 0 118c33 33 86 33 118 0 32-32 32-85-1-118z m354 354c-33-32-85-33-117 0s-32 85 0 118c33 32 85 33 118 0s32-85-1-118z" horiz-adv-x="978.5" />
<glyph glyph-name="screen13" unicode="&#xe848;" d="m714-55h-476c-26 0-47-21-47-47 0-27 21-48 47-48h476c27 0 48 21 48 48 0 26-21 47-48 47z m143 905h-762c-52 0-95-43-95-95v-667c0-52 43-95 95-95h762c53 0 95 43 95 95v667c0 52-42 95-95 95z m-47-809c-27 0-48 21-48 47s21 48 48 48 47-22 47-48-21-47-47-47z m47 142h-762v572h762v-572z" horiz-adv-x="953.1" />
<glyph glyph-name="screen14" unicode="&#xe849;" d="m1353-32h-29v764c0 65-53 118-118 118h-1000c-65 0-118-53-118-118v-764h-29c-33 0-59-27-59-59s26-59 59-59h1294c33 0 59 26 59 59s-26 59-59 59z m-1147 764h1000v-647h-1000v647z" horiz-adv-x="1412.1" />
<glyph glyph-name="screen15" unicode="&#xe84a;" d="m750 850h-650c-55 0-100-45-100-100v-800c0-55 45-100 100-100h650c55 0 100 45 100 100v800c0 55-45 100-100 100z m-325-950c-28 0-50 22-50 50s22 50 50 50 50-22 50-50-22-50-50-50z m325 150h-650v700h650v-700z" horiz-adv-x="849.6" />
<glyph glyph-name="simcard1" unicode="&#xe84b;" d="m1286 631l-172 172c-26 26-77 47-114 47h-867c-73 0-133-60-133-133v-734c0-73 60-133 133-133h1067c74 0 133 60 133 133v534c0 37-21 88-47 114z m-86-648h-1067v734h867l200-200v-534z m-600 600h-200c-74 0-133-59-133-133v-200c0-74 59-133 133-133h200c74 0 133 59 133 133v200c0 74-59 133-133 133z" horiz-adv-x="1334" />
<glyph glyph-name="single15" unicode="&#xe84c;" d="m111 182v557h891v-501h111v501c0 61-50 111-111 111h-891c-61 0-111-50-111-111v-557c0-61 50-111 111-111h388 295c-9 17-15 35-15 56 0 20 6 39 15 55h-683z m167-278c0-61 31-72 69-24l152 191-221 0v-167z m946 278h-334c-30 0-55-24-55-55s25-56 55-56h334c31 0 56 25 56 56s-25 55-56 55z" horiz-adv-x="1335.9" />
<glyph glyph-name="small145" unicode="&#xe84d;" d="m500 850c-276 0-500-224-500-500 0-276 224-500 500-500s500 224 500 500c0 276-224 500-500 500z m0-900c-221 0-400 179-400 400 0 221 179 400 400 400s400-179 400-400c0-221-179-400-400-400z m0 550c-83 0-150-67-150-150 0-83 67-150 150-150s150 67 150 150c0 83-67 150-150 150z m0-200c-28 0-50 22-50 50 0 28 22 50 50 50s50-22 50-50c0-28-22-50-50-50z" horiz-adv-x="1000" />
<glyph glyph-name="song" unicode="&#xe84e;" d="m44 415h260v87h-260c-24 0-44-19-44-43s20-44 44-44z m0 174h260v0l373 87h-633c-24 0-44-19-44-43v0c0-24 20-44 44-44z m0 174h652c24 0 43 20 43 44 0 24-19 43-43 43h-652c-24 0-44-19-44-43 0-24 20-44 44-44z m0-522h260v87h-260c-24 0-44-19-44-43v0c0-24 20-44 44-44z m697 331l-264-53c-47-9-86-56-86-104v-263c-7 2-14 2-21 2-60 0-109-48-109-108 0-60 49-109 109-109 60 0 108 49 108 109 0 5-1 11-1 16l1 0v304l261 49v-176c-7 2-14 2-22 2-60 0-108-48-108-108 0-60 48-109 108-109 59 0 106 46 109 104l0 0v374c0 48-38 80-85 70z m-741-461c0-24 20-44 44-44h131c4 32 15 62 32 87h-163c-24 0-44-19-44-43z" horiz-adv-x="957" />
<glyph glyph-name="speaker35" unicode="&#xe84f;" d="m613 540l-38-37c41-41 41-108 0-149l38-37c61 61 61 161 0 223z m-86 310c-291 0-527-189-527-422 0-156 106-291 264-364v-163c0-58 29-68 65-23l110 135c29-4 58-6 88-6 291 0 527 189 527 421 0 233-236 422-527 422z m0-738c-233 0-422 142-422 316 0 175 189 317 422 317 233 0 422-142 422-317 0-174-189-316-422-316z m123 465c82-82 82-215 0-298l37-37c103 103 103 270 0 373l-37-38z m-167 34l-122-78c-25-15-45-51-45-81v-48c0-29 20-65 45-81l122-77c24-16 44-5 44 24v317c0 29-20 40-44 24z" horiz-adv-x="1054.7" />
<glyph glyph-name="speaker36" unicode="&#xe850;" d="m686 303l39-39c109 109 109 285 0 393l-39-39c87-87 87-228 0-315z m-39 40c65 65 65 170 0 236l-40-40c43-43 43-114 0-157l40-39z m355 507h-891c-61 0-111-50-111-111v-557c0-61 50-111 111-111h167v-167c0-61 31-72 69-24l152 191h503c61 0 111 50 111 111v557c0 61-50 111-111 111z m0-668h-891v557h891v-557z m-621 168l128-82c26-17 47-5 47 26v334c0 30-21 42-47 25l-128-82c-26-16-47-54-47-85v-51c0-30 21-69 47-85z" horiz-adv-x="1113.3" />
<glyph glyph-name="speed4" unicode="&#xe851;" d="m500 850c-276 0-500-224-500-500 0-276 224-500 500-500 276 0 500 224 500 500 0 276-224 500-500 500z m0-900c-221 0-400 179-400 400 0 221 179 400 400 400 221 0 400-179 400-400 0-221-179-400-400-400z m150 450l-129-1c-14 0-19 10-12 21l139 213c15 23 11 26-8 7l-305-305c-19-19-13-35 15-35l104 1c28 0 38-19 23-42l-138-213c-8-12-6-13 4-3l217 216c10 9 26 25 36 35l69 70c19 20 13 36-15 36z" horiz-adv-x="1000" />
<glyph glyph-name="square64" unicode="&#xe852;" d="m933 600c-138 239-444 321-683 183-239-138-321-444-183-683 138-239 444-321 683-183 239 138 321 444 183 683z m-233-596c-191-111-436-45-546 146-111 191-45 436 146 546 191 111 436 45 546-146 111-191 45-436-146-546z m-100 496h-200c-28 0-50-22-50-50v-200c0-28 22-50 50-50h200c28 0 50 22 50 50v200c0 28-22 50-50 50z" horiz-adv-x="1000" />
<glyph glyph-name="subtract2" unicode="&#xe853;" d="m688 136c-49-15-104-24-161-24-233 0-422 142-422 316 0 175 189 317 422 317 233 0 422-142 422-317 0-81-41-154-108-210h142c45 62 71 134 71 210 0 233-236 422-527 422-291 0-527-189-527-422 0-156 106-291 264-364v-163c0-58 29-68 65-23l110 135c29-4 58-6 88-6 68 0 132 10 191 29-20 19-33 46-33 76 0 8 1 16 3 24z m419 29h-316c-29 0-53-24-53-53s24-52 53-52h316c29 0 53 23 53 52s-24 53-53 53z" horiz-adv-x="1212.9" />
<glyph glyph-name="telephone67" unicode="&#xe854;" d="m455 305c25 0 45 20 45 45 0 25-20 45-45 45s-46-20-46-45c0-25 21-45 46-45z m0 136c25 0 45 20 45 45 0 26-20 46-45 46s-46-20-46-46c0-25 21-45 46-45z m-228 364h-91c-50 0-90-41-90-91v-91c0-34 18-63 45-79v-388c-27-16-45-45-45-79v-91c0-50 40-91 90-91h91c51 0 91 41 91 91v91c0 34-18 63-45 79v388c27 16 45 45 45 79v91c0 50-40 91-91 91z m228-637c25 0 45 21 45 46 0 25-20 45-45 45s-46-20-46-45c0-25 21-46 46-46z m409 591h-508c5-14 8-29 8-45v-46h500v-636h-500v-46c0-16-3-31-8-45h508c50 0 91 41 91 91v636c0 50-41 91-91 91z m-273-318c25 0 45 20 45 45 0 26-20 46-45 46s-45-20-45-46c0-25 20-45 45-45z m136-273c25 0 46 21 46 46 0 25-21 45-46 45s-45-20-45-45c0-25 20-46 45-46z m0 273c25 0 46 20 46 45 0 26-21 46-46 46s-45-20-45-46c0-25 20-45 45-45z m-136-136c25 0 45 20 45 45 0 25-20 45-45 45s-45-20-45-45c0-25 20-45 45-45z m0-137c25 0 45 21 45 46 0 25-20 45-45 45s-45-20-45-45c0-25 20-46 45-46z m136 137c25 0 46 20 46 45 0 25-21 45-46 45s-45-20-45-45c0-25 20-45 45-45z" horiz-adv-x="955.1" />
<glyph glyph-name="telephone68" unicode="&#xe855;" d="m982 96l-221 221c-20 20-53 20-73 0l-74-74c-20-20-53-20-73 0l-148 147c-20 21-20 54 0 74l74 74c20 20 20 53 0 73l-221 221c-20 20-56 24-80 8l-134-89c-24-16-37-52-30-79 0 0 89-148 105-163l552-553c15-15 163-104 163-104 27-7 63 6 79 30l89 134c16 24 12 60-8 80z" horiz-adv-x="1000" />
<glyph glyph-name="television9" unicode="&#xe856;" d="m900 850h-800c-55 0-100-45-100-100v-650c0-55 45-100 100-100h250l-34-103c-9-26 6-47 34-47h300c28 0 43 21 34 47l-34 103h250c55 0 100 45 100 100v650c0 55-45 100-100 100z m0-650h-800v550h800v-550z" horiz-adv-x="1000" />
<glyph glyph-name="three60" unicode="&#xe857;" d="m611-28c-44-18-91-27-141-27-101 0-193 40-261 105l31 18c22 13 22 34 0 46l-152 86c-22 12-40 2-41-24l-3-179c-1-25 16-36 38-23l43 26c87-92 209-150 345-150 50 0 97 8 142 22 95 25 48 120-1 100z m-517 403c21 153 134 277 281 316v97c-185-37-331-184-369-369-34-119 85-95 88-44z m323 234l154 92c23 13 23 35 1 49l-156 94c-23 14-41 3-40-23l0-189c0-26 19-37 41-23z m534-455l-81 48 49-28c16 47 25 97 25 150 0 144-64 272-165 359-48 44-119-4-74-62 88-69 144-177 144-297 0-35-5-69-14-101l-42 24c-21 13-39 3-38-23l2-178c1-26 19-37 41-25l152 87c22 13 23 33 1 46z" horiz-adv-x="966.8" />
<glyph glyph-name="threefourth" unicode="&#xe858;" d="m414 678c-229 0-414-185-414-414s185-414 414-414 414 185 414 414-185 414-414 414z m0-82v-332h-331c0 183 148 332 331 332z" horiz-adv-x="828.1" />
<glyph glyph-name="trash30" unicode="&#xe859;" d="m450 50c28 0 50 22 50 50v400c0 28-22 50-50 50s-50-22-50-50v-400c0-28 22-50 50-50z m400 700h-150v50c0 28-22 50-50 50h-400c-28 0-50-22-50-50v-50h-150c-28 0-50-22-50-50s22-50 50-50v-700c0-55 45-100 100-100h600c55 0 100 45 100 100v700c28 0 50 22 50 50s-22 50-50 50z m-100-800h-600v700h600v-700z m-450 100c28 0 50 22 50 50v400c0 28-22 50-50 50s-50-22-50-50v-400c0-28 22-50 50-50z m300 0c28 0 50 22 50 50v400c0 28-22 50-50 50s-50-22-50-50v-400c0-28 22-50 50-50z" horiz-adv-x="900.4" />
<glyph glyph-name="two122" unicode="&#xe85a;" d="m300 158c-104 48-169 116-169 192 0 123 168 225 395 255v132c-300-37-526-196-526-387 0-110 75-209 196-280 133-81 198 50 104 88z m789 489c-70 65-169-34-102-92 119-48 196-122 196-205 0-122-168-225-394-254v-132c299 37 525 196 525 386 0 119-87 225-225 297z m-505-132l214 128c31 19 31 49 0 68l-216 131c-31 19-56 4-56-32l1-263c0-36 26-50 57-32z m148-330l-216-131c-31-19-31-49 1-68l213-128c32-18 57-4 57 32l1 263c0 36-25 50-56 32z" horiz-adv-x="1314.5" />
<glyph glyph-name="two123" unicode="&#xe85b;" d="m225 70c-82 66-135 167-135 280 0 168 115 308 270 349v92c-205-41-360-223-360-441 0-134 59-255 153-337 72-68 117 22 72 57z m519 621c-46 42-114-26-70-59 83-66 136-168 136-282 0-167-115-308-270-348v-93c206 42 360 224 360 441 0 137-60 259-156 341z m-344-70l146 87c22 13 22 34 0 47l-147 89c-22 13-39 4-39-21l1-180c0-25 18-35 39-22z m102-542l-148-89c-22-13-21-34 0-47l146-87c22-13 39-3 39 21l1 181c0 24-17 34-38 21z" horiz-adv-x="900.4" />
<glyph glyph-name="two124" unicode="&#xe85c;" d="m1059 321h-941c-65 0-118-53-118-118v-235c0-65 53-118 118-118h941c65 0 118 53 118 118v235c0 65-53 118-118 118z m0-353h-941v235h941v-235z m-118 588c33 0 59 26 59 59 0 32-26 59-59 59s-59-27-59-59c0-33 27-59 59-59z m118 294h-941c-65 0-118-53-118-118v-235c0-65 53-118 118-118h941c65 0 118 53 118 118v235c0 65-53 118-118 118z m0-353h-941v235h941v-235z m-118-470c33 0 59 26 59 58 0 33-26 59-59 59s-59-26-59-59c0-32 27-58 59-58z" horiz-adv-x="1175.8" />
<glyph glyph-name="two125" unicode="&#xe85d;" d="m974 471h-54v-108h54v-270h-487v108h-108v-109c0-59 48-108 108-108h54v-108c0-30 15-35 33-11l89 119h311c60 0 108 49 108 108v271c0 60-48 108-108 108z m-108-108v379c0 60-49 108-108 108h-650c-59 0-108-48-108-108v-379c0-60 49-108 108-108h54v-162c0-30 15-35 33-11l130 173h433c59 0 108 48 108 108z m-758 0v379h650v-379h-650z" horiz-adv-x="1082" />
<glyph glyph-name="unlock4" unicode="&#xe85e;" d="m500 850h-400c-55 0-100-45-100-100v-800c0-55 45-100 100-100h400c55 0 100 45 100 100v150c-138 0-250 112-250 250 0 138 112 250 250 250v150c0 55-45 100-100 100z m0-165c-145-43-250-176-250-335 0-158 105-292 250-335v-65h-400v800h400v-65z m150 112v-306c58-20 100-76 100-141 0-65-42-121-100-141v-306c225 25 400 215 400 447 0 232-175 422-400 447z" horiz-adv-x="1050.8" />
<glyph glyph-name="up21" unicode="&#xe85f;" d="m535 540c-19 19-51 19-70 0h0c0 0 0 0 0 0l-142-142c-19-19-19-51 0-70v0c20-20 51-20 71 0l56 56v-209c0-28 22-50 50-50s50 22 50 50v209l56-56c20-20 51-20 71 0v0c19 19 19 51 0 70l-142 142z m398 60c-138 239-444 321-683 183-239-138-321-444-183-683 138-239 444-321 683-183 239 138 321 444 183 683z m-233-596c-191-111-436-45-546 146-111 191-45 436 146 546 191 111 436 45 546-146 111-191 45-436-146-546z" horiz-adv-x="1000" />
<glyph glyph-name="up22" unicode="&#xe860;" d="m933 600c-138 239-444 321-683 183-239-138-321-444-183-683 138-239 444-321 683-183 239 138 321 444 183 683z m-233-596c-191-111-436-45-546 146-111 191-45 436 146 546 191 111 436 45 546-146 111-191 45-436-146-546z m-165 461c-9 9-22 14-35 14s-26-5-35-14l-142-142c-19-19-19-51 0-70v0c20-20 52-20 71 0l106 106 106-106c20-20 51-20 71 0v0c19 19 19 51 0 70l-142 142z" horiz-adv-x="1000" />
<glyph glyph-name="volume30" unicode="&#xe861;" d="m83 183c-46 0-83-37-83-83v-167c0-46 37-83 83-83s84 37 84 83v167c0 46-38 83-84 83z m334 167c-46 0-84-37-84-83v-334c0-46 38-83 84-83s83 37 83 83v334c0 46-37 83-83 83z m333 167c-46 0-83-38-83-84v-500c0-46 37-83 83-83s83 37 83 83v500c0 46-37 84-83 84z m333 166c-46 0-83-37-83-83v-667c0-46 37-83 83-83s84 37 84 83v667c0 46-38 83-84 83z m334 167c-46 0-84-37-84-83v-834c0-46 38-83 84-83s83 37 83 83v834c0 46-37 83-83 83z" horiz-adv-x="1500" />
<glyph glyph-name="volume31" unicode="&#xe862;" d="m154 158h-77c-42 0-77-35-77-77v-154c0-43 35-77 77-77h77c42 0 77 34 77 77v154c0 42-35 77-77 77z m385 231h-77c-43 0-77-35-77-77v-385c0-43 34-77 77-77h77c42 0 76 34 76 77v385c0 42-34 77-76 77z m384 230h-77c-42 0-77-34-77-77v-615c0-43 35-77 77-77h77c43 0 77 34 77 77v615c0 43-34 77-77 77z m385 231h-77c-43 0-77-34-77-77v-846c0-43 34-77 77-77h77c42 0 77 34 77 77v846c0 43-35 77-77 77z" horiz-adv-x="1384.8" />
<glyph glyph-name="open98" unicode="&#xe832;" d="m591 441h-413l-42 71c-46 81-19 184 62 231 81 47 184 19 231-62l84-146c12-20 38-27 58-15 20 11 27 37 15 57l-84 146c-70 122-225 163-346 93-121-70-163-225-93-346l18-30c-45-2-81-38-81-84v-422c0-46 38-84 84-84h507c46 0 84 38 84 84v422c0 47-38 85-84 85z m0-507h-507v422h507v-422z m-296 181v-54c0-23 19-42 43-42s42 19 42 42v54c25 15 42 41 42 73 0 46-38 84-84 84s-85-38-85-84c0-32 17-58 42-73z" horiz-adv-x="675.8" />
</font>
</defs>
</svg>
