<?xml version="1.0" standalone="no"?>
<!DOCTYPE svg PUBLIC "-//W3C//DTD SVG 1.1//EN" "http://www.w3.org/Graphics/SVG/1.1/DTD/svg11.dtd">
<svg xmlns="http://www.w3.org/2000/svg">
<metadata>Copyright (C) 2014 by original authors @ fontello.com</metadata>
<defs>
<font id="fontello" horiz-adv-x="1000" >
<font-face font-family="fontello" font-weight="400" font-stretch="normal" units-per-em="1000" ascent="850" descent="-150" />
<missing-glyph horiz-adv-x="1000" />
<glyph glyph-name="afghanistan" unicode="&#xe800;" d="m814 469c-43-33-50-27-52 24 0 19-6 37-25 44-19 6-25-15-34-25-29-33-83-50-126-37-75 23-89 18-140-47-7-9-20-13-30-19-13-7-34-3-37-27-1-10-20-16-26-12-47 31-55-4-76-34-22-34-11-65-5-93 5-23-16-62 21-71 44-12 29-29 11-50-8-9-15-19-24-30 67-33 135-23 203-14 29 3 56 9 51 49-2 14 11 26 23 32 49 20 117 12 124 90 0 2 4 5 7 5 38 3 23 26 14 45 43 1 85 51 69 86-14 32 1 38 23 50 19 11 39 17 61 15 25-3 48 1 74 35-41-13-72 11-106-16z" horiz-adv-x="1000" />
<glyph glyph-name="zimbabwe" unicode="&#xe8c1;" d="m914 447c4 62-9 68-73 86-44 12-82 45-133 37-3 0-9 3-10 7-17 49-55 20-80 17-24-2-56-10-57-47-1-11-1-22-15-25-58-13-86-60-120-101-18-22-36-30-68-23-32 7-66 18-101 12-5-18 7-28 16-37 39-40 40-103 89-135 47-30 100-52 106-121 2-21 24-44 56-45 22-2 49-1 57-33 2-7 22-14 32-13 24 2 45-9 67-11 57-6 108-11 151 47 37 49 42 112 84 156 9 10-1 21-7 29-15 23-17 62-10 71 30 42 13 87 16 129z" horiz-adv-x="1000" />
<glyph glyph-name="algaria" unicode="&#xe802;" d="m559-1c6-11 61-2 86 21 47 42 103 72 155 106 12 7 32 9 29 30-3 18-18 22-33 28-29 12-37 33-34 65 7 77 5 152-45 218-9 13-33 30-23 41 33 33 14 75 28 110-38 12-75-5-112-2-79 5-149-17-215-58-9-6-14-8-9-20 13-28 4-60 27-91-50 7-76-16-102-47-35-43-100-34-139-73 0-18 0-37 0-55 111-69 224-136 322-223 20-18 48-21 65-50z" horiz-adv-x="1000" />
<glyph glyph-name="andorra" unicode="&#xe803;" d="m285 302c35-49 27-77-30-101-12-5-23-11-24-24-1-13 13-7 20-10 12-7 13-16 13-28-2-60 25-93 89-91 4 0 9 0 13-1 72-17 99-4 119 58 17 10 22-33 35-8 14 29 34 24 56 24 67 0 76 8 92 69 3 12 1 23 24 9 48-30 69-5 88 50 15 45-7 124 81 125 9 0 21 8 20 22-2 16-14 14-24 12-17-2-29 13-43 14-39 4-44 17-21 48 10 14 7 23-3 24-68 5-133 30-202 28-30-2-58 7-75 38-14 25-38 34-69 25-21-6-41-21-66-14-39 12-68-13-56-53 11-35-2-42-30-50-27-8-50-49-42-57 30-32 8-42-11-62-11-11-14-31-20-48 24-10 44 32 66 1z" horiz-adv-x="1000" />
<glyph glyph-name="angola" unicode="&#xe804;" d="m326 561c27-10 9 20 17 30 9 10 23 16 26 30-12 0-25 0-37 0 0-2 0-7-1-8-27-16-16-48-5-52z m39-553c10 5 18-1 25-7 15-14 32-11 51-11 60 1 123 14 179-6 80-29 156-28 238-5-65 72-65 72-65 154 0 9 2 19 0 28-7 39 10 52 47 45 34-5 52 4 52 44 0 55 3 55-55 53-9 0-17 3-25 5 0 0 0 0 0 0l-1 0c0 0 1 0 1 0 1 44-31 80-25 127 2 10 19 54-23 50-24-3-38 21-62 17-14-3-28-2-31-21-7-47-49-22-73-33-22-10-27 19-37 33-9 13-13 30-17 46-3 15-11 27-26 27-52-1-104 7-156-2-29-4-40-13-20-44 17-26 43-62 32-86-17-37-1-61 13-87 16-31 23-69-1-90-53-45-55-109-77-166-9-25-13-55-2-75 10-17 38-4 58 4z" horiz-adv-x="1000" />
<glyph glyph-name="antigua" unicode="&#xe805;" d="m593 43c22-1 74 50 75 74 2 27-66 79-106 83-21 1-72-49-73-72-1-53 33-81 104-85z m-57 655c-10 2-22 14-28 1-14-32 10-61 13-92 0-2 0-4 1-5 21-25 50-44 79-46 20-1 13 33 13 50 15 67-28 82-78 92z" horiz-adv-x="1000" />
<glyph glyph-name="argentina" unicode="&#xe806;" d="m498 123c-1 3 9 9 9 14 5 29 82 41 21 85-1 1 1 11 3 12 23 10 24 39 38 48 30 19-4 24-3 34 2 32 45-10 43 22-1 39 25 29 46 33 43 9 59 36 41 70-23 45-17 84 19 118 12 12 26 21 38 33 8 8 8 19-1 28-5 5-12 5-15-2-7-17-16-29-36-28-36 2-4 27-13 37-1 1-1 3-3 4-40 12-65 56-111 55-29 9-39-1-53-27-25-45-40-93-50-141-6-27 9-58-3-88-14-35-18-72-22-109-7-58 14-119-25-175-6-10 13-47 45-51 22-4 42-7 32 28z m5-54c-9-55 28-38 53-35-16 11-33 22-53 35z" horiz-adv-x="1000" />
<glyph glyph-name="armenia" unicode="&#xe807;" d="m205 521c23-27 45-61 18-94-38-45 6-79 11-117 2-18 43-32 68-25 57 15 93-15 128-51 19-20 38-34 67-18 17 9 27-3 34-14 25-41 59-52 103-36 12 4 30 17 33-6 5-55 50-90 66-141 14-43 50-2 76-8 20-4 10 20 13 32 4 15-31 40 13 43 8 1-1 14-5 18-10 11-22 20-34 32 10 11 32 13 23 31-7 14-24 22-38 21-17-2-29 1-41 11-33 27-66 53-104 83 11 1 17 2 22 1 30-6 45 11 52 37 8 30-20 30-36 38-27 16-52 32-71 57-14 20-21 38 7 52 26 12 27 26 3 43-15 10-25 25-47 25-8 0-27 0-28 20-2 32-31 51-60 43-14-4-25-14-42-13-87 6-171-19-258-29 4-19 18-25 27-35z" horiz-adv-x="1000" />
<glyph glyph-name="aruba" unicode="&#xe808;" d="m871 42c31 1 36 9 27 41-6 22-7 46-17 66-18 40-15 91-50 120-37 30-82 58-105 96-32 55-86 72-130 105-32 24-70 37-99 68-48 52-86 114-149 151-13 8-24 24-40 12-18-14 0-25 4-38 14-52 51-101 3-159-14-17-49-54-10-88 59-53 116-109 179-158 22-16 55-18 77-41 67-72 159-106 245-144 22-10 36-37 65-31z m-163 92c-32 21-55 36-94 12 34-5 58-20 94-12z" horiz-adv-x="1000" />
<glyph glyph-name="australia" unicode="&#xe809;" d="m715 511c-7 53-47 90-54 148-24-32-27-62-29-92-2-17-10-43-24-39-25 8-48 26-68 44-14 12-3 28 7 40 9 11 4 33-2 29-31-19-62 24-93-6-25-23-42-62-95-44-14 4-57-38-64-65-11-39-35-50-65-62-87-34-91-74-49-154 16-31 38-59 30-97-5-27 23-32 30-27 34 23 78 20 109 46 56 49 120 45 164-13 9-12 14-15 22-1 2-3 4-6 6-9 17-16 34-30 45-54 17-39 125-46 147-9 21 37 48 70 67 108 30 62 12 115-23 169-20 31-56 52-61 88z" horiz-adv-x="1000" />
<glyph glyph-name="austria" unicode="&#xe80a;" d="m324 215c37 21 74 39 107-7 6-9 16-13 28-13 71-1 143-50 215-2 5 3 12 1 18 1 70 5 101 35 113 109 0 0 0 0-1 0 0 0 1 1 1 1 0 0 0 0 0-1 26 8 43 19 45 36 1 3 0 6 0 10 0 0 0 1 0 2-1 3-3 8-5 12 0 0 0 0 0 1-3 4-6 9-10 15-3 5-3 14-1 21 7 28-16 36-31 34-37-4-68 11-102 19-18 5-37 13-49-16-9-19-38-33-55-21-25 18-43 7-58-6-19-16-43-27-59-43-22-21 11-43 12-67 0-1-2-2-6-7-16 21-39 23-62 20-46-6-88-42-138-15-4 2-18-2-20-6-9-26-19-16-32-3-10 11-27 16-36 4-7-11-13-28-5-43 12-21 111-47 131-35z" horiz-adv-x="1000" />
<glyph glyph-name="azerbaijan" unicode="&#xe80b;" d="m189 550c50-77 114-144 160-224 8-13 18-25 32-31 50-21 87-58 119-99 16-19 35-31 57-37 90-21 182-40 279-62-6 17-9 27-13 36-21 44-58 89-58 133 0 62-36 81-75 103-23 13-22 28-18 50 16 74-7 94-80 73-10-3-21-5-30-11-48-31-89-12-130 17-11 8-19 25-39 14-27-15-27 1-30 23-9 60-49 84-106 65-28-8-56-18-85-19 0-6 0-12 0-18 9 1 14-7 17-13z" horiz-adv-x="1000" />
<glyph glyph-name="bahamas" unicode="&#xe80c;" d="m169 691c0-6 0-12 0-18 14-9 26-28 44-20 28 13 66-2 86 32 7 11 16 4 23-2 18-17 31-35 11-60-12-13-4-21 7-29 9-6 17-8 25 0 19 18 18 71 0 91-11 11-26 17-30 34-22 0-43 0-65 0-11-12-25-9-39-9-23 1-44-2-62-19z m535-636c6 0 12 0 18 0 32 11 73 17 74 64 0 12 4 22-13 28-13 4-22-4-22-16-1-13 6-20-24-21-39 0-45-23-33-55z m130 104c1-12 13-15 20-11 25 13 48-3 71-1 0 9 0 18 0 28-24 9-40 26-75 5-11-6-18-8-16-21z m-597 283c26-15 38-40 49-65 6-16 15-21 30-20 19 2 19 17 20 38-18 34-19 81-46 118-8 12-17 23-33 20-18-4-9-18-10-29-2-10-8-21-15-28-13-15-9-26 5-34z m174 91c14-5 40-11 32-31-9-24-5-44 16-46 21-1 14 29 25 44 5 33-27 52-54 68-17 9-30 9-38-8-8-18 3-22 19-27z m232-282c6-5 18-5 19-17-4-4-8-9-13-12-9-6-13-16-7-23 9-11 19-4 28 2 19 14 38 27 34 55-8 57-27 9-44 24-7 6-17 6-23-5-5-9-1-18 6-24z m-102 101c7-30 13-62 44-78 5-3 11-7 16-6 4 2 6 9 10 16-23 36-38 60-51 81-2 2-11 4-13 2-3-4-7-11-6-15z m-12 55c-2-13 16-10 26-7 4 0 11 5 10 9-18 56-48 70-50 70-3-1-7-1-8-3-16-30 24-42 22-69z m267-202c8-5 16 5 17 17-24 46-15 16-46 21-10 1-18-7-16-18 6-24 31-11 45-20z m-331 151c5-21 24-25 41-31 8-2 16 6 13 13-6 19-23 27-39 32-11-1-17-6-15-14z m-104 149c-1 14-11 18-22 18-12 1-26-2-28-17-3-13 10-17 21-18 12 0 24 3 29 17z m251-108c0-10 4-19 16-17 12 2 16 12 19 23-3 10-8 18-19 17-12-2-17-11-16-23z m-443 294c0-6 0-12 0-18 14-9 26-28 44-20 28 13 66-2 86 32 7 11 16 4 23-2 18-17 31-35 11-60-12-13-4-21 7-29 9-6 17-8 25 0 19 18 18 71 0 91-11 11-26 17-30 34-22 0-43 0-65 0-11-12-25-9-39-9-23 1-44-2-62-19z m535-636c6 0 12 0 18 0 32 11 73 17 74 64 0 12 4 22-13 28-13 4-22-4-22-16-1-13 6-20-24-21-39 0-45-23-33-55z m130 104c1-12 13-15 20-11 25 13 48-3 71-1 0 9 0 18 0 28-24 9-40 26-75 5-11-6-18-8-16-21z m-597 283c26-15 38-40 49-65 6-16 15-21 30-20 19 2 19 17 20 38-18 34-19 81-46 118-8 12-17 23-33 20-18-4-9-18-10-29-2-10-8-21-15-28-13-15-9-26 5-34z m174 91c14-5 40-11 32-31-9-24-5-44 16-46 21-1 14 29 25 44 5 33-27 52-54 68-17 9-30 9-38-8-8-18 3-22 19-27z m232-282c6-5 18-5 19-17-4-4-8-9-13-12-9-6-13-16-7-23 9-11 19-4 28 2 19 14 38 27 34 55-8 57-27 9-44 24-7 6-17 6-23-5-5-9-1-18 6-24z m-102 101c7-30 13-62 44-78 5-3 11-7 16-6 4 2 6 9 10 16-23 36-38 60-51 81-2 2-11 4-13 2-3-4-7-11-6-15z m-12 55c-2-13 16-10 26-7 4 0 11 5 10 9-18 56-48 70-50 70-3-1-7-1-8-3-16-30 24-42 22-69z m267-202c8-5 16 5 17 17-24 46-15 16-46 21-10 1-18-7-16-18 6-24 31-11 45-20z m-331 151c5-21 24-25 41-31 8-2 16 6 13 13-6 19-23 27-39 32-11-1-17-6-15-14z m-104 149c-1 14-11 18-22 18-12 1-26-2-28-17-3-13 10-17 21-18 12 0 24 3 29 17z m251-108c0-10 4-19 16-17 12 2 16 12 19 23-3 10-8 18-19 17-12-2-17-11-16-23z" horiz-adv-x="1000" />
<glyph glyph-name="bahrain" unicode="&#xe80d;" d="m454 219c70-61 110-137 129-231 29 31 53 62 60 100 10 61 20 124 22 186 2 108 24 223-95 306 22 0 31 0 40 0 13 1 29-7 36 11 10 21-12 32-17 48-7 20-22 11-34 5-26-13-49-10-75 1-30 12-68 21-85-16-20-45-35-93 0-143 39-59 54-123 8-188-20-29-13-58 11-79z" horiz-adv-x="1000" />
<glyph glyph-name="bangladesh" unicode="&#xe80e;" d="m782 44c-7 73-6 143-29 211-7 22 5 60-26 65-34 4-30-37-43-58-1-1 0-3-1-4-5-19-8-21-25-5-49 48-43 95 21 118 29 10 46 28 56 55 3 8 1 20 12 23 44 11 7 21-1 28-13 11-30 12-48 12-48-2-97-2-146 0-61 1-72 12-74 73 0 12 0 24-7 35-6 8-11 16-20 5-24-28-36-12-47 11-6 11-9 35-27 7-6-9-16-3-22 7-7 11-16 21-31 24-14-9 6-25-10-36-37-26-26-49 6-74 12-10 25-15 39-20 5-2 9-11 12-18 3-8-4-13-9-11-27 8-33-13-48-28-42-42-44-47 11-67 37-13 36-30 23-57-6-13-11-25-1-39 33-49 32-108 45-163 13-51 30-60 73-27 16 12 28 36 44-2 4-11 15-2 21 5 6 9 5 24 24 18 31-9 35 14 38 36 1 8-9 19 10 25 52 17 103-15 95-70-7-54 28-87 42-128 25 11-45 79 43 49z" horiz-adv-x="1000" />
<glyph glyph-name="barbados" unicode="&#xe80f;" d="m673 425c-57 70-120 136-172 210-43 60-85 75-155 48-41-16-55-32-51-73 12-96 7-193 9-290 1-30 10-55 23-82 33-69 84-114 156-138 35-12 70-30 104-47 20-10 34-8 54 4 88 58 141 149 218 221-16 12-30 21-43 32-47 38-103 66-143 115z" horiz-adv-x="1000" />
<glyph glyph-name="belarus" unicode="&#xe810;" d="m887 277c8 13-15 35-23 36-28 3-38 27-53 42-24 23-50 47-43 89 6 37-11 69-53 72-25 3-45-3-73 14-54 34-120 6-161-28-28-24-57-62-76-98-12-21-24-34-43-48-34-22-71-24-108-24-5-23 7-40 14-59 5-17 20-40 6-52-28-22-56-29-19-76 24-31 13-43 53-14 9 6 16 7 25 8 110 11 212-34 319-44 28-2 60 19 84-11 3 3 9 6 9 8-8 61 35 65 85 68-22 20-10 44-20 63-15 28-27 49 22 29 24-10 44 9 55 25z" horiz-adv-x="1000" />
<glyph glyph-name="belgium" unicode="&#xe811;" d="m922 305c-25 44-58 79-116 80 10 19 18 34 26 50 4 10 8 25-5 28-25 5-40 34-70 27-17-5-35 1-40 15-14 41-50 23-74 27-38 7-74-14-104-40-12-10-114-10-119 2-12 28-29 15-45 9-24-9-46-24-70-32-41-13-42-39-27-69 13-26 30-53 67-36 17 8 34 7 37-12 6-33 24-46 56-46 13-1 17-9 20-21 2-14 8-15 25-13 49 6 68-11 64-60-2-22 4-26 22-28 37-4 67 6 89 40-1-30-6-63 22-75 32-14 62-29 88-53 20-19 46-7 64 2 22 10 9 30-1 47-17 31 5 75 41 85 38 11 64 49 50 73z" horiz-adv-x="1000" />
<glyph glyph-name="belize" unicode="&#xe812;" d="m669 618c8 26 11 54-32 52-11-1-23-2-27 12-3 10 6 25-16 24-17-2-23-15-28-27-14-37-41-64-60-97-11-19-25-31-49-16-33 22-42 5-43-28-5-134-11-269-16-403-1 0-1 0-1 0 0-17-2-34 0-51 2-13-13-37 14-39 22-1 47-15 61 21 11 26 31 54 54 66 88 49 106 128 99 215-4 57 13 111 12 167-1 37 23 69 32 104z" horiz-adv-x="1000" />
<glyph glyph-name="benin" unicode="&#xe813;" d="m360 376c66-35 59-105 73-163 21-86-10-176 12-262l-1 0c1-1 1-2 2-2 0 0 0 1 0 1 86-17 114 4 116 84 0 27-5 55-2 81 6 47-28 107 37 139 4 2 6 10 7 16 3 25 17 43 36 59 7 6 36 86 34 93-21 64-28 135-93 176-1 0-1 3-1 4-9 0-18 0-28 0-20-10-34-19-35-50-1-31-28-52-65-52-47 1-94-37-102-82-2-14-8-32 10-42z m92-433c-2 2-4 4-6 6 1-3 2-6 2-8 2 1 3 1 4 2z" horiz-adv-x="1000" />
<glyph glyph-name="bermuda" unicode="&#xe814;" d="m853 532c-2 2-5 3-9 4-9 14-20 14-33 5l1 0 0 0 0 0c0 0 0 0 0 0l0 0c-1 0-1 0-1 0-9 1-11-9-18-11-14 1-29 2-43 3 14 36 40 37 73 22-8 14-15 21-17 29-12 37-30 27-51 9-26-22-44-54-79-68-6-2-9-12 5-23 26-22 65 15 84-23 4 3 9 5 10 8 11 29 29 16 36 2 23-44 28-14 37 7 3 0 5 0 6 1 4 2 2 8 0 13 2 8 5 17-1 22z m-578-398c101-11 178 44 252 97 80 58 144 135 236 177 10 5 25 8 17 30-27-20-64-16-73 8-21 55-36 42-75 15-30-22-29-46-31-73 0-5 17-7-1-19-53-36-108-56-172-29-13 6-37-1-32-11 8-20 26-45 45-50 16-4 33-12 46-9-34-39-97-37-129-88-10-16-39-23-63-20-16 2-28 15-28 31-1 23 15 4 22 7 8 4 20 5 19 16-1 7-10 10-19 10-30-1-58 7-85 29-8-37 23-56 26-86 2-25 20-33 45-35z m-68 111c17-3 17 13 19 25 1 10 8 17 16 19 19 5 19 14 14 30-6 18-23 18-35 25-40-12-29-41-21-67 3-11-11-28 7-32z m57 84c44 3 33 47 46 64-18-12-43-27-46-64z m647 196c-1 2-2 4-3 6-1-1-3-2-3-3 1-2 2-4 3-6 1 1 2 2 3 3z" horiz-adv-x="1000" />
<glyph glyph-name="bhutan" unicode="&#xe815;" d="m880 381c-53 54-107 81-175 66-36-9-66-1-97 14-27 12-53 25-80 36-36 15-71 11-104-12-17-12-37-21-57-30-45-21-76-54-96-100-12-26-25-53-39-78-20-37-3-80 39-83 26-2 47-11 68-22 24-13 50-22 76-16 42 10 81-1 121-14 20-6 43-12 63-7 69 14 137 11 206 3 47-5 71 23 74 73 3 42-8 82-23 121-10 25-10 41 24 49z" horiz-adv-x="1000" />
<glyph glyph-name="bolivia" unicode="&#xe816;" d="m802 327c-1 1-2 3-2 4 15 39-17 35-35 34-51-4-56 22-55 64 1 29 4 70-41 74-20 2-36 8-53 19-23 14-49 25-75 31-50 11-77 40-77 90 0 49-7 54-54 39-13-3-24-13-36-19-35-17-66-49-112-34 3-34 43-56 33-81-31-75-1-159-39-232-2-3 3-11 6-16 43-74 38-162 73-238 6-11-4-29 15-34 18-4 27 8 39 19 34 36 93 31 126-13 10 25 20 48 47 39 47-16 48 17 49 45 2 31 15 60 37 74 53 34 127 22 171-20 2 2 4 4 5 6 0 3-3 6-2 9 13 49 38 101-20 140z" horiz-adv-x="1000" />
<glyph glyph-name="bosnia" unicode="&#xe817;" d="m295 567c-15 17-31 32-55 14-13-10-16-88-3-98 37-30 66-63 75-111 2-11 13-21 23-28 52-39 83-103 148-128 4-1 7-8 9-14 36-87 112-129 189-171 8-5 18-4 25 4 10 9 8 18 2 29-10 20-29 40 7 59 21 12 14 50 42 61 1 0 3 2 4 2 58-18 26 21 24 41 111 11 111 12 55 93 14 11 42-8 47 13 6 21-23 27-35 43-3 5-9 8-15 10-34 13-25 36-14 60 4 9 12 17 16 27 6 13 20 27 9 42-11 14-27 9-42 5-16-4-37-12-47 5-35 60-93 45-145 44-54-1-107 4-157 19-29 9-96 3-113-21-19-28-32-18-49 0z" horiz-adv-x="1000" />
<glyph glyph-name="botswana" unicode="&#xe818;" d="m221 125c0-18 6-29 18-44 25-29 52-60 31-106-8-17-3-30 22-33 48-6 107 26 124 78 14 41 32 47 67 22 36-24 97-41 113-13 30 50 89 73 108 129 6 15 12 27 27 34 41 20 66 62 111 77 38 13 17 34-1 47-11 8-26 9-40 12-24 4-41 22-41 42-1 44-33 60-61 76-61 36-79 98-106 156-12 0-24 0-37 0-35-3-62-63-107-18-5 5-20 1-31-1-33-5-66-13-100-16-24-1-29-10-29-33 1-66-1-132 1-198 1-28-7-40-36-35-25 4-34-7-33-33 2-48 1-95 0-143z" horiz-adv-x="1000" />
<glyph glyph-name="brazil" unicode="&#xe819;" d="m642 519c-14-4-24-5-21 15 6 53-12 77-65 83-9 1-20-2-26 6-42 60-112 45-169 63-33 11-51-3-50-41 2-97 1-194 0-291 0-21 4-34 26-41 21-6 39-19 39-45 0-65 5-132-3-197-5-37 0-48 36-43 9 1 18 0 27 0 8 0 16-2 23 0 34 8 87-17 85 51 0 7 6 5 10 6 48 16 71 58 85 99 10 27 24 42 45 44 55 5 71 46 77 88 4 35 20 58 43 80 20 18 25 39 13 62-14 25-144 70-175 61z" horiz-adv-x="1000" />
<glyph glyph-name="brunei" unicode="&#xe81a;" d="m392 201c1-11 13-22 27-20 32 3 45-19 60-41 15-21 32-41 48-61 20-25 41-24 68-7 64 42 60 116 84 177 2 4-5 14-9 20-29 43-21 94-34 141-3 14 7 23 18 30 37 23 75 46 122 75-4-82 2-152 26-221 17-48 46-71 97-68 29 3 46 12 22 42-14 19-16 41-15 62 2 58-21 107-46 156-11 21-24 35-50 32-18-3-27 1-25 24 4 43-7 49-45 32-52-24-101-51-144-90-48-43-104-75-163-102-50-24-104-22-171-28 76-36 122-79 130-153z" horiz-adv-x="1000" />
<glyph glyph-name="bulgaria" unicode="&#xe81b;" d="m836 339c2 32 10 58 50 57 20 0 19 16 22 29 5 19-10 17-22 19-14 3-27 7-39 14-84 53-152 51-230-7-20-14-41-19-65-16-82 10-164 20-247 30 2 9 27 17 3 29-12 6-20 21-37 0-32-38-33-67 12-101 30-23 28-45-2-56-26-10-22-25-26-44-7-37 1-61 37-76 9-4 19-23 16-32-19-72 29-48 64-47 19 1 36 6 53 13 18 8 37 12 52 1 47-34 99-26 151-22 10 1 24 9 22 13-20 46 26 44 44 59 20 17 53 31 75 18 28-16 51-5 77-4-31 52-31 52-12 105 2 6 2 12 2 18z" horiz-adv-x="1000" />
<glyph glyph-name="burkina" unicode="&#xe81c;" d="m314 115c38-13 44-65 88-65 5 0 9 1 13 4 49 29 91 25 133-19-3 27 0 56-10 81-15 38-2 49 33 45 84-9 167 19 251 0 17-4 34 1 46 16 13 17 30 20 51 21 43 2 56 25 39 64-2 4-6 9-5 13 14 41-8 33-37 33-27-1-64 25-57 45 10 27-4 30-15 36-21 11-28 29-40 46-16 23 1 59-29 69-28 10-58 17-86-6-30-24-73-28-98-59-61 20-65-44-95-68-14-11-17-18-35-9-31 15-43 2-50-29-7-33-7-74-55-81-21-4-34-13-26-37 5-14 0-25-7-35-16-21-19-61-9-65z" horiz-adv-x="1000" />
<glyph glyph-name="burundi" unicode="&#xe81d;" d="m342 432c36-34 52-73 45-127-7-54-1-110-1-165 0-17 2-34 12-48 25-35 34-75 39-116 3-23 11-34 40-37 67-8 115 23 156 68 52 56 90 122 125 189 21 39 59 66 90 96 21 20 32 33 32 60 0 29-7 49-41 52-17 2-33 9-48 14-12 4-27 7-26 22 3 29 2 60 13 85 12 31 26 56-11 77-16 0-31 0-46 0-29-13-55-43-91-11-12 11-26 4-27-15-1-13-2-25-2-37-1-41-16-70-58-82-51-13-102-3-125 28-18 24-45 35-72 29-22-5-22-30-22-51 0-14 9-22 18-31z" horiz-adv-x="1000" />
<glyph glyph-name="cambodia" unicode="&#xe81e;" d="m355 299c11-36 22-70 40-103 6-9 25-20 0-30 15-15 7-40 21-54 7-7 20-5 30 2 9 6 10 32 28 11 11-12 13-24-2-35-8-6-12-15-6-24 6-9 16-8 25-4 22 11 44 3 64-4 39-13 82 2 102 40 2 2 3 4 5 5 24 3 47 10 71 9 5 0 9 0 14-1 10-2 19-6 29-12 18-12 15 13 15 22 1 13-14 18-23 26-15 14-19 34-12 49 6 15 25 21 43 13 17-6 27-3 26 17-1 14 10 11 18 15 58 30 151 32 117 140-1 4 1 10 3 14 15 28 9 55-7 82-19 33-19 66 4 98 2 5 4 10-2 14-2-2-4-5-6-8-9-2-20-2-26-7-27-26-51-35-85-5-19 16-42-14-64-19-19-5-3-19 0-29 5-13 3-32-12-23-27 17-58 20-86 32-31 13-58 34-97 23-27-7-59-5-87-1-58 9-102-7-130-60-8-14-18-34-32-38-38-11-26-35-17-56 13-33 30-68 39-99z" horiz-adv-x="1000" />
<glyph glyph-name="cameroon" unicode="&#xe81f;" d="m329 86c38-25 60-54 50-101-3-14 7-19 20-19 19 1 40-2 59 1 98 17 192-1 286-23 1 31 9 64-24 90-37 29-51 73-63 117-11 40 12 72 34 100 31 41 10 70-15 100-9 10-22 17-32 26-8 9-22 16-18 30 6 18 24 10 36 10 16 1 33 1 57 1-55 56-24 131-64 184-12 0-24 0-37 0 13-12 3-34 19-45 35-23 16-43-8-56-15-9-29-20-34-36-24-77-82-138-109-213-8-20-21-49-45-10-5 7-12 9-23 7-48-6-75-38-92-75-12-27-36-62 3-88z" horiz-adv-x="1000" />
<glyph glyph-name="canada" unicode="&#xe820;" d="m804 290c-28 27-42 61-19 100 5 9 10 20 1 30-40 45-85 85-143 103 25 47 65 81 114 104 15 7 35 13 32 34-2 21-26 10-37 20-40 0-80 0-120 0-25-8-51-6-76-10-57-8-89-43-84-100 3-33-11-42-41-46-40-6-77 0-116 11-49 13-72-14-59-61 9-9 22-7 31-14-12 6-27 8-39 14-38-4-77-6-114-15 0-47 0-93 0-139 40-24 66-59 91-97 22-33 58-44 97-44 50-1 101 0 152 0 52-1 104-5 130-62 3 0 6 0 10 0 35 11 73 17 103 43 9 8 0-5 4-3 2-10 8-18 16-20 42-14 66 35 107 29 12-1 14 13 14 25-8 38-25 70-54 98z m-188-19c-21 11-45 18-65 31-12 7-41 13-25 36 10 14 24 36 55 21 33-15 67-26 65-74-3-11-11-22-30-14z m0 116c-10 7 10 44 18 37 11-9 23-12 35-22-21 4-30-32-53-15z" horiz-adv-x="1000" />
<glyph glyph-name="cape" unicode="&#xe821;" d="m669-9c12-1 23-5 33 9 10 16 2 26-6 37-17 23-46 33-63 69-7-25-12-38-14-51-5-31 19-61 50-64z m-409 518c27 7 47 23 63 44-8 18-22 33-35 26-22-11-59-6-57-46 1-17 8-29 29-24z m602-178c-37 8-24-26-31-41-9-17 12-25 24-25 22 0 44 10 45 35 1 23-16 31-38 31z m-377 70c19 33 52 2 78 19-26 25-57 12-82 25-8 4-19-4-16-15 3-12 18-33 20-29z m-17-435c18 0 27 10 28 28-6 14-7 32-28 28-17-3-34-10-32-30 2-15 14-27 32-26z m305 81c16 1 21 11 19 26 1 14-5 24-20 24-18-1-15-15-17-27-2-14 1-25 18-23z m-478 440c0-11 13-14 25-14 10 2 26-2 24 16-1 10-7 23-20 20-12-2-30-6-29-22z m548-63c7 25 8 45-2 64-4 6-16-1-18-7-8-22-2-39 20-57z" horiz-adv-x="1000" />
<glyph glyph-name="central2" unicode="&#xe822;" d="m360 45c8 69 48 76 102 63 15-3 23 7 26 27 8 54 42 68 82 35 13-10 26-16 41-19 35-7 66 2 102 13 58 17 122 44 188 25 10-3 31 3 32 8 1 12 0 28-15 35-19 9-25 31-37 41-31 26-52 61-86 83-26 17-62 26-51 75 6 29-23 55-48 66-24 11-41-9-58-31-29-36-61-73-117-68-7 1-20-3-20-6-6-75-80-34-111-66-95 16-143-96-102-173 20-37 61-59 72-108z" horiz-adv-x="1000" />
<glyph glyph-name="chad" unicode="&#xe823;" d="m383 219c23-14 33-35 34-60 1-20-2-39 11-56-17-13-41 4-52-18-3-6 69-95 76-95 1 0 3 2 4 2 73 0 126 53 191 75 5 1 8 9 13 13 25 16 33 52 70 53 9 1 12 12 6 18-16 12-11 31-18 46-15 30 4 122 33 127 36 7 28 28 28 49 1 26-2 53 1 78 3 30-10 43-35 56-91 48-187 88-273 146-12 0-24 0-37 0-30-28-22-61-6-90 17-31 16-61 14-94-4-56-12-109-60-146-7-5-10-15-16-23-22-32-17-60 16-81z" horiz-adv-x="1000" />
<glyph glyph-name="chile" unicode="&#xe824;" d="m568 649c-7 12-3 38-18 37-22-2-8-24-7-38-12-81-20-163-37-243-10-46-33-88-10-137 7-15 8-44-19-55-11-5-21-10-7-22 12-11 5-23 1-34-14-43 23-119 63-128 11-2 29-11 32 13 2 24-4 46-30 48-33 2-45 37-39 46 45 70 5 150 31 221 13 36 23 74 13 115-3 12 6 29 12 43 19 43 44 84 15 134z" horiz-adv-x="1000" />
<glyph glyph-name="china" unicode="&#xe825;" d="m256 246c0-3 7-6 11-8 49-22 95-52 153-21 10 5 55 6 36-38-9-20 15-27 21-40 6-11 16-6 29 2 30 19 53 4 67-34 2-3 7-8 9-7 6 1 15 5 15 8 2 34 30 31 51 39 48 16 86 81 63 117-17 27-16 43 17 56-10 5-14 8-19 9-8 3-25-8-22 11 1 6 12 31 26 4 0-1 7 0 11 2 56 25 111 52 135 120-46-7-70 12-87 48-13 27-53 40-68 22-12-16-10-41-35-49-36-12-18-26 0-39-2-2-3-5-5-6-32-18-63-43-98-52-48-13-97-6-142 24-19 12-36 22-49 43-15 25-97 0-104-38-7-39-28-46-56-54-17-5-25-12-13-33 16-30 58-44 54-86z" horiz-adv-x="1000" />
<glyph glyph-name="colombia" unicode="&#xe826;" d="m746 440c-31 11-66-12-87 10-22 24-44 28-72 27-22-1-45 4-37 36 2 11-6 17-10 25-27 49-15 89 36 120 9 6 29 6 18 24-9 17-25 10-35 0-23-24-50-35-83-40-26-4-56-13-60-45-4-34-31-47-52-64-17-14-34-48-25-68 19-41 7-85 10-128 1-19-24-31-42-45-8-6-33-26-14-42 22-19 51-43 77-44 66-1 104-40 138-85 14-18 26-23 44-21 15 1 30 4 45 2 25-2 47-8 22-39-12-14-4-21 10-26 6-2 13-14 16 1 9 43 39 97 12 127-34 38 34 64-4 90 0 1 13 5 20 6 22 2 44 1 66 10 14 6 18 3 14 19-14 49-40 98-7 150z" horiz-adv-x="1000" />
<glyph glyph-name="comoros" unicode="&#xe827;" d="m341 252c27-7 37 11 29 34-8 26-18 52-32 76-17 29-21 60-17 93 0 4 1 9 1 13 4 27 7 57-30 59-34 2-39-28-43-54-3-24-2-49-6-74-10-79 19-126 98-147z m593-205c4 38-6 73-21 107-10 21-29 20-35 5-17-50-57-34-93-43 42-25 82-51 117-85 18-18 29-6 32 16z m-424-21c25-4 51-6 83-11-17 33-44 46-69 58-12 6-36 17-42-3-7-18 4-39 28-44z" horiz-adv-x="1000" />
<glyph glyph-name="congo" unicode="&#xe828;" d="m350-36c7-23 21-25 39-7 20 21 43 34 69 6 11-12 27-13 36 1 13 21 34 18 52 26 6-13-6-33 13-40 20-7 28 12 40 23 16 15 31 31 49 41 28 16 40 40 39 68-1 42 2 79 34 113 16 18 26 39 49 52 21 11 33 29 38 57 15 85 9 175 58 251 11 17 5 32-3 47-34 0-68 0-101 0-12-20-47 4-50-21-5-44-33-79-38-120-61 17-123 33-188 28-39-2-30-30-29-54 2-32 22-16 35-12 21 6 37 8 50-17 12-23 0-30-15-43-19-16-33-39-9-63 31-30 45-85 22-122-4-7 3-71-38-21-1 1-6 1-8-1-34-31-49-5-67 21-8 11-24 14-25-5-2-29-15-31-39-27-32 5-36-17-27-39 4-9 6-20 12-29 11-17 15-29-15-21-12 3-22-8-29-19-9-13 4-19 10-27 11-17 30-25 36-46z" horiz-adv-x="1000" />
<glyph glyph-name="costa" unicode="&#xe829;" d="m847 389c-22 4-35 20-48 34-61 66-128 128-147 225-40-45-82-44-123-7-27 25-65 41-99 29-31-12-55-10-83 2-48 19-98 51-136-17-2-3-8-4-12-6 0-3 0-6 0-9 16-19 66-18 36-65-42-66-20-122 55-145 13-4 24-9 34-20 29-30 49-25 73 9 11 15-14 29 5 40 19-8 43-19 40-39-6-46 26-48 55-57 48-16 92-40 130-73 21-19 30-42 19-70-19-48-13-58 40-71 9-2 22-12 29-1 8 11-3 22-11 31-5 4-8 9-12 14 2 2 4 4 7 6 19-4 42-11 43-32 1-35 25-52 45-73 2-4 4-7 5-11 9 5 6 11 3 17-8 18-32 35 3 52 16 8 11 28 4 42-10 16-7 29 9 38 30 17 13 29-4 39-35 20-19 53-15 78 3 23 23 32 47 16 7-5 16 1 19 9 3 8-4 14-11 15z m-511 105c0 1 1 3 1 4 0-1-1-3-1-4l0 0 0 0c-1 1-2 3-3 4 1-1 2-3 3-4z m1-2c28 2 46-13 57-37-11 24-29 39-57 37z" horiz-adv-x="1000" />
<glyph glyph-name="cote" unicode="&#xe82a;" d="m312 131c34-34 71-69 33-125-7-10-1-27-2-41-2-27 9-28 30-18 129 67 265 96 410 76 19-3 43-14 56 10 12 22 2 39-18 53-5 4-4 15-8 21-41 70-2 133 27 188 26 49 27 86 11 135-29 93-70 108-147 78-47-19-71-5-95 33-18 28-55 44-79 29-62-42-37 9-40 32-9 0-19 0-28 0-3-17-38-6-29-33-21-5-36-27-63-11-33 21-84-7-82-46 3-51 23-97 44-143-3-3-7-1-11-1-14 3-33 11-43-3-9-13 8-22 13-33 6-17 4-46-19-51-21-5-21-10-13-25 17-35 12-65-18-88 18-28 52-19 71-37z" horiz-adv-x="1000" />
<glyph glyph-name="croatia" unicode="&#xe82b;" d="m819 460c-4 42-21 70-67 31-5-4-18-2-27-1-56 4-98 36-137 73-30 30-59 48-98 14-10-9-22-16-35-20-15-6-13-15-17-28-9-29-32-55-53-80-2-2-35-3-49 13-5 5-11 15-18 8-33-32-75-15-115-20 4-34 10-69 40-88 25-16 22 33 48 29 4-20-1-43 21-59 1 18 2 34 3 48 43 8 22-24 26-39 7-29 44-40 45-72-10-3-20-5-29-7 9-31 34-31 59-29 43-13 63-75 120-57 8-7-2-11-3-17l2-1-2 1c-2-1-4-3-6-4 2-3 5-5 7-7h0c-6-10-7-17 8-23 25-9 51-5 76-2 6-4 17 0 19-12-27 0-54 0-81 0-1-6-2-12-3-18 62 15 109-29 172-28-22 18-41 33-59 48-19 20-30 50-50 61-71 42-102 118-154 176-14 15-6 38 2 52 11 16 23 0 32-10 13-14 24-11 34 3 8 12 20 10 31 13 39 12 74-10 111-12 34-1 71 13 101-7 27-18 52-51 63 12 1 7 21-1 30 11-15 16-44 17-47 48z" horiz-adv-x="1000" />
<glyph glyph-name="cuba" unicode="&#xe82c;" d="m654 380c-26 20-43 51-84 29-10-6-22 4-32 12-55 43-119 41-182 35-58-5-116-20-140-82 28-6 55 2 106 38 20 14 48 25 58 1 9-23 22-19 36-23 67-23 148-13 196-83 7-11 21-10 34-10 10 0 23 3 29-9 6-14-9-17-16-24-7-5-11-10-5-24 68 22 143-9 221 27-47 24-84 49-126 62-36 11-67 29-95 51z m-325-36c10 2 23 3 20 18-2 10-9 19-22 19-16-1-13-16-15-24-3-13 8-15 17-13z" horiz-adv-x="1000" />
<glyph glyph-name="cyprus" unicode="&#xe82d;" d="m355 228c21-4 42-10 63-7 23 3 40 3 54-22 9-17 30-24 37 7 6 26 24 31 47 34 47 6 99 10 132 46 48 55 102 84 175 73 10-1 29-2 29 14 1 15-12 22-27 30-36 20-63-2-89-13-33-13-67 11-101-13-4 29 1 62-35 64-49 3-100 12-145-16-33-21-65-13-90 7-36 31-63 18-92-6-19-15-35-33-65-22-22 8-16-12-14-22 16-70 36-137 121-154z" horiz-adv-x="1000" />
<glyph glyph-name="czech" unicode="&#xe82e;" d="m864 283c-5 18-18 40-39 46-16 4-30 17-48 12-11-3-20 4-22 12-9 43-53 19-74 40-4 5-7-6-6-12 6-21-18-27-23-23-13 9-30 20-32 36 6 11 11 19 5 22-44 18-88 42-134 49-12 1-32-20-50 3-3 4-17 4-21 0-46-42-105-58-162-75-17-4-27-33-50-15-8-24 10-34 25-45 6-4 7-9 5-16-7-30 14-48 33-63 35-28 73-53 110-79 36-27 74-28 97 7 19 26 37 28 59 15 43-26 96-7 138-33 2-1 11 4 13 8 8 16 20 16 35 14 33-3 55 16 71 40 11 17 27 24 39 38 9 9 36 0 31 19z" horiz-adv-x="1000" />
<glyph glyph-name="democratic" unicode="&#xe82f;" d="m223 200c21 7 46 2 69 3 25 1 42 1 50-34 10-48 67-61 90-23 19 31 36 6 54 7 24 2 25-21 22-32-11-37 16-67 15-104 41 18 74 8 106-17 10-8 26-14 38-12 35 7 57-7 75-35 7-12 17-18 30-12 12 6 14 16 14 27-1 16-10 14-22 14-23 1-29 17-27 38 2 21 12 40 5 63-2 8 9 29 15 29 70 4 37 31 18 61-15 22-17 49-17 75 1 23 2 45 4 68 5 52 10 108 47 145 30 30 15 57 9 81-5 20-30 39-58 33-29-6-49 6-66 27-22 0-43 0-65 0-19-16-45-6-66-17-40-22-78-24-120 5-17 12-42-8-43-33-3-52-23-97-41-144-15-38-43-71-41-117 0-18-11-57-55-38-13 6-35-2-52-7-11-3-29-7-20-28 6-14 4-33 32-23z" horiz-adv-x="1000" />
<glyph glyph-name="denmark" unicode="&#xe830;" d="m844 189c-10 5-20 10-26-4-7-16 4-23 16-27 8-2 18 0 27-1 0 10 0 19 0 28-6 1-12 1-17 4z m-604 21c9-5 10-20 7-34-7-22 3-31 28-39 37-11 71-3 106 2 16-2 29 0 28 20 9 0 18 0 27 0 3-6 6-12 8-18-7 0-14 0-21 0 0-2-1-6 0-7 9-7 17-4 24 4 8 0 17 1 25 1 24-40 46-44 77-14 22 9 45 18 66 27-10 20-26 9-41 6 2 26 51 33 20 64-1 1 3 7 4 7 46-4 21 26 22 44 2 18 3 32-20 32-20 1-41-2-45-26-2-11-2-20-14-26-7 59-26 22-43 6-8-7-34-5-27-13 19-20 2-61 34-64 32-4 31-23 35-44-23-7-40 20-64 13-2 11-1 25-18 25-8 64-16 69-78 55-5-1-11 0-17 0 0 0 0 0 0 1 0 0 1 0 1 0 20 23 27 57 52 75 0 1 1 1 2 2 3 2 7 4 11 6 1 0 2 1 4 1 5 2 12 3 19 4 10 0 14 15 12 26-1 12-10 15-20 14-48-4-42 34-33 55 16 33 15 66 18 100 0 0 0 0 0 0l0 0c-3 0-6 0-9 0-3-1-6-1-9-1-3 0-6-1-9-2-3 0-6-1-9-2-4-1-8-3-12-5-1 0-3-1-4-1-4-3-8-7-12-11-26-36-58-54-103-54-24 0-44-16-48-42-5-32 32-9 41-26-11-17-21 0-31-1-14 0-28-3-24-19 10-48-31-110 40-141z" horiz-adv-x="1000" />
<glyph glyph-name="djibouti" unicode="&#xe831;" d="m803 491c-9 74-63 123-104 179-3 4-5 8-11 5-38-23-93-19-112-76-19-55-30-55-78-19-48 36-54 35-89-16-45-65-81-142-139-194-80-71-73-154-68-243 1-18 4-36 6-55 3-41 26-62 66-55 59 10 118 20 174 37 44 12 82 16 123-9 28-18 56-14 76 22 23 43 52 83 79 124 23 36 16 53-25 64-51 13-100 6-148-12-21-8-43-24-70-1 42-8 59 22 77 47 17 22 40 33 65 40 50 15 92 43 132 72 30 22 51 52 46 90z" horiz-adv-x="1000" />
<glyph glyph-name="dominica" unicode="&#xe832;" d="m515 21c18 0 33 3 41 15 20 28 43 44 80 41 21-2 24 20 30 36 28 82 12 166 9 249-1 34 16 66 0 103-21 49-78 74-82 133 0 1-7 3-12 5-29 8-58 21-89 17-24-4-37 7-46 27-17 36-50 52-78 32-21-15-25-54-36-83 0-1 4-5 7-5 43-8 17-34 6-43-21-15-13-29-9-47 18-87 61-163 107-238 9-15 12-29 11-47 0-20-1-47 11-58 32-32 1-82 36-111-22-27 4-23 14-26z" horiz-adv-x="1000" />
<glyph glyph-name="dominican" unicode="&#xe833;" d="m855 344c-31 24-61 47-100 54-36 7-72 14-107 20-1 4-1 7-1 11 15 0 30 0 45 0 8 1 16 4 17 13 1 13-11 14-19 14-17 0-34-1-51-3-18-1-33 6-35 22-6 39-26 50-63 43-9-2-19 9-30 10-44 8-82 43-129 35-23-4-43-7-67 0-38 9-58-18-59-58-2-38 32-79-8-114-1-1-1-6 0-8 26-42-6-54-34-65 4-30 45-38 40-65-6-31 13-52 20-77 7-26 46-41 57-26 17 26 34 51 47 79 16 33 56 51 87 29 29-21 63-17 81-1 54 46 114 23 171 25 18 0 45 7 57-10 36-51 58-4 81 12 21 16 28 38 0 60z" horiz-adv-x="1000" />
<glyph glyph-name="east2" unicode="&#xe834;" d="m478 248c-30-3-21-18-12-34 6-11 11-22 16-35 38 26 73 51 117 63 42 12 83 28 124 44 58 22 116 44 169 77 15 10 44 26 34 41-11 18-42 20-66 19-9-1-17-7-25-11-24-12-48-18-75-18-68 0-135-5-201-16-52-10-79-44-106-80-8-12-9-32 18-25 9 2 20 9 24-3 4-11-5-21-17-22z m-121-15c3 10-6 16-13 13-24-11-60-6-69-36-4-16 20-14 35-17 26-1 38 18 47 40z" horiz-adv-x="1000" />
<glyph glyph-name="ecuador" unicode="&#xe835;" d="m738 547c-17 6-30 15-42 26-9 9-24 23-36 11-33-34-82-15-94 0-35 48-96 48-134 87-7 7-26 14-27 13-27-42-81-30-116-56-10-7-10-15-9-23 6-36 0-66-33-88-7-5-10-14-9-25 3-21-6-38-27-46-10-4-19-10-15-19 25-53-33-135 57-165 2-1 4-2 4-3 2-39 20-22 42-11-16-37-52-64-39-108 0-1-10-5-16-7-25-11 4-28-4-44-4-7 14-1 23 0 29 2 58 1 76-31 23-41 33-39 67-2 13 15 18 29 23 46 24 73 61 135 145 154 104 24 158 104 202 193 8 17-21 92-38 98z" horiz-adv-x="1000" />
<glyph glyph-name="egypt" unicode="&#xe836;" d="m224 353c-4-95 0-191-2-286-1-34 7-44 43-44 126 3 251 1 377 1 75 0 149 0 232 0-32 43-94 59-70 121 1 4-11 11-15 17-39 67-76 134-103 219 44-27 42-26 56 11 21 50 22 98-2 148-11 22-16 31-42 22-21-8-48-11-67 2-53 37-103 24-151-7-19-12-35-10-56-5-58 12-111 41-173 35-29-2-29-12-33-35-13-67 8-132 6-199z" horiz-adv-x="1000" />
<glyph glyph-name="el" unicode="&#xe837;" d="m852 381c-24-1-48-4-67 18-8 10-22 6-34 3-31-10-64-52-90 6-1 0-3 0-5 0-47 7-84 37-109 71-34 45-85 37-127 53-14 5-57 4-46-40 4-17-11-18-18-27-33-36-87-43-117-84-13-17-25-40-4-51 34-17 60-46 101-53 65-11 133-15 192-53 77-49 168-38 244-54 41 0 76 0 88 39 4 16 19 34 18 41-5 39 16 75 8 113-2 13-19 19-34 18z" horiz-adv-x="1000" />
<glyph glyph-name="equatorial" unicode="&#xe838;" d="m400 298c-14-45 0-84-20-123-21-43-62-72-70-122-3-17-9-26 15-31 49-9 94-33 148-28 79 8 159 3 239 2 29-1 41 5 40 37-2 66-2 132 0 198 1 29-9 36-37 36-78-2-156 0-235-1-29 0-57 2-80 32z m-228 159c18-5 34 0 41 19 8 23 24 42 36 63 16 26 8 44-25 45-24 1-41-7-46-34-3-13-5-30-20-34-22-5-25-20-22-37 4-20 23-18 36-22z" horiz-adv-x="1000" />
<glyph glyph-name="eritrea" unicode="&#xe839;" d="m259 222c22 0 47 25 63-11 3-7 12 4 14 11 14 42 33 67 71 19 6-8 19-8 26-4 27 18 56 7 83 7 53 0 103-16 142-52 45-43 86-90 129-136 7-7 17-11 25-16 36-24 52 14 61 27 15 22-20 7-26 18-2 3-3 5-5 8-42 57-106 93-145 153-5 7-14 11-21 17-35 25-91 20-108 73-1 5-11 10-15 5-12-20-15-5-22 4-20 29-36 58-40 95-6 57-28 109-62 164-21-35-48-51-82-59-28-8-37-50-74-44-1 0-4-11-4-17-7-61-31-116-52-174-17-46 7-88 42-88z" horiz-adv-x="1000" />
<glyph glyph-name="estonia" unicode="&#xe83a;" d="m215 312c22 44 67 48 103 67 9 5 20 7 28 14 8 7 13 18 9 28-5 11-14 16-26 8-15-11-32 0-48-5-1 11 8 16 16 19 10 5 24 5 22 22-1 14-14 13-22 19-32 26-48-20-75-14 23-11 52-15 36-51-18-10-38-15-59-11 0-16 0-31 0-46 47-1 10-30 16-50z m637 218c4 2 9 8 5 15-4 7-9 9-19 8-45-6-89 0-134 11-36 9-78 29-112 15-59-25-123-19-183-49-39-20-49-40-42-75 5-29 13-57 38-77 23-19 46-5 73 4-8-28-15-49-23-76 90 29 111 32 165-5 36-26 64-48 116-43 29 2 39 12 58 26 31 22 14 39 9 62-9 37-29 80-6 113 17 23 25 57 55 71z" horiz-adv-x="1000" />
<glyph glyph-name="ethiopia" unicode="&#xe83b;" d="m744 371c-3 16-1 23-20 22-34-4-28 19-15 33 22 24 13 40-6 57-13 11-26 23-36 36-37 47-94 30-141 36-27 4-79-21-79-74 0-8-7-11-11-16-37-45-73-91-80-152-2-18 4-37-26-35-12 1-17-13-19-23-2-13 12-11 19-14 26-12 49-33 57-57 27-80 100-96 164-124 53-23 94 32 150 21 42-8 83 47 136 37 4-1 11 9 16 15 40 37 80 75 120 113-65 10-116 36-169 55-31 11-54 39-60 70z" horiz-adv-x="1000" />
<glyph glyph-name="finland" unicode="&#xe83c;" d="m430 54c46 9 92 22 138 30 23 4 41 11 61 25 36 26 67 58 100 88 33 31 31 42-7 71-7 6-26 12-18 21 26 28-6 46-13 62-7 14-11 30-6 38 18 32 4 56-13 79-16 20-14 35 4 50 24 18 16 38-4 47-53 23-32 56-16 88 5 10 15 20 3 26-22 11-40 33-68 28-35-6-67-16-70-58-2-25-26-39-37-35-38 15-91-20-118 35-6 12-21 9-34-5-16-18 4-20 11-25 15-10 31-20 48-26 25-9 41-22 41-52-1-28 18-53 9-85-5-20 20-41 45-49 21-6 17-23 15-38-1-8-6-9-11-2-1 4-1 9-7 6-3-1-5-4-6-6-16-39-49-61-81-84-43-31-78-65-43-124 4-7 0-18-1-27-6-35 43-85 78-78z" horiz-adv-x="1000" />
<glyph glyph-name="france" unicode="&#xe83d;" d="m315 392c18-28 34-49 30-81-5-32-3-65-19-94-11-21 7-22 17-30 36-31 83-19 125-29 31-7 77-37 86 31 1 13 21 16 35 17 24 1 46-5 67-13 31-11 84 11 96 40 5 12 0 14-10 18-26 13-24 34-18 60 5 23 10 56-19 66-26 10-9 19-3 25 28 27 44 60 61 95 17 37 0 37-21 43-79 23-152 59-218 108-25 19-46 13-48-18-2-31-14-41-42-41-11-1-22-4-26-15-16-37-39-20-59-6-10 7-17 18-31 9-15-11-6-21 0-32 17-31 9-37-27-35-8 1-14 4-19 7-10 5-18 11-30 8-10-2-21-6-31-7-14-2-33 5-33-20 0-22 7-37 31-43 41-10 78-19 106-63z m547-233c-10-15-5-31 3-46 5-9 12-17 22-12 16 7 16 24 16 39 0 14 5 30-9 48-12-10-24-18-32-29z" horiz-adv-x="1000" />
<glyph glyph-name="gabon" unicode="&#xe83e;" d="m554-20c16 17 27 51 62 21 11-9 15 3 19 15 10 31-16 48-23 72-15 42-10 53 35 49 22-1 44-3 52 25 3 11-14 29 9 33 17 3 23-13 29-25 20-37 47-45 82-21 10 7 19 13 22-5 2-13 8-21 22-16 9 4 13 13 18 23 23 47 26 94 27 145 0 30-4 45-29 61-45 27-42 61 3 93 21 15 27 31 16 58-17 42-46 47-81 31-36-17-43 2-43 31 0 11 3 24 7 35 8 20 4 29-18 30-54 2-107 3-161 6-21 1-29-6-30-28-1-36 19-87-7-105-26-18-74-5-112-5-13 0-28-5-40 3-10 6-20 6-22-5-11-40-37-74-32-120 4-36-21-59-57-59 36-146 150-237 252-342z" horiz-adv-x="1000" />
<glyph glyph-name="gambia" unicode="&#xe83f;" d="m877 327c-11 6-24 12-35 7-69-30-120 17-173 44-44 21-92 26-120-3-33-36-66-28-102-29-41-1-83-2-124 0-39 3-36-15-24-40 4-8 16-11 13-22-33-21-22 56-62 25-34-26-6-52-7-80 58 18 112 16 167 14 14-1 39-9 42 6 9 51 49 35 78 42 18 4 42-4 52 13 18 36 39 23 63 10 26-13 54-21 80-34 49-25 98-19 147-2 11 3 24 3 24 21 0 15-7 22-19 28z" horiz-adv-x="1000" />
<glyph glyph-name="georgia" unicode="&#xe840;" d="m406 214c60 11 118 13 165-35 9-9 22-7 31-4 48 17 106-6 150 33 8 7 24 6 30-2 20-27 53-19 78-31 14-7 24-5 31 7 7 14 1 22-11 30-17 11-44 21-14 48 10 9-4 15-12 18-28 12-66 13-55 60 1 1-6 6-10 7-51 19-103 39-157 10-8-5-13-6-22 3-44 44-98 71-162 69-25-1-48 3-71 10-37 11-70 32-110 31-12 0-26 4-31-11-5-14 10-16 17-23 17-13 36-22 57-29 73-25 121-131 76-181 7-4 14-11 20-10z" horiz-adv-x="1000" />
<glyph glyph-name="germany" unicode="&#xe841;" d="m835 380c-25 32-15 69-23 103-4 19-32 26-24 40 45 68-45 93-43 147 0 4-12 12-19 5-30-30-75-28-107-51-14-10-27-9-42-2 7 13 13 26 20 38-26-19-59-18-69 1-26 48-66 25-105 30 33-15 1-37 11-52 8-13 17-25-2-32-15-5-12-37-45-20-40 20-57 2-55-44 1-17-1-34-18-44-7-4-12-5-9-15 10-32 3-45-28-51-9-2-25-5-20-12 25-34-25-77 14-108 4-4 3-9 2-16-9-62 13-90 75-101 13-3 27-7 46-12-24-25-31-53-36-82-5-28 7-40 32-31 38 14 73 2 110-4 13-2 27-20 29-17 27 35 68-7 99 19 15 12 41 13 62 2 24-12 27-3 18 18-8 20-10 30 16 43 51 25 49 31 2 67-10 8-23 14-33 24-19 20-39 57-19 71 37 26 86 52 131 52 40-1 36 27 30 34z" horiz-adv-x="1000" />
<glyph glyph-name="ghana" unicode="&#xe842;" d="m353 219c-37-58-11-107 15-149 21-34 14-43-18-61 24-5 46-5 62-15 37-22 66-3 102 5 81 20 147 85 236 80 21-1 28 18 37 31 12 18-12 23-19 28-23 15-40 37-38 59 3 41-1 82 1 122 1 13 18 23 6 38-35 43-14 98-27 146-6 24-1 50-26 67-12 8-23 16-16 37 11 32-12 38-35 26-21-11-40-11-62-10-55 0-110-2-165 0-31 1-43-17-36-39 24-65 7-136 32-201 5-15 10-39 2-49-29-34-30-80-51-115z" horiz-adv-x="1000" />
<glyph glyph-name="greece" unicode="&#xe843;" d="m325 608c-6 1-6-8-7-14-3-26-24-39-37-59-10-15-42-37-19-53 29-21 19-61 54-81 15-8 32-21 51-25-28-21-52-38-9-66 13-9 12-19 9-35-3-15 5-46 27-30 22 15 20-2 27-9 6-6 1-18 12-23 6 9 12 17 18 26 13-6 15-24 32-25 6 30-9 55-18 82 0 0 0 0 0 0l0 0h0l0 0h0c0 1 1 1 1 2 0 1 1 1 1 1 1 1 1 1 1 1 1 1 1 1 2 1 0 0 0 0 1 0 1 0 2-1 3-2 11-12 25-14 34-1 12 15-10 13-14 20-4 6-4 14-6 22 11 1 21 12 34 3 12-7 18-21 33-23 2 15-1 33 6 45 18 29 12 44-21 51-16 3-33 12-35 26-5 34-31 53-48 78-14 20-12 35-2 50 4 0 7-2 10-3 1-1 2-2 4-3 1-1 3-2 4-3 1 0 1-1 1-1 15-13 24-34 48-32 0 0 0 0 0-1 0 0 0 0 0-1 0-1-1-2-2-4 1 0 2-1 3-1 0 1 0 3-1 5 1 1 1 1 2 2h0c-1 0-2 0-2 0-1 1-3 3-4 5 0 0 0 0 0 0-1 2-2 3-3 5-3 8 4 7 7 7 12-1 12-24 29-17-20 49-7 78 41 80 34 2 70 10 102-8 19-11 31-1 36 12 6 15 10 29 22 42 13 13-3 24-15 31-8 4-22 10-22-3-4-52-51-40-67-32-56 27-108 10-163 6-23-2-34-25-58-21-37 8-62-37-102-27z m360-497c-46 16-98 9-145 27-13 5-21-4-25-14-3-10 2-20 13-21 61-7 120-36 184-20 13 4 20 8 19 24-15 9-29-2-46 4z m66 338c-5 12-10 27-28 24-11-3-30-4-26-19 4-14 23-17 36-20 12-1 22 2 18 15z m162-271c0-7 4-14 10-12 19 6 32 20 35 48-25-6-42-12-45-36z" horiz-adv-x="1000" />
<glyph glyph-name="greenland" unicode="&#xe844;" d="m693 381c-10 10-31 24 5 28 19 3 15 21 14 33-4 29-17 57-26 84-12 36-21 69-12 105 2 12-4 23-10 19-27-19-31 5-43 18-19 18-40 23-65 3-13-10-25-34-52-20-27 3-58-15-64-32-11-27-24-26-46-30-27-6-6-36-19-52-5-6-7-26 11-30 64-16 44-69 47-111 1-16-29-40 13-43-1-6 8-18-5-17-15 1-20-3-9-12 27-23 21-38-5-55-20-13-22-39-21-58 3-48 8-98 31-141 12-26 42-44 67-46 27-1 18 36 27 54 19 41 14 99 75 111 6 1 15 9 16 15 7 36 36 49 63 65 55 34 56 70 8 112z" horiz-adv-x="1000" />
<glyph glyph-name="grenada" unicode="&#xe845;" d="m691 144c17 7 24 17 26 37 16 143 22 287 53 428 3 15 5 30-19 40-80 31-157 54-212-41-2-4-6-7-10-10-110-88-147-213-173-343-14-68-8-142-66-195-10-8-18-21-15-39 94 1 186 8 271 54 47 25 96 47 145 69z" horiz-adv-x="1000" />
<glyph glyph-name="guatemala" unicode="&#xe846;" d="m750 243c42 22 76 56 113 86 9 7 20 16 3 23-16 7-40 34-45 19-9-28-20-11-28-7-13 7-27 8-40 7-26-3-34 5-32 32 4 79 0 159 9 239 4 29-2 44-38 43-74-3-147-2-221 0-25 0-39-6-33-33 9-48-7-72-69-56 23-24 35-39 50-52 15-13 33-23 49-34 25-16 28-47 54-64 16-11-7-47-30-47-48-1-95-2-143 0-23 1-32-10-46-27-49-56-52-122-53-190 0-16-13-31 9-48 67-51 134-98 225-84 9 2 19 1 27-3 36-14 62-32 101 12 29 32 60 73 104 92 17 7 16 22 10 40-9 23 1 39 24 52z" horiz-adv-x="1000" />
<glyph glyph-name="guinea" unicode="&#xe847;" d="m327 349c1-10 28-51 41-49 36 7 77-18 109 14 8 8 17 20 34 9-22-15-20-39-11-55 11-16 30 1 45 6 12 4 23 3 37-8-17-5-32-7-45-14-18-9-42-8-24-48 11-24 28-36 41-53 29-37 50-37 72 4 3 7 6 14 10 21 13 20 14 54 39 58 49 10 89 44 144 40 55-4 73 21 66 66-4 20-24 23-33 36-11 13-17 25 7 27 39 3 38 31 34 57-3 26-15 46-50 42-29-4-58 1-88 0-93-3-190 21-275-41-6-4-15-4-22-5-73-8-146-8-216-32 1-1 3-4 5-6 25-23 75-15 80-69z" horiz-adv-x="1000" />
<glyph glyph-name="guinea1" unicode="&#xe848;" d="m291 373c-2-12 12-37 24-41 49-19 72-60 98-98 10-16 18-13 28-4 11 10 27 20 30 33 13 48 55 33 85 43 49 18 66-24 82-53 16-28 32-61 6-97 86 27 121 25 116-70-1-21 18-21 27-24 33-11 42 51 84 30 7-3 9 23 15 35 3 6 4 10 0 17-13 26-12 28 18 23 13-2 22 5 15 10-32 22 4 70-36 89-4 2-7 15-5 21 12 30 1 52-9 82-17 50-48 94-64 144-5 18-21 47-44 6-8-14-32-28-55-14-30 18-60-27-95-1-5 4-30-14-28 18 1 11-10 10-17 8-54-10-104 5-154 22-22 7-61-34-49-51 22-32 6-34-21-38-33-5-59-18-78-53-23-41 32-12 27-37z" horiz-adv-x="1000" />
<glyph glyph-name="guyana" unicode="&#xe849;" d="m647 258c-6 11 0 28-20 32-25 5-35 28-45 47-13 22 8 88 27 94 34 10 60 92 32 112-32 24-56 62-101 65-2 2-5 4-7 6 4 65-51 84-90 116-35 29-44-16-66-25-8-4-16-9-24-14-13-8-24-19-22-35 2-17 7-35 33-30-12-22-28-25-45-28-16-4-55-75-46-86 24-27 39-70 88-61 26 5 37-8 29-30-9-24-1-28 18-41 13-8 31-33 12-62-21-33-33-70-21-111 15-49 42-87 84-114 15 0 31 0 46 0 0 15 6 27 21 28 51 5 92 50 147 35 4-1 8 3 13 5-35 24-46 62-63 97z" horiz-adv-x="1000" />
<glyph glyph-name="haiti" unicode="&#xe84a;" d="m913 436c3 26 12 66-31 72-59 9-117 18-173 42-54 23-111 14-166-4-18-6-36-15-33-38 4-23 26-22 41-23 38-1 71-14 104-32 16-7 22-13 15-34-18-55-5-102 47-134 3-2 6-4 7-6 10-14 42-12 33-37-6-20-30-5-45-10-8-3-18-7-23-13-14-19-32-16-50-14-94 12-188 18-280 45-17 5-35 6-54 3-28-6-32-29-37-48-5-19 13-29 29-35 21-10 44-16 62-29 30-22 55-52 86-2 6 9 25 9 39 11 36 6 70 0 104-11 36-12 74-13 109-4 71 16 140 29 198-27 38 61-25 86-44 133 33-2 58 14 56 39-3 35-12 67 21 92 1 1-2 12-5 16-18 14-12 29-10 48z m-279-167c8-3 17-10 23 3 3 8-1 15-7 20-25 16-49 31-77 36-10-1-21 4-26-7-6-14 6-19 15-23 24-11 48-20 72-29z" horiz-adv-x="1000" />
<glyph glyph-name="honduras" unicode="&#xe84b;" d="m535 242c26-7 29 35 47 25 54-31 68 22 91 44 21 19 25 56 65 28 5-4 17 3 26 4 42 6 80 25 121 40-15 15-20 41-49 29-8-4-12-2-14 5-15 53-62 57-103 64-43 7-91 17-128 3-53-18-106-22-156-10-45 11-72-9-103-28-24-16-46-36-70-52-31-20-11-56-28-80-4-6 97-56 112-53 21 4 53-11 52-13-18-38 20-46 32-66 10-16 22-30 41-22 20 8 36 26 40 48 2 17-8 42 24 34z" horiz-adv-x="1000" />
<glyph glyph-name="hungary" unicode="&#xe84c;" d="m876 490c-32 11-47 62-92 38-4-2-12 1-17 3-56 31-88 28-140-11-12-10-29-13-46-15-37-5-80 1-105-39-7-11-19-10-29-10-35-2-71-5-100 22-15 13-31 10-34-9-5-24-15-27-35-19-10 4-24 4-21-12 6-39-6-73-30-88 19-54 69-79 110-111 38-30 81-47 138-21 46 21 96 43 153 33 34-5 73 4 96 36 19 27 35 57 52 86 21 36 34 78 87 84 12 1 30 27 13 33z" horiz-adv-x="1000" />
<glyph glyph-name="iceland" unicode="&#xe84d;" d="m318 286c-8-2-25 12-23-8 1-18 18-14 29-12 43 5 81-4 122-23 40-19 92-37 137-8 48 32 103 48 156 67 43 16 72 41 98 74 22 27 13 52-16 68-28 15-56 33-44 76-26-14-47-20-69 8-10 13-35 16-37-15-1-6 0-13-7-14-39-9-81-16-117-7-37 10-46-5-60-30-19 10-48 64-52-10 0-10-31-14-45-26-5-5-12 12-10 16 15 50-29 57-55 75-25 17-30 14-43-17-6-13-12-3-18-2-14 1-25-3-29-16-7-24-30-34-44-51 46-34 98 29 140-9-18-40-57-43-95-47-7 0-17-2-17-11 2-10 13-16 21-10 20 11 40 5 59 2 27-3 38-27 44-49 4-14-13-18-25-21z" horiz-adv-x="1000" />
<glyph glyph-name="india" unicode="&#xe84e;" d="m850 502c-33-4-57-21-78-39-31-26-41-30-65-2-12 14-21 10-20-3 1-33-17-25-35-20-31 10-63 19-94 31-15 5-43 17-36 27 21 35-8 40-25 53-11 8-5 16-3 27 9 49-17 72-61 58-7-2-15-5-22-3-41 11-36-14-29-37 14-42-23-120-65-125-42-6-40-23-20-49 19-24 21-37-16-35-12 0-27-3-24-19 6-44 48-69 96-57-9-103 53-183 84-273 6-19 18-25 40-4 36 34 42 75 41 118 0 24 8 39 25 48 62 32 96 102 165 126 9 3 4 16 2 25-3 13-10 25-12 38-1 14 14 35 18 29 16-23 42-7 63-24-79-41 21-36 9-61 39 36 40 91 81 118 11 7 27 16 18 22-12 9-7 34-37 31z" horiz-adv-x="1000" />
<glyph glyph-name="indonesia" unicode="&#xe84f;" d="m394 345c-41 42-89 66-136 94 46-91 73-126 131-166 15-21 37-30 62-34 56-7 111-22 162-13-60 27-133 32-202 49-1 24 11 43-17 70z m460-11c-4 30-26 10-39 13-17 3-34 6-58 10 24-31 36-62 75-67 16-2 47-8 43-26-10-45 25-26 41-37 4 103 16 95-62 107z m-250 15c-11-51-11-51 28-61 2 0 3-5 5-8 6-6 14-9 20-5 10 7 4 17 1 25-4 9-19 16-9 28 4 5 22-3 17 13-3 12-18 9-28 7-8-2-16-9-19 6 20 14 53-11 71 26-30-14-59 5-85-14 0-5 1-11-1-17z m1 18c-1 0-2 0-2 0-6 6-11 12-15 19 0 0 0 1-1 1-1 3-1 6-2 9-1 11 2 25-17 26-16 2-21-9-25-20-14-35-46-30-69-24-29 7-25-5-21-21 3-12 8-23 15-33 17-27 50-19 75-27 24-8 16 23 26 33 9 9 7 28 18 35 4 3 9 3 16 2 0 0 1-1 1-1 0 0 1 0 1 0 0 1 0 1 0 1z m119-35c10 19 28 37 10 62-25-18-21-39-10-62z" horiz-adv-x="1000" />
<glyph glyph-name="iran" unicode="&#xe850;" d="m789 499c-65 51-127 51-191 4-65-48-182-10-195 68-6 35-16 31-36 16-28-21-54-30-79 4-6 9-14 8-23 1-9-6-11-13-8-23 11-45 17-93 55-126 9-8 14-19 8-27-41-50 0-72 31-97 17-14 29-25 32-50 1-16 6-52 31-47 52 11 60-26 82-56 30-41 75-74 124-72 40 2 67 28 98-28 16-30 82-17 126-26 28-6 11 30 27 39 3 2 5 4 8 5 12 9 23 44 21 58-2 12-10 16-19 23-28 20-61 40-21 80 8 7 11 24-1 27-43 10-23 46-31 70-11 34 19 63 20 106 8 37-37 34-59 51z" horiz-adv-x="1000" />
<glyph glyph-name="iraq" unicode="&#xe851;" d="m229 227c38-5 73-18 107-37 80-44 146-106 218-160 43-32 92-21 138-24 31-1 36 33 48 55 10 17 25 23 43 17 16-6 32-6 55-6-7 12-10 19-14 25-20 31-44 58-36 101 6 28-17 49-36 63-32 22-66 36-88 74-33 58-40 65 4 117 18 21-10 44 8 63-55 3-65 49-85 87-4 7-5 20-17 17-30-6-56 10-84 12-28 2-135-50-144-77-3-6-2-15-2-22 7-67 3-127-75-152-21-7-41-21-60-33-14-9-41-13-28-39 14-27-1-74 48-81z" horiz-adv-x="1000" />
<glyph glyph-name="ireland" unicode="&#xe852;" d="m378 48c85-4 154 40 226 74 41 20 81 43 126 41 41-1 67 11 73 52 6 37 41 68 28 109-13 42-5 89-32 127-13 20 15 18 15 38-42-8-68 9-90 43-14 24-31 13-38-9-9-28-28-28-51-21-26 8-44 27-61 49 65 31 83 103 145 133-28 20-43 23-74 12-50-19-108-16-127-82-3-10-29-7-23-23 5-15 25-13 39-16 7-1 18 10 22-6-32-23-60-57-105-49-31 5-62 7-94 5-42-3-37-19-15-42-9-11-26 3-33-11 20-20 47-22 75-25-30-2-34-30-50-45-20-16-20-24 7-34 38-14 74-34 118-29-20-10-45-13-51-35-6-22-14-40-34-51-18-9-22-19-6-34-20-8-14-52-52-36-10 4-27-5-27-21 13-14 30 0 46-8-14-11-27-20-39-31-9-8-13-22 5-21 27 2 26-44 57-28 6 3 7-7 5-9-12-22 3-17 15-17z" horiz-adv-x="1000" />
<glyph glyph-name="israel" unicode="&#xe853;" d="m803 569c-36 20-60 55-97 68-83 28-133-13-151-91-11-48-27-95-15-147 6-29 12-63-5-95-7-13 6-20 17-16 37 16 62-5 93-26-58-28-110-56-131-119-31-94-31-101 68-80 86 18 190 26 200 151 1 11 10 22 16 33 7 12 10 24 8 39-13 65-13 131 2 196 7 30 9 80-5 87z m-501-411c-26-28-49-60-79-82-38-29-30-56-7-92 53 43 64 117 120 155 12 8-2 19-9 26-12 12-18 1-25-7z" horiz-adv-x="1000" />
<glyph glyph-name="italy" unicode="&#xe854;" d="m900 282c-26 22-57 36-87 50-12 5-34 6-29 22 10 28-6 23-22 22-44-1-74 22-88 60-12 34-31 58-61 69-48 18-13 58-25 86-6 12 23 10 34 19 6 4 14 8 21 8 22 1 15 16 12 25-5 11 12 32-15 34-15 1-37 0-44 9-26 34-54 10-83 11-35 1-49-54-88-27-12-30-27-37-47-6-1 1-10-1-11-2-9-30-35-25-56-28-8-1-19-8-18-10 22-28-12-55 2-85 14-31 48-55 70-38 52 41 99 28 117-36 8-31 30-48 52-64 39-29 71-66 124-80 36-9 64-50 99-73 22-14 28-45 26-68 0-14-20-31-43-38-42-12-83-6-125-4-13 0-21-2-23-15-2-13 5-18 16-23 30-12 59-25 87-41 12-7 23-18 37-9 13 8 13 23 6 39 2 14 2 39 20 36 40-6 40 29 58 45 32 27 37 43 0 66-3 2-1 14 1 21 9 25 36 25 64 0 8-7 13-25 27-10 13 13 2 26-8 35z m-483 45c-19-8-75-11-39-62 5-7 0-21 0-35-3-17-10-46 21-44 21 1 54 9 48 49-2 16 8 33 6 49-3 20-7 54-36 43z" horiz-adv-x="1000" />
<glyph glyph-name="jamaica" unicode="&#xe855;" d="m856 366c-92 22-168 86-265 95-101 9-202 28-302-1-24-7-42-22-43-48-1-31 23-30 44-34 18-3 37-2 50-19 45-57 93-107 176-94 18 3 36-8 50-20 22-20 33-25 49 10 17 37 82-10 98 45 2 7 12-2 19-4 9-2 17-5 25-8 24-10 48-21 75-18 20 0 40 0 59 8 10 4 18 7 13 19-12 26-21 63-48 69z" horiz-adv-x="1000" />
<glyph glyph-name="japan59" unicode="&#xe856;" d="m684 463c37-20 62-2 97 12 43 17 58 51 96 76-91-12-91-12-163 46-8 7-15 11-24 8-12-5-8-15-7-23 3-30 1-66-25-77-48-20-48-50-37-92 13 9 35 21 34 22-20 41 25 30 29 28z m-465-442c28 5 21-8 19-23-2-17-10-40 13-47 21-5 22 21 32 33 4 5 6 11 9 16 10 14 12 30 43 26 52-7 83 38 69 83 10-1 20-1 22-16 7-37 24-44 48-18 27 29 64 22 95 35 33 14 81 8 79 71-1 28 0 74 19 88 42 34 29 65 15 101-5 14 4 44-26 36-25-7-53-21-47-53 9-48-20-80-43-113-9-13-33-29-42-22-37 29-34-3-45-22-11-16-12-44-43-41-65 5-122-18-172-58-10-7-4-17-3-25-17-3-31-12-43-24-11-10-12-29 1-27z" horiz-adv-x="1000" />
<glyph glyph-name="jordan" unicode="&#xe857;" d="m853 464c-8 4-12 9-11 18 9 44-20 81-26 122-4 22-13 26-34 13-67-42-139-77-203-124-71-51-119-22-167 17-16 14-29 21-49 14-22-8-21-28-20-42 10-135-40-259-68-387-22-100-26-99 73-118 3 0 6-2 9-2 63-13 98-2 130 54 21 34 47 47 84 53 22 3 52-1 61 29 8 24 21 41 44 50 19 8 17 16 4 30-41 43-81 87-127 137 85 23 167 46 249 69 21 5 40 12 57 27 28 25 28 25-6 40z" horiz-adv-x="1000" />
<glyph glyph-name="kazakhstan" unicode="&#xe858;" d="m436 331c-36 16-75-4-113 15-40 21-73-13-99-35-27-24 11-40 23-61 15-26 28 0 42-2 10-2 23 4 28-8 4-13-5-17-17-21-31-10-17-27-7-45 17-28 53-13 77-50 1 23-1 31 2 38 5 17-14 39 15 51 26 12 41-3 58-15 12-9 21-21 39-17 24 6 40-2 49-28 7-21 27-36 49-17 49 41 105 36 160 25 24-5 27 3 29 19 5 36 29 55 60 67 12 5 48 55 42 55-29 2-41 36-70 33-30-2-50 9-66 35-14 24-30 55-69 27-7-4-30 4-36 12-28 35-59 21-90 12-22-7-44-14-67-17-40-5-35-37-28-57 7-20-2-20-11-16z" horiz-adv-x="1000" />
<glyph glyph-name="kenya" unicode="&#xe859;" d="m278 561c-12-11-2-21 4-28 23-25 27-58 44-87 17-29 16-63-16-91-14-12-24-31-33-48-26-55-16-86 35-115 56-31 112-62 168-94 10-5 26-11 26-17 2-52 50-59 78-86 27-26 45-20 57 14 22 61 52 115 111 149 8 5 19 15 9 26-48 47-26 107-30 161-6 69-13 139 56 185-60 30-112 37-155-17-3-4-14-2-22-2-38 4-75 9-107 34-20 16-43 28-71 27-23 0-41 9-41 38 0 38-30 29-44 18-26-18-47-44-69-67z" horiz-adv-x="1000" />
<glyph glyph-name="kosovo" unicode="&#xe85a;" d="m243 448c9-7 6-17 9-22 26-47 55-92 84-137 2-3 12 1 18-1 56-12 121-119 100-165-8-19-27-39-11-58 18-23 27 15 46 13 12-2 33-5 27 26-13 70-9 73 58 100 10 4 22 4 30 11 30 27 54 21 72-13 11-19 29-21 35-4 17 52 62 54 99 62 17 23-35 26-9 46 42 30 53 80 82 119 10 14-7 28-11 26-39-15-64 24-99 22-22-1-35 11-21 35 12 22 0 17-16 24-19 9-44 10-57 43-8 23-28 67-77 67-25 0-65-5-62 45 1 7-12 17-29 11-24-8-44-25-78-24 50-51 49-59-5-93-8-5-25-13-24-17 12-57-31-43-60-48-7-2-20-4-21-8-10-37-35-30-60-22-14 5-27 0-33-9-10-14 4-23 13-29z" horiz-adv-x="1000" />
<glyph glyph-name="kuwait" unicode="&#xe85b;" d="m843 284c-4 21-22 20-40 19-24-2-49-8-73 12 19 18 38 36 57 53 11 11 23 24 40 16 20-10 37-3 56 0 37 5 60 24 57 58-2 36-29 69-58 83-15 7-23-40-36-61-2-3-3-8-8-19-8 19-20 33-20 46 1 37-21 48-49 62-51 26-101 24-156 18-62-7-102-34-124-92-24-61-51-121-90-175-28-37-59-72-90-111 80-10 154-21 228-29 88-9 100-18 122-104 3-12 4-26 11-35 12-19 21-43 49-43 83-1 167-1 253-1-34 110-111 193-129 303z" horiz-adv-x="1000" />
<glyph glyph-name="kyrgyzstan" unicode="&#xe85c;" d="m920 365c-33 12-57 39-94 42-42 4-83 5-124 7-52 3-105-17-155 19-22 16-52 0-60-29-7-27-22-25-39-17-27 14-55 19-85 16-22-2-48-18-40-33 14-31-9-31-21-39-13-8-24-16-32-31 21-7 38-11 51-25 20-19 36-1 51 12 0 0 7-4 9-7 18-23 48-24 82-43-48-2-72-44-121-32-24 6-51-15-47-47 5-35 28-24 48-15 8 4 14 1 21-4 47-35 95-3 142 1 9 1 10 9 12 17 15 43 74 68 116 50 18-8 47 1 50 8 15 51 58 38 93 45 8 2 19 3 21 8 27 44 77 46 117 65 25 12 26 25 5 32z" horiz-adv-x="1000" />
<glyph glyph-name="laos" unicode="&#xe85d;" d="m791 16c12 27-19 55-17 64 10 45-22 51-46 67-3 2-6 6-8 10-50 72-97 147-176 191-9 4-22 5-14 22 6 11 10 19 23 14 14-6 23-1 32 10 18 20 2 29-8 47-19 36-32 57-77 34-19-10-56 10-52 32 9 52-43 56-57 88-7 15-26 16-39 8-14-8-14-23-6-37 7-12 11-24 8-39-4-21-21-22-28-12-26 35-35-1-50-10-10-6-8-21-21-28-55-28 28-54 3-83-5-6 2-15 10-18 4-2 10-3 13-2 44 15 39-23 36-41-4-26-6-53-13-78-2-12-16-25-4-34 14-9 25 5 36 13 25 19 47 51 85 16 12-11 28 4 39 14 31 29 51 28 77-5 23-30 56-55 44-102-5-18 14-33 27-45 17-14 42-22 31-50-8-22 9-49-8-67-25-24-24-33 12-35 11-1 21-11 37-20 4 34 6 62 51 40 24-11 49 10 60 36z" horiz-adv-x="1000" />
<glyph glyph-name="latvia" unicode="&#xe85e;" d="m873 422c5 5-1 14-7 20-26 24-56 40-93 31-20-5-37-3-49 14-19 25-49 32-74 44-32 15-63-3-92-17-26-13-6-37-4-53 4-37-19-52-44-62-26-10-47 2-63 30-34 59-113 78-144 32-35-54-76-112-52-190 48 35 98 44 154 42 62-2 124-36 186 0 2 1 7 0 9-2 33-40 94-33 126-76 15-19 39-21 58-6 13 10 24 11 38 9 41-7 55 33 80 50 19 14-2 41-13 62-11 22-39 41-16 72z" horiz-adv-x="1000" />
<glyph glyph-name="lebanon" unicode="&#xe85f;" d="m774 590c-10 16-32 25-43 16-30-23-62-12-93-15-12-2-30 5-29-18 1-31-23-40-44-52-38-24-67-59-75-100-10-53-29-101-54-149-29-53-41-115-76-166-32-47-36-104-68-153 34-2 60-2 86-5 35-4 59 5 65 44 2 12 5 28 19 30 51 7 85 45 116 78 17 18 89 36 29 87-9 8-1 24 7 33 18 22 38 41 69 39 24-2 47-1 74-1-38 42-36 58 16 85 35 18 66 49 60 83-8 45-14 105-92 111 12 12 17 17 21 23 7 9 23 15 12 30z" horiz-adv-x="1000" />
<glyph glyph-name="lesotho" unicode="&#xe860;" d="m876 477c-61 33-107 85-158 132-11 10-20 19-34 14-104-35-205-73-275-164-41-53-65-123-140-144-13-3-17-16-13-30 20-69 69-124 97-190 11-29 54-59 87-84 27-21 61-21 92-20 25 1 22 36 35 54 29 42 41 105 110 102 39-1 72 13 104 31 75 41 82 130 127 192 7 9 7 23 11 37-10 25-13 54-43 70z" horiz-adv-x="1000" />
<glyph glyph-name="albania" unicode="&#xe801;" d="m542 623c-6 1-12-2-17-4-20-7-43-24-43 17 0 12-11 11-16 5-25-30-62-59-65-97-2-22-9-63 23-79 33-16 27-35 13-58-7-12-17-27-12-38 29-71-40-139-4-209-36-55 19-59 45-73 29-16 49-36 56-68 6-25 22-42 44-34 19 6 42 23 30 52-9 22 8 32 21 33 35 2 40 27 49 51 6 18 11 34 32 41 16 6 30 26 23 41-10 19 0 50-27 58-48 15-65 52-72 96-7 46 12 89 18 133 0 24-76 129-98 133z" horiz-adv-x="1000" />
<glyph glyph-name="libya" unicode="&#xe862;" d="m181 299c-2-9 38-82 47-84 51-7 80-55 130-69 25-7 42-15 62 0 24 18 44 17 70 2 86-48 173-93 259-140 49-26 82-6 83 49 0 157-2 315 4 473 2 45-7 59-50 58-13 0-26 7-36 19-12 14-28 18-44 16-60-1-88-29-85-86 2-35-21-38-46-32-13 3-23 16-35 23-41 24-95 14-129 67-22 35-84 22-129 28-23 3-9-27-31-34-51-17-31-86-73-113-1 0 1-6 2-8 31-56 14-112 1-169z" horiz-adv-x="1000" />
<glyph glyph-name="liechstenstein" unicode="&#xe863;" d="m417 145c-20-14-41-28-61-42-14-9-21-22-14-39 7-18 20-10 34-10 30 1 56 11 83 24 19 9 45 19 58-3 23-37 50-30 83-20 31 10 68 12 71 57 0 14 9 21 21 26 41 15 48 37 24 73-7 10-20 14-14 31 18 52 9 71-37 101-26 18-50 40-70 64-13 14-20 34-9 55 28 54 27 59-24 91-17 10-27 18-8 33 26 21 14 39-4 57-22 21-44 42-74 69-1-59-39-96-59-141-30-66-77-135-20-210 32-42 40-91 49-141 6-33-3-57-29-75z" horiz-adv-x="1000" />
<glyph glyph-name="lithuania" unicode="&#xe864;" d="m855 404c-26 1-19 16-13 30 4 12 6 20-9 30-124 82-123 83-260 90-3 0-6 1-9 2-71 22-145 10-220 23-40-7-79-25-115-49-4-3-8-9-9-14-7-40 15-75 20-113 2-11 33-17 49-26 25-15 52-16 80-17 26-1 54-17 42-43-19-46-1-65 38-75 31-7 37-30 49-53 8-15 132-1 146 15 16 17 40 17 57 29 21 14 22-30 44-14 31 23-17 24-11 46 17 55 42 96 103 105 12 2 15 14 23 21 7 5 1 12-5 13z" horiz-adv-x="1000" />
<glyph glyph-name="luxembourg" unicode="&#xe865;" d="m280 147c-22-17-6-36 6-40 46-13 83-43 127-58 20-7 44-2 57 10 55 48 108 42 163 5 25-16 26-3 28 18 9 74 27 143 86 197 35 31 16 90-27 104-22 7-44 14-65 23-69 29-174 138-160 231 9 23 4 56-22 60-33 5-68 26-105-11-51-51-75-115-112-172-39-61-41-117 2-175 22-31 41-65 62-96 6-9 7-16 1-25-16-22-18-53-41-71z" horiz-adv-x="1000" />
<glyph glyph-name="macedonia" unicode="&#xe866;" d="m207 313c2-51 37-98 67-118 40-26 102-35 157-16 12 4 23 9 35 4 38-14 69 6 87 31 35 51 83 53 133 43 34-8 70-8 91 13 21 21 32 53 66 61 0 0 0 3 0 5 5 62 22 126-22 183-8 10-14 20-27 23-39 10-66 37-90 67-11 15-25 31-44 28-72-12-143-26-214-39-11-2-21-8-25-19-7-19-15-16-30-7-27 16-104-5-113-32-9-28-3-59-50-57-12 1-17-36-16-57 1-16 4-31-13-39 0-13 0-25 0-37 16-9 8-25 8-37z" horiz-adv-x="1000" />
<glyph glyph-name="madagascar" unicode="&#xe867;" d="m348 123c0-1 0-3 0-5 2-45 34-81 77-87 25-4 91 34 99 58 27 81 53 162 78 243 11 35 15 75 28 105 12 26-7 72 39 82 3 0 5 9 4 13-16 48-9 103-44 147-8 11-23 20-27 4-6-34-41-50-49-73-20-59-66-81-114-99-62-24-86-65-68-130 5-19 10-38 15-55-3-10-2-19-6-24-41-55-65-112-32-179z" horiz-adv-x="1000" />
<glyph glyph-name="malawi" unicode="&#xe868;" d="m669 96c2 0 1 5 2 8 16 76-18 159-82 202-21 14-45 100-33 122 1 3 9 3 14 4-5 17-7 33 17 37 10 1 15 8 8 14-36 26-18 65-27 97-7 27-19 64-45 62-35-4-64 9-91 10 3-43 89-67 22-125-2-1 5-10 3-13-25-43 36-104-27-140-3-2-2-12 0-18 3-14-1-29-9-39-26-29-5-43 16-54 9-5 17-8 20-16 14-32 39-36 67-26 23 8 31-4 35-22 4-20 7-40-6-58-26-36-8-63 16-91 13-15 36-23 37-49 0-8 20-13 18-2-9 45 3 77 45 97z m-94 328c1 0 2 1 4 2-3 2-5 3-8 5-2-4-1-6 4-7z m-4 7c0 0 0 1 1 1-1 0-1 0-2 0 0 0 0 0 0-1 1 0 1 0 1 0z" horiz-adv-x="1000" />
<glyph glyph-name="malaysia" unicode="&#xe869;" d="m876 368c-16 26-35 20-47-5-26-52-86-66-119-108-5-6-17-8-26-8-12-1-23-7-25-17-8-39-33-30-68-14 29-44 29-41 64-42 22-2 34 23 49 18 75-26 86 32 103 77 8 20 21 27 33 22 43-16 68 7 94 34-16 18-43 20-58 43z m-594-49c8-59 43-96 94-123 12-7 25-10 34-4 13 10 3 22-4 32-15 20-22 42-17 68 3 19-6 34-21 47-27 26-69 5-97 32 4-17 8-34 11-52z" horiz-adv-x="1000" />
<glyph glyph-name="mali" unicode="&#xe86a;" d="m789 417c-35 21-63 50-96 72-60 40-120 80-177 123-26 20-52 22-82 23-23 0-27-8-24-30 15-114 19-229 43-341 3-15 0-27-21-27-66-1-132 2-199-6-37-4-50-14-46-51 3-29 34-46 26-78-2-12 13-8 22-8 19 0 39-3 58 5 7 2 15 16 20-2 17-52 36-98 110-71 12 5 33 0 34 17 1 41 49 55 50 95 0 2 7 7 9 7 29-16 31 17 47 24 36 16 66 47 110 43 46-5 88 21 135 18 15-1 22 14 28 26 10 23 12 48 10 77 27 53-35 70-57 84z" horiz-adv-x="1000" />
<glyph glyph-name="malta" unicode="&#xe86b;" d="m476 226c59-56 129-96 211-106 47-6 96-48 145 9 26 31 37 91 8 120-21 21-56 21-72 44-34 49-86 67-134 94-15 8-28 18-45 0-6-6-31-19-24 15 5 18-16 12-26 17-15 8-28-13-48-2 9 8 15 16 22 20 12 7 24 11 12 27-10 13-16 3-26-2-13-7-26-13-43-11-17 3-12-18-20-27-7-8 2-13 11-12 13 1 18-11 15-18-11-30 6-63-6-92-14-33 0-57 20-76z m-193 282c58-27 111 7 166 17 24 5 16 22 2 33-53 43-115 67-177 78-27-6-57 9-66-10-13-24-1-57 5-81 5-17 45-26 70-37z m150-9c1-7 4-26 15-23 20 3 39 1 40 17 1 12-14 21-29 21-13 1-27-1-26-15z" horiz-adv-x="1000" />
<glyph glyph-name="martinique" unicode="&#xe86c;" d="m796 231c-6 29-23 46-41 67-20 24-72 47-25 97-20 1-33 3-46 2-11-1-25-23-33-1-6 17 15 26 25 29 44 10 6 24 3 35-2 5-12 11-18 11-21 2-17 20-14 29 6 19 19 5 29 0 21-11 61 12 61 34 0 15-15 24-19 19-28-29-75-12-100-52-17 40-48 65-72 95-33 42-88 51-132 77-40 24-92 20-136-5-45-26-47-76-11-116 18-20 56-31 43-68-11-30 2-51 14-77 23-49 73-67 109-100 18-16 60-31 91 4-2-24 14-39 20-57 4-9 26-9 13-23-9-11-31-14-38-6-43 58-62-7-83-20-35-19 5-44 10-67 8-34 31-39 56-17 10 9 21 15 34 10 41-15 86-5 126-19 18-7 83 9 49-55-6-10 7-21 16-30 10-10 24-10 34-3 24 17 74 91 58 122-14 27-16 57-23 85z" horiz-adv-x="1000" />
<glyph glyph-name="mauritania" unicode="&#xe86d;" d="m386 338c-39 3-79 1-119 1-17 0-32-7-20-23 27-32 24-71 34-107 11-34 11-62-5-92-11-18-21-36-12-55 17-1 13 16 26 19 57 16 102-2 145-44 14-14 39-89 78-14 1 2 6 3 7 3 22-27 46-2 69-2 69 1 138 5 207 7 36 1 43 24 29 48-14 25-16 50-19 75-11 100-20 201-30 301-8 70-8 70 60 77 1 0 2 5 3 8-57 38-114 75-177 116-3-70-3-70-65-70-2 0-3 0-5 0-99 0-100 0-99-100 0-25-1-45-30-54-20-6-28-23-24-44 9-45-14-53-53-50z" horiz-adv-x="1000" />
<glyph glyph-name="mauritius" unicode="&#xe86e;" d="m906 430c-27 76-74 140-121 204-12 17-25 21-46 20-84-5-136-41-157-123-13-51-37-89-86-109-19-8-32-22-43-40-36-63-44-133-46-203 0-30 0-58-36-68-11-3-18-8-15-23 6-25 77-88 104-89 85-3 170-10 254 17 67 22 119 54 128 130 3 16 9 30 23 37 56 28 67 76 59 130 10 42-5 79-18 117z" horiz-adv-x="1000" />
<glyph glyph-name="mexico" unicode="&#xe86f;" d="m856 302c-20 10-67-9-73-31-9-33-33-35-59-39-27-5-49 0-64 22-25 37-45 74-27 120 4 9 12 25-2 28-40 8-46 45-65 70-13 17-29 29-46 17-26-19-32-2-45 15-17 24-40 48-73 33-29-14-55-8-83-1-29 7-55 26-86 27-26 0-36-10-19-32 31-40 36-98 87-125 5-2 10-9 10-14 0-40 39-38 53-63 3 3 6 5 9 8-25 41-50 83-74 125l3-1 2 3c64-36 99-101 147-152 4-4 8-12 7-16-17-51 27-59 54-74 33-19 69-31 104-46 14-7 31-15 44-8 38 20 60-3 90-32-12 38 60 31 15 82 66-18 83 21 98 62 3 11 4 17-7 22z" horiz-adv-x="1000" />
<glyph glyph-name="moldova" unicode="&#xe870;" d="m774 325c-34 30-75 51-65 106 1 3-16 7-22 13-24 21-59 35-36 82 11 21 17 65-38 55-11-2-17 11-23 20-6 11-13 24-27 22-59-6-98 34-145 58-20 11-40 21-65 13-34-11-66-28-105-17-14 4-34-8-43-30 62-1 82-48 101-90 29-67 76-121 125-172 35-37 57-80 49-126-11-59-24-115-17-175 2-22 3-35 19-47 13 17 60-10 51 39-3 13 13 19 19 28 25 40 87 63 56 128-8 17 10 23 22 29 21 11 18-4 19-16 1-9 7-10 13-5 17 14 36-1 50 2 33 6 65-32 102 6-46 12-21 61-40 77z" horiz-adv-x="1000" />
<glyph glyph-name="monaco" unicode="&#xe871;" d="m518 323c16 2 33 8 50 7 35-3 71 17 75 40 11 56 46 101 58 155 7 27 61 50 85 36 8-6 16-7 25-3 12 6 9 15 9 24 1 26-17 49-12 76 4 24-11 33-34 40 5-29-3-42-30-47-73-14-116-56-135-131-9-37-29-88-91-73-4 1-11-5-15-9-49-44-97-89-147-131-20-17-31-34-25-59 5-26-6-35-29-46-43-21-42-42-4-70 28-21 58-40 84-64 32-32 55-34 88 1 35 38 36 49-12 67-10 4-22 10-18 22 6 17 17 6 26 1 35-20 65-17 101 8 48 33 57 49 29 102-9-30-34-20-56-20-21 0-26 8-17 28 3 6 0 16-10 15-15-1-20 6-17 19 2 12 13 11 22 12z" horiz-adv-x="1000" />
<glyph glyph-name="mongolia" unicode="&#xe872;" d="m813 304c-3 10 2 16 6 22 4 8 6 17 10 26-33 15-60 15-88-3-13-9-33-13-49-9-47 10-90 43-143 28-8-2-11 12-17 19-17 21-45 23-70 25-9 0-21-10-20-22 5-63-48-35-60-27-41 28-74 14-109-6-48-28-48-27 2-59 6-4 15-11 15-16-9-58 38-54 71-66 11-4 26-11 30-20 11-29 34-30 59-31 34-1 66-7 99-15 54-15 108 7 159 28 11 5 26 10 20 31-6 17 8 15 19 12 13-4 23 3 34 7 39 13 66 53 115 37-15 56-56 33-83 39z" horiz-adv-x="1000" />
<glyph glyph-name="montenegro" unicode="&#xe873;" d="m790 384c25-7 37 16 56 20 12 3 25 5 25 22 1 15-8 24-19 28-55 20-98 60-158 73-39 9-74 35-106 66-42 40-74 101-145 102-11 0-22 7-30-4-9-12 1-23 6-33 9-19 28-35 13-61-17 8-29 37-53 22-27-18-58-34-67-67-8-32-6-67-54-68-12 0-14-19-12-31 6-30 2-62 24-87 14-17 11-32-6-43-37-24-13-55 4-60 41-13 64-47 100-66 43-22 81-57 105-101 16-31 39-47 70-61 7 32 16 68 2 88-28 41-4 67 16 93 32 41 58 88 99 124 17-22-5-56 25-64 33-8 63 10 90 27 21 15 14 38 4 58-7 13-8 28 11 23z" horiz-adv-x="1000" />
<glyph glyph-name="montserrat" unicode="&#xe874;" d="m264 228c88-4 95-84 145-123 45-34 75-74 144-82 82-10 111 32 149 81 12 15 8 29-1 41-14 19-23 35-6 57 7 10 2 25-7 34-24 25-15 48-5 75 11 32 7 78-21 89-66 25-60 92-93 135-10 12-17 30-17 46-4 76-3 75-68 95-29 9-45 1-47-28-3-50-21-93-46-135-30-52-31-118-82-159-7-6 0-17 2-26 9-38 0-70-47-100z" horiz-adv-x="1000" />
<glyph glyph-name="morocco" unicode="&#xe875;" d="m518 78c7 18-15 48 11 68 41 32 87 55 138 66 47 10 73 57 118 69 3 0 5 4 6 7 11 59 57 59 102 62 13 0 30-8 38 8 6 15 2 31-8 44-9 12-18 21-16 40 8 77-17 112-116 109-29-2-56-2-79 23-22 24-43 17-57-13-8-18-19-35-26-53-14-40-41-62-82-72-47-11-116-110-101-156 19-57-13-85-48-115-37-32-73-63-124-71 1-5 3-11 4-16 79 0 158 0 240 0z" horiz-adv-x="1000" />
<glyph glyph-name="mozambique" unicode="&#xe876;" d="m463 507c-50 20-84-9-125-19-13-3-17-10-15-23 2-13 2-28 16-30 72-8 96-36 82-116-9-48-20-86-49-121-5-7-14-13-11-23 18-54 34-108 28-165-1-9 4-19 17-17 8 2 22 3 18 15-19 53 26 55 53 66 33 13 48 32 48 69 0 32-2 65-17 93-15 29-10 51 13 66 44 30 72 81 131 95 48 11 83 67 75 107-7 38-6 76-7 114 0 30-2 42-37 25-39-19-82-37-126-33-68 8-74 4-54-62 3-9 2-21 8-26 45-40 26-74-10-108-11 18-27 32-15 58 9 18 0 26-23 35z" horiz-adv-x="1000" />
<glyph glyph-name="myanmar" unicode="&#xe877;" d="m615 497c26 33 25 72-9 101-34 29-27-23-46-26-4-1-8-4-12-5-30-12-49-33-56-65-12-50-54-82-74-128-14-34-15-54 14-77 35-28 55-64 46-112-1-9-18-23 4-29 15-4 29-21 45-1 8 9 23 12 31 20 13 14 22 10 24-6 10-67 60-126 39-200 43 28 46 79 10 128-6 9-22 16-13 30 22 33 8 57-13 84-23 30-10 59 24 76 31 16 66 31 83 71-28-1-54 13-59 31-9 28-13 58-52 62-7 0-11 11-6 22 5 11 13 16 20 24z" horiz-adv-x="1000" />
<glyph glyph-name="namibia" unicode="&#xe878;" d="m372 372c8-12 15-27 12-43-10-69 23-132 25-199 2-42 25-72 50-101 13-14 24-25 39-3 12 18 22 11 30-5 19-40 56-26 84-22 28 5 42 27 41 61-3 95 0 191-1 286-1 23 2 39 30 38 21 0 25 12 25 30-1 43 1 86-1 129-1 23 10 27 29 37 47 24 100-10 145 20 10 6 30 1 28 16-3 18-22 12-35 11-69-8-137-23-208-15-36 4-71 14-106 15-90 4-181-5-269 26-16 5-27-7-36-16-17-16-1-33 7-44 50-67 66-151 111-221z" horiz-adv-x="1000" />
<glyph glyph-name="nauru" unicode="&#xe879;" d="m756 661c-59 58-137 48-208 54-19 2-44-5-60-27-53-75-121-134-193-189-109-83-122-235-32-338 42-47 106-59 145-106 40 0 80 0 120 0 60 16 103 61 159 85 37 14 55 46 49 89-10 76 6 145 65 199 27 26 40 59 36 95-6 58-41 100-81 138z" horiz-adv-x="1000" />
<glyph glyph-name="nepal" unicode="&#xe87a;" d="m899 267c-49-25-89 15-136 15-55 0-103 41-153 68-16 9-14 36-31 37-58 0-90 47-135 70-26 13-47 53-76 24-23-23-57-3-75-34-12-22-17-46-29-66-21-34-2-46 24-53 26-7 45-23 67-36 58-33 115-70 187-70 23 0 52 13 71-7 27-29 58-41 96-52 53-17 106-21 149-31 62 3 64 6 51 59-4 19-1 36 6 54 7 15-3 29-16 22z" horiz-adv-x="1000" />
<glyph glyph-name="netherlands" unicode="&#xe87b;" d="m876 640c-34 11-56 46-99 39-79-13-163-2-219-81-14-19-41-36-66-36-34 0-44-19-47-44-11-75-46-135-104-183-11-9-14-26-20-40-3-3-5-5-7-7-10-5-28 5-31-12-3-15 24-2 23-15-14-24-84 27-54-47-4-2-8-4-12-5-12-3-27-3-19-22 5-14 14-23 32-16 10 5 21 4 31-1 28-16 51-5 76 11 28 18 58 41 93 33 21-5 50 3 61-11 18-25 38-28 66-31 49-4 64-32 44-72-7-12-18-24-2-36 16-11 38-15 52-4 10 8 20 29 3 44-14 13-13 17 3 28 28 19 35 92 18 121-9 14-32 27-18 46 12 17 31 8 50 6 31-3 80-2 81 30 1 28 11 34 27 45 15 11 19 28 18 45-2 19-17 23-33 24-11 0-24 0-23 16 1 16 10 24 27 22 12-1 26-3 30 14 7 34 30 64 24 101-2 14 8 35-5 38z" horiz-adv-x="1000" />
<glyph glyph-name="nicaragua" unicode="&#xe87c;" d="m839 716c-11 7-28 6-39-2-41-31-92-29-137-47-14-5-28-5-39 6-23 24-39 14-54-10-21-34-42-67-76-91-21-14-38-35-62-5-10 13-21 3-27-5-15-22-32-34-60-28-20 4-27-8-27-27 2-56-29-86-82-96-19-4-29 28-47 6 0-9 0-19 0-28 55-22 99-63 130-107 41-57 100-91 142-144 3-4 11-8 15-7 58 17 108-35 169-14 31 10 50-34 83-39 18-3 34-1 46 12 15 17-7 23-12 33-8 13-14 25-12 39 5 33 46 61 11 99-1 1 2 5 3 8 36 50 37 107 32 164-2 33-1 65 9 95 18 50 58 96 27 154 0 0 1 2 2 4 1 10 22 19 5 30z" horiz-adv-x="1000" />
<glyph glyph-name="niger" unicode="&#xe87d;" d="m313 84c31-20 70-17 87 16 28 51 72 60 117 23 6-5 12-11 19-7 25 12 47-7 69-7 56-1 111 28 169 13 35 64 92 120 109 192 18 80 14 166-25 248-7 3-18-20-32-6-50 48-95 26-144-5-72-47-138-106-213-142-54-26-70-50-63-101 1-6 0-12-1-18-7-40-17-74-70-72-26 1-53-9-80-14-35-8-26-24-15-41 21-30 41-58 73-79z" horiz-adv-x="1000" />
<glyph glyph-name="nigeria" unicode="&#xe87e;" d="m900 554c-14 26-32 42-61 18-23-19-45-22-75-11-32 13-69 11-95-13-21-19-39-16-58-6-29 14-57 29-90 9-9-6-16 0-23 6-46 38-98 46-133 22-30-20-56-104-40-142 11-25 4-49-8-63-40-46-56-95-39-154-21-50 10-51 44-46 45 5 72-18 92-54 38-72 39-73 114-54 12 3 23 3 35 4 26 3 47 17 50 40 4 37 28 58 52 78 19 16 45 32 66 0 15-23 23-11 33 3 27 41 39 89 71 128 33 42 30 107 89 135 13 6 16 36 5 45-18 16-20 36-29 55z" horiz-adv-x="1000" />
<glyph glyph-name="north3" unicode="&#xe87f;" d="m321 113c-22-24-4-99 26-110 9-3 19-3 26 5 23 28 52 17 80 13 10-1 19-12 30-1 43 42 96 55 154 57 24 1 38 16 13 39-20 17-38 35-58 52-37 32-33 69 13 88 61 24 110 65 164 99 20 12 28 30 27 50-2 51 21 88 58 120 20 17 40 36 60 55-37-3-63 17-90 35-15 10-30 3-37-14-26-59-67-99-130-111-17-3-22-13-15-25 13-26-1-29-21-27-22 2-47-1-66 13-33 24-54 10-71-20-17-31-42-55-75-71-36-17-70-38-107-53-25-10-40-26-48-53 14-4 24-8 34-11 94-32 100-58 33-130z" horiz-adv-x="1000" />
<glyph glyph-name="norway" unicode="&#xe880;" d="m196 151c9-53 52-70 96-39 19 12 35 36 63 20 6-4 9-1 10 3 6 35 36 63 19 107-11 28-33 80 34 86 3 1 10 6 9 8-8 48 36 74 47 111 20 72 99 49 132 96 6 10 14-4 21-9 36-24 78-14 98 23 13 25 67 34 72 10 10-40 24-11 36-8 6 1 12 3 19 5-1 20-23 9-22 20 4 30 5 29-24 40-34 13-69 3-102 4-29 1-67 2-91-30-8-11-29-15-44-15-26 1-65-16-75-37-6-14-9-16-18-5-20 23-25-12-39-8 0-11-17-20-4-30 18-15 7-30-3-37-27-21-36-53-56-77-26-30-51-59-88-78-57-29-121-61-92-147 2-4 1-9 2-13z" horiz-adv-x="1000" />
<glyph glyph-name="oman" unicode="&#xe881;" d="m678 233c10 0 17 4 16 17-2 19 11 31 25 41 20 15 30 38 42 59 23 38-25 32-35 52-13 26-31 55-70 57-49 3-88 26-108 72-7 18-15 9-23 6-38 19-21-14-26-25-4-11 13-20 2-31-42-42-49-75-23-124 9-16 7-29 2-44-30-106-30-106-136-143-23-8-47-16-70-23-18-5-26-11-15-32 21-39 39-80 57-120 3-7 7-17 15-15 42 11 84 24 128 27 2 0 5 5 5 7 4 42 34 49 67 52 15 1 22 11 24 24 5 27 25 38 49 39 23 2 30 7 27 34-2 31-8 72 47 70z" horiz-adv-x="1000" />
<glyph glyph-name="pakistan" unicode="&#xe882;" d="m219 260c15-5 32-11 27-30-4-19 19-25 17-37-4-17-27-8-38-20-5-6-15-9-18-19-3-12-11-24-5-35 7-14 22-8 32-5 41 10 83-2 122 8 42 10 61-12 74-43 10-26 31-32 46-20 24 20 50 14 74 14 43 0 44 19 28 50-10 19-32 29-33 55 0 6-28 11-11 28 11 11 14 44 46 22 6-5 32-1 45 15 27 35 51 74 84 102 29 25 14 71 56 85-38 22-68 67-57 96 13 32 42 1 64 6 15 4 30 7 44 12 9 3 20 8 17 22-3 20-73 90-92 85-35-9-71 3-103-13-17-9-46-10-42-40 7-48-2-65-48-85-7-3-8-7-7-14 8-37-41-50-36-87 1-7-13 0-19-2-34-9-82-14-89-45-12-47-36-47-73-54-53-9-102-3-152 12 0-3 0-6 0-9 23-12 21-46 47-54z" horiz-adv-x="1000" />
<glyph glyph-name="palau" unicode="&#xe883;" d="m749 665c7-17 8-41-9-43-61-7-69-63-97-100-12-17-21-41 5-59 13-9 13-25 8-37-7-19-20-11-34-5-11 5-16-4-16-15-18-27-32-62-84-51 14-18 24-30 33-42-5-26-32-36-40-57 54-24 62 7 58 52 0 2 1 3 1 5 22 20 43 41 65 62 32 1 54 27 83 37 4 1 8 9 7 14-7 51 33 90 34 139 2 48 17 97-10 142-24-12-11-28-4-42z m-298-497c33 22 33 22 34 75-38-56-38-56-34-75z" horiz-adv-x="1000" />
<glyph glyph-name="palestine" unicode="&#xe884;" d="m563 487c36-22 43 3 67 26 29 28 36 53 35 86 0 14-5 28-7 38-39 1-47-49-82-48-29 2-36-13-43-35-33-94-56-192-114-276-5-7-5-14-2-22 32-89 64-179 96-268 4-1 8-1 12-2 16 113 59 218 77 334-33-7-65-36-82-14-16 20 16 40 36 54 1 1 1 5 1 8-36 18-43 88-10 113 4 4 12 8 16 6z" horiz-adv-x="1000" />
<glyph glyph-name="panama" unicode="&#xe885;" d="m632 490c-29 5-50 5-76-14-39-27-85-46-129-65-28-11-57-14-79 16-4 6-12 12-18 12-38-1-40-3-56 31-13 26-37 25-54 21-23-6-20-33-15-52 5-25 7-53-5-82-6-12 3-16 7-23 4-9 5-1 10 1 48 19 111 0 141-42 22-31 38-31 57-1 5-14 13-28 15-42 3-32 24-31 46-27 60 14 68 36 29 82-21 25-16 34 13 43 19 6 38 16 49 37 23 44 50 48 93 28 30-13 38-46 67-57 2-2 4-5 6-7-30-56 9-88 42-127 12 23 24 37 50 46 38 13 27 101-7 138-51 56-117 71-186 84z" horiz-adv-x="1000" />
<glyph glyph-name="papua" unicode="&#xe886;" d="m608 219c-51 31-91 75-133 117-11 11-23 26 7 29 30 4 16 28 6 29-63 8-82 74-132 96-51 22-104 41-163 64 0-80 0-153 0-226 1-70 1-69 68-74 19-2 35 4 42 20 24 57 88 71 119 18 41-72 110-78 176-98 7-3 19-5 22 8 2 9-4 13-12 17z m235 169c-15 11-23 30-44 37-12-30 16-40 23-58 3-10 16-11 24-5 12 9 6 19-3 26z m-139 110c-2 2-6 7-8 7-8-4-1-8 1-12 3-8 12-16-4-20-15 3-31 20-37-14-3-16-24-43-47-34-34 14-60-14-91-4 54-64 144-33 176 31 10 9 31-10 35 14 3 19-13 24-25 32z m-20 12c8 11-6 15-16 16-4 7-11 14-17 8-9-10 5-10 9-15 8-4 18-19 24-9z" horiz-adv-x="1000" />
<glyph glyph-name="paraguay" unicode="&#xe887;" d="m762 345c-25-7-33-1-36 22-2 17-8 33-12 49-17 73-19 74-97 68-24-3-51-1-70 13-19 13 0 34 0 51-1 45-9 91-33 126-37 53-215 60-267 18-1-1-2-2-3-3-47-58-41-133-66-198-11-30 29-29 37-51 24-60 78-86 133-104 69-21 122-73 193-90 11-3 32-18 15-34-36-33-36-84-65-118-15-16-8-21 10-26 21-7 46 7 64-13 49 0 98 0 147 0 5 22 19 37 39 47 24 12 36 32 40 57 9 46 17 91 24 136 8 51-3 63-53 50z" horiz-adv-x="1000" />
<glyph glyph-name="peru" unicode="&#xe888;" d="m661 324c-52-5-23 36-36 52-21-4-38-33-62 0-19 25-53 46-46 80 17 76 52 103 131 110 3 13-25 14-12 32 24 35-6 43-27 39-56-13-84 24-116 57-7 7-15 16-24 20-10 5-20 8-18-12 6-42-20-63-55-78-22-9-47-16-53-45-6-37-24-30-51-18-22 10 9 30-16 35-21-16-35-29-29-68 6-39 38-46 54-71 44-69 84-142 113-217 26-63 68-91 120-116 34-17 65-37 86-69 12 0 24 0 37 0 7 42 34 80 23 130-3 18 2 53 12 81 8 20-16 60-31 58z" horiz-adv-x="1000" />
<glyph glyph-name="philippines" unicode="&#xe889;" d="m707 59c13-9 9-25 15-37 39 73 26 139-43 175 23-34 8-38-16-44-15-4-28-22-42-34-1 0-4 4-7 5-35 16-89-10-97-47-2-7-14-17 1-22 9-3 13 3 17 11 17 38 53-1 76 18 2 1 12-8 9-17-15-44 7-63 46-71 9-2 14-20 26-9 13 11 13 26 7 38-7 15-11 27 8 34z m-299 465c0 0-4-7-3-11 4-46 29-83 57-117-1-20-21-3-27-15 6-12 12-26 21-39 6-9 8-31 26-24 17 7 16 27 13 44-2 11-24 18-5 32 2 2 5 4 7 6 29-22 71-16 96-47 1-3 13-24 27-6 12 15-8 16-9 25 4 3 9 7 13 10h0c0 0 0 0 0 0h0c3 2 4 4 5 6 1 1 2 3 2 4 0 0-1 0-2 0l0 0 0 0 0 0 0 0c0 2 0 3-1 4-1 2-2 3-3 4-3 2-10 2-12 0 0-1-1-1-1-2-13 6-27 12-40 17 0 0-1 0-2 0-4 2-8 3-12 4-1 0-2 1-4 1-3 0-7 1-10 1-2 0-4 1-5 1-4 0-7-1-11-1-2 0-3 0-5-1-5-1-10-2-16-4-7 40-30 82 23 113 10 6 22 30 9 45-16 20-8 40-5 63-11-1-20-5-28-3-70 9-68 9-74-66-1-10 31-57-24-44z m230-243c-7 2-4-9-5-15-3 1-5 1-8 0-15-8-39-33-45-8-9 40-45 26-62 50-2-30-3-53-5-75 16-11 30 18 41-2 4-7 2-16-7-23-34-27 4-37 15-46 21-19 22 7 29 18 5 7 10 15 15 22 15 6 35-18 48 8 19-5 34 5 25 22-22 40 21 18 26 30-5 16-13 30-11 48 2 16-11 28-29 28-11 0-27 7-32-8-6-14 9-20 17-28 21-22 21-30-12-21z m-285-73c-21-29-59-44-82-89 45 23 76 42 88 82 39 10 54 32 31 72-13-22-15-49-37-65z" horiz-adv-x="1000" />
<glyph glyph-name="poland" unicode="&#xe88a;" d="m280 275c-2-1-4-3-6-5 4 0 8 0 11-1 32-13 74-8 92-49 4-9 16-28 27-16 27 28 40 5 63-6 30-14 61-22 79-53 3-5 11-9 16-4 18 21 28 4 37-8 8-10 14-10 27-7 44 11 88 32 132-5 10-9 29-18 49-8-16 28-10 53 16 71 57 37 87 80 36 143-13 16 16 39-4 51-33 21-17 30 5 42 7 3 14 8 18 14 11 21-39 140-61 148-5 2-9 3-13 3-81-11-162 15-243-2-14-3-37 4-34 14 11 35-15 26-29 27-26 3-52-3-76-14-52-25-103-51-161-60-26-4-23-28-22-39 2-21 11-41-9-59-5-4 1-10 5-15 38-47 31-108 45-162z" horiz-adv-x="1000" />
<glyph glyph-name="portugal" unicode="&#xe88b;" d="m472 220c20-8 17-24 17-41 0-47 6-95-20-142 51 10 57 10 103 0 47-10 72 11 68 58-2 29 13 52 35 66 18 12 29 14 4 33-25 19-32 43-2 68 12 11 27 28 6 42-26 17-25 47-47 72 31-3 65-4 63 26-2 39 27 76 12 113-13 33 5 47 24 64 21 19 72 26 12 71-28 20-57 34-73 23-34-24-67 6-97-11-5-3-13 0-12 8 5 35-13 33-35 23-23-11-56-13-43-56 33-105 10-203-50-293-34-50-19-104 35-124z" horiz-adv-x="1000" />
<glyph glyph-name="puerto" unicode="&#xe88c;" d="m809 440c-47 2-87 28-133 30-142 5-285-7-427 4-20 2-29-9-43-26-35-38-31-63 3-94 4-3-2-16-3-25 0-17-12-32-3-51-23-45 15-29 33-28 15 0 32 16 47 6 26-18 50-5 73 3 11 5 21 8 34 9 96 4 192-22 289 5 33 9 61 20 74 51 10 24 26 36 48 45 10 4 31 9 24 19-12 17-5 52-16 52z" horiz-adv-x="1000" />
<glyph glyph-name="qatar" unicode="&#xe88d;" d="m666 560c-27 23-56 44-75 75-10 17-25 14-40 6-62-34-104-83-114-156-4-31-9-64-29-86-47-49-36-101-22-157 14-53 29-107 21-163-7-57 32-98 110-98 31 3 93 7 118 44 61 88 119 185 57 301-21 39-21 81-1 123 21 42 10 80-25 111z" horiz-adv-x="1000" />
<glyph glyph-name="romania" unicode="&#xe88e;" d="m303 289c15-11 27-47 50-43 30 4 34-16 44-30 16-22 31-37 62-37 39 0 79-10 118-14 15-2 30-2 43 9 48 43 98 32 148 8 27-14 49-23 50 22 1 30 18 48 49 57 21 7 25 23 22 40-4 19-19 20-36 16-68-14-83 2-68 72 6 25 6 50-13 69-25 27-45 57-64 89-15 26-33 29-60 10-29-22-68-36-103-26-94 26-168 25-217-71-21-41-44-79-99-84 33-24 42-63 74-87z" horiz-adv-x="1000" />
<glyph glyph-name="russia" unicode="&#xe88f;" d="m280 399c-22 11-37 4-28-25 3-7 4-15 3-22-8-48 25-102 72-116 14 57 69 79 126 53 52-24 109-14 162-10 35 2 51 0 53-39 41 22 40 22 31 67-2 10 7 17 16 20 35 10 59 4 55-47 28 54 75 70 122 84 4 1 9 5 9 9 3 10-7 10-13 14-56 28-122 13-178 41 0 0 0 0 0 0 0-2-1-3-2-4-57-13-102 11-145 44-11 9-23 18-35 26-7 4-17 3-20-4-5-9 4-13 10-17 6-4 15-2 18-13-58-22-116-44-174-67 3 32 25 49 66 65-75-9-87-20-79-64-23-1-45-7-69 5z m429 30c0-1 1-1 1-1 0 1-1 2-1 2 0 0 0-1 0-1z" horiz-adv-x="1000" />
<glyph glyph-name="rwanda" unicode="&#xe890;" d="m843 389c4 46-4 89-46 117-35 23-63 50-65 93-2 19-12 15-21 15-21-1-32-15-45-29-27-33-51-69-90-91-21-12-41-26-50 13-2 11-10 15-24 15-130-8-223-111-213-240 2-29-5-50-31-66-14-8-27-19-40-29-23-19-24-93 0-109 9-6 21-18 35 0 27 34 71 30 91-12 13-26 28-33 54-30 27 3 55 4 82 8 34 6 57 22 61 62 3 27 4 55 12 97 35-46 67-35 104-16 19 10 44 12 68-6 37-27 82-6 113 9 27 14 33 64 18 97-16 34-17 67-13 102z" horiz-adv-x="1000" />
<glyph glyph-name="saint2" unicode="&#xe891;" d="m295 503c17-5 35-12 46-28 19-30 50-42 82-42 55-1 106-9 156-36 34-17 47-41 36-73-7-22 3-35 10-64 9 25 15 36 35 35 17-1 37 13 35 34-1 18-11 35-37 25-2-1-8 7-12 10-34 32-71 58-90 105-12 27-32 54-49 80-33 50-86 72-128 107-53 44-129 35-166-11-13-16-19-39-9-50 30-31 43-78 91-92z m560-313c-1 9-5 18-11 27-18 27-51 48-80 47-22-2-40-7-54-22-5-6-9-12-13-20-17-32-15-64-21-97-6-37 14-59 37-82 22-23 41-10 61 2 8 4 18 5 27 7 48 13 68 42 61 92-2 16-4 31-7 46z" horiz-adv-x="1000" />
<glyph glyph-name="saint3" unicode="&#xe892;" d="m537 556c-41-6-52-38-62-68-21-58-72-100-87-161-4-17-12-40 0-46 44-22 4-49 8-73 1-4-13-10-7-19 25-34 42-77 90-88 29-6 80-41 100-67 3-4 11-5 16-5 5-1 15-2 14 7-7 45 9 75 54 89 6 2 9 15 12 23 33 93 18 193 37 288 10 50-31 93-16 155 0 8-8 19-25 27-15 7-32 22-29 36 10 38-21 27-36 36-7-16-45-12-28-44 5-11-1-17-12-19-20-6-22-21-16-36 7-17-1-33-13-35z" horiz-adv-x="1000" />
<glyph glyph-name="saint4" unicode="&#xe893;" d="m663 500c10 40 36 79 24 117 0 11 1 16 0 20-5 18 16 47-17 52-31 5-62 4-74-36-4-12-13-24-22-34-42-52-31-105 26-140 33-20 55-10 63 21z m-50-87c-33-5-37-46-70-48 7-15 27-5 26-23 9 5 19 8 25 16 13 15 22 33 19 55z m-44-72c0 1 0 1 0 1 0 0-1-1-2-1 1 0 2 0 2 0z m-80-219c-1 0 5-9 12-11 18 4 27 19 32 35 3 9-6 11-15 12-26 1-10-32-29-36z" horiz-adv-x="1000" />
<glyph glyph-name="san1" unicode="&#xe894;" d="m314 441c-2-3-16-2-22 1-36 23-34-4-32-26 2-27 6-52 28-74 25-25 41-58 4-91-16-15-12-34-8-55 5-23 24-46 8-70-23-37 2-45 28-44 34 1 72 5 100 18 38 17 44 2 53-25 12-39 40-50 75-34 22 10 43 13 69 13 17 8 47-19 57 22 5 23 32 47 28 66-10 46-11 80 42 97 3 1 3 14 5 21 8 20 16 41 32 55 38 31 34 69 11 101-51 71 0 141-4 212-1 4 5 11 10 14 22 14 11 33 2 43-12 13-36 16-49 0-17-24-42-34-67-42-100-32-187-83-254-165-4-5-12-11-19-11-34-3-72 14-97-26z" horiz-adv-x="1000" />
<glyph glyph-name="saudi" unicode="&#xe895;" d="m925 262c-71 6-99 57-124 113-19 41-64 102-116 99-47-2-79 19-111 46-55 48-113 82-187 34 24-33 4-70-42-74-13-2-26 8-30-15-3-16-8-27 13-36 10-4 16-18 21-29 32-66 100-113 105-195 0-10 12-23 22-27 22-11 29-30 40-49 16-26 35-52 65-94-7 57 22 47 43 47 21-1 44 0 64-7 16-6 25-5 33 9 18 32 50 41 82 43 46 2 87 19 129 33 37 12 36 47 38 75s-28 25-45 27z" horiz-adv-x="1000" />
<glyph glyph-name="senegal" unicode="&#xe896;" d="m881 201c-28 10-27 23-29 48-3 49-15 98-55 132-16 13-28 29-42 39-29 23-35 71-63 78-36 10-57 32-82 52-12 10-28 10-43 11-47 5-93-24-135-15-51 11-57-22-65-48-19-63-50-116-121-152 58 0 70-39 86-71 14-27 19-59 60-53 30 5 63-15 92 11 8 8 24 16 33 13 43-16 83-40 132-39-36-27-68-14-101 0-13 6-25 19-42 11-45-21-90-40-143-39-43 0-21-39-25-61-3-14-6-33 20-30 39 5 79 7 116 19 83 26 172 27 249 5 66-18 127-19 192-19 0 16-1 30 0 45 2 27-9 55-34 63z" horiz-adv-x="1000" />
<glyph glyph-name="serbia" unicode="&#xe897;" d="m621 39c8-8 20-2 31 0 23 5 47 9 71 10 28 1 38 11 28 40-8 24-10 42 25 53 46 15 49 53 11 83-6 5-13 7-19 12-34 29-35 66-8 100 9 12 34 29 13 45-35 27-10 35 14 47-18 16-38 29-50 17-36-38-66 0-97 6-28 5-38 32-29 60 4 13 2 17-8 21-45 16-79 34-94 90-8 30-49 65-92 74-57 12-103-22-153-39-9-3-16-15-10-30 15-35 14-79 67-96-64 13-27-39-44-54 12-5 27 6 39-5 1-31-36-50-29-81 8-28 48-30 60-59-12-10-30 4-42-13 4-5 9-11 13-17 9-16 44-34-9-42-20-3-10-20 3-34 33-36 82-46 119-74 44-34 56-3 67 27 8 22 9 18 29 10 48-20 62-81 120-85-6-13-11-24-16-35-6-10-21-18-10-31z" horiz-adv-x="1000" />
<glyph glyph-name="seychelles" unicode="&#xe898;" d="m704 81c2-22 13-25 31-12 15 10 9-8 13-13 22-25 27-67 68-72 13-1 32-10 41 6 7 14-4 23-15 30-10 5-7 15-10 23-15 33 0 63 2 94 1 28-7 57 10 83 4 7 9 18-1 18-32 2-43 40-74 42-30 3-40 24-40 52 0 36-5 71-19 104-8 19-25 26-45 23-15-2-19-14-18-27 0-11-2-22 0-32 6-36-9-51-45-51-32 1-51-17-72-42-14-17 0-26 2-25 34 19 50-17 71-27 29-14 69-15 89-44 21-31 57-53 64-99-8-1-16-2-23-2-23 3-31-10-29-29z m-381 328c34 0 26 33 41 50-17 22-26 50-59 51-22 0-40-8-44-32-2-19 44-69 62-69z" horiz-adv-x="1000" />
<glyph glyph-name="sierra" unicode="&#xe899;" d="m228 383c-2-18 6-42 36-26 7 4 18 5 28-6-20-7-24-42-56-20-7 5-23-2-16-12 11-17 14-47 36-50 36-5 37-30 43-55 10-42 46-62 88-50-2-23-19-17-33-18-21-1-45 5-62-18 38-14 76-22 109-44 66-26 138-42 193-92 19-18 27-5 34 9 26 49 68 81 111 113 26 19 54 40 65 70 10 32 12 62 53 77 20 7 33 50 18 68-19 23-30-10-44-22-10-9-22-14-33-5-10 11 2 22 5 32 5 19 34 24 27 49-13 45-52 81-40 133 0 3-6 7-8 11-21 28-40 59-64 84-20 21-29 60-65 59-52-1-106 13-155-19-14-10-30-8-48-1-20 8-50 6-59-12-27-58-61-109-110-152-13-11-20-29-43-24-10 2-29-6-20-13 30-22 12-43 10-66z" horiz-adv-x="1000" />
<glyph glyph-name="singapore" unicode="&#xe89a;" d="m871 491c39-14 79-4 55 45-19 40-61 9-94-3 15-17 24-37 39-42z m-160-40c-1 0-2 0-2 0-8 2-15 3-23 5-3 1-7 2-11 3-4 1-9 3-13 4-5 2-9 4-14 6-3 2-6 3-9 4-7 4-13 9-19 15-52 53-68 57-127 15-14-11-27-21-45-15-45 14-86 3-103-41-19-51-52-94-68-147-11-36 8-39 30-32 20 6 37 12 56-2-11-13-4-20 7-26 11-4 6-30 28-19 12 0 22 5 28 17 8 3 20 3 19 13-1 8-9 14-19 14-7 3-13 6-19 10-1 2-2 3-3 6 0 0 2 2 4 2 51 17 82-26 117-46 38-23 54-44 95 4 53 62 136 67 215 64 9 0 24-9 25 9 0 16-17 7-25 13-3 3-7 6-11 9 2 3 3 6 5 8 12 8 34 10 34 24 0 19-20 9-32 11-3 0-6 8-8 14-1 6-4 11-7 15-2 3-4 5-7 7-1 1-2 2-3 3-8 4-18 5-30 4 0 0 0 0 1 0-1 0-1 1-1 1l0 0 0 0 0 0 0 0c-3 17 22 10 26 20 0 0 0 0 0 0 0 2 0 4-1 6-6 18-26 8-40 11-12 2-23 7-35 9-4 0-7 0-9 0-8-2-10-7-5-18 0 0-1 0-1 0v0z" horiz-adv-x="1000" />
<glyph glyph-name="slovakia" unicode="&#xe89b;" d="m645 451c-42-9-87-14-126-14-31 0-66 25-109 25-45 0-75-11-104-37-26-24-52-45-88-38-33 6-42-16-53-38-13-29 9-47 24-59 60-46 143-45 206-3 6 4 15 6 22 6 36-5 67 22 105 11 12-3 36 7 45 18 38 53 102 35 133 19 56-28 75-3 100 32 8 11 15 24 23 38-20 15-43 10-61 23-36 27-75 25-117 17z" horiz-adv-x="1000" />
<glyph glyph-name="slovenia" unicode="&#xe89c;" d="m744 544c-4-4-8-14-9-13-46 14-86-18-131-14-41 4-82 3-117-26-19-16-44-21-73-17-73 9-150 40-215-25 0-9 0-18 0-27 14 3 29 5 41-7-2-16-28-29-21-31 31-8 15-54 50-57 9 0 24-9 23-25-14-12-40-3-49-27 41-30 84 0 125-3 26-2 53-7 70 23 6 11 14 7 21-1 37-40 89-18 132-30 8-3 24-5 18 19-7 28 2 54 40 56 30 2 47 27 33 47-28 41 7 36 26 43 18 7 38 20 54 21 38 3 50 56 97 37-15 22-27 38-37 54-21 34-55 35-78 3z" horiz-adv-x="1000" />
<glyph glyph-name="somalia" unicode="&#xe89d;" d="m281 13c48 67 101 128 172 170 36 20 64 47 93 74 60 58 93 132 131 203 32 59 72 113 68 187-1 33-14 27-33 20-52-18-99-39-80-109 3-11-8-19-13-28-43-76-119-123-172-190-10-13-25-6-38-7-51-5-92-30-129-64-47-44-29-99-32-151-1-38-8-78 33-105z" horiz-adv-x="1000" />
<glyph glyph-name="somaliland" unicode="&#xe89e;" d="m368 216c93-38 190-69 286-96 40-11 96-26 122 8 52 69 123 135 97 225 0 25-1 37 0 49 4 63 9 80-83 58-57-13-116-12-167-46-9-6-28-4-40 0-36 13-66-1-96-16-76-37-110-30-164 34-11 13-19 28-30 41-5 7-11 15-22 13-11-2-63-94-58-104 38-68 80-136 155-166z" horiz-adv-x="1000" />
<glyph glyph-name="south2" unicode="&#xe89f;" d="m379-19c93 13 180 39 247 109 36 37 73 61 130 47 47-11 72 27 52 70-28 55-37 113-34 174 3 43-9 82-33 117-24 35-52 68-76 104-22 32-44 50-83 23-11-7-27-9-40-8-66 7-116-23-169-58-43-29-35-56-19-91 7-17 22-19 36-25 15-7 19-19 16-34-3-14-15-19-28-18-49 6-49-28-44-59 3-22 12-45 23-64 19-30 18-59-1-86-28-40-61-79-24-131 4-5 2-15 2-21-8-39 10-53 45-49z" horiz-adv-x="1000" />
<glyph glyph-name="south3" unicode="&#xe8a0;" d="m295 275c44-29 73-73 100-114 25-39 54-54 95-44 28 7 48 3 67-21 11-14 28-24 43-36 16 40 45 6 68 11 40 10 84 6 116 45 22 27 55 50 89 7 17 52-39 56-51 89-15 45-46 78-89 99-18 8-19 19-3 29 51 30 58 60 19 105-21 24-29 50-27 80 0 10 7 31-15 24-15-5-51-6-42-23 22-46-18-59-33-84-16-27-38-26-64-15-42 18-88-20-130 8-2 1-10-7-14-11-33-30-68-28-93 6-19 28-46 26-62 7-22-26-35-60-52-91-3-5-1-15 5-15 41 2 48-39 73-56z" horiz-adv-x="1000" />
<glyph glyph-name="south4" unicode="&#xe8a1;" d="m838 353c1 8 12 19-1 24-10 3-25 11-33-3-15-28-29-9-37 3-12 16 2 43 12 42 49-9 26 27 30 44 5 22-11 41-17 61-14 47-65 68-110 47-57-26-91-76-127-122-14-18-30-28-44-21-44 22-77 20-98-30-1-1-2-1-4-3-12-13-29-17-46-12-18 7-2 21-4 32-5 20-10 38-37 54 0-47-1-88 1-129 0-33-19-44-48-48-31-4-52 9-65 37-27-26-26-26-15-52 16-39 31-79 55-115 5-7 9-23 6-25-30-23-5-41 2-62 9-30 53-48 83-41 38 9 73 26 114 23 100-8 181 29 251 103 36 38 52 88 91 120 25 21 36 44 41 73z" horiz-adv-x="1000" />
<glyph glyph-name="spain" unicode="&#xe8a2;" d="m224 521c39 3 74-19 112-9 7 1 39-19 10-40-13-10-16-22-19-39-4-26 16-64-29-77-9-3-1-10 2-14 10-20 9-38 7-61-1-26-7-49-16-72-3-9-3-27 10-27 40 0 48-31 63-57 10-18 27-41 50-18 31 31 66 50 109 39 72-17 94 61 150 74-16 44 76 69 22 122-11 11 2 31 10 42 29 39 41 94 101 105 17 3 31 24 46 36 16 11 14 27 11 42-5 21-21 8-33 8-25 1-51-5-73 15-6 6-23 8-30 4-39-21-71 3-103 15-15 7-28 11-45 15-63 12-127 3-191 10-50 5-99 21-151 18-31-1-34-12-34-37 0-35 32-60 21-94z" horiz-adv-x="1000" />
<glyph glyph-name="sri" unicode="&#xe8a3;" d="m406 666c0 0-1 0-1 1-7 22-30 31-43 50-10 14-34 3-52 1-5 0-11-6-8-13 5-17 22-22 35-23 4-1 7-1 10-2 20-5 37-18 59-14l0 0 0 0z m1-1c0 0 0 1 0 1h0l0 0c0 0-1 0-1 0h0c0 0 0 0 0-1 0 0 0 0 1 0l0 0 0 0z m-65-312c26-98 15-202 51-298 14-36 32-56 67-66 54-16 93 21 138 36 102 34 135 119 104 211-28 84-70 167-124 240-29 39-39 96-94 112l0 0c-1 0-1 0-1 0 0-1-1-2-1-3-38-9-93 6-81-66 3-15-30-23-23-50 9-33-9-61-27-87-7-10-12-18-9-29z" horiz-adv-x="1000" />
<glyph glyph-name="sudan" unicode="&#xe8a4;" d="m779 181c1 15 12 32 18 46 16 39 58 64 61 107 5 61 11 118 86 148-53 19-60 55-59 96 1 35-13 51-52 50-114-2-229-1-343 0-26 0-36-6-35-33 2-17 11-42-23-43-14 0-11-16-11-26 0-31 0-62 0-92 0-10 4-21-7-30-58-48-67-72-40-137 17-41 22-90 56-121 27-24 52-51 78-76 30-29 43-92 108-65 2 2 10-2 11-5 17-29 47-21 72-24 37-4 110 31 112 60 4 43-27 70-64 90-1 0-2 2-9 14 38-5 40 15 41 41z" horiz-adv-x="1000" />
<glyph glyph-name="suriname" unicode="&#xe8a5;" d="m758 487c-11 57 12 91 47 129 35 39 18 79-34 87-87 14-175 35-260-12-5-2-13 0-18 2-36 16-75 14-112 22-14 4-31 9-38-6-16-34-40-70-40-104 0-36-8-42-38-44-34-2-70-5-56-58 3-10-3-25-9-34-38-53-7-94 26-129 14-14 11-49 37-44 41 8 39-22 47-44 32-82 57-170 157-197 19 0 37 0 55 0 1 20 2 39-16 54-11 9-13 18-2 31 9 11 13 18 32 10 27-12 57-8 84 6 23 12 41 13 66-4 50-32 66-23 96 31 24 42 12 95 44 136 9 12-3 30-15 41-36 35-43 79-53 127z" horiz-adv-x="1000" />
<glyph glyph-name="swaziland" unicode="&#xe8a6;" d="m845 169c0 34 1 60 0 86-2 76-36 148-18 227 9 38-20 61-61 58-17-1-30 3-43 10-37 20-74 38-110 59-61 34-69 34-120-13-17-15-34-32-44-52-34-66-80-123-116-187-24-44-9-96-9-145 0-28 26-15 36-25 6-8 7-20 13-29 26-44 43-92 89-125 93-65 196-63 300-63 24 0 23 15 22 31-2 47 4 94 9 142 4 36 14 48 52 26z" horiz-adv-x="1000" />
<glyph glyph-name="sweden1" unicode="&#xe8a7;" d="m790 649c-41 20-86 32-129 45-25 7-14-28-31-32-2 0-4-1-5-1-42 21-78-7-116-14-22-3-53-18-54-28-1-31-23-42-41-48-44-14-45-63-78-85-5-3-10-9-4-14 31-25 7-23-10-19-30 5-56-5-67-29-12-28-4-62 7-91 9-21 7-66-12-81-44-32-47-64-15-110 17-25 43-43 45-80 2-30 66-50 75-27 16 38 44 26 70 33 4 1 9 2 14 2 25 5 52 9 41 51h0c0 0 0 0 1 0 2-2 4-4 7-6 1 2 2 4 4 6-4 0-8 0-11 0-1 0-1 0-1 1 0 0 0-1 0-1l0 0 0 1c0-1 0-1 0-2-2-1-4-2-6-4 0 0 0-1 0-1l0 1c0 0 0 0 0 0-6 45 6 78 57 86 26 4 49 26 50 44 3 23-29 31-50 36-35 8-35 27-24 54 8 21 20 38 39 51 31 21 65 33 100 43 25 7 56 20 55 43 0 26 14 31 27 43 31 27 70 8 103 18 5 16-16 20-10 41 5 23-4 61-31 74z m-204-112c-23 2-41-3-45-28-1-5 9-18 10-18 19 9 33 21 35 46z" horiz-adv-x="1000" />
<glyph glyph-name="switzerland" unicode="&#xe8a8;" d="m846 402c-24-29-43-20-61 7-4 7-10 10-18 12-43 8-42 29-21 61 10 14 23 37 7 50-24 19-51 37-82 44-18-18-36-16-56-3-24 17-45 20-41-20 1-9-2-17-8-13-27 16-51-14-79-4-8 3-35 14-48-7-14-22-30-26-54-12-21 11-42-5-32-23 11-22-1-30-11-37-45-33-60-90-103-125-4-4-6-11-8-17-11-23 13-54-18-74-5-4 8-16 18-12 12 5 22 11 26 28 7 28 36 19 56 25 17 5 19-11 21-23 12-73 35-90 103-72 7 2 15 4 22 2 43-15 65 20 71 45 6 29 22 40 37 56 14-12 1-28 10-40 22-29 62-43 70-84 1-6 18-4 16 3-9 41 27 64 36 97 2 11-9 28 6 33 17 5 18-13 22-23 5-12 16-19 26-14 28 15 48 3 70-16-2 17 8 33-7 47-12 10-3 19 4 27 8 10 14 5 22-2 9-7 33-9 30-2-13 29 6 54 1 80-3 15-15 21-27 6z m-177 183c-1 0-3-1-4-2 2-2 4-3 6-5 2 2 2 5-2 7z m2-7c0-1 0-1-1-2l0 0c0 0 1 0 1 0 0 1 0 1 1 1-1 0-1 0-1 1z" horiz-adv-x="1000" />
<glyph glyph-name="syria" unicode="&#xe8a9;" d="m283 334c-1-21-1-44 33-41 17 1 25-16 31-28 8-15-5-21-16-28-38-25-63-57-48-105-3-7-6-12-7-18-1-7 4-10 8-15 33-35 80-43 124-20 114 59 226 121 342 175 48 22 76 46 70 101-1 3 0 6 0 9 7 30 68 133 92 155 11 10 28 21 17 38-11 15-25-1-37-4-18-4-37-12-54-9-54 7-102-9-151-28-40-15-85-21-125-3-29 12-52 12-79 2-32-12-63-21-97-3-21 11-35-1-36-25-2-37-21-58-58-63-23-4-24-25-17-37 11-18 9-34 8-53z" horiz-adv-x="1000" />
<glyph glyph-name="taiwan" unicode="&#xe8aa;" d="m686 319c8 37 6 86 28 107 51 46 3 121 58 160 0 0-4 8-7 11-20 26-57 25-81 58-22-48-81-34-103-72-23-40-57-71-81-109-29-45-67-88-82-138-18-57-32-120 6-182 17-27 27-57 59-70 24-11 32-32 36-56 2-17-6-42 23-38 21 2 21 24 19 41-3 37 5 75 30 98 55 54 79 119 95 190z" horiz-adv-x="1000" />
<glyph glyph-name="tajikistan" unicode="&#xe8ab;" d="m318 431c-6 1-15 4-15-9 2-43-24-50-59-45-12 1-26 3-36-1-16-6-32-24-9-35 31-15 46-35 59-68 9-23 6-30-7-43-9-9-20-18-22-28-3-14-14-30 1-43 13-13 27-6 42 1 23 11 46 32 74 7 6-5 17-2 18 7 0 37 25 29 48 28 13-1 26 0 25 17-1 23 18 32 30 44 20 22 42 13 55-13 13-23 17-44 13-72-8-42 19-60 55-37 61 41 129 46 198 46 56 0 56-2 41 53-1 3-3 6-3 8 0 49-29 57-69 47-20-6-23 5-24 21-1 20-5 51-24 49-61-5-118-7-180 6-40 9-93 14-140 6-11-2-30-11-35 10-4 19 17 20 25 28 14 13 36 13 52 3 24-15 41-6 62 10-34 9-35 10-20 36 8 14-3 20-9 27-6 6-118-26-117-34 4-25-10-27-29-26z" horiz-adv-x="1000" />
<glyph glyph-name="tanzania" unicode="&#xe8ac;" d="m882 74c-44 24-44 72-51 111-8 42 16 89-28 125-14 11 3 31 6 47 2 16 25 38 4 50-70 40-105 120-185 151-70 28-129 86-201 64-41 0-68 1-96 0-10 0-29-8-26-12 30-34 17-64-6-93-1-2 1-7 3-8 29-15 5-27-1-42-13-31-61-41-62-64-2-38-8-87 22-118 25-25 38-54 53-84 5-11 8-25 19-30 50-23 98-56 151-60 52-4 61-28 62-69 2-41 21-59 63-48 5 1 12 4 17 3 85-28 159 16 235 38 8 2 13 8 20 13 12 8 18 16 1 26z" horiz-adv-x="1000" />
<glyph glyph-name="thailand" unicode="&#xe8ad;" d="m721 373c16 1 37-11 43 11 6 22 16 48-9 67-17 11-19 27-22 47-5 29-33 64-54 55-33-15-70 2-98-24-3 3-7 6-10 9 22 45-14 73-35 101-14 18-47 9-71 7-21-1-54 14-63-9-9-25-9-57 2-85 8-18 15-36 29-51 24-24 30-52 11-81-8-13-11-25-1-33 28-23 30-57 42-87 12-32 6-52-13-79-23-35-37-76-33-121 1-5-4-11 5-15 43-21 49-22 58-41 15-30 64-19 68-59 12 9 35-3 39 17 5 22-13 37-32 41-26 4-34 17-40 41-4 22-13 53-28 60-41 18-23 42-16 66 10 33 32 63 29 100-1 12 0 21 16 22 16 1 22-5 19-21-2-8 1-18 11-16 28 6 47-16 70-23 14 25-26 42-3 72 26 33 56 26 86 29z" horiz-adv-x="1000" />
<glyph glyph-name="togo" unicode="&#xe8ae;" d="m614-26c27 7 55 8 70 27 10 14-13 28-18 43-4 13-6 28-4 41 9 72-2 144 4 215 5 51-32 89-31 135 2 39-12 62-46 80-16 8-41 17-31 43 18 46 12 69-43 61-7-1-16 2-22 6-49 25-45-15-50-41-5-19 14-27 25-35 29-20 32-47 30-80-1-20-40-55 17-61 1 0 2-17 1-26-3-24-18-63-8-70 44-32 26-75 17-107-11-42 19-80-4-123-13-25 67-108 93-108z" horiz-adv-x="1000" />
<glyph glyph-name="tonga" unicode="&#xe8af;" d="m630 444c-31-11-33-51-27-56 40-30-3-37-12-53-2 3-4 5-6 8 3 23-30 43-7 70 5 6-10 13-19 9-30-11-55 2-82 13-43 16-83 48-137 18-24-13-66-9-89 17-20 23-1 49 12 71 1 2-1 6-4 17-19-26-50-37-51-69-1-77 85-165 165-177 42-7 90-9 114-54 17-32 42-51 74-64 23-10 45-18 68 2 24 19 29 42 22 69-3 12-11 22 0 34 27 26 38 70 89 72 16 0 46 13 21 43-25 30-94 43-131 30z" horiz-adv-x="1000" />
<glyph glyph-name="trinidad" unicode="&#xe8b0;" d="m182 147c5-8 17-4 25 2 24 18 54 18 79 13 84-17 166 4 249-1 33-2 68 17 82 36 16 21 16 65 6 94-24 68-38 132 16 194 8 8 25 19 18 34-9 16-28 7-43 9-7 1-14-3-22-5-34-6-68-17-102-17-74 0-140-22-219-53 25-7 37-13 49-14 64-4 84-30 67-93-4-16-6-31 1-48 16-41 0-62-43-54-19 3-33-3-47-12-33-21-67-41-101-61-10-6-21-12-15-24z m637 562c-16-4-34-8-47-18-27-18-52-41-77-61 3-18 19-21 24-18 40 22 88 26 124 57 12 11 13 27 8 38-7 16-22 4-32 2z" horiz-adv-x="1000" />
<glyph glyph-name="tunisia" unicode="&#xe8b1;" d="m468 361c-37-25-48-60-18-97 24-30 41-70 69-90 38-28 50-62 59-103 7-32 15-65 22-98 56 19 70 40 59 95-3 14-3 24 8 32 20 18 40 42 64 48 52 15 39 55 33 83-4 20-20 45-54 50-19 3-52 8-58 40-6 30 23 32 36 47 55 59 63 78 11 125-16 14-22 33-1 51 10 7 17 17 24 27 7 9 21 18 10 31-12 14-21-6-32-6-11 0-22-33-31-1-12 39-40 42-71 35-48-11-101-54-100-82 2-33-1-66 4-100 4-32 0-64-34-87z" horiz-adv-x="1000" />
<glyph glyph-name="turkey" unicode="&#xe8b2;" d="m879 372c-1 0 0 3 0 4-4 48-50 55-86 40-63-27-123-21-182 7-53 26-104 27-156-4-36-21-93-15-126 12-29 23-52 16-62-19-14-44 7-94 20-147 15-59 69-38 95-66 4-4 25 1 29 7 19 34 41 13 55 1 25-22 50-19 71-2 37 30 54 9 74-23 21 44 57 43 97 37 13-2 27 1 40 5 47 13 93 22 142 13 21-4 29 3 21 12-32 36 23 94-32 123z" horiz-adv-x="1000" />
<glyph glyph-name="turkmenistan" unicode="&#xe8b3;" d="m210 329c43-9 29-42 30-69 0-14-8-34 12-39 16-4 27 5 39 18 27 29 72 36 100 24 50-21 110-24 147-73 3-4 10-7 15-7 25 3 33-7 31-31-3-27 17-29 37-37 21-9 39-10 53 8 25 31 82 31 85 85 0 1 5 4 7 4 20-6 30 26 54 11 15-10 13 10 17 19 9 24-14 24-25 29-75 33-153 62-187 148-8 21-25 21-45 19-23-1-47-1-44 34 0 8-8 22-13 23-33 4-66 51-102-2-10-14-40-13-34-43 2-8-7-9-12-9-29 2-61-9-80 28-11 23-34 36-62 27-59-13-64-20-39-63 5 25 7 51 40 50 15-11 12-34 30-45 26-15 7-20-7-28-14-8-24 6-35 3-9-3-18 17-26 1-6-12-11-25-7-40 4-16 43-16 21-45z" horiz-adv-x="1000" />
<glyph glyph-name="uganda" unicode="&#xe8b4;" d="m422 355c-12-9-22-21-32-32-45-42-97-75-114-144-13-55-21-110-27-166-1-10-6-31 9-30 19 1 39-24 57 1 29 40 71 41 114 41 92 0 184 2 276-1 37-1 55 5 52 48-2 41-7 85 20 120 23 30 40 63 68 90 23 23 41 53 35 92-16 98-69 177-118 261-34-30-59-77-113-41-4 3-14-5-21-7-29-8-60-7-85-28-22 34-58 12-87 21-33 10-47-7-59-38-11-28 2-55-7-82-7-20-10-33 20-42 31-9 48-33 12-63z" horiz-adv-x="1000" />
<glyph glyph-name="ukraine" unicode="&#xe8b5;" d="m879 429c-36 12-73 35-109 33-48-2-68 36-91 58-17 16-15 49-52 40-28-7-65-4-80-21-20-22-35-19-57-17-34 3-68 7-103 16-26 6-54 8-81-3-18-7-35-13-17-37 11-15 9-27-10-37-10-5-19-16-26-25-30-42-28-83 5-86 44-3 90-22 135 11 31 22 74 1 92-34 8-14 18-27 28-44-45 5-44-31-59-54 45-14 65 15 87 40 10 11 22 24 34 12 18-19 41-16 63-20 0-4-2-7-5-9-7-7-21-8-21-21 10-9 32-7 33-25 0-3-1-6-1-9-2-9 11-15 15-12 31 19 68 25 98 49-6 0-12 2-18 1-17-2-32-1-37 18-6 18 17 25 22 26 52 10 92 44 139 61 36 14 5 49 24 68 5 4 5 17-8 21z" horiz-adv-x="1000" />
<glyph glyph-name="united" unicode="&#xe8b6;" d="m856 341c-23-12-47-24-77-38 4 32-19 36-40 45-73 32-149 5-222 11-7 1-11-3-14-10-16-40 11-103 54-118 38-13 84-7 114-43 4-5 9 0 14 4 44 30 73 26 105-14 16 18-17 38 5 52 35 23 41 70 78 91 11 6 7 15 1 23-7 9-11 1-18-3z m-534 98c23 23 44 20 69 20 20-12 40-26 54-45 7-11 16-9 23-3 9 7-2 12-5 18-13 27-42 29-64 41 0 23-1 46-1 69 0 13 2 27-14 30-32 5-64 14-95 11-23-3-62-5-51-50-39-12 10-28-2-43-7-9-19-23 5-30 27-9 56-42 81-18z" horiz-adv-x="1000" />
<glyph glyph-name="united1" unicode="&#xe8b7;" d="m754 549c-50-58-121-96-161-166-15-25-40-63-81-24-2 3-19-2-20-6-8-29-27-18-45-14-52 10-103 12-153-13-24-12-54-17-65 23-4 15-15 19-30 13 0-12 0-25 0-37 37-46 75-92 112-139 12-16 26-25 46-27 103-13 206-26 309-41 15-2 29 0 29 13 2 54 34 98 45 148 7 31 13 46 46 44 13 0 30 15 18 21-38 19-20 49-24 75-2 12-4 27 10 33 16 6 14-11 19-19 6-9 13-5 19 0 18 16 32 30 34 60 4 51-38 84-40 132-16-33-46-51-68-76z" horiz-adv-x="1000" />
<glyph glyph-name="united2" unicode="&#xe8b8;" d="m392 511c1 0 2-1 2-1 1-1 2-3 1-4 0 0 0-1 0-1 0-4-4-9 0-12 20-16 43-28 19-61-10-14 19-5 20-11 0-24-34-14-27-34 8-20 18 2 27 5 1 0 4-5 4-7-7-45 24-11 38-17-24-36-12-46 28-41 41 6 45-37 50-58 9-33-23-29-46-26-7 1-20-1-16-6 7-10-19-24 4-28 24-5 17-18 6-29-19-21-15-38 10-47 8-3 16-7 36-15-63 2-69-53-113-69 19-8 30-2 41 0 40 6 75 30 118 29 47-1 96 4 142 19 9 2 22 8 22 20 0 15-23 1-26 16 4 4 6 8 10 10 18 13 35 29 30 53-6 25-29 25-49 23-14-1-12 4-14 14-11 63-78 92-95 153-2 6-11 12-18 15-27 9-27 23-11 44 9 10 13 24 21 35 16 23 11 34-18 33-22-1-44 0-69 0 6 23 22 27 32 38 8 8 15 27-5 24-34-6-79 9-95-39-2-4-3-7-5-11-10-23-25-32-51-15l0 0h0 0c-1 1-1 1-2 2 0 0-1 0-1 0 0 0 0 0 0-1l0 0z m-60-202c-1-9 6-16 12-17 26-4 53-9 80-8 13 0 24 11 25 31-11 14-13 42-42 43-23 2-74-32-75-49z m85 257c-29-8-45-23-43-53-22-3-11-13-6-20 2 5 7 10 11 16 4 1 9 2 13 3 8 17 33 26 25 54z m-50-82c4 2 3 5 1 9-2-3-2-6-1-9z" horiz-adv-x="1000" />
<glyph glyph-name="uruguay" unicode="&#xe8b9;" d="m784 424c-6 24-26 38-49 51-54 28-97 73-152 102-22 11-32 45-66 20-6-4-15-2-18 8-14 40-50 61-77 90-22 25-46 41-71 2-7-11-16-4-24 0-37 20-49-5-56-32-14-56-19-114-37-170-13-37-14-75-5-113 7-31 3-56-18-81-25-30-26-92-5-115 32-37 61-81 123-66 23 6 43-12 63-24 40-24 81-40 131-25 23 7 50 6 70-16 15 0 30 0 46 0 20 24 51 31 78 44 67 32 93 79 83 151-2 14 1 27 1 41 0 34 48 47 43 70-6 25-51 28-60 63z" horiz-adv-x="1000" />
<glyph glyph-name="uzbekistan" unicode="&#xe8ba;" d="m224 324c10 2 22-8 27 13 10 37 62 58 89 32 27-25 45-57 88-53 3 0 7-6 8-10 13-50 58-66 94-94 28-22 75-16 88-62 1-6 32-25 51 7 22 37 9 60-34 90 52-12 67 15 86 38 16 19 24 16 40-2 6-7 15-25 31-15 22 13 51 12 71 35-20 11-39 27-59 29-9 1-24-11-33 3-13 19 20 19 19 39-37-10-65-28-91-52-7-6-18-17-20-16-32 25-88 24-86 88 1 16-23 45-58 43-49-3-97-13-141 37-40 45-103 63-168 53-14-2-23-2-23-20 1-55 1-110 1-166 0-15 8-19 20-17z" horiz-adv-x="1000" />
<glyph glyph-name="vanuatu" unicode="&#xe8bb;" d="m278 650c2-9 1-19 1-28 12-19 14-41 19-63 6-34 5-79 63-67 7 2 16-6 24-9-7-62 35-101 69-142 16-20 41-10 58 4 18 16-8 24-11 36 29-1 58 1 46-46-7-31 8-50 43-46 5-4 11-9 16-13-50-20-2-46-5-69-63-34-65-59-10-97 1-1 1-3 1-4 6 0 13 0 19 0 39-9 51 6 47 46-4 33-1 67-1 101 0 9 0 19 0 28-36 29-60 63-59 112 0 13-17 21-13 41 12 67-11 131-22 196-2 10-10 17-20 15-11-2-14-12-11-22 11-28 5-45-28-51-14-2-29-12-33-29-1-8 3-16 11-19 16-6 32-4 46 10 4 5 7 14 17 10 0-17-4-35 1-50 12-39 16-71-35-85-5-1-8-16-11-26-28 34-56 67-84 101 10 15 13 31 6 48-10 25-20 51-29 76-5 12 1 30-20 31-19 1-18-17-30-34 5 37-23 54-27 82-32 7-44-6-38-37z" horiz-adv-x="1000" />
<glyph glyph-name="vatican" unicode="&#xe8bc;" d="m815 391c1 26-3 53 2 79 7 45-13 64-54 69-39 6-71 19-71 67 0 22-15 18-32 15-34-7-58-49-88-40-49 15-84-47-131-17-1 1-4 0-4-1-22-44-43-90-91-114 15-73-58-103-78-159-12-33-57-22-77-49 10-12 20-25 36-24 33 3 57-25 59-42 8-54 40-11 57-19 8 24 25 9 38 10 41 5 73-25 111-30 51-7 105 6 157-18-2 86 9 100 71 100 18 0 27-11 39-19 33-22 67-13 84 22 17 33 18 69-7 95-21 24-23 48-21 75z" horiz-adv-x="1000" />
<glyph glyph-name="venezuela" unicode="&#xe8bd;" d="m815 494c-9-2-27-8-21 10 13 41-20 39-41 49-16 8-37 4-48 26 11 5 22 10 33 15-31 17-72-17-98 22-1 2-11 1-14-10-10-38-37-52-69-31-29 19-56 17-87 14-13-1-27-8-39 12-21 39-63 44-104 28-19-7-46-33-62-12-23 30-33 5-44-5-25-22-22-58-37-87-7-13 25-2 26-22 1-13 14-25 15-37 3-57 24-59 70-55 19 1 40 1 47-10 26-41 63-35 101-30 15 2 31-1 18-16-39-49 26-100-8-147 0 0 4-4 7-5 22-15 25-41 34-63 13-36 52-51 83-30 33 22 67 42 97 75-49 5-40 43-47 73 26 5 60-15 65-10 25 26 61 21 88 38 24 14 36 27 11 52-23 24-25 47 11 63 7 3 27 8 14 20-24 22-1 26 10 36 7 7 21 11 16 24-5 11-15 15-27 13z" horiz-adv-x="1000" />
<glyph glyph-name="vietnam" unicode="&#xe8be;" d="m349 598c12-22 30-40 40-64 5-12 22-12 37-8 27 10 22-22 36-31 7-5-2-13-10-15-44-10-25-24-2-39 51-34 81-87 119-132 29-34 1-82 13-123 6-23-4-40-29-47-40-11-57-57-97-70-2 0-5-9-5-9 35-19-1-54 19-78 5 2 10 4 15 7 46 33 84 78 138 100 16 6 31 16 35 34 16 73 10 142-44 196-31 31-61 61-89 95-25 31-20 52 4 79 22 25 45 47 77 68-47 14-61 21-57 38 4 24-5 33-25 28-21-5-29 31-48 14-32-30-69-26-107-23-15 1-23-15-20-20z" horiz-adv-x="1000" />
<glyph glyph-name="yemen" unicode="&#xe8bf;" d="m252 160c2-17 20-20 41-21 4 1 13 5 21 5 38 0 59 39 95 40 32 1 59 19 87 23 53 7 86 56 138 59 70 6 108 58 154 100 8 7 3 17-1 25-7 14-15 27-21 41-35 77-35 76-118 65-69-10-137-21-170-95-4-9-13-14-27-8-62 29-131 14-195 27-5 0-16-11-16-14 6-27-16-44-21-68-11-64 24-119 33-179z m621-23c-20 13-41 15-63 5-5-2-2-11 3-14 22-15 41-8 60 9z" horiz-adv-x="1000" />
<glyph glyph-name="zambia" unicode="&#xe8c0;" d="m234 163c1-75 52-120 127-114 20 2 38-4 57-14 58-30 102-19 140 31 24 32 72 37 87 80 1 3 7 5 11 6 21 9 69-14 53 43 0 1 21 10 32 14 42 13 84 26 131 42-22 12-27 24-17 43 18 34 26 72 23 112-1 7 0 15 2 22 15 46 5 73-38 96-27 15-57 25-80 43-37 27-74 15-112 10-29-5-50-42-45-72 4-29 5-58-6-86-9-22-2-40 18-57 18-15 35-25 61-8-15-18 16-41-13-56-34-18-46 12-56 29-19 31-68 22-78 63-2 5-9-2-14-5-35-21-65-10-90 17-7 8-13 15-21 10-26-14-34 13-58 21 0-10 0-15 0-21-2-91-2-92-89-97-21-2-26-8-26-28 1-41 0-83 1-124z" horiz-adv-x="1000" />
</font>
</defs>
</svg>
