<?xml version="1.0" standalone="no"?>
<!DOCTYPE svg PUBLIC "-//W3C//DTD SVG 1.1//EN" "http://www.w3.org/Graphics/SVG/1.1/DTD/svg11.dtd" >
<svg xmlns="http://www.w3.org/2000/svg">
<metadata>
This is a custom SVG font generated by IcoMoon.
<iconset grid="48"></iconset>
</metadata>
<defs>
<font id="zm" horiz-adv-x="1536" >
<font-face units-per-em="1536" ascent="1472" descent="-64" />
<missing-glyph horiz-adv-x="1536" />
<glyph class="hidden" unicode="&#xf000;" d="M0,1472L 1536 -64L0 -64 z" horiz-adv-x="0" />
<glyph unicode="&#xe000;" d="M0,64.001c0-70.719, 57.279-128.001, 128.001-128.001l 1280.001,0 c 70.719,0, 128.001,57.279, 128.001,128.001L 1536,1343.999 c0,70.719-57.279,128.001-128.001,128.001L 128.001,1472 
	C 57.279,1472,0,1414.721,0,1343.999L0,64.001 z M 800.001,128L 800.001,640.001 l-128.001,0 l0,192 l 128.001,0 C 800.001,1161.92, 814.047,1184, 1215.999,1184l0-192 c-211.839,0-192-11.841-192-159.999l 192,0 l0-192 l-192,0 l0-512.001 L 800.001,128 z"  />
<glyph unicode="&#xe001;" d="M0,64.001c0-70.719, 57.279-128.001, 128.001-128.001l 1280.001,0 c 70.719,0, 128.001,57.279, 128.001,128.001L 1536,1343.999 c0,70.719-57.279,128.001-128.001,128.001L 128.001,1472 
	C 57.279,1472,0,1414.721,0,1343.999L0,64.001 z M 992.001,671.999L 672,671.999 l0-96 c0-35.199, 28.8-63.999, 63.999-63.999l 255.999,0 c 70.719,0, 128.001-57.279, 128.001-128.001s-57.279-128.001-128.001-128.001L 672,256.001 c-141.441,0-255.999,114.561-255.999,255.999L 416.001,1055.999 c0,70.719, 57.279,128.001, 128.001,128.001
	s 128.001-57.279, 128.001-128.001l0-128.001 l 320.001,0 c 70.719,0, 128.001-57.279, 128.001-128.001S 1062.72,671.999, 992.001,671.999z"  />
<glyph unicode="&#xe002;" d="M0,64.001c0-70.719, 57.279-128.001, 128.001-128.001l 1280.001,0 c 70.719,0, 128.001,57.279, 128.001,128.001L 1536,1343.999 c0,70.719-57.279,128.001-128.001,128.001L 128.001,1472 
	C 57.279,1472,0,1414.721,0,1343.999L0,64.001 z M 288,704c0,105.921, 86.079,192, 192,192c 44.16,0, 84.801-15.039, 117.12-39.681l 267.489,121.281C 864,982.4, 864,987.2, 864,992c0,105.921, 86.049,192, 192,192
	s 192-86.079, 192-192s-86.049-192-192-192c-49.281,0-94.401,18.561-128.319,49.281l-257.919-117.12C 671.361,722.879, 672,713.6, 672,704s-0.639-18.879-2.241-28.161l 257.919-116.799
	C 961.599,589.439, 1006.719,608, 1056,608c 105.951,0, 192-86.049, 192-192s-86.049-192-192-192s-192,86.049-192,192c0,4.8,0,9.6, 0.639,14.4l-267.489,121.599
	C 564.801,527.039, 524.16,512, 480,512C 374.079,512, 288,598.049, 288,704z"  />
<glyph unicode="&#xe003;" d="M0,64.001c0-70.719, 57.279-128.001, 128.001-128.001l 1280.001,0 c 70.719,0, 128.001,57.279, 128.001,128.001L 1536,1343.999 c0,70.719-57.279,128.001-128.001,128.001L 128.001,1472 
	C 57.279,1472,0,1414.721,0,1343.999L0,64.001 z M 1248,335.999c0-44.16-35.841-80.001-80.001-80.001S 1088.001,291.839, 1088.001,335.999C 1088.001,698.24, 794.208,992, 432,992c-44.16,0-80.001,35.841-80.001,80.001
	s 35.841,80.001, 80.001,80.001c 237.441,0, 432.321-81.921, 585.279-234.879C 1174.047,760.319, 1248,565.76, 1248,335.999z M 960,335.999c0-44.16-35.841-80.001-80.001-80.001S 800.001,291.839, 800.001,335.999
	C 800.001,539.201, 635.199,704, 432,704c-44.16,0-80.001,35.841-80.001,80.001s 35.841,80.001, 80.001,80.001C 723.519,863.999, 960,627.488, 960,335.999z M 351.999,400.001
	c0,79.68, 64.32,144, 144,144s 144-64.32, 144-144S 575.679,256.001, 495.999,256.001S 351.999,320.321, 351.999,400.001z"  />
<glyph unicode="&#xe004;" d="M 1408.287,896l 95.679,0 c 8.319,0, 16.641,3.201, 23.040,9.279c 12.48,12.48, 12.48,32.961,0,45.441
	c-8.673,8.319-115.839,137.28-115.839,137.28s 107.199,128.961, 115.839,137.28c 12.48,12.48, 12.48,32.961,0,45.441C 1520.607,1276.799, 1512.288,1280, 1503.969,1280l-153.951,0 
	c-70.047,115.2-197.121,192-341.76,192c-220.8,0-399.999-179.199-399.999-399.999c0-132.48-107.52-240-240-240l-0.96,0 L 63.648,832.001 c-35.232,0-63.999-28.8-63.999-63.999l 0.321-8.64
	c 28.479-278.4, 223.329-508.8, 480.321-594.879l0-148.479 c0-44.16, 35.841-80.001, 80.001-80.001s 80.001,35.841, 80.001,80.001l0,114.879 c 21.12-1.92, 42.561-2.88, 63.999-2.88
	s 42.879,0.96, 63.999,2.88l0-114.879 c0-44.16, 35.841-80.001, 80.001-80.001s 80.001,35.841, 80.001,80.001l0,148.479 c 279.039,93.471, 480,357.12, 480,667.521L 1408.287,896 z M 1024.287,1199.999
	c0,44.16, 35.841,80.001, 80.001,80.001s 80.001-35.841, 80.001-80.001s-35.841-80.001-80.001-80.001S 1024.287,1155.839, 1024.287,1199.999z M 775.968,727.679
	c 45.12-97.953, 27.489-217.632-53.121-298.239c-79.359-79.68-197.121-97.953-294.081-54.72l-10.239,5.439c-20.481,10.881-34.209,32.319-34.209,56.961
	c0,18.879, 8.001,35.841, 20.799,47.679c 6.369,5.76, 264.639,264.321, 264.639,264.321c 25.281,25.281, 66.24,25.281, 91.2,0c 3.84-3.84, 7.359-8.001, 9.951-12.48
	L 775.968,727.679z"  />
<glyph unicode="&#xe005;" d="M0,416c0-70.719, 57.279-128.001, 128.001-128.001l 192,0 l0-197.439 c0-35.52, 28.8-63.999, 63.999-63.999
	c 17.952,0, 34.209,7.359, 45.759,19.2L 672,287.999l 704.001,0 c 70.719,0, 128.001,57.279, 128.001,128.001L 1503.999,1216.001 c0,70.719-57.279,128.001-128.001,128.001L 128.001,1343.999 C 57.279,1343.999,0,1286.72,0,1216.001L0,416 z M 384,784.001
	c0,44.16, 35.841,80.001, 80.001,80.001s 80.001-35.841, 80.001-80.001S 508.161,704, 464.001,704S 384,739.841, 384,784.001z M 672,784.001c0,44.16, 35.841,80.001, 80.001,80.001s 80.001-35.841, 80.001-80.001
	S 796.161,704, 752.001,704S 672,739.841, 672,784.001z M 960,784.001c0,44.16, 35.841,80.001, 80.001,80.001s 80.001-35.841, 80.001-80.001S 1084.161,704, 1040.001,704S 960,739.841, 960,784.001z"  />
<glyph unicode="&#xe006;" d="M0,256.001c0-70.719, 57.279-128.001, 128.001-128.001l 1280.001,0 c 70.719,0, 128.001,57.279, 128.001,128.001L 1536,1120.001 c0,70.719-57.279,128.001-128.001,128.001L 128.001,1247.999 
	c-70.719,0-128.001-57.279-128.001-128.001L0,256.001 z M 471.039,687.041l-292.8,294.72c-24.288,24.321-24.288,63.681,0,87.999c 24.351,24.321, 63.711,24.321, 87.999,0L 733.44,601.952
	c 18.879-18.561, 49.953-18.561, 68.511,0L 1269.759,1069.76c 24.321,24.321, 63.681,24.321, 87.999,0c 24.321-24.321, 24.321-63.681,0-87.999l-293.121-294.72l 293.121-292.767
	c 24.321-24.321, 24.321-63.681,0-87.999s-63.681-24.321-87.999,0l-292.8,292.479c0,0-91.488-93.12-108.129-109.761C 842.88,463.679, 807.039,448.001, 768,448.001
	c-39.681,0-75.519,15.999-101.439,41.952c-16.959,16.641-107.841,108.768-107.841,108.768l-292.512-292.479c-24.288-24.321-63.648-24.321-87.999,0
	c-24.288,24.321-24.288,63.681,0,87.999L 471.039,687.041z"  />
<glyph unicode="&#xe007;" d="M 1536,800.321c0,44.799-18.561,85.44-48.321,114.561L 881.601,1424.96c-62.721,62.721-164.481,62.721-227.199,0
	L 48.321,914.879C 18.561,885.761,0,845.12,0,800.321L0,64.001 c0-70.719, 57.279-128.001, 128.001-128.001l 1280.001,0 c 70.719,0, 128.001,57.279, 128.001,128.001L 1536,800.321 z M 326.4,928.001l 883.2,0 c 39.039,0, 70.401-31.359, 70.401-70.401
	L 1280.001,736.001 c-0.321-15.36-6.399-30.399-18.24-42.24l-197.121-198.72l 293.121-292.767c 24.321-24.321, 24.321-63.681,0-87.999s-63.681-24.321-87.999,0L 968.001,416L 567.36,416 l-301.119-301.761
	c-24.321-24.321-63.681-24.321-87.999,0c-24.321,24.321-24.321,63.681,0,87.999l 292.8,292.767l-196.8,198.72c-12.801,12.801-18.879,29.439-18.24,46.401L 255.999,857.6 
	C 255.999,896.639, 287.361,928.001, 326.4,928.001z"  />
<glyph unicode="&#xe008;" d="M 768,1472C 494.4,1472, 220.161,1423.040, 120.639,1325.441c-82.56-80.961-110.079-224.001-119.361-314.559
	c0,0-1.281-8.961-1.281-12.801c0-35.52, 28.8-63.999, 63.999-63.999c 4.161,0, 158.079,12.48, 250.881,20.16c 2.241,0.321, 4.479,0.639, 6.72,1.281c 34.56,0.96, 62.4,29.121, 62.4,63.999
	l 0.321,126.081C 384.321,1184.639, 416.001,1216.001, 455.040,1216.001l 625.887,0 C 1119.999,1216.001, 1151.679,1184.639, 1151.679,1145.6L 1152,1019.519c0-34.881, 27.84-63.039, 62.4-63.999
	c 2.208-0.639, 4.479-0.96, 6.72-1.281c 92.799-7.68, 246.72-20.16, 250.881-20.16c 35.199,0, 63.999,28.479, 63.999,63.999c0,3.84-1.281,12.801-1.281,12.801
	c-9.279,90.561-36.768,233.601-119.328,314.559C 1315.839,1423.040, 1041.6,1472, 768,1472z M 768,640.001c-70.719,0-128.001-57.279-128.001-128.001s 57.279-128.001, 128.001-128.001s 128.001,57.279, 128.001,128.001S 838.719,640.001, 768,640.001z
	 M 672,928.001l0,80.001 c0,44.16-35.841,80.001-80.001,80.001S 512.001,1052.159, 512.001,1007.999L 512.001,928.001 L 80.319,466.88C 50.559,437.759, 32.001,397.121, 32.001,352.319L 32.001,224 c0-70.719, 57.279-128.001, 128.001-128.001l 32.001,0 l0-80.001 
	C 192-28.159, 227.841-64, 272.001-64s 80.001,35.841, 80.001,80.001L 351.999,95.999 l 831.999,0 l0-80.001 c0-44.16, 35.841-80.001, 80.001-80.001s 80.001,35.841, 80.001,80.001L 1344,95.999 l 32.001,0 c 70.719,0, 128.001,57.279, 128.001,128.001l0,128.319 
	c0,44.799-18.561,85.44-48.321,114.561L 1023.999,928.001l0,80.001 c0,44.16-35.841,80.001-80.001,80.001S 864,1052.159, 864,1007.999L 864,928.001 L 672,928.001 z M 768,767.999c 141.441,0, 255.999-114.561, 255.999-255.999s-114.561-255.999-255.999-255.999
	s-255.999,114.561-255.999,255.999S 626.559,767.999, 768,767.999z"  />
<glyph unicode="&#xe009;" d="M 770.496,34.592c 131.169-131.52, 343.68-131.52, 474.849,0
	c 81.633,81.6, 112.641,194.559, 92.511,300.159c 34.56,17.601, 65.568,38.079, 91.488,57.279c 2.88,2.241, 15.681,11.199, 18.879,13.761c 14.433,11.841, 23.679,29.76, 23.679,49.953
	c0,19.2-8.319,36.48-21.759,48l-264,217.599c-10.881,8.961-24.927,14.4-40.32,14.4c-17.313,0-32.991-6.72-44.511-17.601
	c-4.512-4.479-44.127-45.12-44.127-45.12c-27.552-27.519-72-27.519-99.552,0l-269.409,269.76c-27.519,27.519-27.519,72.321,0,99.84l 43.839,43.839
	c 11.52,11.52, 18.24,27.519, 18.24,44.769c0,17.28-6.72,32.673-17.601,44.16l-226.239,273.279c-11.841,14.079-29.76,23.361-49.599,23.361
	c-21.12,0-39.681-10.239-51.519-25.92l-3.84-5.121c-49.281-66.561-113.601-172.161-113.601-271.359c0-273.279, 609.312-881.601, 879.999-881.601
	c 5.121,0, 10.239,0.321, 15.072,0.321c 4.8-50.241-12.192-102.048-50.559-140.799c-68.799-68.769-180.192-68.769-248.991,0l-441.888,454.080
	c-93.759,93.759-245.439,93.759-339.201,0c-93.759-93.759-93.759-245.439,0-339.201l 144.96-143.040c 31.359-31.071, 81.921-31.071, 113.28,0c 31.041,31.329, 31.041,81.921,0,113.247
	l-145.281,142.752c-31.041,31.329-31.041,81.921,0,113.247c 31.359,31.071, 81.921,31.071, 113.28,0L 770.496,34.592z"  />
<glyph unicode="&#xe015;" d="M 1440,702.401c0,191.040-138.561,349.761-320.319,380.16C 1114.239,1298.561, 937.281,1472, 720,1472
	C 499.2,1472, 320.001,1292.801, 320.001,1072.001L 320.001,575.999 c0-88.32-71.679-159.999-159.999-159.999L 144,416 C 99.84,416, 63.999,380.159, 63.999,335.999S 99.84,256.001, 144,256.001L 159.999,256.001 c 176.64,0, 320.001,143.361, 320.001,320.001L 480,1072.001 
	C 480,1204.481, 587.52,1312.001, 720,1312.001c 131.199,0, 238.047-105.279, 240-236.16c-165.759-42.879-288-193.92-288-373.44l0-380.799 C 672,108.8, 843.84-64, 1056-64s 384,172.8, 384,385.599L 1440,702.401 z
	 M 1119.999,863.999l0-192 c0-35.199-28.8-63.999-63.999-63.999s-63.999,28.8-63.999,63.999l0,192 c0,35.199, 28.8,63.999, 63.999,63.999S 1119.999,899.201, 1119.999,863.999z"  />
<glyph unicode="&#xe016;" d="M 672,688.001c0,44.16, 35.841,80.001, 80.001,80.001s 80.001-35.841, 80.001-80.001S 796.161,608, 752.001,608
	S 672,643.841, 672,688.001z M 752.001,896c-114.879,0-207.999-93.12-207.999-207.999s 93.12-207.999, 207.999-207.999s 207.999,93.12, 207.999,207.999S 866.88,896, 752.001,896z M0,688.001
	C0,272.639, 336.639-64, 752.001-64C 1167.36-64, 1503.999,272.639, 1503.999,688.001C 1503.999,1103.36, 1167.36,1439.999, 752.001,1439.999C 336.639,1439.999,0,1103.36,0,688.001z M 752.001,1024.001
	C 937.599,1024.001, 1088.001,873.599, 1088.001,688.001S 937.599,352.001, 752.001,352.001S 416.001,502.4, 416.001,688.001S 566.4,1024.001, 752.001,1024.001z"  />
<glyph unicode="&#xe017;" d="M 672,400.001c0-44.16, 35.841-80.001, 80.001-80.001s 80.001,35.841, 80.001,80.001S 796.161,479.999, 752.001,479.999
	S 672,444.161, 672,400.001z M 128.001,1472C 57.279,1472,0,1414.721,0,1343.999l0-1280.001 c0-70.719, 57.279-128.001, 128.001-128.001l 1280.001,0 c 70.719,0, 128.001,57.279, 128.001,128.001L 1536,1154.561 c0,42.879-16.929,80.961-44.16,108.48L 1329.279,1424.96
	C 1300.512,1454.081, 1260.159,1472, 1215.999,1472L 128.001,1472 z M 230.4,1312.001L 320.001,1312.001 l0-249.6 c0-39.039, 31.359-70.401, 70.401-70.401l 83.199,0 c 39.039,0, 70.401,31.359, 70.401,70.401L 543.999,1312.001 l 601.599,0 C 1184.64,1312.001, 1215.999,1280.639, 1215.999,1241.6
	l0-307.2 c0-39.039-31.359-70.401-70.401-70.401L 230.4,863.999 C 191.361,863.999, 159.999,895.361, 159.999,934.4L 159.999,1241.6 C 159.999,1280.639, 191.361,1312.001, 230.4,1312.001z M 543.999,400.001c0,114.879, 93.12,207.999, 207.999,207.999
	s 207.999-93.12, 207.999-207.999S 866.88,191.999, 752.001,191.999S 543.999,285.119, 543.999,400.001z"  />
<glyph unicode="&#xe018;" d="M 192,256.001c0-70.719, 57.279-128.001, 128.001-128.001l 32.001,0 l0-111.999 c0-44.16, 35.841-80.001, 80.001-80.001s 80.001,35.841, 80.001,80.001L 512.001,128 
	l 159.999,0 l0-111.999 c0-44.16, 35.841-80.001, 80.001-80.001s 80.001,35.841, 80.001,80.001L 831.999,128 l 159.999,0 l0-111.999 c0-44.16, 35.841-80.001, 80.001-80.001s 80.001,35.841, 80.001,80.001L 1152,128 l 32.001,0 c 70.719,0, 128.001,57.279, 128.001,128.001l0,32.001 l 111.999,0 
	c 44.16,0, 80.001,35.841, 80.001,80.001S 1468.161,448.001, 1424.001,448.001L 1311.999,448.001 l0,159.999 l 111.999,0 c 44.16,0, 80.001,35.841, 80.001,80.001S 1468.161,767.999, 1424.001,767.999L 1311.999,767.999 l0,159.999 l 111.999,0 c 44.16,0, 80.001,35.841, 80.001,80.001
	S 1468.161,1088, 1424.001,1088L 1311.999,1088 l0,32.001 c0,70.719-57.279,128.001-128.001,128.001l-32.001,0 L 1152,1360.001 C 1152,1404.161, 1116.159,1439.999, 1071.999,1439.999S 992.001,1404.161, 992.001,1360.001L 992.001,1247.999 l-159.999,0 L 831.999,1360.001 C 831.999,1404.161, 796.161,1439.999, 752.001,1439.999
	S 672,1404.161, 672,1360.001L 672,1247.999 l-159.999,0 L 512.001,1360.001 C 512.001,1404.161, 476.16,1439.999, 432,1439.999S 351.999,1404.161, 351.999,1360.001L 351.999,1247.999 l-32.001,0 c-70.719,0-128.001-57.279-128.001-128.001l0-32.001 L 80.001,1088 C 35.841,1088,0,1052.159,0,1007.999
	S 35.841,928.001, 80.001,928.001L 192,928.001 l0-159.999 L 80.001,767.999 C 35.841,767.999,0,732.161,0,688.001S 35.841,608, 80.001,608L 192,608 l0-159.999 L 80.001,448.001 C 35.841,448.001,0,412.16,0,368S 35.841,287.999, 80.001,287.999L 192,287.999 L 192,256.001 z M 992.001,857.6l0-339.201 
	c0-39.039-31.359-70.401-70.401-70.401L 582.399,448.001 c-39.039,0-70.401,31.359-70.401,70.401L 512.001,857.6 c0,39.039, 31.359,70.401, 70.401,70.401l 339.201,0 C 960.639,928.001, 992.001,896.639, 992.001,857.6z"  />
<glyph unicode="&#xe019;" d="M 1103.361,1434.881c-49.311,49.599-129.312,49.599-178.911,0l-380.16-379.2l-80.928,80.961
	l-288.96-290.241C 143.040,815.039, 128.001,774.431, 128.001,732.479L 128.001,352.001 l 0.639-0.639L 37.119,259.487c-49.599-49.569-49.599-129.567,0-178.881L 144.639-26.881
	c 49.311-49.632, 129.312-49.632, 178.881,0l 91.872,91.488L 416.001,64.001l 381.12,0 c 40.929-0.639, 82.56,15.072, 113.919,46.431L 1200,400.001l-80.319,80.319l 379.2,380.16
	c 49.599,49.599, 49.599,129.6,0,178.881L 1103.361,1434.881z M 1230.048,972.8l 30.753-30.72c 25.599-25.599, 25.599-66.561,0-92.16l-30.753-30.72c-25.599-25.599-66.561-25.599-92.127,0
	l-30.753,30.72c-25.599,25.599-25.599,66.561,0,92.16l 30.753,30.72C 1163.487,998.432, 1204.479,998.432, 1230.048,972.8z M 1006.047,1196.801L 1036.8,1166.081
	c 25.599-25.599, 25.599-66.561,0-92.16l-30.753-30.72c-25.599-25.599-66.561-25.599-92.127,0l-30.753,30.72c-25.599,25.599-25.599,66.561,0,92.16l 30.753,30.72
	C 939.489,1222.433, 980.481,1222.433, 1006.047,1196.801z"  />
<glyph unicode="&#xe01a;" d="M 985.983,1449.023l-281.952-281.601l-121.953,121.599c-30.687,30.72-80.319,30.72-111.039,0
	s-30.72-80.319,0-111.039l 17.28-17.28l-136.32-136.641c-176.001-176.001-212.16-435.552-85.119-641.313l-229.761-229.761c-49.632-49.569-49.632-130.239,0-179.808
	c 49.599-49.632, 130.239-49.632, 179.487,0l 229.791,230.049c 206.4-128.001, 465.312-91.488, 641.601,84.801l 136.32,136.641l 17.631-17.631c 30.687-30.687, 80.256-30.687, 111.009,0
	c 30.753,30.753, 30.753,80.385,0,111.072l-137.952,137.952l 297.951,297.921c 30.753,30.72, 30.753,80.319,0,111.039s-80.319,30.72-111.009,0l-297.951-297.6l-288.993,288.639
	l 281.952,281.919c 30.753,30.72, 30.753,80.319,0,111.039S 1016.673,1479.743, 985.983,1449.023z"  />
<glyph unicode="&#xe01b;" d="M 480,688.001c0-44.16, 35.841-80.001, 80.001-80.001s 80.001,35.841, 80.001,80.001S 604.161,767.999, 560.001,767.999
	S 480,732.161, 480,688.001z M 864,688.001c0-44.16, 35.841-80.001, 80.001-80.001s 80.001,35.841, 80.001,80.001S 988.161,767.999, 944.001,767.999S 864,732.161, 864,688.001z M0,64.001c0-70.719, 57.279-128.001, 128.001-128.001
	l 1248,0 c 70.719,0, 128.001,57.279, 128.001,128.001L 1503.999,1312.001 c0,70.719-57.279,128.001-128.001,128.001L 128.001,1439.999 C 57.279,1439.999,0,1382.72,0,1312.001L0,64.001 z M 320.001,688.001C 320.001,926.72, 513.279,1120.001, 752.001,1120.001S 1184.001,926.72, 1184.001,688.001
	S 990.72,256.001, 752.001,256.001S 320.001,449.279, 320.001,688.001z"  />
<glyph unicode="&#xe01c;" d="M 255.999,1040l0-159.999 c0-44.16, 35.841-80.001, 80.001-80.001s 80.001,35.841, 80.001,80.001l0,159.999 
	c0,44.16-35.841,80.001-80.001,80.001S 255.999,1084.16, 255.999,1040z M 543.999,1040l0-159.999 c0-44.16, 35.841-80.001, 80.001-80.001s 80.001,35.841, 80.001,80.001l0,159.999 c0,44.16-35.841,80.001-80.001,80.001
	S 543.999,1084.16, 543.999,1040z M 831.999,1040l0-159.999 c0-44.16, 35.841-80.001, 80.001-80.001s 80.001,35.841, 80.001,80.001l0,159.999 c0,44.16-35.841,80.001-80.001,80.001S 831.999,1084.16, 831.999,1040z M 1119.999,1040l0-159.999 
	c0-44.16, 35.841-80.001, 80.001-80.001s 80.001,35.841, 80.001,80.001l0,159.999 c0,44.16-35.841,80.001-80.001,80.001S 1119.999,1084.16, 1119.999,1040z M0,64.001c0-70.719, 57.279-128.001, 128.001-128.001l 1280.001,0 
	c 70.719,0, 128.001,57.279, 128.001,128.001L 1536,1343.999 c0,70.719-57.279,128.001-128.001,128.001L 128.001,1472 C 57.279,1472,0,1414.721,0,1343.999L0,64.001 z M 230.4,1216.001l 1075.2,0 c 39.039,0, 70.401-31.359, 70.401-70.401l0-499.2 c0-39.039-31.359-70.401-70.401-70.401
	L 1215.999,575.999 l0-121.599 c0-39.039-31.359-70.401-70.401-70.401L 960,383.999 l0-121.599 c0-39.039-31.359-70.401-70.401-70.401l-243.201,0 c-39.039,0-70.401,31.359-70.401,70.401L 576,383.999 l-185.601,0 c-39.039,0-70.401,31.359-70.401,70.401
	L 320.001,575.999 L 230.4,575.999 C 191.361,575.999, 159.999,607.361, 159.999,646.4L 159.999,1145.6 C 159.999,1184.639, 191.361,1216.001, 230.4,1216.001z"  />
<glyph unicode="&#xe01d;" d="M 639.999,544.001l0-159.999 l 255.999,0 l0,159.999 c0,70.719-57.279,128.001-128.001,128.001S 639.999,614.72, 639.999,544.001z M 416.001,944l0-159.999 
	c0-44.16, 35.841-80.001, 80.001-80.001s 80.001,35.841, 80.001,80.001l0,159.999 c0,44.16-35.841,80.001-80.001,80.001S 416.001,988.16, 416.001,944z M 960,944l0-159.999 c0-44.16, 35.841-80.001, 80.001-80.001
	s 80.001,35.841, 80.001,80.001l0,159.999 c0,44.16-35.841,80.001-80.001,80.001S 960,988.16, 960,944z M0,64.001c0-70.719, 57.279-128.001, 128.001-128.001l 1280.001,0 c 70.719,0, 128.001,57.279, 128.001,128.001L 1536,1343.999 c0,70.719-57.279,128.001-128.001,128.001
	L 128.001,1472 C 57.279,1472,0,1414.721,0,1343.999L0,64.001 z M 224.001,704c0,154.56, 31.359,301.44, 87.999,435.519l 3.201,8.001C 325.44,1169.279, 347.52,1184, 373.119,1184l 789.759,0 
	c 25.632,0, 47.679-14.721, 57.951-36.48l 3.201-8.001C 1280.64,1005.44, 1311.999,858.56, 1311.999,704s-31.359-301.44-87.999-435.519l-3.201-8.001
	C 1210.56,238.721, 1188.513,224, 1162.881,224L 373.119,224 c-25.599,0-47.679,14.721-57.921,36.48l-3.201,8.001C 255.36,402.56, 224.001,549.44, 224.001,704z"  />
<glyph unicode="&#xe01e;" d="M0,64.001c0-70.719, 57.279-128.001, 128.001-128.001l 1280.001,0 c 70.719,0, 128.001,57.279, 128.001,128.001L 1536,832.001 c0,70.719-57.279,128.001-128.001,128.001l-96,0 L 1311.999,1343.999 
	c0,70.719-57.279,128.001-128.001,128.001L 351.999,1472 C 281.28,1472, 224.001,1414.721, 224.001,1343.999l0-384 L 128.001,959.999 c-70.719,0-128.001-57.279-128.001-128.001L0,64.001 z M 1152,1241.6l0-371.199 c0-39.039-31.359-70.401-70.401-70.401L 454.401,800 
	c-39.039,0-70.401,31.359-70.401,70.401L 384,1241.6 C 384,1280.639, 415.359,1312.001, 454.401,1312.001l 627.201,0 C 1120.641,1312.001, 1152,1280.639, 1152,1241.6z M 1248,95.999L 288,95.999 c-35.199,0-63.999,28.8-63.999,63.999s 28.8,63.999, 63.999,63.999l 960,0 
	c 35.199,0, 63.999-28.8, 63.999-63.999S 1283.199,95.999, 1248,95.999z M 224.001,431.999C 224.001,476.159, 259.839,512, 303.999,512s 80.001-35.841, 80.001-80.001S 348.159,352.001, 303.999,352.001S 224.001,387.839, 224.001,431.999z"  />
<glyph unicode="&#xe02a;" d="M 480,514.241C 441.6,533.12, 398.079,544.001, 351.999,544.001c-159.039,0-288-128.961-288-288c0-159.072, 128.961-288, 288-288
	s 288,128.928, 288,288L 639.999,896 c0,35.199, 28.8,63.999, 63.999,63.999l 543.999,0 c 35.199,0, 63.999-28.8, 63.999-63.999l0-381.759 C 1273.599,533.12, 1230.048,544.001, 1184.001,544.001c-159.072,0-288-128.961-288-288c0-159.072, 128.928-288, 288-288
	s 288,128.928, 288,288L 1472.001,1337.6 C 1472.001,1376.639, 1440.639,1408.001, 1401.6,1408.001L 550.401,1408.001 C 511.359,1408.001, 480,1376.639, 480,1337.6L 480,514.241 z"  />
<glyph unicode="&#xe02b;" d="M 85.344,702.113c-63.681-29.76-91.2-105.249-61.407-168.927
	c 29.76-63.681, 105.279-90.879, 168.639-61.44l 287.679,134.049l0-381.759 c0-35.199-28.8-63.999-63.999-63.999l-176.001,0 c-44.16,0-80.001-35.841-80.001-80.001s 35.841-80.001, 80.001-80.001l 639.999,0 
	c 44.16,0, 80.001,35.841, 80.001,80.001s-35.841,80.001-80.001,80.001l-176.001,0 c-35.199,0-63.999,28.8-63.999,63.999l0,456.321 l 108.159,50.559c 99.519-91.2, 248.961-119.040, 379.839-59.199l 209.952,95.649
	c 171.489,78.399, 245.76,278.4, 165.759,446.721c-80.001,168-283.839,240.672-455.679,162.24l-209.952-95.679c-129.567-59.487-203.841-187.839-197.76-319.68L 85.344,702.113z
	 M 1152.225,1168.064c0,44.16, 35.841,80.001, 80.001,80.001s 80.001-35.841, 80.001-80.001s-35.841-80.001-80.001-80.001S 1152.225,1123.904, 1152.225,1168.064z"  />
<glyph unicode="&#xe02c;" d="M 288,335.999c0-44.193, 35.841-80.001, 80.001-80.001s 80.001,35.808, 80.001,80.001
	c0,44.127-35.841,80.001-80.001,80.001S 288,380.129, 288,335.999z M 1074.561,1088L 282.561,1435.487c-35.52,13.44-74.559-4.161-86.721-39.36c-12.48-35.199, 6.399-74.88, 41.919-88.32
	L 738.879,1088L 128.001,1088 c-70.719,0-128.001-57.279-128.001-128.001l0-864 c0-70.752, 57.279-128.001, 128.001-128.001l 1152,0 c 70.719,0, 128.001,57.249, 128.001,128.001L 1407.999,544.001 l 57.6,0 c 39.039,0, 70.401,31.359, 70.401,70.368l0,179.199 
	c0,39.039-31.359,70.401-70.401,70.401L 1407.999,863.969 l0,96 c0,70.719-57.279,128.001-128.001,128.001L 1074.561,1087.967 z M 230.4,928.001l 947.199,0 c 39.039,0, 70.401-31.359, 70.401-70.401l0-115.2 c0-39.039-31.359-70.401-70.401-70.401L 543.999,671.999 
	l-96,96l-96-96L 230.4,671.999 C 191.361,671.999, 159.999,703.328, 159.999,742.4l0,115.2 C 159.999,896.639, 191.361,928.001, 230.4,928.001z M 1088.001,464c0,44.127, 35.841,80.001, 80.001,80.001s 80.001-35.871, 80.001-80.001
	c0-44.193-35.841-80.001-80.001-80.001S 1088.001,419.807, 1088.001,464z M 159.999,335.999c0,114.879, 93.12,207.999, 207.999,207.999s 207.999-93.12, 207.999-207.999S 482.88,128, 368.001,128S 159.999,221.12, 159.999,335.999z"  />
<glyph unicode="&#xe02d;" d="M 672,1103.999c0-44.16, 35.841-80.001, 80.001-80.001s 80.001,35.841, 80.001,80.001S 796.161,1184, 752.001,1184
	S 672,1148.159, 672,1103.999z M 672,431.999c0,44.16, 35.841,80.001, 80.001,80.001s 80.001-35.841, 80.001-80.001S 796.161,352.001, 752.001,352.001S 672,387.839, 672,431.999z M 752.001,640.001
	c-114.879,0-207.999-93.12-207.999-207.999s 93.12-207.999, 207.999-207.999s 207.999,93.12, 207.999,207.999S 866.88,640.001, 752.001,640.001z M 159.999,64.001c0-70.719, 57.279-128.001, 128.001-128.001l 927.999,0 c 70.719,0, 128.001,57.279, 128.001,128.001L 1344,1343.999 
	c0,70.719-57.279,128.001-128.001,128.001L 288,1472 C 217.281,1472, 159.999,1414.721, 159.999,1343.999L 159.999,64.001 z M 617.601,740.159c 37.761,17.919, 63.999,56.961, 63.999,101.76c0,34.56-15.681,65.28-40.32,85.761
	C 582.72,964.481, 543.999,1029.761, 543.999,1103.999C 543.999,1218.881, 637.119,1312.001, 752.001,1312.001S 960,1218.881, 960,1103.999c0-71.040-35.841-134.079-90.24-171.519c-28.479-20.16-46.719-53.439-46.719-90.879
	c0-45.12, 26.559-84.159, 64.959-101.76l 2.559-1.281C 1007.040,685.76, 1088.001,568.319, 1088.001,431.999C 1088.001,246.401, 937.599,95.999, 752.001,95.999S 416.001,246.401, 416.001,431.999
	C 416.001,569.951, 498.879,688.319, 617.601,740.159z"  />
<glyph unicode="&#xe02e;" d="M0,112.001C0,67.841, 35.841,32, 80.001,32c 38.721,0, 71.040,27.489, 78.399,63.999L 159.999,95.999 c0,35.199, 28.8,63.999, 63.999,63.999
	s 63.999-28.8, 63.999-63.999l0-32.001 c0-70.719, 57.279-128.001, 128.001-128.001l 128.001,0 c 70.719,0, 128.001,57.279, 128.001,128.001L 672,544.001 c0,70.719-57.279,128.001-128.001,128.001l-128.001,0 c-70.719,0-128.001-57.279-128.001-128.001l0-32.001 c0-35.199-28.8-63.999-63.999-63.999s-63.999,28.8-63.999,63.999l0,192 
	C 159.999,1039.679, 432.321,1312.001, 768,1312.001s 608.001-272.319, 608.001-608.001l0-192 c0-35.199-28.8-63.999-63.999-63.999s-63.999,28.8-63.999,63.999l0,32.001 c0,70.719-57.279,128.001-128.001,128.001l-128.001,0 c-70.719,0-128.001-57.279-128.001-128.001l0-480 
	c0-70.719, 57.279-128.001, 128.001-128.001l 128.001,0 c 70.719,0, 128.001,57.279, 128.001,128.001l0,32.001 c0,35.199, 28.8,63.999, 63.999,63.999s 63.999-28.8, 63.999-63.999l 1.599,0 c 7.329-36.513, 39.681-63.999, 78.399-63.999c 44.16,0, 80.001,35.841, 80.001,80.001L 1536,704 
	C 1536,1128.32, 1192.32,1472, 768,1472S0,1128.32,0,704L0,112.001 z"  />
<glyph unicode="&#xe02f;" d="M 1023.999,704c0-53.121, 42.879-96, 96-96s 96,42.879, 96,96s-42.879,96-96,96S 1023.999,757.121, 1023.999,704z M 320.001,704
	c0-53.121, 42.879-96, 96-96s 96,42.879, 96,96s-42.879,96-96,96S 320.001,757.121, 320.001,704z M 906.879,767.999l-277.761,0 c 7.041-20.16, 10.881-41.601, 10.881-63.999s-3.84-43.839-10.881-63.999l 277.761,0 
	C 899.841,660.161, 896.001,681.599, 896.001,704S 899.841,747.839, 906.879,767.999z M0,256.001c0-70.719, 57.279-128.001, 128.001-128.001l 1280.001,0 c 70.719,0, 128.001,57.279, 128.001,128.001L 1536,1151.999 c0,70.719-57.279,128.001-128.001,128.001L 128.001,1280 
	c-70.719,0-128.001-57.279-128.001-128.001L0,256.001 z M 416.001,479.999c-123.84,0-224.001,100.161-224.001,224.001s 100.161,224.001, 224.001,224.001l 704.001,0 c 123.84,0, 224.001-100.161, 224.001-224.001s-100.161-224.001-224.001-224.001L 416.001,479.999 z"  />
<glyph unicode="&#xe030;" d="M 576,784.001c0-68.481, 39.039-127.68, 96-156.801L 672,160.001 c0-35.199-28.8-63.999-63.999-63.999l-176.001,0 
	c-44.16,0-80.001-35.841-80.001-80.001s 35.841-80.001, 80.001-80.001l 639.999,0 c 44.16,0, 80.001,35.841, 80.001,80.001S 1116.159,95.999, 1071.999,95.999L 896.001,95.999 c-35.199,0-63.999,28.8-63.999,63.999L 831.999,627.2 
	c 56.928,29.121, 96,88.32, 96,156.801c0,97.281-78.72,176.001-176.001,176.001S 576,881.279, 576,784.001z M 320.001,777.599c0-80.001, 21.441-154.881, 58.56-219.519l 4.8-7.329
	c 13.089-26.208, 39.999-44.16, 71.040-44.16c 44.16,0, 80.001,36.159, 80.001,80.928c0,15.36-4.191,29.793-11.52,41.952l-8.673,14.721
	C 492.48,683.84, 480,729.281, 480,777.599c0,151.68, 121.953,278.4, 272.001,278.4s 272.001-126.72, 272.001-278.4c0-48.321-12.513-93.759-34.239-133.44l-8.64-14.721
	c-7.359-12.159-11.52-26.559-11.52-41.952c0-44.769, 35.841-80.928, 80.001-80.928c 31.041,0, 57.921,17.952, 71.040,44.16l 4.8,7.329
	C 1162.56,622.721, 1184.001,697.601, 1184.001,777.599C 1184.001,1018.559, 990.72,1216.001, 752.001,1216.001S 320.001,1018.559, 320.001,777.599z M 63.999,777.599c0-156.48, 51.201-300.768, 137.952-416.961l 5.76-8.001
	C 222.048,332.801, 245.76,320, 272.001,320c 44.16,0, 80.001,36.159, 80.001,80.64c0,18.561-6.048,35.871-16.641,49.632l-6.081,8.319C 263.040,547.487, 224.001,657.953, 224.001,777.599
	C 224.001,1072.001, 460.479,1312.001, 752.001,1312.001C 1043.487,1312.001, 1280.001,1072.001, 1280.001,777.599c0-119.649-39.072-230.079-105.279-319.041l-6.081-8.319C 1158.048,436.511, 1152,419.201, 1152,400.64
	c0-44.481, 35.841-80.64, 80.001-80.64c 26.208,0, 49.953,12.801, 64.32,32.64l 5.76,8.001C 1388.799,476.801, 1440,621.119, 1440,777.599C 1440,1161.281, 1131.84,1472, 752.001,1472
	S 63.999,1161.281, 63.999,777.599z"  />
<glyph unicode="&#xe031;" d="M 857.952,936.959l-97.632-96.96L 369.279,1231.040c-11.52,11.52-27.201,18.561-44.799,18.561
	c-28.479,0-52.8-18.879-60.801-44.481L 260.16,1193.6C 236.799,1120.001, 224.001,1041.599, 224.001,959.999c0-190.401, 69.12-364.512, 183.681-498.561l-12.159-15.999c-56.319-56.001-88.641-127.041-96.639-200.319
	c-107.841-28.191-193.599-108.192-227.52-211.2c0,0-7.359-19.521-7.359-33.951c0-35.199, 29.439-63.999, 65.601-63.999l 508.8,0 c 36.159,0, 65.601,28.8, 65.601,63.999
	c0,20.16-8.961,38.4-8.961,38.4c-35.841,103.329-123.84,182.721-233.601,208.641c 7.041,31.359, 22.719,61.119, 47.040,85.473l 14.721,19.2C 652.8,251.489, 815.361,191.999, 992.001,191.999
	c 80.319,0, 157.761,12.159, 230.4,35.199c 3.519,0.96, 16.32,6.399, 16.32,6.399c 24.351,8.961, 41.919,32.352, 41.919,59.841c0,17.952-7.329,34.239-19.488,45.759L 1251.201,348.8
	L 871.68,728.639l 97.248,97.281c 30.753,30.72, 30.753,80.319,0,111.039C 938.241,967.679, 888.639,967.679, 857.952,936.959z M 1088.001,880.001c0-44.16, 35.841-80.001, 80.001-80.001
	s 80.001,35.841, 80.001,80.001L 1247.679,896c-3.84,80.64-36.513,159.999-98.241,221.439C 1088.001,1179.2, 1008.639,1211.84, 927.999,1215.68L 912,1216.001C 867.84,1216.001, 831.999,1180.16, 831.999,1136
	s 35.841-80.001, 80.001-80.001c 5.439,0, 15.999-0.639, 15.999-0.639c 39.681-3.84, 78.048-20.481, 108.513-50.88c 30.369-30.399, 47.007-68.799, 50.559-108.48
	C 1087.071,896, 1088.001,885.44, 1088.001,880.001z M 1344,880.001c0-44.16, 35.841-80.001, 80.001-80.001s 80.001,35.841, 80.001,80.001L 1503.681,896c-3.84,146.241-61.44,291.201-173.121,402.561
	C 1219.2,1410.239, 1074.24,1467.839, 927.999,1471.679L 912,1472C 867.84,1472, 831.999,1436.159, 831.999,1391.999S 867.84,1312.001, 912,1312.001L 927.999,1311.68c 105.279-3.84, 209.28-46.080, 289.599-126.081
	c 80.001-80.319, 122.241-184.32, 126.081-289.599L 1344,880.001z"  />
<glyph unicode="&#xe032;" d="M 224.001,64.001c0-70.719, 57.279-128.001, 128.001-128.001l 800.001,0 c 70.719,0, 128.001,57.279, 128.001,128.001L 1280.001,1343.999 c0,70.719-57.279,128.001-128.001,128.001L 351.999,1472 
	C 281.28,1472, 224.001,1414.721, 224.001,1343.999L 224.001,64.001 z M 454.401,1312.001l 595.2,0 C 1088.64,1312.001, 1119.999,1280.639, 1119.999,1241.6l0-211.2 c0-39.039-31.359-70.401-70.401-70.401L 454.401,959.999 c-39.039,0-70.401,31.359-70.401,70.401L 384,1241.6 
	C 384,1280.639, 415.359,1312.001, 454.401,1312.001z M 384,752c0,44.16, 35.841,80.001, 80.001,80.001s 80.001-35.841, 80.001-80.001S 508.161,671.999, 464.001,671.999S 384,707.84, 384,752z M 672,752
	c0,44.16, 35.841,80.001, 80.001,80.001s 80.001-35.841, 80.001-80.001S 796.161,671.999, 752.001,671.999S 672,707.84, 672,752z M 960,752c0,44.16, 35.841,80.001, 80.001,80.001s 80.001-35.841, 80.001-80.001
	S 1084.161,671.999, 1040.001,671.999S 960,707.84, 960,752z M 384,464c0,44.16, 35.841,80.001, 80.001,80.001s 80.001-35.841, 80.001-80.001S 508.161,383.999, 464.001,383.999S 384,419.84, 384,464z
	 M 672,464c0,44.16, 35.841,80.001, 80.001,80.001s 80.001-35.841, 80.001-80.001S 796.161,383.999, 752.001,383.999S 672,419.84, 672,464z M 960,464c0,44.16, 35.841,80.001, 80.001,80.001
	s 80.001-35.841, 80.001-80.001S 1084.161,383.999, 1040.001,383.999S 960,419.84, 960,464z M 384,176c0,44.16, 35.841,80.001, 80.001,80.001s 80.001-35.841, 80.001-80.001S 508.161,95.999, 464.001,95.999
	S 384,131.84, 384,176z M 672,176c0,44.16, 35.841,80.001, 80.001,80.001s 80.001-35.841, 80.001-80.001S 796.161,95.999, 752.001,95.999S 672,131.84, 672,176z M 960,176
	c0,44.16, 35.841,80.001, 80.001,80.001s 80.001-35.841, 80.001-80.001S 1084.161,95.999, 1040.001,95.999S 960,131.84, 960,176z"  />
<glyph unicode="&#xe033;" d="M 288-64l 768,0 c 44.16,0, 84.513,17.952, 113.28,47.040l 162.561,161.919
	C 1359.072,172.511, 1376.001,210.56, 1376.001,253.439L 1376.001,1343.999 c0,70.719-57.279,128.001-128.001,128.001L 288,1472 C 217.281,1472, 159.999,1414.721, 159.999,1343.999l0-1280.001 C 159.999-6.721, 217.281-64, 288-64z M 390.399,1312.001l 755.199,0 
	C 1184.64,1312.001, 1215.999,1280.639, 1215.999,1241.6l0-339.201 c0-39.039-31.359-70.401-70.401-70.401L 390.399,832.001 c-39.039,0-70.401,31.359-70.401,70.401L 320.001,1241.6 C 320.001,1280.639, 351.36,1312.001, 390.399,1312.001z M 576,572.801L 576,479.999 l 92.799,0 
	c 37.119,0, 67.2-28.8, 67.2-63.999s-30.081-63.999-67.2-63.999L 576,352.001 l0-92.799 c0-37.119-28.8-67.2-63.999-67.2s-63.999,30.048-63.999,67.2L 447.999,352.001 l-92.799,0 C 318.081,352.001, 288,380.801, 288,416s 30.081,63.999, 67.2,63.999L 447.999,479.999 l0,92.799 
	c0,37.119, 28.8,67.2, 63.999,67.2S 576,609.953, 576,572.801z M 1056,527.999c0,44.16, 35.841,80.001, 80.001,80.001s 80.001-35.841, 80.001-80.001S 1180.161,448.001, 1136.001,448.001S 1056,483.839, 1056,527.999z
	 M 896.001,335.999c0,44.16, 35.841,80.001, 80.001,80.001s 80.001-35.841, 80.001-80.001S 1020.159,256.001, 975.999,256.001S 896.001,291.839, 896.001,335.999z"  />
<glyph unicode="&#xe03f;" d="M 224.001,64.001c0-70.719, 57.279-128.001, 128.001-128.001l 800.001,0 c 70.719,0, 128.001,57.279, 128.001,128.001L 1280.001,1216.001 c0,70.719-57.279,128.001-128.001,128.001l-159.999,0 L 992.001,1401.599 
	C 992.001,1440.641, 960.639,1472, 921.6,1472L 582.399,1472 C 543.36,1472, 512.001,1440.641, 512.001,1401.599L 512.001,1343.999 l-159.999,0 C 281.28,1343.999, 224.001,1286.72, 224.001,1216.001L 224.001,64.001 z M 454.401,352.001l 595.2,0 c 39.039,0, 70.401-31.359, 70.401-70.401l0-115.2 
	c0-39.039-31.359-70.401-70.401-70.401L 454.401,95.999 c-39.039,0-70.401,31.359-70.401,70.401l0,115.2 C 384,320.639, 415.359,352.001, 454.401,352.001z M 454.401,767.999l 595.2,0 c 39.039,0, 70.401-31.359, 70.401-70.401
	l0-115.2 c0-39.039-31.359-70.401-70.401-70.401L 454.401,512 c-39.039,0-70.401,31.359-70.401,70.401l0,115.2 C 384,736.64, 415.359,767.999, 454.401,767.999z"  />
<glyph unicode="&#xe040;" d="M 224.001,64.001c0-70.719, 57.279-128.001, 128.001-128.001l 800.001,0 c 70.719,0, 128.001,57.279, 128.001,128.001L 1280.001,1216.001 c0,70.719-57.279,128.001-128.001,128.001l-159.999,0 L 992.001,1401.599 
	C 992.001,1440.641, 960.639,1472, 921.6,1472L 582.399,1472 C 543.36,1472, 512.001,1440.641, 512.001,1401.599L 512.001,1343.999 l-159.999,0 C 281.28,1343.999, 224.001,1286.72, 224.001,1216.001L 224.001,64.001 z M 454.401,1184l 595.2,0 c 39.039,0, 70.401-31.359, 70.401-70.401l0-115.2 
	c0-39.039-31.359-70.401-70.401-70.401L 454.401,928.001 c-39.039,0-70.401,31.359-70.401,70.401l0,115.2 C 384,1152.641, 415.359,1184, 454.401,1184z M 454.401,352.001l 595.2,0 c 39.039,0, 70.401-31.359, 70.401-70.401l0-115.2 
	c0-39.039-31.359-70.401-70.401-70.401L 454.401,95.999 c-39.039,0-70.401,31.359-70.401,70.401l0,115.2 C 384,320.639, 415.359,352.001, 454.401,352.001z M 454.401,767.999l 595.2,0 c 39.039,0, 70.401-31.359, 70.401-70.401
	l0-115.2 c0-39.039-31.359-70.401-70.401-70.401L 454.401,512 c-39.039,0-70.401,31.359-70.401,70.401l0,115.2 C 384,736.64, 415.359,767.999, 454.401,767.999z"  />
<glyph unicode="&#xe041;" d="M0,191.999c0-70.719, 57.279-128.001, 128.001-128.001l 1280.001,0 c 70.719,0, 128.001,57.279, 128.001,128.001L 1536,1055.999 c0,70.719-57.279,128.001-128.001,128.001L 768,1184 L 768,1241.6 
	C 768,1280.639, 736.641,1312.001, 697.599,1312.001L 358.401,1312.001 C 319.359,1312.001, 288,1280.639, 288,1241.6L 288,287.999 c0-35.199-28.8-63.999-63.999-63.999s-63.999,28.8-63.999,63.999L 159.999,1103.999 C 159.999,1148.159, 124.161,1184, 80.001,1184S0,1148.159,0,1103.999L0,191.999 z"  />
<glyph unicode="&#xe042;" d="M 948.864,1024.064c 69.12-15.999, 124.128-74.88, 140.127-139.2
	c 5.472-30.081, 31.68-52.8, 63.072-52.8c 35.199,0, 63.999,28.8, 63.999,63.999c0,46.080-38.721,116.16-91.521,168.639c-51.84,51.201-113.601,87.36-164.481,87.36c-35.199,0-63.999-29.76-63.999-64.959
	C 896.064,1055.777, 918.783,1029.503, 948.864,1024.064z M 69.183,185.024c-49.599-49.569-49.599-130.239,0-179.808c 49.599-49.632, 130.239-49.632, 179.52,0
	l 367.647,367.359c 85.791-53.505, 186.879-84.513, 295.68-84.513c 309.441,0, 560.001,250.56, 560.001,560.001c0,309.441-250.56,560.001-560.001,560.001s-560.001-250.56-560.001-560.001
	c0-108.48, 31.071-209.919, 84.513-295.68L 69.183,185.024z M 512.064,848.063c0,220.8, 179.232,399.999, 399.999,399.999c 220.8,0, 399.999-179.199, 399.999-399.999
	s-179.199-399.999-399.999-399.999C 691.296,448.097, 512.064,627.296, 512.064,848.063z"  />
<glyph unicode="&#xe043;" d="M 752.097,928.064c-44.16,0-80.001-35.841-80.001-80.001s 35.841-80.001, 80.001-80.001l 320.031,0 
	c 44.127,0, 80.001,35.841, 80.001,80.001s-35.871,80.001-80.001,80.001L 752.097,928.064 z M 69.216,185.024c-49.632-49.569-49.632-130.239,0-179.808
	c 49.599-49.632, 130.239-49.632, 179.487,0l 367.68,367.359c 85.761-53.505, 186.912-84.513, 295.713-84.513c 309.441,0, 560.001,250.56, 560.001,560.001
	c0,309.441-250.56,560.001-560.001,560.001c-309.471,0-560.031-250.56-560.031-560.001c0-108.48, 31.041-209.919, 84.48-295.68L 69.216,185.024z M 512.097,848.063
	c0,220.8, 179.199,399.999, 400.032,399.999c 220.8,0, 399.999-179.199, 399.999-399.999s-179.199-399.999-399.999-399.999C 691.296,448.097, 512.097,627.296, 512.097,848.063z"  />
<glyph unicode="&#xe044;" d="M 752.097,928.064c-44.16,0-80.001-35.841-80.001-80.001s 35.841-80.001, 80.001-80.001l 80.031,0 l0-80.001 
	c0-44.16, 35.808-79.968, 80.001-79.968c 44.127,0, 80.001,35.808, 80.001,79.968l0,80.001 l 80.001,0 c 44.127,0, 80.001,35.841, 80.001,80.001s-35.871,80.001-80.001,80.001l-80.001,0 l0,80.001 
	c0,44.16-35.871,80.001-80.001,80.001c-44.193,0-80.001-35.841-80.001-80.001l0-80.001 L 752.097,928.064 z M 69.216,185.024c-49.632-49.569-49.632-130.239,0-179.808
	c 49.599-49.632, 130.239-49.632, 179.487,0l 367.68,367.359c 85.761-53.505, 186.912-84.513, 295.713-84.513c 309.441,0, 560.001,250.56, 560.001,560.001
	c0,309.441-250.56,560.001-560.001,560.001c-309.471,0-560.031-250.56-560.031-560.001c0-108.48, 31.041-209.919, 84.48-295.68L 69.216,185.024z M 512.097,848.063
	c0,220.8, 179.199,399.999, 400.032,399.999c 220.8,0, 399.999-179.199, 399.999-399.999s-179.199-399.999-399.999-399.999C 691.296,448.097, 512.097,627.296, 512.097,848.063z"  />
<glyph unicode="&#xe045;" d="M0,64.001c0-70.719, 57.279-128.001, 128.001-128.001l 416.001,0 c 70.719,0, 128.001,57.279, 128.001,128.001L 672,575.999 l 192,0 l0-512.001 c0-70.719, 57.279-128.001, 128.001-128.001l 416.001,0 
	c 70.719,0, 128.001,57.279, 128.001,128.001L 1536,896 c0,70.719-57.279,128.001-128.001,128.001l-63.999,0 L 1344,1312.001 l 15.999,0 C 1404.159,1312.001, 1440,1347.839, 1440,1391.999S 1404.159,1472, 1359.999,1472l-416.001,0 C 899.841,1472, 864,1436.159, 864,1391.999
	S 899.841,1312.001, 944.001,1312.001L 960,1312.001 l0-288 L 576,1024.001 L 576,1312.001 l 15.999,0 C 636.159,1312.001, 672,1347.839, 672,1391.999S 636.159,1472, 591.999,1472l-416.001,0 C 131.841,1472, 96,1436.159, 96,1391.999S 131.841,1312.001, 176.001,1312.001L 192,1312.001 l0-288 L 128.001,1024.001 
	c-70.719,0-128.001-57.279-128.001-128.001L0,64.001 z M 831.999,736.001l-128.001,0 c-35.199,0-63.999,28.8-63.999,63.999s 28.8,63.999, 63.999,63.999l 128.001,0 c 35.199,0, 63.999-28.8, 63.999-63.999S 867.201,736.001, 831.999,736.001z"  />
<glyph unicode="&#xe046;" d="M 672,976.001c0,44.16, 35.841,80.001, 80.001,80.001s 80.001-35.841, 80.001-80.001S 796.161,896, 752.001,896
	S 672,931.841, 672,976.001z M 752.001,1184c-114.879,0-207.999-93.12-207.999-207.999s 93.12-207.999, 207.999-207.999c 114.879,0, 207.999,93.12, 207.999,207.999S 866.88,1184, 752.001,1184z M 255.999,984.959
	C 255.999,658.559, 640.959,407.36, 672,32l0-15.999 c0-44.16, 35.841-80.001, 80.001-80.001s 80.001,35.841, 80.001,80.001L 831.999,32 c 32.928,375.36, 416.001,626.559, 416.001,952.959
	C 1248,1254.080, 1025.952,1472, 752.001,1472C 478.080,1472, 255.999,1254.080, 255.999,984.959z M 752.001,1312.001C 937.599,1312.001, 1088.001,1161.599, 1088.001,976.001S 937.599,640.001, 752.001,640.001S 416.001,790.4, 416.001,976.001S 566.4,1312.001, 752.001,1312.001z"  />
<glyph unicode="&#xe047;" d="M 416.001,764.801l-236.799-239.040C 167.361,514.241, 159.999,497.951, 159.999,479.999c0-35.199, 28.479-63.999, 63.36-63.999L 672,416 l0-399.999 
	c0-44.16, 35.841-80.001, 80.001-80.001s 80.001,35.841, 80.001,80.001L 831.999,416 l 480.639,0 c 34.881,0, 63.36,28.8, 63.36,63.999c0,17.601-7.071,33.6-18.561,45.12L 1119.999,765.119L 1119.999,1312.001 l 48,0 
	C 1212.159,1312.001, 1248,1347.839, 1248,1391.999S 1212.159,1472, 1167.999,1472l-800.001,0 C 323.841,1472, 288,1436.159, 288,1391.999S 323.841,1312.001, 368.001,1312.001L 416.001,1312.001 L 416.001,764.801 z M 704.001,1247.999l0-416.001 c0-35.199-28.8-63.999-63.999-63.999s-63.999,28.8-63.999,63.999L 576,1247.999 
	c0,35.199, 28.8,63.999, 63.999,63.999S 704.001,1283.201, 704.001,1247.999z"  />
<glyph unicode="&#xe048;" d="M 288,1472C 217.281,1472, 159.999,1414.721, 159.999,1343.999l0-1280.001 c0-70.719, 57.279-128.001, 128.001-128.001l 960,0 c 70.719,0, 128.001,57.279, 128.001,128.001L 1376.001,1026.56 
	c0,42.879-16.929,80.961-44.16,108.48L 1041.279,1424.96C 1012.512,1454.081, 972.159,1472, 927.999,1472L 288,1472 z M 735.999,1247.999c0,35.199, 28.8,63.999, 63.999,63.999c 35.199,0, 63.999-28.8, 63.999-63.999l0-240 
	c0-26.559, 21.441-48, 48-48L 1152,959.999 c 35.199,0, 63.999-28.8, 63.999-63.999s-28.8-63.999-63.999-63.999l-288,0 c-70.719,0-128.001,57.279-128.001,128.001L 735.999,1247.999 z"  />
<glyph unicode="&#xe054;" d="M 177.951,825.377c-31.329-31.329-46.401-76.161-54.048-121.599L 1.92,127.136
	c-17.28-102.432, 85.44-205.473, 189.153-189.471l 577.311,120.351c 42.24,7.647, 87.999,20.799, 119.361,52.161l 611.52,612.192c 48.96,49.248, 48.96,128.928,0,178.209
	l-534.081,534.72c-49.281,48.96-128.961,48.96-177.951,0L 177.951,825.377z M 764.832,210.017l-298.881-57.312l-247.68,248.001l 56.928,299.232l 445.152,445.761
	c 24.639,24.672, 64.32,24.672, 88.959,0c 24.672-24.639, 24.672-64.641,0-89.28l-411.552-412.161c-30.72-30.72-30.72-80.673,0-111.327
	c 30.72-30.753, 80.319-30.753, 111.039,0l 411.873,412.161c 24.672,24.639, 64.32,24.639, 88.959,0c 24.672-24.672, 24.672-64.353,0-88.959l-411.552-412.161
	c-30.72-30.72-30.72-80.673,0-111.36c 30.72-30.72, 80.352-30.72, 111.039,0l 411.873,412.161c 24.351,24.351, 64.353,24.351, 88.992,0
	c 24.639-24.639, 24.639-64.641,0-89.247L 764.832,210.017z"  />
<glyph unicode="&#xe055;" d="M 739.521,587.489L 197.121,45.119C 185.601,33.599, 178.56,17.6, 178.56-0.001c0-35.199, 28.479-63.999, 63.999-63.999
	c 9.279,0, 17.919,1.953, 25.92,5.439c0,0, 903.681,391.68, 913.953,396.513c 21.087,9.567, 37.44,28.128, 43.839,51.201l 146.241,527.040l 29.439-29.121
	c 30.687-30.72, 80.319-30.72, 111.009,0c 30.753,30.72, 30.753,80.352,0,111.039L 1062.048,1448.96c-30.687,30.72-80.319,30.72-111.009,0
	c-30.753-30.72-30.753-80.352,0-111.039L 980.16,1308.8l-528-146.88c-23.040-6.753-41.601-23.361-51.201-45.12L 5.121,203.489C 1.92,195.839,0,187.487,0,178.559
	c0-35.52, 28.8-63.999, 63.999-63.999c 18.24,0, 34.56,7.359, 46.080,19.488l 541.44,541.44C 644.16,694.4, 639.999,714.56, 639.999,736.001c0,88.32, 71.679,159.999, 159.999,159.999s 159.999-71.679, 159.999-159.999s-71.679-159.999-159.999-159.999
	C 778.56,575.999, 758.4,580.16, 739.521,587.489z"  />
<glyph unicode="&#xe056;" d="M 1334.049,365.12c-92.769,121.281-212.481,183.999-414.687,204.159c-36.513,7.329-63.999,39.681-63.999,78.081
	c0,28.128, 90.207,112.32, 89.568,112.929C 1038.048,856.64, 1088.001,1013.12, 1088.001,1133.441C 1088.001,1320.32, 937.599,1472, 752.001,1472S 416.001,1320.32, 416.001,1133.441
	c0-120.96, 48.639-278.4, 142.719-374.721c0,0, 89.919-83.232, 89.919-111.327c0-40.671-30.72-74.559-70.401-79.359c-198.081-20.799-316.479-83.199-408.321-202.881
	C 143.361,330.56, 128.961,261.119, 128.001,224c 0.321-9.6,0-159.999,0-159.999c0-70.719, 57.279-128.001, 128.001-128.001l 992.001,0 c 70.719,0, 128.001,57.279, 128.001,128.001c0,0-0.321,150.399,0,159.999
	C 1375.071,261.119, 1360.641,330.56, 1334.049,365.12z"  />
<glyph unicode="&#xe057;" d="M 1334.049,365.12c-67.2,87.681-148.479,144.639-264.927,176.928L 960,160.001c0-35.199-28.8-63.999-63.999-63.999s-63.999,28.8-63.999,63.999l0,303.999 c0,44.16-35.841,80.001-80.001,80.001
		S 672,508.16, 672,464L 672,160.001 c0-35.199-28.8-63.999-63.999-63.999s-63.999,28.8-63.999,63.999l-109.119,382.047c-116.481-32.64-197.76-89.247-264.96-176.928C 143.361,330.56, 128.961,261.119, 128.001,224l0-159.999 
		c0-70.719, 57.279-128.001, 128.001-128.001l 992.001,0 c 70.719,0, 128.001,57.279, 128.001,128.001l0,159.999 C 1375.041,261.119, 1360.641,330.56, 1334.049,365.12zM 752.001,671.999C 967.68,671.999, 1088.001,946.559, 1088.001,1133.441S 937.599,1472, 752.001,1472S 416.001,1320.32, 416.001,1133.441S 532.479,671.999, 752.001,671.999z"  />
<glyph unicode="&#xe058;" d="M 1334.049,365.12c-37.44,48.927-79.329,88.32-129.6,119.328
	C 1126.719,311.999, 953.28,191.999, 752.001,191.999s-374.721,120-452.511,292.479c-49.92-31.041-92.127-70.401-129.567-119.328C 143.361,330.56, 128.928,261.119, 128.001,224
	c 0.321-9.6,0-159.999,0-159.999c0-70.719, 57.279-128.001, 128.001-128.001l 992.001,0 c 70.719,0, 128.001,57.279, 128.001,128.001c0,0-0.321,150.399,0,159.999C 1375.041,261.119, 1360.641,330.56, 1334.049,365.12z M 578.208,568.001
	c-26.847-2.88-52.479-6.399-76.767-10.56c-27.84-7.041-48.96-32.319-48.96-62.4c0-12.48, 3.519-23.649, 9.6-33.6C 529.281,375.359, 634.209,320, 752.001,320
	c 114.879,0, 217.281,52.479, 284.799,134.721c 8.928,10.881, 14.049,24.96, 14.049,40.32c0,31.359-22.719,57.6-52.8,63.039c-24.927,4.512-51.201,8.352-79.329,11.232
	C 882.561,575.999, 855.36,601.601, 855.36,640.001c0,35.199, 26.208,62.049, 61.44,66.561c 3.489,0.639, 11.808,0.927, 11.808,0.927
	c 172.191,12.192, 289.311,47.073, 366.399,113.631C 1305.6,832.319, 1311.999,847.361, 1311.999,863.999c0,33.279-25.281,60.48-57.6,63.681C 1159.359,946.88, 1088.001,1025.6, 1088.001,1120.001l0,13.44 
	C 1088.001,1320.32, 937.599,1472, 752.001,1472S 416.001,1320.32, 416.001,1133.441L 416.001,1120.001 c0-94.401-71.361-173.121-166.401-192.321C 217.281,924.479, 192,897.281, 192,863.999c0-16.641, 6.399-31.68, 16.929-42.879
	c 77.472-66.561, 194.559-101.439, 367.071-113.631c 5.121,0, 9.951-0.321, 14.4-0.927c 35.808-5.121, 58.209-30.72, 58.209-66.561
	C 648.639,599.039, 617.952,572.801, 578.208,568.001z"  />
<glyph unicode="&#xe059;" d="M 1359.999,1151.999L 1152,1151.999 L 1152,1343.999 c0,70.719-57.279,128.001-128.001,128.001L 512.001,1472 c-70.719,0-128.001-57.279-128.001-128.001l0-192 L 176.001,1151.999 
	C 131.841,1151.999, 96,1116.161, 96,1072.001S 131.841,992, 176.001,992L 224.001,992 l0-927.999 c0-70.719, 57.279-128.001, 128.001-128.001l 831.999,0 c 70.719,0, 128.001,57.279, 128.001,128.001L 1311.999,992 l 48,0 c 44.16,0, 80.001,35.841, 80.001,80.001
	S 1404.159,1151.999, 1359.999,1151.999z M 992.001,1151.999L 543.999,1151.999 L 543.999,1241.6 C 543.999,1280.639, 575.361,1312.001, 614.4,1312.001l 307.2,0 C 960.639,1312.001, 992.001,1280.639, 992.001,1241.6L 992.001,1151.999 z M 543.999,928.001l0-768 c0-35.199-28.8-63.999-63.999-63.999s-63.999,28.8-63.999,63.999L 416.001,928.001 
	c0,35.199, 28.8,63.999, 63.999,63.999S 543.999,963.2, 543.999,928.001z M 831.999,928.001l0-768 c0-35.199-28.8-63.999-63.999-63.999s-63.999,28.8-63.999,63.999L 704.001,928.001 c0,35.199, 28.8,63.999, 63.999,63.999S 831.999,963.2, 831.999,928.001z M 1119.999,928.001l0-768 
	c0-35.199-28.8-63.999-63.999-63.999s-63.999,28.8-63.999,63.999L 992.001,928.001 c0,35.199, 28.8,63.999, 63.999,63.999S 1119.999,963.2, 1119.999,928.001z"  />
<glyph unicode="&#xe05a;" d="M 800.001,272c0,28.161-4.8,55.041-13.791,80.001l 187.233,0 C 964.8,327.041, 960,300.161, 960,272
	c0-132.513, 107.487-240, 240-240c 132.48,0, 240,107.487, 240,240c0,132.48-107.52,240-240,240L 672,512 c-35.199,0-63.999,28.8-63.999,63.999s 28.8,63.999, 63.999,63.999l 550.401,0 
	c 57.921,0, 107.808,33.951, 130.527,83.199C 1361.601,741.761, 1527.36,1119.68, 1527.36,1119.68C 1531.839,1129.952, 1536,1140.161, 1536,1151.999c0,35.199-28.8,63.999-63.999,63.999L 472.929,1216.001 l-26.88,82.881
	C 433.599,1343.36, 398.721,1376, 351.999,1376L 80.001,1376 C 35.841,1376,0,1340.159,0,1295.999S 35.841,1216.001, 80.001,1216.001l 168,0 c 28.479,0, 52.479-18.561, 60.801-43.839l 135.039-690.207
	C 369.951,441.281, 320.001,362.24, 320.001,272c0-132.513, 107.487-240, 240-240C 692.481,32, 800.001,139.487, 800.001,272z M 639.999,272c0-44.16-35.841-80.001-80.001-80.001
	S 480,227.84, 480,272s 35.841,80.001, 80.001,80.001S 639.999,316.16, 639.999,272z M 1280.001,272c0-44.16-35.841-80.001-80.001-80.001S 1119.999,227.84, 1119.999,272s 35.841,80.001, 80.001,80.001
	S 1280.001,316.16, 1280.001,272z"  />
<glyph unicode="&#xe05b;" d="M0,64.001c0-70.719, 57.279-128.001, 128.001-128.001l 1280.001,0 c 70.719,0, 128.001,57.279, 128.001,128.001L 1536,863.999 c0,70.719-57.279,128.001-128.001,128.001l-128.001,0 l0,144 
	C 1280.001,1321.601, 1129.599,1472, 944.001,1472c-75.84,0-145.599-24.96-201.6-67.2C 696.96,1427.201, 646.080,1439.999, 591.999,1439.999C 406.401,1439.999, 255.999,1289.6, 255.999,1103.999L 256.32,992L 128.001,992 c-70.719,0-128.001-57.279-128.001-128.001L0,64.001 z
	 M 1119.999,992L 768.321,992 L 768,1136C 768,1233.281, 846.72,1312.001, 944.001,1312.001S 1119.999,1233.281, 1119.999,1136L 1119.999,992 z M 608.319,992l-192,0 L 416.001,1103.999C 416.001,1201.28, 494.721,1280, 591.999,1280
	c 15.681,0, 31.041-1.953, 45.441-6.048C 618.561,1232, 608.001,1185.281, 608.001,1136L 608.319,992z M 608.001,784.001c0,44.16, 35.841,80.001, 80.001,80.001s 80.001-35.841, 80.001-80.001
	S 732.159,704, 687.999,704S 608.001,739.841, 608.001,784.001z M 1119.999,784.001c0,44.16, 35.841,80.001, 80.001,80.001s 80.001-35.841, 80.001-80.001S 1244.16,704, 1200,704S 1119.999,739.841, 1119.999,784.001z M 288,767.999
	l0-608.001 c0-35.199-28.8-63.999-63.999-63.999s-63.999,28.8-63.999,63.999L 159.999,767.999 c0,35.199, 28.8,63.999, 63.999,63.999S 288,803.201, 288,767.999z"  />
<glyph unicode="&#xe05c;" d="M 1152,1088L 1152,1280 c0,70.719-57.279,128.001-128.001,128.001L 512.001,1408.001 c-70.719,0-128.001-57.279-128.001-128.001l0-192 L 128.001,1088 c-70.719,0-128.001-57.279-128.001-128.001l0-831.999 
	c0-70.719, 57.279-128.001, 128.001-128.001l 1280.001,0 c 70.719,0, 128.001,57.279, 128.001,128.001L 1536,959.999 c0,70.719-57.279,128.001-128.001,128.001L 1152,1088 z M 614.4,1247.999l 307.2,0 C 960.639,1247.999, 992.001,1216.64, 992.001,1177.601L 992.001,1088 L 543.999,1088 L 543.999,1177.601 
	C 543.999,1216.64, 575.361,1247.999, 614.4,1247.999z M 384,863.999l0-639.999 c0-35.199-28.8-63.999-63.999-63.999s-63.999,28.8-63.999,63.999L 255.999,863.999 c0,35.199, 28.8,63.999, 63.999,63.999S 384,899.201, 384,863.999z M 1280.001,863.999l0-639.999 c0-35.199-28.8-63.999-63.999-63.999
	s-63.999,28.8-63.999,63.999L 1152,863.999 c0,35.199, 28.8,63.999, 63.999,63.999S 1280.001,899.201, 1280.001,863.999z"  />
<glyph unicode="&#xe05d;" d="M 848.001,575.999l-447.999,0 c-44.16,0-80.001-35.841-80.001-80.001s 35.841-80.001, 80.001-80.001l 447.999,0 
	c 44.16,0, 80.001,35.841, 80.001,80.001S 892.161,575.999, 848.001,575.999z M0,224c0-70.719, 57.279-128.001, 128.001-128.001l 1280.001,0 c 70.719,0, 128.001,57.279, 128.001,128.001L 1536,1184 c0,70.719-57.279,128.001-128.001,128.001L 128.001,1312.001 C 57.279,1312.001,0,1254.719,0,1184
	L0,224 z M 230.4,1151.999l 1075.2,0 c 39.039,0, 70.401-31.359, 70.401-70.401L 1376.001,992 L 159.999,992 l0,89.601 C 159.999,1120.64, 191.361,1151.999, 230.4,1151.999z M 159.999,736.001l 1215.999,0 l0-409.599 c0-39.039-31.359-70.401-70.401-70.401L 230.4,256.001 
	C 191.361,256.001, 159.999,287.36, 159.999,326.399L 159.999,736.001 z"  />
<glyph unicode="&#xe069;" d="M0,688.001C0,272.639, 336.639-64, 752.001-64C 1167.36-64, 1503.999,272.639, 1503.999,688.001S 1167.36,1439.999, 752.001,1439.999
	C 336.639,1439.999,0,1103.36,0,688.001z M 672,1199.999C 672,1244.159, 707.841,1280, 752.001,1280S 831.999,1244.159, 831.999,1199.999S 796.161,1120.001, 752.001,1120.001S 672,1155.839, 672,1199.999z M 159.999,688.001
	C 159.999,732.161, 195.84,767.999, 240,767.999s 80.001-35.841, 80.001-80.001S 284.16,608, 240,608S 159.999,643.841, 159.999,688.001z M 1184.001,688.001c0,44.16, 35.841,80.001, 80.001,80.001s 80.001-35.841, 80.001-80.001
	S 1308.159,608, 1263.999,608S 1184.001,643.841, 1184.001,688.001z M 672,176c0,44.16, 35.841,80.001, 80.001,80.001s 80.001-35.841, 80.001-80.001S 796.161,95.999, 752.001,95.999S 672,131.84, 672,176z
	 M 634.56,649.952c-16.959,16.641-232.32,235.809-232.32,235.809c-24.321,24.321-24.321,63.681,0,87.999c 24.321,24.321, 63.681,24.321, 87.999,0l 211.2-211.809
	c 18.879-18.561, 49.92-18.561, 68.511,0l 307.809,307.809c 24.321,24.321, 63.681,24.321, 87.999,0s 24.321-63.681,0-87.999c0,0-312.321-316.161-328.929-332.799
	C 810.879,623.681, 775.071,608, 735.999,608C 696.321,608, 660.48,623.999, 634.56,649.952z"  />
<glyph unicode="&#xe06a;" d="M 128.001,560C 128.001,215.36, 407.361-64, 752.001-64C 1096.641-64, 1376.001,215.36, 1376.001,560
	c0,279.999-184.32,516.801-438.399,595.839l-0.321,0.321C 912.927,1165.439, 896.001,1188.8, 896.001,1216.001c0,35.199, 28.8,63.999, 63.999,63.999l 15.999,0 C 1020.159,1280, 1056,1315.841, 1056,1360.001S 1020.159,1439.999, 975.999,1439.999l-447.999,0 
	C 483.84,1439.999, 447.999,1404.161, 447.999,1360.001S 483.84,1280, 528,1280L 543.999,1280 c 35.199,0, 63.999-28.8, 63.999-63.999c0-27.84-17.919-51.519-42.561-60.513c-58.881-18.207-113.919-45.087-164.16-79.041
	L 342.399,1135.361c-22.080,22.047-58.56,22.047-80.673,0l-85.119-85.152c-22.080-22.047-22.080-58.527,0-80.64l 58.881-58.881C 167.679,810.56, 128.001,689.951, 128.001,560z
	 M 672,944c0,44.16, 35.841,80.001, 80.001,80.001s 80.001-35.841, 80.001-80.001S 796.161,863.999, 752.001,863.999S 672,899.84, 672,944z M 288,560c0,44.16, 35.841,80.001, 80.001,80.001
	s 80.001-35.841, 80.001-80.001S 412.161,479.999, 368.001,479.999S 288,515.84, 288,560z M 1056,560c0,44.16, 35.841,80.001, 80.001,80.001s 80.001-35.841, 80.001-80.001S 1180.161,479.999, 1136.001,479.999
	S 1056,515.84, 1056,560z M 672,176c0,44.16, 35.841,80.001, 80.001,80.001s 80.001-35.841, 80.001-80.001S 796.161,95.999, 752.001,95.999S 672,131.84, 672,176z M 1069.761,789.761
	l-259.488-259.521c-24.321-24.288-63.681-24.288-87.999,0c-24.321,24.351-24.321,63.711,0,87.999l 259.521,259.521c 24.321,24.321, 63.681,24.321, 87.999,0
	S 1094.049,814.049, 1069.761,789.761z"  />
<glyph unicode="&#xe06b;" d="M 745.953,1162.208c-94.719-94.719-72.672-217.92-104.352-337.92L 110.4,1360.64
	C 98.88,1372.799, 82.239,1380.479, 63.999,1380.479c-35.199,0-63.999-28.479-63.999-63.999l0-21.759 c0-192.96, 83.232-550.080, 343.071-836.16L 37.119,152.927c-49.599-49.569-49.599-130.209,0-179.808
	c 49.599-49.632, 130.239-49.632, 179.52,0L 521.601,278.399L 704.001,95.999l 157.44,143.040l 265.953-265.92c 49.248-49.632, 129.921-49.632, 179.487,0c 49.632,49.599, 49.632,130.239,0,179.808
	L 886.047,577.28c 121.311,33.279, 245.439,9.921, 340.191,104.673l 286.047,286.047c 31.68,31.359, 31.68,82.56,0,114.207c-31.68,31.713-82.881,31.713-114.24,0
	L 1146.24,830.72c-18.879-18.879-49.632-18.879-68.511,0c-19.2,18.879-19.2,49.599,0,68.481l 251.52,251.841c 31.647,31.359, 31.647,82.56,0,114.24
	c-31.68,31.647-82.881,31.647-114.207,0L 963.201,1013.759c-18.879-19.2-49.599-19.2-68.481,0c-18.879,18.879-18.879,49.632,0,68.481l 251.52,251.841
	c 31.68,31.359, 31.68,82.56,0,114.24s-82.881,31.68-114.24,0L 745.953,1162.208z"  />
<glyph unicode="&#xe06c;" d="M0,388.799C0,209.279, 145.281,64.001, 324.801,64.001l 534.399,0 C 1038.72,64.001, 1184.001,209.279, 1184.001,388.799L 1184.001,453.761 
	c 132.159,100.479, 351.999,173.76, 351.999,378.24c0,141.441-114.561,255.999-255.999,255.999c-33.951,0-66.24-6.399-96-18.561L 1184.001,1184 c0,70.719-57.279,128.001-128.001,128.001L 128.001,1312.001 C 57.279,1312.001,0,1254.719,0,1184L0,388.799 z M 1184.001,636.8
	L 1184.001,832.001 c0,53.121, 42.879,96, 96,96s 96-42.879, 96-96C 1376.001,733.121, 1276.161,694.721, 1184.001,636.8z M 288,1088l0-639.999 c0-35.199-28.8-63.999-63.999-63.999s-63.999,28.8-63.999,63.999L 159.999,1088 c0,35.199, 28.8,63.999, 63.999,63.999
	S 288,1123.199, 288,1088z"  />
<glyph unicode="&#xe06d;" d="M 1184.001,306.56c 29.76-11.841, 62.049-18.561, 96-18.561c 141.441,0, 255.999,114.561, 255.999,255.999L 1536,1024.001 
	c0,141.441-114.561,255.999-255.999,255.999c-33.951,0-66.24-6.72-96-18.561L 1184.001,1343.999 c0,70.719-57.279,128.001-128.001,128.001L 128.001,1472 C 57.279,1472,0,1414.721,0,1343.999l0-1083.201 C0,81.281, 145.281-64, 324.801-64L 859.2-64 
	C 1038.72-64, 1184.001,81.281, 1184.001,260.801L 1184.001,306.56 z M 288,1247.999l0-927.999 c0-35.199-28.8-63.999-63.999-63.999s-63.999,28.8-63.999,63.999L 159.999,1247.999 c0,35.199, 28.8,63.999, 63.999,63.999S 288,1283.201, 288,1247.999z M 1376.001,544.001c0-53.121-42.879-96-96-96
	s-96,42.879-96,96L 1184.001,1024.001 c0,53.121, 42.879,96, 96,96s 96-42.879, 96-96L 1376.001,544.001 z"  />
<glyph unicode="&#xe06e;" d="M 192,944c0-282.24, 208.641-515.52, 480-554.241L 672,160.001 c0-35.199-28.8-63.999-63.999-63.999l-176.001,0 
	c-44.16,0-80.001-35.841-80.001-80.001s 35.841-80.001, 80.001-80.001l 639.999,0 c 44.16,0, 80.001,35.841, 80.001,80.001S 1116.159,95.999, 1071.999,95.999L 896.001,95.999 c-35.199,0-63.999,28.8-63.999,63.999l0,229.761 
	c 271.359,38.721, 480,272.001, 480,554.241L 1311.999,1343.999 c0,70.719-57.279,128.001-128.001,128.001L 320.001,1472 C 249.279,1472, 192,1414.721, 192,1343.999L 192,944 z M 422.4,1312.001l 659.199,0 C 1120.641,1312.001, 1152,1280.639, 1152,1241.6l0-179.199 
	c0-39.039-31.359-70.401-70.401-70.401L 422.4,992 c-39.039,0-70.401,31.359-70.401,70.401L 351.999,1241.6 C 351.999,1280.639, 383.361,1312.001, 422.4,1312.001z"  />
<glyph unicode="&#xe06f;" d="M 512.001,512l0-351.999 c0-35.199-28.8-63.999-63.999-63.999L 272.001,95.999 C 227.841,95.999, 192,60.161, 192,16.001S 227.841-64, 272.001-64l 639.999,0 
	c 44.16,0, 80.001,35.841, 80.001,80.001S 956.16,95.999, 912,95.999L 735.999,95.999 c-35.199,0-63.999,28.8-63.999,63.999L 672,512 l 258.879,262.047C 993.6,729.953, 1069.761,704, 1152,704c 212.16,0, 384,171.84, 384,384
	S 1364.16,1472, 1152,1472c-201.279,0-366.399-154.881-382.719-351.999L 63.36,1120.001 C 28.479,1120.001,0,1091.201,0,1055.999c0-17.952, 7.359-34.239, 19.2-45.792L 512.001,512z M 1046.4,890.207l 119.040,120.672
	C 1176.927,1022.399, 1184.001,1038.401, 1184.001,1055.999c0,35.199-28.512,63.999-63.36,63.999l-190.401,0 c 15.711,108.48, 108.801,192, 221.793,192c 123.84,0, 224.001-100.161, 224.001-224.001s-100.161-224.001-224.001-224.001
	C 1113.951,863.999, 1077.759,873.599, 1046.4,890.207z"  />
<glyph unicode="&#xe070;" d="M 1184.001,242.561c 29.76-11.841, 62.049-18.561, 96-18.561c 141.441,0, 255.999,114.561, 255.999,255.999L 1536,959.999 
	c0,141.441-114.561,255.999-255.999,255.999c-33.951,0-66.24-6.72-96-18.561L 1184.001,1343.999 c0,70.719-57.279,128.001-128.001,128.001L 128.001,1472 C 57.279,1472,0,1414.721,0,1343.999l0-1280.001 c0-70.719, 57.279-128.001, 128.001-128.001l 927.999,0 c 70.719,0, 128.001,57.279, 128.001,128.001
	L 1184.001,242.561 z M 230.4,1312.001l 723.201,0 C 992.64,1312.001, 1023.999,1280.639, 1023.999,1241.6l0-179.199 c0-39.039-31.359-70.401-70.401-70.401L 230.4,992 C 191.361,992, 159.999,1023.359, 159.999,1062.401L 159.999,1241.6 C 159.999,1280.639, 191.361,1312.001, 230.4,1312.001z
	 M 1376.001,479.999c0-53.121-42.879-96-96-96s-96,42.879-96,96L 1184.001,959.999 c0,53.121, 42.879,96, 96,96s 96-42.879, 96-96L 1376.001,479.999 z"  />
<glyph unicode="&#xe071;" d="M 672,357.761L 672,16.001 c0-44.16, 35.841-80.001, 80.001-80.001s 80.001,35.841, 80.001,80.001L 831.999,357.761 
	c 271.359,38.721, 480,272.001, 480,554.241C 1311.999,1221.44, 1061.439,1472, 752.001,1472S 192,1221.44, 192,911.999C 192,629.759, 400.641,396.479, 672,357.761z M 800.001,850.88
	c 30.048,50.241, 3.201,102.048-56.961,102.048c-62.079,0-90.879-55.008-90.879-128.928c0-72, 64.959-166.047, 147.84-166.047c 140.16,0, 240,111.999, 240,238.047
	c0,174.048-139.839,303.039-303.999,303.039c-193.92,0-312-151.041-312-335.040c0-42.879, 0.639-89.601, 12.801-151.68c 9.279-46.368-40.32-50.88-52.8-20.16
	C 361.92,745.952, 337.92,832.001, 337.92,896c0,249.951, 168,416.001, 398.079,416.001c 220.161,0, 416.001-182.049, 416.001-416.001c0-152.001-111.999-351.999-334.047-351.999
	c-173.793,0-296.991,111.999-296.991,288c0,120, 81.921,240, 231.999,240c 119.040,0, 175.041-111.072, 175.041-163.839c0-22.401-4.512-78.72-38.049-108.159
	C 850.881,766.049, 776.961,805.121, 800.001,850.88z"  />
<glyph unicode="&#xe072;" d="M 543.999,852.161L 24.96,140.159C 9.279,118.721,0,92.48,0,64.001c0-70.719, 57.279-128.001, 128.001-128.001l 1280.001,0 
	c 70.719,0, 128.001,57.279, 128.001,128.001c0,28.479-9.279,54.72-24.927,76.161L 992.001,852.161L 992.001,1312.001 l 15.999,0 C 1052.16,1312.001, 1088.001,1347.839, 1088.001,1391.999S 1052.16,1472, 1008,1472l-480,0 C 483.84,1472, 447.999,1436.159, 447.999,1391.999
	S 483.84,1312.001, 528,1312.001L 543.999,1312.001 L 543.999,852.161 z M 704.001,1312.001l 128.001,0 l0-480 l 224.001-320.001L 480,512 l 224.001,320.001L 704.001,1312.001 z"  />
<glyph unicode="&#xe07e;" d="M 788.001,896c 69.153-15.999, 124.128-74.88, 140.127-139.2c 5.505-30.081, 31.68-52.8, 63.072-52.8
	c 35.199,0, 63.999,28.8, 63.999,63.999c0,46.047-38.688,116.16-91.488,168.639C 911.808,987.839, 850.047,1024.001, 799.167,1024.001c-35.199,0-63.999-29.793-63.999-64.959
	C 735.201,927.68, 757.92,901.439, 788.001,896z M 191.199,719.999c0-32.319, 2.559-64.32, 8.001-95.073l-111.681-36.48c-42.24-13.761-65.28-58.881-51.519-100.767
	c 13.761-42.24, 58.881-64.959, 100.8-51.519l 111.681,36.48c 28.479-57.6, 66.561-109.761, 111.999-153.921l-69.12-95.328c-25.92-35.841-17.919-85.791, 17.919-111.681
	c 35.52-25.953, 85.761-18.24, 111.681,17.601l 69.153,95.328c 55.359-29.439, 116.481-49.92, 181.119-58.881l0-117.759 c0-44.16, 35.841-80.001, 80.001-80.001c 44.16,0, 80.001,35.841, 80.001,80.001
	l0,117.759 c 64.641,8.961, 125.76,29.439, 181.119,58.881l 69.12-95.328c 25.953-35.841, 76.191-43.521, 111.681-17.601c 35.808,25.92, 43.809,75.84, 17.952,111.681l-69.441,95.328
	c 45.759,44.16, 83.808,96.321, 111.999,153.921l 111.999-36.48c 41.889-13.44, 87.009,9.279, 100.737,51.519c 13.761,41.919-9.249,87.039-51.489,100.767l-111.681,36.48
	c 5.439,30.753, 8.001,62.751, 8.001,95.073s-2.559,64.32-8.001,95.040l 111.681,36.513c 42.24,13.761, 65.247,58.881, 51.489,100.767
	c-13.761,42.24-58.881,64.959-100.737,51.519l-111.999-36.48c-28.191,57.567-66.24,109.761-111.999,154.209l 69.441,95.040c 25.887,35.841, 17.889,85.791-17.952,111.681
	c-35.487,25.92-85.761,18.24-111.681-17.601l-69.12-95.040c-55.68,29.121-116.511,49.599-181.119,58.527L 831.231,1391.999 c0,44.16-35.841,80.001-80.001,80.001
	c-44.16,0-80.001-35.841-80.001-80.001l0-117.792 c-64.641-8.928-125.76-29.409-181.119-58.527l-69.153,95.040c-25.92,35.841-76.161,43.488-111.681,17.601
	c-35.841-25.92-43.839-75.84-17.919-111.681l 69.12-95.040c-45.441-44.481-83.52-96.672-111.999-154.209l-111.681,36.48c-41.919,13.44-87.039-9.279-100.8-51.519
	c-13.761-41.919, 9.279-87.039, 51.519-100.767l 111.681-36.513C 193.761,784.319, 191.199,752.321, 191.199,719.999z M 351.201,719.999c0,220.8, 179.199,399.999, 399.999,399.999
	c 220.8,0, 399.999-179.199, 399.999-399.999s-179.199-399.999-399.999-399.999C 530.4,320, 351.201,499.199, 351.201,719.999z"  />
<glyph unicode="&#xe07f;" d="M 255.999,423.041C 255.999,153.953, 478.080-64, 752.001-64C 1025.952-64, 1248,153.953, 1248,423.041
	C 1248,767.999, 863.073,992, 831.999,1376L 831.999,1391.999 C 831.999,1436.159, 796.161,1472, 752.001,1472S 672,1436.159, 672,1391.999L 672,1376 C 639.999,992, 255.999,767.999, 255.999,423.041z M 820.8,224c 69.12,15.999, 124.128,74.88, 140.127,139.2
	C 966.399,393.281, 992.64,416, 1023.999,416c 35.199,0, 63.999-28.8, 63.999-63.999c0-46.047-38.721-116.16-91.488-168.639C 944.64,132.161, 882.879,95.999, 831.999,95.999c-35.199,0-63.999,29.76-63.999,64.929
	C 768,192.32, 790.719,218.561, 820.8,224z"  />
<glyph unicode="&#xe080;" d="M 672,1391.999l0-52.161 C 318.72,1302.719, 38.079,1024.001, 0.321,672.929L0,671.999c0-35.199, 28.8-63.999, 64.32-63.999L 672,608 l0-432 
	c0-132.48, 107.487-240, 240-240s 240,107.52, 240,240c0,44.16-35.841,80.001-80.001,80.001S 992.001,220.16, 992.001,176S 956.16,95.999, 912,95.999S 831.999,131.84, 831.999,176L 831.999,608 l 607.359,0 
	c 34.56,0, 62.688,26.88, 64.32,60.801C 1503.999,670.4, 1503.999,671.999, 1503.999,673.601C 1465.953,1024.319, 1185.279,1303.040, 831.999,1339.841L 831.999,1391.999 C 831.999,1436.159, 796.161,1472, 752.001,1472S 672,1436.159, 672,1391.999z"  />
<glyph unicode="&#xe081;" d="M 1407.999,287.999c 70.719,0, 128.001,57.279, 128.001,128.001L 1536,1216.001 c0,70.719-57.279,128.001-128.001,128.001L 704.001,1343.999 c-70.719,0-128.001-57.279-128.001-128.001l0-128.001 l-194.559,0 
	c-42.879,0-80.961-16.959-108.48-44.16l-161.919-162.561C 81.921,852.479, 63.999,812.159, 63.999,767.999l0-321.6 c-36.48-7.359-63.999-39.681-63.999-78.399C0,323.84, 35.841,287.999, 80.001,287.999l 112.641,0 
	c 8.001-125.121, 112.32-224.001, 239.361-224.001s 231.36,98.88, 239.361,224.001l 224.961,0 c 8.319-125.121, 112.641-224.001, 239.679-224.001c 127.041,0, 231.36,98.88, 239.361,224.001L 1407.999,287.999 z M 512.001,304.001
	c0-44.16-35.841-80.001-80.001-80.001S 351.999,259.841, 351.999,304.001s 35.841,80.001, 80.001,80.001S 512.001,348.161, 512.001,304.001z M 1215.999,304.001c0-44.16-35.841-80.001-80.001-80.001S 1056,259.841, 1056,304.001
	s 35.841,80.001, 80.001,80.001S 1215.999,348.161, 1215.999,304.001z M 224.001,671.999l0,80.928 c0,32.001, 12.801,47.073, 36.801,71.073l 68.799,68.799c 21.759,21.759, 38.4,35.199, 69.759,35.199L 576,928.001 l0-255.999 L 224.001,671.999 z"  />
<glyph unicode="&#xe082;" d="M 896.001,1312.001l-96,0 c-251.199,0-457.281-192.639-478.401-438.399C 168.639,793.28, 63.999,632.927, 63.999,448.001l 0.321-1.599
	C 27.489,439.040,0,406.721,0,368C0,323.84, 35.841,287.999, 80.001,287.999l 112.641,0 c 8.001-125.121, 112.32-224.001, 239.361-224.001c 127.041,0, 231.36,98.88, 239.361,224.001l 225.249,0 
	c 8.001-125.121, 112.32-224.001, 239.361-224.001c 132.48,0, 240,107.52, 240,240c0,8.64-0.639,17.601-1.599,25.953C 1471.041,385.28, 1536,488.927, 1536,608l0,217.599 
	c0,39.039-31.359,70.401-70.401,70.401l-93.759,0 C 1340.481,1130.879, 1139.487,1312.001, 896.001,1312.001z M 768,1150.4L 768,832.001 l-288,0 C 480,998.048, 606.399,1134.401, 768,1150.4z M 927.999,832.001l0,318.399 
	c 161.601-15.999, 288-152.352, 288-318.399L 927.999,832.001 z M 512.001,304.001c0-44.16-35.841-80.001-80.001-80.001S 351.999,259.841, 351.999,304.001s 35.841,80.001, 80.001,80.001S 512.001,348.161, 512.001,304.001z M 1215.999,304.001
	c0-44.16-35.841-80.001-80.001-80.001S 1056,259.841, 1056,304.001s 35.841,80.001, 80.001,80.001S 1215.999,348.161, 1215.999,304.001z"  />
<glyph unicode="&#xe083;" d="M 1023.999,95.999L 1023.999,800 l 48,0 c 26.559,0, 48-21.441, 48-48l0-447.999 c0-114.879, 93.12-207.999, 207.999-207.999
	s 207.999,93.12, 207.999,207.999L 1536,1165.439 c0,45.12-18.561,85.761-48.321,114.879l-169.632,168.639c-30.687,30.753-80.319,30.753-111.039,0c-30.72-30.72-30.72-80.319,0-111.009
	l 110.079-110.4l-81.279-84.801c-26.559-27.201-26.559-71.040,0-98.241c 13.089-14.049, 30.72-20.769, 48.321-20.481L 1376.001,1024.319L 1376.001,304.001 c0-26.559-21.441-48-48-48
	S 1280.001,277.439, 1280.001,304.001l0,447.999 c0,114.879-93.12,207.999-207.999,207.999L 1023.999,959.999 L 1023.999,1343.999 c0,70.719-57.279,128.001-128.001,128.001L 224.001,1472 C 153.279,1472, 96,1414.721, 96,1343.999l0-1248 L 80.001,95.999 C 35.841,95.999,0,60.161,0,16.001
	S 35.841-64, 80.001-64l 960,0 c 44.16,0, 80.001,35.841, 80.001,80.001S 1084.161,95.999, 1040.001,95.999L 1023.999,95.999 z M 326.4,1312.001l 467.199,0 C 832.641,1312.001, 864,1280.639, 864,1241.6l0-339.201 
	c0-39.039-31.359-70.401-70.401-70.401L 326.4,832.001 C 287.361,832.001, 255.999,863.36, 255.999,902.399L 255.999,1241.6 C 255.999,1280.639, 287.361,1312.001, 326.4,1312.001z"  />
<glyph unicode="&#xe084;" d="M 1536,896.639C 1536,931.52, 1507.2,959.999, 1472.001,959.999c-17.601,0-33.6-7.071-45.12-18.561L 1152,704.927
	l0,191.679 C 1152,931.52, 1123.2,959.999, 1088.001,959.999c-17.601,0-33.6-7.071-45.12-18.561L 768,704.927l0,191.679 C 768,931.52, 739.2,959.999, 704.001,959.999c-17.601,0-33.6-7.071-45.12-18.561
	l-277.761-238.719L 320.001,1401.599C 320.001,1440.641, 288.639,1472, 249.6,1472L 134.4,1472 C 95.361,1472, 63.999,1440.641, 63.999,1401.599L0,64.001c0-70.719, 57.279-128.001, 128.001-128.001l 1280.001,0 c 70.719,0, 128.001,57.279, 128.001,128.001L 1536,896.639 z M 608.001,484.16
	l0-72.321 c0-32.961-26.88-59.841-59.841-59.841l-72.321,0 C 442.881,352.001, 416.001,378.881, 416.001,411.839l0,72.321 c0,32.961, 26.88,59.841, 59.841,59.841l 72.321,0 
	C 581.121,544.001, 608.001,517.121, 608.001,484.16z M 992.001,484.16l0-72.321 c0-32.961-26.88-59.841-59.841-59.841l-72.321,0 C 826.881,352.001, 800.001,378.881, 800.001,411.839l0,72.321 
	c0,32.961, 26.88,59.841, 59.841,59.841l 72.321,0 C 965.121,544.001, 992.001,517.121, 992.001,484.16z M 1376.001,484.16l0-72.321 c0-32.961-26.88-59.841-59.841-59.841l-72.321,0 
	C 1210.881,352.001, 1184.001,378.881, 1184.001,411.839l0,72.321 c0,32.961, 26.88,59.841, 59.841,59.841l 72.321,0 C 1349.121,544.001, 1376.001,517.121, 1376.001,484.16z"  />
<glyph unicode="&#xe085;" d="M 735.999,160.001l0,128.001 l 384.639,0 c 34.881,0, 63.36,28.8, 63.36,63.999c0,17.601-7.071,33.6-18.561,45.12
	L 925.119,640.001l 99.489,0 c 34.881,0, 63.36,28.8, 63.36,63.999c0,17.601-7.071,33.6-18.561,45.12L 829.119,992l 99.489,0 c 34.881,0, 63.36,29.439, 63.36,65.601
	c0,17.952-7.071,34.239-18.561,46.080L 637.119,1452.8c-24.96,25.599-65.28,25.599-90.207,0L 211.2,1104.32C 199.359,1092.479, 192,1075.841, 192,1057.601C 192,1021.439, 220.479,992, 255.36,992
	l 99.201,0 L 115.2,749.792C 103.359,738.209, 96,721.952, 96,704c0-35.199, 28.479-63.999, 63.36-63.999l 99.201,0 L 19.2,397.793C 7.359,386.207,0,369.953,0,352.001c0-35.199, 28.479-63.999, 63.36-63.999L 480,287.999 l0-128.001 
	c0-35.199-28.8-63.999-63.999-63.999L 80.001,95.999 C 35.841,95.999,0,60.161,0,16.001S 35.841-64, 80.001-64l 1376.001,0 c 44.16,0, 80.001,35.841, 80.001,80.001S 1500.159,95.999, 1455.999,95.999L 800.001,95.999 C 764.799,95.999, 735.999,124.799, 735.999,160.001
	z"  />
<glyph unicode="&#xe086;" d="M 216,263.423L 23.040,70.079c-30.72-30.687-30.72-80.289,0-111.072
	c 30.687-30.72, 80.319-30.72, 111.039,0l 192.96,193.023c 275.841-220.224, 680.319-201.024, 937.281,56.001c 30.753,30.72, 53.76,63.039, 78.399,97.311l 14.4,21.759
	c 11.808,17.601, 18.879,39.039, 18.879,62.079c0,36.159-17.28,68.481-44.16,88.959l-15.681,11.52c-34.209,24.351-65.28,45.441-102.72,62.721
	c 88.959,23.361, 164.511,70.752, 235.2,141.504c 23.679,23.649, 45.12,48.288, 63.999,74.241l 9.633,14.4c 8.64,12.768, 13.761,28.479, 13.761,45.153
	c0,26.529-12.801,49.92-32.64,64.641l-20.511,14.079c-51.201,33.633-98.559,56.352-157.44,68.193c 15.36,12.159, 30.048,25.311, 44.16,39.393
	c 90.561,90.561, 137.601,208.032, 141.12,325.824c0,3.84-1.281,21.759-1.281,26.529c0,44.16-35.841,80.001-80.001,80.001l-24.321,0.672
	c-118.401-3.201-236.511-50.241-327.36-141.153c-14.049-14.049-27.201-28.767-39.327-44.16c-12.159,60.159-35.52,107.871-70.401,160.383L 956.799,1437.728
	C 942.399,1458.527, 918.048,1472, 890.88,1472c-15.681,0-30.369-4.512-42.879-12.513c-4.8-2.88-17.952-12.768-19.839-14.049c-24.672-18.24-48-38.721-70.401-61.152
	c-70.719-70.719-118.080-145.599-141.441-234.591c-17.601,37.761-38.721,68.511-63.36,103.041l-10.881,15.072c-20.481,26.88-53.121,44.481-89.601,44.481
	c-23.040,0-44.769-7.071-62.721-19.2c-4.479-3.231-17.28-12.513-18.879-13.791c-34.56-24.96-67.521-47.328-98.88-78.72
	C 15.039,943.583-4.161,539.009, 216,263.423z"  />
<glyph unicode="&#xe087;" d="M 192,479.999c0-300.48, 243.519-543.999, 543.999-543.999l 32.001,0 c 300.513,0, 543.999,243.519, 543.999,543.999c0,67.521-9.6,132.159-32.001,192
	c-185.952,0-349.761-93.12-447.999-235.2l0,243.201 c 182.721,37.119, 320.001,198.399, 320.001,392.001L 1152,1408.64 C 1152,1443.521, 1123.2,1472, 1088.001,1472c-17.952,0-34.239-7.359-45.759-19.2L 920.64,1332.479
	L 800.001,1452.8c-25.599,25.599-66.879,25.599-92.16,0l-122.559-122.241L 461.76,1452.8C 450.24,1464.641, 433.92,1472, 416.001,1472c-35.199,0-63.999-28.479-63.999-63.36L 351.999,1072.001 
	c0-193.599, 137.28-354.879, 320.001-392.001l0-243.201 C 573.759,578.879, 409.92,671.999, 224.001,671.999C 201.6,612.161, 192,547.52, 192,479.999z"  />
<glyph unicode="&#xe093;" d="M 1331.136,352.319c-3.807-26.241-15.999-51.552-36.129-71.745
	c-49.953-49.887-130.881-49.887-180.801,0l-90.561,90.561c-24.927,24.993-65.631,24.993-90.561,0l-303.648-303.327c-49.953-50.241-130.881-50.241-180.801,0l-316.8,316.737
	c-50.241,49.953-50.241,130.944,0,180.801l 303.36,303.711c 24.96,24.96, 24.96,65.601,0,90.561l-90.561,90.561c-49.92,49.92-49.92,130.881,0,180.768
	c 20.16,20.16, 45.441,32.319, 71.679,36.159l 864.993,110.751c 88.929,0, 160.641-71.679, 160.641-160.671L 1331.136,352.319z"  />
<glyph unicode="&#xe094;" d="M 204.96,352.319c 3.84-26.241, 15.999-51.552, 36.159-71.745c 49.92-49.887, 130.881-49.887, 180.801,0
	l 90.561,90.561c 24.96,24.993, 65.601,24.993, 90.561,0l 303.648-303.327c 49.953-50.241, 130.881-50.241, 180.801,0l 316.8,316.737c 49.953,49.953, 49.953,130.944,0,180.801
	l-303.36,303.711c-24.927,24.96-24.927,65.601,0,90.561l 90.24,90.561c 50.241,49.92, 50.241,130.881,0,180.768c-19.872,20.16-45.12,32.319-71.361,36.159L 254.559,1377.887
	c-88.641,0-160.641-71.679-160.32-160.671L 204.96,352.319z"  />
<glyph unicode="&#xe095;" d="M 1331.136,1055.84c-3.807,26.241-15.999,51.519-36.129,71.679
	c-49.953,49.92-130.881,49.92-180.801,0l-90.561-90.561c-24.927-24.96-65.631-24.96-90.561,0l-303.681,303.36c-49.92,49.92-130.881,49.92-180.801,0l-316.8-316.8
	c-50.241-49.953-50.241-130.911,0-180.801l 303.36-303.681c 24.96-24.927, 24.96-65.601,0-90.561l-90.561-90.528c-49.92-49.953-49.92-130.911,0-180.801
	c 20.16-20.16, 45.441-32.319, 71.679-36.159l 864.96-110.721c 88.929-0.321, 160.641,71.679, 160.641,160.32L 1331.136,1055.84z"  />
<glyph unicode="&#xe096;" d="M 204.96,1055.84c 3.84,26.241, 15.999,51.519, 36.159,71.679c 49.92,49.92, 130.881,49.92, 180.801,0
	l 90.561-90.561c 24.96-24.96, 65.601-24.96, 90.561,0l 303.648,303.36c 49.953,49.92, 130.881,49.92, 180.801,0l 316.8-316.8c 49.953-49.953, 49.953-130.911,0-180.801l-303.36-303.681
	c-24.927-24.927-24.927-65.601,0-90.561l 90.24-90.528c 50.241-49.953, 50.241-130.911,0-180.801c-19.872-20.16-45.12-32.319-71.361-36.159l-865.281-110.721
	c-88.641-0.321-160.641,71.679-160.32,160.32L 204.96,1055.84z"  />
<glyph unicode="&#xe097;" d="M 891.489,1317.791L 831.999,854.048C 831.999,806.399, 870.399,767.999, 918.048,767.999l 463.68,59.52
	c 13.761,1.92, 27.519,8.319, 38.079,19.2c 26.88,26.88, 26.88,70.047,0,96.96l-77.439,77.439l 172.161,171.84c 28.479,28.479, 28.479,74.559,0,103.041L 1359.999,1450.559
	c-28.512,28.479-74.559,28.479-103.071,0L 1085.121,1278.719l-77.439,77.121c-26.88,26.88-70.080,26.88-96.96,0C 899.841,1345.28, 893.439,1331.519, 891.489,1317.791z
	 M 644.481,1317.791c-1.92,13.761-8.319,27.489-19.2,38.049c-26.88,26.88-70.080,26.88-96.96,0l-77.439-77.121L 279.039,1450.559c-28.479,28.479-74.559,28.479-103.041,0
	L 21.441,1295.999c-28.512-28.479-28.512-74.559,0-103.041l 172.161-171.84l-77.439-77.439c-26.88-26.913-26.88-70.080,0-96.96c 10.56-10.881, 24.321-17.28, 38.049-19.2
	L 617.952,767.999C 665.601,767.999, 704.001,806.399, 704.001,854.048L 644.481,1317.791z M 891.489,90.209c 1.953-13.761, 8.352-27.489, 19.233-38.049c 26.88-26.88, 70.080-26.88, 96.96,0
	l 77.439,77.121l 171.807-171.84c 28.512-28.479, 74.559-28.479, 103.071,0l 154.56,154.56c 28.479,28.479, 28.479,74.559,0,103.041l-172.161,171.84l 77.439,77.439
	c 26.88,26.88, 26.88,70.080,0,96.96c-10.56,10.881-24.351,17.28-38.079,19.2L 918.048,640.001C 870.399,640.001, 831.999,601.601, 831.999,553.952L 891.489,90.209z M 644.481,90.209
	L 704.001,553.952C 704.001,601.601, 665.601,640.001, 617.952,640.001L 154.209,580.481c-13.761-1.92-27.489-8.319-38.049-19.2c-26.88-26.88-26.88-70.080,0-96.96l 77.439-77.439
	l-172.161-171.84c-28.512-28.479-28.512-74.559,0-103.041l 154.56-154.56c 28.479-28.479, 74.559-28.479, 103.041,0l 171.84,171.84l 77.439-77.121c 26.88-26.88, 70.080-26.88, 96.96,0
	C 636.159,62.72, 642.561,76.481, 644.481,90.209z"  />
<glyph unicode="&#xe098;" d="M 59.487,485.792L0,22.049C0-25.6, 38.4-64, 86.049-64l 463.68,59.52
	c 13.761,1.92, 27.519,8.319, 38.079,19.2c 26.88,26.88, 26.88,70.047,0,96.96l-77.439,77.439l 172.161,171.84c 28.479,28.479, 28.479,74.559,0,103.041l-154.56,154.56
	c-28.512,28.479-74.559,28.479-103.071,0L 253.119,446.72l-77.439,77.121c-26.88,26.88-70.080,26.88-96.96,0C 67.839,513.281, 61.44,499.52, 59.487,485.792z
	 M 1476.48,485.792c-1.92,13.761-8.319,27.489-19.2,38.049c-26.88,26.88-70.080,26.88-96.96,0l-77.439-77.121l-171.84,171.84c-28.479,28.479-74.559,28.479-103.041,0
	l-154.56-154.56c-28.512-28.479-28.512-74.559,0-103.041l 172.161-171.84l-77.439-77.439c-26.88-26.913-26.88-70.080,0-96.96c 10.56-10.881, 24.321-17.28, 38.049-19.2
	L 1449.951-64C 1497.6-64, 1536-25.6, 1536,22.049L 1476.48,485.792z M 59.487,922.208C 61.44,908.48, 67.839,894.719, 78.72,884.159c 26.88-26.88, 70.080-26.88, 96.96,0
	l 77.439,77.121l 171.807-171.84c 28.512-28.479, 74.559-28.479, 103.071,0l 154.56,154.56c 28.479,28.479, 28.479,74.559,0,103.041l-172.161,171.84l 77.439,77.439
	c 26.88,26.88, 26.88,70.080,0,96.96c-10.56,10.881-24.351,17.28-38.079,19.2L 86.049,1472C 38.4,1472,0,1433.6,0,1385.951L 59.487,922.208z M 1476.48,922.208L 1536,1385.951
	C 1536,1433.6, 1497.6,1472, 1449.951,1472L 986.208,1412.48c-13.761-1.92-27.489-8.319-38.049-19.2c-26.88-26.88-26.88-70.080,0-96.96l 77.439-77.439l-172.161-171.84
	c-28.512-28.479-28.512-74.559,0-103.041l 154.56-154.56c 28.479-28.479, 74.559-28.479, 103.041,0l 171.84,171.84l 77.439-77.121c 26.88-26.88, 70.080-26.88, 96.96,0
	C 1468.161,894.719, 1474.56,908.48, 1476.48,922.208z"  />
<glyph unicode="&#xe099;" d="M 879.039,781.121L 1248,1055.999c 42.561,42.561, 42.561,85.44,0,128.001L 879.039,1458.881
	C 867.489,1467.2, 853.119,1472, 837.759,1472C 799.041,1472, 768,1441.952, 768,1404.767L 768,1280 C 396.801,1279.040, 96,978.56, 96,608c0-371.232, 301.761-672, 673.599-672
	c 345.279,0, 629.793,258.879, 669.12,592.32C 1439.040,529.28, 1440,539.519, 1440,544.001c0,35.199-28.8,63.999-64.32,63.999l-161.28,0 c-52.8,0-92.799-36.48-98.241-66.879
	C 1085.121,378.56, 941.76,256.001, 769.599,256.001c-194.88,0-352.671,157.44-352.671,351.999c0,193.953, 156.801,351.039, 351.072,351.999l0-124.8 c0-37.119, 31.041-67.2, 69.759-67.2
	C 853.119,767.999, 867.489,772.769, 879.039,781.121z"  />
<glyph unicode="&#xe037;" d="M 384,64.001c0-70.719, 57.279-128.001, 128.001-128.001l 480,0 c 70.719,0, 128.001,57.279, 128.001,128.001l0,37.44 
	c0,30.048, 20.799,55.359, 48.927,62.049C 1322.559,187.199, 1440,320, 1440,479.999c0,72-23.679,138.561-63.999,192l0,218.88 C 1376.001,1211.84, 1096.641,1472, 752.001,1472S 128.001,1211.84, 128.001,890.879L 128.001,671.999 
	c-40.32-53.439-63.999-120-63.999-192c0-159.999, 117.441-292.8, 271.041-316.512c 28.161-6.687, 48.96-32.001, 48.96-62.049L 384,64.001 z M 320.001,704c0,88.32, 71.679,159.999, 159.999,159.999s 159.999-71.679, 159.999-159.999
	s-71.679-159.999-159.999-159.999S 320.001,615.68, 320.001,704z M 864,704c0,88.32, 71.679,159.999, 159.999,159.999s 159.999-71.679, 159.999-159.999s-71.679-159.999-159.999-159.999S 864,615.68, 864,704z M 594.207,362.24l 112.671,112.641
	c 24.96,24.96, 65.28,24.96, 90.24,0l 112.641-112.641c 24.321-24.321, 24.321-63.681,0-87.999s-63.681-24.321-87.999,0l-69.759,69.759l-69.792-69.759
	c-24.288-24.321-63.648-24.321-87.999,0C 569.952,298.559, 569.952,337.952, 594.207,362.24z"  />
<glyph unicode="&#xe038;" d="M0,431.999C0,387.839, 35.841,352.001, 80.001,352.001S 159.999,387.839, 159.999,431.999l0,73.599 C 159.999,544.64, 191.361,575.999, 230.4,575.999
	l 28.161,0 C 256.959,561.281, 255.999,545.951, 255.999,530.24c0-62.4, 11.841-121.953, 33.279-176.673L 192,248.927C 173.76,229.439, 159.999,186.239, 159.999,160.001l0-144 C 159.999-28.159, 195.84-64, 240-64
	s 80.001,35.841, 80.001,80.001l0,97.953 c0,14.367, 4.161,27.489, 11.52,38.688l 48.96,52.191c 61.44-69.441, 131.52-140.193, 235.2-168.321
	c 2.241-0.993, 4.8-1.632, 7.359-2.241C 628.479,32.639, 634.239,32, 639.999,32c 35.199,0, 63.999,28.8, 63.999,63.999L 704.001,640.001 c0,35.199, 28.8,63.999, 63.999,63.999c 35.199,0, 63.999-28.8, 63.999-63.999l0-543.999 
	c0-35.199, 28.8-63.999, 63.999-63.999c 6.72,0, 13.44,0.927, 19.839,3.201l 8.001,2.241c 99.231,27.489, 170.88,98.559, 231.648,167.361l 48.993-52.191
	C 1211.841,141.44, 1215.999,128.321, 1215.999,113.951L 1215.999,16.001 c0-44.16, 35.841-80.001, 80.001-80.001s 80.001,35.841, 80.001,80.001L 1376.001,160.001 c0,26.241-13.761,69.441-32.001,88.929l-97.281,104.673
	C 1268.16,408.32, 1280.001,467.84, 1280.001,530.24c0,15.681-0.927,31.041-2.559,45.759l 28.161,0 c 39.039,0, 70.401-31.359, 70.401-70.401l0-73.599 c0-44.16, 35.841-80.001, 80.001-80.001
	s 80.001,35.841, 80.001,80.001L 1536,575.999 c0,88.32-71.679,159.999-159.999,159.999l-150.72,0 c-14.4,26.88-30.72,52.8-47.328,78.72L 1311.999,959.999c 18.24,19.521, 32.001,65.28, 32.001,96L 1344,1199.999 
	C 1344,1244.159, 1308.159,1280, 1263.999,1280S 1184.001,1244.159, 1184.001,1199.999l0-105.6 c0-14.4-4.161-27.519-11.487-38.721l-86.079-92.16C 1050.561,1033.28, 1023.999,1112.96, 1023.999,1216.001
	c0,119.361-81.6,219.519-192,248.001L 831.999,1312.001 c0-35.199-28.8-63.999-63.999-63.999c-35.199,0-63.999,28.8-63.999,63.999L 704.001,1463.999 C 593.601,1435.52, 512.001,1335.359, 512.001,1216.001c0-102.72-26.88-182.079-62.721-251.841l-85.761,91.521
	C 356.16,1066.88, 351.999,1079.999, 351.999,1094.399L 351.999,1199.999 C 351.999,1244.159, 316.161,1280, 272.001,1280S 192,1244.159, 192,1199.999L 192,1055.999 c0-30.72, 13.761-76.479, 32.001-96l 133.44-144.639
	c-16.959-25.92-32.961-52.161-47.361-79.359L 159.999,736.001 c-88.32,0-159.999-71.679-159.999-159.999L0,431.999 z"  />
<glyph unicode="&#xe039;" d="M 752.001,1439.999C 707.841,1439.999, 672,1404.161, 672,1360.001l0-117.441 c-44.481-6.399-87.36-18.24-128.001-34.239l-58.56,101.76
	c-22.401,38.079-71.040,51.201-109.44,29.121s-51.519-71.040-29.439-109.119l 58.881-102.081c-34.56-27.519-65.919-58.881-93.441-93.441l-102.081,58.881
	c-38.079,22.080-87.039,8.961-109.119-29.439s-8.961-87.039, 29.121-109.44l 101.76-58.881c-15.999-40.32-27.84-83.199-34.239-127.68L 80.001,767.999 C 35.841,767.999,0,732.161,0,688.001
	S 35.841,608, 80.001,608l 117.441,0 c 6.399-44.511, 18.24-87.36, 34.239-127.68l-101.76-58.881c-38.079-22.401-51.201-71.040-29.121-109.44s 71.040-51.489, 109.119-29.439l 102.081,58.881
	c 27.519-34.56, 58.881-65.952, 93.441-93.441l-58.881-102.048c-22.080-38.079-8.961-87.072, 29.439-109.119c 38.4-22.080, 87.039-8.961, 109.44,29.121L 543.999,167.681
	c 40.641-15.999, 83.52-27.84, 128.001-34.239l0-117.441 c0-44.16, 35.841-80.001, 80.001-80.001s 80.001,35.841, 80.001,80.001l0,117.441 c 44.511,6.399, 87.36,18.24, 128.001,34.239l 58.56-101.76
	c 22.368-38.079, 71.040-51.231, 109.44-29.121c 38.4,22.047, 51.489,71.040, 29.439,109.119l-58.881,102.048c 34.56,27.489, 65.952,58.881, 93.441,93.441l 102.048-58.881
	c 38.079-22.047, 87.072-8.961, 109.119,29.439c 22.080,38.4, 8.961,87.039-29.121,109.44l-101.76,58.881c 15.999,40.32, 27.84,83.199, 34.239,127.68l 117.441,0 
	c 44.16,0, 80.001,35.841, 80.001,80.001S 1468.161,767.999, 1424.001,767.999l-117.441,0 c-6.399,44.481-18.24,87.36-34.239,127.68l 101.76,58.881c 38.079,22.401, 51.231,71.040, 29.121,109.44
	c-22.047,38.4-71.040,51.519-109.119,29.439l-102.048-58.881c-27.489,34.56-58.881,65.919-93.441,93.441l 58.881,102.081c 22.047,38.079, 8.961,87.039-29.439,109.119
	s-87.072,8.961-109.44-29.121L 960,1208.321c-40.641,15.999-83.487,27.84-128.001,34.239L 831.999,1360.001 C 831.999,1404.161, 796.161,1439.999, 752.001,1439.999z M 543.999,512c0,88.32, 71.679,159.999, 159.999,159.999s 159.999-71.679, 159.999-159.999
	s-71.679-159.999-159.999-159.999S 543.999,423.68, 543.999,512z M 864,815.999c0,61.761, 50.241,111.999, 111.999,111.999s 111.999-50.241, 111.999-111.999c0-61.761-50.241-111.999-111.999-111.999S 864,754.241, 864,815.999z
	 M 608.001,976.001c0,44.16, 35.841,80.001, 80.001,80.001s 80.001-35.841, 80.001-80.001S 732.159,896, 687.999,896S 608.001,931.841, 608.001,976.001z"  />
<glyph unicode="&#xe03a;" d="M0,704c0-424.32, 343.68-768, 768-768s 768,343.68, 768,768S 1192.32,1472, 768,1472S0,1128.32,0,704z
	 M 159.999,704c0,49.281, 5.76,97.281, 16.959,143.040L 320.001,704l-32.001-192l 128.001-128.001l0-175.68 C 261.12,318.401, 159.999,499.487, 159.999,704z M 628.161,1295.681C 672.96,1306.559, 719.679,1312.001, 768,1312.001
	c 53.439,0, 105.279-7.041, 154.56-19.839L 896.001,1247.999l 32.001-32.001l 96,0 l 26.559,26.559c 22.368-11.841, 43.488-24.639, 63.999-39.039L 1056,1184l-63.999-63.999l 63.999-32.001l0-32.001 l-63.999,0 l0-63.999 c0,0, 44.16-32.001, 96-32.001
	c 50.88,0, 28.161,70.080, 63.999,96c 36.159,25.92, 80.001,20.16, 80.001,20.16l 20.799-5.439c 39.039-51.519, 70.047-109.119, 91.2-171.519L 1344,896 c0,0-45.12,32.001-128.001,32.001s-159.999-32.001-159.999-32.001
	s-90.24-26.241-96-96c-9.951-120, 32.001-159.999, 32.001-159.999l 159.999-96l0-311.361 C 1047.36,147.2, 913.599,95.999, 768,95.999c-68.799,0-134.721,11.199-196.479,32.319L 735.999,512l-32.001,159.999c0,0-127.041,159.999-192,159.999
	s-96-96-96-96l-63.999,128.001l 192,128.001l 96,255.999L 628.161,1295.681z"  />
<glyph unicode="&#xe04c;" d="M 447.999,1472c-70.719,0-128.001-57.279-128.001-128.001l0-1344 c0-35.199, 28.8-63.999, 63.999-63.999c 17.601,0, 33.6,7.041, 45.12,18.561
	l 165.759,164.799c 24.96,25.248, 65.601,25.248, 90.561,0l 165.441-164.799C 862.401-56.959, 878.4-64, 896.001-64c 35.199,0, 63.999,28.8, 63.999,63.999L 960,1247.999 c0,37.119, 28.8,63.999, 63.999,63.999l 80.001,0 
	C 1148.16,1312.001, 1184.001,1347.839, 1184.001,1391.999S 1148.16,1472, 1104,1472L 447.999,1472 z"  />
<glyph unicode="&#xe04d;" d="M 128.001,1343.999l0-1280.001 c0-70.719, 57.279-128.001, 128.001-128.001l 1071.999,0 c 44.16,0, 80.001,35.841, 80.001,80.001S 1372.161,95.999, 1328.001,95.999L 351.999,95.999 
	c-35.199,0-63.999,28.8-63.999,63.999s 28.8,63.999, 63.999,63.999l 927.999,0 c 70.719,0, 128.001,57.279, 128.001,128.001L 1407.999,1343.999 c0,70.719-57.279,128.001-128.001,128.001L 831.999,1472 l0-575.679 c0-8.319-3.201-16.641-9.279-23.040
	c-12.48-12.48-32.961-12.48-45.441,0C 768.96,881.951, 639.999,989.12, 639.999,989.12s-128.961-107.199-137.28-115.839c-12.48-12.48-32.961-12.48-45.441,0
	C 451.2,879.68, 447.999,887.999, 447.999,896.321L 447.999,1472 L 255.999,1472 C 185.28,1472, 128.001,1414.721, 128.001,1343.999z"  />
<glyph unicode="&#xe04e;" d="M0,160.001c0-70.719, 57.279-128.001, 128.001-128.001l 1280.001,0 c 70.719,0, 128.001,57.279, 128.001,128.001L 1536,1216.001 c0,70.719-57.279,128.001-128.001,128.001L 416.001,1343.999 
	c-70.719,0-128.001-57.279-128.001-128.001l0-960 c0-35.199-28.8-63.999-63.999-63.999s-63.999,28.8-63.999,63.999L 159.999,1103.999 C 159.999,1148.159, 124.161,1184, 80.001,1184S0,1148.159,0,1103.999L0,160.001 z M 896.001,1113.599l0-243.201 
	c0-39.039-31.359-70.401-70.401-70.401l-307.2,0 c-39.039,0-70.401,31.359-70.401,70.401l0,243.201 C 447.999,1152.641, 479.361,1184, 518.4,1184l 307.2,0 C 864.639,1184, 896.001,1152.641, 896.001,1113.599z M 1311.999,544.001L 512.001,544.001 
	c-35.199,0-63.999,28.8-63.999,63.999s 28.8,63.999, 63.999,63.999l 800.001,0 c 35.199,0, 63.999-28.8, 63.999-63.999S 1347.201,544.001, 1311.999,544.001z M 1311.999,287.999L 512.001,287.999 c-35.199,0-63.999,28.8-63.999,63.999s 28.8,63.999, 63.999,63.999l 800.001,0 c 35.199,0, 63.999-28.8, 63.999-63.999
	S 1347.201,287.999, 1311.999,287.999z M 1311.999,1055.999l-224.001,0 c-35.199,0-63.999,28.8-63.999,63.999s 28.8,63.999, 63.999,63.999l 224.001,0 c 35.199,0, 63.999-28.8, 63.999-63.999S 1347.201,1055.999, 1311.999,1055.999z M 1311.999,800l-224.001,0 c-35.199,0-63.999,28.8-63.999,63.999s 28.8,63.999, 63.999,63.999l 224.001,0 
	c 35.199,0, 63.999-28.8, 63.999-63.999S 1347.201,800, 1311.999,800z"  />
<glyph unicode="&#xe04f;" d="M0,64.001c0-70.719, 57.279-128.001, 128.001-128.001l 1280.001,0 c 70.719,0, 128.001,57.279, 128.001,128.001L 1536,1184 c0,70.719-57.279,128.001-128.001,128.001l-128.001,0 L 1280.001,1391.999 
	C 1280.001,1436.159, 1244.16,1472, 1200,1472S 1119.999,1436.159, 1119.999,1391.999L 1119.999,1312.001 l-128.001,0 L 992.001,1391.999 C 992.001,1436.159, 956.16,1472, 912,1472S 831.999,1436.159, 831.999,1391.999L 831.999,1312.001 l-128.001,0 L 704.001,1391.999 C 704.001,1436.159, 668.16,1472, 624,1472
	S 543.999,1436.159, 543.999,1391.999L 543.999,1312.001 l-128.001,0 L 416.001,1391.999 C 416.001,1436.159, 380.16,1472, 336,1472S 255.999,1436.159, 255.999,1391.999L 255.999,1312.001 L 128.001,1312.001 C 57.279,1312.001,0,1254.719,0,1184L0,64.001 z M 230.4,1151.999L 255.999,1151.999 l0-111.999 c0-44.16, 35.841-80.001, 80.001-80.001
	s 80.001,35.841, 80.001,80.001L 416.001,1151.999 l 128.001,0 l0-111.999 c0-44.16, 35.841-80.001, 80.001-80.001s 80.001,35.841, 80.001,80.001L 704.001,1151.999 l 128.001,0 l0-111.999 c0-44.16, 35.841-80.001, 80.001-80.001s 80.001,35.841, 80.001,80.001L 992.001,1151.999 l 128.001,0 l0-111.999 
	c0-44.16, 35.841-80.001, 80.001-80.001s 80.001,35.841, 80.001,80.001L 1280.001,1151.999 l 25.599,0 c 39.039,0, 70.401-31.359, 70.401-70.401l0-339.201 c0-39.039-31.359-70.401-70.401-70.401L 230.4,671.999 
	C 191.361,671.999, 159.999,703.361, 159.999,742.4L 159.999,1081.601 C 159.999,1120.64, 191.361,1151.999, 230.4,1151.999z"  />
<glyph unicode="&#xe011;" d="M 860.799,404.159l 93.12-93.12c 30.687-30.72, 80.289-30.72, 111.009,0
	c 30.753,30.72, 30.753,80.352,0,111.039L 972.159,515.201l 92.769,92.799c0,0-351.327,150.081-365.727,155.52C 691.521,766.4, 683.52,767.999, 675.201,767.999
	c-37.119,0-67.2-29.76-67.2-66.561c0-8.64, 1.599-16.641, 4.479-24C 617.919,663.68, 768,311.039, 768,311.039L 860.799,404.159z M0,95.999c0-70.719, 57.279-128.001, 128.001-128.001l 1280.001,0 
	c 70.719,0, 128.001,57.279, 128.001,128.001L 1536,1280 c0,70.719-57.279,128.001-128.001,128.001L 128.001,1408.001 C 57.279,1408.001,0,1350.719,0,1280L0,95.999 z M 230.4,959.999l 1075.2,0 c 39.039,0, 70.401-31.359, 70.401-70.401l0-691.2 
	c0-39.039-31.359-70.401-70.401-70.401L 230.4,128 C 191.361,128, 159.999,159.359, 159.999,198.401L 159.999,889.601 C 159.999,928.64, 191.361,959.999, 230.4,959.999z M 159.999,1168.001C 159.999,1212.161, 195.84,1247.999, 240,1247.999S 320.001,1212.161, 320.001,1168.001
	S 284.16,1088, 240,1088S 159.999,1123.841, 159.999,1168.001z M 447.999,1168.001C 447.999,1212.161, 483.84,1247.999, 528,1247.999S 608.001,1212.161, 608.001,1168.001S 572.16,1088, 528,1088S 447.999,1123.841, 447.999,1168.001z M 735.999,1168.001
	C 735.999,1212.161, 771.84,1247.999, 816,1247.999S 896.001,1212.161, 896.001,1168.001S 860.16,1088, 816,1088S 735.999,1123.841, 735.999,1168.001z"  />
<glyph unicode="&#xe012;" d="M 1119.999,1136c0-44.16, 35.841-80.001, 80.001-80.001s 80.001,35.841, 80.001,80.001S 1244.16,1216.001, 1200,1216.001
	S 1119.999,1180.16, 1119.999,1136z M 1119.999,623.999c0-44.16, 35.841-80.001, 80.001-80.001s 80.001,35.841, 80.001,80.001S 1244.16,704, 1200,704S 1119.999,668.159, 1119.999,623.999z M0,416c0-70.719, 57.279-128.001, 128.001-128.001
	l 543.999,0 l0-88.32 c-15.681-10.56-29.121-24-39.681-39.681L 240,160.001 C 195.84,160.001, 159.999,124.16, 159.999,80S 195.84-0.001, 240-0.001l 392.319,0 c 25.92-38.721, 69.759-63.999, 119.679-63.999
	s 93.759,25.281, 119.679,63.999L 1296-0.001 c 44.16,0, 80.001,35.841, 80.001,80.001S 1340.16,160.001, 1296,160.001L 871.68,160.001 c-10.56,15.681-24,29.121-39.681,39.681L 831.999,287.999 l 576,0 c 70.719,0, 128.001,57.279, 128.001,128.001L 1536,1343.999 
	c0,70.719-57.279,128.001-128.001,128.001L 128.001,1472 C 57.279,1472,0,1414.721,0,1343.999L0,416 z M 230.4,1312.001l 1075.2,0 C 1344.639,1312.001, 1376.001,1280.639, 1376.001,1241.6l0-211.2 c0-39.039-31.359-70.401-70.401-70.401L 230.4,959.999 
	C 191.361,959.999, 159.999,991.361, 159.999,1030.4L 159.999,1241.6 C 159.999,1280.639, 191.361,1312.001, 230.4,1312.001z M 230.4,800l 1075.2,0 c 39.039,0, 70.401-31.359, 70.401-70.401l0-211.2 c0-39.039-31.359-70.401-70.401-70.401L 230.4,448.001 
	C 191.361,448.001, 159.999,479.36, 159.999,518.399l0,211.2 C 159.999,768.641, 191.361,800, 230.4,800z"  />
<glyph unicode="&#xe013;" d="M 831.999,880.001c0,44.16-35.841,80.001-80.001,80.001S 672,924.161, 672,880.001s 35.841-80.001, 80.001-80.001
	S 831.999,835.841, 831.999,880.001z M 255.999,1472C 167.679,1472, 96,1400.321, 96,1312.001l0-1215.999 c0-88.32, 71.679-159.999, 159.999-159.999l 992.001,0 c 88.32,0, 159.999,71.679, 159.999,159.999L 1407.999,1312.001 c0,88.32-71.679,159.999-159.999,159.999L 255.999,1472 z M 752.001,1312.001
	C 990.72,1312.001, 1184.001,1118.72, 1184.001,880.001c0-124.479-52.512-236.799-136.959-315.519c-43.2,32.673-83.52,64.671-106.56,87.999c-68.769,68.799-180.159,68.799-248.961,0
	c-52.128-52.161-64.641-129.279-37.761-193.281C 462.399,503.681, 320.001,675.2, 320.001,880.001C 320.001,1118.72, 513.279,1312.001, 752.001,1312.001z M 255.999,176c0,44.16, 35.841,80.001, 80.001,80.001
	s 80.001-35.841, 80.001-80.001S 380.16,95.999, 336,95.999S 255.999,131.84, 255.999,176z M 782.4,561.599c 19.2,19.233, 50.208,19.233, 69.759,0c 11.232-11.52, 325.791-232.959, 362.241-269.439
	c 44.769-45.12, 44.769-117.759,0-162.561c-44.799-44.769-117.471-44.769-162.561,0c-38.4,38.4-258.912,351.999-269.439,362.241C 763.2,511.361, 763.2,542.399, 782.4,561.599z"  />
<glyph unicode="&#xe014;" d="M 1311.999,992c0,159.039-128.961,288-288,288L 512.001,1280 c-59.52,0-109.791,40.641-123.84,96
	c0,0-4.161,10.56-4.161,15.999C 384,1436.159, 348.159,1472, 303.999,1472S 224.001,1436.159, 224.001,1391.999c0-6.081, 0.639-11.841, 1.953-17.601C 242.559,1231.040, 364.161,1120.001, 512.001,1120.001l 512.001,0 
	c 70.719,0, 128.001-57.279, 128.001-128.001L 128.001,992 c-70.719,0-128.001-57.279-128.001-128.001l0-800.001 c0-70.719, 57.279-128.001, 128.001-128.001l 1280.001,0 c 70.719,0, 128.001,57.279, 128.001,128.001L 1536,863.999 c0,70.719-57.279,128.001-128.001,128.001L 1311.999,992 z M 944.001,832.001
	c 44.16,0, 80.001-35.841, 80.001-80.001S 988.161,671.999, 944.001,671.999S 864,707.84, 864,752S 899.841,832.001, 944.001,832.001z M 944.001,544.001c 44.16,0, 80.001-35.841, 80.001-80.001S 988.161,383.999, 944.001,383.999
	S 864,419.84, 864,464S 899.841,544.001, 944.001,544.001z M 591.999,832.001c 44.16,0, 80.001-35.841, 80.001-80.001S 636.159,671.999, 591.999,671.999S 512.001,707.84, 512.001,752S 547.839,832.001, 591.999,832.001z
	 M 591.999,544.001c 44.16,0, 80.001-35.841, 80.001-80.001S 636.159,383.999, 591.999,383.999S 512.001,419.84, 512.001,464S 547.839,544.001, 591.999,544.001z M 240,832.001c 44.16,0, 80.001-35.841, 80.001-80.001
	S 284.16,671.999, 240,671.999S 159.999,707.84, 159.999,752S 195.84,832.001, 240,832.001z M 240,544.001c 44.16,0, 80.001-35.841, 80.001-80.001S 284.16,383.999, 240,383.999S 159.999,419.84, 159.999,464S 195.84,544.001, 240,544.001z
	 M 240,256.001c 44.16,0, 80.001-35.841, 80.001-80.001S 284.16,95.999, 240,95.999S 159.999,131.84, 159.999,176S 195.84,256.001, 240,256.001z M 1296,832.001c 44.16,0, 80.001-35.841, 80.001-80.001
	S 1340.16,671.999, 1296,671.999S 1215.999,707.84, 1215.999,752S 1251.84,832.001, 1296,832.001z M 1296,544.001c 44.16,0, 80.001-35.841, 80.001-80.001S 1340.16,383.999, 1296,383.999S 1215.999,419.84, 1215.999,464
	S 1251.84,544.001, 1296,544.001z M 1296,256.001c 44.16,0, 80.001-35.841, 80.001-80.001S 1340.16,95.999, 1296,95.999S 1215.999,131.84, 1215.999,176S 1251.84,256.001, 1296,256.001z M 1023.999,95.999L 512.001,95.999 
	c-35.199,0-63.999,28.8-63.999,63.999s 28.8,63.999, 63.999,63.999l 512.001,0 c 35.199,0, 63.999-28.8, 63.999-63.999S 1059.201,95.999, 1023.999,95.999z"  />
<glyph unicode="&#xe026;" d="M0,64.001c0-70.719, 57.279-128.001, 128.001-128.001l 1280.001,0 c 70.719,0, 128.001,57.279, 128.001,128.001L 1536,959.999 c0,70.719-57.279,128.001-128.001,128.001L 847.041,1088 
	l 249.921,249.921c 30.753,30.72, 30.753,80.319,0,111.039c-30.72,30.72-80.319,30.72-111.009,0L 624.639,1088l-1.599,0 l-264.96,264.96c-30.72,30.72-80.319,30.72-111.039,0
	c-30.72-30.72-30.72-80.319,0-111.039l 153.6-153.921L 128.001,1088 c-70.719,0-128.001-57.279-128.001-128.001L0,64.001 z M 230.4,928.001l 787.2,0 c 39.039,0, 70.401-31.359, 70.401-70.401l0-691.2 
	c0-39.039-31.359-70.401-70.401-70.401L 230.4,95.999 C 191.361,95.999, 159.999,127.361, 159.999,166.4L 159.999,857.6 C 159.999,896.639, 191.361,928.001, 230.4,928.001z M 1215.999,848c0,44.16, 35.841,80.001, 80.001,80.001
	s 80.001-35.841, 80.001-80.001S 1340.16,767.999, 1296,767.999S 1215.999,803.84, 1215.999,848z M 1215.999,592.001c0,44.16, 35.841,80.001, 80.001,80.001s 80.001-35.841, 80.001-80.001S 1340.16,512, 1296,512
	S 1215.999,547.841, 1215.999,592.001z"  />
<glyph unicode="&#xe027;" d="M 1040.001,1024.001c-114.879,0-207.999-93.12-207.999-207.999s 93.12-207.999, 207.999-207.999s 207.999,93.12, 207.999,207.999
	S 1154.88,1024.001, 1040.001,1024.001z M 1215.999,256.001l0-80.001 c0-44.16, 35.841-80.001, 80.001-80.001s 80.001,35.841, 80.001,80.001L 1376.001,256.001 l 32.001,0 c 70.719,0, 128.001,57.279, 128.001,128.001L 1536,815.999 C 1536,1089.92, 1313.952,1312.001, 1040.001,1312.001
	c-144.321,0-274.239-61.761-364.8-159.999L 128.001,1151.999 c-70.719,0-128.001-57.279-128.001-128.001l0-639.999 c0-70.719, 57.279-128.001, 128.001-128.001l 32.001,0 l0-80.001 C 159.999,131.84, 195.84,95.999, 240,95.999s 80.001,35.841, 80.001,80.001L 320.001,256.001 L 1215.999,256.001 z
	 M 159.999,911.999C 159.999,956.159, 195.84,992, 240,992s 80.001-35.841, 80.001-80.001S 284.16,832.001, 240,832.001S 159.999,867.839, 159.999,911.999z M 1040.001,1151.999C 1225.599,1151.999, 1376.001,1001.6, 1376.001,815.999
	S 1225.599,479.999, 1040.001,479.999S 704.001,630.401, 704.001,815.999S 854.4,1151.999, 1040.001,1151.999z"  />
<glyph unicode="&#xe028;" d="M 470.016,341.792c 24.672-67.488, 98.559-102.369, 165.441-77.76l 322.911,111.009l 45.759-191.007
	c 9.888-46.047, 75.489-87.999, 123.777-87.999l 183.999,0 c 35.199,0, 63.999-28.8, 63.999-64.032l0-15.999 c0-44.193, 35.871-80.001, 80.001-80.001c 44.193,0, 80.001,35.808, 80.001,80.001l0,160.032 l0,159.999 
	c0,44.127-35.808,80.001-80.001,80.001c-44.127,0-80.001-35.871-80.001-80.001l0-15.999 c0-35.199-28.8-63.999-63.999-63.999l-96,0 c-35.199,0-55.359,29.76-63.999,63.999l-28.512,111.681l 327.681,112.671
	c 66.879,24.639, 101.439,99.489, 77.121,167.361l-242.559,674.592c-24.321,67.521-98.241,102.432-165.12,77.76L 304.896,1183.775c-66.849-24.672-101.409-99.519-77.055-167.391
	l 55.041-153.279l-120.927-44.481l-5.793,15.36c-15.039,42.24-61.44,63.999-103.041,48.639c-41.952-15.36-63.36-62.079-48.321-104.673L 148.161,379.52
	c 15.039-42.561, 61.44-64.32, 103.329-48.927c 41.631,15.681, 63.327,62.367, 47.967,104.64L 288,464.033l 47.967,26.913l 58.881,15.072L 470.016,341.792z M 1023.936,1200.065
	c0,44.16, 35.871,80.001, 79.968,80.001c 44.193,0, 80.001-35.871, 80.001-80.001s-35.808-80.001-80.001-80.001C 1059.807,1120.064, 1023.936,1155.935, 1023.936,1200.065z"  />
</font>
</defs>
</svg>
