<?xml version="1.0" standalone="no"?>
<!DOCTYPE svg PUBLIC "-//W3C//DTD SVG 1.1//EN" "http://www.w3.org/Graphics/SVG/1.1/DTD/svg11.dtd" >
<svg xmlns="http://www.w3.org/2000/svg">
<metadata>
This is a custom SVG font generated by IcoMoon.
<iconset grid="24"></iconset>
</metadata>
<defs>
<font id="ty" horiz-adv-x="768" >
<font-face units-per-em="768" ascent="736" descent="-32" />
<missing-glyph horiz-adv-x="768" />
<glyph class="hidden" unicode="&#xf000;" d="M0,736L 768 -32L0 -32 z" horiz-adv-x="0" />
<glyph unicode="&#xe000;" d="M 656,480c-5.632,0-10.976-1.568-16-3.936L 640,480 c0,52.928-43.072,96-96,96L 192,576 C 139.072,576, 96,532.928, 96,480l0-224 c0-52.928, 43.072-96, 96-96l 352,0 
			c 52.928,0, 96,43.072, 96,96l0,3.936 C 645.024,257.568, 650.368,256, 656,256c 26.4,0, 48,28.8, 48,64l0,96 C 704,451.2, 682.4,480, 656,480z M 576,256
			c0-17.664-14.368-32-32-32L 192,224 c-17.632,0-32,14.336-32,32L 160,480 c0,17.664, 14.368,32, 32,32l 352,0 c 17.632,0, 32-14.336, 32-32L 576,256 zM 192,480L 288,480L 288,256L 192,256z"  />
<glyph unicode="&#xe001;" d="M 288,480L 384,480L 384,256L 288,256zM 160,480L 256,480L 256,256L 160,256zM 624,483.936c-5.632,0-10.976-1.568-16-3.936l0,0c0,52.928-43.072,96-96,96L 160,576 C 107.072,576, 64,532.928, 64,480l0-224 c0-52.928, 43.072-96, 96-96l 352,0 
			c 52.928,0, 96,43.072, 96,96l0,0c 5.024-2.368, 10.368-3.936, 16-3.936c 26.4,0, 48,28.8, 48,64L 672,419.936 C 672,455.136, 650.4,483.936, 624,483.936z
			 M 544,256c0-17.664-14.368-32-32-32L 160,224 c-17.632,0-32,14.336-32,32L 128,480 c0,17.664, 14.368,32, 32,32l 352,0 c 17.632,0, 32-14.336, 32-32L 544,256 z"  />
<glyph unicode="&#xe002;" d="M 288,480L 384,480L 384,256L 288,256zM 160,480L 256,480L 256,256L 160,256zM 416,480L 512,480L 512,256L 416,256zM 624,483.936c-5.632,0-10.976-1.568-16-3.936l0,0c0,52.928-43.072,96-96,96L 160,576 C 107.072,576, 64,532.928, 64,480l0-224 c0-52.928, 43.072-96, 96-96l 352,0 
			c 52.928,0, 96,43.072, 96,96l0,0c 5.024-2.368, 10.368-3.936, 16-3.936c 26.4,0, 48,28.8, 48,64L 672,419.936 C 672,455.136, 650.4,483.936, 624,483.936z
			 M 544,256c0-17.664-14.368-32-32-32L 160,224 c-17.632,0-32,14.336-32,32L 128,480 c0,17.664, 14.368,32, 32,32l 352,0 c 17.632,0, 32-14.336, 32-32L 544,256 z"  />
<glyph unicode="&#xe003;" d="M 624,480c-5.632,0-10.976-1.568-16-3.936L 608,480 c0,52.928-43.072,96-96,96L 160,576 C 107.072,576, 64,532.928, 64,480l0-224 c0-52.928, 43.072-96, 96-96l 352,0 
			c 52.928,0, 96,43.072, 96,96l0,3.936 C 613.024,257.568, 618.368,256, 624,256c 26.4,0, 48,28.8, 48,64l0,96 C 672,451.2, 650.4,480, 624,480z M 544,256
			c0-17.664-14.368-32-32-32L 160,224 c-17.632,0-32,14.336-32,32L 128,480 c0,17.664, 14.368,32, 32,32l 352,0 c 17.632,0, 32-14.336, 32-32L 544,256 zM 160,256l 352,0 L 512,480 L 160,480 L 160,256 z M 310.048,426.144l 17.056,12.64l 10.912-22.24c 10.304-21.056, 19.744-42.496, 26.72-64.864L 448,384l-86.112-74.048
			l-15.328-13.184l-12.512,22.752c-11.136,20.352-19.328,41.856-26.24,63.776C 280.864,371.168, 253.44,359.936, 224,352
			C 250.528,380.32, 279.904,403.872, 310.048,426.144z"  />
<glyph unicode="&#xe004;" d="M 608,416L 448,416L 448,576L 288,576L 288,416L 128,416L 128,256L 288,256L 288,96L 448,96L 448,256L 608,256 			z"  />
<glyph unicode="&#xe005;" d="M 640,512L 544,608L 400,464L 256,608L 160,512L 304,368L 160,224L 256,128L 400,272L 544,128L 640,224L 496,368 			z"  />
<glyph unicode="&#xe006;" d="M 288,608L 192,512L 336,368L 192,224L 288,128L 528,368 			z"  />
<glyph unicode="&#xe007;" d="M 448,608L 544,512L 400,368L 544,224L 448,128L 208,368 			z"  />
<glyph unicode="&#xe008;" d="M 128,102.4L 288,102.4L 544,358.4L 384,518.4L 128,262.4 			zM 192,166.4L 192,262.4L 288,166.4 			zM 480,614.4L 640,454.4L 576,390.432L 416,550.4z"  />
<glyph unicode="&#xe009;" d="M 619.36,216.192l 1.12,1.12l-90.208,90.208c 14.784,29.856, 23.328,63.36, 23.328,98.88c0,123.52-100.512,224-224,224s-224-100.48-224-224s 100.512-224, 224-224
			c 35.52,0, 68.992,8.544, 98.88,23.328l 90.208-90.208l 1.12,1.12C 532.576,103.872, 550.144,96, 569.6,96c 38.88,0, 70.4,31.52, 70.4,70.4
			C 640,185.856, 632.128,203.456, 619.36,216.192z M 329.6,278.4c-70.592,0-128,57.408-128,128s 57.408,128, 128,128s 128-57.408, 128-128S 400.192,278.4, 329.6,278.4z"  />
<glyph unicode="&#xe00a;" d="M 160,576L 288,576L 288,448L 160,448zM 160,416L 288,416L 288,288L 160,288zM 160,256L 288,256L 288,128L 160,128zM 320,576L 448,576L 448,448L 320,448zM 320,416L 448,416L 448,288L 320,288zM 320,256L 448,256L 448,128L 320,128zM 480,576L 608,576L 608,448L 480,448zM 480,416L 608,416L 608,288L 480,288zM 480,256L 608,256L 608,128L 480,128z"  />
<glyph unicode="&#xe00b;" d="M 160,576L 288,576L 288,448L 160,448zM 320,576L 608,576L 608,448L 320,448zM 160,416L 288,416L 288,288L 160,288zM 320,416L 608,416L 608,288L 320,288zM 160,256L 288,256L 288,128L 160,128zM 320,256L 608,256L 608,128L 320,128z"  />
<glyph unicode="&#xe00c;" d="M 559.968,112.128L 384,240.48l-176.064-128.352l 67.264,207.68L 99.2,448l 217.6,0 L 384,655.872L 451.232,448l 217.6,0 l-176.032-128.192L 559.968,112.128z"  />
<glyph unicode="&#xe00d;" d="M 384,436C 384,513.312, 321.312,576, 244,576S 104,513.312, 104,436c0-36.064, 5.088-89.088, 56-140S 384,128, 384,128
			s 173.088,117.088, 224,168s 56,103.936, 56,140C 664,513.312, 601.312,576, 524,576S 384,513.312, 384,436"  />
<glyph unicode="&#xe00e;" d="M 657.504,277.6c-13.408,39.296-36.576,77.344-67.040,109.344c-30.432,32.096-67.232,58.528-106.784,79.328
				C 443.744,486.912, 402.24,503.072, 353.408,512L 352,512 L 352,640 l-288-224l 288-224l0,128.352 c 25.664,7.424, 57.824,9.984, 88.576,8.608
				c 31.616-1.632, 63.328-7.552, 93.312-19.456c 29.952-11.904, 57.984-30.336, 81.984-55.712C 639.744,228.224, 658.624,195.84, 672,160
				C 674.432,198.016, 670.88,238.112, 657.504,277.6z"  />
<glyph unicode="&#xe00f;" d="M-238.496,277.6c-13.408,39.264-36.544,77.344-67.040,109.344c-30.432,32.096-67.2,58.528-106.784,79.328
				C-452.256,486.912-493.76,503.072-542.592,512L-544,512L-544,640 l-288-224l 288-224l0,128.352 c 25.664,7.424, 57.792,9.984, 88.576,8.576
				c 31.616-1.6, 63.296-7.552, 93.28-19.456c 29.952-11.904, 58.016-30.368, 82.016-55.744C-256.256,228.224-237.376,195.84-224,160
				C-221.568,197.984-225.12,238.112-238.496,277.6zM 704,416l-288,224l0-128 l-1.408,0 c-48.832-8.896-90.336-25.088-130.272-45.696c-39.584-20.832-76.352-47.264-106.784-79.328
				c-30.496-32.032-53.632-70.080-67.040-109.344C 97.12,238.112, 93.568,197.984, 96,160c 13.376,35.84, 32.256,68.224, 56.128,93.696
				c 24.032,25.376, 52.096,43.84, 82.016,55.744c 30.016,11.936, 61.664,17.888, 93.28,19.456c 30.784,1.408, 62.912-1.12, 88.576-8.576L 416,192 L 704,416z"  />
<glyph unicode="&#xe010;" d="M 597.024,598.24c-99.968,98.336-262.048,98.336-362.016,0c-99.968-98.368-99.968-257.824,0-356.16L 416,64l 181.024,178.080
			C 696.992,340.416, 696.992,499.872, 597.024,598.24z M 336.8,336.8c-43.744,43.744-43.744,114.656,0,158.4c 43.744,43.712, 114.656,43.712, 158.4,0
			c 43.712-43.744, 43.712-114.656,0-158.4C 451.456,293.056, 380.576,293.056, 336.8,336.8z"  />
<glyph unicode="&#xe011;" d="M 165.472,122.496c 22.016-17.792, 128-64, 320,128s 148.384,300.256, 128,320l-128-128c 16.512-16.672, 1.28-22.88-32-64
				c-22.016-27.136-64.256-69.248-97.696-96.384c-23.36-19.072-45.024-48.992-62.304-31.616L 165.472,122.496zM 549.472,634.496c-7.68,7.712-24.96,7.008-32,0c-0.16,0-95.968-95.968-96-96c-7.296-7.36-7.2-24.704,0-32l 32-32l 128,128
				C 581.472,602.496, 549.568,634.432, 549.472,634.496zM 229.472,314.496c-7.712,7.744-25.024,7.008-32,0c0,0-95.968-95.968-96-96c-7.36-7.328-7.2-24.704,0-32l 32-32l 128,128
				C 261.472,282.496, 229.504,314.496, 229.472,314.496z"  />
<glyph unicode="&#xe012;" d="M 679.008,372L 384,608l-295.008-236C 75.264,360.992, 78.4,352, 96,352l 32,0 l 32,0 l0-32 l0-160 l0-32 c0-17.6, 14.4-32, 32-32l 96,0 c 17.6,0, 32,14.4, 32,32l0,128 l0,32 l 32,0 l 64,0 
			l 32,0 l0-32 l0-128 c0-17.6, 14.4-32, 32-32l 96,0 c 17.6,0, 32,14.4, 32,32l0,32 l0,160 l0,32 l 32,0 l 32,0 C 689.6,352, 692.736,360.992, 679.008,372z"  />
<glyph unicode="&#xe013;" d="M 640,512l-64,0 c-17.6,0-42.176,10.176-54.624,22.624l-18.752,18.752C 490.176,565.824, 465.6,576, 448,576l-128,0 C 302.4,576, 277.824,565.824, 265.376,553.376
			L 246.624,534.624C 234.176,522.176, 209.6,512, 192,512L 128,512 C 110.4,512, 96,497.6, 96,480l0-320 c0-17.6, 14.4-32, 32-32l 512,0 c 17.6,0, 32,14.4, 32,32L 672,480 C 672,497.6, 657.6,512, 640,512z
			 M 384,224c-61.856,0-112,50.144-112,112S 322.144,448, 384,448s 112-50.144, 112-112S 445.856,224, 384,224z M 608,384l-64,0 L 544,448 l 64,0 L 608,384 z"  />
<glyph unicode="&#xe014;" d="M 131.616,386.24c-0.096-0.224-0.128-0.48-0.224-0.704C 129.248,380.064, 128,374.208, 128,368s 1.248-12.064, 3.392-17.536
		c 0.096-0.224, 0.128-0.48, 0.224-0.704c 2.432-5.952, 6.016-11.296, 10.496-15.776l 159.936-159.936c 18.752-18.752, 49.12-18.752, 67.872,0
		c 18.752,18.72, 18.752,49.152,0,67.872L 291.872,320L 592,320 c 26.496,0, 48,21.472, 48,48S 618.496,416, 592,416L 291.872,416 l 78.048,78.048
		c 18.752,18.72, 18.752,49.152,0,67.872C 360.576,571.328, 348.288,576, 336,576S 311.424,571.328, 302.048,561.952l-159.936-159.936
		C 137.632,397.536, 134.048,392.16, 131.616,386.24z"  />
<glyph unicode="&#xe015;" d="M 636.384,349.76c 0.096,0.224, 0.128,0.48, 0.224,0.704C 638.752,355.936, 640,361.792, 640,368s-1.248,12.064-3.392,17.536
		c-0.096,0.224-0.128,0.48-0.224,0.704c-2.432,5.952-6.016,11.296-10.496,15.776l-159.936,159.936c-18.752,18.752-49.12,18.752-67.872,0
		c-18.752-18.72-18.752-49.152,0-67.872L 476.128,416L 176,416 C 149.504,416, 128,394.528, 128,368S 149.504,320, 176,320l 300.128,0 l-78.048-78.048
		c-18.752-18.72-18.752-49.152,0-67.872C 407.424,164.672, 419.712,160, 432,160s 24.576,4.672, 33.952,14.048l 159.936,159.936
		C 630.368,338.464, 633.952,343.84, 636.384,349.76z"  />
<glyph unicode="&#xe016;" d="M 418.24,636.384c-0.256,0.096-0.512,0.128-0.704,0.224C 412.064,638.752, 406.208,640, 400,640s-12.064-1.248-17.536-3.392
		c-0.224-0.096-0.48-0.128-0.704-0.224c-5.952-2.432-11.296-6.016-15.776-10.496L 206.048,465.952c-18.752-18.752-18.752-49.12,0-67.872
		c 18.72-18.752, 49.152-18.752, 67.872,0L 352,476.128L 352,176 c0-26.496, 21.472-48, 48-48c 26.496,0, 48,21.504, 48,48L 448,476.128 l 78.048-78.048
		c 18.752-18.752, 49.12-18.752, 67.872,0C 603.328,407.424, 608,419.712, 608,432s-4.672,24.576-14.048,33.952l-159.936,159.936
		C 429.536,630.368, 424.192,633.952, 418.24,636.384z"  />
<glyph unicode="&#xe017;" d="M 381.76,99.584c 0.256-0.096, 0.512-0.128, 0.704-0.224c 5.472-2.144, 11.328-3.392, 17.536-3.392s 12.064,1.248, 17.536,3.392
		c 0.224,0.096, 0.48,0.128, 0.704,0.224c 5.952,2.432, 11.296,6.016, 15.744,10.496l 159.936,159.936c 18.752,18.752, 18.752,49.12,0,67.872
		s-49.12,18.752-67.872,0L 448,259.84L 448,560 C 448,586.496, 426.496,608, 400,608S 352,586.496, 352,560l0-300.16 L 273.952,337.92c-18.752,18.752-49.12,18.752-67.872,0
		C 196.672,328.544, 192,316.256, 192,303.968s 4.672-24.576, 14.048-33.952l 159.936-159.936C 370.464,105.6, 375.808,102.016, 381.76,99.584z"  />
<glyph unicode="&#xe018;" d="M 532.32,326.88c-5.184-30.912-19.68-58.976-41.984-81.216C 461.952,217.248, 424.192,201.6, 384,201.6s-77.952,15.648-106.368,44.096
		C 249.248,274.048, 233.6,311.808, 233.6,352s 15.648,77.952, 44.064,106.336S 343.808,502.4, 384,502.4c 32.512,0, 63.136-10.688, 88.768-29.632L 384,384l 224,0 L 608,608 
		l-75.616-75.616C 490.656,566.816, 438.784,585.6, 384,585.6c-62.368,0-121.056-24.32-165.184-68.416S 150.4,414.432, 150.4,352s 24.288-121.088, 68.416-165.152
		C 262.944,142.72, 321.632,118.4, 384,118.4s 121.056,24.32, 165.152,68.416c 34.592,34.528, 57.152,78.208, 65.216,126.304L 532.32,326.88z"  />
<glyph unicode="&#xe019;" d="M 249.6,352c0,35.904, 14.016,69.664, 39.36,95.040c 25.408,25.376, 59.168,39.36, 95.040,39.36l0-86.4 l 128,128l-128,126.4L 384,569.6 
			c-58.080,0-112.736-22.624-153.856-63.712C 189.024,464.8, 166.4,410.176, 166.4,352c0-56.928, 18.016-99.232, 60.192-141.408l 58.816,58.816
			C 258.976,295.872, 249.6,317.472, 249.6,352zM 541.408,493.44l-58.816-58.88c 26.432-26.4, 35.808-48, 35.808-82.56c0-35.904-14.016-69.664-39.36-95.040
			c-25.408-25.376-59.168-39.36-95.040-39.36l0,86.4 l-128-128l 128-126.432l0,84.832 c 58.080,0, 112.736,22.624, 153.856,63.712C 578.976,239.232, 601.6,293.856, 601.6,352
			C 601.6,408.992, 583.584,451.296, 541.408,493.44z"  />
<glyph unicode="&#xe01a;" d="M 368,86.4c-58.144,0-112.768,22.624-153.888,63.744C 185.056,179.296, 150.4,226.816, 150.4,288l 83.2,0 c0-34.464, 24.672-64.32, 39.392-79.040
			c 25.344-25.376, 59.104-39.36, 95.008-39.36s 69.664,14.016, 95.008,39.36c 25.408,25.408, 39.392,59.168, 39.392,95.040s-14.016,69.632-39.36,95.040
			c-26.464,26.496-47.936,39.36-65.696,39.36L 397.344,521.6 c 54.592,0, 97.216-36.416, 124.544-63.776C 562.976,416.736, 585.6,362.080, 585.6,304
			s-22.624-112.736-63.744-153.856C 480.768,109.024, 426.144,86.4, 368,86.4zM 128,352L 128,544L 320,544L 256,480L 352,384L 288,320L 192,416 		z"  />
<glyph unicode="&#xe01b;" d="M 544,447.968L 448,448L 448,544 l-125.248-128L 448,288l0,96 l 96,0 c 35.296,0, 64-28.704, 64-64c0-35.328-28.704-64.032-64-64.032L 224,255.968 c-35.296,0-64,28.704-64,64.032
			c0,35.296, 28.704,64, 64,64l 64,0 l-32,32l 32,32L 224,447.968c-70.688,0-128-57.28-128-127.968s 57.312-128, 128-128l 320,0 c 70.688,0, 128,57.312, 128,128S 614.688,447.968, 544,447.968z"  />
<glyph unicode="&#xe01c;" d="M 288,352l0-96 L 224,256 c-35.296,0-64,28.704-64,64s 28.704,64, 64,64l 96,0 l-32,32l 32,32L 224,447.968L 224,448 c-70.688,0-128-57.312-128-128s 57.312-128, 128-128l0,0.032 L 288,192l0-96 l 128,128
			L 288,352zM 480,288l0,96 l 64,0 c 35.296,0, 64-28.704, 64-64s-28.704-64-64-64l-96,0 l 32-32l-32-32l 96,0.032L 544,192 c 70.688,0, 128,57.312, 128,128s-57.312,128-128,128l0-0.032 L 480,448L 480,544 
			l-128-128L 480,288z"  />
<glyph unicode="&#xe01d;" d="M 480,285.824c-4.064-0.128-8.128-0.512-12.192-0.576l-7.52-0.224l-3.744-0.128c-1.056,0-0.512,0.096-0.832,0.032
		c-0.352-0.224-1.6-0.128-3.296,0.352c-3.36,0.832-8.48,3.040-13.696,6.944c-6.016,4.384-11.808,10.432-17.312,17.152
		c-10.944-28.928-26.208-55.392-45.088-77.568c 2.912-2.72, 5.728-5.472, 8.896-8.096c 10.432-8.672, 22.944-16.672, 38.528-22.4
		c 7.744-2.816, 16.416-5.088, 26.048-5.76l 6.688-0.48l 3.744-0.128l 7.52-0.224c 4.064-0.064, 8.128-0.448, 12.192-0.576L 479.936,128 l 112,112L 480,352
		L 480,285.824 zM 235.264,418.976l 3.776,0.096l 0.416,0 l 0.288,0 c 1.76-0.128, 6.816-0.128, 5.536-0.384c 0.128-0.256-0.384,0.128, 0.448-0.064
		l 3.264-0.832c 2.368-0.992, 4.864-1.76, 7.52-3.296c 8.8-4.512, 17.216-12.256, 25.056-21.12c 10.208,27.68, 25.12,54.688, 43.744,78.080
		c-7.776,6.72-16,13.152-25.216,19.072C 294.176,494.24, 287.392,497.408, 280.576,500.384l-11.040,3.84C 265.536,505.472, 260,506.528, 255.264,507.36
		C 249.12,508.448, 249.088,508.128, 245.856,508.544L 243.968,508.704L 239.008,508.928L 235.264,509.024L 220.192,509.44C 200.128,509.792, 180.064,510.944, 160,512l0-96 
		c 20.064,1.056, 40.128,2.208, 60.192,2.56L 235.264,418.976z M 237.12,419.2l 0.224,0 l 0.352-0.032C 237.408,419.2, 237.248,419.2, 237.024,419.2L 237.12,419.2 zM 480,576l0-66.176 c-4.064-0.128-8.128-0.512-12.192-0.576l-7.52-0.224l-3.744-0.128l-6.688-0.48
		c-9.664-0.672-18.304-2.944-26.048-5.76c-15.584-5.76-28.096-13.76-38.528-22.4c-20.96-17.344-36.544-36.768-48.832-57.824
		c-6.304-10.496-11.392-21.344-16.16-32.672c-5.344-13.312-7.616-22.56-10.688-31.328c-9.536-28.672-30.848-57.536-53.088-68.928
		c-2.656-1.536-5.184-2.272-7.52-3.296l-3.264-0.832c-0.832-0.192-0.288,0.192-0.448-0.064c 1.28-0.256-3.776-0.256-5.536-0.384
		L 239.424,284.928 L 239.008,284.928 l-3.776,0.096l-15.040,0.416C 200.128,285.792, 180.064,286.944, 160,288l0-96 c 20.064,1.056, 40.128,2.208, 60.192,2.56l 15.040,0.416
		l 3.776,0.096l 4.96,0.224l 1.888,0.192c 3.232,0.416, 3.264,0.096, 9.408,1.152c 4.768,0.832, 10.272,1.92, 14.272,3.168l 11.040,3.84
		c 6.816,2.976, 13.6,6.112, 19.488,9.856c 46.912,30.016, 74.24,71.52, 90.016,118.464c 3.136,10.304, 6.496,20.352, 8.832,25.568
		c 3.2,7.104, 6.688,14.432, 10.912,21.056c 8.128,13.408, 18.4,25.6, 28.896,33.216c 5.216,3.904, 10.336,6.080, 13.696,6.944
		C 454.080,419.2, 455.328,419.296, 455.68,419.072c 0.32-0.064-0.224,0.032, 0.832,0.032l 3.744-0.128l 7.52-0.224
		C 471.872,418.688, 475.936,418.304, 480,418.176L 480,352 l 112,112L 480,576z M 237.12,284.8L 236.992,284.8 c-1.376-0.064-0.48,0, 0.704,0.032L 237.344,284.8L 237.12,284.8 z"  />
<glyph unicode="&#xe01e;" d="M 128,160A64,64 540 1 0 256,160A64,64 540 1 0 128,160zM 443.424,96l-96,0 c0,120.992-98.432,219.424-219.424,219.424l0,96 C 301.952,411.424, 443.424,269.92, 443.424,96zM 624,96l-96,0 c0,220.576-179.424,400-400,400l0,96 C 401.504,592, 624,369.504, 624,96z"  />
<glyph unicode="&#xe01f;" d="M 631.328,435.68l-51.264,88.672l-115.68-33.088L 435.2,608L 332.8,608 L 303.616,491.264L 187.904,524.352l-51.2-88.672l 86.496-83.616l-86.528-83.648
		l 51.232-88.736l 115.712,33.12L 332.8,96L 435.2,96 l 29.184,116.768l 115.744-33.088l 51.2,88.672l-86.56,83.68L 631.328,435.68z M 384,283.744
		c-37.696,0-68.288,30.56-68.288,68.256S 346.304,420.256, 384,420.256c 37.728,0, 68.224-30.56, 68.224-68.256S 421.76,283.744, 384,283.744z"  />
<glyph unicode="&#xe020;" d="M 658.432,530.432l-89.248-89.28l-80,16l-16,80l 89.248,89.28c-13.12,3.968-26.816,6.72-41.248,6.72c-79.488,0-144-64.48-144-144
		l0-48 l-220.064-178.56c-41.824-41.44-35.68-101.696,0-137.504c 35.68-35.872, 95.68-41.6, 137.504,0l 178.56,220.064l 48,0 c 79.552,0, 144,64.48, 144,144
		C 665.184,503.616, 662.432,517.28, 658.432,530.432z"  />
<glyph unicode="&#xe021;" d="M 160,320L 288,320L 288,128L 160,128zM 320,576L 448,576L 448,130.656L 320,130.656zM 480,448L 608,448L 608,130.656L 480,130.656z"  />
<glyph unicode="&#xe022;" d="M 271.488,537.504C 188.16,509.952, 128,431.104, 128,338.080C 128,222.080, 221.472,128, 336.832,128c 69.056,0, 130.080,33.92, 168.128,85.888l-185.536,106.688
		L 271.488,537.504zM 458.624,624.928C 433.504,634.528, 406.336,640, 377.888,640c-25.056,0-49.056-4.192-71.552-11.616l 52.48-237.76L 458.624,624.928zM 493.312,568.384l-104.288-236.096l 205.92-118.4C 623.136,252.544, 640,300.096, 640,351.712C 640,450.208, 579.2,534.304, 493.312,568.384z"  />
<glyph unicode="&#xe023;" d="M 192,192L 192,202.688L 353.44,426.976L 473.344,277.088L 593.76,357.376L 558.24,410.624L 486.656,362.912L 350.56,533.024L 192,311.040L 192,544L 128,544L 128,192L 128,128L 192,128L 608,128L 608,192 	z"  />
<glyph unicode="&#xe024;" d="M 352,384A64,64 540 1 0 480,384A64,64 540 1 0 352,384zM 416,576c-159.040,0-288-192-288-192s 128.96-192, 288-192c 159.008,0, 288,192, 288,192S 575.008,576, 416,576z M 416,264c-66.24,0-120.064,53.792-120.064,120
			c0,66.24, 53.824,120, 120.064,120c 66.176,0, 120.064-53.76, 120.064-120C 536.064,317.792, 482.176,264, 416,264z"  />
<glyph unicode="&#xe025;" d="M 609.792,225.792l 1.12,1.12l-90.208,90.208C 535.456,347.008, 544,380.512, 544,416c0,123.488-100.512,224-224,224s-224-100.512-224-224s 100.512-224, 224-224
			c 35.52,0, 68.992,8.544, 98.88,23.328l 90.208-90.208l 1.12,1.12c 12.736-12.736, 30.336-20.64, 49.792-20.64c 38.88,0, 70.4,31.52, 70.4,70.4
			C 630.4,195.424, 622.528,213.056, 609.792,225.792z M 320,256c-88.256,0-160,71.776-160,160s 71.744,160, 160,160s 160-71.776, 160-160S 408.256,256, 320,256zM 224,448L 416,448L 416,384L 224,384z"  />
<glyph unicode="&#xe026;" d="M 609.792,225.792l 1.12,1.12l-90.208,90.208C 535.456,347.008, 544,380.512, 544,416c0,123.488-100.512,224-224,224s-224-100.512-224-224s 100.512-224, 224-224
			c 35.52,0, 68.992,8.544, 98.88,23.328l 90.208-90.208l 1.12,1.12c 12.736-12.736, 30.336-20.64, 49.792-20.64c 38.88,0, 70.4,31.52, 70.4,70.4
			C 630.4,195.424, 622.528,213.056, 609.792,225.792z M 320,256c-88.256,0-160,71.776-160,160s 71.744,160, 160,160s 160-71.776, 160-160S 408.256,256, 320,256zM 224,448L 416,448L 416,384L 224,384zM 288,512L 352,512L 352,320L 288,320z"  />
<glyph unicode="&#xe027;" d="M 544,224L 224,224L 224,544L 352,544L 416,640L 128,640L 128,128L 640,128L 640,320L 608,288 			zM 256,288c0,0, 32,64, 128,96s 96,0, 96,0l0-128 l 192,192l-192,192l0-96 c-47.616-6.88-95.68-31.68-128-64C 288,416, 256,288, 256,288z"  />
<glyph unicode="&#xe028;" d="M 640,149.312l-1.216,0 C 629.024,193.984, 560,251.008, 448,267.328L 448,304 l-3.904,0 C 478.24,334.88, 512,388.128, 512,464c0,88.384-32,160-128,160
			s-128-71.616-128-160c0-75.872, 33.76-129.12, 67.904-160L 320,304 l0-36.672 c-112-16.32-181.024-73.312-190.784-118.016L 128,149.312 c0-1.184, 0.416-2.4, 0.736-3.616
			C 128.416,143.328, 128,140.928, 128,138.688l 4.288,0 C 152.384,112.064, 243.488,80, 384,80s 231.616,32.064, 251.712,58.688L 640,138.688 
			c0,2.24-0.416,4.64-0.736,7.008C 639.584,146.912, 640,148.128, 640,149.312z"  />
<glyph unicode="&#xe029;" d="M 591.008,137.088c-7.904,36.768-64,83.712-155.008,97.152l0,33.44 c 26.624,25.824, 52,68.448, 52,128.576
			C 488,468.992, 462.016,528, 384,528s-104-59.008-104-131.744c0-60.128, 25.376-102.752, 52-128.576l0-33.44 
			c-91.008-13.44-147.104-60.384-155.008-97.152L 176,137.088 c0-0.96, 0.352-2.016, 0.64-3.008l 2.848-5.792C 195.808,106.432, 269.856,80, 384,80
			s 188.192,26.432, 204.544,48.32l 2.848,5.792c 0.288,0.992, 0.64,2.016, 0.64,3.008L 591.008,137.12 zM 751.072,263.168c-7.296,33.984-59.072,77.28-143.072,89.696L 608,383.68 c 24.608,23.84, 48,63.2, 48,118.688c0,67.2-24,121.632-96,121.632
				c-60.096,0-74.944-10.88-82.976-69.088c 39.008-30.304, 60.352-83.392, 60.352-155.648c0-72.928-15.872-112.608-41.376-143.264
				c 32,0, 74.976-41.568, 104.928-65.76c 108.096,2.752, 133.6,45.696, 147.872,64.8l 2.624,5.312c 0.256,0.928, 0.576,1.888, 0.576,2.784L 751.072,263.136 zM 208,624c-72,0-96-54.432-96-121.632c0-55.488, 23.392-94.848, 48-118.688l0-30.848 c-84-12.416-135.776-55.712-143.072-89.696L 16,263.136 
				c0-0.896, 0.32-1.856, 0.576-2.784L 19.2,255.072c 14.272-19.136, 39.808-62.048, 147.904-64.8C 197.024,214.432, 240,256, 272,256
				c-25.536,30.656-41.376,70.304-41.376,143.264c0,72.256, 21.376,125.344, 60.384,155.648C 282.976,613.12, 268.096,624, 208,624z"  />
<glyph unicode="&#xe02a;" d="M 576,384L 576,480 c0,17.664-14.304,32-32,32c-17.632,0-32-14.336-32-32l0-96 c0-5.216-1.44-128-128-128
			c-123.264,0-127.872,115.040-128,128L 256,480 c0,17.664-14.304,32-32,32C 206.368,512, 192,497.664, 192,480l0-96 c0-61.44, 34.624-173.408, 160-189.824L 352,128 L 256,128 c-17.632,0-32-14.336-32-32
			c0-17.696, 14.368-32, 32-32l 256,0 c 17.696,0, 32,14.304, 32,32c0,17.664-14.304,32-32,32l-96,0 l0,66.176 C 541.44,210.592, 576,322.56, 576,384zM 384,304c 53.056,0, 96,42.976, 96,95.968L 480,416 L 480,544.064 C 480,597.056, 437.056,640, 384,640
			c-52.992,0-96-42.944-96-95.936L 288.064,416L 288,416 l0-16.032 C 288,346.976, 331.008,304, 384,304z"  />
<glyph unicode="&#xe02b;" d="M 64,576l0-448 l 640,0 L 704,576 L 64,576 z M 384,330.496L 176.608,512l 414.816,0 L 384,330.496z M 317.184,303.936L 384,245.504l 66.816,58.432L 562.752,192L 205.248,192 L 317.184,303.936
			z M 128,205.248L 128,469.504 l 140.928-123.328L 128,205.248z M 499.072,346.176L 640,469.504l0-264.256 L 499.072,346.176z"  />
<glyph unicode="&#xe02c;" d="M 544,576L 224,576 C 171.2,576, 128,532.8, 128,480l0-192 c0-52.8, 43.2-96, 96-96l 32,0 l0-128 l 128,128l 160,0 c 52.8,0, 96,43.2, 96,96L 640,480 C 640,532.8, 596.8,576, 544,576z"  />
<glyph unicode="&#xe02d;" d="M 640,480l-37.888,0 c-5.44,15.168-14.4,28.48-26.112,39.040L 570.112,544C 556.832,581.184, 521.664,608, 480,608L 288,608 
				C 246.336,608, 211.168,581.184, 197.888,544L 192,519.040C 180.288,508.48, 171.328,495.168, 165.888,480L 128,480 l0-64 l 32,0 l0-256 c0-52.928, 43.072-96, 96-96l 256,0 c 52.928,0, 96,43.072, 96,96l0,256 l 32,0 L 640,480 z
				 M 256,512c0,17.664, 14.336,32, 32,32l 192,0 c 17.664,0, 32-14.336, 32-32l0-32 L 256,480 L 256,512 z M 544,160c0-17.664-14.336-32-32-32L 256,128 c-17.664,0-32,14.336-32,32l0,256 l 320,0 L 544,160 zM 256,384L 320,384L 320,160L 256,160zM 352,384L 416,384L 416,160L 352,160zM 448,384L 512,384L 512,160L 448,160z"  />
<glyph unicode="&#xe02e;" d="M 640,576L 288,576 C 270.4,576, 247.616,564.288, 237.408,549.952l-122.816-171.872c-10.208-14.336-10.208-37.792,0-52.128l 122.816-171.872
			C 247.616,139.712, 270.4,128, 288,128l 352,0 c 17.6,0, 32,14.4, 32,32L 672,544 C 672,561.6, 657.6,576, 640,576z M 598.624,256L 544,201.376l-96,96l-96-96L 297.376,256l 96,96l-96,96
			L 352,502.624l 96-96l 96,96L 598.624,448l-96-96L 598.624,256z"  />
<glyph unicode="&#xe02f;" d="M 547.328,192.672c-42.528,0-82.496,16.576-112.576,46.624L 384,288l-51.392-49.344c-29.408-29.408-69.408-45.984-111.904-45.984
			s-82.496,16.576-112.576,46.624c-30.080,30.048-46.624,70.016-46.624,112.576s 16.544,82.528, 46.688,112.576c 29.984,30.048, 69.984,46.656, 112.512,46.656l0,0
			c 42.496,0, 82.528-16.576, 112.608-46.656l 50.688-48.672l 51.424,49.408c 29.44,29.408, 69.376,45.92, 111.904,45.92c 42.496,0, 82.432-16.512, 112.544-46.56
			s 46.656-70.048, 46.656-112.608c0-42.592-16.576-82.56-46.688-112.64C 629.824,209.248, 589.824,192.672, 547.328,192.672z M 450.496,351.904l 48.704-46.816
			c 12.448-12.448, 28.576-18.912, 44.768-19.712c 18.528-0.928, 37.184,5.568, 50.656,19.104c 12.704,12.672, 19.68,29.536, 19.68,47.456
			c0,17.888-6.976,34.72-19.616,47.424C 581.248,412.8, 562.464,419.136, 544,418.24c-16.288-0.736-32.256-7.072-44.128-18.912L 450.496,351.904
			L 450.496,351.904z M 220.672,418.976c-17.888,0-34.72-7.008-47.328-19.616c-12.704-12.736-19.712-29.568-19.712-47.456s 7.008-34.72, 19.648-47.392
			C 186.752,291.008, 205.536,284.672, 224,285.536c 16.256,0.736, 32.224,7.072, 44.096,18.944l 49.376,47.424l-48.672,46.752
			C 255.424,411.968, 238.592,418.976, 220.672,418.976z"  />
<glyph unicode="&#xe030;" d="M 464,576c-88.384,0-160-71.616-160-160c0-23.424, 5.312-45.568, 14.368-65.632L 192,224l0-96 l 128,0 l0,64 l 64,0 l0,64 l 64,0 l0,1.632 C 453.344,257.056, 458.496,256, 464,256
		c 88.384,0, 160,71.616, 160,160S 552.384,576, 464,576z M 464,352c-35.328,0-64,28.672-64,64s 28.672,64.032, 64,64.032c 35.36,0, 64-28.672, 64-64.032
		S 499.36,352, 464,352z"  />
<glyph unicode="&#xe031;" d="M 227.2,416A156.8,156.8 540 1 0 540.8,416A156.8,156.8 540 1 0 227.2,416zM 562.752,237.248c 91.616,91.616, 98.048,236.768, 19.2,336l 46.432,46.368c 11.264,11.264, 11.264,29.504,0,40.736s-29.504,11.264-40.736,0
			L 501.696,574.4l 20.32-20.352c 76.096-76.16, 76.096-200, 0.032-276.064c-29.216-29.216-66.080-47.84-106.016-54.4L 416.032,224 l-64,0 l0-0.416 
			c-39.936,6.528-76.832,25.152-106.016,54.368c-11.264,11.328-29.472,11.328-40.704,0.032c-11.264-11.264-11.264-29.472-0.032-40.704
			C 245.312,197.12, 296.64,172.384, 352,165.44L 352,128 L 224,128 c-17.664,0-32-14.304-32-32s 14.336-32, 32-32l 320,0 c 17.696,0, 32,14.304, 32,32s-14.304,32-32,32l-128,0 l0,37.44 
			C 471.36,172.416, 522.624,197.152, 562.752,237.248z"  />
<glyph unicode="&#xe032;" d="M 160,448L 256,448L 256,192L 160,192zM 288,416c 32,0, 32,0, 64,64c 20.256,40.48, 32,96, 32,96l 64,0 c0,0,0-96-32-128l 160-32l-32-224c0,0-32-32-128-32l-128,64L 288,416 z"  />
<glyph unicode="&#xe033;" d="M 512,512L 608,512L 608,256L 512,256zM 480,288c-32,0-32,0-64-64c-20.256-40.48-32-96-32-96l-64,0 c0,0,0,96, 32,128l-160,32l 32,224c0,0, 32,32, 128,32l 128-64L 480,288 z"  />
<glyph unicode="&#xe034;" d="M 650.080,341.984L 352,640L 96,640 l0-256 l 298.080-298.048c 20.096-20.096, 52.672-20.096, 72.768,0l 183.232,183.264
		C 670.176,289.28, 670.176,321.856, 650.080,341.984z M 240,432c-35.36,0-64,28.64-64,64s 28.64,64, 64,64c 35.36,0.096, 64-28.64, 64-64S 275.296,432, 240,432
		z"  />
<glyph unicode="&#xe035;" d="M 448,96L 160,96 c-35.296,0-64,28.704-64,64L 96,448 c0,35.296, 28.704,64, 64,64l 288,0 c 35.296,0, 64-28.704, 64-64l0-288 C 512,124.704, 483.296,96, 448,96z M 160,448l0-288 l 288,0 L 448,448 L 160,448 zM 576,192l-32,0 l0,64 l 32,0 L 576,576 L 256,576 l0-32 L 192,544 L 192,576 c0,35.296, 28.704,64, 64,64l 320,0 c 35.296,0, 64-28.704, 64-64l0-320 C 640,220.704, 611.296,192, 576,192z"  />
<glyph unicode="&#xe036;" d="M 646.048,182.88l-222.112,370.24c-18.112,30.176-47.744,30.176-65.888,0l-222.112-370.24C 117.824,152.672, 131.808,128, 167.008,128l 448,0 
		C 650.176,128, 664.192,152.672, 646.048,182.88z M 423.008,192l-64,0 l0,64 l 64,0 L 423.008,192 z M 407.008,288l-32,0 l-32,160l 96,0 L 407.008,288z"  />
<glyph unicode="&#xe037;" d="M 618.080,230.848L 524.384,512L 576,512 c 17.696,0, 32,14.304, 32,32s-14.304,32-32,32L 224,576 C 206.304,576, 192,561.696, 192,544s 14.304-32, 32-32l 51.616,0 l-93.728-281.152
			c-8.64-25.792-5.376-51.904, 8.864-71.68C 205.024,139.328, 228.8,128, 256,128l 288,0 c 27.2,0, 50.976,11.328, 65.216,31.168
			C 623.456,178.944, 626.72,205.056, 618.080,230.848z M 456.928,512l 42.688-128L 300.384,384 l 42.688,128L 456.928,512 z"  />
<glyph unicode="&#xe038;" d="M 496,608C 434.24,608, 384,557.76, 384,496L 384,416 L 192,416 c-17.6,0-32-14.4-32-32l0-224 c0-17.6, 14.4-32, 32-32l 288,0 c 17.6,0, 32,14.4, 32,32l0,224 c0,17.6-14.4,32-32,32
			l-32,0 L 448,496 C 448,522.464, 469.536,544, 496,544S 544,522.464, 544,496L 544,384 l 64,0 L 608,496 C 608,557.76, 557.76,608, 496,608z"  />
<glyph unicode="&#xe039;" d="M 544,416l-32,0 L 512,480 c0,70.592-57.408,128-128,128S 256,550.592, 256,480l0-64 L 224,416 c-17.6,0-32-14.4-32-32l0-224 c0-17.6, 14.4-32, 32-32l 320,0 c 17.6,0, 32,14.4, 32,32l0,224 
			C 576,401.6, 561.6,416, 544,416z M 320,480c0,35.296, 28.704,64, 64,64s 64-28.704, 64-64l0-64 l-128,0 L 320,480 z"  />
<glyph unicode="&#xe03a;" d="M 192,352L 576,352L 384,544 		zM 192,288L 576,288L 576,192L 192,192z"  />
<glyph unicode="&#xe03b;" d="M 672,352L 544,480L 544,416L 448,416L 448,512L 512,512L 384,640L 256,512L 320,512L 320,416L 224,416L 224,480L 96,352L 224,224L 224,288L 320,288L 320,192L 256,192L 384,64L 512,192L 448,192L 448,288L 544,288L 544,224 		z"  />
<glyph unicode="&#xe03c;" d="M 352,256L 288,320L 224,256L 160,320L 160,128L 352,128L 288,192 		zM 288,384L 352,448L 288,512L 352,576L 160,576L 160,384L 224,448 		zM 480,320L 416,256L 480,192L 427.008,128L 608,128L 608,320L 544,256 		zM 416,576L 480,512L 416,448L 480,384L 544,448L 608,384L 608,576 		z"  />
<glyph unicode="&#xe03d;" d="M 384,608c-141.152,0-256-114.848-256-256s 114.848-256, 256-256s 256,114.848, 256,256S 525.152,608, 384,608z M 544,352c0-26.624-7.168-51.328-18.688-73.44L 310.56,493.312
			C 332.672,504.832, 357.376,512, 384,512C 472.224,512, 544,440.224, 544,352z M 224,352c0,26.624, 7.168,51.328, 18.688,73.44l 214.752-214.752
			C 435.328,199.168, 410.624,192, 384,192C 295.776,192, 224,263.776, 224,352z"  />
<glyph unicode="&#xe03e;" d="M 464,640L 224,380.8L 384,288L 304,64L 544,323.2L 384,416 		z"  />
<glyph unicode="&#xe03f;" d="M 608.064,557.472c 7.872,15.744, 1.12,22.848-15.008,15.808L 139.68,374.912c-16.128-7.040-15.456-16.768, 1.44-21.6l 162.496-46.432
			c 16.896-4.8, 32.768-23.040, 35.296-40.48l 22.944-160.64c 2.496-17.44, 10.976-18.816, 18.848-3.072L 608.064,557.472z"  />
<glyph unicode="&#xe040;" d="M 400,640C 250.016,640, 128,517.984, 128,368S 250.016,96, 400,96s 272,122.016, 272,272S 550.016,640, 400,640z M 446.688,198.496L 432,272l-64,0 
			l-14.688-73.504c-59.52,16.416-106.368,63.296-122.816,122.816L 304,336l0,64 l-73.504,14.688c 16.448,59.52, 63.296,106.4, 122.816,122.816L 368,464l 64,0 
			l 14.688,73.504c 59.52-16.416, 106.368-63.296, 122.816-122.816L 496,400l0-64 l 73.504-14.688C 553.056,261.792, 506.208,214.912, 446.688,198.496z"  />
<glyph unicode="&#xe041;" d="M 544,512L 192,512L 224,416L 544,416L 608,464 		zM 128,336L 192,288L 544,288L 512,384L 192,384 		zM 320,256L 416,256L 416,128L 320,128zM 320,608L 416,608L 416,544L 320,544z"  />
<glyph unicode="&#xe042;" d="M 593.376,454.080l-114.752,114.752c-12.448,12.448-22.624,8.224-22.624-9.376l0-32 c0-17.6-12.864-38.432-28.64-46.304l-70.752-35.36
		C 340.864,437.92, 313.6,431.456, 296,431.456l-32,0 c-17.6,0-39.2,0-48,0s-5.824-10.176, 6.624-22.624l 91.36-91.36L 192,184.8l 138.912,115.744
		l 102.464-102.464c 12.448-12.448, 22.624-8.224, 22.624,9.376l0,64 c0,17.6, 6.432,44.864, 14.304,60.64l 35.36,70.752
		c 7.872,15.744, 28.704,28.64, 46.304,28.64l 32,0 C 601.6,431.456, 605.824,441.664, 593.376,454.080z"  />
<glyph unicode="&#xe043;" d="M 272,448C 263.2,448, 256,440.8, 256,432l0-128 C 256,295.2, 263.2,288, 272,288l 63.936,0 c 8.8,0, 22.176-3.68, 29.728-8.224l 164.64-111.552
		C 537.824,163.68, 544,167.2, 544,176l0,384 c0,8.8-6.176,12.32-13.728,7.776l-164.64-111.552C 358.112,451.68, 344.736,448, 335.936,448L 272,448 z"  />
<glyph unicode="&#xe044;" d="M 80,448C 71.2,448, 64,440.8, 64,432l0-128 C 64,295.2, 71.2,288, 80,288l 63.936,0 c 8.8,0, 22.176-3.68, 29.728-8.224l 164.64-111.552
		C 345.824,163.68, 352,167.2, 352,176l0,384 c0,8.8-6.176,12.32-13.728,7.776L 173.664,456.224C 166.112,451.68, 152.736,448, 143.936,448L 80,448 zM 384.064,393.28c 7.968-5.376, 13.568-14.048, 13.568-24.448s-5.6-19.072-13.568-24.448l 21.952-21.44
		c 13.12,11.040, 21.696,27.36, 21.696,45.888s-8.576,34.848-21.696,45.888L 384.064,393.28zM 470.56,477.824L 448.96,456.704c 23.712-21.984, 38.816-53.056, 38.816-87.872s-15.104-65.92-38.816-87.872l 21.6-21.056
		c 28.96,27.392, 47.296,65.952, 47.296,108.928S 499.52,450.336, 470.56,477.824zM 535.264,540.928l-21.6-21.056c 39.552-38.272, 64.288-91.776, 64.288-151.040s-24.704-112.704-64.288-151.040l 21.6-21.056
		c 44.8,43.648, 72.736,104.608, 72.736,172.096S 580.064,497.28, 535.264,540.928z"  />
<glyph unicode="&#xe045;" d="M 412.096,361.344c-2.72,3.712-4.96,7.584-6.944,11.52c 0.8-4.576, 1.28-9.024, 1.376-13.344
		c 1.824,0.672, 3.744,1.184, 5.76,1.536L 412.096,361.344zM 475.296,283.712c 0.16-1.984, 0.416-5.248, 0.896-5.952c-0.128,0.192, 0.672,4.16, 1.184,6.528
		c 0.608,2.944, 1.28,6.24, 2.56,9.44c-0.416,0.224-0.768,0.48-1.152,0.672c-2.080,1.216-3.328,1.952-4.736,2.24l-0.896,0.192
		l 1.024-4.512C 474.784,289.44, 475.072,286.528, 475.296,283.712zM 438.4,316.704l-1.6,4.608L 436.8,316.8 l-0.096,4.512L 436.672,316.8l-10.112-0.576l-0.576,18.528c-3.328-4.864-4.352-6.784-3.424-10.912
		l 1.504-6.752l 0.224,0.032l-0.128-0.448l 0.128-0.672c 2.464,0.256, 4.96-0.096, 7.328-0.832l 5.824-1.76l 0.896-6.016
		c 1.28-8.576-2.656-14.528-11.68-17.728c 3.616-1.344, 5.6,0.16, 10.144,3.776c 6.016,4.768, 16.416,11.232, 28.896,6.72l 0.768,6.88
		c 0.32,2.848,0,3.936-8.896,8.256c-1.984,0.928-4.64,2.24-7.328,4.032c-2.272-1.888-5.312-2.816-8.96-2.816L 438.4,316.704zM 384,640c-158.784,0-288-129.216-288-288s 129.216-288, 288-288s 288,129.216, 288,288S 542.784,640, 384,640z M 541.536,275.488l 4.736,16.192
		c-2.048,1.184-3.84,2.88-5.248,4.896c-0.672,0.928-1.12,2.016-1.568,2.976c-2.176,1.056-3.936,2.336-5.312,3.712
		c-0.448-0.288-0.928-0.608-1.408-0.864c 1.344-2.368, 2.752-4.896, 4.064-7.424l 5.856-11.328l-12.544-2.24
		c-14.752-2.784-21.344,3.648-25.888,8.768c 4.256-7.424, 7.072-15.872, 9.792-24.128c 3.808-11.392, 7.328-22.24, 14.144-28.384l 3.232-2.912
		l-0.16-4.384c-1.184-33.568-22.848-61.792-50.88-69.664c 0.992-6.912-0.384-12.576-3.968-16.864c-5.408-6.208-13.696-7.008-19.424-7.008
		l-8.128,0 l-2.592,8.096c-0.96,6.432-0.192,11.84, 2.272,16c-0.896,0.32-1.824,0.608-2.752,0.928l-6.944,2.464l 0.704,7.296
		c 0.448,4.8-0.8,5.76-6.496,9.536c-2.752,1.792-6.016,3.808-8.768,6.784c-8.448-0.48-16.32-3.104-24.576-5.888
		c-12.736-4.32-27.328-8.352-41.344-4.864l-11.904,2.88l 5.92,10.784c 2.944,5.376, 3.040,15.744, 3.2,25.824
		c 0.064,9.568, 0.128,19.488, 2.688,27.84l 1.152,3.808l 3.552,1.856c 3.648,1.888, 7.36,3.712, 11.168,5.472
		c 16.256,7.776, 31.584,15.2, 40,28.384l-1.888,1.472c-0.96,0.736-1.92,1.632-2.624,2.56c-2.912-1.344-6.592-2.272-11.2-2.432
		l-7.584-0.128l-0.736,2.816l-4.128,0 l-4.48,4.736c-1.568,2.176-2.912,5.696-1.472,10.72c-47.808,1.376-65.024,38.464-80.288,71.296
		l-10.528,22.144l 12.672,1.92c 0.128,0, 0.256,0, 0.48,0.064l 0.32,4.064c 0.736,10.464, 0.064,19.296-2.112,26.784
		C 290.4,433.248, 285.76,442.752, 281.92,450.656C 279.776,454.944, 277.6,459.392, 275.2,462.144c-0.992-1.248-2.272-3.136-3.232-4.48
		C 270.144,454.848, 268.192,451.968, 266.016,449.632L 261.376,444.864C 253.024,436.32, 248.64,431.808, 248.672,417.632c 0.576-0.8, 1.312-1.856, 1.984-2.752
		c 4.064-5.376, 12.48-16.576, 3.072-30.368l-2.464-3.648l-4.32-0.512c-7.104,0.096-13.056,3.424-15.904,9.28
		c-0.288,0.512-0.48,1.088-0.704,1.632c-3.232-0.608-8.192-0.608-13.248,4.704l-2.080,2.144l-0.48,2.944
		C 212.8,411.808, 209.12,420.512, 205.12,429.664C 201.6,437.856, 197.984,446.272, 195.648,456.48C 188.672,459.84, 184.416,465.568, 180.832,470.4
		C 178.752,473.216, 176.864,475.776, 174.816,477.312L 156.96,477.312 l 9.568,14.56c 48.576,74.080, 130.176,118.336, 218.4,118.336c 11.008,0, 22.592-0.928, 36.544-2.848
		l 8.8-1.184l-0.928-13.056c-0.288-5.312-0.608-10.848-2.528-15.584l-1.248-2.88l-2.752-1.664c-2.432-2.112-5.152-4.544-8.8-5.888
		c-0.256-0.96-0.48-2.016-0.704-2.912c 0.384-0.48, 0.736-0.928, 1.056-1.344c 4.288-5.472, 10.176-12.96, 8.96-22.016
		c-0.512-3.552-2.368-8.736-8.512-13.28l-4.032-3.008l-4.704,1.792c-7.776,2.752-12.736,8.352-16.576,13.888
		c-0.288-0.448-0.64-0.736-0.864-1.12c 0.736-1.28, 2.016-2.592, 3.84-4.448c 3.84-3.84, 9.056-9.152, 10.56-18.304
		c 2.496-14.624-0.672-28.672-8.928-39.616c-6.592-8.704-15.808-14.496-26.208-16.672c-0.064-0.256-0.064-0.608-0.064-0.832
		c-0.16-4.736-0.384-11.136-5.312-15.328c 3.648-6.368, 6.496-13.92, 5.312-22.368c-1.376-9.12-5.952-13.312-9.952-16.992
		c-1.536-1.408-3.36-3.104-5.376-5.536l-3.2-3.808l-4.96,0.48c-1.824,0.16-3.392,0.544-4.864,0.992
		c 6.688-8.704, 14.24-20.608, 7.008-34.112c 0.672-1.44, 1.664-2.848, 3.168-4.832c 0.352-0.48, 0.672-0.896, 1.056-1.44l 5.728,1.28
		c 4.48,0.992, 8.576,5.024, 12.896,9.408c 3.712,3.68, 7.808,7.68, 12.672,10.304c-1.248,9.44, 4.416,14.016, 6.816,16.064l 1.856,8.096
		c-0.704,1.216-1.568,2.4-2.432,3.68l-2.112,3.040l 0.544,3.648c 0.864,6.080, 2.88,10.72, 4.704,14.816l 1.024,2.4
		c-6.688,3.008-10.272,10.56-9.952,17.568c 0.352,9.088, 7.104,15.68, 16.064,15.68l 3.456-0.32l 7.872-1.344l 0.096-10.912
		c 0.064-5.472, 0.224-12.192-3.424-17.312c 9.376-3.008, 11.36-13.088, 12.288-17.856c 0.288-1.568, 0.736-3.872, 1.184-4.608l 13.024-0.32
		l-3.584-6.656c 2.688-2.528, 4.416-6.016, 4.832-9.408c 0.192-1.44, 0.192-2.784,0-4.096c 3.776-5.408, 5.984-12.32, 6.432-20.672
		l 0.416-7.104c 2.912-0.864, 4.608-2.688, 5.536-3.904c 2.336-3.136, 2.4-6.368, 1.92-9.28l 0.8,0.192
		c 11.328,2.368, 15.712-3.36, 18.4-7.168c 17.44,4.16, 34.272-1.824, 49.056-17.408c 0.128,0.096, 0.352,0.192, 0.48,0.288
		c-0.896,2.528-0.96,5.312-0.192,8.448l 2.304,9.536l 9.44-2.816c 4.384-1.28, 7.424-3.52, 9.856-5.376
		c 0.992-0.64, 1.888-1.376, 2.912-1.952l 6.944-3.616l-1.632-5.312c 0.992-0.832, 1.92-1.728, 2.848-2.592
		c 2.24-2.24, 3.008-2.848, 4.256-3.040l 8.576-1.216l-0.128-2.816c 0.928-0.544, 1.92-1.248, 2.752-2.112l 9.92,5.952l 0.256-15.296
		c0-0.224,0-0.448, 0.064-0.672l 7.008-0.736l-5.792-12c-3.072-6.432-7.456-7.712-10.592-7.712c-3.744,0-6.304,1.92-8,3.744
		L 541.536,275.488z M 558.688,257.92l 1.152,17.088l 13.856-10.048c 7.872-5.792, 13.504-13.28, 16.608-22.272l 6.24-18.016l-18.112,5.984
		C 564.416,235.232, 557.856,244.384, 558.688,257.92z"  />
<glyph unicode="&#xe046;" d="M 256,224L 384,224L 576,416L 448,544L 256,352 			zM 320,288L 320,352L 384,288 			zM 544,640L 672,512L 608.032,448L 480.032,576zM 192,544l 128,0 L 256,480L 192,480 l0-320 l 320,0 l0,64 l 64,64l0-128 c0-35.296-28.704-64-64-64L 192,96 c-35.296,0-64,28.704-64,64L 128,480 C 128,515.296, 156.704,544, 192,544z"  />
<glyph unicode="&#xe047;" d="M 160,448L 640,448L 640,288L 160,288z"  />
<glyph unicode="&#xe048;" d="M 160,544L 640,544L 640,384L 160,384zM 160,320L 640,320L 640,160L 160,160z"  />
<glyph unicode="&#xe049;" d="M 608,512c0,35.2-28.8,64-64,64L 224,576 C 188.8,576, 160,547.2, 160,512l0,0c0-35.2, 28.8-64, 64-64l 320,0 C 579.2,448, 608,476.8, 608,512L 608,512zM 608,352c0,35.2-28.8,64-64,64L 224,416 c-35.2,0-64-28.8-64-64l0,0c0-35.2, 28.8-64, 64-64l 320,0 C 579.2,288, 608,316.8, 608,352L 608,352zM 608,192c0,35.2-28.8,64-64,64L 224,256 c-35.2,0-64-28.8-64-64l0,0c0-35.2, 28.8-64, 64-64l 320,0 C 579.2,128, 608,156.8, 608,192L 608,192z"  />
<glyph unicode="&#xe04a;" d="M 211.2,608L 204.8,608 C 180.16,608, 160,587.84, 160,563.2l0-422.4 C 160,116.16, 180.16,96, 204.8,96l 6.4,0 C 235.84,96, 256,116.16, 256,140.8L 256,563.2 C 256,587.84, 235.84,608, 211.2,608zM 512,512c-128,0-64,51.2-192,51.2L 288,563.2 L 288,320 l 32,0 c 128,0, 64-64, 192-64l 64,0 L 576,512 L 512,512 z"  />
<glyph unicode="&#xe04b;" d="M 392.096,192.8c-27.808,0-45.568,20.192-39.584,45.12L 416,352c 11.936,49.888-23.488,90.304-79.2,90.304
			c-32.96,0-65.632-14.208-89.248-36.096c 9.76,5.664, 21.024,9.024, 32.352,9.024c 27.84-0.032, 45.568-20.256, 39.616-45.152L 256,256
			c-11.904-49.888, 23.584-90.24, 79.264-90.272c 32.96-0.032, 65.6,14.144, 89.248,36.128C 414.752,196.128, 403.456,192.8, 392.096,192.8zM 352,543.968A64,64 540 1 0 480,543.968A64,64 540 1 0 352,543.968z"  />
<glyph unicode="&#xe04c;" d="M 308.8,144A59.2,59.2 540 1 0 427.2,144A59.2,59.2 540 1 0 308.8,144zM 497.152,561.088C 466.976,591.328, 426.784,608, 384,608S 301.024,591.328, 270.912,561.152C 240.672,530.976, 236.704,505.536, 229.504,480.032
	s 4.288-52.448, 29.248-61.248c 24.992-8.832, 50.048,4.704, 58.752,29.184c 6.304,17.824, 9.152,33.184, 21.28,45.312
	C 350.848,505.344, 367.392,511.36, 384,511.36c 16.576,0, 33.152-6.016, 45.28-18.144C 441.344,481.152, 448,465.088, 448,448s-7.328-38.016-32.288-51.328
	c-18.464-9.856-50.080-24.192-71.904-52.416C 329.92,326.304, 320,302.752, 320,271.2L 320,256 l 96,0 l0,24.288 c0,16.512, 28.256,37.728, 54.976,54.912
	C 512.64,361.984, 544,405.216, 544,448S 527.328,530.976, 497.152,561.088z"  />
<glyph unicode="&#xe04d;" d="M 544,576L 192,576 C 139.2,576, 96,532.8, 96,480l0-192 c0-52.8, 43.2-96, 96-96l 32,0 l0-96 l 96,96l 224,0 c 52.8,0, 96,43.2, 96,96L 640,480 C 640,532.8, 596.8,576, 544,576z M 576,288
			c0-17.344-14.656-32-32-32L 192,256 c-17.344,0-32,14.656-32,32L 160,480 c0,17.344, 14.656,32, 32,32l 352,0 c 17.344,0, 32-14.656, 32-32L 576,288 zM 192,384A48,48 540 1 0 288,384A48,48 540 1 0 192,384zM 320,384A48,48 540 1 0 416,384A48,48 540 1 0 320,384zM 448,384A48,48 540 1 0 544,384A48,48 540 1 0 448,384z"  />
<glyph unicode="&#xe04e;" d="M 384,608c-141.376,0-256-114.624-256-256s 114.624-256, 256-256s 256,114.624, 256,256S 525.376,608, 384,608z M 384,160c-106.016,0-192,85.984-192,192s 85.984,192, 192,192s 192-85.984, 192-192
			S 490.016,160, 384,160zM 416,339.2L 416,512L 352,512L 352,304L 470.4,240L 512,288 		z"  />
<glyph unicode="&#xe04f;" d="M 544,544l0-32 c0-17.6-14.4-32-32-32l-64,0 c-17.6,0-32,14.4-32,32L 416,544 l-64,0 l0-32 c0-17.6-14.4-32-32-32L 256,480 C 238.4,480, 224,494.4, 224,512L 224,544 
		C 171.2,544, 128,500.8, 128,448l0-256 c0-52.8, 43.2-96, 96-96l 320,0 c 52.8,0, 96,43.2, 96,96L 640,448 C 640,500.8, 596.8,544, 544,544z M 576,160L 192,160 l0,256 l 384,0 L 576,160 zM 256,576c0,17.6, 14.4,32, 32,32l0,0c 17.6,0, 32-14.4, 32-32l0-32 c0-17.6-14.4-32-32-32l0,0C 270.4,512, 256,526.4, 256,544L 256,576 zM 448,576c0,17.6, 14.4,32, 32,32l0,0c 17.6,0, 32-14.4, 32-32l0-32 c0-17.6-14.4-32-32-32l0,0c-17.6,0-32,14.4-32,32L 448,576 z"  />
<glyph unicode="&#xe050;" d="M 384.064,480c-70.688,0-128-57.312-128-128s 57.312-128, 128-128s 128,57.312, 128,128S 454.752,480, 384.064,480z M 384.064,288c-35.296,0-64,28.736-64,64
			c0,35.328, 28.704,64, 64,64s 64-28.672, 64-64C 448.064,316.736, 419.328,288, 384.064,288zM 384,512c 17.664,0, 32,14.304, 32,32L 416,608 c0,17.696-14.336,32-32,32s-32-14.304-32-32l0-64 C 352,526.304, 366.336,512, 384,512zM 384,64c 17.664,0, 32,14.304, 32,32l0,64 c0,17.696-14.336,32-32,32s-32-14.304-32-32l0-64 C 352,78.304, 366.336,64, 384,64zM 245.248,488.544C 255.648,474.24, 275.68,471.072, 289.984,481.44c 14.272,10.4, 17.472,30.4, 7.104,44.672L 259.424,577.952
			C 249.024,592.256, 228.992,595.36, 214.752,584.992C 200.448,574.624, 197.248,554.624, 207.616,540.32L 245.248,488.544zM 130.624,400.672l 60.864-19.776c 16.8-5.44, 34.912,3.776, 40.352,20.544c 5.472,16.8-3.712,34.88-20.544,40.352L 150.432,461.6
			c-16.8,5.472-34.88-3.776-40.32-20.576C 104.672,424.224, 113.824,406.176, 130.624,400.672zM 231.872,302.56c-5.504,16.8-23.52,26.048-40.352,20.576L 130.624,303.36c-16.8-5.44-26.016-23.552-20.512-40.32
			c 5.44-16.8, 23.424-26.016, 40.288-20.608l 60.864,19.776C 228.096,267.712, 237.312,285.824, 231.872,302.56zM 245.28,215.488l-37.664-51.744c-10.432-14.304-7.2-34.336, 7.104-44.672c 14.272-10.368, 34.272-7.264, 44.672,7.040l 37.632,51.776
			c 10.4,14.304, 7.232,34.368-7.040,44.736C 275.68,232.96, 255.616,229.888, 245.28,215.488zM 522.752,215.488c-10.4,14.304-30.464,17.472-44.736,7.136c-14.24-10.368-17.504-30.432-7.040-44.672l 37.6-51.808
			c 10.368-14.368, 30.432-17.472, 44.672-7.072c 14.24,10.368, 17.472,30.336, 7.136,44.64L 522.752,215.488zM 637.376,303.328l-60.864,19.808c-16.832,5.504-34.944-3.744-40.384-20.512c-5.44-16.8, 3.712-34.944, 20.576-40.32l 60.864-19.808
			c 16.8-5.536, 34.88,3.744, 40.288,20.544C 663.296,279.808, 654.144,297.888, 637.376,303.328zM 536.128,401.504c 5.472-16.8, 23.488-26.080, 40.32-20.576l 60.864,19.776c 16.864,5.408, 26.016,23.52, 20.576,40.288
			c-5.504,16.768-23.488,26.016-40.256,20.576l-60.896-19.744C 539.872,436.352, 530.656,418.24, 536.128,401.504zM 522.688,488.576l 37.632,51.744c 10.496,14.304, 7.264,34.336-7.040,44.672c-14.336,10.304-34.272,7.232-44.672-7.040l-37.696-51.776
			c-10.368-14.304-7.232-34.368, 7.072-44.704C 492.32,471.104, 512.32,474.176, 522.688,488.576z"  />
<glyph unicode="&#xe051;" d="M 384,608c-141.376,0-256-114.624-256-256s 114.624-256, 256-256s 256,114.624, 256,256S 525.376,608, 384,608z M 384,160c-106.048,0-192,85.952-192,192s 85.952,192, 192,192L 384,160 z"  />
<glyph unicode="&#xe052;" d="M 480,640L 288,640 C 252.8,640, 192,579.2, 192,544l0-384 c0-35.2, 60.8-96, 96-96l 192,0 c 35.2,0, 96,60.8, 96,96L 576,544 C 576,579.2, 515.2,640, 480,640z M 336,608l 96,0 C 440.832,608, 448,600.8, 448,592
		C 448,583.168, 440.832,576, 432,576l-96,0 C 327.168,576, 320,583.168, 320,592C 320,600.8, 327.168,608, 336,608z M 384,80c-17.664,0-32,14.304-32,32.032
		c0,17.664, 14.336,31.968, 32,31.968s 32-14.304, 32-31.968C 416,94.304, 401.664,80, 384,80z M 512,160L 256,160 L 256,544 l 256,0 L 512,160 z"  />
<glyph unicode="&#xe053;" d="M 192,512L 128,288L 128,128L 640,128L 640,288L 576,512L 480,512L 480,480L 544,480L 576,288L 192,288L 224,480L 288,480L 288,512 	zM 384,320L 256,448L 320,448L 320,576L 448,576L 448,448L 512,448 	z"  />
<glyph unicode="&#xe054;" d="M 518.24,422.4c 25.76,0, 37.28-13.824, 37.28-13.824C 566.784,395.072, 576,398.4, 576,416L 576,480 c0,17.6-14.4,32-32,32l-96,0 
	c-17.6,0-20.928,9.216-7.392,20.512c0,0, 13.824,11.488, 13.824,37.248c0,13.216-7.808,25.184-20.608,33.856C 421.088,612.256, 403.456,617.6, 384,617.6
	c-19.392,0-37.024-5.344-49.76-14.016C 321.504,594.944, 313.6,582.976, 313.6,569.76c0-25.76, 13.824-37.248, 13.824-37.248C 340.928,521.216, 337.6,512, 320,512L 224,512 
	C 206.4,512, 192,497.6, 192,480l0-64 c0-17.6, 9.216-20.928, 20.48-7.392c0,0, 11.52,13.824, 37.28,13.824c 13.248,0, 25.216-7.904, 33.888-20.672
	C 292.288,389.024, 297.632,371.424, 297.632,352c0-19.456-5.344-37.056-14.016-49.792C 274.976,289.44, 263.008,281.6, 249.76,281.6
	C 224,281.6, 212.48,295.392, 212.48,295.392C 201.216,308.928, 192,305.6, 192,288l0-128 c0-17.6, 14.4-32, 32-32l 96,0 c 17.6,0, 20.928,9.216, 7.424,20.512
	c0,0-13.824,11.488-13.824,37.248c0,13.216, 7.904,25.184, 20.672,33.856C 346.976,228.256, 364.608,233.6, 384,233.6c 19.456,0, 37.088-5.344, 49.824-14.016
	c 12.768-8.672, 20.608-20.64, 20.608-33.856c0-25.76-13.824-37.248-13.824-37.248C 427.072,137.216, 430.4,128, 448,128l 96,0 c 17.6,0, 32,14.4, 32,32l0,128 
	c0,17.6-9.216,20.928-20.48,7.392c0,0-11.52-13.824-37.28-13.824c-13.248,0-25.216,7.904-33.888,20.672c-8.672,12.704-14.016,30.304-14.016,49.76
	c0,19.456, 5.344,37.056, 14.016,49.792C 493.024,414.56, 504.992,422.4, 518.24,422.4z"  />
<glyph unicode="&#xe055;" d="M 256,544l0-282.88 c-5.184,0.8-10.496,1.28-16,1.28c-44.192,0-80-28.672-80-64s 35.808-64, 80-64c 41.44,0, 75.136,25.28, 79.2,57.6L 320,192 L 320,492.8 
	L 512,531.2l0-206.048 c-5.184,0.8-10.496,1.28-16,1.28c-44.192,0-80-28.672-80-64s 35.808-64, 80-64c 41.44,0, 75.136,25.28, 79.2,57.6L 576,256.032 L 576,608 L 256,544z"  />
<glyph unicode="&#xe056;" d="M 649.152,607.808c-9.664,0.96-19.2-1.696-27.776-5.28c-8.64-3.648-16.576-8.416-24.096-13.664
		c-1.856-1.28-3.584-2.592-5.344-3.904c-3.904,2.368-8.128,4.352-12.736,5.728c-33.984,12.448-74.432-7.776-86.528-41.984
		c-17.536-39.136-26.496-90.784-83.136-135.104l-22.4-18.592l-22.624,16.672C 308,456.128, 299.136,507.808, 281.696,546.976
		c-12,34.208-52.48,54.528-86.464,42.176C 160.832,579.008, 145.44,537.76, 154.816,504.864c 7.072-33.568, 41.184-61.44, 74.688-53.792
		c 34.912,7.968, 28.608,19.392, 41.824,23.2c 16.864,4.8, 27.52-46.016, 77.248-115.552l 1.472-2.048l-119.072-154.336
		C 214.144,174.56, 215.808,131.168, 237.632,96l 148.576,203.040L 536.672,96c 21.888,35.104, 23.392,78.528, 6.624,106.304l-120.8,154.336
		c0,0, 63.52,124.224, 80.416,119.328c 13.184-3.808, 6.848-15.2, 41.728-23.296c 33.536-7.712, 67.712,20.064, 74.816,53.6
		c 5.696,19.648, 2.4,42.272-8.448,59.52c 1.152,1.696, 2.304,3.36, 3.488,4.992c 4.672,6.368, 9.824,12.384, 15.552,17.504
		c 5.76,5.088, 12.16,9.44, 19.456,11.168c 7.232,1.856, 15.584,0, 22.496-5.12C 667.232,601.344, 658.88,606.976, 649.152,607.808z M 190.208,491.424
		C 172.16,509.696, 172.064,547.584, 196.832,560.672c 29.376,18.688, 68.8-11.328, 66.848-44.16C 263.68,480.832, 216.704,464.608, 190.208,491.424z M 583.904,492.96
		c-26.528-26.784-73.472-10.432-73.344,25.28c-1.92,32.832, 37.664,62.752, 67.008,44.032C 602.24,549.12, 602.048,511.296, 583.904,492.96z"  />
<glyph unicode="&#xe057;" d="M 192,608C 174.4,608, 160,593.6, 160,576l0-448 c0-17.6, 11.072-22.784, 24.608-11.488l 142.816,119.008c 13.536,11.296, 35.648,11.296, 49.184,0l 142.816-119.008
			C 532.928,105.216, 544,110.4, 544,128L 544,576 c0,17.6-14.4,32-32,32L 192,608 z"  />
<glyph unicode="&#xe058;" d="M 598.624,566.624c-12.512,12.512-32.736,12.512-45.248,0L 496,509.248l-12.128,12.128c-36.128,36.128-99.616,36.128-135.744,0l-133.504-133.504
	C 196.576,369.824, 186.592,345.696, 186.592,320s 9.984-49.824, 28.032-67.872L 226.752,240l-57.376-57.376c-12.512-12.512-12.512-32.736,0-45.248
	C 175.616,131.136, 183.808,128, 192,128s 16.384,3.136, 22.624,9.376L 272,194.752l 12.128-12.128c 18.048-18.048, 42.176-28.032, 67.872-28.032
	s 49.824,9.984, 67.872,28.032l 133.504,133.504c 18.048,18.048, 28.032,42.176, 28.032,67.872s-9.984,49.824-28.032,67.872L 541.248,464l 57.376,57.376
	C 611.136,533.888, 611.136,554.112, 598.624,566.624z M 508.128,406.624c 5.984-6.016, 9.28-14.016, 9.28-22.624s-3.328-16.64-9.28-22.624l-133.504-133.504
	c-12-11.936-33.248-11.936-45.248,0L 317.248,240l 25.376,25.376c 12.512,12.512, 12.512,32.736,0,45.248s-32.736,12.512-45.248,0L 272,285.248
	l-12.128,12.128C 253.92,303.36, 250.592,311.392, 250.592,320s 3.328,16.64, 9.28,22.624l 133.504,133.504c 6.016,5.984, 14.016,9.28, 22.624,9.28
	s 16.64-3.328, 22.624-9.28L 450.752,464l-25.376-25.376c-12.512-12.512-12.512-32.736,0-45.248C 431.616,387.136, 439.808,384, 448,384
	s 16.384,3.136, 22.624,9.376L 496,418.752L 508.128,406.624z"  />
<glyph unicode="&#xe059;" d="M 320,96l-208.224,211.392c-31.264,31.264-34.464,81.856-3.2,113.088s 72.256,40.8, 103.52,9.568l 86.208-86.048l 169.312,241.888
					c 25.344,36.16, 75.232,44.992, 111.392,19.648s 44.992-75.232, 19.648-111.392L 320,96z"  />
<glyph unicode="&#x20;" horiz-adv-x="384" />
</font>
</defs>
</svg>
