<?xml version="1.0" standalone="no"?>
<!DOCTYPE svg PUBLIC "-//W3C//DTD SVG 1.1//EN" "http://www.w3.org/Graphics/SVG/1.1/DTD/svg11.dtd">
<svg xmlns="http://www.w3.org/2000/svg">
<metadata>Copyright (C) 2014 by original authors @ fontello.com</metadata>
<defs>
<font id="fontello" horiz-adv-x="1000" >
<font-face font-family="fontello" font-weight="400" font-stretch="normal" units-per-em="1000" ascent="850" descent="-150" />
<missing-glyph horiz-adv-x="1000" />
<glyph glyph-name="airplane11" unicode="&#xe800;" d="m876 533c-55 38-132 32-205 13 12 102 12 264-128 244-152-23-165-259-159-385-24-16-49-30-75-40-65-26-168 35-237 38-37 2-48-42-28-66 68-80 92-189 179-253 57-42 138-38 209-27 0-95 20-182 117-172 91 10 131 129 144 245 97 44 189 105 231 208 27 67 13 154-48 195z m-365 146c34 56 79 38 86-18 4-38 1-79-5-118-1-8 0-16 3-22-27-11-52-22-73-32-21-10-41-22-61-35 0 78 11 160 50 225z m187-461c1 41-2 78-6 103-8 50-83 29-75-20 8-54 0-114-8-168-6-37-21-165-71-171-52-5-16 256-20 291-5 49-83 50-78 0 3-26-1-69-5-117-83-14-163-15-216 64-24 36-43 74-64 111 65-18 127-41 196-13 100 40 181 118 285 154 69 24 224 66 220-46-2-89-80-148-158-188z" horiz-adv-x="1000" />
<glyph glyph-name="white31" unicode="&#xe85a;" d="m924 416c-11 215-172 369-387 365-242 6-459-158-462-410-4-303 283-472 561-403 197 49 298 259 288 448z m-133 165c-57-29-112-59-169-86 23 57 49 114 76 170 37-21 68-49 93-84z m-619-325c-10 30-16 62-18 94-18 220 181 358 383 353 31 0 61-3 89-10-36-72-68-146-97-222-7 2-15 2-22 2-61 1-110-41-115-102 0-12 1-22 3-33-1-1-2-2-3-3-72-32-143-65-220-79z m109-160c-32 23-58 53-78 87 48 9 93 26 138 44-21-43-41-87-60-131z m377-38c-88-43-205-29-295-2-4 1-9 3-13 4 31 73 66 144 100 216 24-12 52-16 80-11 50 9 80 65 77 112 0 9-1 17-4 25 77 32 149 72 223 109 9-25 16-52 19-82 17-148-50-304-187-371z" horiz-adv-x="1000" />
<glyph glyph-name="arrow181" unicode="&#xe802;" d="m556 321c-1 47-1 95-1 142 67-1 133-3 200 4 19 2 41 17 39 39-13 141-177 184-240 293-13 22-43 26-61 8-87-85-155-188-231-284-19-11-18-37-5-54 10-16 30-25 46-15 58 10 116 11 174 11 0-49 0-98 1-148-2 0-5 0-7 0 0 0 0 0 0 0-84 0-201 1-234-96-25-70-35-214 25-271 57-54 148-53 221-52 96 1 192 17 287 30 13 2 24 16 27 28 21 80 55 245-16 311-59 55-144 57-225 54z m-184 218c46 62 92 124 144 180 22-24 47-46 72-67 33-28 91-66 116-110-111-6-221 4-332-3z m356-538c-115-18-237-38-352-19-79 12-77 75-75 145 1 37 1 75 36 97 35 23 94 15 133 15 1 0 1 0 1 0 3 0 7 0 10 0 2-28 4-56 8-84 6-49 85-50 78 0-4 29-6 59-8 88 53 3 107 2 153-20 53-26 31-157 16-222z" horiz-adv-x="1000" />
<glyph glyph-name="arrow182" unicode="&#xe803;" d="m105 653c0-212 0-424 0-636 0-25 20-37 40-37 3-1 6-2 10-2 201 1 403 5 605 0 50-1 50 77 0 79-192 4-384 0-576 0 0 198 0 397 0 596 0 50-79 50-79 0z m212-408c-49-5-50-83 0-78 166 14 221 149 316 258 16-18 32-36 48-54 19-20 60-11 66 17 12 67 44 126 52 194 2 16-13 35-29 38-68 11-140 12-209-2-6 0-13-1-19-5-24-9-29-35-19-54 1-3 3-7 6-10 17-22 35-43 53-65-77-92-133-228-265-239z m397 304c-6-25-14-48-23-72-21 24-42 48-62 72 28 3 57 2 85 0z" horiz-adv-x="1000" />
<glyph glyph-name="auricular3" unicode="&#xe804;" d="m322 275c0-1-1-1-1-2-4-4-8-10-9-18-8-50-62-120-36-171 27-54 79-70 136-77 125-15 218 99 274 194 64 105 104 224 115 346 12 123-80 203-195 227-20 5-43-5-48-27-11-50-38-93-60-139-10-20-5-41 14-53 75-51-8-168-36-229-8-19-17-38-26-56-2 0-5 0-7 0-9 2-17 4-26 5-22 2-45 6-67 9-11 1-20-2-26-8-1 0-1-1-2-1z m54-74c41-10 99-25 124 2 30 33 46 88 64 128 42 95 96 191 16 268 15 29 31 58 42 89 20-8 40-19 59-31 48-32 45-80 40-131-6-75-34-151-67-219-32-68-71-133-128-184-41-37-94-44-146-32-42 10-20 68-4 110z" horiz-adv-x="1000" />
<glyph glyph-name="bag12" unicode="&#xe805;" d="m896 544c-8 58-73 65-119 68-19 1-37 1-56 0 0 2-1 4-1 6-16 50-29 113-74 144-53 36-123 32-183 32-135-2-203-71-214-195-39-1-78-1-117-1-11 0-20-4-26-10-8-6-13-16-13-29 0-179 10-358 10-537 0-22 18-38 39-39 119-6 238-1 358 4 101 5 211-7 312 7 153 20 91 257 84 360-5 63 9 126 0 190z m-433 172c42 1 94 5 133-14 28-14 37-63 46-94-34-2-67-5-100-5-72 0-143-2-215-3 9 80 47 112 136 116z m-292-196c160-1 322-4 480 8 22 2 162 22 170-5 9-34 4-72 0-109-216 0-432 0-648 0-1 35-1 70-2 106z m655-430c-7-36-78-19-106-18-180 5-359-16-539-12-1 92-4 184-6 276 215 0 429 0 644 0 3-53 10-105 12-158 1-29 1-59-5-88z m-441 141c-35 1-69 2-104-2-21-2-39-16-39-39 0-19 18-41 39-39 35 4 69 2 104 2 50 0 50 78 0 78z m366 13c-36 0-73 0-109 0-51 0-51-78 0-78 36 0 73 0 109 0 51 0 51 78 0 78z" horiz-adv-x="1000" />
<glyph glyph-name="baggage4" unicode="&#xe806;" d="m104-2c13 0 25 0 38 1 7-33 35-52 75-57 23-2 48 3 71 6 12 2 24 5 36 7 5 1 10 2 15 3 0 0 15 2 5 1 20 3 41 16 39 39 0 1 0 2 0 3 92 2 184 6 276 11 23-51 98-56 147-48 43 7 82 30 94 68 9 1 18 2 27 3 21 2 40 16 39 39-4 170 9 341-10 510-2 17-11 35-29 38-56 10-112 14-167 15-36 135-120 180-263 173-71-4-172 3-235-36-58-35-66-86-67-145-37-1-74-2-112-6-4 0-9-1-12-3-15-4-27-16-27-36-1-184-23-376 23-557 4-17 20-29 37-29z m709 559c0 0 0-1 0-2-4-53 34-87 74-116 0 0 0 0 0 0 2-80 1-160 0-240-4-2-8-5-12-9-25-25-43-54-54-88-20-1-39-3-58-4-15 154-10 308-24 462 24 0 49-1 74-3z m-428-477c-27 152-29 316-29 471 45 0 90 0 135 1 56 2 113 5 170 7 15-155 9-312 24-467-100-6-200-10-300-12z m-34 640c53 11 110 10 165 13 93 5 137-22 162-95-53-1-106-4-159-6-81-4-163-2-245-2 2 46 15 77 77 90z m-232-268c33 22 65 46 75 87 1 4 1 8 1 12 11 0 21 0 32 0 5-1 11-1 17 1 11 0 22 0 34 0 0-156 3-320 28-474-29 0-59-1-88-1 0 1 0 2-1 2-16 44-52 71-95 84-10 95-7 193-3 289z" horiz-adv-x="1000" />
<glyph glyph-name="bank2" unicode="&#xe807;" d="m124 37c119-6 239-1 358 4 102 5 211-7 312 6 153 21 91 257 84 360-5 64 9 127 0 191-8 58-73 65-119 68-78 4-157-9-235-9-137-1-273-5-410-5-11 0-20-4-26-10-8-7-13-16-13-29 0-179 10-358 10-537 0-22 18-38 39-39z m684 107c-7-36-78-19-106-18-180 4-359-17-539-12-1 87-3 174-6 261 215 10 430 9 644 7 4-50 10-100 12-150 1-30 1-59-5-88z m-175 438c22 2 162 22 170-5 4-17 5-36 4-54-217 2-435 3-653-7 0 19 0 38-1 58 160-1 322-5 480 8z m28-270c-142 14-294-10-437-10-7 0-11-3-15-7-3-3-5-7-5-13 0-34-1-68 4-101 2-11 15-15 24-14 167 28 343-1 511 2 10 0 20 9 19 20-8 83-8 113-101 123z m-417-104c-2 18-1 37-1 55 90 1 180 3 270 6 49 2 99 6 148 4 54-3 58-28 61-65-158-1-321 22-478 0z" horiz-adv-x="1000" />
<glyph glyph-name="bars3" unicode="&#xe808;" d="m574 712c-60 32-129 23-195 22-10 0-18-4-25-9-8-6-14-16-14-30 1-174 21-348 6-522-6-64-7-131 40-179 44-45 129-27 183-26 16 0 34 12 37 29 39 182 16 371 8 555-2 48 14 131-40 160z m-38-668c-53-4-109-8-114 63-4 55 8 110 9 165 4 129-9 258-12 386 46 3 113 4 115-21 5-61 3-123 7-183 8-136 19-275-5-410z m-446-70c55-15 123-13 179-5 78 12 35 161 34 208-1 84 10 173-8 256-21 90-136 52-201 50-17 0-28-10-33-22-3-4-5-10-6-17-13-144 6-289 7-432 0-18 12-33 28-38z m41 433c13 1 25 3 38 3 41 3 51 12 56-33 5-57 0-116 0-173 0-38-3-81 4-119 1-8 3-17 4-25 2-8 3-13 5-17-1 0-2 0-2 0-30-2-65-3-97 1-3 121-15 243-8 363z m551 212c-19-4-27-17-28-32 0-2 0-4 0-6 0-101 2-203 6-304 3-93-3-188 10-280 3-18 22-26 38-28 62-8 123 1 185 0 20-1 41 18 39 39-15 179 9 362-8 539-11 107-172 86-242 72z m163-222c-1-117-2-234 6-350-36-1-72-4-108-3-9 86-3 175-6 260-3 82-4 163-5 244 30 5 62 5 92 1 41-6 21-124 21-152z" horiz-adv-x="1000" />
<glyph glyph-name="basket7" unicode="&#xe809;" d="m229 31c182 34 369 10 552 9 2 0 4 0 6 1 15 0 29 8 32 28 23 130 50 259 89 385 7 24-13 51-38 50-46-2-92-4-137-5 34 65 77 125 131 175 37 34-19 89-56 55-70-64-123-147-164-233-105-3-211-5-316-6-56 89-139 154-222 217-41 30-79-38-40-68 59-44 120-92 167-150-45 0-89-1-134-1-12 0-20-4-27-11-10-8-16-21-11-38 42-127 69-257 120-381 9-21 25-31 48-27z m588 393c-28-101-50-203-68-305-169 3-338 19-505-7-37 98-62 199-92 298 222 1 444 6 665 14z m-500-252c8-24 46-14 38 10-21 61-36 123-47 186-4 25-42 15-38-10 11-63 27-125 47-186z m177 6c0-25 39-25 39 0-2 61-25 118-32 178-2 25-41 25-39 0 7-60 30-117 32-178z m210 10c-17 56-11 114-13 172 0 25-39 25-39 0 2-61-3-123 14-183 7-24 45-13 38 11z" horiz-adv-x="1000" />
<glyph glyph-name="battery49" unicode="&#xe80a;" d="m415 178c136 2 272-2 407 2 35 1 52 41 28 66-1 1-1 2-2 3 14 0 28 0 41 1 23 3 38 17 39 39 4 68 5 136 3 204-1 16-12 34-29 37-21 4-42 5-64 6 10 25-2 55-34 55-247 4-495 6-742-2-6-1-11-2-15-4-14-4-25-16-24-36 6-90 1-180-1-271-1-55 15-98 77-103 104-9 213 2 316 3z m406 281c11 0 22 0 32-1 1-44 1-87-1-131-10 0-19 0-29 1-9 42-7 88-2 131z m-720-147c2 66 4 133 2 199 212 6 425 6 637 3-30-80-26-180 10-257-181-4-363-2-545-2-29 0-59-4-88-4-28 0-17 34-16 61z m53-29c177 3 355 0 532 0 10 0 20 9 19 19-2 54-5 109-8 163-1 12-9 18-20 20-96 11-196 3-292 1-76-2-152 1-228-4-3 0-5-1-7-2 0 0 0 0 0 0-1 0-1 0-1-1-7-2-12-8-12-17 0-53-2-106-2-160 0-10 9-20 19-19z m22 161c70 4 139 1 209 3 90 2 183 8 274 0 2-42 4-83 6-125-163 0-327 2-491 0 1 40 2 81 2 122z m141-59c35-11 66-31 101-42 13-4 24 7 25 19 0 5 1 10 2 15 25-9 50-16 76-25 23-8 34 30 10 38-30 10-60 17-89 30-9 4-22 3-27-7-3-8-6-16-8-24-26 11-52 25-80 34-23 8-34-30-10-38z" horiz-adv-x="1000" />
<glyph glyph-name="bible" unicode="&#xe80b;" d="m371-60c165-9 331 1 496-4 51-2 50 77 0 78-7 0-14 0-21 1-1 0-1 0-1 0-39 29-55 108 0 129 6 2 10 5 14 8 1 0 3 0 5 0 13 1 22 6 29 13 7 7 12 16 10 30-20 174-48 347-92 517-4 16-20 30-37 29-185-12-371-10-556-10-23 0-37-18-39-39-20-186-46-376-102-555-3-9-3-17 0-24-1-5-1-10-1-15-5-141 197-153 295-158z m99 713c12 0 24 0 36 0 4-40 12-82 9-122-4 3-8 6-12 10-9 9-24 7-30-4-1-1-2-2-2-3-4 40-2 80-1 119z m-217 0c59 0 118 0 178 0-1-55-5-110 7-163 4-16 22-18 33-9 7 7 14 12 21 18 9-7 19-13 29-18 11-4 27-1 29 12 10 53-1 107-5 161 66 1 132 3 198 7 35-142 60-286 78-431-160-2-319 2-478 3-50 1-110 4-161-8 35 140 55 285 71 428z m197-499c99-1 198-3 298-3-20-41-19-91 2-135-81 1-162 1-243 1-62 0-124 0-186 5-44 3-149 11-167 62-37 105 252 71 296 70z" horiz-adv-x="1000" />
<glyph glyph-name="blank5" unicode="&#xe80c;" d="m270-92c175-33 351-11 528-1 23 1 37 17 39 39 18 160 1 324 25 483 15 100 17 194-61 268-136 127-363 65-528 90-5 0-9 0-13 0-18-2-36-14-36-38-8-268 8-535 17-803 0-16 11-34 29-38z m399 772c21-7 41-16 60-27 46-27 62-69 64-116-2 0-3 0-5-1-48-13-96-19-145-14 8 53 18 105 26 158z m-368 26c95-6 197 5 293-9-10-69-24-138-34-207-2-16 14-34 29-38 67-15 133-11 199 4-4-27-8-54-11-78-14-131-4-264-15-395-148-10-297-27-444-4-9 242-22 485-17 727z" horiz-adv-x="1000" />
<glyph glyph-name="boat6" unicode="&#xe80d;" d="m275-69c65-11 126-31 192-34 76-3 151 6 224 22 70 16 95 48 124 112 26 57 35 120 30 181-1 22-16 38-39 39-189 8-377-3-566-4-6 1-12 0-18-1-11-2-18-8-23-15-6-9-10-20-7-33 17-76 26-153 57-225-5-18 2-38 26-42z m493 243c-2-30-7-60-16-90-21-73-66-88-134-100-105-19-197 1-298 18 0 1 0 1 0 2-24 52-33 109-43 165 164 2 327 10 491 5z m-467 105c57 0 115 1 172 2 13 0 23 5 29 13 6 6 10 15 10 26 3 147-3 295-9 442-2 44-65 54-77 11-25-90-106-154-141-241-28-65-51-156-22-225 7-16 18-28 38-28z m129 342c3-88 5-175 4-263-35 0-70 0-105-1-23 96 43 181 101 264z m154-339c51-1 101-2 151-3 21-1 41 18 39 39-8 129-25 300-167 349-25 9-49-13-50-37-3-103-11-206-12-309 0-14 6-24 15-31 6-5 14-8 24-8z m49 280c46-49 56-135 61-204-24 0-47 1-70 1 2 68 5 135 9 203z" horiz-adv-x="1000" />
<glyph glyph-name="bold8" unicode="&#xe80e;" d="m515 667c-78 0-140-51-146-129-7-98 88-149 174-134 65 11 101 82 98 143-3 70-57 120-126 120z m22-182c-36-24-85 3-90 43-4 41 32 61 68 61 55 0 65-77 22-104z m-120 296c-145-45-202-181-173-322 41-202 116-382 254-538 14-14 43-16 56 0 120 149 174 360 213 544 18 71 12 149-21 214-58 116-217 137-329 102z m274-295c-33-156-74-340-167-474-86 106-146 228-183 360-36 131-55 278 97 334 157 59 296-61 253-220z" horiz-adv-x="1000" />
<glyph glyph-name="calculator18" unicode="&#xe80f;" d="m224-72c93 2 184 17 277 21 97 5 194-14 291-16 17 0 34 12 38 29 54 249-6 506-30 755-2 16-11 35-29 38-194 31-388 5-583 3-11 0-20-4-26-10-8-6-13-16-13-29 0-251 9-502 36-752 2-21 16-39 39-39z m501 755c25-220 75-450 35-670-87 3-173 16-259 15-81-2-161-16-242-20-22 223-31 448-32 673 166 4 333 24 498 2z m-428-255c128 43 265-2 396 21 9 1 14 10 14 18 1 62 15 136-49 169-39 20-98 7-140 7-77 0-154 0-231 0-7 0-12-3-15-7-3-3-5-7-5-12 0-61-4-122 6-183 2-10 15-16 24-13z m9 176c71 0 141 0 212 0 30 0 61 1 92 1 71 0 60-73 59-113-1-24-56-13-79-13-34 0-68 3-102 5-61 4-121 4-180-12-5 44-3 88-2 132z m49-379c16 0 30 6 40 18 8 10 13 23 13 37 0 27-18 55-53 55-17 0-31-7-41-18-8-10-13-23-13-37 0-27 18-55 54-55z m151 11c16 0 30 6 40 17 8 10 13 23 13 37 0 27-18 55-53 55-17 0-31-6-41-18-8-10-13-23-13-37 0-27 18-54 54-54z m151 104c-17 0-31-7-41-18-8-10-13-23-13-37 0-27 19-55 54-55 16 0 30 7 40 18 8 10 13 23 13 37 0 27-18 55-53 55z m5-151c-16 0-31-7-40-18-9-10-14-23-14-37 0-27 19-55 54-55 16 0 30 7 40 18 9 10 13 23 13 37 0 27-18 55-53 55z m-151 5c-16 0-31-6-40-18-9-10-14-23-14-37 0-27 19-54 54-54 16 0 30 6 40 17 8 10 13 23 13 37 0 27-18 55-53 55z m-151-21c-16 0-31-6-40-18-9-9-14-23-14-37 0-27 19-54 54-54 16 0 30 6 40 17 8 10 13 23 13 37 0 28-18 55-53 55z" horiz-adv-x="1000" />
<glyph glyph-name="calendar32" unicode="&#xe810;" d="m125 665c-8-6-13-16-13-29 0-226 10-451 10-677 0-22 18-38 39-39 129-6 257 0 386 5 64 3 128 5 192 5 41 0 101-13 137 12 50 35 50 95 52 151 4 86-3 173-9 259-4 65-3 127 0 192 3 69-5 127-81 141-38 7-76 6-115 4 0 28 0 55 0 83 0 50-78 50-78 0 0-30 0-60 0-89-19-2-37-3-55-3-60 0-120-1-180-2-1 35-3 70-9 104-8 50-84 29-75-20 4-28 6-57 7-85-61-1-122-2-182-2-11 0-20-4-26-10z m722-615c-3-39-6-42-47-44-199-5-401-17-600-9-1 133-4 267-7 401 215 6 430 10 645 10 1-18 2-37 3-56 5-70 9-140 10-209 0-31-1-62-4-93z m-515 548c0-6 0-12 0-17 0-51 78-51 78 0 0 6 0 12 0 18 78 2 157 4 235 7 0-10 0-20 0-29 0-51 78-51 78 0 0 11 0 22 0 32 6 1 12 1 18 1 15 1 93 10 99-10 9-32 0-76-2-109 0-2 0-3 0-4-216-1-431-5-646-11-1 40-1 81-2 121 48 0 95 1 142 1z m20-241c-18 23-51 9-75 9-7 0-11-3-15-7-2-3-4-7-4-12-1-27-6-57 18-75 9-7 24-5 35-4 11 2 23 3 34 5 6 1 13 8 14 14 2 11 1 22 1 33-1 11-1 27-8 37z m-35-49c-5 0-10-1-15-1-2 0-3 0-5 0-1 3-1 7-1 11 0 4 0 7 0 11 8 1 16 3 23 2 1-3 1-7 1-11 1-4 1-7 1-11-2 0-3-1-4-1z m35-70c-18 23-51 10-75 10-7 0-11-3-15-7-2-3-4-7-4-13-1-26-6-57 18-75 9-6 24-4 35-3 11 1 23 3 34 5 6 1 13 7 14 13 2 11 1 23 1 34-1 11-1 27-8 36z m-35-48c-5-1-10-1-15-2-2 0-3 0-5 0-1 4-1 8-1 11 0 4 0 8 0 12 8 1 16 2 23 2 1-4 1-8 1-11 1-4 1-8 1-12-2 0-3 0-4 0z m35-71c-18 24-51 10-75 10-7 0-11-3-15-7-2-3-4-7-4-12-1-27-6-57 18-75 9-7 24-5 35-4 11 1 23 3 34 5 6 1 13 8 14 14 2 11 1 22 1 33-1 11-1 27-8 36z m-35-48c-5-1-10-1-15-1-2-1-3-1-5-1-1 4-1 8-1 12 0 3 0 7 0 11 8 1 16 2 23 2 1-3 1-7 1-11 1-4 1-8 1-11-2-1-3-1-4-1z m170 286c-18 23-51 9-75 9-7 0-12-3-15-7-2-3-4-7-4-12-1-27-6-57 18-75 8-7 24-5 35-4 11 2 23 3 34 5 6 1 13 8 14 14 2 11 1 22 0 33 0 11 0 27-7 37z m-36-49c-4 0-9-1-14-1-2 0-4 0-5 0-1 3-1 7-1 11 0 4 0 7 0 11 8 1 16 3 23 2 1-3 1-7 1-11 1-4 1-7 1-11-2 0-3-1-5-1z m36-70c-18 23-51 10-75 10-7 0-12-3-15-7-2-3-4-7-4-13-1-26-6-57 18-75 8-6 24-4 35-3 11 1 23 3 34 5 6 1 13 7 14 13 2 11 1 23 0 34 0 11 0 27-7 36z m-36-48c-4-1-9-1-14-2-2 0-4 0-5 0-1 4-1 8-1 11 0 4 0 8 0 12 8 1 16 2 23 2 1-4 1-8 1-11 1-4 1-8 1-12-2 0-3 0-5 0z m36-71c-18 24-51 10-75 10-7 0-12-3-15-7-2-3-4-7-4-12-1-27-6-57 18-75 8-7 24-5 35-4 11 1 23 3 34 5 6 1 13 8 14 14 2 11 1 22 0 33 0 11 0 27-7 36z m-36-48c-4-1-9-1-14-1-2-1-4-1-5-1-1 4-1 8-1 12 0 3 0 7 0 11 8 1 16 2 23 2 1-3 1-7 1-11 1-4 1-8 1-11-2-1-3-1-5-1z m171 286c-18 23-51 9-75 9-7 0-12-3-15-7-3-3-4-7-5-12 0-27-5-57 18-75 9-7 25-5 35-4 12 2 23 3 35 5 6 1 12 8 14 14 2 11 1 22 0 33 0 11 0 27-7 37z m-36-49c-5 0-9-1-14-1-2 0-4 0-5 0-1 3-1 7-1 11 0 4 0 7 0 11 8 1 16 3 23 2 1-3 1-7 1-11 1-4 1-7 1-11-2 0-3-1-5-1z m36-70c-18 23-51 10-75 10-7 0-12-3-15-7-3-3-4-7-5-13 0-26-5-57 18-75 9-6 25-4 35-3 12 1 23 3 35 5 6 1 12 7 14 13 2 11 1 23 0 34 0 11 0 27-7 36z m-36-48c-5-1-9-1-14-2-2 0-4 0-5 0-1 4-1 8-1 11 0 4 0 8 0 12 8 1 16 2 23 2 1-4 1-8 1-11 1-4 1-8 1-12-2 0-3 0-5 0z m36-71c-18 24-51 10-75 10-7 0-12-3-15-7-3-3-4-7-5-12 0-27-5-57 18-75 9-7 25-5 35-4 12 1 23 3 35 5 6 1 12 8 14 14 2 11 1 22 0 33 0 11 0 27-7 36z m-36-48c-5-1-9-1-14-1-2-1-4-1-5-1-1 4-1 8-1 12 0 3 0 7 0 11 8 1 16 2 23 2 1-3 1-7 1-11 1-4 1-8 1-11-2-1-3-1-5-1z m171 286c-18 23-51 9-75 9-7 0-12-3-15-7-3-3-5-7-5-12 0-27-6-57 18-75 9-7 25-5 35-4 12 2 23 3 35 5 6 1 12 8 13 14 3 11 2 22 1 33-1 11 0 27-7 37z m-36-49c-5 0-10-1-14-1-2 0-4 0-5 0-1 3-1 7-2 11 0 4 1 7 1 11 8 1 16 3 23 2 1-3 1-7 1-11 0-4 0-7 1-11-2 0-3-1-5-1z m36-70c-18 23-51 10-75 10-7 0-12-3-15-7-3-3-5-7-5-13 0-26-6-57 18-75 9-6 25-4 35-3 12 1 23 3 35 5 6 1 12 7 13 13 3 11 2 23 1 34-1 11 0 27-7 36z m-36-48c-5-1-10-1-14-2-2 0-4 0-5 0-1 4-1 8-2 11 0 4 1 8 1 12 8 1 16 2 23 2 1-4 1-8 1-11 0-4 0-8 1-12-2 0-3 0-5 0z m36-71c-18 24-51 10-75 10-7 0-12-3-15-7-3-3-5-7-5-12 0-27-6-57 18-75 9-7 25-5 35-4 12 1 23 3 35 5 6 1 12 8 13 14 3 11 2 22 1 33-1 11 0 27-7 36z m-36-48c-5-1-10-1-14-1-2-1-4-1-5-1-1 4-1 8-2 12 0 3 1 7 1 11 8 1 16 2 23 2 1-3 1-7 1-11 0-4 0-8 1-11-2-1-3-1-5-1z" horiz-adv-x="1000" />
<glyph glyph-name="cellular" unicode="&#xe811;" d="m790 391c-2 57 11 114 8 171-4 81-39 99-114 102-80 3-163 1-245-4 6 36-7 78-20 107-17 35-63 71-99 35-24-24-26-64-28-96-1-19 0-38 0-57-1-1-3-1-4-1-8 0-14-3-19-6-21 1-42-11-42-38 0-139 9-278 10-417 0-56 4-112-1-169-2-36 15-69 47-85 36-18 93-6 132-8 65-3 131-7 196-7 46-1 161-30 189 24 31 60 6 172 3 235-4 72-10 143-13 214z m-73-401c-28-1-56 2-84 5-63 4-127 4-191 7-35 2-70 4-105 3-36-1-20 46-20 74-1 164-10 328-12 492 79 7 158 7 237 8 56 1 117 13 173 4 10-43 5-88 1-132-7-81 1-162 6-243 5-61 4-122 9-184 1-23 10-32-14-34z m-114 346c66 4 84 12 73 83-5 40 9 104-36 123-32 13-83-2-115-5-57-4-114-7-171-9-4 0-8-1-10-3 0 0-1 0-1 0 0-1 0-1-1-1-4-3-8-8-8-15 0-51-1-102 0-152 1-9 6-17 15-19 83-21 169-7 254-2z m-230 154c65 3 129 6 194 12 11 1 62 13 64-5 3-19 2-39 3-58 1-11 18-64-2-63-27 0-54-2-82-4-59-5-119-11-177 0-1 40 0 79 0 118z m71-212c-18 23-51 9-75 9-7 0-12-2-15-7-3-3-4-7-5-12 0-26-5-57 18-75 9-7 25-4 35-3 12 1 24 3 35 4 6 2 12 8 14 14 2 11 1 22 0 33 0 11 0 27-7 37z m-36-49c-4 0-9-1-14-1-2 0-4 0-5 0-1 3-1 7-1 11 0 4 0 7 0 11 8 1 16 3 23 2 1-3 1-7 1-11 1-4 1-7 1-11-2 0-3-1-5-1z m154 49c-18 23-51 9-75 9-7 0-11-2-15-7-2-3-4-7-4-12-1-26-6-57 18-75 8-7 24-4 35-3 11 1 23 3 34 4 6 2 13 8 14 14 2 11 1 22 0 33 0 11 0 27-7 37z m-36-49c-4 0-9-1-14-1-2 0-3 0-5 0-1 3-1 7-1 11 0 4 0 7 0 11 8 1 16 3 23 2 1-3 1-7 1-11 1-4 1-7 1-11-2 0-3-1-5-1z m154 49c-17 23-51 9-75 9-6 0-11-2-14-7-3-3-5-7-5-12-1-26-6-57 18-75 9-7 24-4 35-3 11 1 23 3 34 4 6 2 13 8 14 14 2 11 1 22 1 33-1 11-1 27-8 37z m-35-49c-5 0-10-1-15-1-2 0-3 0-5 0-1 3-1 7-1 11 0 4 0 7 0 11 8 1 16 3 23 2 1-3 1-7 2-11 0-4 0-7 0-11-2 0-3-1-4-1z m-201-80c-18 23-51 9-75 9-7 0-12-3-15-7-3-3-4-7-5-12 0-27-5-57 18-75 9-7 25-5 35-4 12 1 24 3 35 5 6 1 12 8 14 14 2 11 1 22 0 33 0 11 0 27-7 37z m-36-49c-4-1-9-1-14-1-2 0-4 0-5 0-1 3-1 7-1 11 0 4 0 7 0 11 8 1 16 2 23 2 1-3 1-7 1-11 1-4 1-7 1-11-2 0-3-1-5-1z m154 49c-18 23-51 9-75 9-7 0-11-3-15-7-2-3-4-7-4-12-1-27-6-57 18-75 8-7 24-5 35-4 11 1 23 3 34 5 6 1 13 8 14 14 2 11 1 22 0 33 0 11 0 27-7 37z m-36-49c-4-1-9-1-14-1-2 0-3 0-5 0-1 3-1 7-1 11 0 4 0 7 0 11 8 1 16 2 23 2 1-3 1-7 1-11 1-4 1-7 1-11-2 0-3-1-5-1z m154 49c-17 23-51 9-75 9-6 0-11-3-14-7-3-3-5-7-5-12-1-27-6-57 18-75 9-7 24-5 35-4 11 1 23 3 34 5 6 1 13 8 14 14 2 11 1 22 1 33-1 11-1 27-8 37z m-35-49c-5-1-10-1-15-1-2 0-3 0-5 0-1 3-1 7-1 11 0 4 0 7 0 11 8 1 16 2 23 2 1-3 1-7 2-11 0-4 0-7 0-11-2 0-3-1-4-1z" horiz-adv-x="1000" />
<glyph glyph-name="chart7" unicode="&#xe812;" d="m141 592c14 0 29 0 44 1-1-106-1-212 14-317-17-1-34-1-51-1-50 0-50-78 0-78 103 1 205 5 308 8 0-14 1-29 1-43-55-42-111-83-169-122-42-28-3-96 39-68 47 32 93 65 138 99 1-8 1-15 3-23 7-50 83-28 75 21-1 7-2 15-3 23 63-30 126-61 185-99 43-27 82 41 40 68-74 46-152 83-231 118 0 9 0 18 0 27 106 1 212-2 318-18 49-7 70 68 20 75-12 2-25 4-38 6 18 105-4 214-22 318 11-1 21-2 32-4 49-7 70 68 21 76-111 16-222 20-333 19-4 26-3 52-3 78 0 51-78 51-78 0 0-26 0-52 3-79-104-2-209-6-313-7-51 0-51-78 0-78z m122 2c157 5 314 13 470 1 0-2 0-3 0-5 16-96 40-198 26-295-161-2-322 9-482-11-16 103-15 207-14 310z m299-256c59 19 90 85 84 144-8 67-63 106-128 106-73-1-160-82-146-160 15-85 115-115 190-90z m-53 157c1 18 3 36 4 54 2 0 4 0 5 0 41 0 70-22 82-52-27-11-56-21-85-25-3 0-5 0-7 0-1 7 1 16 1 23z m-36 39c-5-35-15-91 22-100 21-5 46 3 66 9 16 4 31 9 47 15-1-27-13-55-41-74-42-30-122-17-150 27-27 43 12 98 56 123z" horiz-adv-x="1000" />
<glyph glyph-name="check18" unicode="&#xe813;" d="m422 81c19-19 61-12 66 18 28 186 168 343 275 491 29 41-39 80-68 39-97-135-220-277-268-441-54 56-109 111-171 160-39 31-94-23-55-55 80-64 149-139 221-212z" horiz-adv-x="1000" />
<glyph glyph-name="circles2" unicode="&#xe814;" d="m97 360c-9-292 270-457 536-388 187 49 281 252 269 432-15 201-167 341-367 338-227 5-430-146-438-382z m438 304c155 2 261-93 287-244 23-139-42-292-168-357-82-43-191-31-277-7-131 38-192 155-201 283-15 203 173 329 359 325z m53-587c136 29 206 175 201 303-6 149-118 252-264 251-161 3-303-101-314-267-14-212 186-328 377-287z m-63 495c236 2 280-343 74-430-60-26-134-16-194 2-90 28-129 113-135 200-11 144 125 231 255 228z m25-392c89 15 133 111 129 192-5 91-74 152-164 152-101 1-187-62-194-166-10-132 114-199 229-178z m-35 305c138 0 168-186 60-254-32-21-75-18-111-12-64 11-97 61-104 122-10 91 74 145 155 144z" horiz-adv-x="1000" />
<glyph glyph-name="circular21" unicode="&#xe815;" d="m541 743c-241 6-459-158-462-410-4-303 283-472 562-403 196 48 298 259 288 448-11 215-173 368-388 365z m255-202c-12-1-24-1-36 0 0 15-1 29-1 44 14-13 26-28 37-44z m-43-298c-64 6-128 12-190 27 12 35 25 70 40 103 43-15 89-23 136-28 4-34 9-68 14-102z m-186 145c-15-35-29-71-42-108-22 7-44 15-66 26-36 18-65 45-87 77 32 27 66 53 100 77 8-10 16-19 26-28 21-18 44-32 69-44z m-63 94c37 25 74 49 113 71 3-2 6-5 9-8 6-4 12-8 18-12-22-34-41-70-59-107-10 5-19 9-29 14-22 12-39 26-52 42z m230-96c-38 6-76 14-113 26 18 36 37 71 59 105 14-5 28-8 43-11 3-40 6-80 11-120z m-14 189c0-9 1-18 1-27-6 2-11 3-17 5 5 7 11 15 16 22z m-53-7c-4 1-8 3-12 5-1 1-1 1-2 1 11 6 21 12 31 18-6-8-11-16-17-24z m17 68c-20-11-39-22-59-33-8 16-11 36-11 55 25-5 48-12 70-22z m-143 29c12 0 23-1 34-1 1-29 5-56 18-80-38-22-74-45-110-69-21 42-25 93-26 143 28 5 56 7 84 7z m-123-15c2-56 8-110 33-157-34-25-67-50-98-77-29 56-43 122-50 183 35 22 74 40 115 51z m-151-78c9-64 26-126 57-181-34-31-67-63-97-98-23 39-43 80-61 120 16 64 52 118 101 159z m-109-260c-1 10-1 20-1 29 14-27 28-53 44-78-9-12-19-24-28-36-7 27-12 56-15 85z m300-315c-31 5-62 12-90 21-89 26-146 87-179 164 11 16 23 32 35 47 33-46 72-86 121-117 38-25 80-41 124-51-4-21-8-42-11-64z m-93 148c-48 28-85 68-117 114 31 35 63 68 97 99 12-16 25-32 40-47 36-35 80-57 127-72-13-45-25-91-35-138-39 10-76 24-112 44z m297-125c-49-24-108-31-165-27 3 20 6 40 10 60 65-11 133-11 198-8-13-9-27-18-43-25z m92 68c-79-7-161-9-239 5 10 46 21 91 35 136 68-16 141-20 209-26 5-30 10-60 16-91-7-8-14-16-21-24z m52 72c-2 13-4 26-7 39 9 0 16-1 24-2-5-13-11-25-17-37z m30 74c-14 2-29 4-43 5-5 34-10 68-14 103 25-2 49-3 73-3-1-36-6-71-16-105z m15 144c-26 1-52 2-77 4-5 40-9 80-11 120 19-1 37-1 55 1 16-33 27-71 32-112 0-4 0-9 1-13z" horiz-adv-x="1000" />
<glyph glyph-name="clipboard18" unicode="&#xe816;" d="m243-75c86-48 196-18 289-16 59 1 200-53 246 2 46 55 28 154 24 220-7 118 1 234-1 352-1 82-12 194-113 200-56 3-113 2-171 0-10 12-24 13-56 13-1-5-2-11-3-16-74-5-149-10-222-10-11 0-19-4-26-10-8-6-13-16-13-29 0-137 4-274 5-412 0-78-46-245 41-294z m359 581c-5 11-10 22-16 33 27-1 50-9 52-41 3-37 2-74 2-110-1-47-2-93 3-140 5-50 27-145-55-140-57 4-115-9-172 1-18 3-35 3-53 6-9 1-10 72-11 84-6 111 13 222 16 333 17 0 34 1 51 2-6-12-12-24-13-36 45 0 157-15 196 8z m-323-216c-1 101-3 202-4 302 59 1 117 3 175 5-1-2-1-5-2-7-1-6-4-11-6-16-31-2-62-3-93-4-6 0-10-2-13-5 0 0-1-1-1-1 0 0 0 0 0 0-3-3-6-8-6-13-1-131-25-261-13-392 8-98 70-94 160-93 78 0 198-25 211 76 6 50-5 102-9 151-7 86 4 172-6 258-1 8-5 17-14 19-31 4-61 6-91 6-4 8-8 16-12 24 15 1 31 1 47 1 31 0 67 8 98 2 30-6 23-149 23-173-1-83-9-166-3-249 5-68 17-144 3-211-2-9-171 16-191 17-48 2-232-43-255 18-15 39-2 95 1 136 4 49 2 100 1 149z m218 386c16 0 30 7 40 18 9 10 13 23 13 37 0 27-18 55-53 55-16 0-30-7-40-18-9-10-13-23-13-37 0-27 18-55 53-55z" horiz-adv-x="1000" />
<glyph glyph-name="clipboard19" unicode="&#xe817;" d="m586 406c-23-7-39-16-62-3-14 8-25 15-41 19-28 6-57-9-82-21-22-10-3-44 20-33 16 7 31 15 48 16 19 1 34-17 51-23 27-10 49-1 76 7 24 8 14 46-10 38z m-165 46c16 7 31 15 48 16 19 1 34-17 51-23 27-10 49-1 76 7 24 8 14 46-10 38-23-7-39-16-62-3-14 8-25 15-41 19-28 6-57-9-82-21-22-10-3-44 20-33z m165-124c-23-7-39-16-62-3-14 8-25 15-41 19-28 6-57-9-82-20-22-11-3-45 20-34 16 7 31 15 48 16 19 2 34-17 51-23 27-10 49-1 76 8 24 8 14 45-10 37z m0-77c-23-8-39-17-62-4-14 9-25 16-41 19-28 7-57-9-82-20-22-11-3-44 20-34 16 7 31 15 48 16 19 2 34-16 51-23 27-10 49-1 76 8 24 8 14 46-10 38z m207-68c-7 118 1 234-1 352-1 76-8 184-102 190-53 3-106 2-158 0 3 3 5 5 8 8 8 10 13 23 13 37 0 27-18 55-53 55-16 0-31-6-40-18-9-10-14-23-14-37 0-13 5-27 14-37-1-4-1-7-2-11-74-4-148-10-221-10-8 0-15-3-19-7-6-5-10-12-10-22 0-137 4-274 5-412 0-73-45-239 36-285 84-47 194-17 285-15 54 1 195-52 238-1 43 52 25 151 21 213z m-190 375c-5 11-10 22-16 34 27-2 50-9 52-42 3-37 2-74 2-110-1-47-2-93 3-140 5-50 27-145-55-140-57 4-114-9-172 1-18 3-35 3-53 6-9 1-10 72-11 84-5 111 13 222 16 333 17 0 34 1 51 2-6-12-12-23-13-35 45 0 157-16 196 7z m130-539c-5-23-176 10-199 11-56 2-238-47-265 24-15 40-3 97 0 139 5 49 2 100 1 149-1 104-3 208-3 312 62 1 124 3 186 5-1-5-2-11-4-17-1-6-3-11-6-16-31-2-62-3-93-4-6 0-10-2-13-5 0 0-1 0-1-1 0 0 0 0 0 0-3-3-5-7-5-13-2-131-25-261-14-392 8-98 71-94 160-93 78 0 198-25 211 76 6 50-5 102-9 151-6 86 4 172-6 258-1 8-5 17-14 19-30 4-61 6-91 6-6 12-11 23-17 34 17 0 35 1 52 1 32 0 69 8 101 2 39-8 30-154 30-183-1-83-9-166-3-249 5-69 17-145 2-214z" horiz-adv-x="1000" />
<glyph glyph-name="clothing" unicode="&#xe818;" d="m579 467c65 96 81 237-43 288-57 23-130 6-175-34-54-48-23-120 18-164 34-37 89 18 55 55-66 72 56 92 102 55 54-44-10-148-52-192-10 0-17-4-23-9-4 0-7 0-10 0-196-33-347-202-379-395-4-24 10-49 37-49 142 1 283 18 424 15 134-2 265-35 399-14 25 4 36 38 24 58-97 160-192 344-377 386z m-71-351c-116 2-233-11-349-15 42 146 158 264 312 289 7 2 12 4 16 7 192 5 285-156 371-304-117-6-234 21-350 23z" horiz-adv-x="1000" />
<glyph glyph-name="cloud68" unicode="&#xe819;" d="m845 485c18 181-153 302-328 284-149-16-261-121-283-261-60 16-134-8-170-59-61-86-39-200 24-278 2-2 4-5 6-7 2-3 5-5 7-6 176-164 457-158 672-85 96 32 191 88 199 199 7 105-29 186-127 213z m34-258c-37-72-173-96-245-110-162-33-361-18-484 102-29 33-43 74-45 117-4 66 86 141 137 76 21-27 68-5 66 27-5 115 56 209 167 242 142 43 331-41 288-216-5-19 5-45 27-48 45-6 97-21 104-75 5-38 2-80-15-115z" horiz-adv-x="1000" />
<glyph glyph-name="computer28" unicode="&#xe81a;" d="m303 269c136 35 275 20 414 24 10 0 20 8 20 19-6 82 44 217-44 269-44 26-121 15-169 14-82-2-164-11-246-12-6 0-10-2-13-5-4-3-7-8-7-14 0-94-1-190 21-282 2-10 14-16 24-13z m288 287c73-1 114-22 113-99 0-42-8-84-7-126-129-1-258 8-384-20-15 77-16 156-16 234 98 2 196 13 294 11z m287-357c40 78 8 216 2 287-8 109 44 234-104 248-77 7-159-8-237-8-128-1-256-5-385-5-11 0-19-4-26-10-7-6-13-16-13-29 1-167 10-335 10-502-15-53-57-95-81-144-14-28 4-55 34-58 275-36 584-52 854 23 24 7 37 36 24 58-29 45-55 92-78 140z m-228 452c37 3 153 27 156-22 3-47-6-95-4-143 3-58 11-116 13-175 1-28 0-56-8-83-4-16-81-6-95-5-170 4-339-15-509-11-1 144-8 287-9 431 152 0 306-4 456 8z m-508-603c18 28 37 55 50 86 100-4 200 0 300 4 100 5 208-7 307 7 6 1 12 2 17 3 14-28 29-57 45-84-229-53-485-43-719-16z m465 59c-77 0-155 0-233 0-25 0-25-40 0-40 78 0 156 0 233 0 26 0 26 40 0 40z" horiz-adv-x="1000" />
<glyph glyph-name="computer29" unicode="&#xe81b;" d="m141 127c49-3 98-3 147-3-15-44-21-90-14-141 3-23 23-46 49-37 126 42 261 3 391 19 20 3 40 16 39 39-2 43-10 87-27 127 29 1 57 2 85 6 153 21 91 257 84 360-5 64 9 127 0 190-8 58-73 66-120 68-77 5-156-8-234-9-137 0-274-4-410-5-12 0-20-4-26-10-8-6-13-16-13-29 0-179 10-357 10-536 0-22 18-38 39-39z m209-93c1 32 9 62 23 92 42 2 84 3 125 5 46 2 93 1 140 0 17-28 28-59 33-91-107-6-216 15-321-6z m300 638c22 1 162 22 169-5 15-53-5-116-3-170 4-58 11-117 14-175 1-30 1-60-5-89-7-35-78-18-106-18-180 5-359-16-539-11-2 153-8 306-10 459 160 0 322-4 480 9z m-363-405c144 37 291 22 437 25 10 0 21 9 20 20-6 85 47 230-47 283-50 28-136 16-191 14-82-3-163-11-245-12-5 0-10-2-13-5-4-3-7-8-7-15 0-99-1-200 22-297 2-10 14-16 24-13z m309 304c34-1 83 1 105-30 16-22 11-59 10-85-1-42-7-83-7-125-137-2-273 9-407-22-17 82-17 166-17 249 106 3 211 15 316 13z" horiz-adv-x="1000" />
<glyph glyph-name="condenser1" unicode="&#xe81c;" d="m440 237c45-22 109-8 148 20 49 35 44 104 49 157 9 97 34 246-39 327-84 94-216 44-235-75-1-8 0-14 2-20-2-94 12-186 16-279 3-54 5-103 59-130z m93 460c25-21 30-66 33-96 5-57-1-115-6-171-2-23-4-45-5-67-4-40-23-59-57-57-45-5-38 57-39 79-4 88-18 173-16 261 0 4-1 8-2 12 12 42 44 79 92 39z m-281-248c-50 6-49-72 0-78 46-6 34-76 38-107 4-32 15-68 38-91 41-43 96-58 153-59 0-16 1-32 2-48-67-9-129-36-190-73-43-26-4-94 39-67 76 45 142 66 232 64 62-2 111-30 165-55 46-20 86 47 40 68-70 31-128 59-205 65-1 0-2 0-3 0-1 17-2 34-2 51 50 7 102 24 134 62 21 25 28 58 33 90 2 16 4 33 4 50 1 40-2 45 37 42 51-4 50 74 0 78-59 4-107-8-113-78-3-41-3-81-14-121-12-40-90-46-125-49-40-4-81-1-116 20-42 24-33 93-37 134-7 65-48 94-110 102z" horiz-adv-x="1000" />
<glyph glyph-name="contact3" unicode="&#xe81d;" d="m884 688c-26 27-59 27-96 28-57 1-116 3-173 0-168-10-332 8-499 2-8 0-15-3-20-6-11-6-19-17-19-33 0-151 15-303 9-453-3-70-38-177 49-210 91-34 204-16 298-8 143 10 289 4 432-10 17-1 33 14 37 29 35 131 12 267 7 400-2 74 34 201-25 261z m-50-609c-112 10-229 18-341 11-90-6-180-15-271-11-47 2-68 3-67 52 1 42 9 84 9 127 0 127-7 255-9 382 114 1 228-14 342-12 103 3 204 12 308 9 56-1 26-168 26-210 2-116 25-233 3-348z m-389 243c18 36-16 91-45 122 11 17 17 39 16 58-2 43-35 73-77 73-47 0-86-30-89-78-2-22 5-41 17-54-26-30-59-80-49-116 11-38 81-48 112-49 35-2 98 9 115 44z m-106 214c43 0 51-59 18-80-28-18-65 4-68 34-3 30 24 46 50 46z m-81-197c0 1 0 2 0 4 2 7 4 15 7 23 7 20 19 38 34 54 17-7 38-9 57-6 5 1 10 3 14 4 21-21 32-46 40-76 3-15-58-24-70-25-28-2-60 4-82 22z m472 152c-22-7-39-16-61-3-14 8-26 15-42 19-28 6-56-9-81-20-23-11-3-45 20-34 15 7 30 15 48 16 19 2 33-17 50-23 28-10 50-1 77 8 24 8 13 45-11 37z m0-121c-22-7-39-16-61-3-14 8-26 15-42 19-28 6-56-9-81-20-23-11-3-45 20-34 15 7 30 15 48 16 19 2 33-17 50-23 28-10 50-1 77 8 24 8 13 45-11 37z m-66-157c-47-15-82-32-130-4-26 15-46 27-75 34-48 11-99-17-140-37-23-10-3-44 19-33 33 15 64 30 100 33 40 3 66-32 101-45 50-18 87-1 136 15 24 8 13 45-11 37z" horiz-adv-x="1000" />
<glyph glyph-name="cross21" unicode="&#xe81e;" d="m243 373c-43-44-82-90-117-141-7-11-8-29 0-40 51-71 102-142 153-214 18-24 50-25 68 0 44 66 97 121 155 174 58-53 111-108 155-174 17-25 50-24 67 0 52 72 103 143 154 214 8 11 7 29 0 40-35 51-74 97-118 141 40 37 77 76 112 118 10 13 17 33 6 48-51 71-102 142-154 213-13 19-44 29-61 8-49-59-103-112-161-162-58 50-113 103-161 162-18 21-48 11-62-8-51-71-102-142-153-213-11-15-5-35 6-48 34-42 72-81 111-118z m73 297c49-54 102-104 158-151 18-15 38-15 56 0 56 47 109 97 158 151 36-50 71-99 107-149-37-42-77-81-119-119-11-10-14-22-11-33 1-8 4-15 11-22 44-42 85-86 120-135-35-49-70-98-106-148-47 62-102 116-160 168-17 15-39 15-56 0-59-52-113-106-161-168-35 50-70 99-106 148 36 49 76 93 120 135 15 14 16 41 0 55-42 38-81 77-118 119 36 50 71 99 107 149z" horiz-adv-x="1000" />
<glyph glyph-name="cross24" unicode="&#xe81f;" d="m102 470c-1-83-3-166-5-249-1-21 18-39 39-39 62 0 124 0 187 0 0-60 0-121 0-181 0-22 17-39 39-39 83-2 166-4 249-6 21 0 39 18 39 39 0 63 0 125 0 187 60 0 121 0 181 0 22 0 39 18 39 39 2 83 4 166 6 249 0 15-6 25-15 31-6 5-14 9-24 9-62 0-125 0-187 0 0 60 0 120 0 181 0 21-18 38-39 39-83 2-166 4-249 5-22 1-39-18-39-39 0-62 0-124 0-186-61 0-121 0-181 0-22 0-39-18-40-40z m78-39c60 0 121 0 182 0 21 0 39 18 39 39 0 62 0 124 0 186 57-1 114-2 171-3 0-61 0-122 0-183 0-21 18-39 39-39 62 0 124 0 186 0-1-57-3-114-4-171-61 0-121 0-182 0-21 0-39-17-39-39 0-62 0-124 0-186-57 2-114 3-171 4 0 61 0 122 0 182 0 22-18 39-39 39-62 0-124 0-186 0 1 57 2 114 4 171z" horiz-adv-x="1000" />
<glyph glyph-name="cup17" unicode="&#xe820;" d="m203 445c0-1 0-1 0-2 2-85 13-168 19-252 5-75-7-150 6-225 3-15 22-25 36-20 10 3 20 6 30 8 0-3 2-7 3-11 4-13 15-22 28-22 93 4 186 2 279 11 18 2 34 19 29 37 10 3 20 7 30 12 39 21 51 73 52 126 49-9 105-21 147 11 43 32 23 97 21 143-2 45-4 110-56 124-40 11-85 1-127-4 1 37-1 80-35 100-40 23-98 9-142 7-98-4-197 0-295 0-25 0-33-26-25-43z m564-116c14 1 30 2 45-1 10-1 10-37 11-46 3-35 4-70 7-105 3-38-86-16-105-13-4 1-8 1-12 0-1 25-4 48-6 65-2 31-6 62-8 93 23 2 45 5 68 7z m-188 104c30 3 59 11 62-32 2-22-1-45-2-67-1-35 7-71 10-105 4-42 6-85 4-127-3-66-28-81-93-81-94 0-188 12-279-10-7 69 2 139-3 208-5 70-14 140-16 210 106 0 212-4 317 4z m-229 233c-15-16-20-41-22-63-4-59 57-95 107-104 37-6 52 50 15 57-27 5-60 14-63 47-3 27 25 36 37 54 29 41 14 94-5 136-15 34-66 4-50-30 8-18 12-35 13-55 1-18-22-30-32-42z" horiz-adv-x="1000" />
<glyph glyph-name="cut11" unicode="&#xe821;" d="m696 756c-147-77-301-83-464-83-21 0-33-13-37-28-5-7-9-15-8-27 22-223 166-415 172-640 2-51 80-51 78 0-3 113-40 217-79 320 179 5 371 39 454 216 27 20 16 70-23 70-2 0-3 0-5 0-7 0-15-2-22-6-25-8-51-17-77-21 27 50 49 102 69 155 12 34-30 59-58 44z m0-274c-90-94-235-105-368-106-26 71-49 143-59 219 130 1 254 10 374 53-17-37-37-74-60-109-12-20-1-53 24-57 31-6 60-5 89 0z" horiz-adv-x="1000" />
<glyph glyph-name="cut8" unicode="&#xe822;" d="m450 686c-72-9-145-10-221-10-20 0-32-13-36-29-6-6-9-15-8-26 21-223 166-416 172-641 1-50 79-50 78 0-2 79-21 154-46 227-2 4-4 9-5 14-9 27-19 54-29 80 13 0 26 1 39 2 4 26 8 52 12 78-27-1-54-2-80-2-27 71-50 143-60 219 59 0 116 3 172 9 4 26 8 52 12 79z m360-169c27 20 16 70-23 70-2 0-4 0-6 0-7 0-15-2-21-6-26-8-52-17-78-21 27 50 50 101 69 155 13 34-29 58-57 44-54-28-108-47-164-59-4-27-8-55-12-82 41 8 82 18 122 33-17-38-36-74-59-109-13-20-1-53 23-58 32-5 61-4 89 0-54-56-128-83-208-95-4-26-8-53-11-79 139 18 271 69 336 207z" horiz-adv-x="1000" />
<glyph glyph-name="database24" unicode="&#xe823;" d="m882 235c-1 133-3 265-3 398 0 7-1 12-3 17-2 27-14 55-40 83-10 11-21 14-32 12-196 2-437 52-619-40-41-21-86-61-91-109-5-6-8-14-8-23-2-168 29-333 31-500 0-8 2-14 5-20 3-7 9-13 18-18 213-99 441-107 659-23 25 10 63 15 79 41 22 38 5 119 4 163 2 6 2 13 0 19z m-701 369c41 51 118 59 177 66 143 18 288-1 432-3 46-71-113-112-164-118-110-14-225-5-334 8-24 3-142 8-111 47z m-16-102c25-8 53-12 75-16 150-25 331-44 479 2 29 9 58 23 82 40 1-29 1-58 1-87-192-124-427-87-632-15-2 25-4 51-5 76z m12-161c204-67 434-94 626 9 0-7 0-15 0-22 0-25 1-50 1-74-193-85-430-92-620 3-2 28-5 56-7 84z m601-254c-193-73-394-74-583 9-1 24-2 48-4 72 194-80 419-74 613 2 1-22 1-44 1-67 3-1 6-3 9-5-12 0-24-4-36-11z" horiz-adv-x="1000" />
<glyph glyph-name="directional1" unicode="&#xe824;" d="m657-39c197 48 298 259 288 448-11 215-172 368-387 365-242 5-459-159-463-410-3-303 284-472 562-403z m-99 734c168 3 289-105 308-273 16-148-50-304-188-371-88-43-204-30-294-3-135 41-199 162-210 295-18 219 182 357 384 352z m-133-402c-1-4 1-8 4-11 2-9 9-13 16-14 77-59 165-95 258-122 15-4 27 10 24 24-19 93-55 198-125 264-4 4-8 5-12 6-54 66-150 111-222 148-4 3-10 5-15 4-13-1-23-17-17-28 18-94 59-181 89-271z m190 64c32-48 53-107 67-163-54 16-105 37-153 65 2 0 3 0 5 0 54 3 82 52 81 98z m-80 84c-2 0-3 0-5 0-35 2-80-15-97-55-19 50-38 99-51 151 52-26 111-56 153-96z" horiz-adv-x="1000" />
<glyph glyph-name="dollar13" unicode="&#xe825;" d="m573 403c-26 19-68 17-98 18-35 1-26 18-19 46 11 44 55 36 90 35 51-2 50 76 0 78-12 0-23 0-34 0-2 13-2 26-2 39 0 51-78 51-78 0 0-17 1-35 3-53-15-7-28-19-38-38-22-36-39-103-16-142 27-46 81-42 126-45 44-2 49-43 51-77 2-19-1-38-8-55-20-47-78 16-64 51 19 47-56 67-75 21-28-70 20-129 81-157 0-16 0-32 0-48 0-51 78-51 78 0 0 15 0 31 0 47 34 19 57 61 63 98 13 68-5 140-60 182z m247 83c-20 139-92 329-261 311 0 0 0 0-1 0-143 3-279-47-322-195-37-127-35-284-12-412 24-128 99-214 223-250 87-25 174-9 244 47 137 109 153 340 129 499z m-151-409c-38-50-91-73-153-70-105 4-179 71-208 169-32 106-22 226-9 334 8 65 20 127 76 168 52 38 122 42 183 41 5 0 8 1 12 2 118 17 160-160 173-244 21-128 9-294-74-400z" horiz-adv-x="1000" />
<glyph glyph-name="doodle" unicode="&#xe826;" d="m233-65c90-59 232-10 331-13 64-3 221-58 272 0 54 62 30 186 25 260-8 130 1 257 0 387 0 91-8 227-121 235-173 13-353-14-526-15-11 0-20-4-26-10-8-6-13-16-13-29 0-168 5-336 5-504 1-97-46-246 53-311z m25 408c-2 123-4 246-5 369 128 2 256 9 384 10 23 0 106 18 122-5 34-51 25-142 24-200-2-96-11-191-3-287 6-79 21-172 1-251-3-10-194 19-217 21-92 8-203-38-292 3-43 20-20 133-17 169 5 57 3 114 3 171z m77-240c33-21 91-18 129-20 44-3 90 5 134 6 33 1 60-5 92 5 37 13 41 56 43 88 3 58-10 116-12 173-3 96 5 191-6 286-1 8-5 18-15 19-118 18-237 2-356 1-5 0-10-2-13-5 0-1 0-1-1-1 0 0 0-1 0-1-3-3-5-7-5-13-2-145-26-290-18-435 2-27 1-86 28-103z m28 519c66 2 132 7 198 8 15 1 115 7 118-16 6-47 5-95 5-142-1-59-3-117 3-175 6-64 35-177-66-170-74 4-145-8-219 3-10 1-41-2-46 11-12 32-10 74-11 108-4 125 15 249 18 373z" horiz-adv-x="1000" />
<glyph glyph-name="double13" unicode="&#xe827;" d="m611 108c-33-61-30-134 43-159 52-18 114 9 152 44 19 17 31 37 37 58 5 6 7 14 7 23 0 175 0 349 0 524 11 23 0 57-34 57-156 2-312 22-469 23-26 0-38-21-37-41-4-6-6-12-6-21 0-111 0-223 0-335-65-1-123-12-158-77-33-61-30-134 43-159 52-19 114 8 152 44 42 37 51 90 38 141 2 4 3 8 3 13 0 119 0 237 0 356 130-3 260-17 390-21 0-131 0-261 0-392-66-1-126-12-161-78z m73-86c-5 0-17 6-16 5-6 14 7 36 13 48 18 33 55 35 90 34 8-49-38-88-87-87z m-465 96c-5 0-17 6-16 4-5 14 8 37 14 49 18 33 55 34 89 33 8-48-37-87-87-86z" horiz-adv-x="1000" />
<glyph glyph-name="fence5" unicode="&#xe828;" d="m790 427c-1 16-1 32-2 48 0 4-1 7-2 11 0 4-1 8-3 13-24 52-64 97-79 152-10 34-53 37-72 9-35-51-50-115-91-162-11-14-12-29-6-41 0-2-1-4 0-5 1-13 2-26 2-39-41 0-82 0-124 0-1 21-2 41-3 62 0 4-1 7-2 11 0 4-1 8-3 13-23 52-63 97-79 152-10 34-53 37-71 9-36-51-50-115-91-162-12-14-12-29-7-41 0-2 0-4 0-5 1-15 2-29 3-44 0 0-1 0-1 0-31 0-63 0-93-10-21-7-32-26-28-48 10-44 2-91 15-134 17-55 67-66 117-60 1-54 1-107 1-161 0-35 37-46 60-32 49 4 96 1 145-3 16-1 35 13 38 29 10 61 13 123 12 184 41 0 81-3 121-4 1-58 1-116 1-174 0-35 38-46 61-32 48 4 96 1 145-3 15-1 34 13 37 29 10 58 13 117 13 175 44-1 87-6 131 2 17 3 29 21 29 37 1 59 19 126-10 181-31 59-108 45-164 43z m-637-195c-26-4-28 7-30 32-2 22-2 43-4 65 13 1 27 1 40 1 2 0 4 1 6 1 1-33 3-67 3-100-4 1-9 2-15 1z m190-191c-32 2-63 3-94 1 0 137-2 273-14 410 0 3-1 6-2 9 21 29 36 62 52 94 16-28 33-56 47-85 6-142 29-287 11-429z m81 210c-2 28-4 56-5 84 41 0 82 0 123 0 2-29 3-58 4-87-41 1-82 3-122 3z m296-210c-31 2-62 3-94 1 0 137-2 273-13 410-1 3-1 6-2 9 21 29 36 62 51 94 16-28 34-56 48-85 6-142 28-287 10-429z m169 197c-29-1-59 4-87 4-2 36-4 72-7 108 33 3 89 14 96-19 6-29 1-62-2-93z" horiz-adv-x="1000" />
<glyph glyph-name="filled2" unicode="&#xe829;" d="m395-102c79-2 159-5 238-8 35-1 67-1 100 10 71 24 74 84 75 148 4 219-33 445-91 656-18 67-77 83-139 84-112 3-224-8-336-4-24 0-36-17-37-35-1-3-2-5-2-8-18-199-90-404-107-606-1-4-1-8-1-11-4-65-3-130 8-195 3-18 22-26 38-28 84-10 169 0 254-3z m-175 470c23 112 45 224 58 337 68 0 137 3 206 4 38 1 75 2 113 1 54-2 55-65 64-105 21-91 46-189 53-282 4-42 9-86 13-129-51 0-102 0-153 0-23 0-36-18-39-39-3-25-3-50-3-75-23-2-45-5-68-6-24-2-49-3-73 0-19 3-15 38-22 49-36 65-118 55-188 48 10 66 25 132 39 197z m-45-392c-5 39-5 77-3 115 38 4 77 9 114 4 18-3 25-73 53-85 72-31 156-12 231-4 22 3 38 16 39 39 1 24 1 47 2 71 40 0 80 0 120 0 0-15 1-30 0-44-2-56 2-106-67-105-36 1-72 3-108 4-66 2-132 4-198 7-62 2-122-5-183-2z m102 259c125 0 249 6 373-4 38-3 37 55 0 59-124 10-248 4-373 3-38 0-38-58 0-58z m42 144c96 0 193 0 289 0 38 0 38 59 0 59-96 0-193 0-289 0-38 0-38-59 0-59z m23 141c81 0 162 0 244 0 37 0 37 59 0 59-82 0-163 0-244 0-38 0-38-59 0-59z" horiz-adv-x="1000" />
<glyph glyph-name="film15" unicode="&#xe82a;" d="m222 571c2-148 12-295 15-442-43 3-101-8-121-51-19-42-1-91 0-135 0-10 4-19 9-25 7-8 16-14 30-14 40 0 80 0 120 0 4 0 8 1 12 2 4-1 8-2 13-2 40 0 80 0 120 0 4 0 8 1 12 2 3-1 8-2 12-2 40 0 80 0 120 0 4 0 8 1 12 2 4-1 8-2 13-2 40 0 80 0 120 0 3 0 8 1 12 2 3-1 8-2 12-2 40 0 80 0 120 0 16 0 35 12 38 29 11 72 31 188-74 196-20 2-44 0-65-6-14 151-28 305-15 457 21-8 44-10 65-9 110 2 91 123 80 196-3 17-22 29-38 29-40 0-80 0-120 0-5 0-9-1-13-2-4 1-8 2-12 2-40 0-80 0-119 0-5 0-9-1-13-2-4 1-8 2-12 2-40 0-80 0-120 0-5 0-9-1-13-2-4 1-8 2-12 2-40 0-79 0-119 0-5 0-9-1-13-2-4 1-8 2-12 2-40 0-80 0-120 0-14 0-24-6-30-14-5-6-9-15-9-25-1-41-17-86-4-126 16-48 73-61 119-60z m583-519c5 0 18-5 14-1 3-3 4-5 4-12 2-19 0-38-3-57-17 0-34 0-51 0-2 17-5 34-5 52-1 4 2 11-1 9 11 8 29 8 42 9z m-46 666c17 0 34 0 52 0 2-17 4-34 3-52 0-5-1-10-2-14-1 1-2 0-2-1-3-1-7-2-8-2-13-1-27 1-40 5-9 2-7 2-8 7-1 19 2 38 5 57z m-372-736c-17 0-35 0-52 0-2 17-4 34-5 52 0 4 2 11 0 9 11 8 29 8 42 9 5 0 18-5 13-1 4-3 4-5 5-12 2-19-1-38-3-57z m144 0c-17 0-34 0-51 0-2 17-5 34-5 52-1 4 2 11-1 9 11 8 29 8 42 9 5 0 18-5 14-1 3-3 4-5 4-12 2-19 0-38-3-57z m148 57c2-19-1-38-4-57-17 0-34 0-51 0-2 17-4 34-5 52 0 4 2 11 0 9 11 8 29 8 42 9 4 0 18-5 13-1 4-3 4-5 5-12z m-64 679c17 0 34 0 51 0 2-17 4-34 4-52 0-1 0-2 0-3-1-3-2-5-2-8 0 0 0-1 0-2-1 0-1 0-1-1 0 1-1 0-2-1-2-1-6-2-7-2-14-1-28 1-41 5-9 2-7 2-7 7-1 19 2 38 5 57z m-145 0c17 0 34 0 52 0 2-17 4-34 3-52 0-5-1-10-2-14 0 1-2 0-2-1-3-1-7-2-8-2-13-1-27 1-40 5-9 2-7 2-8 7-1 19 2 38 5 57z m-144 0c17 0 34 0 51 0 3-17 4-34 4-52 0-5-1-10-3-14 0 1-1 0-2-1-2-1-6-2-7-2-14-1-27 1-41 5-9 2-7 2-7 7-1 19 2 38 5 57z m43-147c25 0 44 7 57 19 25-16 59-20 87-19 26 0 44 7 58 19 25-16 58-20 87-19 0 0 1 0 1 0-10-148 1-295 14-442 0 0 0 0 0 0-30 2-67-2-94-19-12 10-29 17-51 19-29 2-66-2-93-19-13 10-29 17-51 19-22 2-47 0-69-7-3 153-14 306-15 459 22-8 47-11 69-10z m-124-532c2-19 0-38-3-57-17 0-34 0-51 0-2 17-5 34-5 52-1 4 2 11-1 9 11 8 29 8 42 9 5 0 18-5 14-1 3-3 4-5 4-12z m-64 679c17 0 35 0 52 0 2-17 4-34 4-52-1-5-2-10-3-14 0 1-2 0-2-1-3-1-7-2-8-2-13-1-27 1-40 5-9 2-7 2-7 7-2 19 1 38 4 57z" horiz-adv-x="1000" />
<glyph glyph-name="folded4" unicode="&#xe82b;" d="m918 521c-102 44-213 64-320 90-66 17-131 18-198 25-72 8-142 18-215 19-14 0-23-8-26-18-4-3-6-6-8-10 0-1-1-2-1-3 0-1-1-2-1-2 0-1 0-2 0-3-1-1-1-2-1-4 0 0 0-1 0-2 0-1 0-2 1-3 0-1 0-1 0-2 26-127 75-246 119-367 36-101 55-208 108-302 12-21 49-18 53 7 16 83 44 161 89 231 35-40 72-79 105-121 13-18 44-7 49 13 25 106 17 215 24 323 0 0 0 0 0 1 42 58 152 57 215 75 23 6 32 43 7 53z m-526-480c-31 78-49 162-77 241-26 73-54 145-77 219 77-96 148-197 239-280-38-56-66-116-85-180z m234 103c-29 32-58 64-86 98-1 1-2 3-4 4-1 2-4 4-6 5-107 95-186 215-278 324 57-20 114-49 164-75 73-39 149-79 221-121-4-78-1-158-11-235z m29 292c-69 40-141 76-210 115-21 12-45 24-68 36 62-6 124-14 181-26 78-17 160-33 238-57-54-11-107-27-141-68z" horiz-adv-x="1000" />
<glyph glyph-name="game8" unicode="&#xe82c;" d="m831 634c-99 95-270 50-388 30-121-15-294-32-353-157-47-103-48-244-25-352 9-44 32-96 72-122 66-41 120-14 170 37 26 26 47 55 72 81 24 25 70 18 102 23 42 6 84 15 126 19 52 6 75-17 106-54 49-57 173-119 229-37 50 75 21 191 3 272-20 90-46 194-114 260z m51-480c-21-67-168 104-197 112-43 11-85 5-129-1-56-8-114-14-170-24-75-15-169-214-229-113-49 81-29 214-9 301 29 132 190 144 303 157 1 1 2 1 4 1 2 0 4 0 6 1 99 16 244 59 326-20 48-47 64-139 80-201 16-66 36-146 15-213z m-617 313c-4 0-7-1-10-2-41-12-66-52-60-95 8-45 52-74 96-63 37 10 58 52 57 88-2 46-40 71-83 72z m21-120c-20-12-45 5-51 25-8 25 9 49 32 56 21-1 40-10 42-33 1-19-7-38-23-48z m417 182c-4 0-7-1-10-2-41-13-66-53-60-95 8-45 52-74 96-63 37 9 58 52 57 87-2 46-40 72-83 73z m21-120c-20-12-45 5-51 24-8 26 9 49 32 57 21-2 40-11 42-34 1-18-7-37-23-47z" horiz-adv-x="1000" />
<glyph glyph-name="arrow163" unicode="&#xe801;" d="m512 81c6-50 84-50 78 0-13 102-12 205-12 308 67-1 133-3 199 4 20 2 42 16 39 39-12 140-176 184-239 293-13 22-44 26-62 8-87-86-154-188-230-284-19-11-19-37-6-54 11-16 30-25 47-15 58 9 116 11 174 11-1-104-2-208 12-310z m-117 384c46 61 92 124 144 180 21-25 46-46 71-67 34-29 92-66 117-111-111-6-222 5-332-2z" horiz-adv-x="1000" />
<glyph glyph-name="grocery1" unicode="&#xe82e;" d="m457 137c-45-15-72-59-64-106 8-51 59-82 107-70 42 10 66 57 64 97-2 51-44 81-93 82-5 0-10-1-14-3z m49-79c1-15-5-31-18-39-33-20-56 48-13 62 16-1 29-7 31-23z m222 79c-45-15-72-59-65-106 8-51 59-82 108-70 42 10 65 57 64 97-2 51-44 81-93 82-6 0-10-1-14-3z m48-79c2-15-5-31-17-39-33-20-56 48-13 62 16-1 29-7 30-23z m115 182c-17 0-33-1-49-3 8 90 20 180 14 271-1 15-11 35-29 37-151 22-303 17-455 16-6 0-11-1-15-2-77 56-166 41-259 39-51 0-51-79 0-78 49 1 97 6 146 3 88-4 89-83 95-149 6-75 22-135 83-183 123-97 328-35 469-29 50 3 50 81 0 78z m-128-9c-52-5-105-10-157-11-78-3-160 19-182 103-12 45-6 108-19 161 125 1 250 4 374-11 2-80-8-160-16-240 0-1 1-2 0-2z m-308 217c-1-47-10-93-8-140 1-25 40-25 39 0-2 47 7 93 8 140 0 25-39 25-39 0z m252-6c-1-47-10-93-8-140 1-25 40-25 39 0-2 47 7 93 8 140 0 25-39 25-39 0z m-174 6c-1-63-9-126-8-189 1-25 40-25 39 0-1 63 7 126 8 189 0 25-39 25-39 0z m86 0c-1-63-10-126-8-189 1-25 40-25 39 0-1 63 7 126 8 189 0 25-39 25-39 0z" horiz-adv-x="1000" />
<glyph glyph-name="half10" unicode="&#xe82f;" d="m925 541c-21 4-43 5-64 6 10 25-2 54-34 55-247 4-495 6-742-3-6 0-11-1-15-3-14-4-26-16-24-36 5-90 0-180-1-271-1-55 15-98 77-103 103-9 212 2 316 3 136 2 272-2 407 2 34 0 52 41 28 66-1 1-2 2-2 3 14 0 27 0 41 1 22 2 38 16 39 39 4 68 4 136 2 204 0 16-11 34-28 37z m-697-275c-30 0-59-4-88-4-29 0-17 34-16 61 2 66 4 133 1 199 213 6 426 6 638 3-30-80-26-180 10-258-181-3-363-1-545-1z m647 72c-10 0-19 0-29 1-9 42-8 88-2 131 11 0 21-1 32-1 1-44 1-87-1-131z m-441 158c-84 2-169 0-254-3-4 0-7-2-10-3-6-3-10-9-10-17 0-53-2-107-2-160 0-10 9-20 19-19 89 1 177 0 266 0 10 0 20 9 20 19-3 54-6 109-9 163-1 11-9 19-20 20z m-237-163c0 40 1 81 2 121 72 3 145 4 217 3 2-42 4-83 7-124-76 0-151 1-226 0z" horiz-adv-x="1000" />
<glyph glyph-name="hammer5" unicode="&#xe830;" d="m914 681c-15 11-31 14-48 6-33-17-55-49-78-77-10-13-47-40-27-3 9 18 22 34 33 50 39 56 43 138-44 145-102 8-184-55-217-148-12-35-10-74-4-110 3-20 19-33 2-51-10-12-22-23-34-34-39 41-71 85-85 138 56 43 76 123 11 175-59 48-137 0-161-62-58-11-87-29-115-82-50-2-89-26-114-75-28-55 16-103 46-149 27-42 71-91 126-70 26 9 44 33 54 57 5 11 8 23 8 35 0 4 0 7 0 11 39-33 76-69 112-106-56-74-116-146-179-215-62-67-48-151 19-208 61-52 143-9 183 49 45 66 93 130 140 195 21-26 42-51 63-75 47-55 82-116 150-144 51-21 100 27 126 62 93 121-83 213-156 279-15 13-31 26-48 39 4 6 7 14 10 21 9 27 1 23 35 12 20-7 38-11 59-14 73-8 138 84 160 141 26 67 34 158-27 208z m-654-706c-68 58 84 184 119 227 17 22 34 45 51 67 19-21 37-42 57-62-53-80-176-275-227-232z m506 162c17-13 34-27 51-42 52-49-48-94-90-45-48 55-91 113-141 165-5 5-10 11-15 16-2 3-4 6-6 8-9 8-17 17-25 26-22 24-44 48-65 72-4 5-8 9-12 14-1 1-2 2-3 3-1 1-3 3-4 5-2 2-4 4-6 6-42 46-85 91-133 132-35 46-125 49-127-22-1-15 5-82-20-61-18 16-30 39-42 59-8 14-16 28-25 43 1 2 2 5 3 10 11 20 29 28 55 26 16-3 36 1 44 18 26 56 38 59 99 68 18 2 29 22 29 37 2 66 104 10 24-21-21-9-30-25-27-48 15-100 67-160 142-225 95-83 195-165 294-244z m85 329c-18-31-53-61-91-51-23 7-51 23-76 20-39-5-58-24-68-61-10 7-19 15-28 23-8 7-15 13-23 20 17 17 34 34 48 53 22 31-2 64-9 95-14 61 23 127 79 151 16 6 70 23 52-7-10-17-23-33-34-50-32-48-45-138 31-156 75-18 101 53 146 96 16-41-6-99-27-133z" horiz-adv-x="1000" />
<glyph glyph-name="heart48" unicode="&#xe831;" d="m95 517c-10-118 34-223 124-299 42-37 92-65 140-94 39-24 103-93 149-93 42 0 97 60 133 83 48 30 98 58 143 93 95 76 138 173 138 295-1 209-284 218-414 113-126 102-395 100-413-98z m173 83c75 20 163-8 212-67 9-9 18-13 28-12 9-1 19 3 27 12 49 58 120 76 193 71 102-8 125-90 110-178-14-85-76-142-144-187-35-24-72-45-108-67-16-11-32-21-48-32-4-3-24-15-32-23-13 13-51 38-60 44-36 24-73 46-110 68-70 45-130 96-155 178-26 89-6 169 87 193z" horiz-adv-x="1000" />
<glyph glyph-name="information23" unicode="&#xe832;" d="m582 221c-29-3-59-7-88-7 2 63 1 125-2 188-1 17-11 34-29 38-22 5-44 6-66 6-51-1-51-79 0-78 6 0 12 0 18 0 3-64 2-128-1-191-1-23 19-37 39-39 43-6 86 1 129 5 50 5 51 83 0 78z m192 252c-20 139-92 329-261 311 0 0 0 0-1 0-143 2-279-47-322-196-37-127-35-283-12-412 24-127 99-214 223-250 87-25 174-9 244 47 137 110 153 341 129 500z m-151-410c-38-49-91-72-153-70-105 4-178 71-208 169-32 106-22 226-9 334 8 65 20 127 76 168 52 38 122 43 183 42 5 0 8 0 12 1 118 18 160-160 173-243 21-129 9-295-74-401z m-188 425c16 0 30 6 40 18 8 10 13 23 13 37 0 27-18 55-53 55-17 0-31-7-41-18-8-10-13-23-13-37 0-27 18-55 54-55z" horiz-adv-x="1000" />
<glyph glyph-name="irregular2" unicode="&#xe833;" d="m111 389c173-69 119-283 118-430-1-34 42-52 66-28 42 43 156 196 218 148 59-46 97-119 165-154 32-16 62 11 57 44-19 132 4 362 125 441 27 18 25 63-10 72-82 19-170 40-230 103-44 46-69 114-96 172-1 7-5 13-10 18-11 16-31 17-46 8-9-4-17-11-21-23-34-100-90-178-182-230-52-30-110-44-164-69-34-16-18-61 10-72z m234 98c63 42 109 101 142 167 23-48 49-95 86-134 49-50 118-77 187-96-81-96-110-247-108-377-47 52-89 118-160 127-61 7-128-53-182-111 5 138 5 275-102 359 47 18 94 36 137 65z" horiz-adv-x="1000" />
<glyph glyph-name="ladies" unicode="&#xe834;" d="m684 558c-14 119-45 234-194 226-148-7-179-116-176-232-21-1-43-1-64-1-13-1-28-8-34-20-77-170-144-366-118-556 2-16 22-30 37-29 245 13 490 11 735 11 14 0 24 6 30 15 5 6 9 14 9 24 3 163-37 337-104 484-31 70-61 77-121 78z m-295 54c5 68 56 92 119 95 74 4 95-71 102-148-74 1-147-2-220-5-2 19-2 38-1 58z m-219-586c-11 150 45 311 105 447 15 0 31 0 46 0 2-14 4-28 6-42 8-50 83-29 75 21-1 7-2 15-3 22 72 1 144 2 215 3 1-16 2-30 3-41 6-49 84-50 78 0-1 13-3 27-4 41 9 0 18 1 27 1 76-125 110-296 113-443-221 0-441 1-661-9z" horiz-adv-x="1000" />
<glyph glyph-name="light19" unicode="&#xe835;" d="m773 600c-39 76-120 123-201 142-152 36-358-40-373-215-10-105 48-201 114-277 1-1 2-2 3-3 6-22 14-43 22-65 12-31 27-60 51-83 0 0 0-1 1-1 7-32 14-58 42-80 0 0 1-1 1-1 3-39 32-79 74-75 30 3 51 21 60 49 2 4 2 8 3 12 17 1 31 13 36 29 8 25 11 51 12 78 0 0 0 1 0 2 57 56 77 145 125 210 65 89 82 176 30 278z m-87-224c-20-29-41-55-58-85-21-38-28-81-55-115-33-40-86-41-130-21-41 27-36 93-59 131-31 54-75 93-98 155-57 155 101 237 231 230 60-3 117-29 159-70 69-67 59-153 10-225z m-285 230c-49-18-78-57-90-108-4-20 6-42 28-48 19-5 43 7 48 28 3 15 6 23 14 36 4 6 13 14 21 17 20 8 33 26 27 48-5 19-28 35-48 27z" horiz-adv-x="1000" />
<glyph glyph-name="lock15" unicode="&#xe836;" d="m843 478c-10 0-20 0-30 1-12 68-19 138-54 200-46 78-139 98-222 104-94 6-197-12-265-82-54-57-67-141-70-219-5 0-11 0-16 0-14 0-23-5-30-14-5-6-9-14-9-25-2-135-43-308 18-435 41-86 173-89 255-99 122-15 270-18 379 50 45 29 77 77 82 131 10 113 10 235 1 349-2 22-17 38-39 39z m-526 153c43 73 146 75 220 74 155-4 174-106 196-223-151 3-302 2-453 1 3 51 10 102 37 148z m487-471c-2-60 1-105-54-139-92-57-228-45-330-34-44 5-88 13-131 24-38 10-49 12-61 51-32 107-10 230-5 342 195 1 389 5 583-3 4-80-1-161-2-241z m-331 83c-1-38-3-76-2-114 1-51 79-51 78 0-1 38 2 76 2 114 0 51-78 51-78 0z" horiz-adv-x="1000" />
<glyph glyph-name="magnifying17" unicode="&#xe837;" d="m718 758c-141 1-259-90-268-234-2-34 3-65 12-92-3-21-8-43-11-64-98-71-205-134-274-237-10-15-5-34 6-47 22-26 47-50 71-74 9-9 25-15 38-10 125 47 213 170 291 273 12 5 23 10 33 17 47-15 99-18 151-9 119 20 181 147 179 257-3 129-101 220-228 220z m-427-674c-10 10-20 20-30 30 58 74 141 124 218 178 0-1 1-1 1-2 4-3 8-6 12-9-55-73-121-158-201-197z m497 287c-108-67-245 16-259 132-13 112 89 178 189 177 167 0 200-227 70-309z m-34 259c-30 24-74 27-110 14-42-16-66-53-68-97-1-38 57-38 59 0 1 46 57 58 90 33 30-23 59 28 29 50z" horiz-adv-x="1000" />
<glyph glyph-name="mobile17" unicode="&#xe838;" d="m201-35c88-58 230-9 327-12 52-2 103-13 155-18 28-2 87-10 109 15 52 59 28 183 23 253-9 130 1 257 0 387-1 84-5 218-112 225-172 13-352-13-526-14-8 0-14-3-19-8-6-4-10-12-10-22 0-168 5-335 6-503 0-93-47-241 47-303z m10 399c-1 127-4 253-4 379 131 1 262 9 393 10 30 0 110 20 131-10 35-52 26-145 25-205-1-96-10-190-3-286 6-81 21-174 1-254-7-25-200 11-226 13-95 8-206-37-297 5-49 22-25 137-22 177 5 57 3 114 2 171z m256-135c60 2 124-3 183 6 34 4 56 41 57 73 4 65-11 130-10 196 1 64 1 127-8 190-1 8-5 18-14 19-126 19-252 2-378 1-7 0-11-3-15-7-3-3-5-7-5-13-2-139-37-276-7-415 14-66 150-52 197-50z m-151 446c56 2 111 5 167 8 37 1 73 1 109 0 52-1 62-9 65-58 4-48 1-97 0-145-1-51 48-211-50-209-55 0-110-2-165-4-15-1-127 1-134 23-39 119 2 261 8 385z m352-521h-119c-12 22-34 39-66 39s-55-17-67-39h-119c-21 0-39-18-39-39 0-22 18-39 39-39h119c12-23 34-39 67-39s54 16 66 39h119c21 0 39 17 39 39 0 21-18 39-39 39z" horiz-adv-x="1000" />
<glyph glyph-name="open39" unicode="&#xe839;" d="m831 508c-187 9-375 6-562 5 3 75 17 151 84 193 81 51 262 51 323-31 30-40 98-1 68 39-87 116-266 121-392 77-122-42-155-162-161-278-6 0-11 0-17 0-13 0-23-6-29-14-6-6-10-14-10-25-2-135-43-308 18-435 41-86 174-90 255-99 122-15 271-18 379 50 46 28 77 77 82 131 10 113 10 235 1 348-2 22-16 38-39 39z m-39-317c-1-61 2-105-54-140-92-57-228-44-330-33-44 5-88 13-131 24-38 10-49 12-60 50-32 107-11 230-5 343 194 1 388 4 582-3 4-81-1-161-2-241z m-331 83c0-38-3-76-2-115 2-50 80-50 78 0-1 39 2 77 2 115 0 50-78 50-78 0z" horiz-adv-x="1000" />
<glyph glyph-name="open40" unicode="&#xe83a;" d="m830 643c-59 29-106 78-165 109-20 10-40 3-53-14-21-29-58-36-92-50-34 14-72 21-93 50-13 17-33 24-53 14-59-31-107-77-165-109-52-29-105-48-151-88-15-14-14-41 0-55 38-36 87-52 137-62-43-21-94-31-128-65-16-15-14-39 0-55 20-22 47-40 78-55 0-77 10-153 14-230 1-23 17-37 39-39 106-11 198-71 303-83 87-9 166 26 245 61 50 22 126 37 155 89 12 22 11 51 10 75-2 53-5 106-8 159 18 12 33 25 45 39 14 16 16 39 0 55-23 23-52 39-81 54 42 11 82 27 114 58 15 14 16 41 0 55-45 39-98 61-151 87z m-197-124c20-12 39-27 58-41-64-20-125-48-183-80-53 29-109 55-166 74 21 16 42 32 65 47 35 22 75 38 112 57 37-20 77-36 114-57z m-478 10c36 22 77 37 113 57 42 24 78 57 119 83 6-5 13-10 21-15 15-8 36-12 56-19 0 0 0 0 0 0-33-16-66-31-97-49-40-23-73-56-113-79-33 4-68 9-99 22z m5-185c42 22 92 30 127 63 54-15 106-37 156-63-12-32-31-74-54-74-29 0-63 15-90 24-40 12-96 26-139 50z m673-240c-1-26-128-65-149-74-86-39-155-51-247-24-69 21-132 48-202 61-4 55-9 110-11 166 40-14 81-24 113-32 91-25 137 28 171 99 32-70 78-124 167-98 44 12 101 29 153 52 3-50 6-101 5-150z m8 246c0 0-1 0-1 0-37-20-81-34-114-48-30-12-62-23-94-31-26-6-47 39-60 73 61 32 125 57 192 73 30-22 64-36 95-56-6-4-12-8-18-11z m-56 157c-2 1-3 2-5 3-3 3-7 5-11 7-33 22-63 48-97 69-30 19-64 33-96 49 14 4 29 8 40 13 14 6 26 13 36 21 41-25 79-55 119-83 35-23 76-37 112-57-30-12-65-18-98-22z" horiz-adv-x="1000" />
<glyph glyph-name="open41" unicode="&#xe83b;" d="m206 95c4-6 9-10 15-12 7-7 17-11 27-12 182-9 364-4 546 0 17 0 33 12 37 29 37 155 84 316 95 476 1 17-13 34-29 38-95 20-272 58-327-53-53-106-231-73-329-72-16 0-27-8-33-19-3-6-6-12-6-20 0-13 0-26 0-39-45 0-89 4-135-6-20-4-34-28-27-48 33-100 103-179 166-262z m341 342c40 18 71 44 90 85 26 55 141 37 208 23-13-133-51-267-82-397-158-3-316-7-474 0 2 87-8 174-9 262 89-3 185-10 267 27z m-343-103c2-40 5-79 6-119-29 38-57 77-77 120 24 1 47-1 71-1z" horiz-adv-x="1000" />
<glyph glyph-name="page48" unicode="&#xe83c;" d="m226-64c175-33 351-11 526-1 18 1 28 13 30 30 18 161 0 325 25 486 15 96 16 187-59 257-133 125-361 64-523 88-4 0-7 0-10 0-14-1-27-11-27-28-8-268 8-536 17-803 0-13 8-26 21-29z m390 775c25-7 49-17 72-31 54-31 69-80 69-134-4 1-8 1-13-1-52-14-104-20-157-13 8 60 20 119 29 179z m-370 24c101-8 211 5 313-11-10-72-25-143-35-215-1-13 10-26 22-29 70-15 139-10 207 7-3-31-9-62-12-90-14-135-4-270-16-405-154-10-309-28-462-3-9 249-23 498-17 746z m80-374c33 15 64 31 100 34 40 3 66-32 101-45 49-18 87-1 136 15 23 7 13 45-11 37-47-15-83-32-131-4-25 15-45 27-74 34-48 11-99-18-141-37-22-10-3-44 20-34z m0-147c33 15 64 30 100 33 40 3 66-32 101-44 49-19 87-2 136 14 23 8 13 46-11 38-47-16-83-33-131-5-25 15-45 28-74 34-48 11-99-17-141-36-22-11-3-45 20-34z m0-148c33 15 64 31 100 33 40 4 66-31 101-44 49-18 87-1 136 15 23 7 13 45-11 37-47-15-83-32-131-4-25 15-45 27-74 34-48 11-99-18-141-37-22-11-3-44 20-34z" horiz-adv-x="1000" />
<glyph glyph-name="painting2" unicode="&#xe83d;" d="m303 307c81 5 86 144-3 141-38 2-93-25-77-90 9-39 42-52 80-51z m193 157c81 4 86 143-3 140-38 2-93-25-77-90 9-39 42-52 80-50z m242-57c82 5 86 144-3 141-38 1-92-26-77-91 9-38 42-52 80-50z m-27-271c117 7 124 206-4 201-54 3-132-36-110-129 13-55 60-74 114-72z m-371 15c30 10 57 25 86 36 66 24 65-33 59-75-7-47-6-100 38-130 93-64 222-36 300 37 79 73 108 189 119 291 9 92 3 221-57 298-57 73-156 118-245 136-160 33-311-35-433-133-107-91-213-224-172-373 37-131 204-119 305-87z m-212 246c29 63 82 114 134 159 162 128 414 176 564 1 46-53 42-166 39-231-5-89-33-186-97-252-55-57-222-84-205 32 9 66-5 164-94 165-106 2-187-80-299-60-90 16-71 126-42 186z" horiz-adv-x="1000" />
<glyph glyph-name="pie13" unicode="&#xe83e;" d="m630-48c196 49 298 259 288 448-12 215-173 369-388 365-242 6-459-158-462-410-4-303 283-472 562-403z m-160 732c20 2 40 3 60 3 160 3 277-95 304-247-52-22-106-40-160-57-45-14-143-56-193-39-1 2-2 5-3 10-4 16-5 34-7 51-3 38-3 77-4 115 0 55 2 109 3 164z m-79-17c-1-60-2-121-1-181 1-56-10-165 41-204 50-38 143-7 197 7 72 18 143 42 213 70-4-131-70-258-190-317-88-43-204-29-294-2-135 40-199 161-210 294-14 168 100 288 244 333z" horiz-adv-x="1000" />
<glyph glyph-name="power16" unicode="&#xe83f;" d="m547 656c0 18 0 36 0 53 0 51-78 51-78 0 0-18 0-37 0-56-171-22-313-145-325-328-17-265 234-415 473-359 170 40 257 224 247 386-12 176-143 301-317 304z m91-599c-72-38-167-27-242-6-117 33-168 140-174 254-8 149 113 246 247 268 0-77 0-155 0-232 0-51 78-51 78 0 0 79 0 158 0 237 276-8 322-401 91-521z" horiz-adv-x="1000" />
<glyph glyph-name="printer33" unicode="&#xe840;" d="m889 329c-55 30-125 42-194 46 2 73 4 146 13 220 7 52-11 101-50 136-84 75-216 40-316 54-26 3-49-10-50-38-3-127 2-253 7-380-63-4-125-7-188-8-14 0-23-6-30-14-5-6-9-15-9-25-3-106-68-321 85-343 1-5 1-10 1-15 1-17 11-34 29-38 60-12 193-33 208 51 42 2 83 4 124 4 17 0 35 0 53 0 0-7 0-14 0-21 1-23 17-37 39-39 54-5 185-18 205 51 12 0 23 1 35 2 87 10 90 103 88 173-3 62 15 149-50 184z m-304 356c25-12 36-30 41-52-17-4-34-6-51-6 4 19 7 39 10 58z m-215 21c46-3 93-1 140-5-6-36-13-72-18-108-2-16 14-34 29-37 35-8 69-8 103-3 0-3-1-6-1-9-8-55-6-111-7-167-27 1-54 0-78 0-54 0-107-2-161-5-5 111-9 222-7 334z m487-642c-7-30-93-14-112-13-176 14-353 7-529 1-20-1-70-5-75 18-7 28-2 61-1 89 1 41 6 82 8 123 163 4 327 24 489 15 8-3 18-3 27-1 25-2 50-5 76-8 36-6 72-14 107-25 22-7 11-64 12-83 1-39 6-78-2-116z" horiz-adv-x="1000" />
<glyph glyph-name="recycling2" unicode="&#xe841;" d="m331 533c40 63 85 125 139 176 31 29 121-60 166-103-13-14-26-28-40-40-28-25-4-64 27-67 53-4 105-8 158-12 21-2 39 19 39 39-1 58-8 117-44 165-4 5-9 10-14 13-14 11-33 13-48-5-9-11-18-23-27-34-57 53-152 155-217 133-90-30-158-150-206-225-27-43 40-82 67-40z m403 66c2-10 4-20 5-31-10 1-20 2-30 2 9 10 17 20 25 29z m-615-326c-22-78-63-173 18-229 34-24 91-23 130-24 55-3 110 1 165-3 50-3 50 76 0 78-69 5-139-1-208 6-44 4-64 15-55 62 6 29 16 57 24 85 16-5 31-11 45-18 29-14 69 8 58 44-16 50-33 100-49 150-6 18-28 36-48 27-58-24-111-53-143-109-8-14-7-27-1-37 4-9 12-17 24-21 14-3 27-7 40-11z m67 87c3-10 6-20 9-30-12 4-24 8-36 12 8 7 17 12 27 18z m691 41c-10 50-85 29-75-21 14-70 39-138 48-210 6-47-10-59-56-61-20-1-40 1-60 2 1 12 3 25 6 38 6 31-27 63-58 44-44-28-88-57-133-85-16-10-27-36-14-53 38-50 80-94 142-112 17-4 30 2 38 12 7 6 11 15 11 26 1 17 1 35 2 52 71-4 166-11 193 63 35 93-26 214-44 305z m-227-358c-8 7-16 14-23 22 8 6 17 11 26 17-1-13-2-26-3-39z" horiz-adv-x="1000" />
<glyph glyph-name="rewind16" unicode="&#xe842;" d="m590 705c1 25 3 49 4 74 1 28-35 50-59 33-54-37-116-55-168-96-13-11-15-35-6-48 39-54 88-104 144-141 4-6 10-9 17-11 24-11 45 5 52 25 1 4 2 7 3 11 3 25 5 50 7 75 232-20 323-275 225-478-55-115-163-168-287-168-224 1-363 156-341 381 4 50-74 49-78 0-23-236 113-421 347-453 163-24 314 26 407 166 78 117 90 278 41 408-51 135-170 211-308 222z m-84-82c-20 17-39 36-56 56 20 12 41 22 62 32-1-29-4-59-6-88z" horiz-adv-x="1000" />
<glyph glyph-name="save4" unicode="&#xe843;" d="m914 594c3 69-5 126-81 141-81 15-166-5-248-5-146-1-293-5-439-5-12 0-20-4-26-11-8-6-13-15-13-28 0-226 10-452 10-678 0-22 18-38 39-39 129-6 257 0 386 6 64 2 128 4 192 5 41 0 101-13 137 12 50 34 50 94 52 151 3 86-3 172-9 258-4 66-3 127 0 193z m-610 53c126 2 252 5 377 10 3-30 8-60 12-90 8-67-39-59-90-55-96 9-202 14-298-5-8 46-2 93-1 140z m352-596c-91-3-182-6-273-7 0 74 1 148-7 222 81 12 264 33 275-4 20-66-3-141 5-211z m186 48c-3-38-6-42-47-43-20-1-40-1-60-2-17 84 35 220-41 282-39 32-101 22-148 18-75-6-149-3-223-18-23-5-30-29-27-48 11-81 10-163 9-244-37 0-74 1-110 2-1 200-9 400-10 601 14 0 28 0 41 0-2-67-11-133 12-198 8-20 27-33 48-27 87 25 175 17 264 14 48-1 105-14 151-2 104 26 65 148 58 227 28 2 72 3 75-11 9-33 1-76-1-110-3-46 0-92 3-139 5-69 9-139 9-209 1-31 0-62-3-93z m-283 116c-1-39-9-77 0-115 6-24 44-14 38 10-8 35 0 70 1 105 0 25-39 25-39 0z" horiz-adv-x="1000" />
<glyph glyph-name="shooting1" unicode="&#xe844;" d="m945 377c-16-2-33-3-49-4 0 0 0 0 0 1-9 192-153 329-344 326-7 0-13 0-20 0-1 15-3 31-4 46-3 50-81 50-78 0 1-18 3-36 5-54-165-32-298-156-311-332-14 0-28 0-42 0-51 0-51-78 0-78 14 0 29 0 43 0 23-184 172-299 345-314 1-14 1-28 1-42 1-50 79-50 78 0 0 14 0 28-1 41 23 2 45 5 67 10 149 34 237 174 257 317 18 1 36 3 53 5 50 6 50 84 0 78z m-228-85c32 0 65 0 97 0-14-92-65-178-157-224-28-15-60-22-92-24-2 30-4 60-6 90-3 50-81 50-78 0 2-29 4-58 5-87-30 4-60 10-86 18-103 31-157 118-174 217 23 0 46 0 69 0 51 0 51 78 0 78-25 0-50 0-74 0 9 134 116 226 244 254 2-22 3-43 2-65-1-50 77-50 78 0 1 25-1 49-3 73 3 0 6 0 10 0 162 2 253-119 264-252-33 0-66 0-99 0-50 0-50-78 0-78z" horiz-adv-x="1000" />
<glyph glyph-name="signal8" unicode="&#xe845;" d="m336 322c87-93 293-118 357 14 22 45-45 84-67 39-42-86-181-55-235 2-35 37-90-18-55-55z m-142-56c151-166 531-219 642 19 22 45-46 85-67 39-90-192-401-134-520-3-34 37-89-18-55-55z m659-21c-119-261-547-185-707-7-34 38-89-17-55-55 191-214 689-285 830 23 20 45-47 85-68 39z m-297 219c-1 75-2 150 3 224 4 50-74 50-78 0-5-75-5-150-3-226 0 0 0 0 0 0-8-10-13-23-13-37 0-27 18-55 53-55 16 0 31 7 40 18 9 10 14 23 14 37 0 14-6 29-16 39z" horiz-adv-x="1000" />
<glyph glyph-name="small79" unicode="&#xe846;" d="m573 594c95-30 150 73 99 148-28 42-96 3-68-39 29-42-32-26-49-21-22 6-48 4-71 2-45-4-87-23-109-64-29-53-4-109 37-151-43-12-76-39-85-95-12-67-5-143-1-211 5-71 15-155 70-205 96-88 219-1 255 95 43 115 23 248 22 368 0 19-12 31-27 36-4 1-7 2-12 3-23 2-49 6-77 10-4 3-9 6-15 8-33 8-130 68-93 113 26 33 93 13 124 3z m23-208c2-31 4-69 5-111-22 3-45 4-67 6 0 38-5 75-5 113 22-2 45-5 67-8z m4-189c-6-112-36-214-144-185-49 13-58 112-58 197 68-1 135-5 202-12z m-150 200c0 0 0 0 1 0 0-37 4-74 5-112-19 1-37 2-56 2 0 14 1 26 1 34-1 44 1 73 49 76z" horiz-adv-x="1000" />
<glyph glyph-name="small88" unicode="&#xe847;" d="m788 704c-1 25-40 25-39 0 3-83-72-95-133-125-5-2-10-5-14-8-33 25-67 47-105 64-16 6-35 7-48-7-70-76-145-147-219-220-40-39-108-87-122-145-25-101 123-256 199-299 150-85 314 102 406 193 112 112 65 226-19 334-2 5-6 9-10 13-4 4-8 7-12 9-11 10-23 20-35 30 16 10 35 18 56 27 60 27 98 65 95 134z m-82-392c7-55-49-102-85-135-86-79-209-224-323-107-34 36-65 76-92 118-31 50-17 66 18 105 83 91 177 172 262 260 21-12 42-25 62-40-16-31-21-68-18-107 2-25 41-25 39 0-3 35 2 61 12 82 16-13 32-26 47-39 32-39 71-85 78-137z" horiz-adv-x="1000" />
<glyph glyph-name="speech16" unicode="&#xe848;" d="m173 262c0-81 1-162 13-242 3-27 37-34 57-24 74 39 141 89 210 136 153-12 314 17 393 163 60 113 31 254-58 342-113 111-327 108-468 66-183-54-234-286-147-441z m60 277c28 63 94 88 157 101 113 22 265 17 351-67 66-65 74-170 32-249-62-115-203-124-319-114-6 2-13 3-20 1-10-1-17-6-22-13-52-35-103-72-157-105-5 61-4 122-4 183 0 11-5 20-12 27-37 70-38 164-6 236z" horiz-adv-x="1000" />
<glyph glyph-name="speech23" unicode="&#xe849;" d="m304 623c-182-54-234-285-147-441 0-81 1-162 13-242 4-26 37-34 57-23 74 39 141 88 210 135 153-12 314 17 393 164 61 112 31 253-58 341-113 111-326 108-468 66z m453-378c-62-116-203-124-318-115-7 2-13 3-21 1-10-1-17-6-22-13-52-35-103-72-157-104-5 60-4 122-4 183 0 10-5 20-12 27-37 69-37 163-5 235 28 63 93 88 156 101 113 22 266 18 352-67 66-65 73-169 31-248z m-121 207c-47-16-82-33-130-5-26 15-46 28-75 34-48 11-99-17-140-36-23-11-3-45 19-34 33 15 64 30 100 33 40 3 67-32 101-44 50-19 87-2 136 14 24 8 13 46-11 38z m0-158c-47-16-82-33-130-5-26 15-46 27-75 34-48 11-99-17-140-37-23-10-3-44 19-33 33 15 64 30 100 33 40 3 67-32 101-45 50-18 87-1 136 15 24 8 13 45-11 38z" horiz-adv-x="1000" />
<glyph glyph-name="spiral1" unicode="&#xe84a;" d="m557-55c93-45 246-80 295 44 65 162-72 310-188 401-91 72-260 262-387 170-145-105 3-247 92-321 62-51 129-97 191-147 36-30 73-49 119-41 33 6 67 38 67 73-1 59-50 96-93 129-41 30-80-38-40-68 2-1 74-50 46-58-20-6-57 31-71 41-61 48-123 93-182 142-35 28-120 89-112 143 18 120 158 6 198-26 105-84 235-159 284-290 28-75 16-158-79-156-44 0-90 26-128 46-100 51-189 123-268 202-75 76-148 170-129 281 43 245 324 111 456 29 43-26 82 41 40 68-179 110-487 224-567-57-75-264 254-506 456-605z" horiz-adv-x="1000" />
<glyph glyph-name="spring2" unicode="&#xe84b;" d="m186-68c90-59 232-10 331-14 64-2 222-57 272 1 54 62 30 185 25 259-8 131 1 258 0 388 0 91-7 226-121 235-173 12-353-14-526-15-11 0-20-4-26-10-8-6-13-16-13-29 0-26 0-51 0-76-24-1-48-1-73-1-37-1-37-59 0-59 25 0 49 1 74 2 0-61 1-122 2-183-25 0-50 0-76 0-37 0-37-59 0-59 26 0 52 0 77 0 1-42 1-85 1-128 0-11 0-24-1-36-26 0-51-1-77-1-37 0-37-59 0-59 24 1 48 1 72 2-8-83-11-171 59-217z m19 212c3 0 6 0 9-1 37-6 53 51 16 57-7 1-13 2-20 2 2 46 1 92 1 138 0 10-1 21-1 31 11 0 22 0 33 0 38 0 38 59 0 59-11 0-22 0-33 0-1 60-2 120-3 179 6 0 12-1 18-2 37-7 52 50 15 56-11 2-22 4-34 5 0 13 0 27 0 40 128 2 256 10 384 11 23 0 106 18 122-5 34-51 25-143 24-201-2-96-11-190-3-286 6-80 21-172 1-251-3-11-193 18-217 20-92 8-203-37-292 3-36 17-26 98-20 145z m724 356c0 67 0 135 0 203 0 50-78 50-78 0 0-68 0-136 0-203 0-51 78-51 78 0z m-77-300c7-50 82-28 76 21-7 51-3 103-3 154 0 50-78 50-78 0 0-59-3-117 5-175z m-1-107c0-37 0-75 0-113 0-50 78-50 78 0 0 38 0 76 0 113 0 51-78 51-78 0z" horiz-adv-x="1000" />
<glyph glyph-name="spring3" unicode="&#xe84c;" d="m841 643c0 22-14 40-39 41-30 1-61 1-92 2-1 14-1 27-2 41-4 50-82 50-78 0 0-14 1-27 2-41-18 0-35 0-52 0 0 13 1 27 1 41 0 50-78 50-78 0 0-14-1-28-1-43-16 0-32 0-48 0 0 14 0 29 0 43 0 50-78 50-78 0 0-15 0-30 0-44-19-1-38-1-58-1 1 12 2 23 4 35 3 21-5 42-27 48-19 5-45-7-48-28-3-18-5-36-6-54-16 0-33 0-49 1-5 0-10-1-14-2-21 3-46-9-46-37 3-220-71-426-101-642-5-31 16-53 48-48 133 20 268 19 402 12 55-4 134-26 182 14 96-2 191-18 287 2 16 3 31 21 29 37-24 204-89 399-125 601-2 10-7 17-13 22z m-631-38c9 0 19 0 29 0 0-2-1-3-1-5 0-50 79-50 79 0 0 1 0 3 0 4 19 0 39 0 59 0 0-7 0-14 0-21 0-50 78-50 78 0 0 7 0 15 0 23 17 0 33 0 50 0 1-7 1-15 2-23 3-21 16-39 39-39 19 0 42 18 39 39-1 8-1 16-2 24 17 1 34 1 51 1 0-8 0-17 0-25 0-50 78-50 78 0 0 8 0 16 0 25 15 0 30-1 45-1-5-28-10-55-16-82-2 1-4 1-6 1-177 0-353-6-529-7 2 29 4 57 5 86z m407-545c-10-37-54-26-89-22-39 6-78 9-118 10-99 4-197 1-295-10 23 135 59 268 80 403 175 1 351 6 527 7-31-130-70-258-105-388z m82-2c1 4 2 9 4 14 22 55 35 116 51 173 20 72 38 144 54 217 31-136 69-271 88-409-65-7-132 1-197 5z m-211 331c-49 0-97 2-145-8-9-2-15-11-15-19 0-31 0-63 0-94 0-12 13-23 25-19 40 13 99 12 105-41 6-54-78-82-101-32-11 23-44 3-34-19 34-74 145-51 171 17 15 38-6 83-37 106-25 17-59 19-90 13 0 18 0 35 0 53 40 6 81 4 121 4 26 0 26 39 0 39z" horiz-adv-x="1000" />
<glyph glyph-name="star44" unicode="&#xe84d;" d="m74 385c52-3 98-18 146-36 63-24 67-14 71-70 6-98-45-198-53-296-2-33 46-54 67-28 62 75 127 148 192 220 60-89 112-200 223-226 20-5 43 6 48 27 27 117-41 223-77 332 76 12 147 47 215 83 30 15 24 64-9 71-84 19-180 43-247 100-65 55-79 164-106 241-1 25-28 38-51 32-16-4-29-15-29-33-23-71-44-195-107-236-34-22-81-29-119-41-59-17-115-45-174-63-43-13-33-74 10-77z m202 70c44 13 107 24 141 58 42 41 67 99 87 158 17-55 39-109 77-150 50-53 121-86 194-108-43-18-87-31-134-32-27 0-43-24-38-49 20-91 91-192 94-289-75 47-118 157-169 221-13 17-42 15-56 0-43-48-87-97-130-146 18 77 37 154 18 234-7 30-44 41-68 51-26 11-52 22-78 31 20 7 41 15 62 21z" horiz-adv-x="1000" />
<glyph glyph-name="storage3" unicode="&#xe84e;" d="m175-97c85-10 170 0 255-3 79-2 158-5 238-8 34-1 66-1 100 11 71 23 74 83 75 147 4 219-33 445-91 656-18 67-77 83-139 84-112 3-224-8-336-4-24 0-36-17-38-35 0-3-1-5-1-8-18-199-91-404-107-606-1-4-1-7-1-11-5-65-3-130 8-195 3-18 21-26 37-28z m80 467c23 112 45 224 57 337 69 0 138 3 207 4 37 1 75 2 113 1 53-1 55-64 64-105 21-91 45-189 53-282 4-42 9-86 12-129-51 0-101 0-152 0-23 0-36-18-39-39-3-25-3-50-3-75-23-2-45-4-68-6-24-2-49-3-73 0-19 3-15 38-22 49-36 65-119 56-188 48 10 66 25 132 39 197z m-48-277c38 4 76 9 114 4 18-3 25-73 53-85 71-31 156-11 231-4 22 3 38 16 39 39 1 24 1 47 1 71 40 0 81 0 121 0 0-15 0-30 0-44-2-56 2-106-67-105-36 1-73 3-109 4-66 2-132 4-198 7-61 2-122-5-183-2-4 39-4 77-2 115z" horiz-adv-x="1000" />
<glyph glyph-name="suitcase16" unicode="&#xe84f;" d="m137-45c119-6 238-1 358 4 101 4 211-8 312 6 153 21 91 257 84 360-5 64 9 127 0 191-8 57-73 65-119 67-22 2-44 1-66 1-15 51-30 102-68 141-44 46-122 41-181 39-130-4-197-76-212-194-39 0-79 0-118-1-11 0-20-4-26-10-8-6-13-16-13-29 0-178 10-357 10-536 0-22 18-38 39-39z m684 106c-7-35-78-18-106-18-180 5-359-16-539-11-1 85-3 170-6 255 77-33 154-60 237-74-9-23 2-55 34-55 37 0 73 0 110 0 32 0 44 32 35 55 80 13 157 44 228 86 4-50 10-100 12-149 1-30 1-60-5-89z m-364 625c45 3 109 10 139-31 15-21 24-49 31-76-30-2-60-4-90-5-71 0-142-1-213-2 10 72 48 108 133 114z m189-186c22 1 162 22 169-5 9-32 5-68 1-104-73-47-150-81-232-97-4 16-16 29-36 29-35 0-69 1-104-2-18-2-33-13-38-30-82 13-162 48-238 82-1 39-1 79-2 118 160 0 322-4 480 9z" horiz-adv-x="1000" />
<glyph glyph-name="thermometer16" unicode="&#xe850;" d="m488-97c204-12 321 242 165 372 7 94 9 189 5 283-3 90-8 240-112 274-6 2-11 2-16 2-128 13-182-77-189-195-8-120-2-242-1-362-57-42-73-120-68-186 10-122 103-181 216-188z m-89 318c12 6 19 21 19 34 0 81 0 161 0 241 0 98-30 270 109 260 43-16 46-118 50-152 6-54 6-109 5-164 0-61-3-122-8-183-2-14 8-27 19-34 51-34 63-92 48-149-19-72-86-92-153-93-95 0-141 62-139 153 0 33 19 72 50 87z m140-95c0 152 0 304 0 456 0 50-78 50-78 0 0-152 0-304 0-456 0-50 78-50 78 0z" horiz-adv-x="1000" />
<glyph glyph-name="thick4" unicode="&#xe851;" d="m850 293c-33 16-66 32-98 48 36 22 72 49 80 85 14 57-56 145-80 192-9 18-37 26-53 14-32-22-63-43-95-64 1 47-3 98-30 126-43 42-157 27-210 31-20 1-40-19-39-39 3-40 5-80 7-119-45 24-98 45-133 24-48-29-79-102-96-153-6-18 4-35 18-44 32-22 64-42 97-63-45-25-91-58-102-101-15-54 50-135 83-171 12-14 32-14 47-6 32 15 63 31 94 47 1-47 8-98 40-125 41-35 136-21 184-11 18 3 28 21 29 37 3 38 5 75 7 113 43-26 94-53 130-43 63 20 101 118 134 169 11 17 5 45-14 53z m-661 150c10 23 24 43 38 65 13 22 60-3 94-25-24-24-42-55-52-91-27 16-54 33-80 51z m48-307c-20 27-48 70-38 81 19 22 45 39 72 54 11-35 32-65 60-87-31-16-62-33-94-48z m467 405c14-28 28-56 42-85 15-30-5-24-30-40-10-7-19-13-29-19-8 39-26 73-53 98 24 15 47 31 70 46z m-189 95c5 0 7-48 8-88-10 1-19 2-29 2-29 0-57-4-83-12-1 35-3 70-5 106 36-3 73-5 109-8z m2-600c-29-2-59 1-89 2-9 0-10 65-9 103 33-9 69-12 104-7-2-33-3-66-6-98z m34 188c-88-56-200 12-211 107-10 90 73 142 154 141 19 0 36-4 50-10 2-2 5-3 7-4 82-43 87-178 0-234z m158-77c1 0-42 23-77 42 24 28 42 63 51 99 30-15 61-30 91-44-20-34-41-67-65-97z" horiz-adv-x="1000" />
<glyph glyph-name="three28" unicode="&#xe852;" d="m156 41c0 29 14 43 46 43 3 0 17-14 17-43 0-5-14-19-17-19-32 0-46 14-46 19z m-3 532c24 0 47 0 71 0 25 0 25 39 0 39-24 0-47 0-71 0-25 0-25-39 0-39z m-3-90c24 0 49 0 74 0 25 0 25 39 0 39-25 0-50 0-74 0-26 0-26-39 0-39z m76-63c-24-4-48-4-73-4-25 0-25-39 0-39 28 0 56 1 84 5 25 4 14 41-11 38z m180-378c0 28 14 42 32 42 17 0 31-14 31-42 0-6-14-20-31-20-18 0-32 14-32 20z m-17 531c24 0 47 0 71 0 25 0 25 40 0 40-24 0-47 0-71 0-25 0-25-40 0-40z m-3-89c24 0 49 0 74 0 25 0 25 39 0 39-25 0-50 0-74 0-26 0-26-39 0-39z m76-64c-24-3-48-3-73-3-25 0-25-39 0-39 28 0 56 1 84 5 25 4 14 41-11 37z m281 369c-64-1-119-36-179-53-7-2-12-5-15-9-9 13-21 22-38 26-63 12-124-10-187-14-5 0-9-1-13-3-1-1-3-2-4-3-8 9-18 16-32 19-63 12-124-10-187-13-5-1-9-2-13-4-9-4-16-13-16-26 0-255-10-510 0-765 1-18 13-28 29-30 73-9 146 4 219 0 4 0 7 1 11 2 2 0 4-1 6-1 73-9 146 4 219 0 12 0 27 9 28 22 30 216-5 431-4 648 44-212 85-424 139-633 3-12 15-23 28-22 76 7 147 35 221 48 12 2 23 16 22 28-17 227-104 438-148 660-8 45-24 124-86 123z m-461-815c-55 0-110-7-165-4-8 238 0 475 0 713 37 4 72 12 109 14 71 5 48-174 49-218 7-168 26-337 7-505z m236 0c-55 1-110-6-165-3-8 238 0 475 0 713 37 4 72 12 109 14 71 5 48-174 49-218 7-169 26-338 7-506z m238 18c-58 230-101 464-151 696 35 12 69 27 105 38 66 19 83-164 93-205 43-163 97-323 113-491-53-12-106-30-160-38z m25 87c0 23 14 37 43 37 6 0 20-14 20-37 0-12-14-26-20-26-29 0-43 14-43 26z m-116 509c23 5 46 10 69 15 24 6 14 43-11 38-23-5-45-10-68-15-25-5-14-43 10-38z m77-35c-24-5-48-10-72-16-25-5-14-43 10-37 25 5 49 10 73 16 24 5 14 43-11 37z m30-97c-25-10-50-15-76-21-24-5-14-43 11-37 25 5 51 11 75 20 23 9 13 47-10 38z" horiz-adv-x="1000" />
<glyph glyph-name="trash20" unicode="&#xe853;" d="m768 655c-83-3-166-1-249 0-93 1-184-17-277-5-20 2-32-9-36-24-2-5-3-9-3-15-5-204 9-422 44-623 2-12 15-26 28-28 106-15 215-19 323-15 63 2 190 2 200 87 11 93 12 189 14 284 3 102 9 209-6 310-3 17-22 30-38 29z m-44-577c-1-12-2-23-3-35 0 0 0 0 0 0-36-24-99-19-140-21-87-3-176 0-262 11-29 173-40 359-39 536 80-4 159 8 239 8 72-1 144-3 215-1 20-161 0-338-10-498z m75 690c-50 0-99-1-149-1-42 58-91 67-161 67-64 1-101-16-124-70-52 0-104-1-156-1-51 0-51-78 0-78 196 1 393 4 590 4 50 1 50 79 0 79z m-421-387c0 25-39 25-39 0 0-84 4-167 12-250 3-25 42-25 39 0-8 83-12 166-12 250z m62 120c5-124 13-249 13-374 0-25 39-25 39 0 0 125-8 250-13 374-1 25-40 26-39 0z m137-120c0 25-39 25-39 0 1-84 5-167 13-250 2-25 41-25 39 0-8 83-12 166-13 250z m62 120c5-124 13-249 14-374 0-25 39-25 39 0-1 125-9 250-14 374-1 25-40 26-39 0z" horiz-adv-x="1000" />
<glyph glyph-name="tree14" unicode="&#xe854;" d="m166 283c38 41 71 82 119 100-19-50-33-98-26-155 4-36 52-57 72-20 13 24 29 39 49 48 19-103 0-210 0-313 0-22 17-40 39-40 63 0 125 0 188 0 22 0 39 18 39 40 0 103-19 210 0 313 20-9 36-24 49-48 20-37 68-16 72 20 7 57-7 105-26 155 48-18 81-59 119-100 15-16 41-15 56 0 70 68 22 190-14 265-57 119-172 171-299 174-120 0-245 13-356-41-108-53-244-294-137-398 15-15 41-16 56 0z m25 225c38 80 105 122 191 134 72 9 148 2 221 2 83-2 161-27 211-97 22-30 62-111 61-166-54 53-110 92-195 89-23-1-47-25-38-49 13-33 27-63 36-94-15 8-32 13-51 16-21 4-41-5-48-27-31-109-15-222-11-334-37 0-73 0-110 0 4 112 20 225-11 334-7 22-27 31-48 27-19-3-36-8-51-16 9 31 23 61 36 94 9 25-15 48-38 49-85 3-141-36-195-89 0 43 27 100 40 127z" horiz-adv-x="1000" />
<glyph glyph-name="triangle11" unicode="&#xe855;" d="m221 662c-6 3-12 4-19 3-14 0-25-8-31-19-6-9-8-19-5-31 1-4 3-8 5-12 104-196 168-411 274-606 17-30 63-22 72 9 48 170 190 295 323 402 22 18 11 61-17 66-209 35-398 134-602 188z m253-549c-72 147-126 303-196 451 150-47 294-113 447-150-100-85-195-183-251-301z" horiz-adv-x="1000" />
<glyph glyph-name="tshirt8" unicode="&#xe856;" d="m764 603c-40 37-55 54-108 54-112 0-223 0-334 0-4 0-8 0-12-1-1 0-2 0-3 0 0-1-1-1-2-1-4-1-8-3-11-6-112-67-196-177-239-300-6-17 4-35 18-44 49-30 93-67 144-94 19-10 42-5 53 14 6 9 11 18 16 27 1-94-2-189-2-284 0-17 12-34 29-38 79-17 157-8 237-3 39 2 101-16 133 16 36 36 33 105 31 151-2 61-5 123-5 184 17-16 35-32 51-51 12-15 43-16 55 0 39 50 86 91 125 140 14 18 16 38 0 56-56 63-114 123-176 180z m-79-24c13 0 2-1-6 0 2 0 4 0 6 0z m100-267c-30 26-65 51-76 88-13 43-74 33-77-11-3-66-1-133-2-199-1-59 15-116 2-174-5-24 4-13-14-11-32 2-63 0-94-2-54-3-108-9-162-2 1 127 6 253-2 379-2 42-49 51-73 20-24-32-44-67-64-102-28 18-55 38-83 56 38 92 104 173 189 225 102 0 203 0 305 0 14 0 28 0 42 0 11-11 22-21 33-31 52-50 103-101 152-154-25-28-51-54-76-82z" horiz-adv-x="1000" />
<glyph glyph-name="user61" unicode="&#xe857;" d="m192 57c58-98 226-119 327-116 90 2 239 32 284 122 24 50-14 127-33 174-25 58-60 111-105 156 36 46 53 109 50 166-5 112-91 189-201 189-124 1-228-79-237-206-4-63 17-114 53-152-45-48-81-103-106-165-16-40-58-124-32-168z m322 612c138 0 166-186 59-255-91-58-206 13-217 110-10 93 75 146 158 145z m-246-565c5 26 13 51 22 76 21 62 59 118 105 165 49-22 107-29 163-20 17 3 33 9 48 17 66-66 104-148 124-240 11-51-171-81-211-83-83-5-166 13-235 58-28 19-21-1-16 27z" horiz-adv-x="1000" />
<glyph glyph-name="volume20" unicode="&#xe858;" d="m155 496c35-163 41-329 41-494 0-51 78-51 78 0 0 172-7 345-44 514-10 50-86 29-75-20z m197-267c1-76 7-151 7-227 1-51 79-51 79 0-1 76-7 151-7 227-1 50-79 50-79 0z m121 185c1-138 13-275 14-412 1-51 79-51 78 0-1 137-13 274-14 412 0 50-78 50-78 0z m235-412c4 205-48 406-50 610-1 51-79 51-78 0 2-204 54-405 49-610-1-51 78-51 79 0z m29 359c20-119 20-239 20-359 0-51 78-51 78 0 0 127-2 253-22 379-8 50-84 29-76-20z" horiz-adv-x="1000" />
<glyph glyph-name="white28" unicode="&#xe859;" d="m888 639c-4 27-20 43-41 52-8 8-20 12-31 10-16 4-33 5-47 6-78 4-157-9-235-9-137-1-273-5-410-5-11 0-20-4-26-10-8-7-13-16-13-29 0-179 10-358 10-537 0-22 18-38 39-39 120-6 239-1 358 4 102 5 212-7 312 7 153 20 91 256 84 359-5 64 9 127 0 191z m-245-16c12 1 59 7 100 9-61-71-125-148-214-174-63-17-121 58-165 92-32 25-67 45-102 64 127-1 255-1 381 9z m-470-468c-1 141-7 282-9 422 66-37 133-72 191-120 0 0-1 0-1-1-56-103-131-193-178-301-1 0-2 0-3 0z m540 12c-151 4-302-11-453-12 44 89 109 167 157 254 35-22 73-36 117-29 24 4 47 12 68 23 71-67 121-151 157-240 0 0 0 0 0 0-18 1-36 3-46 4z m109 46c-37 86-85 167-152 233 54 43 101 101 147 152 5-48-10-102-7-150 3-58 11-116 13-175 1-20 1-40-1-60z" horiz-adv-x="1000" />
<glyph glyph-name="gift13" unicode="&#xe82d;" d="m914-56c4 181 6 363-6 544-1 12-8 26-22 28-73 11-147 16-220 18 107 48 207 130 118 246-50 66-162 65-221 13-34-30-50-70-59-112-16 34-39 64-68 89-57 51-156 71-219 22-63-50-26-158 20-204 22-22 49-37 79-50-57 0-113-2-169-9-2 0-4-1-7-2-13-1-24-10-22-27 15-116 2-233 3-349 1-67 2-161 58-209 63-53 187-24 259-24 149 2 298-6 447-4 16 1 29 14 29 30z m-333 780c36 69 136 59 172-1 52-87-125-147-198-168-1 57-1 118 26 169z m-331 16c29 62 140-4 167-32 40-40 58-100 63-156-93 24-286 63-230 188z m606-767c-99-1-199 2-299 3-101 2-211-15-311 0-83 12-66 167-66 226 0 91 8 181-1 272 90 8 180 3 270 2-9-18-17-38-25-57-12-31-31-128-75-123-38 4-37-55 0-59 98-10 110 125 150 208 31-107 97-243 207-212 36 11 21 67-16 57-70-20-117 103-139 187 100 1 201-2 300-15 9-163 8-326 5-489z" horiz-adv-x="1000" />
</font>
</defs>
</svg>
